<svg xmlns="http://www.w3.org/2000/svg" width="1920" height="1080" viewBox="0 0 1920 1080"><defs>
  <marker id="arrow" markerWidth="18" markerHeight="18" refX="16" refY="9" orient="auto" markerUnits="userSpaceOnUse"><path d="M0,0 L18,9 L0,18 z" fill="#486581"/></marker>
  <filter id="softShadow" x="-10%" y="-10%" width="120%" height="120%"><feDropShadow dx="0" dy="1.2" stdDeviation="1.2" flood-color="#8AA2B4" flood-opacity="0.22"/></filter>
</defs><rect x="0" y="0" width="1920" height="1080" rx="0" fill="#FFFFFF"/><text x="960.0" y="105.1" text-anchor="middle" font-family="&#x27;Noto Sans&#x27;, &#x27;DejaVu Sans&#x27;, Arial, sans-serif" font-size="42" font-weight="700" fill="#17324D"><tspan x="960.0" dy="0">C1.01 — Ландшафт системи психіатричних сценаріїв</tspan></text><text x="960.0" y="144.3" text-anchor="middle" font-family="&#x27;Noto Sans&#x27;, &#x27;DejaVu Sans&#x27;, Arial, sans-serif" font-size="22" font-weight="400" fill="#486581"><tspan x="960.0" dy="0">Користувачі, клінічні спеціалісти та зовнішні системи, інтегровані з платформою</tspan></text><rect x="145" y="185" width="500" height="250" rx="13" fill="#F8FBFE" stroke="#AFC5D6" stroke-width="2.4" filter="url(#softShadow)"/><rect x="145" y="185" width="500" height="66" rx="13" fill="#E9F2FA"/><rect x="145" y="243" width="500" height="8" rx="0" fill="#E9F2FA"/><line x1="147" y1="251" x2="643" y2="251" fill="none" stroke="#C4D6E4" stroke-width="1.2" stroke-linecap="round" stroke-linejoin="round"/><text x="159" y="211.8" text-anchor="start" font-family="&#x27;Noto Sans&#x27;, &#x27;DejaVu Sans&#x27;, Arial, sans-serif" font-size="25" font-weight="700" fill="#1F3B53"><tspan x="159" dy="0">Користувачі та основний</tspan><tspan x="159" dy="26.8">клінічний контур</tspan></text><rect x="175" y="273" width="205" height="62" rx="10" fill="#0C7C8C" stroke="#486581" stroke-width="2.2"/><text x="277.5" y="311.7" text-anchor="middle" font-family="&#x27;Noto Sans&#x27;, &#x27;DejaVu Sans&#x27;, Arial, sans-serif" font-size="26" font-weight="700" fill="#FFFFFF"><tspan x="277.5" dy="0">Пацієнт</tspan></text><rect x="410" y="273" width="205" height="62" rx="10" fill="#6C4AB6" stroke="#486581" stroke-width="2.2"/><text x="512.5" y="310.5" text-anchor="middle" font-family="&#x27;Noto Sans&#x27;, &#x27;DejaVu Sans&#x27;, Arial, sans-serif" font-size="22" font-weight="700" fill="#FFFFFF"><tspan x="512.5" dy="0">Лікар-психіатр</tspan></text><rect x="175" y="357" width="205" height="62" rx="10" fill="#6C4AB6" stroke="#486581" stroke-width="2.2"/><text x="277.5" y="383.4" text-anchor="middle" font-family="&#x27;Noto Sans&#x27;, &#x27;DejaVu Sans&#x27;, Arial, sans-serif" font-size="20" font-weight="700" fill="#FFFFFF"><tspan x="277.5" dy="0">Психолог /</tspan><tspan x="277.5" dy="21.0">психотерапевт</tspan></text><rect x="410" y="357" width="205" height="62" rx="10" fill="#6C4AB6" stroke="#486581" stroke-width="2.2"/><text x="512.5" y="383.9" text-anchor="middle" font-family="&#x27;Noto Sans&#x27;, &#x27;DejaVu Sans&#x27;, Arial, sans-serif" font-size="18" font-weight="700" fill="#FFFFFF"><tspan x="512.5" dy="0">Медична сестра /</tspan><tspan x="512.5" dy="18.9">координатор</tspan></text><rect x="145" y="460" width="500" height="250" rx="13" fill="#F8FBFE" stroke="#AFC5D6" stroke-width="2.4" filter="url(#softShadow)"/><rect x="145" y="460" width="500" height="54" rx="13" fill="#E9F2FA"/><rect x="145" y="506" width="500" height="8" rx="0" fill="#E9F2FA"/><line x1="147" y1="514" x2="643" y2="514" fill="none" stroke="#C4D6E4" stroke-width="1.2" stroke-linecap="round" stroke-linejoin="round"/><text x="159" y="494.1" text-anchor="start" font-family="&#x27;Noto Sans&#x27;, &#x27;DejaVu Sans&#x27;, Arial, sans-serif" font-size="25" font-weight="700" fill="#1F3B53"><tspan x="159" dy="0">Суміжні медичні спеціалісти</tspan></text><rect x="175" y="536" width="205" height="62" rx="10" fill="#2F73B8" stroke="#1F5E9C" stroke-width="2.2"/><text x="277.5" y="574.4" text-anchor="middle" font-family="&#x27;Noto Sans&#x27;, &#x27;DejaVu Sans&#x27;, Arial, sans-serif" font-size="25" font-weight="700" fill="#FFFFFF"><tspan x="277.5" dy="0">Кардіолог</tspan></text><rect x="410" y="536" width="205" height="62" rx="10" fill="#2F73B8" stroke="#1F5E9C" stroke-width="2.2"/><text x="512.5" y="574.1" text-anchor="middle" font-family="&#x27;Noto Sans&#x27;, &#x27;DejaVu Sans&#x27;, Arial, sans-serif" font-size="24" font-weight="700" fill="#FFFFFF"><tspan x="512.5" dy="0">Реабілітолог</tspan></text><rect x="175" y="620" width="205" height="62" rx="10" fill="#2F73B8" stroke="#1F5E9C" stroke-width="2.2"/><text x="277.5" y="658.4" text-anchor="middle" font-family="&#x27;Noto Sans&#x27;, &#x27;DejaVu Sans&#x27;, Arial, sans-serif" font-size="25" font-weight="700" fill="#FFFFFF"><tspan x="277.5" dy="0">Невролог</tspan></text><rect x="410" y="620" width="205" height="62" rx="10" fill="#2F73B8" stroke="#1F5E9C" stroke-width="2.2"/><text x="512.5" y="658.4" text-anchor="middle" font-family="&#x27;Noto Sans&#x27;, &#x27;DejaVu Sans&#x27;, Arial, sans-serif" font-size="25" font-weight="700" fill="#FFFFFF"><tspan x="512.5" dy="0">Педіатр</tspan></text><rect x="145" y="735" width="500" height="170" rx="13" fill="#F8FBFE" stroke="#AFC5D6" stroke-width="2.4" filter="url(#softShadow)"/><rect x="145" y="735" width="500" height="54" rx="13" fill="#E9F2FA"/><rect x="145" y="781" width="500" height="8" rx="0" fill="#E9F2FA"/><line x1="147" y1="789" x2="643" y2="789" fill="none" stroke="#C4D6E4" stroke-width="1.2" stroke-linecap="round" stroke-linejoin="round"/><text x="159" y="769.1" text-anchor="start" font-family="&#x27;Noto Sans&#x27;, &#x27;DejaVu Sans&#x27;, Arial, sans-serif" font-size="25" font-weight="700" fill="#1F3B53"><tspan x="159" dy="0">Дослідження й експлуатація</tspan></text><rect x="175" y="820" width="205" height="64" rx="10" fill="#0C7C8C" stroke="#486581" stroke-width="2.2"/><text x="277.5" y="847.6" text-anchor="middle" font-family="&#x27;Noto Sans&#x27;, &#x27;DejaVu Sans&#x27;, Arial, sans-serif" font-size="19" font-weight="700" fill="#FFFFFF"><tspan x="277.5" dy="0">Аналітик /</tspan><tspan x="277.5" dy="19.9">дослідник</tspan></text><rect x="410" y="820" width="205" height="64" rx="10" fill="#4A5568" stroke="#486581" stroke-width="2.2"/><text x="512.5" y="841.4" text-anchor="middle" font-family="&#x27;Noto Sans&#x27;, &#x27;DejaVu Sans&#x27;, Arial, sans-serif" font-size="14" font-weight="700" fill="#FFFFFF"><tspan x="512.5" dy="0">Адміністратор</tspan><tspan x="512.5" dy="14.7">платформи</tspan><tspan x="512.5" dy="14.7">та безпеки</tspan></text><rect x="770" y="438" width="380" height="150" rx="15" fill="#0A6EBD" stroke="#075A9A" stroke-width="3" filter="url(#softShadow)"/><text x="960.0" y="483.9" text-anchor="middle" font-family="&#x27;Noto Sans&#x27;, &#x27;DejaVu Sans&#x27;, Arial, sans-serif" font-size="26" font-weight="700" fill="#FFFFFF"><tspan x="960.0" dy="0">Платформа реалізації</tspan><tspan x="960.0" dy="27.3">психіатричних сценаріїв</tspan><tspan x="960.0" dy="27.3">та алгоритмів</tspan></text><text x="960.0" y="566.1" text-anchor="middle" font-family="&#x27;Noto Sans&#x27;, &#x27;DejaVu Sans&#x27;, Arial, sans-serif" font-size="17" font-weight="400" fill="#FFFFFF"><tspan x="960.0" dy="0">[Програмна система]</tspan></text><rect x="1275" y="185" width="500" height="265" rx="13" fill="#F8FBFE" stroke="#AFC5D6" stroke-width="2.4" filter="url(#softShadow)"/><rect x="1275" y="185" width="500" height="54" rx="13" fill="#E9F2FA"/><rect x="1275" y="231" width="500" height="8" rx="0" fill="#E9F2FA"/><line x1="1277" y1="239" x2="1773" y2="239" fill="none" stroke="#C4D6E4" stroke-width="1.2" stroke-linecap="round" stroke-linejoin="round"/><text x="1289" y="219.1" text-anchor="start" font-family="&#x27;Noto Sans&#x27;, &#x27;DejaVu Sans&#x27;, Arial, sans-serif" font-size="25" font-weight="700" fill="#1F3B53"><tspan x="1289" dy="0">Клінічні дані та знання</tspan></text><rect x="1303" y="255" width="206" height="48" rx="10" fill="#E9EEF4" stroke="#486581" stroke-width="2.2"/><text x="1406.0" y="284.0" text-anchor="middle" font-family="&#x27;Noto Sans&#x27;, &#x27;DejaVu Sans&#x27;, Arial, sans-serif" font-size="17" font-weight="700" fill="#263238"><tspan x="1406.0" dy="0">МІС / EHR / ЕСОЗ</tspan></text><rect x="1541" y="255" width="206" height="48" rx="10" fill="#E9EEF4" stroke="#486581" stroke-width="2.2"/><text x="1644.0" y="276.0" text-anchor="middle" font-family="&#x27;Noto Sans&#x27;, &#x27;DejaVu Sans&#x27;, Arial, sans-serif" font-size="13" font-weight="700" fill="#263238"><tspan x="1644.0" dy="0">Сервіс</tspan><tspan x="1644.0" dy="13.7">термінологій</tspan></text><rect x="1303" y="317" width="206" height="48" rx="10" fill="#E9EEF4" stroke="#486581" stroke-width="2.2"/><text x="1406.0" y="338.0" text-anchor="middle" font-family="&#x27;Noto Sans&#x27;, &#x27;DejaVu Sans&#x27;, Arial, sans-serif" font-size="13" font-weight="700" fill="#263238"><tspan x="1406.0" dy="0">Клінічні</tspan><tspan x="1406.0" dy="13.7">протоколи</tspan></text><rect x="1541" y="317" width="206" height="48" rx="10" fill="#E9EEF4" stroke="#486581" stroke-width="2.2"/><text x="1644.0" y="338.0" text-anchor="middle" font-family="&#x27;Noto Sans&#x27;, &#x27;DejaVu Sans&#x27;, Arial, sans-serif" font-size="13" font-weight="700" fill="#263238"><tspan x="1644.0" dy="0">Репозиторій</tspan><tspan x="1644.0" dy="13.7">вихідних алгоритмів</tspan></text><rect x="1303" y="379" width="444" height="48" rx="10" fill="#E9EEF4" stroke="#486581" stroke-width="2.2"/><text x="1525.0" y="408.0" text-anchor="middle" font-family="&#x27;Noto Sans&#x27;, &#x27;DejaVu Sans&#x27;, Arial, sans-serif" font-size="17" font-weight="700" fill="#263238"><tspan x="1525.0" dy="0">PACS / DICOM-сховище</tspan></text><rect x="1275" y="475" width="500" height="220" rx="13" fill="#F8FBFE" stroke="#AFC5D6" stroke-width="2.4" filter="url(#softShadow)"/><rect x="1275" y="475" width="500" height="54" rx="13" fill="#E9F2FA"/><rect x="1275" y="521" width="500" height="8" rx="0" fill="#E9F2FA"/><line x1="1277" y1="529" x2="1773" y2="529" fill="none" stroke="#C4D6E4" stroke-width="1.2" stroke-linecap="round" stroke-linejoin="round"/><text x="1289" y="509.1" text-anchor="start" font-family="&#x27;Noto Sans&#x27;, &#x27;DejaVu Sans&#x27;, Arial, sans-serif" font-size="25" font-weight="700" fill="#1F3B53"><tspan x="1289" dy="0">Комунікація та маршрутизація</tspan></text><rect x="1303" y="545" width="206" height="48" rx="10" fill="#E9EEF4" stroke="#486581" stroke-width="2.2"/><text x="1406.0" y="566.0" text-anchor="middle" font-family="&#x27;Noto Sans&#x27;, &#x27;DejaVu Sans&#x27;, Arial, sans-serif" font-size="13" font-weight="700" fill="#263238"><tspan x="1406.0" dy="0">Провайдер</tspan><tspan x="1406.0" dy="13.7">повідомлень</tspan></text><rect x="1541" y="545" width="206" height="48" rx="10" fill="#E9EEF4" stroke="#486581" stroke-width="2.2"/><text x="1644.0" y="566.0" text-anchor="middle" font-family="&#x27;Noto Sans&#x27;, &#x27;DejaVu Sans&#x27;, Arial, sans-serif" font-size="13" font-weight="700" fill="#263238"><tspan x="1644.0" dy="0">Календар і запис</tspan><tspan x="1644.0" dy="13.7">на прийом</tspan></text><rect x="1303" y="607" width="206" height="48" rx="10" fill="#E9EEF4" stroke="#486581" stroke-width="2.2"/><text x="1406.0" y="628.0" text-anchor="middle" font-family="&#x27;Noto Sans&#x27;, &#x27;DejaVu Sans&#x27;, Arial, sans-serif" font-size="13" font-weight="700" fill="#263238"><tspan x="1406.0" dy="0">Платформа</tspan><tspan x="1406.0" dy="13.7">телемедицини</tspan></text><rect x="1541" y="607" width="206" height="48" rx="10" fill="#D92323" stroke="#A91515" stroke-width="2.2"/><text x="1644.0" y="628.0" text-anchor="middle" font-family="&#x27;Noto Sans&#x27;, &#x27;DejaVu Sans&#x27;, Arial, sans-serif" font-size="13" font-weight="700" fill="#FFFFFF"><tspan x="1644.0" dy="0">Кризова / екстрена</tspan><tspan x="1644.0" dy="13.7">служба</tspan></text><rect x="1275" y="720" width="500" height="180" rx="13" fill="#F8FBFE" stroke="#AFC5D6" stroke-width="2.4" filter="url(#softShadow)"/><rect x="1275" y="720" width="500" height="54" rx="13" fill="#E9F2FA"/><rect x="1275" y="766" width="500" height="8" rx="0" fill="#E9F2FA"/><line x1="1277" y1="774" x2="1773" y2="774" fill="none" stroke="#C4D6E4" stroke-width="1.2" stroke-linecap="round" stroke-linejoin="round"/><text x="1289" y="753.6" text-anchor="start" font-family="&#x27;Noto Sans&#x27;, &#x27;DejaVu Sans&#x27;, Arial, sans-serif" font-size="23" font-weight="700" fill="#1F3B53"><tspan x="1289" dy="0">Ідентичність, вимірювання та ШІ</tspan></text><rect x="1299" y="800" width="142" height="58" rx="10" fill="#E9EEF4" stroke="#486581" stroke-width="2.2"/><text x="1370.0" y="825.8" text-anchor="middle" font-family="&#x27;Noto Sans&#x27;, &#x27;DejaVu Sans&#x27;, Arial, sans-serif" font-size="14" font-weight="700" fill="#263238"><tspan x="1370.0" dy="0">Електронна</tspan><tspan x="1370.0" dy="14.7">ідентичність</tspan></text><rect x="1452" y="800" width="142" height="58" rx="10" fill="#E9EEF4" stroke="#486581" stroke-width="2.2"/><text x="1523.0" y="819.9" text-anchor="middle" font-family="&#x27;Noto Sans&#x27;, &#x27;DejaVu Sans&#x27;, Arial, sans-serif" font-size="12" font-weight="700" fill="#263238"><tspan x="1523.0" dy="0">Медичні</tspan><tspan x="1523.0" dy="12.6">пристрої та</tspan><tspan x="1523.0" dy="12.6">сенсори</tspan></text><rect x="1605" y="800" width="142" height="58" rx="10" fill="#6741D9" stroke="#486581" stroke-width="2.2"/><text x="1676.0" y="825.1" text-anchor="middle" font-family="&#x27;Noto Sans&#x27;, &#x27;DejaVu Sans&#x27;, Arial, sans-serif" font-size="17" font-weight="700" fill="#FFFFFF"><tspan x="1676.0" dy="0">Моделі</tspan><tspan x="1676.0" dy="17.9">ШІ</tspan></text><polyline points="645,310 700,310 770,462" fill="none" stroke="#486581" stroke-width="3.2" stroke-linecap="round" stroke-linejoin="round" marker-end="url(#arrow)"/><polyline points="645,585 714,585 770,520" fill="none" stroke="#486581" stroke-width="3.2" stroke-linecap="round" stroke-linejoin="round" marker-end="url(#arrow)"/><polyline points="645,820 710,820 770,574" fill="none" stroke="#486581" stroke-width="3.2" stroke-linecap="round" stroke-linejoin="round" marker-end="url(#arrow)"/><polyline points="1150,462 1210,462 1275,315" fill="none" stroke="#486581" stroke-width="3.2" stroke-linecap="round" stroke-linejoin="round" marker-end="url(#arrow)"/><polyline points="1150,520 1212,520 1275,585" fill="none" stroke="#486581" stroke-width="3.2" stroke-linecap="round" stroke-linejoin="round" marker-end="url(#arrow)"/><polyline points="1150,574 1210,574 1275,810" fill="none" stroke="#486581" stroke-width="3.2" stroke-linecap="round" stroke-linejoin="round" marker-end="url(#arrow)"/><text x="960.0" y="979.3" text-anchor="middle" font-family="&#x27;Noto Sans&#x27;, &#x27;DejaVu Sans&#x27;, Arial, sans-serif" font-size="18" font-weight="400" fill="#486581"><tspan x="960.0" dy="0">Сині модулі — кардіолог, реабілітолог, невролог і педіатр; клінічні рішення залишаються за уповноваженим фахівцем.</tspan></text></svg>