<?xml version="1.0" encoding="UTF-8" standalone="no"?>
<!DOCTYPE svg PUBLIC "-//W3C//DTD SVG 1.1//EN"
 "http://www.w3.org/Graphics/SVG/1.1/DTD/svg11.dtd">
<!-- Generated by graphviz version 2.42.4 (0)
 -->
<!-- Title: G Pages: 1 -->
<svg width="1294pt" height="366pt"
 viewBox="0.00 0.00 1294.40 366.40" xmlns="http://www.w3.org/2000/svg" xmlns:xlink="http://www.w3.org/1999/xlink">
<g id="graph0" class="graph" transform="scale(1 1) rotate(0) translate(25.2 341.2)">
<title>G</title>
<polygon fill="white" stroke="transparent" points="-25.2,25.2 -25.2,-341.2 1269.2,-341.2 1269.2,25.2 -25.2,25.2"/>
<text text-anchor="start" x="60.5" y="-301.8" font-family="DejaVu Sans" font-weight="bold" font-size="14.00">C1.05 — Контекст формалізації та керування алгоритмами</text>
<text text-anchor="start" x="8" y="-289.4" font-family="DejaVu Sans" font-size="12.00">Контекст життєвого циклу клінічних алгоритмів — від проєктного документа до перевіреної</text>
<text text-anchor="start" x="235.5" y="-277.4" font-family="DejaVu Sans" font-size="12.00">опублікованої версії.</text>
<!-- n_b30059fba026 -->
<g id="node1" class="node">
<title>n_b30059fba026</title>
<path fill="#e9eef4" stroke="#486581" stroke-width="1.5" d="M1213,-270C1213,-270 1067,-270 1067,-270 1061,-270 1055,-264 1055,-258 1055,-258 1055,-236 1055,-236 1055,-230 1061,-224 1067,-224 1067,-224 1213,-224 1213,-224 1219,-224 1225,-230 1225,-236 1225,-236 1225,-258 1225,-258 1225,-264 1219,-270 1213,-270"/>
<text text-anchor="start" x="1065" y="-255.4" font-family="DejaVu Sans" font-weight="bold" font-size="12.00" fill="#263238">Репозиторій вихідних</text>
<text text-anchor="start" x="1102" y="-243.4" font-family="DejaVu Sans" font-weight="bold" font-size="12.00" fill="#263238">алгоритмів</text>
<text text-anchor="start" x="1084.5" y="-233" font-family="DejaVu Sans" font-size="10.00" fill="#263238">[Програмна система]</text>
</g>
<!-- n_d6434351ba8f -->
<g id="node2" class="node">
<title>n_d6434351ba8f</title>
<path fill="#e9eef4" stroke="#486581" stroke-width="1.5" d="M1232,-192C1232,-192 1048,-192 1048,-192 1042,-192 1036,-186 1036,-180 1036,-180 1036,-158 1036,-158 1036,-152 1042,-146 1048,-146 1048,-146 1232,-146 1232,-146 1238,-146 1244,-152 1244,-158 1244,-158 1244,-180 1244,-180 1244,-186 1238,-192 1232,-192"/>
<text text-anchor="start" x="1046" y="-177.4" font-family="DejaVu Sans" font-weight="bold" font-size="12.00" fill="#263238">Постачальник електронної</text>
<text text-anchor="start" x="1096" y="-165.4" font-family="DejaVu Sans" font-weight="bold" font-size="12.00" fill="#263238">ідентичності</text>
<text text-anchor="start" x="1084.5" y="-155" font-family="DejaVu Sans" font-size="10.00" fill="#263238">[Програмна система]</text>
</g>
<!-- n_9c1b2838ecd8 -->
<g id="node3" class="node">
<title>n_9c1b2838ecd8</title>
<path fill="#8a5a00" stroke="#486581" stroke-width="1.5" d="M182,-254C182,-254 39,-254 39,-254 33,-254 27,-248 27,-242 27,-242 27,-230 27,-230 27,-224 33,-218 39,-218 39,-218 182,-218 182,-218 188,-218 194,-224 194,-230 194,-230 194,-242 194,-242 194,-248 188,-254 182,-254"/>
<text text-anchor="start" x="37" y="-238.4" font-family="DejaVu Sans" font-weight="bold" font-size="12.00" fill="#ffffff">Клінічний методолог</text>
<text text-anchor="start" x="91" y="-228" font-family="DejaVu Sans" font-size="10.00" fill="#ffffff">[Особа]</text>
</g>
<!-- n_3c72abbe626f -->
<g id="node4" class="node">
<title>n_3c72abbe626f</title>
<path fill="#0a6ebd" stroke="#486581" stroke-width="1.5" d="M717,-159C717,-159 534,-159 534,-159 528,-159 522,-153 522,-147 522,-147 522,-113 522,-113 522,-107 528,-101 534,-101 534,-101 717,-101 717,-101 723,-101 729,-107 729,-113 729,-113 729,-147 729,-147 729,-153 723,-159 717,-159"/>
<text text-anchor="start" x="548.5" y="-144.4" font-family="DejaVu Sans" font-weight="bold" font-size="12.00" fill="#ffffff">Платформа реалізації</text>
<text text-anchor="start" x="532" y="-132.4" font-family="DejaVu Sans" font-weight="bold" font-size="12.00" fill="#ffffff">психіатричних сценаріїв та</text>
<text text-anchor="start" x="587.5" y="-120.4" font-family="DejaVu Sans" font-weight="bold" font-size="12.00" fill="#ffffff">алгоритмів</text>
<text text-anchor="start" x="570" y="-110" font-family="DejaVu Sans" font-size="10.00" fill="#ffffff">[Програмна система]</text>
</g>
<!-- n_9c1b2838ecd8&#45;&gt;n_3c72abbe626f -->
<g id="edge3" class="edge">
<title>n_9c1b2838ecd8&#45;&gt;n_3c72abbe626f</title>
<path fill="none" stroke="#486581" stroke-width="1.4" d="M194.15,-227.83C304.44,-216.94 486,-199 486,-199 486,-199 522.88,-180.63 558.58,-162.84"/>
<polygon fill="#486581" stroke="#486581" stroke-width="1.4" points="560.25,-165.14 566.16,-159.06 557.76,-160.12 560.25,-165.14"/>
<text text-anchor="start" x="273.5" y="-235.2" font-family="DejaVu Sans" font-size="11.00" fill="#334e68">Формалізує, тестує, погоджує та</text>
<text text-anchor="start" x="312.5" y="-223.2" font-family="DejaVu Sans" font-size="11.00" fill="#334e68">публікує алгоритми</text>
</g>
<!-- n_3c72abbe626f&#45;&gt;n_b30059fba026 -->
<g id="edge8" class="edge">
<title>n_3c72abbe626f&#45;&gt;n_b30059fba026</title>
<path fill="none" stroke="#486581" stroke-width="1.4" d="M694.94,-159.15C729.83,-174.02 765,-189 765,-189 765,-189 935.65,-215.46 1046.4,-232.64"/>
<polygon fill="#486581" stroke="#486581" stroke-width="1.4" points="1046.27,-235.45 1054.6,-233.91 1047.12,-229.92 1046.27,-235.45"/>
<text text-anchor="start" x="765" y="-239.2" font-family="DejaVu Sans" font-size="11.00" fill="#334e68">Імпортує вихідні документи алгоритмів</text>
<text text-anchor="start" x="818" y="-227.2" font-family="DejaVu Sans" font-size="11.00" fill="#334e68">у проєктному контурі</text>
</g>
<!-- n_3c72abbe626f&#45;&gt;n_d6434351ba8f -->
<g id="edge5" class="edge">
<title>n_3c72abbe626f&#45;&gt;n_d6434351ba8f</title>
<path fill="none" stroke="#486581" stroke-width="1.4" d="M729.29,-137.82C815.71,-144.4 939.01,-153.78 1027.74,-160.53"/>
<polygon fill="#486581" stroke="#486581" stroke-width="1.4" points="1027.76,-163.34 1035.94,-161.16 1028.18,-157.76 1027.76,-163.34"/>
<text text-anchor="start" x="770" y="-172.2" font-family="DejaVu Sans" font-size="11.00" fill="#334e68">Делегує автентифікацію та перевірку</text>
<text text-anchor="start" x="846" y="-160.2" font-family="DejaVu Sans" font-size="11.00" fill="#334e68">рівня довіри</text>
</g>
<!-- n_0a99d320f3b9 -->
<g id="node5" class="node">
<title>n_0a99d320f3b9</title>
<path fill="#e9eef4" stroke="#486581" stroke-width="1.5" d="M1215,-114C1215,-114 1065,-114 1065,-114 1059,-114 1053,-108 1053,-102 1053,-102 1053,-80 1053,-80 1053,-74 1059,-68 1065,-68 1065,-68 1215,-68 1215,-68 1221,-68 1227,-74 1227,-80 1227,-80 1227,-102 1227,-102 1227,-108 1221,-114 1215,-114"/>
<text text-anchor="start" x="1063" y="-99.4" font-family="DejaVu Sans" font-weight="bold" font-size="12.00" fill="#263238">Репозиторій клінічних</text>
<text text-anchor="start" x="1075.5" y="-87.4" font-family="DejaVu Sans" font-weight="bold" font-size="12.00" fill="#263238">протоколів і знань</text>
<text text-anchor="start" x="1084.5" y="-77" font-family="DejaVu Sans" font-size="10.00" fill="#263238">[Програмна система]</text>
</g>
<!-- n_3c72abbe626f&#45;&gt;n_0a99d320f3b9 -->
<g id="edge7" class="edge">
<title>n_3c72abbe626f&#45;&gt;n_0a99d320f3b9</title>
<path fill="none" stroke="#486581" stroke-width="1.4" d="M729.33,-114.41C749.73,-111.32 765,-109 765,-109 765,-109 933.73,-100.88 1044.52,-95.55"/>
<polygon fill="#486581" stroke="#486581" stroke-width="1.4" points="1044.87,-98.33 1052.73,-95.15 1044.6,-92.74 1044.87,-98.33"/>
<text text-anchor="start" x="779" y="-124.2" font-family="DejaVu Sans" font-size="11.00" fill="#334e68">Отримує затверджені протоколи й</text>
<text text-anchor="start" x="837.5" y="-112.2" font-family="DejaVu Sans" font-size="11.00" fill="#334e68">джерела знань</text>
</g>
<!-- n_09b340c80e8a -->
<g id="node9" class="node">
<title>n_09b340c80e8a</title>
<path fill="#e9eef4" stroke="#486581" stroke-width="1.5" d="M1206.5,-36C1206.5,-36 1073.5,-36 1073.5,-36 1067.5,-36 1061.5,-30 1061.5,-24 1061.5,-24 1061.5,-12 1061.5,-12 1061.5,-6 1067.5,0 1073.5,0 1073.5,0 1206.5,0 1206.5,0 1212.5,0 1218.5,-6 1218.5,-12 1218.5,-12 1218.5,-24 1218.5,-24 1218.5,-30 1212.5,-36 1206.5,-36"/>
<text text-anchor="start" x="1071.5" y="-20.4" font-family="DejaVu Sans" font-weight="bold" font-size="12.00" fill="#263238">Сервіс термінологій</text>
<text text-anchor="start" x="1084.5" y="-10" font-family="DejaVu Sans" font-size="10.00" fill="#263238">[Програмна система]</text>
</g>
<!-- n_3c72abbe626f&#45;&gt;n_09b340c80e8a -->
<g id="edge6" class="edge">
<title>n_3c72abbe626f&#45;&gt;n_09b340c80e8a</title>
<path fill="none" stroke="#486581" stroke-width="1.4" d="M702.64,-100.86C734.82,-88.55 765,-77 765,-77 765,-77 942.45,-49.01 1052.89,-31.58"/>
<polygon fill="#486581" stroke="#486581" stroke-width="1.4" points="1053.59,-34.31 1061.05,-30.3 1052.71,-28.78 1053.59,-34.31"/>
<text text-anchor="start" x="770.5" y="-80.2" font-family="DejaVu Sans" font-size="11.00" fill="#334e68">Перевіряє та нормалізує клінічні коди</text>
</g>
<!-- n_f465f9f86773 -->
<g id="node6" class="node">
<title>n_f465f9f86773</title>
<path fill="#6c4ab6" stroke="#486581" stroke-width="1.5" d="M159.5,-184C159.5,-184 61.5,-184 61.5,-184 55.5,-184 49.5,-178 49.5,-172 49.5,-172 49.5,-160 49.5,-160 49.5,-154 55.5,-148 61.5,-148 61.5,-148 159.5,-148 159.5,-148 165.5,-148 171.5,-154 171.5,-160 171.5,-160 171.5,-172 171.5,-172 171.5,-178 165.5,-184 159.5,-184"/>
<text text-anchor="start" x="59.5" y="-168.4" font-family="DejaVu Sans" font-weight="bold" font-size="12.00" fill="#ffffff">Лікар&#45;психіатр</text>
<text text-anchor="start" x="91" y="-158" font-family="DejaVu Sans" font-size="10.00" fill="#ffffff">[Особа]</text>
</g>
<!-- n_f465f9f86773&#45;&gt;n_3c72abbe626f -->
<g id="edge1" class="edge">
<title>n_f465f9f86773&#45;&gt;n_3c72abbe626f</title>
<path fill="none" stroke="#486581" stroke-width="1.4" d="M171.6,-161.78C255.41,-155.9 408.86,-145.13 513.71,-137.78"/>
<polygon fill="#486581" stroke="#486581" stroke-width="1.4" points="514.01,-140.56 521.8,-137.21 513.62,-134.97 514.01,-140.56"/>
<text text-anchor="start" x="257" y="-182.2" font-family="DejaVu Sans" font-size="11.00" fill="#334e68">Використовує для оцінювання ризику,</text>
<text text-anchor="start" x="258.5" y="-170.2" font-family="DejaVu Sans" font-size="11.00" fill="#334e68">підтвердження висновків і керування</text>
<text text-anchor="start" x="335.5" y="-158.2" font-family="DejaVu Sans" font-size="11.00" fill="#334e68">траєкторією</text>
</g>
<!-- n_487bf0f57271 -->
<g id="node7" class="node">
<title>n_487bf0f57271</title>
<path fill="#6c4ab6" stroke="#486581" stroke-width="1.5" d="M198,-116C198,-116 23,-116 23,-116 17,-116 11,-110 11,-104 11,-104 11,-92 11,-92 11,-86 17,-80 23,-80 23,-80 198,-80 198,-80 204,-80 210,-86 210,-92 210,-92 210,-104 210,-104 210,-110 204,-116 198,-116"/>
<text text-anchor="start" x="21" y="-100.4" font-family="DejaVu Sans" font-weight="bold" font-size="12.00" fill="#ffffff">Психолог / психотерапевт</text>
<text text-anchor="start" x="91" y="-90" font-family="DejaVu Sans" font-size="10.00" fill="#ffffff">[Особа]</text>
</g>
<!-- n_487bf0f57271&#45;&gt;n_3c72abbe626f -->
<g id="edge2" class="edge">
<title>n_487bf0f57271&#45;&gt;n_3c72abbe626f</title>
<path fill="none" stroke="#486581" stroke-width="1.4" d="M210.39,-98.26C321.34,-98.56 486,-99 486,-99 486,-99 497.48,-101.57 513.83,-105.23"/>
<polygon fill="#486581" stroke="#486581" stroke-width="1.4" points="513.25,-107.97 521.67,-106.98 514.47,-102.5 513.25,-107.97"/>
<text text-anchor="start" x="270.5" y="-114.2" font-family="DejaVu Sans" font-size="11.00" fill="#334e68">Використовує для психологічного</text>
<text text-anchor="start" x="258.5" y="-102.2" font-family="DejaVu Sans" font-size="11.00" fill="#334e68">оцінювання та планування супроводу</text>
</g>
<!-- n_c7796133ac1d -->
<g id="node8" class="node">
<title>n_c7796133ac1d</title>
<path fill="#4a5568" stroke="#486581" stroke-width="1.5" d="M209,-48C209,-48 12,-48 12,-48 6,-48 0,-42 0,-36 0,-36 0,-14 0,-14 0,-8 6,-2 12,-2 12,-2 209,-2 209,-2 215,-2 221,-8 221,-14 221,-14 221,-36 221,-36 221,-42 215,-48 209,-48"/>
<text text-anchor="start" x="10" y="-33.4" font-family="DejaVu Sans" font-weight="bold" font-size="12.00" fill="#ffffff">Адміністратор платформи та</text>
<text text-anchor="start" x="82" y="-21.4" font-family="DejaVu Sans" font-weight="bold" font-size="12.00" fill="#ffffff">безпеки</text>
<text text-anchor="start" x="91" y="-11" font-family="DejaVu Sans" font-size="10.00" fill="#ffffff">[Особа]</text>
</g>
<!-- n_c7796133ac1d&#45;&gt;n_3c72abbe626f -->
<g id="edge4" class="edge">
<title>n_c7796133ac1d&#45;&gt;n_3c72abbe626f</title>
<path fill="none" stroke="#486581" stroke-width="1.4" d="M221.08,-37C331.6,-49.1 486,-66 486,-66 486,-66 520.07,-81.74 554.41,-97.61"/>
<polygon fill="#486581" stroke="#486581" stroke-width="1.4" points="553.3,-100.18 561.73,-101 555.65,-95.1 553.3,-100.18"/>
<text text-anchor="start" x="291" y="-81.2" font-family="DejaVu Sans" font-size="11.00" fill="#334e68">Адмініструє доступ, аудит,</text>
<text text-anchor="start" x="264.5" y="-69.2" font-family="DejaVu Sans" font-size="11.00" fill="#334e68">конфігурацію та спостережуваність</text>
</g>
</g>
</svg>
