<svg xmlns="http://www.w3.org/2000/svg" width="1920" height="1080" viewBox="0 0 1920 1080"><defs>
  <marker id="arrow" markerWidth="18" markerHeight="18" refX="16" refY="9" orient="auto" markerUnits="userSpaceOnUse"><path d="M0,0 L18,9 L0,18 z" fill="#486581"/></marker>
  <filter id="softShadow" x="-10%" y="-10%" width="120%" height="120%"><feDropShadow dx="0" dy="1.2" stdDeviation="1.2" flood-color="#8AA2B4" flood-opacity="0.22"/></filter>
</defs><rect x="0" y="0" width="1920" height="1080" rx="0" fill="#FFFFFF"/><text x="960.0" y="105.1" text-anchor="middle" font-family="&#x27;Noto Sans&#x27;, &#x27;DejaVu Sans&#x27;, Arial, sans-serif" font-size="42" font-weight="700" fill="#17324D"><tspan x="960.0" dy="0">C1.04 — Контекст ШІ-асистента медичного працівника</tspan></text><text x="960.0" y="144.3" text-anchor="middle" font-family="&#x27;Noto Sans&#x27;, &#x27;DejaVu Sans&#x27;, Arial, sans-serif" font-size="22" font-weight="400" fill="#486581"><tspan x="960.0" dy="0">Клінічні ролі та основні системи для оцінювання ризиків, мультимодального аналізу й ведення траєкторії пацієнта</tspan></text><rect x="150" y="200" width="520" height="275" rx="13" fill="#F8FBFE" stroke="#AFC5D6" stroke-width="2.4" filter="url(#softShadow)"/><rect x="150" y="200" width="520" height="72" rx="13" fill="#E9F2FA"/><rect x="150" y="264" width="520" height="8" rx="0" fill="#E9F2FA"/><line x1="152" y1="272" x2="668" y2="272" fill="none" stroke="#C4D6E4" stroke-width="1.2" stroke-linecap="round" stroke-linejoin="round"/><text x="164" y="229.8" text-anchor="start" font-family="&#x27;Noto Sans&#x27;, &#x27;DejaVu Sans&#x27;, Arial, sans-serif" font-size="25" font-weight="700" fill="#1F3B53"><tspan x="164" dy="0">Психіатричний та</tspan><tspan x="164" dy="26.8">кризовий контур</tspan></text><rect x="182" y="292" width="215" height="70" rx="10" fill="#6C4AB6" stroke="#486581" stroke-width="2.2"/><text x="289.5" y="334.1" text-anchor="middle" font-family="&#x27;Noto Sans&#x27;, &#x27;DejaVu Sans&#x27;, Arial, sans-serif" font-size="24" font-weight="700" fill="#FFFFFF"><tspan x="289.5" dy="0">Лікар-психіатр</tspan></text><rect x="423" y="292" width="215" height="70" rx="10" fill="#6C4AB6" stroke="#486581" stroke-width="2.2"/><text x="530.5" y="322.6" text-anchor="middle" font-family="&#x27;Noto Sans&#x27;, &#x27;DejaVu Sans&#x27;, Arial, sans-serif" font-size="19" font-weight="700" fill="#FFFFFF"><tspan x="530.5" dy="0">Психолог /</tspan><tspan x="530.5" dy="19.9">психотерапевт</tspan></text><rect x="182" y="386" width="215" height="70" rx="10" fill="#6C4AB6" stroke="#486581" stroke-width="2.2"/><text x="289.5" y="417.1" text-anchor="middle" font-family="&#x27;Noto Sans&#x27;, &#x27;DejaVu Sans&#x27;, Arial, sans-serif" font-size="17" font-weight="700" fill="#FFFFFF"><tspan x="289.5" dy="0">Медична сестра /</tspan><tspan x="289.5" dy="17.9">координатор</tspan></text><rect x="423" y="386" width="215" height="70" rx="10" fill="#6C4AB6" stroke="#486581" stroke-width="2.2"/><text x="530.5" y="417.1" text-anchor="middle" font-family="&#x27;Noto Sans&#x27;, &#x27;DejaVu Sans&#x27;, Arial, sans-serif" font-size="17" font-weight="700" fill="#FFFFFF"><tspan x="530.5" dy="0">Черговий кризовий</tspan><tspan x="530.5" dy="17.9">фахівець</tspan></text><rect x="150" y="505" width="520" height="265" rx="13" fill="#F8FBFE" stroke="#AFC5D6" stroke-width="2.4" filter="url(#softShadow)"/><rect x="150" y="505" width="520" height="56" rx="13" fill="#E9F2FA"/><rect x="150" y="553" width="520" height="8" rx="0" fill="#E9F2FA"/><line x1="152" y1="561" x2="668" y2="561" fill="none" stroke="#C4D6E4" stroke-width="1.2" stroke-linecap="round" stroke-linejoin="round"/><text x="164" y="540.1" text-anchor="start" font-family="&#x27;Noto Sans&#x27;, &#x27;DejaVu Sans&#x27;, Arial, sans-serif" font-size="25" font-weight="700" fill="#1F3B53"><tspan x="164" dy="0">Суміжні медичні спеціалісти</tspan></text><rect x="182" y="585" width="215" height="70" rx="10" fill="#2F73B8" stroke="#1F5E9C" stroke-width="2.2"/><text x="289.5" y="627.4" text-anchor="middle" font-family="&#x27;Noto Sans&#x27;, &#x27;DejaVu Sans&#x27;, Arial, sans-serif" font-size="25" font-weight="700" fill="#FFFFFF"><tspan x="289.5" dy="0">Кардіолог</tspan></text><rect x="423" y="585" width="215" height="70" rx="10" fill="#2F73B8" stroke="#1F5E9C" stroke-width="2.2"/><text x="530.5" y="627.1" text-anchor="middle" font-family="&#x27;Noto Sans&#x27;, &#x27;DejaVu Sans&#x27;, Arial, sans-serif" font-size="24" font-weight="700" fill="#FFFFFF"><tspan x="530.5" dy="0">Реабілітолог</tspan></text><rect x="182" y="679" width="215" height="70" rx="10" fill="#2F73B8" stroke="#1F5E9C" stroke-width="2.2"/><text x="289.5" y="721.4" text-anchor="middle" font-family="&#x27;Noto Sans&#x27;, &#x27;DejaVu Sans&#x27;, Arial, sans-serif" font-size="25" font-weight="700" fill="#FFFFFF"><tspan x="289.5" dy="0">Невролог</tspan></text><rect x="423" y="679" width="215" height="70" rx="10" fill="#2F73B8" stroke="#1F5E9C" stroke-width="2.2"/><text x="530.5" y="721.4" text-anchor="middle" font-family="&#x27;Noto Sans&#x27;, &#x27;DejaVu Sans&#x27;, Arial, sans-serif" font-size="25" font-weight="700" fill="#FFFFFF"><tspan x="530.5" dy="0">Педіатр</tspan></text><rect x="760" y="430" width="400" height="165" rx="15" fill="#0A6EBD" stroke="#075A9A" stroke-width="3" filter="url(#softShadow)"/><text x="960.0" y="482.6" text-anchor="middle" font-family="&#x27;Noto Sans&#x27;, &#x27;DejaVu Sans&#x27;, Arial, sans-serif" font-size="27" font-weight="700" fill="#FFFFFF"><tspan x="960.0" dy="0">Платформа реалізації</tspan><tspan x="960.0" dy="28.4">психіатричних сценаріїв</tspan><tspan x="960.0" dy="28.4">та алгоритмів</tspan></text><text x="960.0" y="573.1" text-anchor="middle" font-family="&#x27;Noto Sans&#x27;, &#x27;DejaVu Sans&#x27;, Arial, sans-serif" font-size="17" font-weight="400" fill="#FFFFFF"><tspan x="960.0" dy="0">[Програмна система]</tspan></text><rect x="1275" y="200" width="510" height="275" rx="13" fill="#F8FBFE" stroke="#AFC5D6" stroke-width="2.4" filter="url(#softShadow)"/><rect x="1275" y="200" width="510" height="56" rx="13" fill="#E9F2FA"/><rect x="1275" y="248" width="510" height="8" rx="0" fill="#E9F2FA"/><line x1="1277" y1="256" x2="1783" y2="256" fill="none" stroke="#C4D6E4" stroke-width="1.2" stroke-linecap="round" stroke-linejoin="round"/><text x="1289" y="235.1" text-anchor="start" font-family="&#x27;Noto Sans&#x27;, &#x27;DejaVu Sans&#x27;, Arial, sans-serif" font-size="25" font-weight="700" fill="#1F3B53"><tspan x="1289" dy="0">Клінічні дані та вимірювання</tspan></text><rect x="1309" y="282" width="213" height="70" rx="10" fill="#E9EEF4" stroke="#486581" stroke-width="2.2"/><text x="1415.5" y="322.6" text-anchor="middle" font-family="&#x27;Noto Sans&#x27;, &#x27;DejaVu Sans&#x27;, Arial, sans-serif" font-size="19" font-weight="700" fill="#263238"><tspan x="1415.5" dy="0">МІС / EHR / ЕСОЗ</tspan></text><rect x="1550" y="282" width="213" height="70" rx="10" fill="#E9EEF4" stroke="#486581" stroke-width="2.2"/><text x="1656.5" y="313.1" text-anchor="middle" font-family="&#x27;Noto Sans&#x27;, &#x27;DejaVu Sans&#x27;, Arial, sans-serif" font-size="17" font-weight="700" fill="#263238"><tspan x="1656.5" dy="0">Медичні пристрої</tspan><tspan x="1656.5" dy="17.9">та сенсори</tspan></text><rect x="1309" y="380" width="213" height="70" rx="10" fill="#E9EEF4" stroke="#486581" stroke-width="2.2"/><text x="1415.5" y="410.9" text-anchor="middle" font-family="&#x27;Noto Sans&#x27;, &#x27;DejaVu Sans&#x27;, Arial, sans-serif" font-size="18" font-weight="700" fill="#263238"><tspan x="1415.5" dy="0">PACS / DICOM-</tspan><tspan x="1415.5" dy="18.9">сховище</tspan></text><rect x="1550" y="380" width="213" height="70" rx="10" fill="#6741D9" stroke="#486581" stroke-width="2.2"/><text x="1656.5" y="403.7" text-anchor="middle" font-family="&#x27;Noto Sans&#x27;, &#x27;DejaVu Sans&#x27;, Arial, sans-serif" font-size="15" font-weight="700" fill="#FFFFFF"><tspan x="1656.5" dy="0">Реєстр і</tspan><tspan x="1656.5" dy="15.8">середовище</tspan><tspan x="1656.5" dy="15.8">моделей ШІ</tspan></text><rect x="1275" y="505" width="510" height="265" rx="13" fill="#F8FBFE" stroke="#AFC5D6" stroke-width="2.4" filter="url(#softShadow)"/><rect x="1275" y="505" width="510" height="56" rx="13" fill="#E9F2FA"/><rect x="1275" y="553" width="510" height="8" rx="0" fill="#E9F2FA"/><line x1="1277" y1="561" x2="1783" y2="561" fill="none" stroke="#C4D6E4" stroke-width="1.2" stroke-linecap="round" stroke-linejoin="round"/><text x="1289" y="540.1" text-anchor="start" font-family="&#x27;Noto Sans&#x27;, &#x27;DejaVu Sans&#x27;, Arial, sans-serif" font-size="25" font-weight="700" fill="#1F3B53"><tspan x="1289" dy="0">Знання, взаємодія та безпека</tspan></text><rect x="1309" y="585" width="213" height="70" rx="10" fill="#E9EEF4" stroke="#486581" stroke-width="2.2"/><text x="1415.5" y="616.3" text-anchor="middle" font-family="&#x27;Noto Sans&#x27;, &#x27;DejaVu Sans&#x27;, Arial, sans-serif" font-size="16" font-weight="700" fill="#263238"><tspan x="1415.5" dy="0">Клінічні протоколи</tspan><tspan x="1415.5" dy="16.8">і знання</tspan></text><rect x="1550" y="585" width="213" height="70" rx="10" fill="#E9EEF4" stroke="#486581" stroke-width="2.2"/><text x="1656.5" y="616.1" text-anchor="middle" font-family="&#x27;Noto Sans&#x27;, &#x27;DejaVu Sans&#x27;, Arial, sans-serif" font-size="17" font-weight="700" fill="#263238"><tspan x="1656.5" dy="0">Сервіс</tspan><tspan x="1656.5" dy="17.9">термінологій</tspan></text><rect x="1309" y="683" width="213" height="70" rx="10" fill="#E9EEF4" stroke="#486581" stroke-width="2.2"/><text x="1415.5" y="713.9" text-anchor="middle" font-family="&#x27;Noto Sans&#x27;, &#x27;DejaVu Sans&#x27;, Arial, sans-serif" font-size="18" font-weight="700" fill="#263238"><tspan x="1415.5" dy="0">Платформа</tspan><tspan x="1415.5" dy="18.9">телемедицини</tspan></text><rect x="1550" y="683" width="213" height="70" rx="10" fill="#D92323" stroke="#A91515" stroke-width="2.2"/><text x="1656.5" y="714.1" text-anchor="middle" font-family="&#x27;Noto Sans&#x27;, &#x27;DejaVu Sans&#x27;, Arial, sans-serif" font-size="17" font-weight="700" fill="#FFFFFF"><tspan x="1656.5" dy="0">Кризова / екстрена</tspan><tspan x="1656.5" dy="17.9">служба</tspan></text><polyline points="670,330 715,330 760,472" fill="none" stroke="#486581" stroke-width="3.2" stroke-linecap="round" stroke-linejoin="round" marker-end="url(#arrow)"/><polyline points="670,625 715,625 760,560" fill="none" stroke="#486581" stroke-width="3.2" stroke-linecap="round" stroke-linejoin="round" marker-end="url(#arrow)"/><polyline points="1160,472 1225,472 1275,330" fill="none" stroke="#486581" stroke-width="3.2" stroke-linecap="round" stroke-linejoin="round" marker-end="url(#arrow)"/><polyline points="1160,560 1225,560 1275,625" fill="none" stroke="#486581" stroke-width="3.2" stroke-linecap="round" stroke-linejoin="round" marker-end="url(#arrow)"/><text x="960.0" y="980.3" text-anchor="middle" font-family="&#x27;Noto Sans&#x27;, &#x27;DejaVu Sans&#x27;, Arial, sans-serif" font-size="18" font-weight="400" fill="#486581"><tspan x="960.0" dy="0">Сині модулі — кардіолог, реабілітолог, невролог і педіатр; усі клінічно значущі висновки підлягають людському контролю.</tspan></text></svg>