<?xml version="1.0" encoding="UTF-8" standalone="no"?>
<!DOCTYPE svg PUBLIC "-//W3C//DTD SVG 1.1//EN"
 "http://www.w3.org/Graphics/SVG/1.1/DTD/svg11.dtd">
<!-- Generated by graphviz version 2.42.4 (0)
 -->
<!-- Title: G Pages: 1 -->
<svg width="4149pt" height="939pt"
 viewBox="0.00 0.00 4149.40 939.40" xmlns="http://www.w3.org/2000/svg" xmlns:xlink="http://www.w3.org/1999/xlink">
<g id="graph0" class="graph" transform="scale(1 1) rotate(0) translate(25.2 914.2)">
<title>G</title>
<polygon fill="white" stroke="transparent" points="-25.2,25.2 -25.2,-914.2 4124.2,-914.2 4124.2,25.2 -25.2,25.2"/>
<text text-anchor="start" x="111.5" y="-874.8" font-family="DejaVu Sans" font-weight="bold" font-size="14.00">C2.02 — Контейнери пацієнтського контуру</text>
<text text-anchor="start" x="8" y="-862.4" font-family="DejaVu Sans" font-size="12.00">Фокус на наскрізному пацієнтському контурі та каналах текст, голос, відео, аватар, VR і</text>
<text text-anchor="start" x="243.5" y="-850.4" font-family="DejaVu Sans" font-size="12.00">голос&#45;в&#45;текст.</text>
<g id="clust1" class="cluster">
<title>cluster_scope</title>
<path fill="white" stroke="#0a6ebd" stroke-width="2.2" d="M385,-248C385,-248 4079,-248 4079,-248 4085,-248 4091,-254 4091,-260 4091,-260 4091,-823 4091,-823 4091,-829 4085,-835 4079,-835 4079,-835 385,-835 385,-835 379,-835 373,-829 373,-823 373,-823 373,-260 373,-260 373,-254 379,-248 385,-248"/>
<text text-anchor="start" x="381" y="-820.8" font-family="DejaVu Sans" font-weight="bold" font-size="14.00">Платформа реалізації психіатричних сценаріїв та алгоритмів</text>
</g>
<!-- n_4a71738c36d2 -->
<g id="node1" class="node">
<title>n_4a71738c36d2</title>
<path fill="#6741d9" stroke="#c92a2a" stroke-width="3" d="M2319,-390C2319,-390 2087,-390 2087,-390 2081,-390 2075,-384 2075,-378 2075,-378 2075,-356 2075,-356 2075,-350 2081,-344 2087,-344 2087,-344 2319,-344 2319,-344 2325,-344 2331,-350 2331,-356 2331,-356 2331,-378 2331,-378 2331,-384 2325,-390 2319,-390"/>
<text text-anchor="start" x="2102" y="-375.4" font-family="DejaVu Sans" font-weight="bold" font-size="12.00" fill="#ffffff">Оркестратор ШІ та контроль</text>
<text text-anchor="start" x="2174.5" y="-363.4" font-family="DejaVu Sans" font-weight="bold" font-size="12.00" fill="#ffffff">безпеки</text>
<text text-anchor="start" x="2085" y="-353" font-family="DejaVu Sans" font-size="10.00" fill="#ffffff">[Контейнер · AI gateway / model orchestration]</text>
</g>
<!-- n_609849034d86 -->
<g id="node9" class="node">
<title>n_609849034d86</title>
<path fill="#edf2f7" stroke="#486581" stroke-width="1.5" d="M2905,-332.02C2905,-334.36 2848.52,-336.25 2779,-336.25 2709.48,-336.25 2653,-334.36 2653,-332.02 2653,-332.02 2653,-293.98 2653,-293.98 2653,-291.64 2709.48,-289.75 2779,-289.75 2848.52,-289.75 2905,-291.64 2905,-293.98 2905,-293.98 2905,-332.02 2905,-332.02"/>
<path fill="none" stroke="#486581" stroke-width="1.5" d="M2905,-332.02C2905,-329.69 2848.52,-327.8 2779,-327.8 2709.48,-327.8 2653,-329.69 2653,-332.02"/>
<text text-anchor="start" x="2678" y="-315.4" font-family="DejaVu Sans" font-weight="bold" font-size="12.00" fill="#1a202c">База знань та індекс пошуку</text>
<text text-anchor="start" x="2663" y="-305" font-family="DejaVu Sans" font-size="10.00" fill="#1a202c">[Сховище даних · Document and vector store]</text>
</g>
<!-- n_4a71738c36d2&#45;&gt;n_609849034d86 -->
<g id="edge23" class="edge">
<title>n_4a71738c36d2&#45;&gt;n_609849034d86</title>
<path fill="none" stroke="#486581" stroke-width="1.4" d="M2331.03,-355.05C2424.08,-346.3 2550.1,-334.44 2644.61,-325.55"/>
<polygon fill="#486581" stroke="#486581" stroke-width="1.4" points="2645.09,-328.32 2652.79,-324.78 2644.56,-322.74 2645.09,-328.32"/>
<text text-anchor="start" x="2382.5" y="-366.2" font-family="DejaVu Sans" font-size="11.00" fill="#334e68">Отримує версійовані фрагменти для</text>
<text text-anchor="start" x="2415.5" y="-354.2" font-family="DejaVu Sans" font-size="11.00" fill="#334e68">контрольованого пошуку</text>
</g>
<!-- n_c3da19e3d57e -->
<g id="node19" class="node">
<title>n_c3da19e3d57e</title>
<path fill="#6741d9" stroke="#486581" stroke-width="1.5" d="M3468,-78C3468,-78 3260,-78 3260,-78 3254,-78 3248,-72 3248,-66 3248,-66 3248,-44 3248,-44 3248,-38 3254,-32 3260,-32 3260,-32 3468,-32 3468,-32 3474,-32 3480,-38 3480,-44 3480,-44 3480,-66 3480,-66 3480,-72 3474,-78 3468,-78"/>
<text text-anchor="start" x="3258" y="-63.4" font-family="DejaVu Sans" font-weight="bold" font-size="12.00" fill="#ffffff">Реєстр і середовище моделей</text>
<text text-anchor="start" x="3354" y="-51.4" font-family="DejaVu Sans" font-weight="bold" font-size="12.00" fill="#ffffff">ШІ</text>
<text text-anchor="start" x="3308.5" y="-41" font-family="DejaVu Sans" font-size="10.00" fill="#ffffff">[Програмна система]</text>
</g>
<!-- n_4a71738c36d2&#45;&gt;n_c3da19e3d57e -->
<g id="edge22" class="edge">
<title>n_4a71738c36d2&#45;&gt;n_c3da19e3d57e</title>
<path fill="none" stroke="#486581" stroke-width="1.4" d="M2268.35,-343.91C2301.48,-332.03 2335,-320 2335,-320 2335,-320 2947,-73 2947,-73 2947,-73 3117.27,-65.63 3239.94,-60.32"/>
<polygon fill="#486581" stroke="#486581" stroke-width="1.4" points="3240.08,-63.12 3247.95,-59.98 3239.84,-57.53 3240.08,-63.12"/>
<text text-anchor="start" x="2676.5" y="-220.2" font-family="DejaVu Sans" font-size="11.00" fill="#334e68">Викликає дозволену модель через</text>
<text text-anchor="start" x="2667.5" y="-208.2" font-family="DejaVu Sans" font-size="11.00" fill="#334e68">політики маршрутизації та мінімізації</text>
<text text-anchor="start" x="2760.5" y="-196.2" font-family="DejaVu Sans" font-size="11.00" fill="#334e68">даних</text>
</g>
<!-- n_ace1c56edb4b -->
<g id="node2" class="node">
<title>n_ace1c56edb4b</title>
<path fill="#edf2f7" stroke="#486581" stroke-width="1.5" d="M2883,-644.02C2883,-646.36 2836.39,-648.25 2779,-648.25 2721.61,-648.25 2675,-646.36 2675,-644.02 2675,-644.02 2675,-605.98 2675,-605.98 2675,-603.64 2721.61,-601.75 2779,-601.75 2836.39,-601.75 2883,-603.64 2883,-605.98 2883,-605.98 2883,-644.02 2883,-644.02"/>
<path fill="none" stroke="#486581" stroke-width="1.5" d="M2883,-644.02C2883,-641.69 2836.39,-639.8 2779,-639.8 2721.61,-639.8 2675,-641.69 2675,-644.02"/>
<text text-anchor="start" x="2715.5" y="-627.4" font-family="DejaVu Sans" font-weight="bold" font-size="12.00" fill="#1a202c">Реєстр алгоритмів</text>
<text text-anchor="start" x="2685" y="-617" font-family="DejaVu Sans" font-size="10.00" fill="#1a202c">[Сховище даних · Versioned registry]</text>
</g>
<!-- n_384146de0c5d -->
<g id="node3" class="node">
<title>n_384146de0c5d</title>
<path fill="#f4f7fa" stroke="#486581" stroke-width="1.5" d="M1211,-495C1211,-495 1001,-495 1001,-495 995,-495 989,-489 989,-483 989,-483 989,-471 989,-471 989,-465 995,-459 1001,-459 1001,-459 1211,-459 1211,-459 1217,-459 1223,-465 1223,-471 1223,-471 1223,-483 1223,-483 1223,-489 1217,-495 1211,-495"/>
<text text-anchor="start" x="1052.5" y="-479.4" font-family="DejaVu Sans" font-weight="bold" font-size="12.00" fill="#18324a">API&#45;шлюз і BFF</text>
<text text-anchor="start" x="999" y="-469" font-family="DejaVu Sans" font-size="10.00" fill="#18324a">[Контейнер · Reverse proxy / API gateway]</text>
</g>
<!-- n_dcb3f876e224 -->
<g id="node6" class="node">
<title>n_dcb3f876e224</title>
<path fill="#f4f7fa" stroke="#486581" stroke-width="1.5" d="M2899,-492C2899,-492 2659,-492 2659,-492 2653,-492 2647,-486 2647,-480 2647,-480 2647,-458 2647,-458 2647,-452 2653,-446 2659,-446 2659,-446 2899,-446 2899,-446 2905,-446 2911,-452 2911,-458 2911,-458 2911,-480 2911,-480 2911,-486 2905,-492 2899,-492"/>
<text text-anchor="start" x="2679.5" y="-477.4" font-family="DejaVu Sans" font-weight="bold" font-size="12.00" fill="#18324a">Сервіс ідентичності, доступу</text>
<text text-anchor="start" x="2753.5" y="-465.4" font-family="DejaVu Sans" font-weight="bold" font-size="12.00" fill="#18324a">та згод</text>
<text text-anchor="start" x="2657" y="-455" font-family="DejaVu Sans" font-size="10.00" fill="#18324a">[Контейнер · OIDC, RBAC/ABAC, consent service]</text>
</g>
<!-- n_384146de0c5d&#45;&gt;n_dcb3f876e224 -->
<g id="edge3" class="edge">
<title>n_384146de0c5d&#45;&gt;n_dcb3f876e224</title>
<path fill="none" stroke="#486581" stroke-width="1.4" d="M1223.17,-473.74C1416.91,-468.32 1785,-458 1785,-458 1785,-458 2371,-455 2371,-455 2371,-455 2611,-455 2611,-455 2611,-455 2622.21,-455.94 2638.83,-457.33"/>
<polygon fill="#486581" stroke="#486581" stroke-width="1.4" points="2638.62,-460.13 2646.83,-458 2639.09,-454.54 2638.62,-460.13"/>
<text text-anchor="start" x="1789.5" y="-461.2" font-family="DejaVu Sans" font-size="11.00" fill="#334e68">Перевіряє сесію, повноваження та згоду</text>
</g>
<!-- n_b10c10dbc143 -->
<g id="node7" class="node">
<title>n_b10c10dbc143</title>
<path fill="#3b5bdb" stroke="#486581" stroke-width="1.5" d="M3490,-375C3490,-375 3238,-375 3238,-375 3232,-375 3226,-369 3226,-363 3226,-363 3226,-351 3226,-351 3226,-345 3232,-339 3238,-339 3238,-339 3490,-339 3490,-339 3496,-339 3502,-345 3502,-351 3502,-351 3502,-363 3502,-363 3502,-369 3496,-375 3490,-375"/>
<text text-anchor="start" x="3293" y="-359.4" font-family="DejaVu Sans" font-weight="bold" font-size="12.00" fill="#ffffff">Інтеграційний шлюз</text>
<text text-anchor="start" x="3236" y="-349" font-family="DejaVu Sans" font-size="10.00" fill="#ffffff">[Контейнер · FHIR/DICOM/REST integration service]</text>
</g>
<!-- n_384146de0c5d&#45;&gt;n_b10c10dbc143 -->
<g id="edge8" class="edge">
<title>n_384146de0c5d&#45;&gt;n_b10c10dbc143</title>
<path fill="none" stroke="#486581" stroke-width="1.4" d="M1174.11,-458.9C1214.83,-447.91 1259,-436 1259,-436 1259,-436 1785,-315 1785,-315 1785,-315 2647,-274 2647,-274 2647,-274 2911,-274 2911,-274 2911,-274 2947,-313 2947,-313 2947,-313 3097.71,-328.94 3217.7,-341.63"/>
<polygon fill="#486581" stroke="#486581" stroke-width="1.4" points="3217.67,-344.44 3225.92,-342.5 3218.26,-338.88 3217.67,-344.44"/>
<text text-anchor="start" x="2096" y="-316.2" font-family="DejaVu Sans" font-size="11.00" fill="#334e68">Передає контрольовані інтеграційні</text>
<text text-anchor="start" x="2177" y="-304.2" font-family="DejaVu Sans" font-size="11.00" fill="#334e68">команди</text>
</g>
<!-- n_f9075d486a51 -->
<g id="node8" class="node">
<title>n_f9075d486a51</title>
<path fill="#f4f7fa" stroke="#486581" stroke-width="1.5" d="M1712,-653C1712,-653 1549,-653 1549,-653 1543,-653 1537,-647 1537,-641 1537,-641 1537,-629 1537,-629 1537,-623 1543,-617 1549,-617 1549,-617 1712,-617 1712,-617 1718,-617 1724,-623 1724,-629 1724,-629 1724,-641 1724,-641 1724,-647 1718,-653 1712,-653"/>
<text text-anchor="start" x="1551.5" y="-637.4" font-family="DejaVu Sans" font-weight="bold" font-size="12.00" fill="#18324a">Оркестратор взаємодії</text>
<text text-anchor="start" x="1547" y="-627" font-family="DejaVu Sans" font-size="10.00" fill="#18324a">[Контейнер · Application service]</text>
</g>
<!-- n_384146de0c5d&#45;&gt;n_f9075d486a51 -->
<g id="edge4" class="edge">
<title>n_384146de0c5d&#45;&gt;n_f9075d486a51</title>
<path fill="none" stroke="#486581" stroke-width="1.4" d="M1136.67,-495.15C1180.9,-522.22 1259,-570 1259,-570 1259,-570 1419.11,-598.09 1528.82,-617.34"/>
<polygon fill="#486581" stroke="#486581" stroke-width="1.4" points="1528.6,-620.14 1536.96,-618.77 1529.57,-614.63 1528.6,-620.14"/>
<text text-anchor="start" x="1259" y="-609.2" font-family="DejaVu Sans" font-size="11.00" fill="#334e68">Передає запити діалогової взаємодії</text>
</g>
<!-- n_a57f04482dc5 -->
<g id="node10" class="node">
<title>n_a57f04482dc5</title>
<path fill="#0f766e" stroke="#c92a2a" stroke-width="3" d="M2884,-414C2884,-414 2674,-414 2674,-414 2668,-414 2662,-408 2662,-402 2662,-402 2662,-380 2662,-380 2662,-374 2668,-368 2674,-368 2674,-368 2884,-368 2884,-368 2890,-368 2896,-374 2896,-380 2896,-380 2896,-402 2896,-402 2896,-408 2890,-414 2884,-414"/>
<text text-anchor="start" x="2692" y="-399.4" font-family="DejaVu Sans" font-weight="bold" font-size="12.00" fill="#ffffff">Сервіс мультимодальних</text>
<text text-anchor="start" x="2738" y="-387.4" font-family="DejaVu Sans" font-weight="bold" font-size="12.00" fill="#ffffff">вимірювань</text>
<text text-anchor="start" x="2672" y="-377" font-family="DejaVu Sans" font-size="10.00" fill="#ffffff">[Контейнер · Signal and media processing]</text>
</g>
<!-- n_384146de0c5d&#45;&gt;n_a57f04482dc5 -->
<g id="edge6" class="edge">
<title>n_384146de0c5d&#45;&gt;n_a57f04482dc5</title>
<path fill="none" stroke="#486581" stroke-width="1.4" d="M1223.36,-462.45C1243.97,-459.88 1259,-458 1259,-458 1259,-458 1785,-424 1785,-424 1785,-424 2335,-406 2335,-406 2335,-406 2522.7,-399.64 2653.74,-395.21"/>
<polygon fill="#486581" stroke="#486581" stroke-width="1.4" points="2654,-398 2661.9,-394.93 2653.81,-392.4 2654,-398"/>
<text text-anchor="start" x="1798" y="-439.2" font-family="DejaVu Sans" font-size="11.00" fill="#334e68">Передає метадані та керовані потоки</text>
<text text-anchor="start" x="1875" y="-427.2" font-family="DejaVu Sans" font-size="11.00" fill="#334e68">вимірювань</text>
</g>
<!-- n_78e6a86e3609 -->
<g id="node14" class="node">
<title>n_78e6a86e3609</title>
<path fill="#2b6cb0" stroke="#c92a2a" stroke-width="3" d="M2323,-570C2323,-570 2083,-570 2083,-570 2077,-570 2071,-564 2071,-558 2071,-558 2071,-536 2071,-536 2071,-530 2077,-524 2083,-524 2083,-524 2323,-524 2323,-524 2329,-524 2335,-530 2335,-536 2335,-536 2335,-558 2335,-558 2335,-564 2329,-570 2323,-570"/>
<text text-anchor="start" x="2124" y="-555.4" font-family="DejaVu Sans" font-weight="bold" font-size="12.00" fill="#ffffff">Детермінований рушій</text>
<text text-anchor="start" x="2171" y="-543.4" font-family="DejaVu Sans" font-weight="bold" font-size="12.00" fill="#ffffff">сценаріїв</text>
<text text-anchor="start" x="2081" y="-533" font-family="DejaVu Sans" font-size="10.00" fill="#ffffff">[Контейнер · Rules engine / finite&#45;state machine]</text>
</g>
<!-- n_384146de0c5d&#45;&gt;n_78e6a86e3609 -->
<g id="edge5" class="edge">
<title>n_384146de0c5d&#45;&gt;n_78e6a86e3609</title>
<path fill="none" stroke="#486581" stroke-width="1.4" d="M1204.98,-495.05C1234.39,-500.47 1259,-505 1259,-505 1259,-505 1785,-541 1785,-541 1785,-541 1941.39,-543.25 2062.62,-544.99"/>
<polygon fill="#486581" stroke="#486581" stroke-width="1.4" points="2062.88,-547.8 2070.92,-545.11 2062.96,-542.2 2062.88,-547.8"/>
<text text-anchor="start" x="1512" y="-553.2" font-family="DejaVu Sans" font-size="11.00" fill="#334e68">Передає типізовані команди виконання</text>
<text text-anchor="start" x="1603.5" y="-541.2" font-family="DejaVu Sans" font-size="11.00" fill="#334e68">сценарію</text>
</g>
<!-- n_eb4c5110ae64 -->
<g id="node15" class="node">
<title>n_eb4c5110ae64</title>
<path fill="#b7791f" stroke="#486581" stroke-width="1.5" d="M2878,-570C2878,-570 2680,-570 2680,-570 2674,-570 2668,-564 2668,-558 2668,-558 2668,-536 2668,-536 2668,-530 2674,-524 2680,-524 2680,-524 2878,-524 2878,-524 2884,-524 2890,-530 2890,-536 2890,-536 2890,-558 2890,-558 2890,-564 2884,-570 2878,-570"/>
<text text-anchor="start" x="2678" y="-555.4" font-family="DejaVu Sans" font-weight="bold" font-size="12.00" fill="#ffffff">Сервіс завдань, нагадувань і</text>
<text text-anchor="start" x="2744" y="-543.4" font-family="DejaVu Sans" font-weight="bold" font-size="12.00" fill="#ffffff">ескалацій</text>
<text text-anchor="start" x="2694.5" y="-533" font-family="DejaVu Sans" font-size="10.00" fill="#ffffff">[Контейнер · Workflow scheduler]</text>
</g>
<!-- n_384146de0c5d&#45;&gt;n_eb4c5110ae64 -->
<g id="edge7" class="edge">
<title>n_384146de0c5d&#45;&gt;n_eb4c5110ae64</title>
<path fill="none" stroke="#486581" stroke-width="1.4" d="M1223.36,-477.77C1243.97,-477.9 1259,-478 1259,-478 1259,-478 1476,-478 1476,-478 1476,-478 2035,-473 2035,-473 2035,-473 2335,-464 2335,-464 2335,-464 2371,-462 2371,-462 2371,-462 2611,-462 2611,-462 2611,-462 2647,-508 2647,-508 2647,-508 2667.78,-514.19 2692.78,-521.63"/>
<polygon fill="#486581" stroke="#486581" stroke-width="1.4" points="2692.19,-524.38 2700.66,-523.98 2693.79,-519.01 2692.19,-524.38"/>
<text text-anchor="start" x="1812.5" y="-490.2" font-family="DejaVu Sans" font-size="11.00" fill="#334e68">Передає команди щодо завдань,</text>
<text text-anchor="start" x="1850" y="-478.2" font-family="DejaVu Sans" font-size="11.00" fill="#334e68">нагадувань і візитів</text>
</g>
<!-- n_85612016a131 -->
<g id="node4" class="node">
<title>n_85612016a131</title>
<path fill="#edf2f7" stroke="#486581" stroke-width="1.5" d="M2316,-732.02C2316,-734.36 2265.35,-736.25 2203,-736.25 2140.65,-736.25 2090,-734.36 2090,-732.02 2090,-732.02 2090,-693.98 2090,-693.98 2090,-691.64 2140.65,-689.75 2203,-689.75 2265.35,-689.75 2316,-691.64 2316,-693.98 2316,-693.98 2316,-732.02 2316,-732.02"/>
<path fill="none" stroke="#486581" stroke-width="1.5" d="M2316,-732.02C2316,-729.69 2265.35,-727.8 2203,-727.8 2140.65,-727.8 2090,-729.69 2090,-732.02"/>
<text text-anchor="start" x="2105.5" y="-715.4" font-family="DejaVu Sans" font-weight="bold" font-size="12.00" fill="#1a202c">Кеш і короткоживучий стан</text>
<text text-anchor="start" x="2100" y="-705" font-family="DejaVu Sans" font-size="10.00" fill="#1a202c">[Сховище даних · In&#45;memory data store]</text>
</g>
<!-- n_40b119007c9f -->
<g id="node5" class="node">
<title>n_40b119007c9f</title>
<path fill="#edf2f7" stroke="#486581" stroke-width="1.5" d="M4083,-546.02C4083,-548.36 4020.92,-550.25 3944.5,-550.25 3868.08,-550.25 3806,-548.36 3806,-546.02 3806,-546.02 3806,-507.98 3806,-507.98 3806,-505.64 3868.08,-503.75 3944.5,-503.75 4020.92,-503.75 4083,-505.64 4083,-507.98 4083,-507.98 4083,-546.02 4083,-546.02"/>
<path fill="none" stroke="#486581" stroke-width="1.5" d="M4083,-546.02C4083,-543.69 4020.92,-541.8 3944.5,-541.8 3868.08,-541.8 3806,-543.69 3806,-546.02"/>
<text text-anchor="start" x="3882.5" y="-529.4" font-family="DejaVu Sans" font-weight="bold" font-size="12.00" fill="#1a202c">Клінічне сховище</text>
<text text-anchor="start" x="3816" y="-519" font-family="DejaVu Sans" font-size="10.00" fill="#1a202c">[Сховище даних · FHIR&#45;oriented clinical repository]</text>
</g>
<!-- n_dcb3f876e224&#45;&gt;n_40b119007c9f -->
<g id="edge11" class="edge">
<title>n_dcb3f876e224&#45;&gt;n_40b119007c9f</title>
<path fill="none" stroke="#486581" stroke-width="1.4" d="M2911.21,-475.54C3130.29,-486.46 3569.01,-508.33 3797.53,-519.72"/>
<polygon fill="#486581" stroke="#486581" stroke-width="1.4" points="3797.45,-522.52 3805.57,-520.12 3797.72,-516.93 3797.45,-522.52"/>
<text text-anchor="start" x="3263" y="-519.2" font-family="DejaVu Sans" font-size="11.00" fill="#334e68">Зберігає версійовані записи згод і</text>
<text text-anchor="start" x="3330.5" y="-507.2" font-family="DejaVu Sans" font-size="11.00" fill="#334e68">відкликань</text>
</g>
<!-- n_331a3889c3d6 -->
<g id="node12" class="node">
<title>n_331a3889c3d6</title>
<path fill="#edf2f7" stroke="#486581" stroke-width="1.5" d="M3472.5,-645.02C3472.5,-647.36 3423.87,-649.25 3364,-649.25 3304.13,-649.25 3255.5,-647.36 3255.5,-645.02 3255.5,-645.02 3255.5,-606.98 3255.5,-606.98 3255.5,-604.64 3304.13,-602.75 3364,-602.75 3423.87,-602.75 3472.5,-604.64 3472.5,-606.98 3472.5,-606.98 3472.5,-645.02 3472.5,-645.02"/>
<path fill="none" stroke="#486581" stroke-width="1.5" d="M3472.5,-645.02C3472.5,-642.69 3423.87,-640.8 3364,-640.8 3304.13,-640.8 3255.5,-642.69 3255.5,-645.02"/>
<text text-anchor="start" x="3282" y="-628.4" font-family="DejaVu Sans" font-weight="bold" font-size="12.00" fill="#1a202c">Операційна база даних</text>
<text text-anchor="start" x="3265.5" y="-618" font-family="DejaVu Sans" font-size="10.00" fill="#1a202c">[Сховище даних · Relational database]</text>
</g>
<!-- n_dcb3f876e224&#45;&gt;n_331a3889c3d6 -->
<g id="edge10" class="edge">
<title>n_dcb3f876e224&#45;&gt;n_331a3889c3d6</title>
<path fill="none" stroke="#486581" stroke-width="1.4" d="M2857.34,-492.02C2885.7,-500.47 2911,-508 2911,-508 2911,-508 2947,-529 2947,-529 2947,-529 3190,-558 3190,-558 3190,-558 3247.14,-580.46 3295.75,-599.56"/>
<polygon fill="#486581" stroke="#486581" stroke-width="1.4" points="3294.99,-602.28 3303.46,-602.6 3297.04,-597.07 3294.99,-602.28"/>
<text text-anchor="start" x="2976.5" y="-573.2" font-family="DejaVu Sans" font-size="11.00" fill="#334e68">Зберігає технічний стан сесій і</text>
<text text-anchor="start" x="3020" y="-561.2" font-family="DejaVu Sans" font-size="11.00" fill="#334e68">політик доступу</text>
</g>
<!-- n_d6434351ba8f -->
<g id="node20" class="node">
<title>n_d6434351ba8f</title>
<path fill="#e9eef4" stroke="#486581" stroke-width="1.5" d="M3456,-229C3456,-229 3272,-229 3272,-229 3266,-229 3260,-223 3260,-217 3260,-217 3260,-195 3260,-195 3260,-189 3266,-183 3272,-183 3272,-183 3456,-183 3456,-183 3462,-183 3468,-189 3468,-195 3468,-195 3468,-217 3468,-217 3468,-223 3462,-229 3456,-229"/>
<text text-anchor="start" x="3270" y="-214.4" font-family="DejaVu Sans" font-weight="bold" font-size="12.00" fill="#263238">Постачальник електронної</text>
<text text-anchor="start" x="3320" y="-202.4" font-family="DejaVu Sans" font-weight="bold" font-size="12.00" fill="#263238">ідентичності</text>
<text text-anchor="start" x="3308.5" y="-192" font-family="DejaVu Sans" font-size="10.00" fill="#263238">[Програмна система]</text>
</g>
<!-- n_dcb3f876e224&#45;&gt;n_d6434351ba8f -->
<g id="edge9" class="edge">
<title>n_dcb3f876e224&#45;&gt;n_d6434351ba8f</title>
<path fill="none" stroke="#486581" stroke-width="1.4" d="M2857.34,-445.98C2885.7,-437.53 2911,-430 2911,-430 2911,-430 2947,-279 2947,-279 2947,-279 3128.64,-247.13 3251.87,-225.5"/>
<polygon fill="#486581" stroke="#486581" stroke-width="1.4" points="3252.51,-228.23 3259.9,-224.09 3251.54,-222.72 3252.51,-228.23"/>
<text text-anchor="start" x="2947" y="-282.2" font-family="DejaVu Sans" font-size="11.00" fill="#334e68">Федеративно автентифікує користувача</text>
</g>
<!-- n_b10c10dbc143&#45;&gt;n_40b119007c9f -->
<g id="edge34" class="edge">
<title>n_b10c10dbc143&#45;&gt;n_40b119007c9f</title>
<path fill="none" stroke="#486581" stroke-width="1.4" d="M3502.11,-373.59C3619.61,-387.8 3770,-406 3770,-406 3770,-406 3852.09,-463.25 3903.34,-498.99"/>
<polygon fill="#486581" stroke="#486581" stroke-width="1.4" points="3901.88,-501.39 3910.05,-503.67 3905.09,-496.8 3901.88,-501.39"/>
<text text-anchor="start" x="3556" y="-421.2" font-family="DejaVu Sans" font-size="11.00" fill="#334e68">Читає або записує нормалізовані</text>
<text text-anchor="start" x="3603.5" y="-409.2" font-family="DejaVu Sans" font-size="11.00" fill="#334e68">інтеграційні дані</text>
</g>
<!-- n_d41792c094aa -->
<g id="node16" class="node">
<title>n_d41792c094aa</title>
<path fill="#e9eef4" stroke="#486581" stroke-width="1.5" d="M4041.5,-240C4041.5,-240 3847.5,-240 3847.5,-240 3841.5,-240 3835.5,-234 3835.5,-228 3835.5,-228 3835.5,-216 3835.5,-216 3835.5,-210 3841.5,-204 3847.5,-204 3847.5,-204 4041.5,-204 4041.5,-204 4047.5,-204 4053.5,-210 4053.5,-216 4053.5,-216 4053.5,-228 4053.5,-228 4053.5,-234 4047.5,-240 4041.5,-240"/>
<text text-anchor="start" x="3845.5" y="-224.4" font-family="DejaVu Sans" font-weight="bold" font-size="12.00" fill="#263238">Календар і запис на прийом</text>
<text text-anchor="start" x="3889" y="-214" font-family="DejaVu Sans" font-size="10.00" fill="#263238">[Програмна система]</text>
</g>
<!-- n_b10c10dbc143&#45;&gt;n_d41792c094aa -->
<g id="edge31" class="edge">
<title>n_b10c10dbc143&#45;&gt;n_d41792c094aa</title>
<path fill="none" stroke="#486581" stroke-width="1.4" d="M3437.91,-338.9C3470.63,-330.79 3502,-323 3502,-323 3502,-323 3806,-244 3806,-244 3806,-244 3814.58,-242.63 3827.45,-240.57"/>
<polygon fill="#486581" stroke="#486581" stroke-width="1.4" points="3828.04,-243.31 3835.5,-239.28 3827.16,-237.78 3828.04,-243.31"/>
<text text-anchor="start" x="3539.5" y="-328.2" font-family="DejaVu Sans" font-size="11.00" fill="#334e68">Синхронізує слоти, події, перенесення</text>
<text text-anchor="start" x="3614.5" y="-316.2" font-family="DejaVu Sans" font-size="11.00" fill="#334e68">й скасування</text>
</g>
<!-- n_3145c0474e62 -->
<g id="node18" class="node">
<title>n_3145c0474e62</title>
<path fill="#c92a2a" stroke="#486581" stroke-width="1.5" d="M4037.5,-172C4037.5,-172 3851.5,-172 3851.5,-172 3845.5,-172 3839.5,-166 3839.5,-160 3839.5,-160 3839.5,-148 3839.5,-148 3839.5,-142 3845.5,-136 3851.5,-136 3851.5,-136 4037.5,-136 4037.5,-136 4043.5,-136 4049.5,-142 4049.5,-148 4049.5,-148 4049.5,-160 4049.5,-160 4049.5,-166 4043.5,-172 4037.5,-172"/>
<text text-anchor="start" x="3849.5" y="-156.4" font-family="DejaVu Sans" font-weight="bold" font-size="12.00" fill="#ffffff">Кризова / екстрена служба</text>
<text text-anchor="start" x="3889" y="-146" font-family="DejaVu Sans" font-size="10.00" fill="#ffffff">[Програмна система]</text>
</g>
<!-- n_b10c10dbc143&#45;&gt;n_3145c0474e62 -->
<g id="edge33" class="edge">
<title>n_b10c10dbc143&#45;&gt;n_3145c0474e62</title>
<path fill="none" stroke="#486581" stroke-width="1.4" d="M3437.91,-338.9C3470.63,-330.79 3502,-323 3502,-323 3502,-323 3538,-221 3538,-221 3538,-221 3711.14,-192.39 3831.15,-172.56"/>
<polygon fill="#486581" stroke="#486581" stroke-width="1.4" points="3831.9,-175.28 3839.34,-171.21 3830.99,-169.75 3831.9,-175.28"/>
<text text-anchor="start" x="3564" y="-236.2" font-family="DejaVu Sans" font-size="11.00" fill="#334e68">Передає кризову ескалацію за</text>
<text text-anchor="start" x="3583" y="-224.2" font-family="DejaVu Sans" font-size="11.00" fill="#334e68">визначеним маршрутом</text>
</g>
<!-- n_dff60b2c2060 -->
<g id="node21" class="node">
<title>n_dff60b2c2060</title>
<path fill="#e9eef4" stroke="#486581" stroke-width="1.5" d="M4027.5,-104C4027.5,-104 3861.5,-104 3861.5,-104 3855.5,-104 3849.5,-98 3849.5,-92 3849.5,-92 3849.5,-80 3849.5,-80 3849.5,-74 3855.5,-68 3861.5,-68 3861.5,-68 4027.5,-68 4027.5,-68 4033.5,-68 4039.5,-74 4039.5,-80 4039.5,-80 4039.5,-92 4039.5,-92 4039.5,-98 4033.5,-104 4027.5,-104"/>
<text text-anchor="start" x="3859.5" y="-88.4" font-family="DejaVu Sans" font-weight="bold" font-size="12.00" fill="#263238">Провайдер повідомлень</text>
<text text-anchor="start" x="3889" y="-78" font-family="DejaVu Sans" font-size="10.00" fill="#263238">[Програмна система]</text>
</g>
<!-- n_b10c10dbc143&#45;&gt;n_dff60b2c2060 -->
<g id="edge30" class="edge">
<title>n_b10c10dbc143&#45;&gt;n_dff60b2c2060</title>
<path fill="none" stroke="#486581" stroke-width="1.4" d="M3437.91,-338.9C3470.63,-330.79 3502,-323 3502,-323 3502,-323 3538,-152 3538,-152 3538,-152 3721.15,-122.19 3841.27,-102.64"/>
<polygon fill="#486581" stroke="#486581" stroke-width="1.4" points="3842,-105.36 3849.45,-101.31 3841.1,-99.83 3842,-105.36"/>
<text text-anchor="start" x="3538" y="-167.2" font-family="DejaVu Sans" font-size="11.00" fill="#334e68">Надсилає мінімізовані повідомлення та</text>
<text text-anchor="start" x="3578.5" y="-155.2" font-family="DejaVu Sans" font-size="11.00" fill="#334e68">отримує статус доставки</text>
</g>
<!-- n_8ef8376f7755 -->
<g id="node23" class="node">
<title>n_8ef8376f7755</title>
<path fill="#e9eef4" stroke="#486581" stroke-width="1.5" d="M4036,-36C4036,-36 3853,-36 3853,-36 3847,-36 3841,-30 3841,-24 3841,-24 3841,-12 3841,-12 3841,-6 3847,0 3853,0 3853,0 4036,0 4036,0 4042,0 4048,-6 4048,-12 4048,-12 4048,-24 4048,-24 4048,-30 4042,-36 4036,-36"/>
<text text-anchor="start" x="3851" y="-20.4" font-family="DejaVu Sans" font-weight="bold" font-size="12.00" fill="#263238">Платформа телемедицини</text>
<text text-anchor="start" x="3889" y="-10" font-family="DejaVu Sans" font-size="10.00" fill="#263238">[Програмна система]</text>
</g>
<!-- n_b10c10dbc143&#45;&gt;n_8ef8376f7755 -->
<g id="edge32" class="edge">
<title>n_b10c10dbc143&#45;&gt;n_8ef8376f7755</title>
<path fill="none" stroke="#486581" stroke-width="1.4" d="M3437.91,-338.9C3470.63,-330.79 3502,-323 3502,-323 3502,-323 3538,-84 3538,-84 3538,-84 3712.66,-55.57 3832.73,-36.03"/>
<polygon fill="#486581" stroke="#486581" stroke-width="1.4" points="3833.47,-38.75 3840.91,-34.7 3832.57,-33.22 3833.47,-38.75"/>
<text text-anchor="start" x="3569" y="-99.2" font-family="DejaVu Sans" font-size="11.00" fill="#334e68">Створює захищені сеанси та</text>
<text text-anchor="start" x="3572" y="-87.2" font-family="DejaVu Sans" font-size="11.00" fill="#334e68">короткоживучі запрошення</text>
</g>
<!-- n_f9075d486a51&#45;&gt;n_4a71738c36d2 -->
<g id="edge13" class="edge">
<title>n_f9075d486a51&#45;&gt;n_4a71738c36d2</title>
<path fill="none" stroke="#486581" stroke-width="1.4" d="M1682.01,-616.94C1713.86,-605.56 1749,-593 1749,-593 1749,-593 1785,-323 1785,-323 1785,-323 2035,-323 2035,-323 2035,-323 2069.15,-332 2106.56,-341.86"/>
<polygon fill="#486581" stroke="#486581" stroke-width="1.4" points="2106.14,-344.64 2114.59,-343.97 2107.56,-339.22 2106.14,-344.64"/>
<text text-anchor="start" x="1813" y="-350.2" font-family="DejaVu Sans" font-size="11.00" fill="#334e68">Використовує допоміжні функції</text>
<text text-anchor="start" x="1807" y="-338.2" font-family="DejaVu Sans" font-size="11.00" fill="#334e68">розпізнавання, структурування та</text>
<text text-anchor="start" x="1852.5" y="-326.2" font-family="DejaVu Sans" font-size="11.00" fill="#334e68">формування реплік</text>
</g>
<!-- n_f9075d486a51&#45;&gt;n_85612016a131 -->
<g id="edge16" class="edge">
<title>n_f9075d486a51&#45;&gt;n_85612016a131</title>
<path fill="none" stroke="#486581" stroke-width="1.4" d="M1724.11,-647.66C1821.45,-660.97 1974.96,-681.96 2081.63,-696.54"/>
<polygon fill="#486581" stroke="#486581" stroke-width="1.4" points="2081.56,-699.36 2089.87,-697.67 2082.32,-693.81 2081.56,-699.36"/>
<text text-anchor="start" x="1801.5" y="-704.2" font-family="DejaVu Sans" font-size="11.00" fill="#334e68">Зберігає короткоживучий контекст і</text>
<text text-anchor="start" x="1875" y="-692.2" font-family="DejaVu Sans" font-size="11.00" fill="#334e68">блокування</text>
</g>
<!-- n_f9075d486a51&#45;&gt;n_40b119007c9f -->
<g id="edge14" class="edge">
<title>n_f9075d486a51&#45;&gt;n_40b119007c9f</title>
<path fill="none" stroke="#486581" stroke-width="1.4" d="M1657.19,-653.08C1700.89,-683.82 1785,-743 1785,-743 1785,-743 2071,-761 2071,-761 2071,-761 2335,-761 2335,-761 2335,-761 3190,-724 3190,-724 3190,-724 3502,-680 3502,-680 3502,-680 3770,-626 3770,-626 3770,-626 3843.96,-583.8 3895.3,-554.5"/>
<polygon fill="#486581" stroke="#486581" stroke-width="1.4" points="3896.82,-556.86 3902.38,-550.46 3894.05,-551.99 3896.82,-556.86"/>
<text text-anchor="start" x="2661" y="-762.2" font-family="DejaVu Sans" font-size="11.00" fill="#334e68">Читає мінімальний клінічний контекст і</text>
<text text-anchor="start" x="2677" y="-750.2" font-family="DejaVu Sans" font-size="11.00" fill="#334e68">зберігає структуровану взаємодію</text>
</g>
<!-- n_f9075d486a51&#45;&gt;n_331a3889c3d6 -->
<g id="edge15" class="edge">
<title>n_f9075d486a51&#45;&gt;n_331a3889c3d6</title>
<path fill="none" stroke="#486581" stroke-width="1.4" d="M1663.68,-653.03C1708.69,-678.25 1785,-721 1785,-721 1785,-721 2071,-752 2071,-752 2071,-752 2335,-752 2335,-752 2335,-752 2978.4,-673.14 3247.18,-640.2"/>
<polygon fill="#486581" stroke="#486581" stroke-width="1.4" points="3247.81,-642.94 3255.41,-639.19 3247.13,-637.38 3247.81,-642.94"/>
<text text-anchor="start" x="2396" y="-762.2" font-family="DejaVu Sans" font-size="11.00" fill="#334e68">Зберігає життєвий цикл сесії та</text>
<text text-anchor="start" x="2445" y="-750.2" font-family="DejaVu Sans" font-size="11.00" fill="#334e68">незавершені дії</text>
</g>
<!-- n_f9075d486a51&#45;&gt;n_78e6a86e3609 -->
<g id="edge12" class="edge">
<title>n_f9075d486a51&#45;&gt;n_78e6a86e3609</title>
<path fill="none" stroke="#486581" stroke-width="1.4" d="M1713.19,-616.9C1749.85,-608.79 1785,-601 1785,-601 1785,-601 1941.7,-580.71 2062.98,-565"/>
<polygon fill="#486581" stroke="#486581" stroke-width="1.4" points="2063.34,-567.78 2070.92,-563.97 2062.62,-562.23 2063.34,-567.78"/>
<text text-anchor="start" x="1785" y="-616.2" font-family="DejaVu Sans" font-size="11.00" fill="#334e68">Отримує детермінований наступний крок</text>
<text text-anchor="start" x="1858.5" y="-604.2" font-family="DejaVu Sans" font-size="11.00" fill="#334e68">і статус сценарію</text>
</g>
<!-- n_f9075d486a51&#45;&gt;n_eb4c5110ae64 -->
<g id="edge17" class="edge">
<title>n_f9075d486a51&#45;&gt;n_eb4c5110ae64</title>
<path fill="none" stroke="#486581" stroke-width="1.4" d="M1724.04,-635.38C1922.46,-636.18 2371,-638 2371,-638 2371,-638 2611,-638 2611,-638 2611,-638 2647,-586 2647,-586 2647,-586 2667.78,-579.81 2692.78,-572.37"/>
<polygon fill="#486581" stroke="#486581" stroke-width="1.4" points="2693.79,-574.99 2700.66,-570.02 2692.19,-569.62 2693.79,-574.99"/>
<text text-anchor="start" x="2104.5" y="-652.2" font-family="DejaVu Sans" font-size="11.00" fill="#334e68">Створює завдання продовження,</text>
<text text-anchor="start" x="2107" y="-640.2" font-family="DejaVu Sans" font-size="11.00" fill="#334e68">повторного контакту або візиту</text>
</g>
<!-- n_a57f04482dc5&#45;&gt;n_40b119007c9f -->
<g id="edge27" class="edge">
<title>n_a57f04482dc5&#45;&gt;n_40b119007c9f</title>
<path fill="none" stroke="#486581" stroke-width="1.4" d="M2869.37,-414.01C2909.07,-424.23 2947,-434 2947,-434 2947,-434 3502,-459 3502,-459 3502,-459 3770,-499 3770,-499 3770,-499 3783.2,-501.13 3802.33,-504.22"/>
<polygon fill="#486581" stroke="#486581" stroke-width="1.4" points="3801.9,-506.98 3810.24,-505.49 3802.79,-501.46 3801.9,-506.98"/>
<text text-anchor="start" x="3261" y="-474.2" font-family="DejaVu Sans" font-size="11.00" fill="#334e68">Зберігає нормалізовані показники,</text>
<text text-anchor="start" x="3284" y="-462.2" font-family="DejaVu Sans" font-size="11.00" fill="#334e68">якість і версію аналізатора</text>
</g>
<!-- n_f9fe6a00e3bb -->
<g id="node11" class="node">
<title>n_f9fe6a00e3bb</title>
<path fill="#ffe3e3" stroke="#486581" stroke-width="1.5" d="M3484.5,-303.02C3484.5,-305.36 3430.49,-307.25 3364,-307.25 3297.51,-307.25 3243.5,-305.36 3243.5,-303.02 3243.5,-303.02 3243.5,-264.98 3243.5,-264.98 3243.5,-262.64 3297.51,-260.75 3364,-260.75 3430.49,-260.75 3484.5,-262.64 3484.5,-264.98 3484.5,-264.98 3484.5,-303.02 3484.5,-303.02"/>
<path fill="none" stroke="#486581" stroke-width="1.5" d="M3484.5,-303.02C3484.5,-300.69 3430.49,-298.8 3364,-298.8 3297.51,-298.8 3243.5,-300.69 3243.5,-303.02"/>
<text text-anchor="start" x="3264.5" y="-286.4" font-family="DejaVu Sans" font-weight="bold" font-size="12.00" fill="#5c1a1a">Захищене об&#39;єктне сховище</text>
<text text-anchor="start" x="3253.5" y="-276" font-family="DejaVu Sans" font-size="10.00" fill="#5c1a1a">[Сховище даних · Encrypted object storage]</text>
</g>
<!-- n_a57f04482dc5&#45;&gt;n_f9fe6a00e3bb -->
<g id="edge26" class="edge">
<title>n_a57f04482dc5&#45;&gt;n_f9fe6a00e3bb</title>
<path fill="none" stroke="#486581" stroke-width="1.4" d="M2857.34,-367.98C2885.7,-359.53 2911,-352 2911,-352 2911,-352 2947,-319 2947,-319 2947,-319 3112.97,-305.04 3235.25,-294.75"/>
<polygon fill="#486581" stroke="#486581" stroke-width="1.4" points="3235.5,-297.54 3243.23,-294.08 3235.03,-291.96 3235.5,-297.54"/>
<text text-anchor="start" x="2957.5" y="-334.2" font-family="DejaVu Sans" font-size="11.00" fill="#334e68">Зберігає зашифровані сирі об&#39;єкти та</text>
<text text-anchor="start" x="3013" y="-322.2" font-family="DejaVu Sans" font-size="11.00" fill="#334e68">похідні артефакти</text>
</g>
<!-- n_fd9938cf1df8 -->
<g id="node17" class="node">
<title>n_fd9938cf1df8</title>
<path fill="#e9eef4" stroke="#486581" stroke-width="1.5" d="M3462.5,-151C3462.5,-151 3265.5,-151 3265.5,-151 3259.5,-151 3253.5,-145 3253.5,-139 3253.5,-139 3253.5,-127 3253.5,-127 3253.5,-121 3259.5,-115 3265.5,-115 3265.5,-115 3462.5,-115 3462.5,-115 3468.5,-115 3474.5,-121 3474.5,-127 3474.5,-127 3474.5,-139 3474.5,-139 3474.5,-145 3468.5,-151 3462.5,-151"/>
<text text-anchor="start" x="3263.5" y="-135.4" font-family="DejaVu Sans" font-weight="bold" font-size="12.00" fill="#263238">Медичні пристрої та сенсори</text>
<text text-anchor="start" x="3308.5" y="-125" font-family="DejaVu Sans" font-size="10.00" fill="#263238">[Програмна система]</text>
</g>
<!-- n_a57f04482dc5&#45;&gt;n_fd9938cf1df8 -->
<g id="edge24" class="edge">
<title>n_a57f04482dc5&#45;&gt;n_fd9938cf1df8</title>
<path fill="none" stroke="#486581" stroke-width="1.4" d="M2857.34,-367.98C2885.7,-359.53 2911,-352 2911,-352 2911,-352 2947,-161 2947,-161 2947,-161 3122.39,-149.19 3245.4,-140.92"/>
<polygon fill="#486581" stroke="#486581" stroke-width="1.4" points="3245.64,-143.71 3253.43,-140.37 3245.26,-138.12 3245.64,-143.71"/>
<text text-anchor="start" x="2965.5" y="-176.2" font-family="DejaVu Sans" font-size="11.00" fill="#334e68">Отримує сигнали, медіа й технічні</text>
<text text-anchor="start" x="3041.5" y="-164.2" font-family="DejaVu Sans" font-size="11.00" fill="#334e68">метадані</text>
</g>
<!-- n_a57f04482dc5&#45;&gt;n_c3da19e3d57e -->
<g id="edge25" class="edge">
<title>n_a57f04482dc5&#45;&gt;n_c3da19e3d57e</title>
<path fill="none" stroke="#486581" stroke-width="1.4" d="M2857.34,-367.98C2885.7,-359.53 2911,-352 2911,-352 2911,-352 2947,-114 2947,-114 2947,-114 3117.27,-89.85 3239.94,-72.45"/>
<polygon fill="#486581" stroke="#486581" stroke-width="1.4" points="3240.42,-75.21 3247.95,-71.32 3239.64,-69.67 3240.42,-75.21"/>
<text text-anchor="start" x="2966" y="-129.2" font-family="DejaVu Sans" font-size="11.00" fill="#334e68">Викликає дозволені спеціалізовані</text>
<text text-anchor="start" x="2959.5" y="-117.2" font-family="DejaVu Sans" font-size="11.00" fill="#334e68">сигнальні та мультимодальні моделі</text>
</g>
<!-- n_8a923be70a11 -->
<g id="node13" class="node">
<title>n_8a923be70a11</title>
<path fill="#0b7285" stroke="#486581" stroke-width="1.5" d="M691,-495C691,-495 393,-495 393,-495 387,-495 381,-489 381,-483 381,-483 381,-471 381,-471 381,-465 387,-459 393,-459 393,-459 691,-459 691,-459 697,-459 703,-465 703,-471 703,-471 703,-483 703,-483 703,-489 697,-495 691,-495"/>
<text text-anchor="start" x="471" y="-479.4" font-family="DejaVu Sans" font-weight="bold" font-size="12.00" fill="#ffffff">Застосунок пацієнта</text>
<text text-anchor="start" x="391" y="-469" font-family="DejaVu Sans" font-size="10.00" fill="#ffffff">[Контейнер · PWA / mobile / web, WebRTC, Web Speech APIs]</text>
</g>
<!-- n_8a923be70a11&#45;&gt;n_384146de0c5d -->
<g id="edge2" class="edge">
<title>n_8a923be70a11&#45;&gt;n_384146de0c5d</title>
<path fill="none" stroke="#486581" stroke-width="1.4" d="M703.29,-477C791.28,-477 898.75,-477 980.39,-477"/>
<polygon fill="#486581" stroke="#486581" stroke-width="1.4" points="980.71,-479.8 988.71,-477 980.71,-474.2 980.71,-479.8"/>
<text text-anchor="start" x="739" y="-480.2" font-family="DejaVu Sans" font-size="11.00" fill="#334e68">Викликає захищене пацієнтське API</text>
</g>
<!-- n_78e6a86e3609&#45;&gt;n_ace1c56edb4b -->
<g id="edge18" class="edge">
<title>n_78e6a86e3609&#45;&gt;n_ace1c56edb4b</title>
<path fill="none" stroke="#486581" stroke-width="1.4" d="M2324.04,-570C2350.59,-575.09 2371,-579 2371,-579 2371,-579 2546.06,-598.79 2666.55,-612.4"/>
<polygon fill="#486581" stroke="#486581" stroke-width="1.4" points="2666.51,-615.22 2674.77,-613.33 2667.14,-609.65 2666.51,-615.22"/>
<text text-anchor="start" x="2382.5" y="-621.2" font-family="DejaVu Sans" font-size="11.00" fill="#334e68">Завантажує підписану опубліковану</text>
<text text-anchor="start" x="2435" y="-609.2" font-family="DejaVu Sans" font-size="11.00" fill="#334e68">версію визначення</text>
</g>
<!-- n_78e6a86e3609&#45;&gt;n_40b119007c9f -->
<g id="edge19" class="edge">
<title>n_78e6a86e3609&#45;&gt;n_40b119007c9f</title>
<path fill="none" stroke="#486581" stroke-width="1.4" d="M2241.54,-570.21C2280.25,-594.15 2335,-628 2335,-628 2335,-628 2371,-710 2371,-710 2371,-710 2611,-710 2611,-710 2611,-710 3502,-665 3502,-665 3502,-665 3733.49,-592.64 3861.22,-552.72"/>
<polygon fill="#486581" stroke="#486581" stroke-width="1.4" points="3862.3,-555.31 3869.1,-550.25 3860.63,-549.97 3862.3,-555.31"/>
<text text-anchor="start" x="2970" y="-707.2" font-family="DejaVu Sans" font-size="11.00" fill="#334e68">Читає та записує відповіді, бали,</text>
<text text-anchor="start" x="2960" y="-695.2" font-family="DejaVu Sans" font-size="11.00" fill="#334e68">ознаки й структурований результат</text>
</g>
<!-- n_78e6a86e3609&#45;&gt;n_a57f04482dc5 -->
<g id="edge20" class="edge">
<title>n_78e6a86e3609&#45;&gt;n_a57f04482dc5</title>
<path fill="none" stroke="#486581" stroke-width="1.4" d="M2288.7,-523.98C2394.68,-495.18 2575.54,-446.02 2685.19,-416.22"/>
<polygon fill="#486581" stroke="#486581" stroke-width="1.4" points="2685.97,-418.91 2692.96,-414.11 2684.5,-413.51 2685.97,-418.91"/>
<text text-anchor="start" x="2389.5" y="-515.2" font-family="DejaVu Sans" font-size="11.00" fill="#334e68">Запитує передбачене алгоритмом</text>
<text text-anchor="start" x="2452.5" y="-503.2" font-family="DejaVu Sans" font-size="11.00" fill="#334e68">вимірювання</text>
</g>
<!-- n_78e6a86e3609&#45;&gt;n_eb4c5110ae64 -->
<g id="edge21" class="edge">
<title>n_78e6a86e3609&#45;&gt;n_eb4c5110ae64</title>
<path fill="none" stroke="#486581" stroke-width="1.4" d="M2335.33,-547C2433.08,-547 2565.39,-547 2659.84,-547"/>
<polygon fill="#486581" stroke="#486581" stroke-width="1.4" points="2660,-549.8 2668,-547 2660,-544.2 2660,-549.8"/>
<text text-anchor="start" x="2371" y="-562.2" font-family="DejaVu Sans" font-size="11.00" fill="#334e68">Створює контрольні завдання та строки</text>
<text text-anchor="start" x="2470.5" y="-550.2" font-family="DejaVu Sans" font-size="11.00" fill="#334e68">реакції</text>
</g>
<!-- n_eb4c5110ae64&#45;&gt;n_b10c10dbc143 -->
<g id="edge28" class="edge">
<title>n_eb4c5110ae64&#45;&gt;n_b10c10dbc143</title>
<path fill="none" stroke="#486581" stroke-width="1.4" d="M2857.34,-523.98C2885.7,-515.53 2911,-508 2911,-508 2911,-508 3226,-399 3226,-399 3226,-399 3261.41,-388.14 3296.23,-377.47"/>
<polygon fill="#486581" stroke="#486581" stroke-width="1.4" points="3297.28,-380.08 3304.1,-375.06 3295.64,-374.72 3297.28,-380.08"/>
<text text-anchor="start" x="2951" y="-509.2" font-family="DejaVu Sans" font-size="11.00" fill="#334e68">Передає нагадування, події календаря,</text>
<text text-anchor="start" x="2972" y="-497.2" font-family="DejaVu Sans" font-size="11.00" fill="#334e68">телемедичні сеанси та ескалації</text>
</g>
<!-- n_eb4c5110ae64&#45;&gt;n_331a3889c3d6 -->
<g id="edge29" class="edge">
<title>n_eb4c5110ae64&#45;&gt;n_331a3889c3d6</title>
<path fill="none" stroke="#486581" stroke-width="1.4" d="M2869.37,-570.01C2909.07,-580.23 2947,-590 2947,-590 2947,-590 3124.2,-605.33 3247.3,-615.99"/>
<polygon fill="#486581" stroke="#486581" stroke-width="1.4" points="3247.12,-618.78 3255.33,-616.68 3247.6,-613.2 3247.12,-618.78"/>
<text text-anchor="start" x="2953.5" y="-625.2" font-family="DejaVu Sans" font-size="11.00" fill="#334e68">Зберігає завдання, строки, повтори та</text>
<text text-anchor="start" x="3011" y="-613.2" font-family="DejaVu Sans" font-size="11.00" fill="#334e68">ідемпотентні ключі</text>
</g>
<!-- n_b1b0b8de8a62 -->
<g id="node22" class="node">
<title>n_b1b0b8de8a62</title>
<path fill="#084c61" stroke="#486581" stroke-width="1.5" d="M61,-495C61,-495 12,-495 12,-495 6,-495 0,-489 0,-483 0,-483 0,-471 0,-471 0,-465 6,-459 12,-459 12,-459 61,-459 61,-459 67,-459 73,-465 73,-471 73,-471 73,-483 73,-483 73,-489 67,-495 61,-495"/>
<text text-anchor="start" x="10" y="-479.4" font-family="DejaVu Sans" font-weight="bold" font-size="12.00" fill="#ffffff">Пацієнт</text>
<text text-anchor="start" x="17" y="-469" font-family="DejaVu Sans" font-size="10.00" fill="#ffffff">[Особа]</text>
</g>
<!-- n_b1b0b8de8a62&#45;&gt;n_8a923be70a11 -->
<g id="edge1" class="edge">
<title>n_b1b0b8de8a62&#45;&gt;n_8a923be70a11</title>
<path fill="none" stroke="#486581" stroke-width="1.4" d="M73.31,-477C135.06,-477 265.31,-477 372.7,-477"/>
<polygon fill="#486581" stroke="#486581" stroke-width="1.4" points="372.72,-479.8 380.72,-477 372.72,-474.2 372.72,-479.8"/>
<text text-anchor="start" x="118" y="-504.2" font-family="DejaVu Sans" font-size="11.00" fill="#334e68">Працює через доступний текстовий,</text>
<text text-anchor="start" x="109" y="-492.2" font-family="DejaVu Sans" font-size="11.00" fill="#334e68">голосовий, відео або інший дозволений</text>
<text text-anchor="start" x="196.5" y="-480.2" font-family="DejaVu Sans" font-size="11.00" fill="#334e68">інтерфейс</text>
</g>
</g>
</svg>
