<?xml version="1.0" encoding="UTF-8" standalone="no"?>
<!DOCTYPE svg PUBLIC "-//W3C//DTD SVG 1.1//EN"
 "http://www.w3.org/Graphics/SVG/1.1/DTD/svg11.dtd">
<!-- Generated by graphviz version 2.42.4 (0)
 -->
<!-- Title: G Pages: 1 -->
<svg width="4769pt" height="1159pt"
 viewBox="0.00 0.00 4769.40 1159.40" xmlns="http://www.w3.org/2000/svg" xmlns:xlink="http://www.w3.org/1999/xlink">
<g id="graph0" class="graph" transform="scale(1 1) rotate(0) translate(25.2 1134.2)">
<title>G</title>
<polygon fill="white" stroke="transparent" points="-25.2,25.2 -25.2,-1134.2 4744.2,-1134.2 4744.2,25.2 -25.2,25.2"/>
<text text-anchor="start" x="96.5" y="-1094.8" font-family="DejaVu Sans" font-weight="bold" font-size="14.00">C2.03 — Контейнери контуру медичного працівника</text>
<text text-anchor="start" x="8" y="-1082.4" font-family="DejaVu Sans" font-size="12.00">Фокус на структурованому огляді, ризиках, протоколах, результатах вимірювань, поясненні та</text>
<text text-anchor="start" x="226.5" y="-1070.4" font-family="DejaVu Sans" font-size="12.00">клінічному підтвердженні.</text>
<g id="clust1" class="cluster">
<title>cluster_scope</title>
<path fill="white" stroke="#0a6ebd" stroke-width="2.2" d="M551,-400C551,-400 4699,-400 4699,-400 4705,-400 4711,-406 4711,-412 4711,-412 4711,-1043 4711,-1043 4711,-1049 4705,-1055 4699,-1055 4699,-1055 551,-1055 551,-1055 545,-1055 539,-1049 539,-1043 539,-1043 539,-412 539,-412 539,-406 545,-400 551,-400"/>
<text text-anchor="start" x="547" y="-1040.8" font-family="DejaVu Sans" font-weight="bold" font-size="14.00">Платформа реалізації психіатричних сценаріїв та алгоритмів</text>
</g>
<!-- n_384146de0c5d -->
<g id="node1" class="node">
<title>n_384146de0c5d</title>
<path fill="#f4f7fa" stroke="#486581" stroke-width="1.5" d="M1268,-618C1268,-618 1058,-618 1058,-618 1052,-618 1046,-612 1046,-606 1046,-606 1046,-594 1046,-594 1046,-588 1052,-582 1058,-582 1058,-582 1268,-582 1268,-582 1274,-582 1280,-588 1280,-594 1280,-594 1280,-606 1280,-606 1280,-612 1274,-618 1268,-618"/>
<text text-anchor="start" x="1109.5" y="-602.4" font-family="DejaVu Sans" font-weight="bold" font-size="12.00" fill="#18324a">API&#45;шлюз і BFF</text>
<text text-anchor="start" x="1056" y="-592" font-family="DejaVu Sans" font-size="10.00" fill="#18324a">[Контейнер · Reverse proxy / API gateway]</text>
</g>
<!-- n_5f5685eeff97 -->
<g id="node2" class="node">
<title>n_5f5685eeff97</title>
<path fill="#4a5568" stroke="#486581" stroke-width="1.5" d="M4122.5,-656C4122.5,-656 3900.5,-656 3900.5,-656 3894.5,-656 3888.5,-650 3888.5,-644 3888.5,-644 3888.5,-622 3888.5,-622 3888.5,-616 3894.5,-610 3900.5,-610 3900.5,-610 4122.5,-610 4122.5,-610 4128.5,-610 4134.5,-616 4134.5,-622 4134.5,-622 4134.5,-644 4134.5,-644 4134.5,-650 4128.5,-656 4122.5,-656"/>
<text text-anchor="start" x="3953.5" y="-641.4" font-family="DejaVu Sans" font-weight="bold" font-size="12.00" fill="#ffffff">Сервіс аудиту та</text>
<text text-anchor="start" x="3946" y="-629.4" font-family="DejaVu Sans" font-weight="bold" font-size="12.00" fill="#ffffff">спостережуваності</text>
<text text-anchor="start" x="3898.5" y="-619" font-family="DejaVu Sans" font-size="10.00" fill="#ffffff">[Контейнер · Audit and observability service]</text>
</g>
<!-- n_384146de0c5d&#45;&gt;n_5f5685eeff97 -->
<g id="edge12" class="edge">
<title>n_384146de0c5d&#45;&gt;n_5f5685eeff97</title>
<path fill="none" stroke="#486581" stroke-width="1.4" d="M1238.22,-581.93C1276.8,-572.54 1316,-563 1316,-563 1316,-563 2430,-471 2430,-471 2430,-471 2716,-460 2716,-460 2716,-460 2968,-460 2968,-460 2968,-460 3004,-472 3004,-472 3004,-472 3837,-577 3837,-577 3837,-577 3885.75,-592.73 3931.56,-607.52"/>
<polygon fill="#486581" stroke="#486581" stroke-width="1.4" points="3930.71,-610.19 3939.18,-609.98 3932.43,-604.86 3930.71,-610.19"/>
<text text-anchor="start" x="2434.5" y="-486.2" font-family="DejaVu Sans" font-size="11.00" fill="#334e68">Реєструє доступ і результат оброблення</text>
<text text-anchor="start" x="2534" y="-474.2" font-family="DejaVu Sans" font-size="11.00" fill="#334e68">запиту</text>
</g>
<!-- n_c210e7db8afd -->
<g id="node4" class="node">
<title>n_c210e7db8afd</title>
<path fill="#2b6cb0" stroke="#486581" stroke-width="1.5" d="M2382,-610C2382,-610 2154,-610 2154,-610 2148,-610 2142,-604 2142,-598 2142,-598 2142,-576 2142,-576 2142,-570 2148,-564 2154,-564 2154,-564 2382,-564 2382,-564 2388,-564 2394,-570 2394,-576 2394,-576 2394,-598 2394,-598 2394,-604 2388,-610 2382,-610"/>
<text text-anchor="start" x="2173" y="-595.4" font-family="DejaVu Sans" font-weight="bold" font-size="12.00" fill="#ffffff">Сервіс підтримки клінічних</text>
<text text-anchor="start" x="2243.5" y="-583.4" font-family="DejaVu Sans" font-weight="bold" font-size="12.00" fill="#ffffff">рішень</text>
<text text-anchor="start" x="2152" y="-573" font-family="DejaVu Sans" font-size="10.00" fill="#ffffff">[Контейнер · Clinical decision support service]</text>
</g>
<!-- n_384146de0c5d&#45;&gt;n_c210e7db8afd -->
<g id="edge8" class="edge">
<title>n_384146de0c5d&#45;&gt;n_c210e7db8afd</title>
<path fill="none" stroke="#486581" stroke-width="1.4" d="M1280.22,-598.63C1486.49,-596.2 1915.35,-591.14 2133.43,-588.57"/>
<polygon fill="#486581" stroke="#486581" stroke-width="1.4" points="2133.77,-591.37 2141.74,-588.48 2133.71,-585.77 2133.77,-591.37"/>
<text text-anchor="start" x="1638.5" y="-609.2" font-family="DejaVu Sans" font-size="11.00" fill="#334e68">Передає запити на клінічне</text>
<text text-anchor="start" x="1645" y="-597.2" font-family="DejaVu Sans" font-size="11.00" fill="#334e68">узагальнення й перегляд</text>
</g>
<!-- n_dcb3f876e224 -->
<g id="node7" class="node">
<title>n_dcb3f876e224</title>
<path fill="#f4f7fa" stroke="#486581" stroke-width="1.5" d="M3536,-1024C3536,-1024 3296,-1024 3296,-1024 3290,-1024 3284,-1018 3284,-1012 3284,-1012 3284,-990 3284,-990 3284,-984 3290,-978 3296,-978 3296,-978 3536,-978 3536,-978 3542,-978 3548,-984 3548,-990 3548,-990 3548,-1012 3548,-1012 3548,-1018 3542,-1024 3536,-1024"/>
<text text-anchor="start" x="3316.5" y="-1009.4" font-family="DejaVu Sans" font-weight="bold" font-size="12.00" fill="#18324a">Сервіс ідентичності, доступу</text>
<text text-anchor="start" x="3390.5" y="-997.4" font-family="DejaVu Sans" font-weight="bold" font-size="12.00" fill="#18324a">та згод</text>
<text text-anchor="start" x="3294" y="-987" font-family="DejaVu Sans" font-size="10.00" fill="#18324a">[Контейнер · OIDC, RBAC/ABAC, consent service]</text>
</g>
<!-- n_384146de0c5d&#45;&gt;n_dcb3f876e224 -->
<g id="edge6" class="edge">
<title>n_384146de0c5d&#45;&gt;n_dcb3f876e224</title>
<path fill="none" stroke="#486581" stroke-width="1.4" d="M1184.5,-618.21C1225.99,-655.06 1316,-735 1316,-735 1316,-735 1589,-835 1589,-835 1589,-835 2716,-944 2716,-944 2716,-944 3071.96,-973.03 3275.84,-989.65"/>
<polygon fill="#486581" stroke="#486581" stroke-width="1.4" points="3275.73,-992.45 3283.93,-990.31 3276.19,-986.87 3275.73,-992.45"/>
<text text-anchor="start" x="2147.5" y="-915.2" font-family="DejaVu Sans" font-size="11.00" fill="#334e68">Перевіряє сесію, повноваження та згоду</text>
</g>
<!-- n_b10c10dbc143 -->
<g id="node8" class="node">
<title>n_b10c10dbc143</title>
<path fill="#3b5bdb" stroke="#486581" stroke-width="1.5" d="M3542,-444C3542,-444 3290,-444 3290,-444 3284,-444 3278,-438 3278,-432 3278,-432 3278,-420 3278,-420 3278,-414 3284,-408 3290,-408 3290,-408 3542,-408 3542,-408 3548,-408 3554,-414 3554,-420 3554,-420 3554,-432 3554,-432 3554,-438 3548,-444 3542,-444"/>
<text text-anchor="start" x="3345" y="-428.4" font-family="DejaVu Sans" font-weight="bold" font-size="12.00" fill="#ffffff">Інтеграційний шлюз</text>
<text text-anchor="start" x="3288" y="-418" font-family="DejaVu Sans" font-size="10.00" fill="#ffffff">[Контейнер · FHIR/DICOM/REST integration service]</text>
</g>
<!-- n_384146de0c5d&#45;&gt;n_b10c10dbc143 -->
<g id="edge11" class="edge">
<title>n_384146de0c5d&#45;&gt;n_b10c10dbc143</title>
<path fill="none" stroke="#486581" stroke-width="1.4" d="M1188.76,-581.76C1231.83,-550.02 1316,-488 1316,-488 1316,-488 2430,-424 2430,-424 2430,-424 2680,-424 2680,-424 2680,-424 3055.17,-425.02 3269.43,-425.6"/>
<polygon fill="#486581" stroke="#486581" stroke-width="1.4" points="3269.61,-428.4 3277.61,-425.63 3269.62,-422.8 3269.61,-428.4"/>
<text text-anchor="start" x="2161" y="-455.2" font-family="DejaVu Sans" font-size="11.00" fill="#334e68">Передає контрольовані інтеграційні</text>
<text text-anchor="start" x="2242" y="-443.2" font-family="DejaVu Sans" font-size="11.00" fill="#334e68">команди</text>
</g>
<!-- n_a57f04482dc5 -->
<g id="node10" class="node">
<title>n_a57f04482dc5</title>
<path fill="#0f766e" stroke="#c92a2a" stroke-width="3" d="M2373,-831C2373,-831 2163,-831 2163,-831 2157,-831 2151,-825 2151,-819 2151,-819 2151,-797 2151,-797 2151,-791 2157,-785 2163,-785 2163,-785 2373,-785 2373,-785 2379,-785 2385,-791 2385,-797 2385,-797 2385,-819 2385,-819 2385,-825 2379,-831 2373,-831"/>
<text text-anchor="start" x="2181" y="-816.4" font-family="DejaVu Sans" font-weight="bold" font-size="12.00" fill="#ffffff">Сервіс мультимодальних</text>
<text text-anchor="start" x="2227" y="-804.4" font-family="DejaVu Sans" font-weight="bold" font-size="12.00" fill="#ffffff">вимірювань</text>
<text text-anchor="start" x="2161" y="-794" font-family="DejaVu Sans" font-size="10.00" fill="#ffffff">[Контейнер · Signal and media processing]</text>
</g>
<!-- n_384146de0c5d&#45;&gt;n_a57f04482dc5 -->
<g id="edge9" class="edge">
<title>n_384146de0c5d&#45;&gt;n_a57f04482dc5</title>
<path fill="none" stroke="#486581" stroke-width="1.4" d="M1190.13,-618.05C1233.59,-648.07 1316,-705 1316,-705 1316,-705 1889,-810 1889,-810 1889,-810 2106,-810 2106,-810 2106,-810 2121.44,-809.81 2142.75,-809.54"/>
<polygon fill="#486581" stroke="#486581" stroke-width="1.4" points="2142.88,-812.34 2150.85,-809.44 2142.81,-806.74 2142.88,-812.34"/>
<text text-anchor="start" x="1609" y="-818.2" font-family="DejaVu Sans" font-size="11.00" fill="#334e68">Передає метадані та керовані потоки</text>
<text text-anchor="start" x="1686" y="-806.2" font-family="DejaVu Sans" font-size="11.00" fill="#334e68">вимірювань</text>
</g>
<!-- n_78e6a86e3609 -->
<g id="node12" class="node">
<title>n_78e6a86e3609</title>
<path fill="#2b6cb0" stroke="#c92a2a" stroke-width="3" d="M1841,-731C1841,-731 1601,-731 1601,-731 1595,-731 1589,-725 1589,-719 1589,-719 1589,-697 1589,-697 1589,-691 1595,-685 1601,-685 1601,-685 1841,-685 1841,-685 1847,-685 1853,-691 1853,-697 1853,-697 1853,-719 1853,-719 1853,-725 1847,-731 1841,-731"/>
<text text-anchor="start" x="1642" y="-716.4" font-family="DejaVu Sans" font-weight="bold" font-size="12.00" fill="#ffffff">Детермінований рушій</text>
<text text-anchor="start" x="1689" y="-704.4" font-family="DejaVu Sans" font-weight="bold" font-size="12.00" fill="#ffffff">сценаріїв</text>
<text text-anchor="start" x="1599" y="-694" font-family="DejaVu Sans" font-size="10.00" fill="#ffffff">[Контейнер · Rules engine / finite&#45;state machine]</text>
</g>
<!-- n_384146de0c5d&#45;&gt;n_78e6a86e3609 -->
<g id="edge7" class="edge">
<title>n_384146de0c5d&#45;&gt;n_78e6a86e3609</title>
<path fill="none" stroke="#486581" stroke-width="1.4" d="M1256.75,-618.02C1348.97,-635.93 1491.1,-663.54 1593.61,-683.45"/>
<polygon fill="#486581" stroke="#486581" stroke-width="1.4" points="1593.15,-686.21 1601.54,-684.99 1594.22,-680.72 1593.15,-686.21"/>
<text text-anchor="start" x="1316" y="-688.2" font-family="DejaVu Sans" font-size="11.00" fill="#334e68">Передає типізовані команди виконання</text>
<text text-anchor="start" x="1407.5" y="-676.2" font-family="DejaVu Sans" font-size="11.00" fill="#334e68">сценарію</text>
</g>
<!-- n_eb4c5110ae64 -->
<g id="node13" class="node">
<title>n_eb4c5110ae64</title>
<path fill="#b7791f" stroke="#486581" stroke-width="1.5" d="M2941,-522C2941,-522 2743,-522 2743,-522 2737,-522 2731,-516 2731,-510 2731,-510 2731,-488 2731,-488 2731,-482 2737,-476 2743,-476 2743,-476 2941,-476 2941,-476 2947,-476 2953,-482 2953,-488 2953,-488 2953,-510 2953,-510 2953,-516 2947,-522 2941,-522"/>
<text text-anchor="start" x="2741" y="-507.4" font-family="DejaVu Sans" font-weight="bold" font-size="12.00" fill="#ffffff">Сервіс завдань, нагадувань і</text>
<text text-anchor="start" x="2807" y="-495.4" font-family="DejaVu Sans" font-weight="bold" font-size="12.00" fill="#ffffff">ескалацій</text>
<text text-anchor="start" x="2757.5" y="-485" font-family="DejaVu Sans" font-size="10.00" fill="#ffffff">[Контейнер · Workflow scheduler]</text>
</g>
<!-- n_384146de0c5d&#45;&gt;n_eb4c5110ae64 -->
<g id="edge10" class="edge">
<title>n_384146de0c5d&#45;&gt;n_eb4c5110ae64</title>
<path fill="none" stroke="#486581" stroke-width="1.4" d="M1280.36,-590.05C1300.97,-588.29 1316,-587 1316,-587 1316,-587 2430,-510 2430,-510 2430,-510 2601.16,-505.42 2722.57,-502.17"/>
<polygon fill="#486581" stroke="#486581" stroke-width="1.4" points="2722.94,-504.96 2730.86,-501.95 2722.79,-499.36 2722.94,-504.96"/>
<text text-anchor="start" x="1900" y="-561.2" font-family="DejaVu Sans" font-size="11.00" fill="#334e68">Передає команди щодо завдань,</text>
<text text-anchor="start" x="1937.5" y="-549.2" font-family="DejaVu Sans" font-size="11.00" fill="#334e68">нагадувань і візитів</text>
</g>
<!-- n_e37cdb3e9f92 -->
<g id="node3" class="node">
<title>n_e37cdb3e9f92</title>
<path fill="#edf2f7" stroke="#486581" stroke-width="1.5" d="M4703,-652.02C4703,-654.36 4644.28,-656.25 4572,-656.25 4499.72,-656.25 4441,-654.36 4441,-652.02 4441,-652.02 4441,-613.98 4441,-613.98 4441,-611.64 4499.72,-609.75 4572,-609.75 4644.28,-609.75 4703,-611.64 4703,-613.98 4703,-613.98 4703,-652.02 4703,-652.02"/>
<path fill="none" stroke="#486581" stroke-width="1.5" d="M4703,-652.02C4703,-649.69 4644.28,-647.8 4572,-647.8 4499.72,-647.8 4441,-649.69 4441,-652.02"/>
<text text-anchor="start" x="4481.5" y="-635.4" font-family="DejaVu Sans" font-weight="bold" font-size="12.00" fill="#1a202c">Незмінне сховище аудиту</text>
<text text-anchor="start" x="4451" y="-625" font-family="DejaVu Sans" font-size="10.00" fill="#1a202c">[Сховище даних · WORM / append&#45;only storage]</text>
</g>
<!-- n_5f5685eeff97&#45;&gt;n_e37cdb3e9f92 -->
<g id="edge39" class="edge">
<title>n_5f5685eeff97&#45;&gt;n_e37cdb3e9f92</title>
<path fill="none" stroke="#486581" stroke-width="1.4" d="M4134.72,-633C4222.6,-633 4341.22,-633 4432.59,-633"/>
<polygon fill="#486581" stroke="#486581" stroke-width="1.4" points="4432.78,-635.8 4440.78,-633 4432.78,-630.2 4432.78,-635.8"/>
<text text-anchor="start" x="4186" y="-648.2" font-family="DejaVu Sans" font-size="11.00" fill="#334e68">Записує незмінні події та контрольні</text>
<text text-anchor="start" x="4281" y="-636.2" font-family="DejaVu Sans" font-size="11.00" fill="#334e68">суми</text>
</g>
<!-- n_c210e7db8afd&#45;&gt;n_5f5685eeff97 -->
<g id="edge25" class="edge">
<title>n_c210e7db8afd&#45;&gt;n_5f5685eeff97</title>
<path fill="none" stroke="#486581" stroke-width="1.4" d="M2394.27,-609.56C2415.05,-613.31 2430,-616 2430,-616 2430,-616 3501.86,-627.53 3880.19,-631.6"/>
<polygon fill="#486581" stroke="#486581" stroke-width="1.4" points="3880.42,-634.4 3888.45,-631.69 3880.48,-628.8 3880.42,-634.4"/>
<text text-anchor="start" x="3006" y="-639.2" font-family="DejaVu Sans" font-size="11.00" fill="#334e68">Реєструє правила, джерела, пояснення</text>
<text text-anchor="start" x="3043" y="-627.2" font-family="DejaVu Sans" font-size="11.00" fill="#334e68">та клінічне підтвердження</text>
</g>
<!-- n_40b119007c9f -->
<g id="node5" class="node">
<title>n_40b119007c9f</title>
<path fill="#edf2f7" stroke="#486581" stroke-width="1.5" d="M4150,-896.02C4150,-898.36 4087.92,-900.25 4011.5,-900.25 3935.08,-900.25 3873,-898.36 3873,-896.02 3873,-896.02 3873,-857.98 3873,-857.98 3873,-855.64 3935.08,-853.75 4011.5,-853.75 4087.92,-853.75 4150,-855.64 4150,-857.98 4150,-857.98 4150,-896.02 4150,-896.02"/>
<path fill="none" stroke="#486581" stroke-width="1.5" d="M4150,-896.02C4150,-893.69 4087.92,-891.8 4011.5,-891.8 3935.08,-891.8 3873,-893.69 3873,-896.02"/>
<text text-anchor="start" x="3949.5" y="-879.4" font-family="DejaVu Sans" font-weight="bold" font-size="12.00" fill="#1a202c">Клінічне сховище</text>
<text text-anchor="start" x="3883" y="-869" font-family="DejaVu Sans" font-size="10.00" fill="#1a202c">[Сховище даних · FHIR&#45;oriented clinical repository]</text>
</g>
<!-- n_c210e7db8afd&#45;&gt;n_40b119007c9f -->
<g id="edge23" class="edge">
<title>n_c210e7db8afd&#45;&gt;n_40b119007c9f</title>
<path fill="none" stroke="#486581" stroke-width="1.4" d="M2341.32,-610.13C2467.83,-650.61 2716,-730 2716,-730 2716,-730 3242,-748 3242,-748 3242,-748 3652.34,-816.88 3873.33,-853.98"/>
<polygon fill="#486581" stroke="#486581" stroke-width="1.4" points="3873.08,-856.77 3881.44,-855.34 3874.01,-851.25 3873.08,-856.77"/>
<text text-anchor="start" x="3004" y="-763.2" font-family="DejaVu Sans" font-size="11.00" fill="#334e68">Читає результати й зберігає проєкти та</text>
<text text-anchor="start" x="3051.5" y="-751.2" font-family="DejaVu Sans" font-size="11.00" fill="#334e68">підтверджені траєкторії</text>
</g>
<!-- n_609849034d86 -->
<g id="node9" class="node">
<title>n_609849034d86</title>
<path fill="#edf2f7" stroke="#486581" stroke-width="1.5" d="M2968,-596.02C2968,-598.36 2911.52,-600.25 2842,-600.25 2772.48,-600.25 2716,-598.36 2716,-596.02 2716,-596.02 2716,-557.98 2716,-557.98 2716,-555.64 2772.48,-553.75 2842,-553.75 2911.52,-553.75 2968,-555.64 2968,-557.98 2968,-557.98 2968,-596.02 2968,-596.02"/>
<path fill="none" stroke="#486581" stroke-width="1.5" d="M2968,-596.02C2968,-593.69 2911.52,-591.8 2842,-591.8 2772.48,-591.8 2716,-593.69 2716,-596.02"/>
<text text-anchor="start" x="2741" y="-579.4" font-family="DejaVu Sans" font-weight="bold" font-size="12.00" fill="#1a202c">База знань та індекс пошуку</text>
<text text-anchor="start" x="2726" y="-569" font-family="DejaVu Sans" font-size="10.00" fill="#1a202c">[Сховище даних · Document and vector store]</text>
</g>
<!-- n_c210e7db8afd&#45;&gt;n_609849034d86 -->
<g id="edge22" class="edge">
<title>n_c210e7db8afd&#45;&gt;n_609849034d86</title>
<path fill="none" stroke="#486581" stroke-width="1.4" d="M2394.17,-584.81C2486.82,-583.19 2612.84,-580.99 2707.42,-579.34"/>
<polygon fill="#486581" stroke="#486581" stroke-width="1.4" points="2707.66,-582.13 2715.61,-579.19 2707.56,-576.53 2707.66,-582.13"/>
<text text-anchor="start" x="2440.5" y="-599.2" font-family="DejaVu Sans" font-size="11.00" fill="#334e68">Виконує пошук у локально дозволеній</text>
<text text-anchor="start" x="2524.5" y="-587.2" font-family="DejaVu Sans" font-size="11.00" fill="#334e68">базі знань</text>
</g>
<!-- n_c210e7db8afd&#45;&gt;n_eb4c5110ae64 -->
<g id="edge24" class="edge">
<title>n_c210e7db8afd&#45;&gt;n_eb4c5110ae64</title>
<path fill="none" stroke="#486581" stroke-width="1.4" d="M2361.72,-563.96C2397.51,-555.07 2430,-547 2430,-547 2430,-547 2601.16,-527.01 2722.57,-512.83"/>
<polygon fill="#486581" stroke="#486581" stroke-width="1.4" points="2723.24,-515.57 2730.86,-511.86 2722.59,-510.01 2723.24,-515.57"/>
<text text-anchor="start" x="2430" y="-562.2" font-family="DejaVu Sans" font-size="11.00" fill="#334e68">Передає погоджений або безпечний план</text>
<text text-anchor="start" x="2524" y="-550.2" font-family="DejaVu Sans" font-size="11.00" fill="#334e68">супроводу</text>
</g>
<!-- n_0a99d320f3b9 -->
<g id="node20" class="node">
<title>n_0a99d320f3b9</title>
<path fill="#e9eef4" stroke="#486581" stroke-width="1.5" d="M2917,-376C2917,-376 2767,-376 2767,-376 2761,-376 2755,-370 2755,-364 2755,-364 2755,-342 2755,-342 2755,-336 2761,-330 2767,-330 2767,-330 2917,-330 2917,-330 2923,-330 2929,-336 2929,-342 2929,-342 2929,-364 2929,-364 2929,-370 2923,-376 2917,-376"/>
<text text-anchor="start" x="2765" y="-361.4" font-family="DejaVu Sans" font-weight="bold" font-size="12.00" fill="#263238">Репозиторій клінічних</text>
<text text-anchor="start" x="2777.5" y="-349.4" font-family="DejaVu Sans" font-weight="bold" font-size="12.00" fill="#263238">протоколів і знань</text>
<text text-anchor="start" x="2786.5" y="-339" font-family="DejaVu Sans" font-size="10.00" fill="#263238">[Програмна система]</text>
</g>
<!-- n_c210e7db8afd&#45;&gt;n_0a99d320f3b9 -->
<g id="edge20" class="edge">
<title>n_c210e7db8afd&#45;&gt;n_0a99d320f3b9</title>
<path fill="none" stroke="#486581" stroke-width="1.4" d="M2294.3,-563.73C2330.82,-530.12 2394,-472 2394,-472 2394,-472 2430,-400 2430,-400 2430,-400 2625.25,-377.67 2746.6,-363.8"/>
<polygon fill="#486581" stroke="#486581" stroke-width="1.4" points="2747.21,-366.54 2754.84,-362.85 2746.57,-360.98 2747.21,-366.54"/>
<text text-anchor="start" x="2449.5" y="-415.2" font-family="DejaVu Sans" font-size="11.00" fill="#334e68">Отримує чинні протоколи та умови</text>
<text text-anchor="start" x="2514.5" y="-403.2" font-family="DejaVu Sans" font-size="11.00" fill="#334e68">застосування</text>
</g>
<!-- n_09b340c80e8a -->
<g id="node24" class="node">
<title>n_09b340c80e8a</title>
<path fill="#e9eef4" stroke="#486581" stroke-width="1.5" d="M4078,-110C4078,-110 3945,-110 3945,-110 3939,-110 3933,-104 3933,-98 3933,-98 3933,-86 3933,-86 3933,-80 3939,-74 3945,-74 3945,-74 4078,-74 4078,-74 4084,-74 4090,-80 4090,-86 4090,-86 4090,-98 4090,-98 4090,-104 4084,-110 4078,-110"/>
<text text-anchor="start" x="3943" y="-94.4" font-family="DejaVu Sans" font-weight="bold" font-size="12.00" fill="#263238">Сервіс термінологій</text>
<text text-anchor="start" x="3956" y="-84" font-family="DejaVu Sans" font-size="10.00" fill="#263238">[Програмна система]</text>
</g>
<!-- n_c210e7db8afd&#45;&gt;n_09b340c80e8a -->
<g id="edge21" class="edge">
<title>n_c210e7db8afd&#45;&gt;n_09b340c80e8a</title>
<path fill="none" stroke="#486581" stroke-width="1.4" d="M2294.3,-563.73C2330.82,-530.12 2394,-472 2394,-472 2394,-472 2430,-365 2430,-365 2430,-365 3590,-122 3590,-122 3590,-122 3801.55,-106.91 3924.55,-98.13"/>
<polygon fill="#486581" stroke="#486581" stroke-width="1.4" points="3925.1,-100.9 3932.88,-97.54 3924.7,-95.31 3925.1,-100.9"/>
<text text-anchor="start" x="3045" y="-259.2" font-family="DejaVu Sans" font-size="11.00" fill="#334e68">Перевіряє коди та клінічні</text>
<text text-anchor="start" x="3083.5" y="-247.2" font-family="DejaVu Sans" font-size="11.00" fill="#334e68">відповідності</text>
</g>
<!-- n_a8676803ace0 -->
<g id="node6" class="node">
<title>n_a8676803ace0</title>
<path fill="#6c4ab6" stroke="#486581" stroke-width="1.5" d="M771,-618C771,-618 559,-618 559,-618 553,-618 547,-612 547,-606 547,-606 547,-594 547,-594 547,-588 553,-582 559,-582 559,-582 771,-582 771,-582 777,-582 783,-588 783,-594 783,-594 783,-606 783,-606 783,-612 777,-618 771,-618"/>
<text text-anchor="start" x="557" y="-602.4" font-family="DejaVu Sans" font-weight="bold" font-size="12.00" fill="#ffffff">Кабінет медичного працівника</text>
<text text-anchor="start" x="589" y="-592" font-family="DejaVu Sans" font-size="10.00" fill="#ffffff">[Контейнер · Web application]</text>
</g>
<!-- n_a8676803ace0&#45;&gt;n_384146de0c5d -->
<g id="edge5" class="edge">
<title>n_a8676803ace0&#45;&gt;n_384146de0c5d</title>
<path fill="none" stroke="#486581" stroke-width="1.4" d="M783.23,-600C859.65,-600 959.26,-600 1037.16,-600"/>
<polygon fill="#486581" stroke="#486581" stroke-width="1.4" points="1037.58,-602.8 1045.58,-600 1037.58,-597.2 1037.58,-602.8"/>
<text text-anchor="start" x="819" y="-603.2" font-family="DejaVu Sans" font-size="11.00" fill="#334e68">Викликає захищене клінічне API</text>
</g>
<!-- n_dcb3f876e224&#45;&gt;n_5f5685eeff97 -->
<g id="edge14" class="edge">
<title>n_dcb3f876e224&#45;&gt;n_5f5685eeff97</title>
<path fill="none" stroke="#486581" stroke-width="1.4" d="M3467.5,-977.94C3518.57,-954.62 3590,-922 3590,-922 3590,-922 3837,-825 3837,-825 3837,-825 3935.67,-715.8 3984.19,-662.11"/>
<polygon fill="#486581" stroke="#486581" stroke-width="1.4" points="3986.29,-663.97 3989.57,-656.16 3982.13,-660.22 3986.29,-663.97"/>
<text text-anchor="start" x="3599" y="-937.2" font-family="DejaVu Sans" font-size="11.00" fill="#334e68">Реєструє рішення авторизації та зміни</text>
<text text-anchor="start" x="3700" y="-925.2" font-family="DejaVu Sans" font-size="11.00" fill="#334e68">згод</text>
</g>
<!-- n_dcb3f876e224&#45;&gt;n_40b119007c9f -->
<g id="edge13" class="edge">
<title>n_dcb3f876e224&#45;&gt;n_40b119007c9f</title>
<path fill="none" stroke="#486581" stroke-width="1.4" d="M3548.16,-986.32C3671.4,-972.53 3837,-954 3837,-954 3837,-954 3900.25,-925.93 3950.37,-903.69"/>
<polygon fill="#486581" stroke="#486581" stroke-width="1.4" points="3951.8,-906.12 3957.97,-900.31 3949.53,-901 3951.8,-906.12"/>
<text text-anchor="start" x="3612.5" y="-995.2" font-family="DejaVu Sans" font-size="11.00" fill="#334e68">Зберігає версійовані записи згод і</text>
<text text-anchor="start" x="3680" y="-983.2" font-family="DejaVu Sans" font-size="11.00" fill="#334e68">відкликань</text>
</g>
<!-- n_b10c10dbc143&#45;&gt;n_5f5685eeff97 -->
<g id="edge38" class="edge">
<title>n_b10c10dbc143&#45;&gt;n_5f5685eeff97</title>
<path fill="none" stroke="#486581" stroke-width="1.4" d="M3554.23,-431.88C3676.76,-437.13 3837,-444 3837,-444 3837,-444 3934.78,-550.52 3983.53,-603.62"/>
<polygon fill="#486581" stroke="#486581" stroke-width="1.4" points="3981.75,-605.83 3989.23,-609.82 3985.88,-602.04 3981.75,-605.83"/>
<text text-anchor="start" x="3607" y="-459.2" font-family="DejaVu Sans" font-size="11.00" fill="#334e68">Реєструє мету, згоду, склад даних і</text>
<text text-anchor="start" x="3652.5" y="-447.2" font-family="DejaVu Sans" font-size="11.00" fill="#334e68">зовнішній результат</text>
</g>
<!-- n_b10c10dbc143&#45;&gt;n_40b119007c9f -->
<g id="edge37" class="edge">
<title>n_b10c10dbc143&#45;&gt;n_40b119007c9f</title>
<path fill="none" stroke="#486581" stroke-width="1.4" d="M3443.74,-444.15C3483.61,-471.22 3554,-519 3554,-519 3554,-519 3837,-726 3837,-726 3837,-726 3927.22,-804.52 3977.54,-848.32"/>
<polygon fill="#486581" stroke="#486581" stroke-width="1.4" points="3975.9,-850.6 3983.77,-853.74 3979.57,-846.37 3975.9,-850.6"/>
<text text-anchor="start" x="3615.5" y="-741.2" font-family="DejaVu Sans" font-size="11.00" fill="#334e68">Читає або записує нормалізовані</text>
<text text-anchor="start" x="3663" y="-729.2" font-family="DejaVu Sans" font-size="11.00" fill="#334e68">інтеграційні дані</text>
</g>
<!-- n_3be1d182bd81 -->
<g id="node16" class="node">
<title>n_3be1d182bd81</title>
<path fill="#e9eef4" stroke="#486581" stroke-width="1.5" d="M4067.5,-392C4067.5,-392 3955.5,-392 3955.5,-392 3949.5,-392 3943.5,-386 3943.5,-380 3943.5,-380 3943.5,-368 3943.5,-368 3943.5,-362 3949.5,-356 3955.5,-356 3955.5,-356 4067.5,-356 4067.5,-356 4073.5,-356 4079.5,-362 4079.5,-368 4079.5,-368 4079.5,-380 4079.5,-380 4079.5,-386 4073.5,-392 4067.5,-392"/>
<text text-anchor="start" x="3953.5" y="-376.4" font-family="DejaVu Sans" font-weight="bold" font-size="12.00" fill="#263238">МІС / EHR / ЕСОЗ</text>
<text text-anchor="start" x="3956" y="-366" font-family="DejaVu Sans" font-size="10.00" fill="#263238">[Програмна система]</text>
</g>
<!-- n_b10c10dbc143&#45;&gt;n_3be1d182bd81 -->
<g id="edge32" class="edge">
<title>n_b10c10dbc143&#45;&gt;n_3be1d182bd81</title>
<path fill="none" stroke="#486581" stroke-width="1.4" d="M3483.39,-407.96C3532.18,-394.71 3590,-379 3590,-379 3590,-379 3814.26,-376.33 3935.23,-374.89"/>
<polygon fill="#486581" stroke="#486581" stroke-width="1.4" points="3935.44,-377.69 3943.41,-374.8 3935.37,-372.09 3935.44,-377.69"/>
<text text-anchor="start" x="3590" y="-394.2" font-family="DejaVu Sans" font-size="11.00" fill="#334e68">Обмінюється профільованими клінічними</text>
<text text-anchor="start" x="3682.5" y="-382.2" font-family="DejaVu Sans" font-size="11.00" fill="#334e68">ресурсами</text>
</g>
<!-- n_3145c0474e62 -->
<g id="node17" class="node">
<title>n_3145c0474e62</title>
<path fill="#c92a2a" stroke="#486581" stroke-width="1.5" d="M4104.5,-324C4104.5,-324 3918.5,-324 3918.5,-324 3912.5,-324 3906.5,-318 3906.5,-312 3906.5,-312 3906.5,-300 3906.5,-300 3906.5,-294 3912.5,-288 3918.5,-288 3918.5,-288 4104.5,-288 4104.5,-288 4110.5,-288 4116.5,-294 4116.5,-300 4116.5,-300 4116.5,-312 4116.5,-312 4116.5,-318 4110.5,-324 4104.5,-324"/>
<text text-anchor="start" x="3916.5" y="-308.4" font-family="DejaVu Sans" font-weight="bold" font-size="12.00" fill="#ffffff">Кризова / екстрена служба</text>
<text text-anchor="start" x="3956" y="-298" font-family="DejaVu Sans" font-size="10.00" fill="#ffffff">[Програмна система]</text>
</g>
<!-- n_b10c10dbc143&#45;&gt;n_3145c0474e62 -->
<g id="edge36" class="edge">
<title>n_b10c10dbc143&#45;&gt;n_3145c0474e62</title>
<path fill="none" stroke="#486581" stroke-width="1.4" d="M3455.82,-407.82C3506.83,-383.94 3590,-345 3590,-345 3590,-345 3773.61,-327.97 3898.17,-316.42"/>
<polygon fill="#486581" stroke="#486581" stroke-width="1.4" points="3898.58,-319.19 3906.29,-315.67 3898.06,-313.62 3898.58,-319.19"/>
<text text-anchor="start" x="3623.5" y="-360.2" font-family="DejaVu Sans" font-size="11.00" fill="#334e68">Передає кризову ескалацію за</text>
<text text-anchor="start" x="3642.5" y="-348.2" font-family="DejaVu Sans" font-size="11.00" fill="#334e68">визначеним маршрутом</text>
</g>
<!-- n_b3c512da84fb -->
<g id="node19" class="node">
<title>n_b3c512da84fb</title>
<path fill="#e9eef4" stroke="#486581" stroke-width="1.5" d="M4089.5,-256C4089.5,-256 3933.5,-256 3933.5,-256 3927.5,-256 3921.5,-250 3921.5,-244 3921.5,-244 3921.5,-232 3921.5,-232 3921.5,-226 3927.5,-220 3933.5,-220 3933.5,-220 4089.5,-220 4089.5,-220 4095.5,-220 4101.5,-226 4101.5,-232 4101.5,-232 4101.5,-244 4101.5,-244 4101.5,-250 4095.5,-256 4089.5,-256"/>
<text text-anchor="start" x="3931.5" y="-240.4" font-family="DejaVu Sans" font-weight="bold" font-size="12.00" fill="#263238">PACS / DICOM&#45;сховище</text>
<text text-anchor="start" x="3956" y="-230" font-family="DejaVu Sans" font-size="10.00" fill="#263238">[Програмна система]</text>
</g>
<!-- n_b10c10dbc143&#45;&gt;n_b3c512da84fb -->
<g id="edge34" class="edge">
<title>n_b10c10dbc143&#45;&gt;n_b3c512da84fb</title>
<path fill="none" stroke="#486581" stroke-width="1.4" d="M3440.33,-407.93C3487.55,-371.35 3590,-292 3590,-292 3590,-292 3789.05,-266.44 3913.25,-250.49"/>
<polygon fill="#486581" stroke="#486581" stroke-width="1.4" points="3913.74,-253.25 3921.32,-249.45 3913.03,-247.69 3913.74,-253.25"/>
<text text-anchor="start" x="3608" y="-307.2" font-family="DejaVu Sans" font-size="11.00" fill="#334e68">Отримує або публікує підтримувані</text>
<text text-anchor="start" x="3671" y="-295.2" font-family="DejaVu Sans" font-size="11.00" fill="#334e68">DICOM&#45;об&#39;єкти</text>
</g>
<!-- n_8ef8376f7755 -->
<g id="node23" class="node">
<title>n_8ef8376f7755</title>
<path fill="#e9eef4" stroke="#486581" stroke-width="1.5" d="M4103,-188C4103,-188 3920,-188 3920,-188 3914,-188 3908,-182 3908,-176 3908,-176 3908,-164 3908,-164 3908,-158 3914,-152 3920,-152 3920,-152 4103,-152 4103,-152 4109,-152 4115,-158 4115,-164 4115,-164 4115,-176 4115,-176 4115,-182 4109,-188 4103,-188"/>
<text text-anchor="start" x="3918" y="-172.4" font-family="DejaVu Sans" font-weight="bold" font-size="12.00" fill="#263238">Платформа телемедицини</text>
<text text-anchor="start" x="3956" y="-162" font-family="DejaVu Sans" font-size="10.00" fill="#263238">[Програмна система]</text>
</g>
<!-- n_b10c10dbc143&#45;&gt;n_8ef8376f7755 -->
<g id="edge35" class="edge">
<title>n_b10c10dbc143&#45;&gt;n_8ef8376f7755</title>
<path fill="none" stroke="#486581" stroke-width="1.4" d="M3432.97,-407.91C3475.79,-359.39 3590,-230 3590,-230 3590,-230 3775.2,-203.57 3899.79,-185.8"/>
<polygon fill="#486581" stroke="#486581" stroke-width="1.4" points="3900.38,-188.54 3907.9,-184.64 3899.59,-183 3900.38,-188.54"/>
<text text-anchor="start" x="3628.5" y="-245.2" font-family="DejaVu Sans" font-size="11.00" fill="#334e68">Створює захищені сеанси та</text>
<text text-anchor="start" x="3631.5" y="-233.2" font-family="DejaVu Sans" font-size="11.00" fill="#334e68">короткоживучі запрошення</text>
</g>
<!-- n_b10c10dbc143&#45;&gt;n_09b340c80e8a -->
<g id="edge33" class="edge">
<title>n_b10c10dbc143&#45;&gt;n_09b340c80e8a</title>
<path fill="none" stroke="#486581" stroke-width="1.4" d="M3429.72,-407.69C3469.67,-350.19 3590,-177 3590,-177 3590,-177 3801.97,-134.15 3924.92,-109.3"/>
<polygon fill="#486581" stroke="#486581" stroke-width="1.4" points="3925.6,-112.02 3932.88,-107.69 3924.49,-106.53 3925.6,-112.02"/>
<text text-anchor="start" x="3604.5" y="-180.2" font-family="DejaVu Sans" font-size="11.00" fill="#334e68">Валідує коди й версії класифікаторів</text>
</g>
<!-- n_a57f04482dc5&#45;&gt;n_5f5685eeff97 -->
<g id="edge29" class="edge">
<title>n_a57f04482dc5&#45;&gt;n_5f5685eeff97</title>
<path fill="none" stroke="#486581" stroke-width="1.4" d="M2385.4,-804.65C2643.67,-797.22 3242,-780 3242,-780 3242,-780 3837,-758 3837,-758 3837,-758 3920.44,-697.89 3971.59,-661.03"/>
<polygon fill="#486581" stroke="#486581" stroke-width="1.4" points="3973.42,-663.17 3978.27,-656.22 3970.14,-658.62 3973.42,-663.17"/>
<text text-anchor="start" x="3028" y="-801.2" font-family="DejaVu Sans" font-size="11.00" fill="#334e68">Реєструє ланцюг оброблення та</text>
<text text-anchor="start" x="3069.5" y="-789.2" font-family="DejaVu Sans" font-size="11.00" fill="#334e68">параметри моделі</text>
</g>
<!-- n_a57f04482dc5&#45;&gt;n_40b119007c9f -->
<g id="edge28" class="edge">
<title>n_a57f04482dc5&#45;&gt;n_40b119007c9f</title>
<path fill="none" stroke="#486581" stroke-width="1.4" d="M2333.09,-831.09C2377.99,-847.26 2430,-866 2430,-866 2430,-866 2716,-884 2716,-884 2716,-884 2968,-884 2968,-884 2968,-884 3577.58,-879.91 3864.48,-877.98"/>
<polygon fill="#486581" stroke="#486581" stroke-width="1.4" points="3864.89,-880.78 3872.87,-877.92 3864.85,-875.18 3864.89,-880.78"/>
<text text-anchor="start" x="3020" y="-898.2" font-family="DejaVu Sans" font-size="11.00" fill="#334e68">Зберігає нормалізовані показники,</text>
<text text-anchor="start" x="3043" y="-886.2" font-family="DejaVu Sans" font-size="11.00" fill="#334e68">якість і версію аналізатора</text>
</g>
<!-- n_f9fe6a00e3bb -->
<g id="node11" class="node">
<title>n_f9fe6a00e3bb</title>
<path fill="#ffe3e3" stroke="#486581" stroke-width="1.5" d="M2962.5,-864.02C2962.5,-866.36 2908.49,-868.25 2842,-868.25 2775.51,-868.25 2721.5,-866.36 2721.5,-864.02 2721.5,-864.02 2721.5,-825.98 2721.5,-825.98 2721.5,-823.64 2775.51,-821.75 2842,-821.75 2908.49,-821.75 2962.5,-823.64 2962.5,-825.98 2962.5,-825.98 2962.5,-864.02 2962.5,-864.02"/>
<path fill="none" stroke="#486581" stroke-width="1.5" d="M2962.5,-864.02C2962.5,-861.69 2908.49,-859.8 2842,-859.8 2775.51,-859.8 2721.5,-861.69 2721.5,-864.02"/>
<text text-anchor="start" x="2742.5" y="-847.4" font-family="DejaVu Sans" font-weight="bold" font-size="12.00" fill="#5c1a1a">Захищене об&#39;єктне сховище</text>
<text text-anchor="start" x="2731.5" y="-837" font-family="DejaVu Sans" font-size="10.00" fill="#5c1a1a">[Сховище даних · Encrypted object storage]</text>
</g>
<!-- n_a57f04482dc5&#45;&gt;n_f9fe6a00e3bb -->
<g id="edge27" class="edge">
<title>n_a57f04482dc5&#45;&gt;n_f9fe6a00e3bb</title>
<path fill="none" stroke="#486581" stroke-width="1.4" d="M2385.1,-815.51C2480.22,-821.66 2614.69,-830.36 2712.93,-836.72"/>
<polygon fill="#486581" stroke="#486581" stroke-width="1.4" points="2712.97,-839.52 2721.13,-837.25 2713.33,-833.94 2712.97,-839.52"/>
<text text-anchor="start" x="2444" y="-849.2" font-family="DejaVu Sans" font-size="11.00" fill="#334e68">Зберігає зашифровані сирі об&#39;єкти та</text>
<text text-anchor="start" x="2499.5" y="-837.2" font-family="DejaVu Sans" font-size="11.00" fill="#334e68">похідні артефакти</text>
</g>
<!-- n_fd9938cf1df8 -->
<g id="node15" class="node">
<title>n_fd9938cf1df8</title>
<path fill="#e9eef4" stroke="#486581" stroke-width="1.5" d="M2940.5,-36C2940.5,-36 2743.5,-36 2743.5,-36 2737.5,-36 2731.5,-30 2731.5,-24 2731.5,-24 2731.5,-12 2731.5,-12 2731.5,-6 2737.5,0 2743.5,0 2743.5,0 2940.5,0 2940.5,0 2946.5,0 2952.5,-6 2952.5,-12 2952.5,-12 2952.5,-24 2952.5,-24 2952.5,-30 2946.5,-36 2940.5,-36"/>
<text text-anchor="start" x="2741.5" y="-20.4" font-family="DejaVu Sans" font-weight="bold" font-size="12.00" fill="#263238">Медичні пристрої та сенсори</text>
<text text-anchor="start" x="2786.5" y="-10" font-family="DejaVu Sans" font-size="10.00" fill="#263238">[Програмна система]</text>
</g>
<!-- n_a57f04482dc5&#45;&gt;n_fd9938cf1df8 -->
<g id="edge26" class="edge">
<title>n_a57f04482dc5&#45;&gt;n_fd9938cf1df8</title>
<path fill="none" stroke="#486581" stroke-width="1.4" d="M2297.36,-784.85C2334.24,-754.76 2394,-706 2394,-706 2394,-706 2430,-341 2430,-341 2430,-341 2717.5,-115.06 2811.59,-41.11"/>
<polygon fill="#486581" stroke="#486581" stroke-width="1.4" points="2813.46,-43.2 2818.02,-36.06 2810,-38.8 2813.46,-43.2"/>
<text text-anchor="start" x="2452" y="-356.2" font-family="DejaVu Sans" font-size="11.00" fill="#334e68">Отримує сигнали, медіа й технічні</text>
<text text-anchor="start" x="2528" y="-344.2" font-family="DejaVu Sans" font-size="11.00" fill="#334e68">метадані</text>
</g>
<!-- n_78e6a86e3609&#45;&gt;n_5f5685eeff97 -->
<g id="edge19" class="edge">
<title>n_78e6a86e3609&#45;&gt;n_5f5685eeff97</title>
<path fill="none" stroke="#486581" stroke-width="1.4" d="M1853.16,-706.05C2048.73,-703.14 2394,-698 2394,-698 2394,-698 3495.98,-653.69 3880.23,-638.24"/>
<polygon fill="#486581" stroke="#486581" stroke-width="1.4" points="3880.46,-641.03 3888.34,-637.91 3880.23,-635.44 3880.46,-641.03"/>
<text text-anchor="start" x="2733" y="-699.2" font-family="DejaVu Sans" font-size="11.00" fill="#334e68">Фіксує версію, введення, правило та</text>
<text text-anchor="start" x="2775.5" y="-687.2" font-family="DejaVu Sans" font-size="11.00" fill="#334e68">результат обчислення</text>
</g>
<!-- n_78e6a86e3609&#45;&gt;n_c210e7db8afd -->
<g id="edge16" class="edge">
<title>n_78e6a86e3609&#45;&gt;n_c210e7db8afd</title>
<path fill="none" stroke="#486581" stroke-width="1.4" d="M1779.47,-684.94C1827.78,-665.56 1889,-641 1889,-641 1889,-641 2024.96,-621.58 2133.8,-606.03"/>
<polygon fill="#486581" stroke="#486581" stroke-width="1.4" points="2134.4,-608.77 2141.92,-604.87 2133.6,-603.23 2134.4,-608.77"/>
<text text-anchor="start" x="1889" y="-656.2" font-family="DejaVu Sans" font-size="11.00" fill="#334e68">Передає завершений або проміжний</text>
<text text-anchor="start" x="1896.5" y="-644.2" font-family="DejaVu Sans" font-size="11.00" fill="#334e68">клінічний результат для агрегації</text>
</g>
<!-- n_78e6a86e3609&#45;&gt;n_40b119007c9f -->
<g id="edge15" class="edge">
<title>n_78e6a86e3609&#45;&gt;n_40b119007c9f</title>
<path fill="none" stroke="#486581" stroke-width="1.4" d="M1799.34,-731.02C1827.7,-739.47 1853,-747 1853,-747 1853,-747 1889,-810 1889,-810 1889,-810 2142,-847 2142,-847 2142,-847 2430,-882 2430,-882 2430,-882 3004,-915 3004,-915 3004,-915 3590,-940 3590,-940 3590,-940 3837,-940 3837,-940 3837,-940 3891.03,-920.38 3938.79,-903.04"/>
<polygon fill="#486581" stroke="#486581" stroke-width="1.4" points="3939.82,-905.64 3946.39,-900.28 3937.91,-900.38 3939.82,-905.64"/>
<text text-anchor="start" x="2743.5" y="-927.2" font-family="DejaVu Sans" font-size="11.00" fill="#334e68">Читає та записує відповіді, бали,</text>
<text text-anchor="start" x="2733.5" y="-915.2" font-family="DejaVu Sans" font-size="11.00" fill="#334e68">ознаки й структурований результат</text>
</g>
<!-- n_78e6a86e3609&#45;&gt;n_a57f04482dc5 -->
<g id="edge17" class="edge">
<title>n_78e6a86e3609&#45;&gt;n_a57f04482dc5</title>
<path fill="none" stroke="#486581" stroke-width="1.4" d="M1842.04,-731C1868.59,-736.09 1889,-740 1889,-740 1889,-740 2032.69,-765.85 2142.89,-785.67"/>
<polygon fill="#486581" stroke="#486581" stroke-width="1.4" points="2142.39,-788.43 2150.76,-787.09 2143.38,-782.92 2142.39,-788.43"/>
<text text-anchor="start" x="1896" y="-793.2" font-family="DejaVu Sans" font-size="11.00" fill="#334e68">Запитує передбачене алгоритмом</text>
<text text-anchor="start" x="1959" y="-781.2" font-family="DejaVu Sans" font-size="11.00" fill="#334e68">вимірювання</text>
</g>
<!-- n_78e6a86e3609&#45;&gt;n_eb4c5110ae64 -->
<g id="edge18" class="edge">
<title>n_78e6a86e3609&#45;&gt;n_eb4c5110ae64</title>
<path fill="none" stroke="#486581" stroke-width="1.4" d="M1853.2,-695.4C2115.57,-670.2 2680,-616 2680,-616 2680,-616 2716,-538 2716,-538 2716,-538 2735.66,-531.87 2759.38,-524.47"/>
<polygon fill="#486581" stroke="#486581" stroke-width="1.4" points="2760.4,-527.08 2767.2,-522.02 2758.73,-521.73 2760.4,-527.08"/>
<text text-anchor="start" x="2148" y="-681.2" font-family="DejaVu Sans" font-size="11.00" fill="#334e68">Створює контрольні завдання та строки</text>
<text text-anchor="start" x="2247.5" y="-669.2" font-family="DejaVu Sans" font-size="11.00" fill="#334e68">реакції</text>
</g>
<!-- n_eb4c5110ae64&#45;&gt;n_5f5685eeff97 -->
<g id="edge31" class="edge">
<title>n_eb4c5110ae64&#45;&gt;n_5f5685eeff97</title>
<path fill="none" stroke="#486581" stroke-width="1.4" d="M2953.1,-511.64C3169.37,-536.46 3648.71,-591.48 3880.28,-618.05"/>
<polygon fill="#486581" stroke="#486581" stroke-width="1.4" points="3880.14,-620.86 3888.41,-618.99 3880.78,-615.29 3880.14,-620.86"/>
<text text-anchor="start" x="3318" y="-594.2" font-family="DejaVu Sans" font-size="11.00" fill="#334e68">Реєструє створення, доставку та</text>
<text text-anchor="start" x="3356" y="-582.2" font-family="DejaVu Sans" font-size="11.00" fill="#334e68">результат завдання</text>
</g>
<!-- n_eb4c5110ae64&#45;&gt;n_b10c10dbc143 -->
<g id="edge30" class="edge">
<title>n_eb4c5110ae64&#45;&gt;n_b10c10dbc143</title>
<path fill="none" stroke="#486581" stroke-width="1.4" d="M2953.29,-484.92C3043.28,-473.44 3171.17,-457.12 3269.54,-444.56"/>
<polygon fill="#486581" stroke="#486581" stroke-width="1.4" points="3270.18,-447.3 3277.76,-443.51 3269.47,-441.75 3270.18,-447.3"/>
<text text-anchor="start" x="3005.5" y="-492.2" font-family="DejaVu Sans" font-size="11.00" fill="#334e68">Передає нагадування, події календаря,</text>
<text text-anchor="start" x="3026.5" y="-480.2" font-family="DejaVu Sans" font-size="11.00" fill="#334e68">телемедичні сеанси та ескалації</text>
</g>
<!-- n_f0d38fbc8ca4 -->
<g id="node14" class="node">
<title>n_f0d38fbc8ca4</title>
<path fill="#6c4ab6" stroke="#486581" stroke-width="1.5" d="M217.5,-720C217.5,-720 19.5,-720 19.5,-720 13.5,-720 7.5,-714 7.5,-708 7.5,-708 7.5,-696 7.5,-696 7.5,-690 13.5,-684 19.5,-684 19.5,-684 217.5,-684 217.5,-684 223.5,-684 229.5,-690 229.5,-696 229.5,-696 229.5,-708 229.5,-708 229.5,-714 223.5,-720 217.5,-720"/>
<text text-anchor="start" x="17.5" y="-704.4" font-family="DejaVu Sans" font-weight="bold" font-size="12.00" fill="#ffffff">Черговий кризовий фахівець</text>
<text text-anchor="start" x="99" y="-694" font-family="DejaVu Sans" font-size="10.00" fill="#ffffff">[Особа]</text>
</g>
<!-- n_f0d38fbc8ca4&#45;&gt;n_a8676803ace0 -->
<g id="edge4" class="edge">
<title>n_f0d38fbc8ca4&#45;&gt;n_a8676803ace0</title>
<path fill="none" stroke="#486581" stroke-width="1.4" d="M229.6,-688.78C345.39,-674.88 511,-655 511,-655 511,-655 562.87,-636.36 606.2,-620.78"/>
<polygon fill="#486581" stroke="#486581" stroke-width="1.4" points="607.32,-623.35 613.9,-618.01 605.43,-618.08 607.32,-623.35"/>
<text text-anchor="start" x="273" y="-697.2" font-family="DejaVu Sans" font-size="11.00" fill="#334e68">Приймає ескалацію та фіксує результат</text>
<text text-anchor="start" x="358" y="-685.2" font-family="DejaVu Sans" font-size="11.00" fill="#334e68">кризової дії</text>
</g>
<!-- n_285f9a003f67 -->
<g id="node18" class="node">
<title>n_285f9a003f67</title>
<path fill="#6c4ab6" stroke="#486581" stroke-width="1.5" d="M225,-652C225,-652 12,-652 12,-652 6,-652 0,-646 0,-640 0,-640 0,-628 0,-628 0,-622 6,-616 12,-616 12,-616 225,-616 225,-616 231,-616 237,-622 237,-628 237,-628 237,-640 237,-640 237,-646 231,-652 225,-652"/>
<text text-anchor="start" x="10" y="-636.4" font-family="DejaVu Sans" font-weight="bold" font-size="12.00" fill="#ffffff">Медична сестра / координатор</text>
<text text-anchor="start" x="99" y="-626" font-family="DejaVu Sans" font-size="10.00" fill="#ffffff">[Особа]</text>
</g>
<!-- n_285f9a003f67&#45;&gt;n_a8676803ace0 -->
<g id="edge3" class="edge">
<title>n_285f9a003f67&#45;&gt;n_a8676803ace0</title>
<path fill="none" stroke="#486581" stroke-width="1.4" d="M237.31,-626.64C326.25,-621.09 448.05,-613.48 538.75,-607.82"/>
<polygon fill="#486581" stroke="#486581" stroke-width="1.4" points="539.07,-610.61 546.88,-607.31 538.72,-605.02 539.07,-610.61"/>
<text text-anchor="start" x="286.5" y="-638.2" font-family="DejaVu Sans" font-size="11.00" fill="#334e68">Координує завдання, вимірювання,</text>
<text text-anchor="start" x="337.5" y="-626.2" font-family="DejaVu Sans" font-size="11.00" fill="#334e68">контакти й візити</text>
</g>
<!-- n_f465f9f86773 -->
<g id="node21" class="node">
<title>n_f465f9f86773</title>
<path fill="#6c4ab6" stroke="#486581" stroke-width="1.5" d="M167.5,-584C167.5,-584 69.5,-584 69.5,-584 63.5,-584 57.5,-578 57.5,-572 57.5,-572 57.5,-560 57.5,-560 57.5,-554 63.5,-548 69.5,-548 69.5,-548 167.5,-548 167.5,-548 173.5,-548 179.5,-554 179.5,-560 179.5,-560 179.5,-572 179.5,-572 179.5,-578 173.5,-584 167.5,-584"/>
<text text-anchor="start" x="67.5" y="-568.4" font-family="DejaVu Sans" font-weight="bold" font-size="12.00" fill="#ffffff">Лікар&#45;психіатр</text>
<text text-anchor="start" x="99" y="-558" font-family="DejaVu Sans" font-size="10.00" fill="#ffffff">[Особа]</text>
</g>
<!-- n_f465f9f86773&#45;&gt;n_a8676803ace0 -->
<g id="edge1" class="edge">
<title>n_f465f9f86773&#45;&gt;n_a8676803ace0</title>
<path fill="none" stroke="#486581" stroke-width="1.4" d="M179.81,-566.62C289.63,-567.74 511,-570 511,-570 511,-570 535.02,-574.71 564.03,-580.4"/>
<polygon fill="#486581" stroke="#486581" stroke-width="1.4" points="563.52,-583.15 571.91,-581.94 564.6,-577.66 563.52,-583.15"/>
<text text-anchor="start" x="274.5" y="-585.2" font-family="DejaVu Sans" font-size="11.00" fill="#334e68">Переглядає дані, пояснення, ризики та</text>
<text text-anchor="start" x="304.5" y="-573.2" font-family="DejaVu Sans" font-size="11.00" fill="#334e68">підтверджує клінічні рішення</text>
</g>
<!-- n_487bf0f57271 -->
<g id="node22" class="node">
<title>n_487bf0f57271</title>
<path fill="#6c4ab6" stroke="#486581" stroke-width="1.5" d="M206,-516C206,-516 31,-516 31,-516 25,-516 19,-510 19,-504 19,-504 19,-492 19,-492 19,-486 25,-480 31,-480 31,-480 206,-480 206,-480 212,-480 218,-486 218,-492 218,-492 218,-504 218,-504 218,-510 212,-516 206,-516"/>
<text text-anchor="start" x="29" y="-500.4" font-family="DejaVu Sans" font-weight="bold" font-size="12.00" fill="#ffffff">Психолог / психотерапевт</text>
<text text-anchor="start" x="99" y="-490" font-family="DejaVu Sans" font-size="10.00" fill="#ffffff">[Особа]</text>
</g>
<!-- n_487bf0f57271&#45;&gt;n_a8676803ace0 -->
<g id="edge2" class="edge">
<title>n_487bf0f57271&#45;&gt;n_a8676803ace0</title>
<path fill="none" stroke="#486581" stroke-width="1.4" d="M218.04,-507.31C334.01,-518.27 511,-535 511,-535 511,-535 569.18,-559.72 613.79,-578.67"/>
<polygon fill="#486581" stroke="#486581" stroke-width="1.4" points="612.92,-581.34 621.38,-581.89 615.11,-576.19 612.92,-581.34"/>
<text text-anchor="start" x="273.5" y="-550.2" font-family="DejaVu Sans" font-size="11.00" fill="#334e68">Проводить оцінювання та коригує план</text>
<text text-anchor="start" x="313.5" y="-538.2" font-family="DejaVu Sans" font-size="11.00" fill="#334e68">психологічного супроводу</text>
</g>
</g>
</svg>
