<?xml version="1.0" encoding="UTF-8" standalone="no"?>
<!DOCTYPE svg PUBLIC "-//W3C//DTD SVG 1.1//EN"
 "http://www.w3.org/Graphics/SVG/1.1/DTD/svg11.dtd">
<!-- Generated by graphviz version 2.42.4 (0)
 -->
<!-- Title: G Pages: 1 -->
<svg width="4868pt" height="977pt"
 viewBox="0.00 0.00 4868.40 977.40" xmlns="http://www.w3.org/2000/svg" xmlns:xlink="http://www.w3.org/1999/xlink">
<g id="graph0" class="graph" transform="scale(1 1) rotate(0) translate(25.2 952.2)">
<title>G</title>
<polygon fill="white" stroke="transparent" points="-25.2,25.2 -25.2,-952.2 4843.2,-952.2 4843.2,25.2 -25.2,25.2"/>
<text text-anchor="start" x="115.5" y="-912.8" font-family="DejaVu Sans" font-weight="bold" font-size="14.00">C2.06 — Безпека, клінічне керування та аудит</text>
<text text-anchor="start" x="8" y="-900.4" font-family="DejaVu Sans" font-size="12.00">Архітектурні механізми клінічної безпеки, приватності, контролю людиною, відтворюваності й</text>
<text text-anchor="start" x="281" y="-888.4" font-family="DejaVu Sans" font-size="12.00">аудиту.</text>
<g id="clust1" class="cluster">
<title>cluster_scope</title>
<path fill="white" stroke="#0a6ebd" stroke-width="2.2" d="M537,-200C537,-200 4798,-200 4798,-200 4804,-200 4810,-206 4810,-212 4810,-212 4810,-827 4810,-827 4810,-833 4804,-839 4798,-839 4798,-839 537,-839 537,-839 531,-839 525,-833 525,-827 525,-827 525,-212 525,-212 525,-206 531,-200 537,-200"/>
<text text-anchor="start" x="533" y="-824.8" font-family="DejaVu Sans" font-weight="bold" font-size="14.00">Платформа реалізації психіатричних сценаріїв та алгоритмів</text>
</g>
<!-- n_4a71738c36d2 -->
<g id="node1" class="node">
<title>n_4a71738c36d2</title>
<path fill="#6741d9" stroke="#c92a2a" stroke-width="3" d="M3635,-332C3635,-332 3403,-332 3403,-332 3397,-332 3391,-326 3391,-320 3391,-320 3391,-298 3391,-298 3391,-292 3397,-286 3403,-286 3403,-286 3635,-286 3635,-286 3641,-286 3647,-292 3647,-298 3647,-298 3647,-320 3647,-320 3647,-326 3641,-332 3635,-332"/>
<text text-anchor="start" x="3418" y="-317.4" font-family="DejaVu Sans" font-weight="bold" font-size="12.00" fill="#ffffff">Оркестратор ШІ та контроль</text>
<text text-anchor="start" x="3490.5" y="-305.4" font-family="DejaVu Sans" font-weight="bold" font-size="12.00" fill="#ffffff">безпеки</text>
<text text-anchor="start" x="3401" y="-295" font-family="DejaVu Sans" font-size="10.00" fill="#ffffff">[Контейнер · AI gateway / model orchestration]</text>
</g>
<!-- n_5f5685eeff97 -->
<g id="node6" class="node">
<title>n_5f5685eeff97</title>
<path fill="#4a5568" stroke="#486581" stroke-width="1.5" d="M4221.5,-618C4221.5,-618 3999.5,-618 3999.5,-618 3993.5,-618 3987.5,-612 3987.5,-606 3987.5,-606 3987.5,-584 3987.5,-584 3987.5,-578 3993.5,-572 3999.5,-572 3999.5,-572 4221.5,-572 4221.5,-572 4227.5,-572 4233.5,-578 4233.5,-584 4233.5,-584 4233.5,-606 4233.5,-606 4233.5,-612 4227.5,-618 4221.5,-618"/>
<text text-anchor="start" x="4052.5" y="-603.4" font-family="DejaVu Sans" font-weight="bold" font-size="12.00" fill="#ffffff">Сервіс аудиту та</text>
<text text-anchor="start" x="4045" y="-591.4" font-family="DejaVu Sans" font-weight="bold" font-size="12.00" fill="#ffffff">спостережуваності</text>
<text text-anchor="start" x="3997.5" y="-581" font-family="DejaVu Sans" font-size="10.00" fill="#ffffff">[Контейнер · Audit and observability service]</text>
</g>
<!-- n_4a71738c36d2&#45;&gt;n_5f5685eeff97 -->
<g id="edge29" class="edge">
<title>n_4a71738c36d2&#45;&gt;n_5f5685eeff97</title>
<path fill="none" stroke="#486581" stroke-width="1.4" d="M3549.73,-332.22C3590.02,-363.69 3657,-416 3657,-416 3657,-416 3693,-450 3693,-450 3693,-450 3936,-486 3936,-486 3936,-486 3972,-548 3972,-548 3972,-548 4002.16,-558.31 4034.22,-569.27"/>
<polygon fill="#486581" stroke="#486581" stroke-width="1.4" points="4033.48,-571.97 4041.96,-571.91 4035.29,-566.68 4033.48,-571.97"/>
<text text-anchor="start" x="3707.5" y="-501.2" font-family="DejaVu Sans" font-size="11.00" fill="#334e68">Реєструє модель, шаблон, політику,</text>
<text text-anchor="start" x="3713.5" y="-489.2" font-family="DejaVu Sans" font-size="11.00" fill="#334e68">джерела та рішення запобіжників</text>
</g>
<!-- n_c3da19e3d57e -->
<g id="node18" class="node">
<title>n_c3da19e3d57e</title>
<path fill="#6741d9" stroke="#486581" stroke-width="1.5" d="M4214.5,-124C4214.5,-124 4006.5,-124 4006.5,-124 4000.5,-124 3994.5,-118 3994.5,-112 3994.5,-112 3994.5,-90 3994.5,-90 3994.5,-84 4000.5,-78 4006.5,-78 4006.5,-78 4214.5,-78 4214.5,-78 4220.5,-78 4226.5,-84 4226.5,-90 4226.5,-90 4226.5,-112 4226.5,-112 4226.5,-118 4220.5,-124 4214.5,-124"/>
<text text-anchor="start" x="4004.5" y="-109.4" font-family="DejaVu Sans" font-weight="bold" font-size="12.00" fill="#ffffff">Реєстр і середовище моделей</text>
<text text-anchor="start" x="4100.5" y="-97.4" font-family="DejaVu Sans" font-weight="bold" font-size="12.00" fill="#ffffff">ШІ</text>
<text text-anchor="start" x="4055" y="-87" font-family="DejaVu Sans" font-size="10.00" fill="#ffffff">[Програмна система]</text>
</g>
<!-- n_4a71738c36d2&#45;&gt;n_c3da19e3d57e -->
<g id="edge28" class="edge">
<title>n_4a71738c36d2&#45;&gt;n_c3da19e3d57e</title>
<path fill="none" stroke="#486581" stroke-width="1.4" d="M3600.88,-285.98C3630.54,-277.53 3657,-270 3657,-270 3657,-270 3693,-98 3693,-98 3693,-98 3936,-98 3936,-98 3936,-98 3957.9,-98.38 3986.14,-98.87"/>
<polygon fill="#486581" stroke="#486581" stroke-width="1.4" points="3986.21,-101.67 3994.26,-99.01 3986.31,-96.07 3986.21,-101.67"/>
<text text-anchor="start" x="3712" y="-125.2" font-family="DejaVu Sans" font-size="11.00" fill="#334e68">Викликає дозволену модель через</text>
<text text-anchor="start" x="3703" y="-113.2" font-family="DejaVu Sans" font-size="11.00" fill="#334e68">політики маршрутизації та мінімізації</text>
<text text-anchor="start" x="3796" y="-101.2" font-family="DejaVu Sans" font-size="11.00" fill="#334e68">даних</text>
</g>
<!-- n_ace1c56edb4b -->
<g id="node2" class="node">
<title>n_ace1c56edb4b</title>
<path fill="#edf2f7" stroke="#486581" stroke-width="1.5" d="M2505,-716.02C2505,-718.36 2458.39,-720.25 2401,-720.25 2343.61,-720.25 2297,-718.36 2297,-716.02 2297,-716.02 2297,-677.98 2297,-677.98 2297,-675.64 2343.61,-673.75 2401,-673.75 2458.39,-673.75 2505,-675.64 2505,-677.98 2505,-677.98 2505,-716.02 2505,-716.02"/>
<path fill="none" stroke="#486581" stroke-width="1.5" d="M2505,-716.02C2505,-713.69 2458.39,-711.8 2401,-711.8 2343.61,-711.8 2297,-713.69 2297,-716.02"/>
<text text-anchor="start" x="2337.5" y="-699.4" font-family="DejaVu Sans" font-weight="bold" font-size="12.00" fill="#1a202c">Реєстр алгоритмів</text>
<text text-anchor="start" x="2307" y="-689" font-family="DejaVu Sans" font-size="10.00" fill="#1a202c">[Сховище даних · Versioned registry]</text>
</g>
<!-- n_d23827c92006 -->
<g id="node3" class="node">
<title>n_d23827c92006</title>
<path fill="#8a5a00" stroke="#486581" stroke-width="1.5" d="M768,-773C768,-773 620,-773 620,-773 614,-773 608,-767 608,-761 608,-761 608,-739 608,-739 608,-733 614,-727 620,-727 620,-727 768,-727 768,-727 774,-727 780,-733 780,-739 780,-739 780,-761 780,-761 780,-767 774,-773 768,-773"/>
<text text-anchor="start" x="627.5" y="-758.4" font-family="DejaVu Sans" font-weight="bold" font-size="12.00" fill="#ffffff">Студія алгоритмів і</text>
<text text-anchor="start" x="655.5" y="-746.4" font-family="DejaVu Sans" font-weight="bold" font-size="12.00" fill="#ffffff">протоколів</text>
<text text-anchor="start" x="618" y="-736" font-family="DejaVu Sans" font-size="10.00" fill="#ffffff">[Контейнер · Web application]</text>
</g>
<!-- n_d23827c92006&#45;&gt;n_ace1c56edb4b -->
<g id="edge36" class="edge">
<title>n_d23827c92006&#45;&gt;n_ace1c56edb4b</title>
<path fill="none" stroke="#486581" stroke-width="1.4" d="M780.13,-747.35C1062.82,-738.57 1970.34,-710.36 2288.51,-700.47"/>
<polygon fill="#486581" stroke="#486581" stroke-width="1.4" points="2288.92,-703.25 2296.83,-700.21 2288.75,-697.66 2288.92,-703.25"/>
<text text-anchor="start" x="1447.5" y="-741.2" font-family="DejaVu Sans" font-size="11.00" fill="#334e68">Публікує лише погоджені, підписані й</text>
<text text-anchor="start" x="1503" y="-729.2" font-family="DejaVu Sans" font-size="11.00" fill="#334e68">протестовані версії</text>
</g>
<!-- n_384146de0c5d -->
<g id="node5" class="node">
<title>n_384146de0c5d</title>
<path fill="#f4f7fa" stroke="#486581" stroke-width="1.5" d="M1394,-429C1394,-429 1184,-429 1184,-429 1178,-429 1172,-423 1172,-417 1172,-417 1172,-405 1172,-405 1172,-399 1178,-393 1184,-393 1184,-393 1394,-393 1394,-393 1400,-393 1406,-399 1406,-405 1406,-405 1406,-417 1406,-417 1406,-423 1400,-429 1394,-429"/>
<text text-anchor="start" x="1235.5" y="-413.4" font-family="DejaVu Sans" font-weight="bold" font-size="12.00" fill="#18324a">API&#45;шлюз і BFF</text>
<text text-anchor="start" x="1182" y="-403" font-family="DejaVu Sans" font-size="10.00" fill="#18324a">[Контейнер · Reverse proxy / API gateway]</text>
</g>
<!-- n_d23827c92006&#45;&gt;n_384146de0c5d -->
<g id="edge10" class="edge">
<title>n_d23827c92006&#45;&gt;n_384146de0c5d</title>
<path fill="none" stroke="#486581" stroke-width="1.4" d="M735.29,-726.97C843.98,-664.83 1142.15,-494.38 1249.14,-433.21"/>
<polygon fill="#486581" stroke="#486581" stroke-width="1.4" points="1250.65,-435.57 1256.21,-429.17 1247.88,-430.71 1250.65,-435.57"/>
<text text-anchor="start" x="891" y="-645.2" font-family="DejaVu Sans" font-size="11.00" fill="#334e68">Викликає адміністративне API життєвого</text>
<text text-anchor="start" x="961" y="-633.2" font-family="DejaVu Sans" font-size="11.00" fill="#334e68">циклу алгоритмів</text>
</g>
<!-- n_d23827c92006&#45;&gt;n_5f5685eeff97 -->
<g id="edge37" class="edge">
<title>n_d23827c92006&#45;&gt;n_5f5685eeff97</title>
<path fill="none" stroke="#486581" stroke-width="1.4" d="M780.28,-754.89C944.37,-764.3 1288,-784 1288,-784 1288,-784 1288,-784 3520,-784 3520,-784 3868.39,-672.3 4029.51,-620.64"/>
<polygon fill="#486581" stroke="#486581" stroke-width="1.4" points="4030.75,-623.19 4037.51,-618.08 4029.04,-617.86 4030.75,-623.19"/>
<text text-anchor="start" x="2283.5" y="-799.2" font-family="DejaVu Sans" font-size="11.00" fill="#334e68">Реєструє зміни, перевірки, погодження</text>
<text text-anchor="start" x="2367.5" y="-787.2" font-family="DejaVu Sans" font-size="11.00" fill="#334e68">та випуски</text>
</g>
<!-- n_3413ea645d36 -->
<g id="node4" class="node">
<title>n_3413ea645d36</title>
<path fill="#edf2f7" stroke="#486581" stroke-width="1.5" d="M4781.5,-545.02C4781.5,-547.36 4731.97,-549.25 4671,-549.25 4610.03,-549.25 4560.5,-547.36 4560.5,-545.02 4560.5,-545.02 4560.5,-506.98 4560.5,-506.98 4560.5,-504.64 4610.03,-502.75 4671,-502.75 4731.97,-502.75 4781.5,-504.64 4781.5,-506.98 4781.5,-506.98 4781.5,-545.02 4781.5,-545.02"/>
<path fill="none" stroke="#486581" stroke-width="1.5" d="M4781.5,-545.02C4781.5,-542.69 4731.97,-540.8 4671,-540.8 4610.03,-540.8 4560.5,-542.69 4560.5,-545.02"/>
<text text-anchor="start" x="4599.5" y="-528.4" font-family="DejaVu Sans" font-weight="bold" font-size="12.00" fill="#1a202c">Аналітичне сховище</text>
<text text-anchor="start" x="4570.5" y="-518" font-family="DejaVu Sans" font-size="10.00" fill="#1a202c">[Сховище даних · Analytics warehouse]</text>
</g>
<!-- n_384146de0c5d&#45;&gt;n_5f5685eeff97 -->
<g id="edge16" class="edge">
<title>n_384146de0c5d&#45;&gt;n_5f5685eeff97</title>
<path fill="none" stroke="#486581" stroke-width="1.4" d="M1406.19,-411.6C1520.81,-412.19 1679,-413 1679,-413 1679,-413 2813,-466 2813,-466 2813,-466 3107,-487 3107,-487 3107,-487 3345,-498 3345,-498 3345,-498 3657,-559 3657,-559 3657,-559 3693,-579 3693,-579 3693,-579 3856.84,-585.29 3979,-589.99"/>
<polygon fill="#486581" stroke="#486581" stroke-width="1.4" points="3979.25,-592.8 3987.35,-590.31 3979.46,-587.2 3979.25,-592.8"/>
<text text-anchor="start" x="2567.5" y="-481.2" font-family="DejaVu Sans" font-size="11.00" fill="#334e68">Реєструє доступ і результат оброблення</text>
<text text-anchor="start" x="2667" y="-469.2" font-family="DejaVu Sans" font-size="11.00" fill="#334e68">запиту</text>
</g>
<!-- n_c210e7db8afd -->
<g id="node8" class="node">
<title>n_c210e7db8afd</title>
<path fill="#2b6cb0" stroke="#486581" stroke-width="1.5" d="M2515,-608C2515,-608 2287,-608 2287,-608 2281,-608 2275,-602 2275,-596 2275,-596 2275,-574 2275,-574 2275,-568 2281,-562 2287,-562 2287,-562 2515,-562 2515,-562 2521,-562 2527,-568 2527,-574 2527,-574 2527,-596 2527,-596 2527,-602 2521,-608 2515,-608"/>
<text text-anchor="start" x="2306" y="-593.4" font-family="DejaVu Sans" font-weight="bold" font-size="12.00" fill="#ffffff">Сервіс підтримки клінічних</text>
<text text-anchor="start" x="2376.5" y="-581.4" font-family="DejaVu Sans" font-weight="bold" font-size="12.00" fill="#ffffff">рішень</text>
<text text-anchor="start" x="2285" y="-571" font-family="DejaVu Sans" font-size="10.00" fill="#ffffff">[Контейнер · Clinical decision support service]</text>
</g>
<!-- n_384146de0c5d&#45;&gt;n_c210e7db8afd -->
<g id="edge13" class="edge">
<title>n_384146de0c5d&#45;&gt;n_c210e7db8afd</title>
<path fill="none" stroke="#486581" stroke-width="1.4" d="M1314.08,-429.22C1356.94,-461.65 1442,-526 1442,-526 1442,-526 2015,-688 2015,-688 2015,-688 2239,-688 2239,-688 2239,-688 2275,-658 2275,-658 2275,-658 2317.92,-632.94 2353.45,-612.18"/>
<polygon fill="#486581" stroke="#486581" stroke-width="1.4" points="2354.95,-614.55 2360.45,-608.1 2352.13,-609.71 2354.95,-614.55"/>
<text text-anchor="start" x="1764.5" y="-692.2" font-family="DejaVu Sans" font-size="11.00" fill="#334e68">Передає запити на клінічне</text>
<text text-anchor="start" x="1771" y="-680.2" font-family="DejaVu Sans" font-size="11.00" fill="#334e68">узагальнення й перегляд</text>
</g>
<!-- n_dcb3f876e224 -->
<g id="node11" class="node">
<title>n_dcb3f876e224</title>
<path fill="#f4f7fa" stroke="#486581" stroke-width="1.5" d="M3639,-254C3639,-254 3399,-254 3399,-254 3393,-254 3387,-248 3387,-242 3387,-242 3387,-220 3387,-220 3387,-214 3393,-208 3399,-208 3399,-208 3639,-208 3639,-208 3645,-208 3651,-214 3651,-220 3651,-220 3651,-242 3651,-242 3651,-248 3645,-254 3639,-254"/>
<text text-anchor="start" x="3419.5" y="-239.4" font-family="DejaVu Sans" font-weight="bold" font-size="12.00" fill="#18324a">Сервіс ідентичності, доступу</text>
<text text-anchor="start" x="3493.5" y="-227.4" font-family="DejaVu Sans" font-weight="bold" font-size="12.00" fill="#18324a">та згод</text>
<text text-anchor="start" x="3397" y="-217" font-family="DejaVu Sans" font-size="10.00" fill="#18324a">[Контейнер · OIDC, RBAC/ABAC, consent service]</text>
</g>
<!-- n_384146de0c5d&#45;&gt;n_dcb3f876e224 -->
<g id="edge11" class="edge">
<title>n_384146de0c5d&#45;&gt;n_dcb3f876e224</title>
<path fill="none" stroke="#486581" stroke-width="1.4" d="M1334.37,-392.9C1379.24,-374.6 1442,-349 1442,-349 1442,-349 1846,-240 1846,-240 1846,-240 1846,-240 2961,-240 2961,-240 3213.44,-235.92 3378.42,-233.26"/>
<polygon fill="#486581" stroke="#486581" stroke-width="1.4" points="3378.75,-236.05 3386.7,-233.12 3378.66,-230.45 3378.75,-236.05"/>
<text text-anchor="start" x="2280.5" y="-243.2" font-family="DejaVu Sans" font-size="11.00" fill="#334e68">Перевіряє сесію, повноваження та згоду</text>
</g>
<!-- n_b10c10dbc143 -->
<g id="node12" class="node">
<title>n_b10c10dbc143</title>
<path fill="#3b5bdb" stroke="#486581" stroke-width="1.5" d="M3645,-468C3645,-468 3393,-468 3393,-468 3387,-468 3381,-462 3381,-456 3381,-456 3381,-444 3381,-444 3381,-438 3387,-432 3393,-432 3393,-432 3645,-432 3645,-432 3651,-432 3657,-438 3657,-444 3657,-444 3657,-456 3657,-456 3657,-462 3651,-468 3645,-468"/>
<text text-anchor="start" x="3448" y="-452.4" font-family="DejaVu Sans" font-weight="bold" font-size="12.00" fill="#ffffff">Інтеграційний шлюз</text>
<text text-anchor="start" x="3391" y="-442" font-family="DejaVu Sans" font-size="10.00" fill="#ffffff">[Контейнер · FHIR/DICOM/REST integration service]</text>
</g>
<!-- n_384146de0c5d&#45;&gt;n_b10c10dbc143 -->
<g id="edge15" class="edge">
<title>n_384146de0c5d&#45;&gt;n_b10c10dbc143</title>
<path fill="none" stroke="#486581" stroke-width="1.4" d="M1348.33,-392.96C1391.2,-379.71 1442,-364 1442,-364 1442,-364 2275,-340 2275,-340 2275,-340 2527,-340 2527,-340 2527,-340 2813,-367 2813,-367 2813,-367 2849,-387 2849,-387 2849,-387 3345,-417 3345,-417 3345,-417 3378.13,-423.32 3415.4,-430.43"/>
<polygon fill="#486581" stroke="#486581" stroke-width="1.4" points="3415.02,-433.21 3423.4,-431.96 3416.07,-427.71 3415.02,-433.21"/>
<text text-anchor="start" x="2294" y="-355.2" font-family="DejaVu Sans" font-size="11.00" fill="#334e68">Передає контрольовані інтеграційні</text>
<text text-anchor="start" x="2375" y="-343.2" font-family="DejaVu Sans" font-size="11.00" fill="#334e68">команди</text>
</g>
<!-- n_78e6a86e3609 -->
<g id="node14" class="node">
<title>n_78e6a86e3609</title>
<path fill="#2b6cb0" stroke="#c92a2a" stroke-width="3" d="M1967,-558C1967,-558 1727,-558 1727,-558 1721,-558 1715,-552 1715,-546 1715,-546 1715,-524 1715,-524 1715,-518 1721,-512 1727,-512 1727,-512 1967,-512 1967,-512 1973,-512 1979,-518 1979,-524 1979,-524 1979,-546 1979,-546 1979,-552 1973,-558 1967,-558"/>
<text text-anchor="start" x="1768" y="-543.4" font-family="DejaVu Sans" font-weight="bold" font-size="12.00" fill="#ffffff">Детермінований рушій</text>
<text text-anchor="start" x="1815" y="-531.4" font-family="DejaVu Sans" font-weight="bold" font-size="12.00" fill="#ffffff">сценаріїв</text>
<text text-anchor="start" x="1725" y="-521" font-family="DejaVu Sans" font-size="10.00" fill="#ffffff">[Контейнер · Rules engine / finite&#45;state machine]</text>
</g>
<!-- n_384146de0c5d&#45;&gt;n_78e6a86e3609 -->
<g id="edge12" class="edge">
<title>n_384146de0c5d&#45;&gt;n_78e6a86e3609</title>
<path fill="none" stroke="#486581" stroke-width="1.4" d="M1370.85,-429.03C1466.78,-450.43 1627.25,-486.21 1734.83,-510.21"/>
<polygon fill="#486581" stroke="#486581" stroke-width="1.4" points="1734.39,-512.98 1742.81,-511.99 1735.61,-507.51 1734.39,-512.98"/>
<text text-anchor="start" x="1442" y="-509.2" font-family="DejaVu Sans" font-size="11.00" fill="#334e68">Передає типізовані команди виконання</text>
<text text-anchor="start" x="1533.5" y="-497.2" font-family="DejaVu Sans" font-size="11.00" fill="#334e68">сценарію</text>
</g>
<!-- n_eb4c5110ae64 -->
<g id="node15" class="node">
<title>n_eb4c5110ae64</title>
<path fill="#b7791f" stroke="#486581" stroke-width="1.5" d="M3059,-559C3059,-559 2861,-559 2861,-559 2855,-559 2849,-553 2849,-547 2849,-547 2849,-525 2849,-525 2849,-519 2855,-513 2861,-513 2861,-513 3059,-513 3059,-513 3065,-513 3071,-519 3071,-525 3071,-525 3071,-547 3071,-547 3071,-553 3065,-559 3059,-559"/>
<text text-anchor="start" x="2859" y="-544.4" font-family="DejaVu Sans" font-weight="bold" font-size="12.00" fill="#ffffff">Сервіс завдань, нагадувань і</text>
<text text-anchor="start" x="2925" y="-532.4" font-family="DejaVu Sans" font-weight="bold" font-size="12.00" fill="#ffffff">ескалацій</text>
<text text-anchor="start" x="2875.5" y="-522" font-family="DejaVu Sans" font-size="10.00" fill="#ffffff">[Контейнер · Workflow scheduler]</text>
</g>
<!-- n_384146de0c5d&#45;&gt;n_eb4c5110ae64 -->
<g id="edge14" class="edge">
<title>n_384146de0c5d&#45;&gt;n_eb4c5110ae64</title>
<path fill="none" stroke="#486581" stroke-width="1.4" d="M1406.04,-418.92C1761.76,-443.21 2813,-515 2813,-515 2813,-515 2824.2,-516.61 2840.39,-518.94"/>
<polygon fill="#486581" stroke="#486581" stroke-width="1.4" points="2840.4,-521.77 2848.72,-520.14 2841.2,-516.23 2840.4,-521.77"/>
<text text-anchor="start" x="2029.5" y="-489.2" font-family="DejaVu Sans" font-size="11.00" fill="#334e68">Передає команди щодо завдань,</text>
<text text-anchor="start" x="2067" y="-477.2" font-family="DejaVu Sans" font-size="11.00" fill="#334e68">нагадувань і візитів</text>
</g>
<!-- n_5f5685eeff97&#45;&gt;n_3413ea645d36 -->
<g id="edge39" class="edge">
<title>n_5f5685eeff97&#45;&gt;n_3413ea645d36</title>
<path fill="none" stroke="#486581" stroke-width="1.4" d="M4233.88,-576.66C4262.59,-572.36 4285,-569 4285,-569 4285,-569 4439.15,-551.78 4552.37,-539.14"/>
<polygon fill="#486581" stroke="#486581" stroke-width="1.4" points="4552.81,-541.91 4560.45,-538.24 4552.19,-536.34 4552.81,-541.91"/>
<text text-anchor="start" x="4290.5" y="-584.2" font-family="DejaVu Sans" font-size="11.00" fill="#334e68">Передає очищені технічні та якісні</text>
<text text-anchor="start" x="4362.5" y="-572.2" font-family="DejaVu Sans" font-size="11.00" fill="#334e68">показники</text>
</g>
<!-- n_e37cdb3e9f92 -->
<g id="node7" class="node">
<title>n_e37cdb3e9f92</title>
<path fill="#edf2f7" stroke="#486581" stroke-width="1.5" d="M4802,-634.02C4802,-636.36 4743.28,-638.25 4671,-638.25 4598.72,-638.25 4540,-636.36 4540,-634.02 4540,-634.02 4540,-595.98 4540,-595.98 4540,-593.64 4598.72,-591.75 4671,-591.75 4743.28,-591.75 4802,-593.64 4802,-595.98 4802,-595.98 4802,-634.02 4802,-634.02"/>
<path fill="none" stroke="#486581" stroke-width="1.5" d="M4802,-634.02C4802,-631.69 4743.28,-629.8 4671,-629.8 4598.72,-629.8 4540,-631.69 4540,-634.02"/>
<text text-anchor="start" x="4580.5" y="-617.4" font-family="DejaVu Sans" font-weight="bold" font-size="12.00" fill="#1a202c">Незмінне сховище аудиту</text>
<text text-anchor="start" x="4550" y="-607" font-family="DejaVu Sans" font-size="10.00" fill="#1a202c">[Сховище даних · WORM / append&#45;only storage]</text>
</g>
<!-- n_5f5685eeff97&#45;&gt;n_e37cdb3e9f92 -->
<g id="edge38" class="edge">
<title>n_5f5685eeff97&#45;&gt;n_e37cdb3e9f92</title>
<path fill="none" stroke="#486581" stroke-width="1.4" d="M4233.72,-599.38C4321.6,-602.52 4440.22,-606.77 4531.59,-610.04"/>
<polygon fill="#486581" stroke="#486581" stroke-width="1.4" points="4531.69,-612.85 4539.78,-610.34 4531.89,-607.25 4531.69,-612.85"/>
<text text-anchor="start" x="4285" y="-623.2" font-family="DejaVu Sans" font-size="11.00" fill="#334e68">Записує незмінні події та контрольні</text>
<text text-anchor="start" x="4380" y="-611.2" font-family="DejaVu Sans" font-size="11.00" fill="#334e68">суми</text>
</g>
<!-- n_c210e7db8afd&#45;&gt;n_5f5685eeff97 -->
<g id="edge27" class="edge">
<title>n_c210e7db8afd&#45;&gt;n_5f5685eeff97</title>
<path fill="none" stroke="#486581" stroke-width="1.4" d="M2527.48,-588.85C2791.65,-596.94 3381,-615 3381,-615 3381,-615 3657,-615 3657,-615 3657,-615 3845.36,-606.67 3979.02,-600.77"/>
<polygon fill="#486581" stroke="#486581" stroke-width="1.4" points="3979.48,-603.55 3987.35,-600.4 3979.23,-597.96 3979.48,-603.55"/>
<text text-anchor="start" x="3109" y="-628.2" font-family="DejaVu Sans" font-size="11.00" fill="#334e68">Реєструє правила, джерела, пояснення</text>
<text text-anchor="start" x="3146" y="-616.2" font-family="DejaVu Sans" font-size="11.00" fill="#334e68">та клінічне підтвердження</text>
</g>
<!-- n_40b119007c9f -->
<g id="node9" class="node">
<title>n_40b119007c9f</title>
<path fill="#edf2f7" stroke="#486581" stroke-width="1.5" d="M4249,-341.02C4249,-343.36 4186.92,-345.25 4110.5,-345.25 4034.08,-345.25 3972,-343.36 3972,-341.02 3972,-341.02 3972,-302.98 3972,-302.98 3972,-300.64 4034.08,-298.75 4110.5,-298.75 4186.92,-298.75 4249,-300.64 4249,-302.98 4249,-302.98 4249,-341.02 4249,-341.02"/>
<path fill="none" stroke="#486581" stroke-width="1.5" d="M4249,-341.02C4249,-338.69 4186.92,-336.8 4110.5,-336.8 4034.08,-336.8 3972,-338.69 3972,-341.02"/>
<text text-anchor="start" x="4048.5" y="-324.4" font-family="DejaVu Sans" font-weight="bold" font-size="12.00" fill="#1a202c">Клінічне сховище</text>
<text text-anchor="start" x="3982" y="-314" font-family="DejaVu Sans" font-size="10.00" fill="#1a202c">[Сховище даних · FHIR&#45;oriented clinical repository]</text>
</g>
<!-- n_c210e7db8afd&#45;&gt;n_40b119007c9f -->
<g id="edge25" class="edge">
<title>n_c210e7db8afd&#45;&gt;n_40b119007c9f</title>
<path fill="none" stroke="#486581" stroke-width="1.4" d="M2494.81,-561.98C2513.22,-557.42 2527,-554 2527,-554 2527,-554 2563,-536 2563,-536 2563,-536 3657,-374 3657,-374 3657,-374 3693,-331 3693,-331 3693,-331 3843.65,-327.74 3963.74,-325.15"/>
<polygon fill="#486581" stroke="#486581" stroke-width="1.4" points="3964.03,-327.94 3971.97,-324.97 3963.91,-322.35 3964.03,-327.94"/>
<text text-anchor="start" x="3107" y="-470.2" font-family="DejaVu Sans" font-size="11.00" fill="#334e68">Читає результати й зберігає проєкти та</text>
<text text-anchor="start" x="3154.5" y="-458.2" font-family="DejaVu Sans" font-size="11.00" fill="#334e68">підтверджені траєкторії</text>
</g>
<!-- n_c210e7db8afd&#45;&gt;n_eb4c5110ae64 -->
<g id="edge26" class="edge">
<title>n_c210e7db8afd&#45;&gt;n_eb4c5110ae64</title>
<path fill="none" stroke="#486581" stroke-width="1.4" d="M2527.27,-564.77C2548.05,-561.41 2563,-559 2563,-559 2563,-559 2723.95,-549.65 2840.63,-542.87"/>
<polygon fill="#486581" stroke="#486581" stroke-width="1.4" points="2841.13,-545.65 2848.95,-542.39 2840.81,-540.06 2841.13,-545.65"/>
<text text-anchor="start" x="2563" y="-574.2" font-family="DejaVu Sans" font-size="11.00" fill="#334e68">Передає погоджений або безпечний план</text>
<text text-anchor="start" x="2657" y="-562.2" font-family="DejaVu Sans" font-size="11.00" fill="#334e68">супроводу</text>
</g>
<!-- n_a8676803ace0 -->
<g id="node10" class="node">
<title>n_a8676803ace0</title>
<path fill="#6c4ab6" stroke="#486581" stroke-width="1.5" d="M800,-397C800,-397 588,-397 588,-397 582,-397 576,-391 576,-385 576,-385 576,-373 576,-373 576,-367 582,-361 588,-361 588,-361 800,-361 800,-361 806,-361 812,-367 812,-373 812,-373 812,-385 812,-385 812,-391 806,-397 800,-397"/>
<text text-anchor="start" x="586" y="-381.4" font-family="DejaVu Sans" font-weight="bold" font-size="12.00" fill="#ffffff">Кабінет медичного працівника</text>
<text text-anchor="start" x="618" y="-371" font-family="DejaVu Sans" font-size="10.00" fill="#ffffff">[Контейнер · Web application]</text>
</g>
<!-- n_a8676803ace0&#45;&gt;n_384146de0c5d -->
<g id="edge9" class="edge">
<title>n_a8676803ace0&#45;&gt;n_384146de0c5d</title>
<path fill="none" stroke="#486581" stroke-width="1.4" d="M812.02,-380.86C942.67,-382.93 1136,-386 1136,-386 1136,-386 1150.44,-388.38 1170.43,-391.66"/>
<polygon fill="#486581" stroke="#486581" stroke-width="1.4" points="1169.99,-394.43 1178.34,-392.96 1170.9,-388.9 1169.99,-394.43"/>
<text text-anchor="start" x="918" y="-389.2" font-family="DejaVu Sans" font-size="11.00" fill="#334e68">Викликає захищене клінічне API</text>
</g>
<!-- n_dcb3f876e224&#45;&gt;n_5f5685eeff97 -->
<g id="edge19" class="edge">
<title>n_dcb3f876e224&#45;&gt;n_5f5685eeff97</title>
<path fill="none" stroke="#486581" stroke-width="1.4" d="M3600.88,-254.02C3630.54,-262.47 3657,-270 3657,-270 3657,-270 3693,-389 3693,-389 3693,-389 3936,-418 3936,-418 3936,-418 3972,-548 3972,-548 3972,-548 4002.16,-558.31 4034.22,-569.27"/>
<polygon fill="#486581" stroke="#486581" stroke-width="1.4" points="4033.48,-571.97 4041.96,-571.91 4035.29,-566.68 4033.48,-571.97"/>
<text text-anchor="start" x="3700" y="-433.2" font-family="DejaVu Sans" font-size="11.00" fill="#334e68">Реєструє рішення авторизації та зміни</text>
<text text-anchor="start" x="3801" y="-421.2" font-family="DejaVu Sans" font-size="11.00" fill="#334e68">згод</text>
</g>
<!-- n_dcb3f876e224&#45;&gt;n_40b119007c9f -->
<g id="edge18" class="edge">
<title>n_dcb3f876e224&#45;&gt;n_40b119007c9f</title>
<path fill="none" stroke="#486581" stroke-width="1.4" d="M3651.05,-248.33C3772.99,-264.45 3936,-286 3936,-286 3936,-286 3962,-291.39 3993.87,-298.01"/>
<polygon fill="#486581" stroke="#486581" stroke-width="1.4" points="3993.69,-300.83 4002.09,-299.71 3994.82,-295.35 3993.69,-300.83"/>
<text text-anchor="start" x="3713.5" y="-301.2" font-family="DejaVu Sans" font-size="11.00" fill="#334e68">Зберігає версійовані записи згод і</text>
<text text-anchor="start" x="3781" y="-289.2" font-family="DejaVu Sans" font-size="11.00" fill="#334e68">відкликань</text>
</g>
<!-- n_d6434351ba8f -->
<g id="node19" class="node">
<title>n_d6434351ba8f</title>
<path fill="#e9eef4" stroke="#486581" stroke-width="1.5" d="M4202.5,-46C4202.5,-46 4018.5,-46 4018.5,-46 4012.5,-46 4006.5,-40 4006.5,-34 4006.5,-34 4006.5,-12 4006.5,-12 4006.5,-6 4012.5,0 4018.5,0 4018.5,0 4202.5,0 4202.5,0 4208.5,0 4214.5,-6 4214.5,-12 4214.5,-12 4214.5,-34 4214.5,-34 4214.5,-40 4208.5,-46 4202.5,-46"/>
<text text-anchor="start" x="4016.5" y="-31.4" font-family="DejaVu Sans" font-weight="bold" font-size="12.00" fill="#263238">Постачальник електронної</text>
<text text-anchor="start" x="4066.5" y="-19.4" font-family="DejaVu Sans" font-weight="bold" font-size="12.00" fill="#263238">ідентичності</text>
<text text-anchor="start" x="4055" y="-9" font-family="DejaVu Sans" font-size="10.00" fill="#263238">[Програмна система]</text>
</g>
<!-- n_dcb3f876e224&#45;&gt;n_d6434351ba8f -->
<g id="edge17" class="edge">
<title>n_dcb3f876e224&#45;&gt;n_d6434351ba8f</title>
<path fill="none" stroke="#486581" stroke-width="1.4" d="M3541.91,-207.95C3588.46,-158.98 3693,-49 3693,-49 3693,-49 3874.86,-37.65 3998.24,-29.95"/>
<polygon fill="#486581" stroke="#486581" stroke-width="1.4" points="3998.47,-32.74 4006.28,-29.44 3998.12,-27.15 3998.47,-32.74"/>
<text text-anchor="start" x="3693" y="-52.2" font-family="DejaVu Sans" font-size="11.00" fill="#334e68">Федеративно автентифікує користувача</text>
</g>
<!-- n_b10c10dbc143&#45;&gt;n_3413ea645d36 -->
<g id="edge34" class="edge">
<title>n_b10c10dbc143&#45;&gt;n_3413ea645d36</title>
<path fill="none" stroke="#486581" stroke-width="1.4" d="M3578.9,-468.06C3616.03,-479.44 3657,-492 3657,-492 3657,-492 3693,-511 3693,-511 3693,-511 4291.99,-520.2 4551.95,-524.19"/>
<polygon fill="#486581" stroke="#486581" stroke-width="1.4" points="4552.26,-526.99 4560.3,-524.32 4552.34,-521.39 4552.26,-526.99"/>
<text text-anchor="start" x="4006" y="-534.2" font-family="DejaVu Sans" font-size="11.00" fill="#334e68">Передає дозволені знеособлені або</text>
<text text-anchor="start" x="4064.5" y="-522.2" font-family="DejaVu Sans" font-size="11.00" fill="#334e68">агреговані дані</text>
</g>
<!-- n_b10c10dbc143&#45;&gt;n_5f5685eeff97 -->
<g id="edge35" class="edge">
<title>n_b10c10dbc143&#45;&gt;n_5f5685eeff97</title>
<path fill="none" stroke="#486581" stroke-width="1.4" d="M3578.9,-468.06C3616.03,-479.44 3657,-492 3657,-492 3657,-492 3693,-518 3693,-518 3693,-518 3936,-551 3936,-551 3936,-551 3971.78,-560.07 4010.84,-569.98"/>
<polygon fill="#486581" stroke="#486581" stroke-width="1.4" points="4010.24,-572.72 4018.68,-571.97 4011.62,-567.29 4010.24,-572.72"/>
<text text-anchor="start" x="3708" y="-566.2" font-family="DejaVu Sans" font-size="11.00" fill="#334e68">Реєструє мету, згоду, склад даних і</text>
<text text-anchor="start" x="3753.5" y="-554.2" font-family="DejaVu Sans" font-size="11.00" fill="#334e68">зовнішній результат</text>
</g>
<!-- n_b10c10dbc143&#45;&gt;n_40b119007c9f -->
<g id="edge33" class="edge">
<title>n_b10c10dbc143&#45;&gt;n_40b119007c9f</title>
<path fill="none" stroke="#486581" stroke-width="1.4" d="M3578.9,-431.94C3616.03,-420.56 3657,-408 3657,-408 3657,-408 3693,-361 3693,-361 3693,-361 3843.65,-346.89 3963.74,-335.65"/>
<polygon fill="#486581" stroke="#486581" stroke-width="1.4" points="3964.26,-338.41 3971.97,-334.88 3963.74,-332.84 3964.26,-338.41"/>
<text text-anchor="start" x="3716.5" y="-376.2" font-family="DejaVu Sans" font-size="11.00" fill="#334e68">Читає або записує нормалізовані</text>
<text text-anchor="start" x="3764" y="-364.2" font-family="DejaVu Sans" font-size="11.00" fill="#334e68">інтеграційні дані</text>
</g>
<!-- n_3145c0474e62 -->
<g id="node17" class="node">
<title>n_3145c0474e62</title>
<path fill="#c92a2a" stroke="#486581" stroke-width="1.5" d="M4203.5,-192C4203.5,-192 4017.5,-192 4017.5,-192 4011.5,-192 4005.5,-186 4005.5,-180 4005.5,-180 4005.5,-168 4005.5,-168 4005.5,-162 4011.5,-156 4017.5,-156 4017.5,-156 4203.5,-156 4203.5,-156 4209.5,-156 4215.5,-162 4215.5,-168 4215.5,-168 4215.5,-180 4215.5,-180 4215.5,-186 4209.5,-192 4203.5,-192"/>
<text text-anchor="start" x="4015.5" y="-176.4" font-family="DejaVu Sans" font-weight="bold" font-size="12.00" fill="#ffffff">Кризова / екстрена служба</text>
<text text-anchor="start" x="4055" y="-166" font-family="DejaVu Sans" font-size="10.00" fill="#ffffff">[Програмна система]</text>
</g>
<!-- n_b10c10dbc143&#45;&gt;n_3145c0474e62 -->
<g id="edge32" class="edge">
<title>n_b10c10dbc143&#45;&gt;n_3145c0474e62</title>
<path fill="none" stroke="#486581" stroke-width="1.4" d="M3544.18,-432C3583.51,-402.72 3657,-348 3657,-348 3657,-348 3693,-223 3693,-223 3693,-223 3874.07,-201.7 3997.43,-187.18"/>
<polygon fill="#486581" stroke="#486581" stroke-width="1.4" points="3997.86,-189.95 4005.47,-186.24 3997.2,-184.39 3997.86,-189.95"/>
<text text-anchor="start" x="3724.5" y="-238.2" font-family="DejaVu Sans" font-size="11.00" fill="#334e68">Передає кризову ескалацію за</text>
<text text-anchor="start" x="3743.5" y="-226.2" font-family="DejaVu Sans" font-size="11.00" fill="#334e68">визначеним маршрутом</text>
</g>
<!-- n_8a923be70a11 -->
<g id="node13" class="node">
<title>n_8a923be70a11</title>
<path fill="#0b7285" stroke="#486581" stroke-width="1.5" d="M843,-465C843,-465 545,-465 545,-465 539,-465 533,-459 533,-453 533,-453 533,-441 533,-441 533,-435 539,-429 545,-429 545,-429 843,-429 843,-429 849,-429 855,-435 855,-441 855,-441 855,-453 855,-453 855,-459 849,-465 843,-465"/>
<text text-anchor="start" x="623" y="-449.4" font-family="DejaVu Sans" font-weight="bold" font-size="12.00" fill="#ffffff">Застосунок пацієнта</text>
<text text-anchor="start" x="543" y="-439" font-family="DejaVu Sans" font-size="10.00" fill="#ffffff">[Контейнер · PWA / mobile / web, WebRTC, Web Speech APIs]</text>
</g>
<!-- n_8a923be70a11&#45;&gt;n_384146de0c5d -->
<g id="edge8" class="edge">
<title>n_8a923be70a11&#45;&gt;n_384146de0c5d</title>
<path fill="none" stroke="#486581" stroke-width="1.4" d="M855.08,-437.28C952.15,-431.39 1074.15,-423.98 1163.88,-418.54"/>
<polygon fill="#486581" stroke="#486581" stroke-width="1.4" points="1164.1,-421.33 1171.92,-418.05 1163.76,-415.74 1164.1,-421.33"/>
<text text-anchor="start" x="906.5" y="-437.2" font-family="DejaVu Sans" font-size="11.00" fill="#334e68">Викликає захищене пацієнтське API</text>
</g>
<!-- n_78e6a86e3609&#45;&gt;n_ace1c56edb4b -->
<g id="edge20" class="edge">
<title>n_78e6a86e3609&#45;&gt;n_ace1c56edb4b</title>
<path fill="none" stroke="#486581" stroke-width="1.4" d="M1890.14,-558.22C1939.61,-585.47 2015,-627 2015,-627 2015,-627 2175.01,-656.09 2288.72,-676.77"/>
<polygon fill="#486581" stroke="#486581" stroke-width="1.4" points="2288.46,-679.56 2296.83,-678.24 2289.46,-674.06 2288.46,-679.56"/>
<text text-anchor="start" x="2018.5" y="-681.2" font-family="DejaVu Sans" font-size="11.00" fill="#334e68">Завантажує підписану опубліковану</text>
<text text-anchor="start" x="2071" y="-669.2" font-family="DejaVu Sans" font-size="11.00" fill="#334e68">версію визначення</text>
</g>
<!-- n_78e6a86e3609&#45;&gt;n_5f5685eeff97 -->
<g id="edge24" class="edge">
<title>n_78e6a86e3609&#45;&gt;n_5f5685eeff97</title>
<path fill="none" stroke="#486581" stroke-width="1.4" d="M1905.47,-558.06C1953.78,-577.44 2015,-602 2015,-602 2015,-602 2275,-624 2275,-624 2275,-624 3107,-645 3107,-645 3107,-645 3345,-645 3345,-645 3345,-645 3936,-617 3936,-617 3936,-617 3954.24,-614.69 3978.9,-611.56"/>
<polygon fill="#486581" stroke="#486581" stroke-width="1.4" points="3979.53,-614.3 3987.12,-610.52 3978.83,-608.75 3979.53,-614.3"/>
<text text-anchor="start" x="2851" y="-659.2" font-family="DejaVu Sans" font-size="11.00" fill="#334e68">Фіксує версію, введення, правило та</text>
<text text-anchor="start" x="2893.5" y="-647.2" font-family="DejaVu Sans" font-size="11.00" fill="#334e68">результат обчислення</text>
</g>
<!-- n_78e6a86e3609&#45;&gt;n_c210e7db8afd -->
<g id="edge22" class="edge">
<title>n_78e6a86e3609&#45;&gt;n_c210e7db8afd</title>
<path fill="none" stroke="#486581" stroke-width="1.4" d="M1979.17,-546.88C2065.9,-554.74 2179.25,-565 2266.46,-572.9"/>
<polygon fill="#486581" stroke="#486581" stroke-width="1.4" points="2266.33,-575.7 2274.55,-573.64 2266.84,-570.13 2266.33,-575.7"/>
<text text-anchor="start" x="2018.5" y="-585.2" font-family="DejaVu Sans" font-size="11.00" fill="#334e68">Передає завершений або проміжний</text>
<text text-anchor="start" x="2026" y="-573.2" font-family="DejaVu Sans" font-size="11.00" fill="#334e68">клінічний результат для агрегації</text>
</g>
<!-- n_78e6a86e3609&#45;&gt;n_40b119007c9f -->
<g id="edge21" class="edge">
<title>n_78e6a86e3609&#45;&gt;n_40b119007c9f</title>
<path fill="none" stroke="#486581" stroke-width="1.4" d="M1943.84,-511.99C2131.01,-467.06 2527,-372 2527,-372 2527,-372 2563,-360 2563,-360 2563,-360 3657,-348 3657,-348 3657,-348 3693,-324 3693,-324 3693,-324 3843.65,-323.28 3963.74,-322.7"/>
<polygon fill="#486581" stroke="#486581" stroke-width="1.4" points="3963.98,-325.5 3971.97,-322.66 3963.95,-319.9 3963.98,-325.5"/>
<text text-anchor="start" x="2861.5" y="-371.2" font-family="DejaVu Sans" font-size="11.00" fill="#334e68">Читає та записує відповіді, бали,</text>
<text text-anchor="start" x="2851.5" y="-359.2" font-family="DejaVu Sans" font-size="11.00" fill="#334e68">ознаки й структурований результат</text>
</g>
<!-- n_78e6a86e3609&#45;&gt;n_eb4c5110ae64 -->
<g id="edge23" class="edge">
<title>n_78e6a86e3609&#45;&gt;n_eb4c5110ae64</title>
<path fill="none" stroke="#486581" stroke-width="1.4" d="M1979.02,-531.01C2104.53,-527.19 2275,-522 2275,-522 2275,-522 2527,-522 2527,-522 2527,-522 2712.64,-528.02 2840.53,-532.16"/>
<polygon fill="#486581" stroke="#486581" stroke-width="1.4" points="2840.78,-534.97 2848.87,-532.43 2840.97,-529.37 2840.78,-534.97"/>
<text text-anchor="start" x="2281" y="-537.2" font-family="DejaVu Sans" font-size="11.00" fill="#334e68">Створює контрольні завдання та строки</text>
<text text-anchor="start" x="2380.5" y="-525.2" font-family="DejaVu Sans" font-size="11.00" fill="#334e68">реакції</text>
</g>
<!-- n_eb4c5110ae64&#45;&gt;n_5f5685eeff97 -->
<g id="edge31" class="edge">
<title>n_eb4c5110ae64&#45;&gt;n_5f5685eeff97</title>
<path fill="none" stroke="#486581" stroke-width="1.4" d="M3071.28,-546.58C3091.84,-548.55 3107,-550 3107,-550 3107,-550 3693,-586 3693,-586 3693,-586 3856.84,-589.54 3979,-592.18"/>
<polygon fill="#486581" stroke="#486581" stroke-width="1.4" points="3979.29,-594.99 3987.35,-592.36 3979.41,-589.39 3979.29,-594.99"/>
<text text-anchor="start" x="3421" y="-598.2" font-family="DejaVu Sans" font-size="11.00" fill="#334e68">Реєструє створення, доставку та</text>
<text text-anchor="start" x="3459" y="-586.2" font-family="DejaVu Sans" font-size="11.00" fill="#334e68">результат завдання</text>
</g>
<!-- n_eb4c5110ae64&#45;&gt;n_b10c10dbc143 -->
<g id="edge30" class="edge">
<title>n_eb4c5110ae64&#45;&gt;n_b10c10dbc143</title>
<path fill="none" stroke="#486581" stroke-width="1.4" d="M3071.04,-523.1C3184.51,-509.81 3345,-491 3345,-491 3345,-491 3389.9,-480.36 3433.95,-469.92"/>
<polygon fill="#486581" stroke="#486581" stroke-width="1.4" points="3434.73,-472.61 3441.87,-468.04 3433.44,-467.16 3434.73,-472.61"/>
<text text-anchor="start" x="3108.5" y="-533.2" font-family="DejaVu Sans" font-size="11.00" fill="#334e68">Передає нагадування, події календаря,</text>
<text text-anchor="start" x="3129.5" y="-521.2" font-family="DejaVu Sans" font-size="11.00" fill="#334e68">телемедичні сеанси та ескалації</text>
</g>
<!-- n_f0d38fbc8ca4 -->
<g id="node16" class="node">
<title>n_f0d38fbc8ca4</title>
<path fill="#6c4ab6" stroke="#486581" stroke-width="1.5" d="M210,-295C210,-295 12,-295 12,-295 6,-295 0,-289 0,-283 0,-283 0,-271 0,-271 0,-265 6,-259 12,-259 12,-259 210,-259 210,-259 216,-259 222,-265 222,-271 222,-271 222,-283 222,-283 222,-289 216,-295 210,-295"/>
<text text-anchor="start" x="10" y="-279.4" font-family="DejaVu Sans" font-weight="bold" font-size="12.00" fill="#ffffff">Черговий кризовий фахівець</text>
<text text-anchor="start" x="91.5" y="-269" font-family="DejaVu Sans" font-size="10.00" fill="#ffffff">[Особа]</text>
</g>
<!-- n_f0d38fbc8ca4&#45;&gt;n_a8676803ace0 -->
<g id="edge4" class="edge">
<title>n_f0d38fbc8ca4&#45;&gt;n_a8676803ace0</title>
<path fill="none" stroke="#486581" stroke-width="1.4" d="M222.07,-288.44C335.85,-300.26 497,-317 497,-317 497,-317 571.05,-340.42 628.11,-358.48"/>
<polygon fill="#486581" stroke="#486581" stroke-width="1.4" points="627.57,-361.24 636.05,-360.98 629.26,-355.9 627.57,-361.24"/>
<text text-anchor="start" x="258.5" y="-332.2" font-family="DejaVu Sans" font-size="11.00" fill="#334e68">Приймає ескалацію та фіксує результат</text>
<text text-anchor="start" x="343.5" y="-320.2" font-family="DejaVu Sans" font-size="11.00" fill="#334e68">кризової дії</text>
</g>
<!-- n_9c1b2838ecd8 -->
<g id="node20" class="node">
<title>n_9c1b2838ecd8</title>
<path fill="#8a5a00" stroke="#486581" stroke-width="1.5" d="M182.5,-768C182.5,-768 39.5,-768 39.5,-768 33.5,-768 27.5,-762 27.5,-756 27.5,-756 27.5,-744 27.5,-744 27.5,-738 33.5,-732 39.5,-732 39.5,-732 182.5,-732 182.5,-732 188.5,-732 194.5,-738 194.5,-744 194.5,-744 194.5,-756 194.5,-756 194.5,-762 188.5,-768 182.5,-768"/>
<text text-anchor="start" x="37.5" y="-752.4" font-family="DejaVu Sans" font-weight="bold" font-size="12.00" fill="#ffffff">Клінічний методолог</text>
<text text-anchor="start" x="91.5" y="-742" font-family="DejaVu Sans" font-size="10.00" fill="#ffffff">[Особа]</text>
</g>
<!-- n_9c1b2838ecd8&#45;&gt;n_d23827c92006 -->
<g id="edge5" class="edge">
<title>n_9c1b2838ecd8&#45;&gt;n_d23827c92006</title>
<path fill="none" stroke="#486581" stroke-width="1.4" d="M194.81,-748.3C227.76,-747.62 258,-747 258,-747 258,-747 497,-747 497,-747 497,-747 549.25,-747.8 599.8,-748.57"/>
<polygon fill="#486581" stroke="#486581" stroke-width="1.4" points="599.84,-751.37 607.89,-748.7 599.93,-745.78 599.84,-751.37"/>
<text text-anchor="start" x="285.5" y="-762.2" font-family="DejaVu Sans" font-size="11.00" fill="#334e68">Створює і погоджує формальні</text>
<text text-anchor="start" x="308" y="-750.2" font-family="DejaVu Sans" font-size="11.00" fill="#334e68">визначення алгоритмів</text>
</g>
<!-- n_b1b0b8de8a62 -->
<g id="node21" class="node">
<title>n_b1b0b8de8a62</title>
<path fill="#084c61" stroke="#486581" stroke-width="1.5" d="M135.5,-499C135.5,-499 86.5,-499 86.5,-499 80.5,-499 74.5,-493 74.5,-487 74.5,-487 74.5,-475 74.5,-475 74.5,-469 80.5,-463 86.5,-463 86.5,-463 135.5,-463 135.5,-463 141.5,-463 147.5,-469 147.5,-475 147.5,-475 147.5,-487 147.5,-487 147.5,-493 141.5,-499 135.5,-499"/>
<text text-anchor="start" x="84.5" y="-483.4" font-family="DejaVu Sans" font-weight="bold" font-size="12.00" fill="#ffffff">Пацієнт</text>
<text text-anchor="start" x="91.5" y="-473" font-family="DejaVu Sans" font-size="10.00" fill="#ffffff">[Особа]</text>
</g>
<!-- n_b1b0b8de8a62&#45;&gt;n_8a923be70a11 -->
<g id="edge1" class="edge">
<title>n_b1b0b8de8a62&#45;&gt;n_8a923be70a11</title>
<path fill="none" stroke="#486581" stroke-width="1.4" d="M147.91,-478.9C221.45,-474.59 393.35,-464.54 524.6,-456.85"/>
<polygon fill="#486581" stroke="#486581" stroke-width="1.4" points="524.97,-459.64 532.79,-456.38 524.64,-454.05 524.97,-459.64"/>
<text text-anchor="start" x="268.5" y="-498.2" font-family="DejaVu Sans" font-size="11.00" fill="#334e68">Працює через доступний текстовий,</text>
<text text-anchor="start" x="259.5" y="-486.2" font-family="DejaVu Sans" font-size="11.00" fill="#334e68">голосовий, відео або інший дозволений</text>
<text text-anchor="start" x="347" y="-474.2" font-family="DejaVu Sans" font-size="11.00" fill="#334e68">інтерфейс</text>
</g>
<!-- n_f465f9f86773 -->
<g id="node22" class="node">
<title>n_f465f9f86773</title>
<path fill="#6c4ab6" stroke="#486581" stroke-width="1.5" d="M160,-431C160,-431 62,-431 62,-431 56,-431 50,-425 50,-419 50,-419 50,-407 50,-407 50,-401 56,-395 62,-395 62,-395 160,-395 160,-395 166,-395 172,-401 172,-407 172,-407 172,-419 172,-419 172,-425 166,-431 160,-431"/>
<text text-anchor="start" x="60" y="-415.4" font-family="DejaVu Sans" font-weight="bold" font-size="12.00" fill="#ffffff">Лікар&#45;психіатр</text>
<text text-anchor="start" x="91.5" y="-405" font-family="DejaVu Sans" font-size="10.00" fill="#ffffff">[Особа]</text>
</g>
<!-- n_f465f9f86773&#45;&gt;n_a8676803ace0 -->
<g id="edge2" class="edge">
<title>n_f465f9f86773&#45;&gt;n_a8676803ace0</title>
<path fill="none" stroke="#486581" stroke-width="1.4" d="M172.26,-409.47C265.19,-404.04 445.51,-393.48 567.59,-386.34"/>
<polygon fill="#486581" stroke="#486581" stroke-width="1.4" points="568.09,-389.11 575.91,-385.85 567.76,-383.52 568.09,-389.11"/>
<text text-anchor="start" x="260" y="-418.2" font-family="DejaVu Sans" font-size="11.00" fill="#334e68">Переглядає дані, пояснення, ризики та</text>
<text text-anchor="start" x="290" y="-406.2" font-family="DejaVu Sans" font-size="11.00" fill="#334e68">підтверджує клінічні рішення</text>
</g>
<!-- n_487bf0f57271 -->
<g id="node23" class="node">
<title>n_487bf0f57271</title>
<path fill="#6c4ab6" stroke="#486581" stroke-width="1.5" d="M198.5,-363C198.5,-363 23.5,-363 23.5,-363 17.5,-363 11.5,-357 11.5,-351 11.5,-351 11.5,-339 11.5,-339 11.5,-333 17.5,-327 23.5,-327 23.5,-327 198.5,-327 198.5,-327 204.5,-327 210.5,-333 210.5,-339 210.5,-339 210.5,-351 210.5,-351 210.5,-357 204.5,-363 198.5,-363"/>
<text text-anchor="start" x="21.5" y="-347.4" font-family="DejaVu Sans" font-weight="bold" font-size="12.00" fill="#ffffff">Психолог / психотерапевт</text>
<text text-anchor="start" x="91.5" y="-337" font-family="DejaVu Sans" font-size="10.00" fill="#ffffff">[Особа]</text>
</g>
<!-- n_487bf0f57271&#45;&gt;n_a8676803ace0 -->
<g id="edge3" class="edge">
<title>n_487bf0f57271&#45;&gt;n_a8676803ace0</title>
<path fill="none" stroke="#486581" stroke-width="1.4" d="M210.65,-348.33C324.72,-352.18 497,-358 497,-358 497,-358 529.26,-361.46 567.61,-365.57"/>
<polygon fill="#486581" stroke="#486581" stroke-width="1.4" points="567.62,-368.38 575.87,-366.45 568.22,-362.81 567.62,-368.38"/>
<text text-anchor="start" x="259" y="-373.2" font-family="DejaVu Sans" font-size="11.00" fill="#334e68">Проводить оцінювання та коригує план</text>
<text text-anchor="start" x="299" y="-361.2" font-family="DejaVu Sans" font-size="11.00" fill="#334e68">психологічного супроводу</text>
</g>
<!-- n_c7796133ac1d -->
<g id="node24" class="node">
<title>n_c7796133ac1d</title>
<path fill="#4a5568" stroke="#486581" stroke-width="1.5" d="M209.5,-863C209.5,-863 12.5,-863 12.5,-863 6.5,-863 0.5,-857 0.5,-851 0.5,-851 0.5,-829 0.5,-829 0.5,-823 6.5,-817 12.5,-817 12.5,-817 209.5,-817 209.5,-817 215.5,-817 221.5,-823 221.5,-829 221.5,-829 221.5,-851 221.5,-851 221.5,-857 215.5,-863 209.5,-863"/>
<text text-anchor="start" x="10.5" y="-848.4" font-family="DejaVu Sans" font-weight="bold" font-size="12.00" fill="#ffffff">Адміністратор платформи та</text>
<text text-anchor="start" x="82.5" y="-836.4" font-family="DejaVu Sans" font-weight="bold" font-size="12.00" fill="#ffffff">безпеки</text>
<text text-anchor="start" x="91.5" y="-826" font-family="DejaVu Sans" font-size="10.00" fill="#ffffff">[Особа]</text>
</g>
<!-- n_c7796133ac1d&#45;&gt;n_d23827c92006 -->
<g id="edge7" class="edge">
<title>n_c7796133ac1d&#45;&gt;n_d23827c92006</title>
<path fill="none" stroke="#486581" stroke-width="1.4" d="M216.94,-817C240.15,-811.91 258,-808 258,-808 258,-808 471.71,-779.51 599.54,-762.46"/>
<polygon fill="#486581" stroke="#486581" stroke-width="1.4" points="600.28,-765.19 607.84,-761.36 599.54,-759.64 600.28,-765.19"/>
<text text-anchor="start" x="258" y="-823.2" font-family="DejaVu Sans" font-size="11.00" fill="#334e68">Керує технічними політиками публікації</text>
<text text-anchor="start" x="332" y="-811.2" font-family="DejaVu Sans" font-size="11.00" fill="#334e68">та відкликання</text>
</g>
<!-- n_c7796133ac1d&#45;&gt;n_5f5685eeff97 -->
<g id="edge6" class="edge">
<title>n_c7796133ac1d&#45;&gt;n_5f5685eeff97</title>
<path fill="none" stroke="#486581" stroke-width="1.4" d="M221.62,-843.21C389.99,-848.13 693,-857 693,-857 693,-857 693,-857 3520,-857 3520,-857 3936,-698 3936,-698 3936,-698 4012.08,-652.83 4063.48,-622.32"/>
<polygon fill="#486581" stroke="#486581" stroke-width="1.4" points="4065.11,-624.61 4070.56,-618.12 4062.25,-619.79 4065.11,-624.61"/>
<text text-anchor="start" x="2015" y="-872.2" font-family="DejaVu Sans" font-size="11.00" fill="#334e68">Контролює журнали, події безпеки та</text>
<text text-anchor="start" x="2075.5" y="-860.2" font-family="DejaVu Sans" font-size="11.00" fill="#334e68">технічні метрики</text>
</g>
</g>
</svg>
