<?xml version="1.0" encoding="UTF-8" standalone="no"?>
<!DOCTYPE svg PUBLIC "-//W3C//DTD SVG 1.1//EN"
 "http://www.w3.org/Graphics/SVG/1.1/DTD/svg11.dtd">
<!-- Generated by graphviz version 2.42.4 (0)
 -->
<!-- Title: G Pages: 1 -->
<svg width="1902pt" height="1497pt"
 viewBox="0.00 0.00 1902.40 1496.90" xmlns="http://www.w3.org/2000/svg" xmlns:xlink="http://www.w3.org/1999/xlink">
<g id="graph0" class="graph" transform="scale(1 1) rotate(0) translate(25.2 1471.7)">
<title>G</title>
<polygon fill="white" stroke="transparent" points="-25.2,25.2 -25.2,-1471.7 1877.2,-1471.7 1877.2,25.2 -25.2,25.2"/>
<text text-anchor="start" x="31.5" y="-1432.3" font-family="DejaVu Sans" font-weight="bold" font-size="14.00">C3.07 — Компоненти детермінованого рушія сценаріїв</text>
<text text-anchor="start" x="8" y="-1419.9" font-family="DejaVu Sans" font-size="12.00">Компоненти універсального детермінованого виконання клінічного сценарію.</text>
<g id="clust1" class="cluster">
<title>cluster_scope</title>
<path fill="white" stroke="#486581" stroke-width="2.2" d="M485,-281.75C485,-281.75 938,-281.75 938,-281.75 944,-281.75 950,-287.75 950,-293.75 950,-293.75 950,-1392.5 950,-1392.5 950,-1398.5 944,-1404.5 938,-1404.5 938,-1404.5 485,-1404.5 485,-1404.5 479,-1404.5 473,-1398.5 473,-1392.5 473,-1392.5 473,-293.75 473,-293.75 473,-287.75 479,-281.75 485,-281.75"/>
<text text-anchor="start" x="481" y="-1390.3" font-family="DejaVu Sans" font-weight="bold" font-size="14.00">Детермінований рушій сценаріїв</text>
</g>
<!-- n_0fca791e572f -->
<g id="node1" class="node">
<title>n_0fca791e572f</title>
<path fill="#f4f7fa" stroke="#486581" stroke-width="1.5" d="M904.5,-1236.12C904.5,-1236.12 745.5,-1236.12 745.5,-1236.12 739.5,-1236.12 733.5,-1230.12 733.5,-1224.12 733.5,-1224.12 733.5,-1212.12 733.5,-1212.12 733.5,-1206.12 739.5,-1200.12 745.5,-1200.12 745.5,-1200.12 904.5,-1200.12 904.5,-1200.12 910.5,-1200.12 916.5,-1206.12 916.5,-1212.12 916.5,-1212.12 916.5,-1224.12 916.5,-1224.12 916.5,-1230.12 910.5,-1236.12 904.5,-1236.12"/>
<text text-anchor="start" x="755.5" y="-1220.53" font-family="DejaVu Sans" font-weight="bold" font-size="12.00" fill="#18324a">Валідатор відповіді</text>
<text text-anchor="start" x="743.5" y="-1210.12" font-family="DejaVu Sans" font-size="10.00" fill="#18324a">[Компонент · Validation service]</text>
</g>
<!-- n_7d0ed53f62c1 -->
<g id="node9" class="node">
<title>n_7d0ed53f62c1</title>
<path fill="#f4f7fa" stroke="#c92a2a" stroke-width="3" d="M682,-1098.75C682,-1098.75 510,-1098.75 510,-1098.75 504,-1098.75 498,-1092.75 498,-1086.75 498,-1086.75 498,-1074.75 498,-1074.75 498,-1068.75 504,-1062.75 510,-1062.75 510,-1062.75 682,-1062.75 682,-1062.75 688,-1062.75 694,-1068.75 694,-1074.75 694,-1074.75 694,-1086.75 694,-1086.75 694,-1092.75 688,-1098.75 682,-1098.75"/>
<text text-anchor="start" x="523.5" y="-1083.15" font-family="DejaVu Sans" font-weight="bold" font-size="12.00" fill="#18324a">Інтерпретатор станів</text>
<text text-anchor="start" x="508" y="-1072.75" font-family="DejaVu Sans" font-size="10.00" fill="#18324a">[Компонент · Finite&#45;state machine]</text>
</g>
<!-- n_0fca791e572f&#45;&gt;n_7d0ed53f62c1 -->
<g id="edge14" class="edge">
<title>n_0fca791e572f&#45;&gt;n_7d0ed53f62c1</title>
<path fill="none" stroke="#486581" stroke-width="1.4" d="M803.04,-1200.06C771.99,-1175.93 719,-1134.75 719,-1134.75 719,-1134.75 677.99,-1117.08 643.33,-1102.14"/>
<polygon fill="#486581" stroke="#486581" stroke-width="1.4" points="644.05,-1099.41 635.6,-1098.81 641.83,-1104.55 644.05,-1099.41"/>
<text text-anchor="start" x="747" y="-1149.95" font-family="DejaVu Sans" font-size="11.00" fill="#334e68">Передає типізовану валідовану</text>
<text text-anchor="start" x="812.5" y="-1137.95" font-family="DejaVu Sans" font-size="11.00" fill="#334e68">відповідь</text>
</g>
<!-- n_ed8ce554b27d -->
<g id="node2" class="node">
<title>n_ed8ce554b27d</title>
<path fill="#f4f7fa" stroke="#c92a2a" stroke-width="3" d="M676.5,-858.75C676.5,-858.75 515.5,-858.75 515.5,-858.75 509.5,-858.75 503.5,-852.75 503.5,-846.75 503.5,-846.75 503.5,-834.75 503.5,-834.75 503.5,-828.75 509.5,-822.75 515.5,-822.75 515.5,-822.75 676.5,-822.75 676.5,-822.75 682.5,-822.75 688.5,-828.75 688.5,-834.75 688.5,-834.75 688.5,-846.75 688.5,-846.75 688.5,-852.75 682.5,-858.75 676.5,-858.75"/>
<text text-anchor="start" x="525" y="-843.15" font-family="DejaVu Sans" font-weight="bold" font-size="12.00" fill="#18324a">Оцінювач переходів</text>
<text text-anchor="start" x="513.5" y="-832.75" font-family="DejaVu Sans" font-size="10.00" fill="#18324a">[Компонент · Expression engine]</text>
</g>
<!-- n_85473b992a75 -->
<g id="node8" class="node">
<title>n_85473b992a75</title>
<path fill="#f4f7fa" stroke="#c92a2a" stroke-width="3" d="M690.5,-726.75C690.5,-726.75 501.5,-726.75 501.5,-726.75 495.5,-726.75 489.5,-720.75 489.5,-714.75 489.5,-714.75 489.5,-702.75 489.5,-702.75 489.5,-696.75 495.5,-690.75 501.5,-690.75 501.5,-690.75 690.5,-690.75 690.5,-690.75 696.5,-690.75 702.5,-696.75 702.5,-702.75 702.5,-702.75 702.5,-714.75 702.5,-714.75 702.5,-720.75 696.5,-726.75 690.5,-726.75"/>
<text text-anchor="start" x="530" y="-711.15" font-family="DejaVu Sans" font-weight="bold" font-size="12.00" fill="#18324a">Калькулятор балів</text>
<text text-anchor="start" x="499.5" y="-700.75" font-family="DejaVu Sans" font-size="10.00" fill="#18324a">[Компонент · Deterministic calculator]</text>
</g>
<!-- n_ed8ce554b27d&#45;&gt;n_85473b992a75 -->
<g id="edge16" class="edge">
<title>n_ed8ce554b27d&#45;&gt;n_85473b992a75</title>
<path fill="none" stroke="#486581" stroke-width="1.4" d="M596,-822.49C596,-800.15 596,-761.04 596,-735.27"/>
<polygon fill="#486581" stroke="#486581" stroke-width="1.4" points="598.8,-735.08 596,-727.08 593.2,-735.08 598.8,-735.08"/>
<text text-anchor="start" x="596" y="-777.95" font-family="DejaVu Sans" font-size="11.00" fill="#334e68">Передає релевантні відповіді для</text>
<text text-anchor="start" x="660.5" y="-765.95" font-family="DejaVu Sans" font-size="11.00" fill="#334e68">обчислення</text>
</g>
<!-- n_a2ddeaf00067 -->
<g id="node3" class="node">
<title>n_a2ddeaf00067</title>
<path fill="#f4f7fa" stroke="#486581" stroke-width="1.5" d="M675,-1373.5C675,-1373.5 495,-1373.5 495,-1373.5 489,-1373.5 483,-1367.5 483,-1361.5 483,-1361.5 483,-1349.5 483,-1349.5 483,-1343.5 489,-1337.5 495,-1337.5 495,-1337.5 675,-1337.5 675,-1337.5 681,-1337.5 687,-1343.5 687,-1349.5 687,-1349.5 687,-1361.5 687,-1361.5 687,-1367.5 681,-1373.5 675,-1373.5"/>
<text text-anchor="start" x="493" y="-1357.9" font-family="DejaVu Sans" font-weight="bold" font-size="12.00" fill="#18324a">Завантажувач визначення</text>
<text text-anchor="start" x="512" y="-1347.5" font-family="DejaVu Sans" font-size="10.00" fill="#18324a">[Компонент · Registry client]</text>
</g>
<!-- n_cceecca00082 -->
<g id="node7" class="node">
<title>n_cceecca00082</title>
<path fill="#f4f7fa" stroke="#c92a2a" stroke-width="3" d="M681.5,-1236.12C681.5,-1236.12 492.5,-1236.12 492.5,-1236.12 486.5,-1236.12 480.5,-1230.12 480.5,-1224.12 480.5,-1224.12 480.5,-1212.12 480.5,-1212.12 480.5,-1206.12 486.5,-1200.12 492.5,-1200.12 492.5,-1200.12 681.5,-1200.12 681.5,-1200.12 687.5,-1200.12 693.5,-1206.12 693.5,-1212.12 693.5,-1212.12 693.5,-1224.12 693.5,-1224.12 693.5,-1230.12 687.5,-1236.12 681.5,-1236.12"/>
<text text-anchor="start" x="509" y="-1220.53" font-family="DejaVu Sans" font-weight="bold" font-size="12.00" fill="#18324a">Валідатор визначення</text>
<text text-anchor="start" x="490.5" y="-1210.12" font-family="DejaVu Sans" font-size="10.00" fill="#18324a">[Компонент · JSON Schema validation]</text>
</g>
<!-- n_a2ddeaf00067&#45;&gt;n_cceecca00082 -->
<g id="edge11" class="edge">
<title>n_a2ddeaf00067&#45;&gt;n_cceecca00082</title>
<path fill="none" stroke="#486581" stroke-width="1.4" d="M585.25,-1337.35C585.6,-1313.86 586.23,-1271.48 586.63,-1244.36"/>
<polygon fill="#486581" stroke="#486581" stroke-width="1.4" points="589.43,-1244.17 586.75,-1236.13 583.83,-1244.09 589.43,-1244.17"/>
<text text-anchor="start" x="586" y="-1292.7" font-family="DejaVu Sans" font-size="11.00" fill="#334e68">Передає визначення на перевірку</text>
<text text-anchor="start" x="638.5" y="-1280.7" font-family="DejaVu Sans" font-size="11.00" fill="#334e68">підпису й схеми</text>
</g>
<!-- n_ace1c56edb4b -->
<g id="node11" class="node">
<title>n_ace1c56edb4b</title>
<path fill="#edf2f7" stroke="#486581" stroke-width="1.5" d="M419,-1237.15C419,-1239.48 372.39,-1241.38 315,-1241.38 257.61,-1241.38 211,-1239.48 211,-1237.15 211,-1237.15 211,-1199.1 211,-1199.1 211,-1196.77 257.61,-1194.87 315,-1194.87 372.39,-1194.87 419,-1196.77 419,-1199.1 419,-1199.1 419,-1237.15 419,-1237.15"/>
<path fill="none" stroke="#486581" stroke-width="1.5" d="M419,-1237.15C419,-1234.82 372.39,-1232.92 315,-1232.92 257.61,-1232.92 211,-1234.82 211,-1237.15"/>
<text text-anchor="start" x="251.5" y="-1220.53" font-family="DejaVu Sans" font-weight="bold" font-size="12.00" fill="#1a202c">Реєстр алгоритмів</text>
<text text-anchor="start" x="221" y="-1210.12" font-family="DejaVu Sans" font-size="10.00" fill="#1a202c">[Сховище даних · Versioned registry]</text>
</g>
<!-- n_a2ddeaf00067&#45;&gt;n_ace1c56edb4b -->
<g id="edge10" class="edge">
<title>n_a2ddeaf00067&#45;&gt;n_ace1c56edb4b</title>
<path fill="none" stroke="#486581" stroke-width="1.4" d="M506.78,-1337.44C435.74,-1321.95 342,-1301.5 342,-1301.5 342,-1301.5 332.61,-1272.86 324.91,-1249.36"/>
<polygon fill="#486581" stroke="#486581" stroke-width="1.4" points="327.53,-1248.36 322.38,-1241.63 322.21,-1250.11 327.53,-1248.36"/>
<text text-anchor="start" x="342" y="-1286.7" font-family="DejaVu Sans" font-size="11.00" fill="#334e68">Отримує закріплену версію визначення</text>
</g>
<!-- n_f441efa4a724 -->
<g id="node4" class="node">
<title>n_f441efa4a724</title>
<path fill="#f4f7fa" stroke="#486581" stroke-width="1.5" d="M662,-462.75C662,-462.75 510,-462.75 510,-462.75 504,-462.75 498,-456.75 498,-450.75 498,-450.75 498,-438.75 498,-438.75 498,-432.75 504,-426.75 510,-426.75 510,-426.75 662,-426.75 662,-426.75 668,-426.75 674,-432.75 674,-438.75 674,-438.75 674,-450.75 674,-450.75 674,-456.75 668,-462.75 662,-462.75"/>
<text text-anchor="start" x="510.5" y="-447.15" font-family="DejaVu Sans" font-weight="bold" font-size="12.00" fill="#18324a">Формувач результату</text>
<text text-anchor="start" x="508" y="-436.75" font-family="DejaVu Sans" font-size="10.00" fill="#18324a">[Компонент · Mapping service]</text>
</g>
<!-- n_8a43ae9e62b0 -->
<g id="node5" class="node">
<title>n_8a43ae9e62b0</title>
<path fill="#f4f7fa" stroke="#486581" stroke-width="1.5" d="M669.5,-325.75C669.5,-325.75 502.5,-325.75 502.5,-325.75 496.5,-325.75 490.5,-319.75 490.5,-313.75 490.5,-313.75 490.5,-301.75 490.5,-301.75 490.5,-295.75 496.5,-289.75 502.5,-289.75 502.5,-289.75 669.5,-289.75 669.5,-289.75 675.5,-289.75 681.5,-295.75 681.5,-301.75 681.5,-301.75 681.5,-313.75 681.5,-313.75 681.5,-319.75 675.5,-325.75 669.5,-325.75"/>
<text text-anchor="start" x="510.5" y="-310.15" font-family="DejaVu Sans" font-weight="bold" font-size="12.00" fill="#18324a">Фіксація походження</text>
<text text-anchor="start" x="500.5" y="-299.75" font-family="DejaVu Sans" font-size="10.00" fill="#18324a">[Компонент · Provenance service]</text>
</g>
<!-- n_f441efa4a724&#45;&gt;n_8a43ae9e62b0 -->
<g id="edge19" class="edge">
<title>n_f441efa4a724&#45;&gt;n_8a43ae9e62b0</title>
<path fill="none" stroke="#486581" stroke-width="1.4" d="M586,-426.65C586,-403.35 586,-361.42 586,-334.36"/>
<polygon fill="#486581" stroke="#486581" stroke-width="1.4" points="588.8,-334.14 586,-326.14 583.2,-334.14 588.8,-334.14"/>
<text text-anchor="start" x="586" y="-375.95" font-family="DejaVu Sans" font-size="11.00" fill="#334e68">Передає структурований результат</text>
</g>
<!-- n_c210e7db8afd -->
<g id="node13" class="node">
<title>n_c210e7db8afd</title>
<path fill="#2b6cb0" stroke="#486581" stroke-width="1.5" d="M387,-330.75C387,-330.75 159,-330.75 159,-330.75 153,-330.75 147,-324.75 147,-318.75 147,-318.75 147,-296.75 147,-296.75 147,-290.75 153,-284.75 159,-284.75 159,-284.75 387,-284.75 387,-284.75 393,-284.75 399,-290.75 399,-296.75 399,-296.75 399,-318.75 399,-318.75 399,-324.75 393,-330.75 387,-330.75"/>
<text text-anchor="start" x="178" y="-316.15" font-family="DejaVu Sans" font-weight="bold" font-size="12.00" fill="#ffffff">Сервіс підтримки клінічних</text>
<text text-anchor="start" x="248.5" y="-304.15" font-family="DejaVu Sans" font-weight="bold" font-size="12.00" fill="#ffffff">рішень</text>
<text text-anchor="start" x="157" y="-293.75" font-family="DejaVu Sans" font-size="10.00" fill="#ffffff">[Контейнер · Clinical decision support service]</text>
</g>
<!-- n_f441efa4a724&#45;&gt;n_c210e7db8afd -->
<g id="edge23" class="edge">
<title>n_f441efa4a724&#45;&gt;n_c210e7db8afd</title>
<path fill="none" stroke="#486581" stroke-width="1.4" d="M509.06,-426.69C439.2,-411.2 347,-390.75 347,-390.75 347,-390.75 320.14,-360.99 298.79,-337.33"/>
<polygon fill="#486581" stroke="#486581" stroke-width="1.4" points="300.66,-335.22 293.22,-331.16 296.5,-338.97 300.66,-335.22"/>
<text text-anchor="start" x="347" y="-381.95" font-family="DejaVu Sans" font-size="11.00" fill="#334e68">Передає структурований результат до</text>
<text text-anchor="start" x="386.5" y="-369.95" font-family="DejaVu Sans" font-size="11.00" fill="#334e68">сервісу підтримки рішень</text>
</g>
<!-- n_5f5685eeff97 -->
<g id="node12" class="node">
<title>n_5f5685eeff97</title>
<path fill="#4a5568" stroke="#486581" stroke-width="1.5" d="M647,-46C647,-46 425,-46 425,-46 419,-46 413,-40 413,-34 413,-34 413,-12 413,-12 413,-6 419,0 425,0 425,0 647,0 647,0 653,0 659,-6 659,-12 659,-12 659,-34 659,-34 659,-40 653,-46 647,-46"/>
<text text-anchor="start" x="478" y="-31.4" font-family="DejaVu Sans" font-weight="bold" font-size="12.00" fill="#ffffff">Сервіс аудиту та</text>
<text text-anchor="start" x="470.5" y="-19.4" font-family="DejaVu Sans" font-weight="bold" font-size="12.00" fill="#ffffff">спостережуваності</text>
<text text-anchor="start" x="423" y="-9" font-family="DejaVu Sans" font-size="10.00" fill="#ffffff">[Контейнер · Audit and observability service]</text>
</g>
<!-- n_8a43ae9e62b0&#45;&gt;n_5f5685eeff97 -->
<g id="edge21" class="edge">
<title>n_8a43ae9e62b0&#45;&gt;n_5f5685eeff97</title>
<path fill="none" stroke="#486581" stroke-width="1.4" d="M577.46,-289.66C568.9,-272.55 557,-248.75 557,-248.75 557,-248.75 544.6,-116 538.85,-54.55"/>
<polygon fill="#486581" stroke="#486581" stroke-width="1.4" points="541.62,-54.08 538.09,-46.37 536.05,-54.6 541.62,-54.08"/>
<text text-anchor="start" x="551" y="-162.57" font-family="DejaVu Sans" font-size="11.00" fill="#334e68">Фіксує відтворюваний ланцюг виконання</text>
</g>
<!-- n_40b119007c9f -->
<g id="node14" class="node">
<title>n_40b119007c9f</title>
<path fill="#edf2f7" stroke="#486581" stroke-width="1.5" d="M1177.5,-184.4C1177.5,-186.73 1115.42,-188.63 1039,-188.63 962.58,-188.63 900.5,-186.73 900.5,-184.4 900.5,-184.4 900.5,-146.35 900.5,-146.35 900.5,-144.02 962.58,-142.12 1039,-142.12 1115.42,-142.12 1177.5,-144.02 1177.5,-146.35 1177.5,-146.35 1177.5,-184.4 1177.5,-184.4"/>
<path fill="none" stroke="#486581" stroke-width="1.5" d="M1177.5,-184.4C1177.5,-182.07 1115.42,-180.17 1039,-180.17 962.58,-180.17 900.5,-182.07 900.5,-184.4"/>
<text text-anchor="start" x="977" y="-167.78" font-family="DejaVu Sans" font-weight="bold" font-size="12.00" fill="#1a202c">Клінічне сховище</text>
<text text-anchor="start" x="910.5" y="-157.38" font-family="DejaVu Sans" font-size="10.00" fill="#1a202c">[Сховище даних · FHIR&#45;oriented clinical repository]</text>
</g>
<!-- n_8a43ae9e62b0&#45;&gt;n_40b119007c9f -->
<g id="edge20" class="edge">
<title>n_8a43ae9e62b0&#45;&gt;n_40b119007c9f</title>
<path fill="none" stroke="#486581" stroke-width="1.4" d="M657.27,-289.74C728.97,-272.63 829,-248.75 829,-248.75 829,-248.75 912.67,-215.93 974.38,-191.72"/>
<polygon fill="#486581" stroke="#486581" stroke-width="1.4" points="975.75,-194.19 982.17,-188.67 973.7,-188.98 975.75,-194.19"/>
<text text-anchor="start" x="885" y="-233.95" font-family="DejaVu Sans" font-size="11.00" fill="#334e68">Зберігає результат і походження</text>
</g>
<!-- n_26bad87451f0 -->
<g id="node6" class="node">
<title>n_26bad87451f0</title>
<path fill="#f4f7fa" stroke="#c92a2a" stroke-width="3" d="M699.5,-594.75C699.5,-594.75 492.5,-594.75 492.5,-594.75 486.5,-594.75 480.5,-588.75 480.5,-582.75 480.5,-582.75 480.5,-570.75 480.5,-570.75 480.5,-564.75 486.5,-558.75 492.5,-558.75 492.5,-558.75 699.5,-558.75 699.5,-558.75 705.5,-558.75 711.5,-564.75 711.5,-570.75 711.5,-570.75 711.5,-582.75 711.5,-582.75 711.5,-588.75 705.5,-594.75 699.5,-594.75"/>
<text text-anchor="start" x="490.5" y="-579.15" font-family="DejaVu Sans" font-weight="bold" font-size="12.00" fill="#18324a">Оцінювач червоних прапорців</text>
<text text-anchor="start" x="526.5" y="-568.75" font-family="DejaVu Sans" font-size="10.00" fill="#18324a">[Компонент · Rules engine]</text>
</g>
<!-- n_26bad87451f0&#45;&gt;n_f441efa4a724 -->
<g id="edge18" class="edge">
<title>n_26bad87451f0&#45;&gt;n_f441efa4a724</title>
<path fill="none" stroke="#486581" stroke-width="1.4" d="M594.67,-558.49C592.95,-536.15 589.95,-497.04 587.96,-471.27"/>
<polygon fill="#486581" stroke="#486581" stroke-width="1.4" points="590.74,-470.85 587.33,-463.08 585.16,-471.28 590.74,-470.85"/>
<text text-anchor="start" x="591" y="-513.95" font-family="DejaVu Sans" font-size="11.00" fill="#334e68">Передає прапорці, пріоритет і</text>
<text text-anchor="start" x="648" y="-501.95" font-family="DejaVu Sans" font-size="11.00" fill="#334e68">пояснення</text>
</g>
<!-- n_cceecca00082&#45;&gt;n_7d0ed53f62c1 -->
<g id="edge12" class="edge">
<title>n_cceecca00082&#45;&gt;n_7d0ed53f62c1</title>
<path fill="none" stroke="#486581" stroke-width="1.4" d="M564.31,-1199.93C541.6,-1182.71 510,-1158.75 510,-1158.75 510,-1158.75 510,-1134.75 510,-1134.75 510,-1134.75 537.48,-1117.81 561.37,-1103.09"/>
<polygon fill="#486581" stroke="#486581" stroke-width="1.4" points="562.97,-1105.39 568.32,-1098.81 560.04,-1100.62 562.97,-1105.39"/>
<text text-anchor="start" x="510" y="-1143.95" font-family="DejaVu Sans" font-size="11.00" fill="#334e68">Активує лише валідне визначення</text>
</g>
<!-- n_85473b992a75&#45;&gt;n_26bad87451f0 -->
<g id="edge17" class="edge">
<title>n_85473b992a75&#45;&gt;n_26bad87451f0</title>
<path fill="none" stroke="#486581" stroke-width="1.4" d="M596,-690.49C596,-668.15 596,-629.04 596,-603.27"/>
<polygon fill="#486581" stroke="#486581" stroke-width="1.4" points="598.8,-603.08 596,-595.08 593.2,-603.08 598.8,-603.08"/>
<text text-anchor="start" x="596" y="-645.95" font-family="DejaVu Sans" font-size="11.00" fill="#334e68">Передає бали та окремі критичні</text>
<text text-anchor="start" x="668" y="-633.95" font-family="DejaVu Sans" font-size="11.00" fill="#334e68">відповіді</text>
</g>
<!-- n_5a67c5f4b68e -->
<g id="node10" class="node">
<title>n_5a67c5f4b68e</title>
<path fill="#f4f7fa" stroke="#486581" stroke-width="1.5" d="M690.5,-978.75C690.5,-978.75 501.5,-978.75 501.5,-978.75 495.5,-978.75 489.5,-972.75 489.5,-966.75 489.5,-966.75 489.5,-954.75 489.5,-954.75 489.5,-948.75 495.5,-942.75 501.5,-942.75 501.5,-942.75 690.5,-942.75 690.5,-942.75 696.5,-942.75 702.5,-948.75 702.5,-954.75 702.5,-954.75 702.5,-966.75 702.5,-966.75 702.5,-972.75 696.5,-978.75 690.5,-978.75"/>
<text text-anchor="start" x="499.5" y="-963.15" font-family="DejaVu Sans" font-weight="bold" font-size="12.00" fill="#18324a">Селектор наступного кроку</text>
<text text-anchor="start" x="526.5" y="-952.75" font-family="DejaVu Sans" font-size="10.00" fill="#18324a">[Компонент · Rules engine]</text>
</g>
<!-- n_7d0ed53f62c1&#45;&gt;n_5a67c5f4b68e -->
<g id="edge13" class="edge">
<title>n_7d0ed53f62c1&#45;&gt;n_5a67c5f4b68e</title>
<path fill="none" stroke="#486581" stroke-width="1.4" d="M596,-1062.59C596,-1042.75 596,-1009.91 596,-987.12"/>
<polygon fill="#486581" stroke="#486581" stroke-width="1.4" points="598.8,-986.93 596,-978.93 593.2,-986.93 598.8,-986.93"/>
<text text-anchor="start" x="596" y="-1017.95" font-family="DejaVu Sans" font-size="11.00" fill="#334e68">Запитує наступний допустимий крок</text>
</g>
<!-- n_5a67c5f4b68e&#45;&gt;n_ed8ce554b27d -->
<g id="edge15" class="edge">
<title>n_5a67c5f4b68e&#45;&gt;n_ed8ce554b27d</title>
<path fill="none" stroke="#486581" stroke-width="1.4" d="M596,-942.59C596,-922.75 596,-889.91 596,-867.12"/>
<polygon fill="#486581" stroke="#486581" stroke-width="1.4" points="598.8,-866.93 596,-858.93 593.2,-866.93 598.8,-866.93"/>
<text text-anchor="start" x="596" y="-897.95" font-family="DejaVu Sans" font-size="11.00" fill="#334e68">Перевіряє умови переходів</text>
</g>
<!-- n_c210e7db8afd&#45;&gt;n_5f5685eeff97 -->
<g id="edge6" class="edge">
<title>n_c210e7db8afd&#45;&gt;n_5f5685eeff97</title>
<path fill="none" stroke="#486581" stroke-width="1.4" d="M221.97,-284.69C142.95,-250.54 0,-188.75 0,-188.75 0,-188.75 0,-142 0,-142 0,-142 271.43,-82.24 427.98,-47.78"/>
<polygon fill="#486581" stroke="#486581" stroke-width="1.4" points="428.6,-50.51 435.81,-46.06 427.4,-45.04 428.6,-50.51"/>
<text text-anchor="start" x="0" y="-168.57" font-family="DejaVu Sans" font-size="11.00" fill="#334e68">Реєструє правила, джерела, пояснення</text>
<text text-anchor="start" x="37" y="-156.57" font-family="DejaVu Sans" font-size="11.00" fill="#334e68">та клінічне підтвердження</text>
</g>
<!-- n_c210e7db8afd&#45;&gt;n_40b119007c9f -->
<g id="edge4" class="edge">
<title>n_c210e7db8afd&#45;&gt;n_40b119007c9f</title>
<path fill="none" stroke="#486581" stroke-width="1.4" d="M366.35,-284.74C435.94,-268.33 519,-248.75 519,-248.75 519,-248.75 583,-224.75 583,-224.75 583,-224.75 758.73,-202.25 892.01,-185.19"/>
<polygon fill="#486581" stroke="#486581" stroke-width="1.4" points="892.75,-187.92 900.33,-184.13 892.04,-182.37 892.75,-187.92"/>
<text text-anchor="start" x="583" y="-239.95" font-family="DejaVu Sans" font-size="11.00" fill="#334e68">Читає результати й зберігає проєкти та</text>
<text text-anchor="start" x="630.5" y="-227.95" font-family="DejaVu Sans" font-size="11.00" fill="#334e68">підтверджені траєкторії</text>
</g>
<!-- n_eb4c5110ae64 -->
<g id="node17" class="node">
<title>n_eb4c5110ae64</title>
<path fill="#b7791f" stroke="#486581" stroke-width="1.5" d="M460,-188.38C460,-188.38 262,-188.38 262,-188.38 256,-188.38 250,-182.38 250,-176.38 250,-176.38 250,-154.38 250,-154.38 250,-148.38 256,-142.38 262,-142.38 262,-142.38 460,-142.38 460,-142.38 466,-142.38 472,-148.38 472,-154.38 472,-154.38 472,-176.38 472,-176.38 472,-182.38 466,-188.38 460,-188.38"/>
<text text-anchor="start" x="260" y="-173.78" font-family="DejaVu Sans" font-weight="bold" font-size="12.00" fill="#ffffff">Сервіс завдань, нагадувань і</text>
<text text-anchor="start" x="326" y="-161.78" font-family="DejaVu Sans" font-weight="bold" font-size="12.00" fill="#ffffff">ескалацій</text>
<text text-anchor="start" x="276.5" y="-151.38" font-family="DejaVu Sans" font-size="10.00" fill="#ffffff">[Контейнер · Workflow scheduler]</text>
</g>
<!-- n_c210e7db8afd&#45;&gt;n_eb4c5110ae64 -->
<g id="edge5" class="edge">
<title>n_c210e7db8afd&#45;&gt;n_eb4c5110ae64</title>
<path fill="none" stroke="#486581" stroke-width="1.4" d="M268.39,-284.49C265.01,-268.14 261,-248.75 261,-248.75 261,-248.75 261,-224.75 261,-224.75 261,-224.75 289.55,-208.09 316.13,-192.56"/>
<polygon fill="#486581" stroke="#486581" stroke-width="1.4" points="317.7,-194.9 323.19,-188.44 314.87,-190.06 317.7,-194.9"/>
<text text-anchor="start" x="261" y="-239.95" font-family="DejaVu Sans" font-size="11.00" fill="#334e68">Передає погоджений або безпечний план</text>
<text text-anchor="start" x="355" y="-227.95" font-family="DejaVu Sans" font-size="11.00" fill="#334e68">супроводу</text>
</g>
<!-- n_f9075d486a51 -->
<g id="node15" class="node">
<title>n_f9075d486a51</title>
<path fill="#f4f7fa" stroke="#486581" stroke-width="1.5" d="M1139.5,-1373.5C1139.5,-1373.5 976.5,-1373.5 976.5,-1373.5 970.5,-1373.5 964.5,-1367.5 964.5,-1361.5 964.5,-1361.5 964.5,-1349.5 964.5,-1349.5 964.5,-1343.5 970.5,-1337.5 976.5,-1337.5 976.5,-1337.5 1139.5,-1337.5 1139.5,-1337.5 1145.5,-1337.5 1151.5,-1343.5 1151.5,-1349.5 1151.5,-1349.5 1151.5,-1361.5 1151.5,-1361.5 1151.5,-1367.5 1145.5,-1373.5 1139.5,-1373.5"/>
<text text-anchor="start" x="979" y="-1357.9" font-family="DejaVu Sans" font-weight="bold" font-size="12.00" fill="#18324a">Оркестратор взаємодії</text>
<text text-anchor="start" x="974.5" y="-1347.5" font-family="DejaVu Sans" font-size="10.00" fill="#18324a">[Контейнер · Application service]</text>
</g>
<!-- n_f9075d486a51&#45;&gt;n_0fca791e572f -->
<g id="edge22" class="edge">
<title>n_f9075d486a51&#45;&gt;n_0fca791e572f</title>
<path fill="none" stroke="#486581" stroke-width="1.4" d="M985.89,-1337.44C920.41,-1321.95 834,-1301.5 834,-1301.5 834,-1301.5 830.4,-1268.55 827.75,-1244.33"/>
<polygon fill="#486581" stroke="#486581" stroke-width="1.4" points="830.52,-1243.84 826.86,-1236.19 824.95,-1244.45 830.52,-1243.84"/>
<text text-anchor="start" x="834" y="-1292.7" font-family="DejaVu Sans" font-size="11.00" fill="#334e68">Передає типізовану відповідь до</text>
<text text-anchor="start" x="868.5" y="-1280.7" font-family="DejaVu Sans" font-size="11.00" fill="#334e68">компонента валідації</text>
</g>
<!-- n_f9075d486a51&#45;&gt;n_5f5685eeff97 -->
<g id="edge3" class="edge">
<title>n_f9075d486a51&#45;&gt;n_5f5685eeff97</title>
<path fill="none" stroke="#486581" stroke-width="1.4" d="M1131.62,-1337.49C1289.01,-1301.13 1644,-1219.12 1644,-1219.12 1644,-1219.12 1644,-1219.12 1644,-164.38 1644,-164.38 1496,-142 1496,-142 1496,-142 929.88,-72.41 667.12,-40.12"/>
<polygon fill="#486581" stroke="#486581" stroke-width="1.4" points="667.33,-37.32 659.05,-39.12 666.65,-42.88 667.33,-37.32"/>
<text text-anchor="start" x="1644" y="-711.95" font-family="DejaVu Sans" font-size="11.00" fill="#334e68">Реєструє походження сформованої</text>
<text text-anchor="start" x="1664.5" y="-699.95" font-family="DejaVu Sans" font-size="11.00" fill="#334e68">репліки й виконаного кроку</text>
</g>
<!-- n_f9075d486a51&#45;&gt;n_40b119007c9f -->
<g id="edge1" class="edge">
<title>n_f9075d486a51&#45;&gt;n_40b119007c9f</title>
<path fill="none" stroke="#486581" stroke-width="1.4" d="M1087.26,-1337.35C1149.42,-1300.93 1289,-1219.12 1289,-1219.12 1289,-1219.12 1289,-1219.12 1289,-839.75 1289,-839.75 1102,-224.75 1102,-224.75 1102,-224.75 1085.3,-209.27 1069.09,-194.26"/>
<polygon fill="#486581" stroke="#486581" stroke-width="1.4" points="1070.95,-192.16 1063.18,-188.78 1067.14,-196.27 1070.95,-192.16"/>
<text text-anchor="start" x="1272" y="-777.95" font-family="DejaVu Sans" font-size="11.00" fill="#334e68">Читає мінімальний клінічний контекст і</text>
<text text-anchor="start" x="1288" y="-765.95" font-family="DejaVu Sans" font-size="11.00" fill="#334e68">зберігає структуровану взаємодію</text>
</g>
<!-- n_f9075d486a51&#45;&gt;n_eb4c5110ae64 -->
<g id="edge2" class="edge">
<title>n_f9075d486a51&#45;&gt;n_eb4c5110ae64</title>
<path fill="none" stroke="#486581" stroke-width="1.4" d="M1057.62,-1337.35C1056.81,-1300.93 1055,-1219.12 1055,-1219.12 1055,-1219.12 1055,-1219.12 1055,-839.75 1055,-839.75 1063,-248.75 1063,-248.75 1063,-248.75 1063,-224.75 1063,-224.75 1063,-224.75 539,-188.75 539,-188.75 539,-188.75 512.82,-185.46 480.54,-181.4"/>
<polygon fill="#486581" stroke="#486581" stroke-width="1.4" points="480.5,-178.57 472.21,-180.35 479.8,-184.13 480.5,-178.57"/>
<text text-anchor="start" x="1056" y="-777.95" font-family="DejaVu Sans" font-size="11.00" fill="#334e68">Створює завдання продовження,</text>
<text text-anchor="start" x="1058.5" y="-765.95" font-family="DejaVu Sans" font-size="11.00" fill="#334e68">повторного контакту або візиту</text>
</g>
<!-- n_a57f04482dc5 -->
<g id="node16" class="node">
<title>n_a57f04482dc5</title>
<path fill="#0f766e" stroke="#c92a2a" stroke-width="3" d="M1452,-330.75C1452,-330.75 1242,-330.75 1242,-330.75 1236,-330.75 1230,-324.75 1230,-318.75 1230,-318.75 1230,-296.75 1230,-296.75 1230,-290.75 1236,-284.75 1242,-284.75 1242,-284.75 1452,-284.75 1452,-284.75 1458,-284.75 1464,-290.75 1464,-296.75 1464,-296.75 1464,-318.75 1464,-318.75 1464,-324.75 1458,-330.75 1452,-330.75"/>
<text text-anchor="start" x="1260" y="-316.15" font-family="DejaVu Sans" font-weight="bold" font-size="12.00" fill="#ffffff">Сервіс мультимодальних</text>
<text text-anchor="start" x="1306" y="-304.15" font-family="DejaVu Sans" font-weight="bold" font-size="12.00" fill="#ffffff">вимірювань</text>
<text text-anchor="start" x="1240" y="-293.75" font-family="DejaVu Sans" font-size="10.00" fill="#ffffff">[Контейнер · Signal and media processing]</text>
</g>
<!-- n_a57f04482dc5&#45;&gt;n_5f5685eeff97 -->
<g id="edge8" class="edge">
<title>n_a57f04482dc5&#45;&gt;n_5f5685eeff97</title>
<path fill="none" stroke="#486581" stroke-width="1.4" d="M1361.2,-284.49C1371.63,-268.14 1384,-248.75 1384,-248.75 1384,-248.75 1384,-224.75 1384,-224.75 1384,-224.75 1194,-142 1194,-142 1194,-142 858.8,-81.89 666.89,-47.47"/>
<polygon fill="#486581" stroke="#486581" stroke-width="1.4" points="667.36,-44.71 658.99,-46.06 666.37,-50.22 667.36,-44.71"/>
<text text-anchor="start" x="1298" y="-168.57" font-family="DejaVu Sans" font-size="11.00" fill="#334e68">Реєструє ланцюг оброблення та</text>
<text text-anchor="start" x="1339.5" y="-156.57" font-family="DejaVu Sans" font-size="11.00" fill="#334e68">параметри моделі</text>
</g>
<!-- n_a57f04482dc5&#45;&gt;n_40b119007c9f -->
<g id="edge7" class="edge">
<title>n_a57f04482dc5&#45;&gt;n_40b119007c9f</title>
<path fill="none" stroke="#486581" stroke-width="1.4" d="M1281.1,-284.66C1232.21,-268.27 1174,-248.75 1174,-248.75 1174,-248.75 1141,-224.75 1141,-224.75 1141,-224.75 1112.27,-208.31 1085.31,-192.88"/>
<polygon fill="#486581" stroke="#486581" stroke-width="1.4" points="1086.48,-190.32 1078.14,-188.78 1083.7,-195.18 1086.48,-190.32"/>
<text text-anchor="start" x="1174" y="-239.95" font-family="DejaVu Sans" font-size="11.00" fill="#334e68">Зберігає нормалізовані показники,</text>
<text text-anchor="start" x="1197" y="-227.95" font-family="DejaVu Sans" font-size="11.00" fill="#334e68">якість і версію аналізатора</text>
</g>
<!-- n_eb4c5110ae64&#45;&gt;n_5f5685eeff97 -->
<g id="edge9" class="edge">
<title>n_eb4c5110ae64&#45;&gt;n_5f5685eeff97</title>
<path fill="none" stroke="#486581" stroke-width="1.4" d="M343.61,-142.31C330.58,-125.78 315,-106 315,-106 315,-106 315,-82 315,-82 315,-82 383.62,-63.99 444.39,-48.04"/>
<polygon fill="#486581" stroke="#486581" stroke-width="1.4" points="445.11,-50.75 452.13,-46.01 443.69,-45.33 445.11,-50.75"/>
<text text-anchor="start" x="315" y="-97.2" font-family="DejaVu Sans" font-size="11.00" fill="#334e68">Реєструє створення, доставку та</text>
<text text-anchor="start" x="353" y="-85.2" font-family="DejaVu Sans" font-size="11.00" fill="#334e68">результат завдання</text>
</g>
</g>
</svg>
