<?xml version="1.0" encoding="UTF-8" standalone="no"?>
<!DOCTYPE svg PUBLIC "-//W3C//DTD SVG 1.1//EN"
 "http://www.w3.org/Graphics/SVG/1.1/DTD/svg11.dtd">
<!-- Generated by graphviz version 2.42.4 (0)
 -->
<!-- Title: G Pages: 1 -->
<svg width="1370pt" height="969pt"
 viewBox="0.00 0.00 1370.40 968.90" xmlns="http://www.w3.org/2000/svg" xmlns:xlink="http://www.w3.org/1999/xlink">
<g id="graph0" class="graph" transform="scale(1 1) rotate(0) translate(25.2 943.7)">
<title>G</title>
<polygon fill="white" stroke="transparent" points="-25.2,25.2 -25.2,-943.7 1345.2,-943.7 1345.2,25.2 -25.2,25.2"/>
<text text-anchor="start" x="87.5" y="-904.3" font-family="DejaVu Sans" font-weight="bold" font-size="14.00">C3.08 — Компоненти підтримки клінічних рішень</text>
<text text-anchor="start" x="8" y="-891.9" font-family="DejaVu Sans" font-size="12.00">Компоненти нормалізації, агрегації ризику, підбору протоколу, траєкторії, пояснення та</text>
<text text-anchor="start" x="221" y="-879.9" font-family="DejaVu Sans" font-size="12.00">клінічного контролю.</text>
<g id="clust1" class="cluster">
<title>cluster_scope</title>
<path fill="white" stroke="#486581" stroke-width="2.2" d="M20,-134.75C20,-134.75 515,-134.75 515,-134.75 521,-134.75 527,-140.75 527,-146.75 527,-146.75 527,-852.5 527,-852.5 527,-858.5 521,-864.5 515,-864.5 515,-864.5 20,-864.5 20,-864.5 14,-864.5 8,-858.5 8,-852.5 8,-852.5 8,-146.75 8,-146.75 8,-140.75 14,-134.75 20,-134.75"/>
<text text-anchor="start" x="16" y="-850.3" font-family="DejaVu Sans" font-weight="bold" font-size="14.00">Сервіс підтримки клінічних рішень</text>
</g>
<!-- n_4795da56ff09 -->
<g id="node1" class="node">
<title>n_4795da56ff09</title>
<path fill="#f4f7fa" stroke="#c92a2a" stroke-width="3" d="M198,-188.75C198,-188.75 36,-188.75 36,-188.75 30,-188.75 24,-182.75 24,-176.75 24,-176.75 24,-154.75 24,-154.75 24,-148.75 30,-142.75 36,-142.75 36,-142.75 198,-142.75 198,-142.75 204,-142.75 210,-148.75 210,-154.75 210,-154.75 210,-176.75 210,-176.75 210,-182.75 204,-188.75 198,-188.75"/>
<text text-anchor="start" x="57" y="-174.15" font-family="DejaVu Sans" font-weight="bold" font-size="12.00" fill="#18324a">Шлюз клінічного</text>
<text text-anchor="start" x="63.5" y="-162.15" font-family="DejaVu Sans" font-weight="bold" font-size="12.00" fill="#18324a">підтвердження</text>
<text text-anchor="start" x="34" y="-151.75" font-family="DejaVu Sans" font-size="10.00" fill="#18324a">[Компонент · Approval workflow]</text>
</g>
<!-- n_5f5685eeff97 -->
<g id="node8" class="node">
<title>n_5f5685eeff97</title>
<path fill="#4a5568" stroke="#486581" stroke-width="1.5" d="M1016,-46.38C1016,-46.38 794,-46.38 794,-46.38 788,-46.38 782,-40.38 782,-34.38 782,-34.38 782,-12.38 782,-12.38 782,-6.38 788,-0.37 794,-0.37 794,-0.37 1016,-0.37 1016,-0.37 1022,-0.37 1028,-6.37 1028,-12.37 1028,-12.37 1028,-34.38 1028,-34.38 1028,-40.38 1022,-46.38 1016,-46.38"/>
<text text-anchor="start" x="847" y="-31.77" font-family="DejaVu Sans" font-weight="bold" font-size="12.00" fill="#ffffff">Сервіс аудиту та</text>
<text text-anchor="start" x="839.5" y="-19.77" font-family="DejaVu Sans" font-weight="bold" font-size="12.00" fill="#ffffff">спостережуваності</text>
<text text-anchor="start" x="792" y="-9.38" font-family="DejaVu Sans" font-size="10.00" fill="#ffffff">[Контейнер · Audit and observability service]</text>
</g>
<!-- n_4795da56ff09&#45;&gt;n_5f5685eeff97 -->
<g id="edge15" class="edge">
<title>n_4795da56ff09&#45;&gt;n_5f5685eeff97</title>
<path fill="none" stroke="#486581" stroke-width="1.4" d="M210.1,-148.17C349.87,-123.27 614.5,-76.12 773.79,-47.75"/>
<polygon fill="#486581" stroke="#486581" stroke-width="1.4" points="774.39,-50.49 781.77,-46.33 773.4,-44.97 774.39,-50.49"/>
<text text-anchor="start" x="558" y="-97.95" font-family="DejaVu Sans" font-size="11.00" fill="#334e68">Фіксує особу, рішення та причину</text>
<text text-anchor="start" x="625.5" y="-85.95" font-family="DejaVu Sans" font-size="11.00" fill="#334e68">відхилення</text>
</g>
<!-- n_40b119007c9f -->
<g id="node9" class="node">
<title>n_40b119007c9f</title>
<path fill="#edf2f7" stroke="#486581" stroke-width="1.5" d="M472.5,-42.4C472.5,-44.73 410.42,-46.63 334,-46.63 257.58,-46.63 195.5,-44.73 195.5,-42.4 195.5,-42.4 195.5,-4.35 195.5,-4.35 195.5,-2.02 257.58,-0.12 334,-0.12 410.42,-0.12 472.5,-2.02 472.5,-4.35 472.5,-4.35 472.5,-42.4 472.5,-42.4"/>
<path fill="none" stroke="#486581" stroke-width="1.5" d="M472.5,-42.4C472.5,-40.07 410.42,-38.17 334,-38.17 257.58,-38.17 195.5,-40.07 195.5,-42.4"/>
<text text-anchor="start" x="272" y="-25.77" font-family="DejaVu Sans" font-weight="bold" font-size="12.00" fill="#1a202c">Клінічне сховище</text>
<text text-anchor="start" x="205.5" y="-15.37" font-family="DejaVu Sans" font-size="10.00" fill="#1a202c">[Сховище даних · FHIR&#45;oriented clinical repository]</text>
</g>
<!-- n_4795da56ff09&#45;&gt;n_40b119007c9f -->
<g id="edge14" class="edge">
<title>n_4795da56ff09&#45;&gt;n_40b119007c9f</title>
<path fill="none" stroke="#486581" stroke-width="1.4" d="M109.71,-142.49C104.35,-126.14 98,-106.75 98,-106.75 98,-106.75 98,-82.75 98,-82.75 98,-82.75 172.32,-64.37 237.55,-48.23"/>
<polygon fill="#486581" stroke="#486581" stroke-width="1.4" points="238.36,-50.92 245.45,-46.28 237.01,-45.48 238.36,-50.92"/>
<text text-anchor="start" x="98" y="-97.95" font-family="DejaVu Sans" font-size="11.00" fill="#334e68">Зберігає проєкт або підтверджене</text>
<text text-anchor="start" x="176" y="-85.95" font-family="DejaVu Sans" font-size="11.00" fill="#334e68">рішення</text>
</g>
<!-- n_7e489912fcf6 -->
<g id="node2" class="node">
<title>n_7e489912fcf6</title>
<path fill="#f4f7fa" stroke="#486581" stroke-width="1.5" d="M377,-833.5C377,-833.5 169,-833.5 169,-833.5 163,-833.5 157,-827.5 157,-821.5 157,-821.5 157,-809.5 157,-809.5 157,-803.5 163,-797.5 169,-797.5 169,-797.5 377,-797.5 377,-797.5 383,-797.5 389,-803.5 389,-809.5 389,-809.5 389,-821.5 389,-821.5 389,-827.5 383,-833.5 377,-833.5"/>
<text text-anchor="start" x="167" y="-817.9" font-family="DejaVu Sans" font-weight="bold" font-size="12.00" fill="#18324a">Нормалізатор клінічних даних</text>
<text text-anchor="start" x="184" y="-807.5" font-family="DejaVu Sans" font-size="10.00" fill="#18324a">[Компонент · Clinical data pipeline]</text>
</g>
<!-- n_b733dba09e66 -->
<g id="node6" class="node">
<title>n_b733dba09e66</title>
<path fill="#f4f7fa" stroke="#c92a2a" stroke-width="3" d="M355.5,-713.5C355.5,-713.5 190.5,-713.5 190.5,-713.5 184.5,-713.5 178.5,-707.5 178.5,-701.5 178.5,-701.5 178.5,-689.5 178.5,-689.5 178.5,-683.5 184.5,-677.5 190.5,-677.5 190.5,-677.5 355.5,-677.5 355.5,-677.5 361.5,-677.5 367.5,-683.5 367.5,-689.5 367.5,-689.5 367.5,-701.5 367.5,-701.5 367.5,-707.5 361.5,-713.5 355.5,-713.5"/>
<text text-anchor="start" x="210.5" y="-697.9" font-family="DejaVu Sans" font-weight="bold" font-size="12.00" fill="#18324a">Агрегатор ризиків</text>
<text text-anchor="start" x="188.5" y="-687.5" font-family="DejaVu Sans" font-size="10.00" fill="#18324a">[Компонент · Deterministic rules]</text>
</g>
<!-- n_7e489912fcf6&#45;&gt;n_b733dba09e66 -->
<g id="edge5" class="edge">
<title>n_7e489912fcf6&#45;&gt;n_b733dba09e66</title>
<path fill="none" stroke="#486581" stroke-width="1.4" d="M273,-797.34C273,-777.5 273,-744.66 273,-721.87"/>
<polygon fill="#486581" stroke="#486581" stroke-width="1.4" points="275.8,-721.68 273,-713.68 270.2,-721.68 275.8,-721.68"/>
<text text-anchor="start" x="273" y="-752.7" font-family="DejaVu Sans" font-size="11.00" fill="#334e68">Передає нормалізовані ознаки та якість</text>
</g>
<!-- n_bc7fd16123a8 -->
<g id="node3" class="node">
<title>n_bc7fd16123a8</title>
<path fill="#f4f7fa" stroke="#486581" stroke-width="1.5" d="M205.5,-325.75C205.5,-325.75 28.5,-325.75 28.5,-325.75 22.5,-325.75 16.5,-319.75 16.5,-313.75 16.5,-313.75 16.5,-301.75 16.5,-301.75 16.5,-295.75 22.5,-289.75 28.5,-289.75 28.5,-289.75 205.5,-289.75 205.5,-289.75 211.5,-289.75 217.5,-295.75 217.5,-301.75 217.5,-301.75 217.5,-313.75 217.5,-313.75 217.5,-319.75 211.5,-325.75 205.5,-325.75"/>
<text text-anchor="start" x="44" y="-310.15" font-family="DejaVu Sans" font-weight="bold" font-size="12.00" fill="#18324a">Формувач пояснення</text>
<text text-anchor="start" x="26.5" y="-299.75" font-family="DejaVu Sans" font-size="10.00" fill="#18324a">[Компонент · Explainability service]</text>
</g>
<!-- n_bc7fd16123a8&#45;&gt;n_4795da56ff09 -->
<g id="edge13" class="edge">
<title>n_bc7fd16123a8&#45;&gt;n_4795da56ff09</title>
<path fill="none" stroke="#486581" stroke-width="1.4" d="M117,-289.58C117,-266.69 117,-225.77 117,-197.48"/>
<polygon fill="#486581" stroke="#486581" stroke-width="1.4" points="119.8,-197.15 117,-189.15 114.2,-197.15 119.8,-197.15"/>
<text text-anchor="start" x="117" y="-233.95" font-family="DejaVu Sans" font-size="11.00" fill="#334e68">Передає проєкт з поясненням</text>
</g>
<!-- n_2786301ab559 -->
<g id="node4" class="node">
<title>n_2786301ab559</title>
<path fill="#f4f7fa" stroke="#486581" stroke-width="1.5" d="M436.5,-325.75C436.5,-325.75 263.5,-325.75 263.5,-325.75 257.5,-325.75 251.5,-319.75 251.5,-313.75 251.5,-313.75 251.5,-301.75 251.5,-301.75 251.5,-295.75 257.5,-289.75 263.5,-289.75 263.5,-289.75 436.5,-289.75 436.5,-289.75 442.5,-289.75 448.5,-295.75 448.5,-301.75 448.5,-301.75 448.5,-313.75 448.5,-313.75 448.5,-319.75 442.5,-325.75 436.5,-325.75"/>
<text text-anchor="start" x="261.5" y="-310.15" font-family="DejaVu Sans" font-weight="bold" font-size="12.00" fill="#18324a">Планувальник супроводу</text>
<text text-anchor="start" x="269.5" y="-299.75" font-family="DejaVu Sans" font-size="10.00" fill="#18324a">[Компонент · Scheduling policy]</text>
</g>
<!-- n_eb4c5110ae64 -->
<g id="node13" class="node">
<title>n_eb4c5110ae64</title>
<path fill="#b7791f" stroke="#486581" stroke-width="1.5" d="M1026,-188.75C1026,-188.75 828,-188.75 828,-188.75 822,-188.75 816,-182.75 816,-176.75 816,-176.75 816,-154.75 816,-154.75 816,-148.75 822,-142.75 828,-142.75 828,-142.75 1026,-142.75 1026,-142.75 1032,-142.75 1038,-148.75 1038,-154.75 1038,-154.75 1038,-176.75 1038,-176.75 1038,-182.75 1032,-188.75 1026,-188.75"/>
<text text-anchor="start" x="826" y="-174.15" font-family="DejaVu Sans" font-weight="bold" font-size="12.00" fill="#ffffff">Сервіс завдань, нагадувань і</text>
<text text-anchor="start" x="892" y="-162.15" font-family="DejaVu Sans" font-weight="bold" font-size="12.00" fill="#ffffff">ескалацій</text>
<text text-anchor="start" x="842.5" y="-151.75" font-family="DejaVu Sans" font-size="10.00" fill="#ffffff">[Контейнер · Workflow scheduler]</text>
</g>
<!-- n_2786301ab559&#45;&gt;n_eb4c5110ae64 -->
<g id="edge12" class="edge">
<title>n_2786301ab559&#45;&gt;n_eb4c5110ae64</title>
<path fill="none" stroke="#486581" stroke-width="1.4" d="M414.19,-289.66C504.46,-265.63 658,-224.75 658,-224.75 658,-224.75 742.55,-206.52 816.84,-190.5"/>
<polygon fill="#486581" stroke="#486581" stroke-width="1.4" points="817.69,-193.18 824.92,-188.76 816.51,-187.71 817.69,-193.18"/>
<text text-anchor="start" x="658" y="-239.95" font-family="DejaVu Sans" font-size="11.00" fill="#334e68">Створює планові завдання після</text>
<text text-anchor="start" x="680" y="-227.95" font-family="DejaVu Sans" font-size="11.00" fill="#334e68">підтвердження політики</text>
</g>
<!-- n_a1dd172a9020 -->
<g id="node5" class="node">
<title>n_a1dd172a9020</title>
<path fill="#f4f7fa" stroke="#486581" stroke-width="1.5" d="M462,-593.5C462,-593.5 296,-593.5 296,-593.5 290,-593.5 284,-587.5 284,-581.5 284,-581.5 284,-569.5 284,-569.5 284,-563.5 290,-557.5 296,-557.5 296,-557.5 462,-557.5 462,-557.5 468,-557.5 474,-563.5 474,-569.5 474,-569.5 474,-581.5 474,-581.5 474,-587.5 468,-593.5 462,-593.5"/>
<text text-anchor="start" x="316.5" y="-577.9" font-family="DejaVu Sans" font-weight="bold" font-size="12.00" fill="#18324a">Підбір протоколів</text>
<text text-anchor="start" x="294" y="-567.5" font-family="DejaVu Sans" font-size="10.00" fill="#18324a">[Компонент · Rules plus retrieval]</text>
</g>
<!-- n_206e30b231bc -->
<g id="node7" class="node">
<title>n_206e30b231bc</title>
<path fill="#f4f7fa" stroke="#486581" stroke-width="1.5" d="M393.5,-456.12C393.5,-456.12 216.5,-456.12 216.5,-456.12 210.5,-456.12 204.5,-450.12 204.5,-444.12 204.5,-444.12 204.5,-432.12 204.5,-432.12 204.5,-426.12 210.5,-420.12 216.5,-420.12 216.5,-420.12 393.5,-420.12 393.5,-420.12 399.5,-420.12 405.5,-426.12 405.5,-432.12 405.5,-432.12 405.5,-444.12 405.5,-444.12 405.5,-450.12 399.5,-456.12 393.5,-456.12"/>
<text text-anchor="start" x="218" y="-440.52" font-family="DejaVu Sans" font-weight="bold" font-size="12.00" fill="#18324a">Планувальник траєкторії</text>
<text text-anchor="start" x="214.5" y="-430.12" font-family="DejaVu Sans" font-size="10.00" fill="#18324a">[Компонент · Care pathway service]</text>
</g>
<!-- n_a1dd172a9020&#45;&gt;n_206e30b231bc -->
<g id="edge9" class="edge">
<title>n_a1dd172a9020&#45;&gt;n_206e30b231bc</title>
<path fill="none" stroke="#486581" stroke-width="1.4" d="M369.63,-557.35C356.62,-533.55 333.02,-490.38 318.22,-463.31"/>
<polygon fill="#486581" stroke="#486581" stroke-width="1.4" points="320.59,-461.81 314.3,-456.13 315.68,-464.49 320.59,-461.81"/>
<text text-anchor="start" x="349" y="-512.7" font-family="DejaVu Sans" font-size="11.00" fill="#334e68">Передає перевірені кандидати</text>
<text text-anchor="start" x="408" y="-500.7" font-family="DejaVu Sans" font-size="11.00" fill="#334e68">протоколів</text>
</g>
<!-- n_609849034d86 -->
<g id="node11" class="node">
<title>n_609849034d86</title>
<path fill="#edf2f7" stroke="#486581" stroke-width="1.5" d="M787,-457.15C787,-459.48 730.52,-461.38 661,-461.38 591.48,-461.38 535,-459.48 535,-457.15 535,-457.15 535,-419.1 535,-419.1 535,-416.77 591.48,-414.87 661,-414.87 730.52,-414.87 787,-416.77 787,-419.1 787,-419.1 787,-457.15 787,-457.15"/>
<path fill="none" stroke="#486581" stroke-width="1.5" d="M787,-457.15C787,-454.82 730.52,-452.92 661,-452.92 591.48,-452.92 535,-454.82 535,-457.15"/>
<text text-anchor="start" x="560" y="-440.52" font-family="DejaVu Sans" font-weight="bold" font-size="12.00" fill="#1a202c">База знань та індекс пошуку</text>
<text text-anchor="start" x="545" y="-430.12" font-family="DejaVu Sans" font-size="10.00" fill="#1a202c">[Сховище даних · Document and vector store]</text>
</g>
<!-- n_a1dd172a9020&#45;&gt;n_609849034d86 -->
<g id="edge8" class="edge">
<title>n_a1dd172a9020&#45;&gt;n_609849034d86</title>
<path fill="none" stroke="#486581" stroke-width="1.4" d="M430.83,-557.44C477.89,-541.95 540,-521.5 540,-521.5 540,-521.5 586.07,-490.13 621.36,-466.11"/>
<polygon fill="#486581" stroke="#486581" stroke-width="1.4" points="623.22,-468.23 628.26,-461.42 620.07,-463.6 623.22,-468.23"/>
<text text-anchor="start" x="572" y="-506.7" font-family="DejaVu Sans" font-size="11.00" fill="#334e68">Виконує контрольований пошук</text>
</g>
<!-- n_0a99d320f3b9 -->
<g id="node14" class="node">
<title>n_0a99d320f3b9</title>
<path fill="#e9eef4" stroke="#486581" stroke-width="1.5" d="M981,-461.12C981,-461.12 831,-461.12 831,-461.12 825,-461.12 819,-455.12 819,-449.12 819,-449.12 819,-427.12 819,-427.12 819,-421.12 825,-415.12 831,-415.12 831,-415.12 981,-415.12 981,-415.12 987,-415.12 993,-421.12 993,-427.12 993,-427.12 993,-449.12 993,-449.12 993,-455.12 987,-461.12 981,-461.12"/>
<text text-anchor="start" x="829" y="-446.52" font-family="DejaVu Sans" font-weight="bold" font-size="12.00" fill="#263238">Репозиторій клінічних</text>
<text text-anchor="start" x="841.5" y="-434.52" font-family="DejaVu Sans" font-weight="bold" font-size="12.00" fill="#263238">протоколів і знань</text>
<text text-anchor="start" x="850.5" y="-424.12" font-family="DejaVu Sans" font-size="10.00" fill="#263238">[Програмна система]</text>
</g>
<!-- n_a1dd172a9020&#45;&gt;n_0a99d320f3b9 -->
<g id="edge7" class="edge">
<title>n_a1dd172a9020&#45;&gt;n_0a99d320f3b9</title>
<path fill="none" stroke="#486581" stroke-width="1.4" d="M474.13,-561.67C590.44,-545.98 772,-521.5 772,-521.5 772,-521.5 823.76,-489.68 862.94,-465.6"/>
<polygon fill="#486581" stroke="#486581" stroke-width="1.4" points="864.74,-467.77 870.09,-461.2 861.81,-463 864.74,-467.77"/>
<text text-anchor="start" x="807" y="-506.7" font-family="DejaVu Sans" font-size="11.00" fill="#334e68">Отримує релевантні протоколи й джерела</text>
</g>
<!-- n_b733dba09e66&#45;&gt;n_a1dd172a9020 -->
<g id="edge6" class="edge">
<title>n_b733dba09e66&#45;&gt;n_a1dd172a9020</title>
<path fill="none" stroke="#486581" stroke-width="1.4" d="M288.41,-677.34C306.78,-656.89 337.56,-622.63 358.07,-599.79"/>
<polygon fill="#486581" stroke="#486581" stroke-width="1.4" points="360.3,-601.5 363.57,-593.68 356.14,-597.76 360.3,-601.5"/>
<text text-anchor="start" x="330" y="-632.7" font-family="DejaVu Sans" font-size="11.00" fill="#334e68">Передає агрегований ризиковий профіль</text>
</g>
<!-- n_206e30b231bc&#45;&gt;n_bc7fd16123a8 -->
<g id="edge11" class="edge">
<title>n_206e30b231bc&#45;&gt;n_bc7fd16123a8</title>
<path fill="none" stroke="#486581" stroke-width="1.4" d="M244.86,-420.08C184.06,-402.85 99,-378.75 99,-378.75 99,-378.75 99,-366.75 99,-366.75 99,-366.75 104.36,-349.49 109.23,-333.8"/>
<polygon fill="#486581" stroke="#486581" stroke-width="1.4" points="112,-334.31 111.7,-325.84 106.65,-332.65 112,-334.31"/>
<text text-anchor="start" x="99" y="-369.95" font-family="DejaVu Sans" font-size="11.00" fill="#334e68">Передає правила й підстави проєкту</text>
</g>
<!-- n_206e30b231bc&#45;&gt;n_2786301ab559 -->
<g id="edge10" class="edge">
<title>n_206e30b231bc&#45;&gt;n_2786301ab559</title>
<path fill="none" stroke="#486581" stroke-width="1.4" d="M310.98,-420.08C318.74,-397.92 332.36,-359.07 341.28,-333.62"/>
<polygon fill="#486581" stroke="#486581" stroke-width="1.4" points="344,-334.34 344,-325.87 338.71,-332.49 344,-334.34"/>
<text text-anchor="start" x="329" y="-369.95" font-family="DejaVu Sans" font-size="11.00" fill="#334e68">Формує контрольні точки та строки</text>
</g>
<!-- n_a8676803ace0 -->
<g id="node10" class="node">
<title>n_a8676803ace0</title>
<path fill="#6c4ab6" stroke="#486581" stroke-width="1.5" d="M759,-833.5C759,-833.5 547,-833.5 547,-833.5 541,-833.5 535,-827.5 535,-821.5 535,-821.5 535,-809.5 535,-809.5 535,-803.5 541,-797.5 547,-797.5 547,-797.5 759,-797.5 759,-797.5 765,-797.5 771,-803.5 771,-809.5 771,-809.5 771,-821.5 771,-821.5 771,-827.5 765,-833.5 759,-833.5"/>
<text text-anchor="start" x="545" y="-817.9" font-family="DejaVu Sans" font-weight="bold" font-size="12.00" fill="#ffffff">Кабінет медичного працівника</text>
<text text-anchor="start" x="577" y="-807.5" font-family="DejaVu Sans" font-size="10.00" fill="#ffffff">[Контейнер · Web application]</text>
</g>
<!-- n_78e6a86e3609 -->
<g id="node12" class="node">
<title>n_78e6a86e3609</title>
<path fill="#2b6cb0" stroke="#c92a2a" stroke-width="3" d="M981,-330.75C981,-330.75 741,-330.75 741,-330.75 735,-330.75 729,-324.75 729,-318.75 729,-318.75 729,-296.75 729,-296.75 729,-290.75 735,-284.75 741,-284.75 741,-284.75 981,-284.75 981,-284.75 987,-284.75 993,-290.75 993,-296.75 993,-296.75 993,-318.75 993,-318.75 993,-324.75 987,-330.75 981,-330.75"/>
<text text-anchor="start" x="782" y="-316.15" font-family="DejaVu Sans" font-weight="bold" font-size="12.00" fill="#ffffff">Детермінований рушій</text>
<text text-anchor="start" x="829" y="-304.15" font-family="DejaVu Sans" font-weight="bold" font-size="12.00" fill="#ffffff">сценаріїв</text>
<text text-anchor="start" x="739" y="-293.75" font-family="DejaVu Sans" font-size="10.00" fill="#ffffff">[Контейнер · Rules engine / finite&#45;state machine]</text>
</g>
<!-- n_78e6a86e3609&#45;&gt;n_5f5685eeff97 -->
<g id="edge3" class="edge">
<title>n_78e6a86e3609&#45;&gt;n_5f5685eeff97</title>
<path fill="none" stroke="#486581" stroke-width="1.4" d="M952.46,-284.74C1020.63,-268.33 1102,-248.75 1102,-248.75 1102,-248.75 1102,-82.75 1102,-82.75 1102,-82.75 1041.37,-64.79 987.39,-48.79"/>
<polygon fill="#486581" stroke="#486581" stroke-width="1.4" points="987.94,-46.03 979.48,-46.44 986.35,-51.4 987.94,-46.03"/>
<text text-anchor="start" x="1102" y="-168.95" font-family="DejaVu Sans" font-size="11.00" fill="#334e68">Фіксує версію, введення, правило та</text>
<text text-anchor="start" x="1144.5" y="-156.95" font-family="DejaVu Sans" font-size="11.00" fill="#334e68">результат обчислення</text>
</g>
<!-- n_78e6a86e3609&#45;&gt;n_40b119007c9f -->
<g id="edge1" class="edge">
<title>n_78e6a86e3609&#45;&gt;n_40b119007c9f</title>
<path fill="none" stroke="#486581" stroke-width="1.4" d="M809.04,-284.69C728.57,-250.54 583,-188.75 583,-188.75 583,-188.75 546,-82.75 546,-82.75 546,-82.75 480.44,-64.7 422.24,-48.67"/>
<polygon fill="#486581" stroke="#486581" stroke-width="1.4" points="422.91,-45.95 414.45,-46.53 421.42,-51.35 422.91,-45.95"/>
<text text-anchor="start" x="593" y="-168.95" font-family="DejaVu Sans" font-size="11.00" fill="#334e68">Читає та записує відповіді, бали,</text>
<text text-anchor="start" x="583" y="-156.95" font-family="DejaVu Sans" font-size="11.00" fill="#334e68">ознаки й структурований результат</text>
</g>
<!-- n_78e6a86e3609&#45;&gt;n_eb4c5110ae64 -->
<g id="edge2" class="edge">
<title>n_78e6a86e3609&#45;&gt;n_eb4c5110ae64</title>
<path fill="none" stroke="#486581" stroke-width="1.4" d="M859.85,-284.49C859,-268.14 858,-248.75 858,-248.75 858,-248.75 858,-224.75 858,-224.75 858,-224.75 876.29,-209.37 894.04,-194.45"/>
<polygon fill="#486581" stroke="#486581" stroke-width="1.4" points="896.2,-196.3 900.52,-189.01 892.59,-192.01 896.2,-196.3"/>
<text text-anchor="start" x="858" y="-239.95" font-family="DejaVu Sans" font-size="11.00" fill="#334e68">Створює контрольні завдання та строки</text>
<text text-anchor="start" x="957.5" y="-227.95" font-family="DejaVu Sans" font-size="11.00" fill="#334e68">реакції</text>
</g>
<!-- n_eb4c5110ae64&#45;&gt;n_5f5685eeff97 -->
<g id="edge4" class="edge">
<title>n_eb4c5110ae64&#45;&gt;n_5f5685eeff97</title>
<path fill="none" stroke="#486581" stroke-width="1.4" d="M917.41,-142.49C910.36,-126.14 902,-106.75 902,-106.75 902,-106.75 902,-82.75 902,-82.75 902,-82.75 902.71,-68.93 903.44,-54.74"/>
<polygon fill="#486581" stroke="#486581" stroke-width="1.4" points="906.25,-54.58 903.87,-46.44 900.66,-54.29 906.25,-54.58"/>
<text text-anchor="start" x="902" y="-97.95" font-family="DejaVu Sans" font-size="11.00" fill="#334e68">Реєструє створення, доставку та</text>
<text text-anchor="start" x="940" y="-85.95" font-family="DejaVu Sans" font-size="11.00" fill="#334e68">результат завдання</text>
</g>
</g>
</svg>
