<?xml version="1.0" encoding="UTF-8" standalone="no"?>
<!DOCTYPE svg PUBLIC "-//W3C//DTD SVG 1.1//EN"
 "http://www.w3.org/Graphics/SVG/1.1/DTD/svg11.dtd">
<!-- Generated by graphviz version 2.42.4 (0)
 -->
<!-- Title: G Pages: 1 -->
<svg width="1905pt" height="1114pt"
 viewBox="0.00 0.00 1905.40 1113.65" xmlns="http://www.w3.org/2000/svg" xmlns:xlink="http://www.w3.org/1999/xlink">
<g id="graph0" class="graph" transform="scale(1 1) rotate(0) translate(25.2 1088.45)">
<title>G</title>
<polygon fill="white" stroke="transparent" points="-25.2,25.2 -25.2,-1088.45 1880.2,-1088.45 1880.2,25.2 -25.2,25.2"/>
<text text-anchor="start" x="82" y="-1049.05" font-family="DejaVu Sans" font-weight="bold" font-size="14.00">C3.06 — Компоненти оркестратора взаємодії</text>
<text text-anchor="start" x="8" y="-1036.65" font-family="DejaVu Sans" font-size="12.00">Компоненти сесії, діалогового стану, контексту, каналів і адаптивної комунікації.</text>
<g id="clust1" class="cluster">
<title>cluster_scope</title>
<path fill="white" stroke="#486581" stroke-width="2.2" d="M75,-419.5C75,-419.5 461,-419.5 461,-419.5 467,-419.5 473,-425.5 473,-431.5 473,-431.5 473,-1009.25 473,-1009.25 473,-1015.25 467,-1021.25 461,-1021.25 461,-1021.25 75,-1021.25 75,-1021.25 69,-1021.25 63,-1015.25 63,-1009.25 63,-1009.25 63,-431.5 63,-431.5 63,-425.5 69,-419.5 75,-419.5"/>
<text text-anchor="start" x="71" y="-1007.05" font-family="DejaVu Sans" font-weight="bold" font-size="14.00">Оркестратор взаємодії</text>
</g>
<!-- n_3a92c2989bf3 -->
<g id="node1" class="node">
<title>n_3a92c2989bf3</title>
<path fill="#f4f7fa" stroke="#486581" stroke-width="1.5" d="M248.5,-990.25C248.5,-990.25 83.5,-990.25 83.5,-990.25 77.5,-990.25 71.5,-984.25 71.5,-978.25 71.5,-978.25 71.5,-966.25 71.5,-966.25 71.5,-960.25 77.5,-954.25 83.5,-954.25 83.5,-954.25 248.5,-954.25 248.5,-954.25 254.5,-954.25 260.5,-960.25 260.5,-966.25 260.5,-966.25 260.5,-978.25 260.5,-978.25 260.5,-984.25 254.5,-990.25 248.5,-990.25"/>
<text text-anchor="start" x="81.5" y="-974.65" font-family="DejaVu Sans" font-weight="bold" font-size="12.00" fill="#18324a">Маршрутизатор каналів</text>
<text text-anchor="start" x="85.5" y="-964.25" font-family="DejaVu Sans" font-size="10.00" fill="#18324a">[Компонент · Channel adapters]</text>
</g>
<!-- n_4a71738c36d2 -->
<g id="node7" class="node">
<title>n_4a71738c36d2</title>
<path fill="#6741d9" stroke="#c92a2a" stroke-width="3" d="M319,-331.5C319,-331.5 87,-331.5 87,-331.5 81,-331.5 75,-325.5 75,-319.5 75,-319.5 75,-297.5 75,-297.5 75,-291.5 81,-285.5 87,-285.5 87,-285.5 319,-285.5 319,-285.5 325,-285.5 331,-291.5 331,-297.5 331,-297.5 331,-319.5 331,-319.5 331,-325.5 325,-331.5 319,-331.5"/>
<text text-anchor="start" x="102" y="-316.9" font-family="DejaVu Sans" font-weight="bold" font-size="12.00" fill="#ffffff">Оркестратор ШІ та контроль</text>
<text text-anchor="start" x="174.5" y="-304.9" font-family="DejaVu Sans" font-weight="bold" font-size="12.00" fill="#ffffff">безпеки</text>
<text text-anchor="start" x="85" y="-294.5" font-family="DejaVu Sans" font-size="10.00" fill="#ffffff">[Контейнер · AI gateway / model orchestration]</text>
</g>
<!-- n_3a92c2989bf3&#45;&gt;n_4a71738c36d2 -->
<g id="edge16" class="edge">
<title>n_3a92c2989bf3&#45;&gt;n_4a71738c36d2</title>
<path fill="none" stroke="#486581" stroke-width="1.4" d="M243.26,-954.19C313.42,-938.7 406,-918.25 406,-918.25 406,-918.25 427,-835.88 427,-835.88 427,-835.88 427,-835.88 427,-444.5 427,-444.5 406,-367.5 406,-367.5 406,-367.5 343.48,-349.64 287.83,-333.74"/>
<polygon fill="#486581" stroke="#486581" stroke-width="1.4" points="288.5,-331.02 280.04,-331.51 286.96,-336.4 288.5,-331.02"/>
<text text-anchor="start" x="427" y="-634.7" font-family="DejaVu Sans" font-size="11.00" fill="#334e68">Використовує дозволене розпізнавання</text>
<text text-anchor="start" x="490.5" y="-622.7" font-family="DejaVu Sans" font-size="11.00" fill="#334e68">або синтез каналу</text>
</g>
<!-- n_eeb78990cd82 -->
<g id="node2" class="node">
<title>n_eeb78990cd82</title>
<path fill="#f4f7fa" stroke="#486581" stroke-width="1.5" d="M238,-715.5C238,-715.5 90,-715.5 90,-715.5 84,-715.5 78,-709.5 78,-703.5 78,-703.5 78,-691.5 78,-691.5 78,-685.5 84,-679.5 90,-679.5 90,-679.5 238,-679.5 238,-679.5 244,-679.5 250,-685.5 250,-691.5 250,-691.5 250,-703.5 250,-703.5 250,-709.5 244,-715.5 238,-715.5"/>
<text text-anchor="start" x="92" y="-699.9" font-family="DejaVu Sans" font-weight="bold" font-size="12.00" fill="#18324a">Формувач контексту</text>
<text text-anchor="start" x="88" y="-689.5" font-family="DejaVu Sans" font-size="10.00" fill="#18324a">[Компонент · Context service]</text>
</g>
<!-- n_c5cecdd10a95 -->
<g id="node6" class="node">
<title>n_c5cecdd10a95</title>
<path fill="#f4f7fa" stroke="#486581" stroke-width="1.5" d="M276.5,-583.5C276.5,-583.5 83.5,-583.5 83.5,-583.5 77.5,-583.5 71.5,-577.5 71.5,-571.5 71.5,-571.5 71.5,-559.5 71.5,-559.5 71.5,-553.5 77.5,-547.5 83.5,-547.5 83.5,-547.5 276.5,-547.5 276.5,-547.5 282.5,-547.5 288.5,-553.5 288.5,-559.5 288.5,-559.5 288.5,-571.5 288.5,-571.5 288.5,-577.5 282.5,-583.5 276.5,-583.5"/>
<text text-anchor="start" x="81.5" y="-567.9" font-family="DejaVu Sans" font-weight="bold" font-size="12.00" fill="#18324a">Селектор стилю комунікації</text>
<text text-anchor="start" x="108.5" y="-557.5" font-family="DejaVu Sans" font-size="10.00" fill="#18324a">[Компонент · Policy service]</text>
</g>
<!-- n_eeb78990cd82&#45;&gt;n_c5cecdd10a95 -->
<g id="edge15" class="edge">
<title>n_eeb78990cd82&#45;&gt;n_c5cecdd10a95</title>
<path fill="none" stroke="#486581" stroke-width="1.4" d="M163.03,-679.44C162.16,-663.95 161,-643.5 161,-643.5 161,-643.5 161,-619.5 161,-619.5 161,-619.5 166.12,-605.21 171.05,-591.47"/>
<polygon fill="#486581" stroke="#486581" stroke-width="1.4" points="173.82,-592.04 173.88,-583.56 168.55,-590.15 173.82,-592.04"/>
<text text-anchor="start" x="161" y="-634.7" font-family="DejaVu Sans" font-size="11.00" fill="#334e68">Передає дозволені ознаки для вибору</text>
<text text-anchor="start" x="255.5" y="-622.7" font-family="DejaVu Sans" font-size="11.00" fill="#334e68">стилю</text>
</g>
<!-- n_40b119007c9f -->
<g id="node11" class="node">
<title>n_40b119007c9f</title>
<path fill="#edf2f7" stroke="#486581" stroke-width="1.5" d="M1494.5,-185.15C1494.5,-187.48 1432.42,-189.38 1356,-189.38 1279.58,-189.38 1217.5,-187.48 1217.5,-185.15 1217.5,-185.15 1217.5,-147.1 1217.5,-147.1 1217.5,-144.77 1279.58,-142.87 1356,-142.87 1432.42,-142.87 1494.5,-144.77 1494.5,-147.1 1494.5,-147.1 1494.5,-185.15 1494.5,-185.15"/>
<path fill="none" stroke="#486581" stroke-width="1.5" d="M1494.5,-185.15C1494.5,-182.82 1432.42,-180.92 1356,-180.92 1279.58,-180.92 1217.5,-182.82 1217.5,-185.15"/>
<text text-anchor="start" x="1294" y="-168.53" font-family="DejaVu Sans" font-weight="bold" font-size="12.00" fill="#1a202c">Клінічне сховище</text>
<text text-anchor="start" x="1227.5" y="-158.12" font-family="DejaVu Sans" font-size="10.00" fill="#1a202c">[Сховище даних · FHIR&#45;oriented clinical repository]</text>
</g>
<!-- n_eeb78990cd82&#45;&gt;n_40b119007c9f -->
<g id="edge14" class="edge">
<title>n_eeb78990cd82&#45;&gt;n_40b119007c9f</title>
<path fill="none" stroke="#486581" stroke-width="1.4" d="M250.18,-687.51C395.11,-672.39 672,-643.5 672,-643.5 672,-643.5 1259,-331.5 1259,-331.5 1259,-331.5 1335,-249.5 1335,-249.5 1335,-249.5 1342.24,-221.11 1348.21,-197.67"/>
<polygon fill="#486581" stroke="#486581" stroke-width="1.4" points="1351,-198.08 1350.26,-189.63 1345.57,-196.69 1351,-198.08"/>
<text text-anchor="start" x="1091" y="-442.7" font-family="DejaVu Sans" font-size="11.00" fill="#334e68">Читає дозволені структуровані дані</text>
</g>
<!-- n_f5c90244048a -->
<g id="node3" class="node">
<title>n_f5c90244048a</title>
<path fill="#f4f7fa" stroke="#486581" stroke-width="1.5" d="M268.5,-852.88C268.5,-852.88 85.5,-852.88 85.5,-852.88 79.5,-852.88 73.5,-846.88 73.5,-840.88 73.5,-840.88 73.5,-828.88 73.5,-828.88 73.5,-822.88 79.5,-816.88 85.5,-816.88 85.5,-816.88 268.5,-816.88 268.5,-816.88 274.5,-816.88 280.5,-822.88 280.5,-828.88 280.5,-828.88 280.5,-840.88 280.5,-840.88 280.5,-846.88 274.5,-852.88 268.5,-852.88"/>
<text text-anchor="start" x="132" y="-837.27" font-family="DejaVu Sans" font-weight="bold" font-size="12.00" fill="#18324a">Стан діалогу</text>
<text text-anchor="start" x="83.5" y="-826.88" font-family="DejaVu Sans" font-size="10.00" fill="#18324a">[Компонент · State machine adapter]</text>
</g>
<!-- n_f5c90244048a&#45;&gt;n_eeb78990cd82 -->
<g id="edge13" class="edge">
<title>n_f5c90244048a&#45;&gt;n_eeb78990cd82</title>
<path fill="none" stroke="#486581" stroke-width="1.4" d="M170.22,-816.68C163.44,-799.46 154,-775.5 154,-775.5 154,-775.5 154,-751.5 154,-751.5 154,-751.5 156.7,-737.21 159.29,-723.47"/>
<polygon fill="#486581" stroke="#486581" stroke-width="1.4" points="162.05,-723.94 160.78,-715.56 156.55,-722.9 162.05,-723.94"/>
<text text-anchor="start" x="154" y="-766.7" font-family="DejaVu Sans" font-size="11.00" fill="#334e68">Запитує мінімальний контекст поточного</text>
<text text-anchor="start" x="261" y="-754.7" font-family="DejaVu Sans" font-size="11.00" fill="#334e68">кроку</text>
</g>
<!-- n_42eca2c3569a -->
<g id="node4" class="node">
<title>n_42eca2c3569a</title>
<path fill="#f4f7fa" stroke="#c92a2a" stroke-width="3" d="M257.5,-463.5C257.5,-463.5 92.5,-463.5 92.5,-463.5 86.5,-463.5 80.5,-457.5 80.5,-451.5 80.5,-451.5 80.5,-439.5 80.5,-439.5 80.5,-433.5 86.5,-427.5 92.5,-427.5 92.5,-427.5 257.5,-427.5 257.5,-427.5 263.5,-427.5 269.5,-433.5 269.5,-439.5 269.5,-439.5 269.5,-451.5 269.5,-451.5 269.5,-457.5 263.5,-463.5 257.5,-463.5"/>
<text text-anchor="start" x="95" y="-447.9" font-family="DejaVu Sans" font-weight="bold" font-size="12.00" fill="#18324a">Координатор відповіді</text>
<text text-anchor="start" x="90.5" y="-437.5" font-family="DejaVu Sans" font-size="10.00" fill="#18324a">[Компонент · Application service]</text>
</g>
<!-- n_42eca2c3569a&#45;&gt;n_4a71738c36d2 -->
<g id="edge19" class="edge">
<title>n_42eca2c3569a&#45;&gt;n_4a71738c36d2</title>
<path fill="none" stroke="#486581" stroke-width="1.4" d="M173.39,-427.44C171.93,-411.95 170,-391.5 170,-391.5 170,-391.5 170,-367.5 170,-367.5 170,-367.5 178.15,-353.18 186.34,-338.78"/>
<polygon fill="#486581" stroke="#486581" stroke-width="1.4" points="188.81,-340.1 190.34,-331.76 183.95,-337.33 188.81,-340.1"/>
<text text-anchor="start" x="170" y="-382.7" font-family="DejaVu Sans" font-size="11.00" fill="#334e68">Запитує допоміжне формулювання без</text>
<text text-anchor="start" x="222" y="-370.7" font-family="DejaVu Sans" font-size="11.00" fill="#334e68">зміни клінічної логіки</text>
</g>
<!-- n_5f5685eeff97 -->
<g id="node9" class="node">
<title>n_5f5685eeff97</title>
<path fill="#4a5568" stroke="#486581" stroke-width="1.5" d="M577,-46.38C577,-46.38 355,-46.38 355,-46.38 349,-46.38 343,-40.38 343,-34.38 343,-34.38 343,-12.38 343,-12.38 343,-6.38 349,-0.37 355,-0.37 355,-0.37 577,-0.37 577,-0.37 583,-0.37 589,-6.37 589,-12.37 589,-12.37 589,-34.38 589,-34.38 589,-40.38 583,-46.38 577,-46.38"/>
<text text-anchor="start" x="408" y="-31.77" font-family="DejaVu Sans" font-weight="bold" font-size="12.00" fill="#ffffff">Сервіс аудиту та</text>
<text text-anchor="start" x="400.5" y="-19.77" font-family="DejaVu Sans" font-weight="bold" font-size="12.00" fill="#ffffff">спостережуваності</text>
<text text-anchor="start" x="353" y="-9.38" font-family="DejaVu Sans" font-size="10.00" fill="#ffffff">[Контейнер · Audit and observability service]</text>
</g>
<!-- n_42eca2c3569a&#45;&gt;n_5f5685eeff97 -->
<g id="edge20" class="edge">
<title>n_42eca2c3569a&#45;&gt;n_5f5685eeff97</title>
<path fill="none" stroke="#486581" stroke-width="1.4" d="M157.38,-427.34C124.93,-395.73 59,-331.5 59,-331.5 59,-331.5 0,-249.5 0,-249.5 0,-249.5 0,-225.5 0,-225.5 0,-225.5 292,-82.75 292,-82.75 292,-82.75 344.89,-65.01 392.35,-49.08"/>
<polygon fill="#486581" stroke="#486581" stroke-width="1.4" points="393.52,-51.64 400.22,-46.44 391.74,-46.33 393.52,-51.64"/>
<text text-anchor="start" x="0" y="-234.7" font-family="DejaVu Sans" font-size="11.00" fill="#334e68">Фіксує склад відповіді та джерела</text>
</g>
<!-- n_78e6a86e3609 -->
<g id="node13" class="node">
<title>n_78e6a86e3609</title>
<path fill="#2b6cb0" stroke="#c92a2a" stroke-width="3" d="M921,-331.5C921,-331.5 681,-331.5 681,-331.5 675,-331.5 669,-325.5 669,-319.5 669,-319.5 669,-297.5 669,-297.5 669,-291.5 675,-285.5 681,-285.5 681,-285.5 921,-285.5 921,-285.5 927,-285.5 933,-291.5 933,-297.5 933,-297.5 933,-319.5 933,-319.5 933,-325.5 927,-331.5 921,-331.5"/>
<text text-anchor="start" x="722" y="-316.9" font-family="DejaVu Sans" font-weight="bold" font-size="12.00" fill="#ffffff">Детермінований рушій</text>
<text text-anchor="start" x="769" y="-304.9" font-family="DejaVu Sans" font-weight="bold" font-size="12.00" fill="#ffffff">сценаріїв</text>
<text text-anchor="start" x="679" y="-294.5" font-family="DejaVu Sans" font-size="10.00" fill="#ffffff">[Контейнер · Rules engine / finite&#45;state machine]</text>
</g>
<!-- n_42eca2c3569a&#45;&gt;n_78e6a86e3609 -->
<g id="edge18" class="edge">
<title>n_42eca2c3569a&#45;&gt;n_78e6a86e3609</title>
<path fill="none" stroke="#486581" stroke-width="1.4" d="M253.97,-427.47C364.45,-403.65 565.63,-360.26 690.8,-333.26"/>
<polygon fill="#486581" stroke="#486581" stroke-width="1.4" points="691.71,-335.93 698.94,-331.51 690.53,-330.46 691.71,-335.93"/>
<text text-anchor="start" x="525" y="-376.7" font-family="DejaVu Sans" font-size="11.00" fill="#334e68">Запитує наступний детермінований крок</text>
</g>
<!-- n_2bd1a150be88 -->
<g id="node5" class="node">
<title>n_2bd1a150be88</title>
<path fill="#f4f7fa" stroke="#486581" stroke-width="1.5" d="M453,-990.25C453,-990.25 305,-990.25 305,-990.25 299,-990.25 293,-984.25 293,-978.25 293,-978.25 293,-966.25 293,-966.25 293,-960.25 299,-954.25 305,-954.25 305,-954.25 453,-954.25 453,-954.25 459,-954.25 465,-960.25 465,-966.25 465,-966.25 465,-978.25 465,-978.25 465,-984.25 459,-990.25 453,-990.25"/>
<text text-anchor="start" x="324.5" y="-974.65" font-family="DejaVu Sans" font-weight="bold" font-size="12.00" fill="#18324a">Менеджер сесії</text>
<text text-anchor="start" x="303" y="-964.25" font-family="DejaVu Sans" font-size="10.00" fill="#18324a">[Компонент · Stateful service]</text>
</g>
<!-- n_2bd1a150be88&#45;&gt;n_f5c90244048a -->
<g id="edge12" class="edge">
<title>n_2bd1a150be88&#45;&gt;n_f5c90244048a</title>
<path fill="none" stroke="#486581" stroke-width="1.4" d="M353.42,-954.1C316.69,-929.49 249.04,-884.15 209.03,-857.34"/>
<polygon fill="#486581" stroke="#486581" stroke-width="1.4" points="210.58,-855.01 202.38,-852.88 207.46,-859.66 210.58,-855.01"/>
<text text-anchor="start" x="297" y="-903.45" font-family="DejaVu Sans" font-size="11.00" fill="#334e68">Створює або відновлює стан діалогу</text>
</g>
<!-- n_85612016a131 -->
<g id="node10" class="node">
<title>n_85612016a131</title>
<path fill="#edf2f7" stroke="#486581" stroke-width="1.5" d="M1844,-853.9C1844,-856.23 1793.35,-858.13 1731,-858.13 1668.65,-858.13 1618,-856.23 1618,-853.9 1618,-853.9 1618,-815.85 1618,-815.85 1618,-813.52 1668.65,-811.62 1731,-811.62 1793.35,-811.62 1844,-813.52 1844,-815.85 1844,-815.85 1844,-853.9 1844,-853.9"/>
<path fill="none" stroke="#486581" stroke-width="1.5" d="M1844,-853.9C1844,-851.57 1793.35,-849.67 1731,-849.67 1668.65,-849.67 1618,-851.57 1618,-853.9"/>
<text text-anchor="start" x="1633.5" y="-837.27" font-family="DejaVu Sans" font-weight="bold" font-size="12.00" fill="#1a202c">Кеш і короткоживучий стан</text>
<text text-anchor="start" x="1628" y="-826.88" font-family="DejaVu Sans" font-size="10.00" fill="#1a202c">[Сховище даних · In&#45;memory data store]</text>
</g>
<!-- n_2bd1a150be88&#45;&gt;n_85612016a131 -->
<g id="edge11" class="edge">
<title>n_2bd1a150be88&#45;&gt;n_85612016a131</title>
<path fill="none" stroke="#486581" stroke-width="1.4" d="M465.41,-967.48C742.98,-955.37 1594,-918.25 1594,-918.25 1594,-918.25 1646.6,-886.62 1686.62,-862.56"/>
<polygon fill="#486581" stroke="#486581" stroke-width="1.4" points="1688.51,-864.69 1693.93,-858.17 1685.63,-859.89 1688.51,-864.69"/>
<text text-anchor="start" x="1630" y="-909.45" font-family="DejaVu Sans" font-size="11.00" fill="#334e68">Зберігає короткоживучі блокування й</text>
<text text-anchor="start" x="1679" y="-897.45" font-family="DejaVu Sans" font-size="11.00" fill="#334e68">маркери відновлення</text>
</g>
<!-- n_331a3889c3d6 -->
<g id="node12" class="node">
<title>n_331a3889c3d6</title>
<path fill="#edf2f7" stroke="#486581" stroke-width="1.5" d="M1490.5,-42.4C1490.5,-44.73 1441.87,-46.63 1382,-46.63 1322.13,-46.63 1273.5,-44.73 1273.5,-42.4 1273.5,-42.4 1273.5,-4.35 1273.5,-4.35 1273.5,-2.02 1322.13,-0.12 1382,-0.12 1441.87,-0.12 1490.5,-2.02 1490.5,-4.35 1490.5,-4.35 1490.5,-42.4 1490.5,-42.4"/>
<path fill="none" stroke="#486581" stroke-width="1.5" d="M1490.5,-42.4C1490.5,-40.07 1441.87,-38.17 1382,-38.17 1322.13,-38.17 1273.5,-40.07 1273.5,-42.4"/>
<text text-anchor="start" x="1300" y="-25.77" font-family="DejaVu Sans" font-weight="bold" font-size="12.00" fill="#1a202c">Операційна база даних</text>
<text text-anchor="start" x="1283.5" y="-15.37" font-family="DejaVu Sans" font-size="10.00" fill="#1a202c">[Сховище даних · Relational database]</text>
</g>
<!-- n_2bd1a150be88&#45;&gt;n_331a3889c3d6 -->
<g id="edge10" class="edge">
<title>n_2bd1a150be88&#45;&gt;n_331a3889c3d6</title>
<path fill="none" stroke="#486581" stroke-width="1.4" d="M465.06,-961.46C738.41,-930.36 1569,-835.88 1569,-835.88 1569,-835.88 1569,-835.88 1569,-165.12 1569,-165.12 1484,-82.75 1484,-82.75 1484,-82.75 1455.27,-66.31 1428.31,-50.88"/>
<polygon fill="#486581" stroke="#486581" stroke-width="1.4" points="1429.48,-48.32 1421.14,-46.78 1426.7,-53.18 1429.48,-48.32"/>
<text text-anchor="start" x="1569" y="-502.7" font-family="DejaVu Sans" font-size="11.00" fill="#334e68">Зберігає стан сесії</text>
</g>
<!-- n_c5cecdd10a95&#45;&gt;n_42eca2c3569a -->
<g id="edge17" class="edge">
<title>n_c5cecdd10a95&#45;&gt;n_42eca2c3569a</title>
<path fill="none" stroke="#486581" stroke-width="1.4" d="M179.27,-547.34C178.43,-527.5 177.04,-494.66 176.08,-471.87"/>
<polygon fill="#486581" stroke="#486581" stroke-width="1.4" points="178.86,-471.55 175.73,-463.68 173.27,-471.79 178.86,-471.55"/>
<text text-anchor="start" x="178" y="-502.7" font-family="DejaVu Sans" font-size="11.00" fill="#334e68">Передає канал і параметри стилю</text>
</g>
<!-- n_4a71738c36d2&#45;&gt;n_5f5685eeff97 -->
<g id="edge7" class="edge">
<title>n_4a71738c36d2&#45;&gt;n_5f5685eeff97</title>
<path fill="none" stroke="#486581" stroke-width="1.4" d="M206.24,-285.28C212.79,-240.31 227,-142.75 227,-142.75 227,-142.75 343.51,-85.05 413.83,-50.21"/>
<polygon fill="#486581" stroke="#486581" stroke-width="1.4" points="415.4,-52.56 421.33,-46.5 412.91,-47.54 415.4,-52.56"/>
<text text-anchor="start" x="227" y="-169.32" font-family="DejaVu Sans" font-size="11.00" fill="#334e68">Реєструє модель, шаблон, політику,</text>
<text text-anchor="start" x="233" y="-157.32" font-family="DejaVu Sans" font-size="11.00" fill="#334e68">джерела та рішення запобіжників</text>
</g>
<!-- n_384146de0c5d -->
<g id="node8" class="node">
<title>n_384146de0c5d</title>
<path fill="#f4f7fa" stroke="#486581" stroke-width="1.5" d="M909,-463.5C909,-463.5 699,-463.5 699,-463.5 693,-463.5 687,-457.5 687,-451.5 687,-451.5 687,-439.5 687,-439.5 687,-433.5 693,-427.5 699,-427.5 699,-427.5 909,-427.5 909,-427.5 915,-427.5 921,-433.5 921,-439.5 921,-439.5 921,-451.5 921,-451.5 921,-457.5 915,-463.5 909,-463.5"/>
<text text-anchor="start" x="750.5" y="-447.9" font-family="DejaVu Sans" font-weight="bold" font-size="12.00" fill="#18324a">API&#45;шлюз і BFF</text>
<text text-anchor="start" x="697" y="-437.5" font-family="DejaVu Sans" font-size="10.00" fill="#18324a">[Контейнер · Reverse proxy / API gateway]</text>
</g>
<!-- n_384146de0c5d&#45;&gt;n_5f5685eeff97 -->
<g id="edge3" class="edge">
<title>n_384146de0c5d&#45;&gt;n_5f5685eeff97</title>
<path fill="none" stroke="#486581" stroke-width="1.4" d="M701.95,-427.44C609.29,-411.95 487,-391.5 487,-391.5 487,-391.5 459,-249.5 459,-249.5 459,-249.5 459,-225.5 459,-225.5 459,-225.5 462.98,-111.08 464.94,-54.84"/>
<polygon fill="#486581" stroke="#486581" stroke-width="1.4" points="467.74,-54.76 465.22,-46.67 462.15,-54.57 467.74,-54.76"/>
<text text-anchor="start" x="459" y="-240.7" font-family="DejaVu Sans" font-size="11.00" fill="#334e68">Реєструє доступ і результат оброблення</text>
<text text-anchor="start" x="558.5" y="-228.7" font-family="DejaVu Sans" font-size="11.00" fill="#334e68">запиту</text>
</g>
<!-- n_384146de0c5d&#45;&gt;n_78e6a86e3609 -->
<g id="edge1" class="edge">
<title>n_384146de0c5d&#45;&gt;n_78e6a86e3609</title>
<path fill="none" stroke="#486581" stroke-width="1.4" d="M803.03,-427.44C802.16,-411.95 801,-391.5 801,-391.5 801,-391.5 801,-363.49 801,-340.21"/>
<polygon fill="#486581" stroke="#486581" stroke-width="1.4" points="803.8,-339.91 801,-331.91 798.2,-339.91 803.8,-339.91"/>
<text text-anchor="start" x="801" y="-382.7" font-family="DejaVu Sans" font-size="11.00" fill="#334e68">Передає типізовані команди виконання</text>
<text text-anchor="start" x="892.5" y="-370.7" font-family="DejaVu Sans" font-size="11.00" fill="#334e68">сценарію</text>
</g>
<!-- n_eb4c5110ae64 -->
<g id="node14" class="node">
<title>n_eb4c5110ae64</title>
<path fill="#b7791f" stroke="#486581" stroke-width="1.5" d="M1173,-189.12C1173,-189.12 975,-189.12 975,-189.12 969,-189.12 963,-183.12 963,-177.12 963,-177.12 963,-155.12 963,-155.12 963,-149.12 969,-143.12 975,-143.12 975,-143.12 1173,-143.12 1173,-143.12 1179,-143.12 1185,-149.12 1185,-155.12 1185,-155.12 1185,-177.12 1185,-177.12 1185,-183.12 1179,-189.12 1173,-189.12"/>
<text text-anchor="start" x="973" y="-174.53" font-family="DejaVu Sans" font-weight="bold" font-size="12.00" fill="#ffffff">Сервіс завдань, нагадувань і</text>
<text text-anchor="start" x="1039" y="-162.53" font-family="DejaVu Sans" font-weight="bold" font-size="12.00" fill="#ffffff">ескалацій</text>
<text text-anchor="start" x="989.5" y="-152.12" font-family="DejaVu Sans" font-size="10.00" fill="#ffffff">[Контейнер · Workflow scheduler]</text>
</g>
<!-- n_384146de0c5d&#45;&gt;n_eb4c5110ae64 -->
<g id="edge2" class="edge">
<title>n_384146de0c5d&#45;&gt;n_eb4c5110ae64</title>
<path fill="none" stroke="#486581" stroke-width="1.4" d="M880.61,-427.44C950.19,-411.95 1042,-391.5 1042,-391.5 1042,-391.5 1060.9,-258.97 1069.65,-197.62"/>
<polygon fill="#486581" stroke="#486581" stroke-width="1.4" points="1072.46,-197.77 1070.81,-189.46 1066.91,-196.98 1072.46,-197.77"/>
<text text-anchor="start" x="1056" y="-311.7" font-family="DejaVu Sans" font-size="11.00" fill="#334e68">Передає команди щодо завдань,</text>
<text text-anchor="start" x="1093.5" y="-299.7" font-family="DejaVu Sans" font-size="11.00" fill="#334e68">нагадувань і візитів</text>
</g>
<!-- n_78e6a86e3609&#45;&gt;n_5f5685eeff97 -->
<g id="edge6" class="edge">
<title>n_78e6a86e3609&#45;&gt;n_5f5685eeff97</title>
<path fill="none" stroke="#486581" stroke-width="1.4" d="M775.59,-285.09C748.05,-260.81 708,-225.5 708,-225.5 708,-225.5 565.19,-106.81 498.98,-51.79"/>
<polygon fill="#486581" stroke="#486581" stroke-width="1.4" points="500.77,-49.63 492.82,-46.67 497.19,-53.93 500.77,-49.63"/>
<text text-anchor="start" x="662" y="-169.32" font-family="DejaVu Sans" font-size="11.00" fill="#334e68">Фіксує версію, введення, правило та</text>
<text text-anchor="start" x="704.5" y="-157.32" font-family="DejaVu Sans" font-size="11.00" fill="#334e68">результат обчислення</text>
</g>
<!-- n_78e6a86e3609&#45;&gt;n_40b119007c9f -->
<g id="edge4" class="edge">
<title>n_78e6a86e3609&#45;&gt;n_40b119007c9f</title>
<path fill="none" stroke="#486581" stroke-width="1.4" d="M893.97,-285.49C963.28,-269.08 1046,-249.5 1046,-249.5 1046,-249.5 1114,-225.5 1114,-225.5 1114,-225.5 1190.21,-207.12 1257.09,-190.98"/>
<polygon fill="#486581" stroke="#486581" stroke-width="1.4" points="1258.08,-193.63 1265.2,-189.03 1256.77,-188.18 1258.08,-193.63"/>
<text text-anchor="start" x="1124" y="-240.7" font-family="DejaVu Sans" font-size="11.00" fill="#334e68">Читає та записує відповіді, бали,</text>
<text text-anchor="start" x="1114" y="-228.7" font-family="DejaVu Sans" font-size="11.00" fill="#334e68">ознаки й структурований результат</text>
</g>
<!-- n_78e6a86e3609&#45;&gt;n_eb4c5110ae64 -->
<g id="edge5" class="edge">
<title>n_78e6a86e3609&#45;&gt;n_eb4c5110ae64</title>
<path fill="none" stroke="#486581" stroke-width="1.4" d="M799.85,-285.24C799,-268.89 798,-249.5 798,-249.5 798,-249.5 798,-225.5 798,-225.5 798,-225.5 885.39,-207.02 961.82,-190.85"/>
<polygon fill="#486581" stroke="#486581" stroke-width="1.4" points="962.41,-193.59 969.66,-189.19 961.25,-188.11 962.41,-193.59"/>
<text text-anchor="start" x="798" y="-240.7" font-family="DejaVu Sans" font-size="11.00" fill="#334e68">Створює контрольні завдання та строки</text>
<text text-anchor="start" x="897.5" y="-228.7" font-family="DejaVu Sans" font-size="11.00" fill="#334e68">реакції</text>
</g>
<!-- n_eb4c5110ae64&#45;&gt;n_5f5685eeff97 -->
<g id="edge9" class="edge">
<title>n_eb4c5110ae64&#45;&gt;n_5f5685eeff97</title>
<path fill="none" stroke="#486581" stroke-width="1.4" d="M983.96,-143.05C884.43,-118.65 738,-82.75 738,-82.75 738,-82.75 652.22,-64.34 577.01,-48.2"/>
<polygon fill="#486581" stroke="#486581" stroke-width="1.4" points="577.24,-45.39 568.83,-46.44 576.07,-50.86 577.24,-45.39"/>
<text text-anchor="start" x="828" y="-97.95" font-family="DejaVu Sans" font-size="11.00" fill="#334e68">Реєструє створення, доставку та</text>
<text text-anchor="start" x="866" y="-85.95" font-family="DejaVu Sans" font-size="11.00" fill="#334e68">результат завдання</text>
</g>
<!-- n_eb4c5110ae64&#45;&gt;n_331a3889c3d6 -->
<g id="edge8" class="edge">
<title>n_eb4c5110ae64&#45;&gt;n_331a3889c3d6</title>
<path fill="none" stroke="#486581" stroke-width="1.4" d="M1122.46,-142.98C1177.62,-117.77 1267.57,-76.67 1325.77,-50.07"/>
<polygon fill="#486581" stroke="#486581" stroke-width="1.4" points="1326.94,-52.61 1333.06,-46.74 1324.62,-47.52 1326.94,-52.61"/>
<text text-anchor="start" x="1246" y="-97.95" font-family="DejaVu Sans" font-size="11.00" fill="#334e68">Зберігає завдання, строки, повтори та</text>
<text text-anchor="start" x="1303.5" y="-85.95" font-family="DejaVu Sans" font-size="11.00" fill="#334e68">ідемпотентні ключі</text>
</g>
</g>
</svg>
