<?xml version="1.0" encoding="UTF-8" standalone="no"?>
<!DOCTYPE svg PUBLIC "-//W3C//DTD SVG 1.1//EN"
 "http://www.w3.org/Graphics/SVG/1.1/DTD/svg11.dtd">
<!-- Generated by graphviz version 2.42.4 (0)
 -->
<!-- Title: G Pages: 1 -->
<svg width="1488pt" height="834pt"
 viewBox="0.00 0.00 1488.40 834.15" xmlns="http://www.w3.org/2000/svg" xmlns:xlink="http://www.w3.org/1999/xlink">
<g id="graph0" class="graph" transform="scale(1 1) rotate(0) translate(25.2 808.95)">
<title>G</title>
<polygon fill="white" stroke="transparent" points="-25.2,25.2 -25.2,-808.95 1463.2,-808.95 1463.2,25.2 -25.2,25.2"/>
<text text-anchor="start" x="47" y="-769.55" font-family="DejaVu Sans" font-weight="bold" font-size="14.00">C3.09 — Компоненти оркестратора ШІ та запобіжників</text>
<text text-anchor="start" x="8" y="-757.15" font-family="DejaVu Sans" font-size="12.00">Компоненти безпечного застосування генеративних і спеціалізованих моделей ШІ.</text>
<g id="clust1" class="cluster">
<title>cluster_scope</title>
<path fill="white" stroke="#486581" stroke-width="2.2" d="M20,-134C20,-134 909,-134 909,-134 915,-134 921,-140 921,-146 921,-146 921,-623.75 921,-623.75 921,-629.75 915,-635.75 909,-635.75 909,-635.75 20,-635.75 20,-635.75 14,-635.75 8,-629.75 8,-623.75 8,-623.75 8,-146 8,-146 8,-140 14,-134 20,-134"/>
<text text-anchor="start" x="16" y="-621.55" font-family="DejaVu Sans" font-weight="bold" font-size="14.00">Оркестратор ШІ та контроль безпеки</text>
</g>
<!-- n_1655e04d57aa -->
<g id="node1" class="node">
<title>n_1655e04d57aa</title>
<path fill="#f4f7fa" stroke="#486581" stroke-width="1.5" d="M228,-183C228,-183 64,-183 64,-183 58,-183 52,-177 52,-171 52,-171 52,-159 52,-159 52,-153 58,-147 64,-147 64,-147 228,-147 228,-147 234,-147 240,-153 240,-159 240,-159 240,-171 240,-171 240,-177 234,-183 228,-183"/>
<text text-anchor="start" x="76.5" y="-167.4" font-family="DejaVu Sans" font-weight="bold" font-size="12.00" fill="#18324a">Контроль людиною</text>
<text text-anchor="start" x="62" y="-157" font-family="DejaVu Sans" font-size="10.00" fill="#18324a">[Компонент · Human&#45;in&#45;the&#45;loop]</text>
</g>
<!-- n_5f5685eeff97 -->
<g id="node10" class="node">
<title>n_5f5685eeff97</title>
<path fill="#4a5568" stroke="#486581" stroke-width="1.5" d="M851,-46C851,-46 629,-46 629,-46 623,-46 617,-40 617,-34 617,-34 617,-12 617,-12 617,-6 623,0 629,0 629,0 851,0 851,0 857,0 863,-6 863,-12 863,-12 863,-34 863,-34 863,-40 857,-46 851,-46"/>
<text text-anchor="start" x="682" y="-31.4" font-family="DejaVu Sans" font-weight="bold" font-size="12.00" fill="#ffffff">Сервіс аудиту та</text>
<text text-anchor="start" x="674.5" y="-19.4" font-family="DejaVu Sans" font-weight="bold" font-size="12.00" fill="#ffffff">спостережуваності</text>
<text text-anchor="start" x="627" y="-9" font-family="DejaVu Sans" font-size="10.00" fill="#ffffff">[Контейнер · Audit and observability service]</text>
</g>
<!-- n_1655e04d57aa&#45;&gt;n_5f5685eeff97 -->
<g id="edge12" class="edge">
<title>n_1655e04d57aa&#45;&gt;n_5f5685eeff97</title>
<path fill="none" stroke="#486581" stroke-width="1.4" d="M218.24,-146.97C323.35,-122.2 518.89,-76.11 638.44,-47.94"/>
<polygon fill="#486581" stroke="#486581" stroke-width="1.4" points="639.42,-50.58 646.56,-46.02 638.13,-45.13 639.42,-50.58"/>
<text text-anchor="start" x="479" y="-97.2" font-family="DejaVu Sans" font-size="11.00" fill="#334e68">Фіксує режим автоматизації та рішення</text>
<text text-anchor="start" x="574.5" y="-85.2" font-family="DejaVu Sans" font-size="11.00" fill="#334e68">людини</text>
</g>
<!-- n_253c38667a70 -->
<g id="node2" class="node">
<title>n_253c38667a70</title>
<path fill="#f4f7fa" stroke="#486581" stroke-width="1.5" d="M724.5,-325.38C724.5,-325.38 551.5,-325.38 551.5,-325.38 545.5,-325.38 539.5,-319.38 539.5,-313.38 539.5,-313.38 539.5,-301.38 539.5,-301.38 539.5,-295.38 545.5,-289.38 551.5,-289.38 551.5,-289.38 724.5,-289.38 724.5,-289.38 730.5,-289.38 736.5,-295.38 736.5,-301.38 736.5,-301.38 736.5,-313.38 736.5,-313.38 736.5,-319.38 730.5,-325.38 724.5,-325.38"/>
<text text-anchor="start" x="549.5" y="-309.77" font-family="DejaVu Sans" font-weight="bold" font-size="12.00" fill="#18324a">Маршрутизатор моделей</text>
<text text-anchor="start" x="562.5" y="-299.38" font-family="DejaVu Sans" font-size="10.00" fill="#18324a">[Компонент · Model gateway]</text>
</g>
<!-- n_182578176bcb -->
<g id="node3" class="node">
<title>n_182578176bcb</title>
<path fill="#f4f7fa" stroke="#c92a2a" stroke-width="3" d="M641,-188C641,-188 425,-188 425,-188 419,-188 413,-182 413,-176 413,-176 413,-154 413,-154 413,-148 419,-142 425,-142 425,-142 641,-142 641,-142 647,-142 653,-148 653,-154 653,-154 653,-176 653,-176 653,-182 647,-188 641,-188"/>
<text text-anchor="start" x="437.5" y="-173.4" font-family="DejaVu Sans" font-weight="bold" font-size="12.00" fill="#18324a">Валідатор структурованого</text>
<text text-anchor="start" x="508.5" y="-161.4" font-family="DejaVu Sans" font-weight="bold" font-size="12.00" fill="#18324a">виходу</text>
<text text-anchor="start" x="423" y="-151" font-family="DejaVu Sans" font-size="10.00" fill="#18324a">[Компонент · Schema and policy validation]</text>
</g>
<!-- n_253c38667a70&#45;&gt;n_182578176bcb -->
<g id="edge8" class="edge">
<title>n_253c38667a70&#45;&gt;n_182578176bcb</title>
<path fill="none" stroke="#486581" stroke-width="1.4" d="M625.12,-289.16C607.58,-265.71 575.93,-223.4 554.69,-195"/>
<polygon fill="#486581" stroke="#486581" stroke-width="1.4" points="556.83,-193.19 549.8,-188.46 552.35,-196.54 556.83,-193.19"/>
<text text-anchor="start" x="592" y="-233.2" font-family="DejaVu Sans" font-size="11.00" fill="#334e68">Передає відповідь моделі</text>
</g>
<!-- n_c3da19e3d57e -->
<g id="node9" class="node">
<title>n_c3da19e3d57e</title>
<path fill="#6741d9" stroke="#486581" stroke-width="1.5" d="M1149,-188C1149,-188 941,-188 941,-188 935,-188 929,-182 929,-176 929,-176 929,-154 929,-154 929,-148 935,-142 941,-142 941,-142 1149,-142 1149,-142 1155,-142 1161,-148 1161,-154 1161,-154 1161,-176 1161,-176 1161,-182 1155,-188 1149,-188"/>
<text text-anchor="start" x="939" y="-173.4" font-family="DejaVu Sans" font-weight="bold" font-size="12.00" fill="#ffffff">Реєстр і середовище моделей</text>
<text text-anchor="start" x="1035" y="-161.4" font-family="DejaVu Sans" font-weight="bold" font-size="12.00" fill="#ffffff">ШІ</text>
<text text-anchor="start" x="989.5" y="-151" font-family="DejaVu Sans" font-size="10.00" fill="#ffffff">[Програмна система]</text>
</g>
<!-- n_253c38667a70&#45;&gt;n_c3da19e3d57e -->
<g id="edge7" class="edge">
<title>n_253c38667a70&#45;&gt;n_c3da19e3d57e</title>
<path fill="none" stroke="#486581" stroke-width="1.4" d="M687.5,-289.3C758.92,-264.67 891.28,-219.02 973.37,-190.71"/>
<polygon fill="#486581" stroke="#486581" stroke-width="1.4" points="974.5,-193.28 981.15,-188.02 972.68,-187.98 974.5,-193.28"/>
<text text-anchor="start" x="866" y="-233.2" font-family="DejaVu Sans" font-size="11.00" fill="#334e68">Викликає обрану модель</text>
</g>
<!-- n_5cb9e4723669 -->
<g id="node7" class="node">
<title>n_5cb9e4723669</title>
<path fill="#f4f7fa" stroke="#c92a2a" stroke-width="3" d="M307,-472.75C307,-472.75 133,-472.75 133,-472.75 127,-472.75 121,-466.75 121,-460.75 121,-460.75 121,-438.75 121,-438.75 121,-432.75 127,-426.75 133,-426.75 133,-426.75 307,-426.75 307,-426.75 313,-426.75 319,-432.75 319,-438.75 319,-438.75 319,-460.75 319,-460.75 319,-466.75 313,-472.75 307,-472.75"/>
<text text-anchor="start" x="147" y="-458.15" font-family="DejaVu Sans" font-weight="bold" font-size="12.00" fill="#18324a">Клінічні та контентні</text>
<text text-anchor="start" x="175.5" y="-446.15" font-family="DejaVu Sans" font-weight="bold" font-size="12.00" fill="#18324a">запобіжники</text>
<text text-anchor="start" x="131" y="-435.75" font-family="DejaVu Sans" font-size="10.00" fill="#18324a">[Компонент · Policy and classifiers]</text>
</g>
<!-- n_182578176bcb&#45;&gt;n_5cb9e4723669 -->
<g id="edge9" class="edge">
<title>n_182578176bcb&#45;&gt;n_5cb9e4723669</title>
<path fill="none" stroke="#486581" stroke-width="1.4" d="M489.45,-188.06C422.01,-222.21 300,-284 300,-284 300,-284 250,-366.75 250,-366.75 250,-366.75 239.57,-395.26 231.01,-418.65"/>
<polygon fill="#486581" stroke="#486581" stroke-width="1.4" points="228.32,-417.87 228.2,-426.34 233.58,-419.79 228.32,-417.87"/>
<text text-anchor="start" x="300" y="-304.57" font-family="DejaVu Sans" font-size="11.00" fill="#334e68">Виконує післягенераційний контроль</text>
</g>
<!-- n_0d0b5b8e203f -->
<g id="node4" class="node">
<title>n_0d0b5b8e203f</title>
<path fill="#f4f7fa" stroke="#486581" stroke-width="1.5" d="M768.5,-604.75C768.5,-604.75 561.5,-604.75 561.5,-604.75 555.5,-604.75 549.5,-598.75 549.5,-592.75 549.5,-592.75 549.5,-580.75 549.5,-580.75 549.5,-574.75 555.5,-568.75 561.5,-568.75 561.5,-568.75 768.5,-568.75 768.5,-568.75 774.5,-568.75 780.5,-574.75 780.5,-580.75 780.5,-580.75 780.5,-592.75 780.5,-592.75 780.5,-598.75 774.5,-604.75 768.5,-604.75"/>
<text text-anchor="start" x="559.5" y="-589.15" font-family="DejaVu Sans" font-weight="bold" font-size="12.00" fill="#18324a">Менеджер шаблонів і політик</text>
<text text-anchor="start" x="589.5" y="-578.75" font-family="DejaVu Sans" font-size="10.00" fill="#18324a">[Компонент · Prompt registry]</text>
</g>
<!-- n_5e8091b94410 -->
<g id="node5" class="node">
<title>n_5e8091b94410</title>
<path fill="#f4f7fa" stroke="#486581" stroke-width="1.5" d="M795,-467.75C795,-467.75 627,-467.75 627,-467.75 621,-467.75 615,-461.75 615,-455.75 615,-455.75 615,-443.75 615,-443.75 615,-437.75 621,-431.75 627,-431.75 627,-431.75 795,-431.75 795,-431.75 801,-431.75 807,-437.75 807,-443.75 807,-443.75 807,-455.75 807,-455.75 807,-461.75 801,-467.75 795,-467.75"/>
<text text-anchor="start" x="644" y="-452.15" font-family="DejaVu Sans" font-weight="bold" font-size="12.00" fill="#18324a">Пошук у базі знань</text>
<text text-anchor="start" x="625" y="-441.75" font-family="DejaVu Sans" font-size="10.00" fill="#18324a">[Компонент · RAG / vector search]</text>
</g>
<!-- n_0d0b5b8e203f&#45;&gt;n_5e8091b94410 -->
<g id="edge14" class="edge">
<title>n_0d0b5b8e203f&#45;&gt;n_5e8091b94410</title>
<path fill="none" stroke="#486581" stroke-width="1.4" d="M670.83,-568.65C678.8,-545.25 693.18,-503.06 702.39,-476.01"/>
<polygon fill="#486581" stroke="#486581" stroke-width="1.4" points="705.15,-476.61 705.08,-468.14 699.85,-474.8 705.15,-476.61"/>
<text text-anchor="start" x="691" y="-523.95" font-family="DejaVu Sans" font-size="11.00" fill="#334e68">Передає запит на контрольований пошук</text>
<text text-anchor="start" x="792.5" y="-511.95" font-family="DejaVu Sans" font-size="11.00" fill="#334e68">джерел</text>
</g>
<!-- n_0d0b5b8e203f&#45;&gt;n_5cb9e4723669 -->
<g id="edge2" class="edge">
<title>n_0d0b5b8e203f&#45;&gt;n_5cb9e4723669</title>
<path fill="none" stroke="#486581" stroke-width="1.4" d="M608.64,-568.65C530.77,-545.03 389.83,-502.27 300.77,-475.25"/>
<polygon fill="#486581" stroke="#486581" stroke-width="1.4" points="301.32,-472.5 292.86,-472.85 299.7,-477.85 301.32,-472.5"/>
<text text-anchor="start" x="483" y="-523.95" font-family="DejaVu Sans" font-size="11.00" fill="#334e68">Передає версійовані правила й</text>
<text text-anchor="start" x="541.5" y="-511.95" font-family="DejaVu Sans" font-size="11.00" fill="#334e68">обмеження</text>
</g>
<!-- n_5e8091b94410&#45;&gt;n_253c38667a70 -->
<g id="edge4" class="edge">
<title>n_5e8091b94410&#45;&gt;n_253c38667a70</title>
<path fill="none" stroke="#486581" stroke-width="1.4" d="M703.37,-431.36C692.8,-407.29 675,-366.75 675,-366.75 675,-366.75 663.58,-348.73 653.43,-332.72"/>
<polygon fill="#486581" stroke="#486581" stroke-width="1.4" points="655.55,-330.83 648.9,-325.57 650.82,-333.83 655.55,-330.83"/>
<text text-anchor="start" x="685" y="-375.95" font-family="DejaVu Sans" font-size="11.00" fill="#334e68">Передає контекст із посиланнями</text>
</g>
<!-- n_609849034d86 -->
<g id="node12" class="node">
<title>n_609849034d86</title>
<path fill="#edf2f7" stroke="#486581" stroke-width="1.5" d="M1181,-326.4C1181,-328.73 1124.52,-330.63 1055,-330.63 985.48,-330.63 929,-328.73 929,-326.4 929,-326.4 929,-288.35 929,-288.35 929,-286.02 985.48,-284.12 1055,-284.12 1124.52,-284.12 1181,-286.02 1181,-288.35 1181,-288.35 1181,-326.4 1181,-326.4"/>
<path fill="none" stroke="#486581" stroke-width="1.5" d="M1181,-326.4C1181,-324.07 1124.52,-322.17 1055,-322.17 985.48,-322.17 929,-324.07 929,-326.4"/>
<text text-anchor="start" x="954" y="-309.77" font-family="DejaVu Sans" font-weight="bold" font-size="12.00" fill="#1a202c">База знань та індекс пошуку</text>
<text text-anchor="start" x="939" y="-299.38" font-family="DejaVu Sans" font-size="10.00" fill="#1a202c">[Сховище даних · Document and vector store]</text>
</g>
<!-- n_5e8091b94410&#45;&gt;n_609849034d86 -->
<g id="edge3" class="edge">
<title>n_5e8091b94410&#45;&gt;n_609849034d86</title>
<path fill="none" stroke="#486581" stroke-width="1.4" d="M765.21,-431.66C819.49,-414.55 895,-390.75 895,-390.75 895,-390.75 957.46,-358.6 1004.33,-334.46"/>
<polygon fill="#486581" stroke="#486581" stroke-width="1.4" points="1005.87,-336.82 1011.7,-330.67 1003.31,-331.84 1005.87,-336.82"/>
<text text-anchor="start" x="938" y="-381.95" font-family="DejaVu Sans" font-size="11.00" fill="#334e68">Отримує дозволені фрагменти з версією</text>
<text text-anchor="start" x="1032.5" y="-369.95" font-family="DejaVu Sans" font-size="11.00" fill="#334e68">джерела</text>
</g>
<!-- n_4015bb97f100 -->
<g id="node6" class="node">
<title>n_4015bb97f100</title>
<path fill="#f4f7fa" stroke="#486581" stroke-width="1.5" d="M208,-325.38C208,-325.38 28,-325.38 28,-325.38 22,-325.38 16,-319.38 16,-313.38 16,-313.38 16,-301.38 16,-301.38 16,-295.38 22,-289.38 28,-289.38 28,-289.38 208,-289.38 208,-289.38 214,-289.38 220,-295.38 220,-301.38 220,-301.38 220,-313.38 220,-313.38 220,-319.38 214,-325.38 208,-325.38"/>
<text text-anchor="start" x="26" y="-309.77" font-family="DejaVu Sans" font-weight="bold" font-size="12.00" fill="#18324a">Компонувальник відповіді</text>
<text text-anchor="start" x="51" y="-299.38" font-family="DejaVu Sans" font-size="10.00" fill="#18324a">[Компонент · NLG service]</text>
</g>
<!-- n_4015bb97f100&#45;&gt;n_1655e04d57aa -->
<g id="edge11" class="edge">
<title>n_4015bb97f100&#45;&gt;n_1655e04d57aa</title>
<path fill="none" stroke="#486581" stroke-width="1.4" d="M98.55,-289.18C79.09,-271.96 52,-248 52,-248 52,-248 52,-224 52,-224 52,-224 84.51,-203.94 111.29,-187.42"/>
<polygon fill="#486581" stroke="#486581" stroke-width="1.4" points="112.97,-189.67 118.31,-183.09 110.03,-184.91 112.97,-189.67"/>
<text text-anchor="start" x="52" y="-239.2" font-family="DejaVu Sans" font-size="11.00" fill="#334e68">Маркує клінічно значущі проєкти для</text>
<text text-anchor="start" x="132.5" y="-227.2" font-family="DejaVu Sans" font-size="11.00" fill="#334e68">перегляду</text>
</g>
<!-- n_5cb9e4723669&#45;&gt;n_253c38667a70 -->
<g id="edge6" class="edge">
<title>n_5cb9e4723669&#45;&gt;n_253c38667a70</title>
<path fill="none" stroke="#486581" stroke-width="1.4" d="M233.94,-426.34C249.04,-402.06 271,-366.75 271,-366.75 271,-366.75 515,-330.75 515,-330.75 515,-330.75 523.71,-329.17 536.5,-326.84"/>
<polygon fill="#486581" stroke="#486581" stroke-width="1.4" points="537.09,-329.58 544.46,-325.39 536.09,-324.07 537.09,-329.58"/>
<text text-anchor="start" x="271" y="-381.95" font-family="DejaVu Sans" font-size="11.00" fill="#334e68">Дозволяє лише мінімізований і</text>
<text text-anchor="start" x="306" y="-369.95" font-family="DejaVu Sans" font-size="11.00" fill="#334e68">допустимий запит</text>
</g>
<!-- n_5cb9e4723669&#45;&gt;n_4015bb97f100 -->
<g id="edge10" class="edge">
<title>n_5cb9e4723669&#45;&gt;n_4015bb97f100</title>
<path fill="none" stroke="#486581" stroke-width="1.4" d="M153.34,-426.66C103.89,-410.27 45,-390.75 45,-390.75 45,-390.75 45,-366.75 45,-366.75 45,-366.75 69.39,-347.24 89.98,-330.78"/>
<polygon fill="#486581" stroke="#486581" stroke-width="1.4" points="91.99,-332.76 96.49,-325.57 88.5,-328.38 91.99,-332.76"/>
<text text-anchor="start" x="45" y="-375.95" font-family="DejaVu Sans" font-size="11.00" fill="#334e68">Передає дозволений зміст</text>
</g>
<!-- n_c63bbaa11129 -->
<g id="node8" class="node">
<title>n_c63bbaa11129</title>
<path fill="#f4f7fa" stroke="#486581" stroke-width="1.5" d="M562,-467.75C562,-467.75 372,-467.75 372,-467.75 366,-467.75 360,-461.75 360,-455.75 360,-455.75 360,-443.75 360,-443.75 360,-437.75 366,-431.75 372,-431.75 372,-431.75 562,-431.75 562,-431.75 568,-431.75 574,-437.75 574,-443.75 574,-443.75 574,-455.75 574,-455.75 574,-461.75 568,-467.75 562,-467.75"/>
<text text-anchor="start" x="370" y="-452.15" font-family="DejaVu Sans" font-weight="bold" font-size="12.00" fill="#18324a">Структурований екстрактор</text>
<text text-anchor="start" x="408.5" y="-441.75" font-family="DejaVu Sans" font-size="10.00" fill="#18324a">[Компонент · LLM/NLP]</text>
</g>
<!-- n_c63bbaa11129&#45;&gt;n_253c38667a70 -->
<g id="edge5" class="edge">
<title>n_c63bbaa11129&#45;&gt;n_253c38667a70</title>
<path fill="none" stroke="#486581" stroke-width="1.4" d="M464.94,-431.66C462.87,-414.55 460,-390.75 460,-390.75 460,-390.75 460,-366.75 460,-366.75 460,-366.75 526.5,-344.94 578.2,-327.99"/>
<polygon fill="#486581" stroke="#486581" stroke-width="1.4" points="579.31,-330.57 586.04,-325.42 577.56,-325.25 579.31,-330.57"/>
<text text-anchor="start" x="460" y="-375.95" font-family="DejaVu Sans" font-size="11.00" fill="#334e68">Запитує структуроване вилучення</text>
</g>
<!-- n_f9075d486a51 -->
<g id="node11" class="node">
<title>n_f9075d486a51</title>
<path fill="#f4f7fa" stroke="#486581" stroke-width="1.5" d="M1029.5,-744.75C1029.5,-744.75 866.5,-744.75 866.5,-744.75 860.5,-744.75 854.5,-738.75 854.5,-732.75 854.5,-732.75 854.5,-720.75 854.5,-720.75 854.5,-714.75 860.5,-708.75 866.5,-708.75 866.5,-708.75 1029.5,-708.75 1029.5,-708.75 1035.5,-708.75 1041.5,-714.75 1041.5,-720.75 1041.5,-720.75 1041.5,-732.75 1041.5,-732.75 1041.5,-738.75 1035.5,-744.75 1029.5,-744.75"/>
<text text-anchor="start" x="869" y="-729.15" font-family="DejaVu Sans" font-weight="bold" font-size="12.00" fill="#18324a">Оркестратор взаємодії</text>
<text text-anchor="start" x="864.5" y="-718.75" font-family="DejaVu Sans" font-size="10.00" fill="#18324a">[Контейнер · Application service]</text>
</g>
<!-- n_f9075d486a51&#45;&gt;n_0d0b5b8e203f -->
<g id="edge13" class="edge">
<title>n_f9075d486a51&#45;&gt;n_0d0b5b8e203f</title>
<path fill="none" stroke="#486581" stroke-width="1.4" d="M913.01,-708.69C860.93,-683.29 763.15,-635.61 707.18,-608.32"/>
<polygon fill="#486581" stroke="#486581" stroke-width="1.4" points="708.32,-605.76 699.91,-604.77 705.87,-610.79 708.32,-605.76"/>
<text text-anchor="start" x="824" y="-658.95" font-family="DejaVu Sans" font-size="11.00" fill="#334e68">Передає контекст завдання та версію</text>
<text text-anchor="start" x="844" y="-646.95" font-family="DejaVu Sans" font-size="11.00" fill="#334e68">політики формування відповіді</text>
</g>
<!-- n_f9075d486a51&#45;&gt;n_5f5685eeff97 -->
<g id="edge1" class="edge">
<title>n_f9075d486a51&#45;&gt;n_5f5685eeff97</title>
<path fill="none" stroke="#486581" stroke-width="1.4" d="M982.86,-708.69C1058.31,-671.77 1230,-587.75 1230,-587.75 1230,-587.75 1230,-587.75 1230,-164 1230,-164 1177,-134 1177,-134 1177,-134 964.22,-80.44 835.61,-48.07"/>
<polygon fill="#486581" stroke="#486581" stroke-width="1.4" points="836.09,-45.3 827.65,-46.06 834.72,-50.73 836.09,-45.3"/>
<text text-anchor="start" x="1230" y="-381.95" font-family="DejaVu Sans" font-size="11.00" fill="#334e68">Реєструє походження сформованої</text>
<text text-anchor="start" x="1250.5" y="-369.95" font-family="DejaVu Sans" font-size="11.00" fill="#334e68">репліки й виконаного кроку</text>
</g>
<!-- n_0a99d320f3b9 -->
<g id="node13" class="node">
<title>n_0a99d320f3b9</title>
<path fill="#e9eef4" stroke="#486581" stroke-width="1.5" d="M1236,-749.75C1236,-749.75 1086,-749.75 1086,-749.75 1080,-749.75 1074,-743.75 1074,-737.75 1074,-737.75 1074,-715.75 1074,-715.75 1074,-709.75 1080,-703.75 1086,-703.75 1086,-703.75 1236,-703.75 1236,-703.75 1242,-703.75 1248,-709.75 1248,-715.75 1248,-715.75 1248,-737.75 1248,-737.75 1248,-743.75 1242,-749.75 1236,-749.75"/>
<text text-anchor="start" x="1084" y="-735.15" font-family="DejaVu Sans" font-weight="bold" font-size="12.00" fill="#263238">Репозиторій клінічних</text>
<text text-anchor="start" x="1096.5" y="-723.15" font-family="DejaVu Sans" font-weight="bold" font-size="12.00" fill="#263238">протоколів і знань</text>
<text text-anchor="start" x="1105.5" y="-712.75" font-family="DejaVu Sans" font-size="10.00" fill="#263238">[Програмна система]</text>
</g>
</g>
</svg>
