<?xml version="1.0" encoding="UTF-8" standalone="no"?>
<!DOCTYPE svg PUBLIC "-//W3C//DTD SVG 1.1//EN"
 "http://www.w3.org/Graphics/SVG/1.1/DTD/svg11.dtd">
<!-- Generated by graphviz version 2.42.4 (0)
 -->
<!-- Title: G Pages: 1 -->
<svg width="1114pt" height="467pt"
 viewBox="0.00 0.00 1113.90 467.15" xmlns="http://www.w3.org/2000/svg" xmlns:xlink="http://www.w3.org/1999/xlink">
<g id="graph0" class="graph" transform="scale(1 1) rotate(0) translate(25.2 441.95)">
<title>G</title>
<polygon fill="white" stroke="transparent" points="-25.2,25.2 -25.2,-441.95 1088.7,-441.95 1088.7,25.2 -25.2,25.2"/>
<text text-anchor="start" x="98.5" y="-402.55" font-family="DejaVu Sans" font-weight="bold" font-size="14.00">C3.13 — Компоненти аудиту та спостережуваності</text>
<text text-anchor="start" x="8" y="-390.15" font-family="DejaVu Sans" font-size="12.00">Компоненти незмінного аудиту, походження, безпекового моніторингу, звітності та очищеної</text>
<text text-anchor="start" x="269.5" y="-378.15" font-family="DejaVu Sans" font-size="12.00">телеметрії.</text>
<g id="clust1" class="cluster">
<title>cluster_scope</title>
<path fill="white" stroke="#486581" stroke-width="2.2" d="M20,-8C20,-8 528,-8 528,-8 534,-8 540,-14 540,-20 540,-20 540,-350.75 540,-350.75 540,-356.75 534,-362.75 528,-362.75 528,-362.75 20,-362.75 20,-362.75 14,-362.75 8,-356.75 8,-350.75 8,-350.75 8,-20 8,-20 8,-14 14,-8 20,-8"/>
<text text-anchor="start" x="16" y="-348.55" font-family="DejaVu Sans" font-weight="bold" font-size="14.00">Сервіс аудиту та спостережуваності</text>
</g>
<!-- n_c122e6c134fd -->
<g id="node1" class="node">
<title>n_c122e6c134fd</title>
<path fill="#f4f7fa" stroke="#486581" stroke-width="1.5" d="M317.5,-331.75C317.5,-331.75 172.5,-331.75 172.5,-331.75 166.5,-331.75 160.5,-325.75 160.5,-319.75 160.5,-319.75 160.5,-307.75 160.5,-307.75 160.5,-301.75 166.5,-295.75 172.5,-295.75 172.5,-295.75 317.5,-295.75 317.5,-295.75 323.5,-295.75 329.5,-301.75 329.5,-307.75 329.5,-307.75 329.5,-319.75 329.5,-319.75 329.5,-325.75 323.5,-331.75 317.5,-331.75"/>
<text text-anchor="start" x="193.5" y="-316.15" font-family="DejaVu Sans" font-weight="bold" font-size="12.00" fill="#18324a">Збирач аудиту</text>
<text text-anchor="start" x="170.5" y="-305.75" font-family="DejaVu Sans" font-size="10.00" fill="#18324a">[Компонент · Audit ingestion]</text>
</g>
<!-- n_c64d6aeffeae -->
<g id="node3" class="node">
<title>n_c64d6aeffeae</title>
<path fill="#f4f7fa" stroke="#486581" stroke-width="1.5" d="M214,-194.38C214,-194.38 28,-194.38 28,-194.38 22,-194.38 16,-188.38 16,-182.38 16,-182.38 16,-160.38 16,-160.38 16,-154.38 22,-148.38 28,-148.38 28,-148.38 214,-148.38 214,-148.38 220,-148.38 226,-154.38 226,-160.38 226,-160.38 226,-182.38 226,-182.38 226,-188.38 220,-194.38 214,-194.38"/>
<text text-anchor="start" x="26" y="-179.78" font-family="DejaVu Sans" font-weight="bold" font-size="12.00" fill="#18324a">Сервіс походження даних і</text>
<text text-anchor="start" x="96.5" y="-167.78" font-family="DejaVu Sans" font-weight="bold" font-size="12.00" fill="#18324a">рішень</text>
<text text-anchor="start" x="39.5" y="-157.38" font-family="DejaVu Sans" font-size="10.00" fill="#18324a">[Компонент · Provenance graph]</text>
</g>
<!-- n_c122e6c134fd&#45;&gt;n_c64d6aeffeae -->
<g id="edge2" class="edge">
<title>n_c122e6c134fd&#45;&gt;n_c64d6aeffeae</title>
<path fill="none" stroke="#486581" stroke-width="1.4" d="M201.1,-295.66C157.15,-278.55 96,-254.75 96,-254.75 96,-254.75 96,-230.75 96,-230.75 96,-230.75 102.14,-216.41 108.34,-201.94"/>
<polygon fill="#486581" stroke="#486581" stroke-width="1.4" points="110.97,-202.9 111.55,-194.44 105.83,-200.7 110.97,-202.9"/>
<text text-anchor="start" x="96" y="-245.95" font-family="DejaVu Sans" font-size="11.00" fill="#334e68">Передає подію для зв&#39;язування</text>
<text text-anchor="start" x="152" y="-233.95" font-family="DejaVu Sans" font-size="11.00" fill="#334e68">походження</text>
</g>
<!-- n_d119d1098b26 -->
<g id="node4" class="node">
<title>n_d119d1098b26</title>
<path fill="#f4f7fa" stroke="#486581" stroke-width="1.5" d="M422,-189.38C422,-189.38 270,-189.38 270,-189.38 264,-189.38 258,-183.38 258,-177.38 258,-177.38 258,-165.38 258,-165.38 258,-159.38 264,-153.38 270,-153.38 270,-153.38 422,-153.38 422,-153.38 428,-153.38 434,-159.38 434,-165.38 434,-165.38 434,-177.38 434,-177.38 434,-183.38 428,-189.38 422,-189.38"/>
<text text-anchor="start" x="287.5" y="-173.78" font-family="DejaVu Sans" font-weight="bold" font-size="12.00" fill="#18324a">Монітор безпеки</text>
<text text-anchor="start" x="268" y="-163.38" font-family="DejaVu Sans" font-size="10.00" fill="#18324a">[Компонент · SIEM integration]</text>
</g>
<!-- n_c122e6c134fd&#45;&gt;n_d119d1098b26 -->
<g id="edge4" class="edge">
<title>n_c122e6c134fd&#45;&gt;n_d119d1098b26</title>
<path fill="none" stroke="#486581" stroke-width="1.4" d="M257.38,-295.54C275.25,-270.7 308.35,-224.7 328.65,-196.49"/>
<polygon fill="#486581" stroke="#486581" stroke-width="1.4" points="331.11,-197.86 333.51,-189.73 326.57,-194.59 331.11,-197.86"/>
<text text-anchor="start" x="302" y="-245.95" font-family="DejaVu Sans" font-size="11.00" fill="#334e68">Передає події доступу й поведінкові</text>
<text text-anchor="start" x="389.5" y="-233.95" font-family="DejaVu Sans" font-size="11.00" fill="#334e68">ознаки</text>
</g>
<!-- n_e37cdb3e9f92 -->
<g id="node7" class="node">
<title>n_e37cdb3e9f92</title>
<path fill="#edf2f7" stroke="#486581" stroke-width="1.5" d="M810,-190.4C810,-192.73 751.28,-194.63 679,-194.63 606.72,-194.63 548,-192.73 548,-190.4 548,-190.4 548,-152.35 548,-152.35 548,-150.02 606.72,-148.12 679,-148.12 751.28,-148.12 810,-150.02 810,-152.35 810,-152.35 810,-190.4 810,-190.4"/>
<path fill="none" stroke="#486581" stroke-width="1.5" d="M810,-190.4C810,-188.07 751.28,-186.17 679,-186.17 606.72,-186.17 548,-188.07 548,-190.4"/>
<text text-anchor="start" x="588.5" y="-173.78" font-family="DejaVu Sans" font-weight="bold" font-size="12.00" fill="#1a202c">Незмінне сховище аудиту</text>
<text text-anchor="start" x="558" y="-163.38" font-family="DejaVu Sans" font-size="10.00" fill="#1a202c">[Сховище даних · WORM / append&#45;only storage]</text>
</g>
<!-- n_c122e6c134fd&#45;&gt;n_e37cdb3e9f92 -->
<g id="edge1" class="edge">
<title>n_c122e6c134fd&#45;&gt;n_e37cdb3e9f92</title>
<path fill="none" stroke="#486581" stroke-width="1.4" d="M323.08,-295.74C336.38,-292.85 346,-290.75 346,-290.75 346,-290.75 527,-254.75 527,-254.75 527,-254.75 586.09,-222.73 630.58,-198.61"/>
<polygon fill="#486581" stroke="#486581" stroke-width="1.4" points="632.17,-200.94 637.87,-194.67 629.5,-196.02 632.17,-200.94"/>
<text text-anchor="start" x="568" y="-239.95" font-family="DejaVu Sans" font-size="11.00" fill="#334e68">Записує підписану append&#45;only подію</text>
</g>
<!-- n_999c670f8f33 -->
<g id="node2" class="node">
<title>n_999c670f8f33</title>
<path fill="#f4f7fa" stroke="#486581" stroke-width="1.5" d="M261.5,-52C261.5,-52 142.5,-52 142.5,-52 136.5,-52 130.5,-46 130.5,-40 130.5,-40 130.5,-28 130.5,-28 130.5,-22 136.5,-16 142.5,-16 142.5,-16 261.5,-16 261.5,-16 267.5,-16 273.5,-22 273.5,-28 273.5,-28 273.5,-40 273.5,-40 273.5,-46 267.5,-52 261.5,-52"/>
<text text-anchor="start" x="146.5" y="-36.4" font-family="DejaVu Sans" font-weight="bold" font-size="12.00" fill="#18324a">Формувач звітів</text>
<text text-anchor="start" x="140.5" y="-26" font-family="DejaVu Sans" font-size="10.00" fill="#18324a">[Компонент · Reporting]</text>
</g>
<!-- n_c64d6aeffeae&#45;&gt;n_999c670f8f33 -->
<g id="edge3" class="edge">
<title>n_c64d6aeffeae&#45;&gt;n_999c670f8f33</title>
<path fill="none" stroke="#486581" stroke-width="1.4" d="M92.27,-148.31C70.75,-131.78 45,-112 45,-112 45,-112 45,-88 45,-88 45,-88 99.12,-69.73 143.81,-54.64"/>
<polygon fill="#486581" stroke="#486581" stroke-width="1.4" points="144.78,-57.27 151.46,-52.06 142.98,-51.97 144.78,-57.27"/>
<text text-anchor="start" x="45" y="-97.2" font-family="DejaVu Sans" font-size="11.00" fill="#334e68">Формує перевірюваний ланцюг доказів</text>
</g>
<!-- n_d119d1098b26&#45;&gt;n_999c670f8f33 -->
<g id="edge5" class="edge">
<title>n_d119d1098b26&#45;&gt;n_999c670f8f33</title>
<path fill="none" stroke="#486581" stroke-width="1.4" d="M332.53,-153.31C313.49,-129.18 281,-88 281,-88 281,-88 255.97,-71.21 234.09,-56.53"/>
<polygon fill="#486581" stroke="#486581" stroke-width="1.4" points="235.63,-54.19 227.43,-52.06 232.51,-58.84 235.63,-54.19"/>
<text text-anchor="start" x="299" y="-103.2" font-family="DejaVu Sans" font-size="11.00" fill="#334e68">Передає підтверджені інциденти та</text>
<text text-anchor="start" x="386" y="-91.2" font-family="DejaVu Sans" font-size="11.00" fill="#334e68">реакції</text>
</g>
<!-- n_c433d8443bf3 -->
<g id="node5" class="node">
<title>n_c433d8443bf3</title>
<path fill="#f4f7fa" stroke="#486581" stroke-width="1.5" d="M520,-331.75C520,-331.75 374,-331.75 374,-331.75 368,-331.75 362,-325.75 362,-319.75 362,-319.75 362,-307.75 362,-307.75 362,-301.75 368,-295.75 374,-295.75 374,-295.75 520,-295.75 520,-295.75 526,-295.75 532,-301.75 532,-307.75 532,-307.75 532,-319.75 532,-319.75 532,-325.75 526,-331.75 520,-331.75"/>
<text text-anchor="start" x="372.5" y="-316.15" font-family="DejaVu Sans" font-weight="bold" font-size="12.00" fill="#18324a">Експортер телеметрії</text>
<text text-anchor="start" x="372" y="-305.75" font-family="DejaVu Sans" font-size="10.00" fill="#18324a">[Компонент · OpenTelemetry]</text>
</g>
<!-- n_3413ea645d36 -->
<g id="node6" class="node">
<title>n_3413ea645d36</title>
<path fill="#edf2f7" stroke="#486581" stroke-width="1.5" d="M1063.5,-190.4C1063.5,-192.73 1013.97,-194.63 953,-194.63 892.03,-194.63 842.5,-192.73 842.5,-190.4 842.5,-190.4 842.5,-152.35 842.5,-152.35 842.5,-150.02 892.03,-148.12 953,-148.12 1013.97,-148.12 1063.5,-150.02 1063.5,-152.35 1063.5,-152.35 1063.5,-190.4 1063.5,-190.4"/>
<path fill="none" stroke="#486581" stroke-width="1.5" d="M1063.5,-190.4C1063.5,-188.07 1013.97,-186.17 953,-186.17 892.03,-186.17 842.5,-188.07 842.5,-190.4"/>
<text text-anchor="start" x="881.5" y="-173.78" font-family="DejaVu Sans" font-weight="bold" font-size="12.00" fill="#1a202c">Аналітичне сховище</text>
<text text-anchor="start" x="852.5" y="-163.38" font-family="DejaVu Sans" font-size="10.00" fill="#1a202c">[Сховище даних · Analytics warehouse]</text>
</g>
<!-- n_c433d8443bf3&#45;&gt;n_3413ea645d36 -->
<g id="edge6" class="edge">
<title>n_c433d8443bf3&#45;&gt;n_3413ea645d36</title>
<path fill="none" stroke="#486581" stroke-width="1.4" d="M525.08,-295.74C538.38,-292.85 548,-290.75 548,-290.75 548,-290.75 797,-254.75 797,-254.75 797,-254.75 857.89,-222.6 903.59,-198.46"/>
<polygon fill="#486581" stroke="#486581" stroke-width="1.4" points="905.02,-200.88 910.78,-194.67 902.4,-195.93 905.02,-200.88"/>
<text text-anchor="start" x="838" y="-239.95" font-family="DejaVu Sans" font-size="11.00" fill="#334e68">Передає очищені технічні метрики</text>
</g>
<!-- n_c7796133ac1d -->
<g id="node8" class="node">
<title>n_c7796133ac1d</title>
<path fill="#4a5568" stroke="#486581" stroke-width="1.5" d="M773.5,-336.75C773.5,-336.75 576.5,-336.75 576.5,-336.75 570.5,-336.75 564.5,-330.75 564.5,-324.75 564.5,-324.75 564.5,-302.75 564.5,-302.75 564.5,-296.75 570.5,-290.75 576.5,-290.75 576.5,-290.75 773.5,-290.75 773.5,-290.75 779.5,-290.75 785.5,-296.75 785.5,-302.75 785.5,-302.75 785.5,-324.75 785.5,-324.75 785.5,-330.75 779.5,-336.75 773.5,-336.75"/>
<text text-anchor="start" x="574.5" y="-322.15" font-family="DejaVu Sans" font-weight="bold" font-size="12.00" fill="#ffffff">Адміністратор платформи та</text>
<text text-anchor="start" x="646.5" y="-310.15" font-family="DejaVu Sans" font-weight="bold" font-size="12.00" fill="#ffffff">безпеки</text>
<text text-anchor="start" x="655.5" y="-299.75" font-family="DejaVu Sans" font-size="10.00" fill="#ffffff">[Особа]</text>
</g>
</g>
</svg>
