<?xml version="1.0" encoding="UTF-8" standalone="no"?>
<!DOCTYPE svg PUBLIC "-//W3C//DTD SVG 1.1//EN"
 "http://www.w3.org/Graphics/SVG/1.1/DTD/svg11.dtd">
<!-- Generated by graphviz version 2.42.4 (0)
 -->
<!-- Title: G Pages: 1 -->
<svg width="1477pt" height="974pt"
 viewBox="0.00 0.00 1476.90 973.53" xmlns="http://www.w3.org/2000/svg" xmlns:xlink="http://www.w3.org/1999/xlink">
<g id="graph0" class="graph" transform="scale(1 1) rotate(0) translate(25.2 948.33)">
<title>G</title>
<polygon fill="white" stroke="transparent" points="-25.2,25.2 -25.2,-948.33 1451.7,-948.33 1451.7,25.2 -25.2,25.2"/>
<text text-anchor="start" x="103.5" y="-908.92" font-family="DejaVu Sans" font-weight="bold" font-size="14.00">C3.10 — Компоненти мультимодальних вимірювань</text>
<text text-anchor="start" x="8" y="-896.52" font-family="DejaVu Sans" font-size="12.00">Компоненти приймання, контролю якості, аналізу та нормалізації мультимодальних вимірювань.</text>
<g id="clust1" class="cluster">
<title>cluster_scope</title>
<path fill="white" stroke="#486581" stroke-width="2.2" d="M20,-139.75C20,-139.75 901,-139.75 901,-139.75 907,-139.75 913,-145.75 913,-151.75 913,-151.75 913,-869.12 913,-869.12 913,-875.12 907,-881.12 901,-881.12 901,-881.12 20,-881.12 20,-881.12 14,-881.12 8,-875.12 8,-869.12 8,-869.12 8,-151.75 8,-151.75 8,-145.75 14,-139.75 20,-139.75"/>
<text text-anchor="start" x="16" y="-866.92" font-family="DejaVu Sans" font-weight="bold" font-size="14.00">Сервіс мультимодальних вимірювань</text>
</g>
<!-- n_27b1c436e655 -->
<g id="node1" class="node">
<title>n_27b1c436e655</title>
<path fill="#f4f7fa" stroke="#486581" stroke-width="1.5" d="M843.5,-850.12C843.5,-850.12 692.5,-850.12 692.5,-850.12 686.5,-850.12 680.5,-844.12 680.5,-838.12 680.5,-838.12 680.5,-826.12 680.5,-826.12 680.5,-820.12 686.5,-814.12 692.5,-814.12 692.5,-814.12 843.5,-814.12 843.5,-814.12 849.5,-814.12 855.5,-820.12 855.5,-826.12 855.5,-826.12 855.5,-838.12 855.5,-838.12 855.5,-844.12 849.5,-850.12 843.5,-850.12"/>
<text text-anchor="start" x="711" y="-834.52" font-family="DejaVu Sans" font-weight="bold" font-size="12.00" fill="#18324a">Шлюз пристроїв</text>
<text text-anchor="start" x="690.5" y="-824.12" font-family="DejaVu Sans" font-size="10.00" fill="#18324a">[Компонент · Device adapters]</text>
</g>
<!-- n_38ba5dcbb7df -->
<g id="node6" class="node">
<title>n_38ba5dcbb7df</title>
<path fill="#f4f7fa" stroke="#c92a2a" stroke-width="3" d="M588,-712.75C588,-712.75 454,-712.75 454,-712.75 448,-712.75 442,-706.75 442,-700.75 442,-700.75 442,-688.75 442,-688.75 442,-682.75 448,-676.75 454,-676.75 454,-676.75 588,-676.75 588,-676.75 594,-676.75 600,-682.75 600,-688.75 600,-688.75 600,-700.75 600,-700.75 600,-706.75 594,-712.75 588,-712.75"/>
<text text-anchor="start" x="465" y="-697.15" font-family="DejaVu Sans" font-weight="bold" font-size="12.00" fill="#18324a">Контроль якості</text>
<text text-anchor="start" x="452" y="-686.75" font-family="DejaVu Sans" font-size="10.00" fill="#18324a">[Компонент · Quality rules]</text>
</g>
<!-- n_27b1c436e655&#45;&gt;n_38ba5dcbb7df -->
<g id="edge4" class="edge">
<title>n_27b1c436e655&#45;&gt;n_38ba5dcbb7df</title>
<path fill="none" stroke="#486581" stroke-width="1.4" d="M695.31,-814.08C621.81,-796.85 519,-772.75 519,-772.75 519,-772.75 519,-748.75 519,-748.75 519,-748.75 519.53,-734.73 520.04,-721.11"/>
<polygon fill="#486581" stroke="#486581" stroke-width="1.4" points="522.85,-720.91 520.36,-712.81 517.26,-720.7 522.85,-720.91"/>
<text text-anchor="start" x="519" y="-757.95" font-family="DejaVu Sans" font-size="11.00" fill="#334e68">Передає потік для контролю якості</text>
</g>
<!-- n_fd9938cf1df8 -->
<g id="node10" class="node">
<title>n_fd9938cf1df8</title>
<path fill="#e9eef4" stroke="#486581" stroke-width="1.5" d="M1129.5,-712.75C1129.5,-712.75 932.5,-712.75 932.5,-712.75 926.5,-712.75 920.5,-706.75 920.5,-700.75 920.5,-700.75 920.5,-688.75 920.5,-688.75 920.5,-682.75 926.5,-676.75 932.5,-676.75 932.5,-676.75 1129.5,-676.75 1129.5,-676.75 1135.5,-676.75 1141.5,-682.75 1141.5,-688.75 1141.5,-688.75 1141.5,-700.75 1141.5,-700.75 1141.5,-706.75 1135.5,-712.75 1129.5,-712.75"/>
<text text-anchor="start" x="930.5" y="-697.15" font-family="DejaVu Sans" font-weight="bold" font-size="12.00" fill="#263238">Медичні пристрої та сенсори</text>
<text text-anchor="start" x="975.5" y="-686.75" font-family="DejaVu Sans" font-size="10.00" fill="#263238">[Програмна система]</text>
</g>
<!-- n_27b1c436e655&#45;&gt;n_fd9938cf1df8 -->
<g id="edge3" class="edge">
<title>n_27b1c436e655&#45;&gt;n_fd9938cf1df8</title>
<path fill="none" stroke="#486581" stroke-width="1.4" d="M834.27,-814.08C901.27,-796.85 995,-772.75 995,-772.75 995,-772.75 1009.05,-742.7 1019.59,-720.15"/>
<polygon fill="#486581" stroke="#486581" stroke-width="1.4" points="1022.16,-721.27 1023.01,-712.84 1017.09,-718.9 1022.16,-721.27"/>
<text text-anchor="start" x="1005" y="-757.95" font-family="DejaVu Sans" font-size="11.00" fill="#334e68">Приймає сигнал і технічні метадані</text>
</g>
<!-- n_ad554367e5af -->
<g id="node2" class="node">
<title>n_ad554367e5af</title>
<path fill="#f4f7fa" stroke="#486581" stroke-width="1.5" d="M229.5,-450.75C229.5,-450.75 28.5,-450.75 28.5,-450.75 22.5,-450.75 16.5,-444.75 16.5,-438.75 16.5,-438.75 16.5,-416.75 16.5,-416.75 16.5,-410.75 22.5,-404.75 28.5,-404.75 28.5,-404.75 229.5,-404.75 229.5,-404.75 235.5,-404.75 241.5,-410.75 241.5,-416.75 241.5,-416.75 241.5,-438.75 241.5,-438.75 241.5,-444.75 235.5,-450.75 229.5,-450.75"/>
<text text-anchor="start" x="26.5" y="-436.15" font-family="DejaVu Sans" font-weight="bold" font-size="12.00" fill="#18324a">Аналізатор ЕКГ / Мінесотське</text>
<text text-anchor="start" x="92" y="-424.15" font-family="DejaVu Sans" font-weight="bold" font-size="12.00" fill="#18324a">кодування</text>
<text text-anchor="start" x="59.5" y="-413.75" font-family="DejaVu Sans" font-size="10.00" fill="#18324a">[Компонент · ECG analysis]</text>
</g>
<!-- n_c8628bd287e4 -->
<g id="node3" class="node">
<title>n_c8628bd287e4</title>
<path fill="#f4f7fa" stroke="#c92a2a" stroke-width="3" d="M555,-320.75C555,-320.75 395,-320.75 395,-320.75 389,-320.75 383,-314.75 383,-308.75 383,-308.75 383,-296.75 383,-296.75 383,-290.75 389,-284.75 395,-284.75 395,-284.75 555,-284.75 555,-284.75 561,-284.75 567,-290.75 567,-296.75 567,-296.75 567,-308.75 567,-308.75 567,-314.75 561,-320.75 555,-320.75"/>
<text text-anchor="start" x="413" y="-305.15" font-family="DejaVu Sans" font-weight="bold" font-size="12.00" fill="#18324a">Об&#39;єднання ознак</text>
<text text-anchor="start" x="393" y="-294.75" font-family="DejaVu Sans" font-size="10.00" fill="#18324a">[Компонент · Multimodal fusion]</text>
</g>
<!-- n_ad554367e5af&#45;&gt;n_c8628bd287e4 -->
<g id="edge10" class="edge">
<title>n_ad554367e5af&#45;&gt;n_c8628bd287e4</title>
<path fill="none" stroke="#486581" stroke-width="1.4" d="M148.3,-404.6C166.17,-384.09 190,-356.75 190,-356.75 190,-356.75 293.18,-337.56 375.37,-322.28"/>
<polygon fill="#486581" stroke="#486581" stroke-width="1.4" points="375.9,-325.03 383.26,-320.81 374.88,-319.52 375.9,-325.03"/>
<text text-anchor="start" x="190" y="-359.95" font-family="DejaVu Sans" font-size="11.00" fill="#334e68">Передає коди й ознаки ЕКГ</text>
</g>
<!-- n_45a720378876 -->
<g id="node5" class="node">
<title>n_45a720378876</title>
<path fill="#f4f7fa" stroke="#486581" stroke-width="1.5" d="M561.5,-183.75C561.5,-183.75 388.5,-183.75 388.5,-183.75 382.5,-183.75 376.5,-177.75 376.5,-171.75 376.5,-171.75 376.5,-159.75 376.5,-159.75 376.5,-153.75 382.5,-147.75 388.5,-147.75 388.5,-147.75 561.5,-147.75 561.5,-147.75 567.5,-147.75 573.5,-153.75 573.5,-159.75 573.5,-159.75 573.5,-171.75 573.5,-171.75 573.5,-177.75 567.5,-183.75 561.5,-183.75"/>
<text text-anchor="start" x="386.5" y="-168.15" font-family="DejaVu Sans" font-weight="bold" font-size="12.00" fill="#18324a">Нормалізатор результату</text>
<text text-anchor="start" x="396.5" y="-157.75" font-family="DejaVu Sans" font-size="10.00" fill="#18324a">[Компонент · Clinical mapping]</text>
</g>
<!-- n_c8628bd287e4&#45;&gt;n_45a720378876 -->
<g id="edge14" class="edge">
<title>n_c8628bd287e4&#45;&gt;n_45a720378876</title>
<path fill="none" stroke="#486581" stroke-width="1.4" d="M475,-284.65C475,-261.35 475,-219.42 475,-192.36"/>
<polygon fill="#486581" stroke="#486581" stroke-width="1.4" points="477.8,-192.14 475,-184.14 472.2,-192.14 477.8,-192.14"/>
<text text-anchor="start" x="475" y="-239.95" font-family="DejaVu Sans" font-size="11.00" fill="#334e68">Передає сумісні ознаки та внески</text>
<text text-anchor="start" x="533" y="-227.95" font-family="DejaVu Sans" font-size="11.00" fill="#334e68">модальностей</text>
</g>
<!-- n_582e6098d8f8 -->
<g id="node4" class="node">
<title>n_582e6098d8f8</title>
<path fill="#f4f7fa" stroke="#486581" stroke-width="1.5" d="M450.5,-450.75C450.5,-450.75 285.5,-450.75 285.5,-450.75 279.5,-450.75 273.5,-444.75 273.5,-438.75 273.5,-438.75 273.5,-416.75 273.5,-416.75 273.5,-410.75 279.5,-404.75 285.5,-404.75 285.5,-404.75 450.5,-404.75 450.5,-404.75 456.5,-404.75 462.5,-410.75 462.5,-416.75 462.5,-416.75 462.5,-438.75 462.5,-438.75 462.5,-444.75 456.5,-450.75 450.5,-450.75"/>
<text text-anchor="start" x="293" y="-436.15" font-family="DejaVu Sans" font-weight="bold" font-size="12.00" fill="#18324a">Аналізатор медичних</text>
<text text-anchor="start" x="330" y="-424.15" font-family="DejaVu Sans" font-weight="bold" font-size="12.00" fill="#18324a">зображень</text>
<text text-anchor="start" x="283.5" y="-413.75" font-family="DejaVu Sans" font-size="10.00" fill="#18324a">[Компонент · Medical imaging AI]</text>
</g>
<!-- n_582e6098d8f8&#45;&gt;n_c8628bd287e4 -->
<g id="edge13" class="edge">
<title>n_582e6098d8f8&#45;&gt;n_c8628bd287e4</title>
<path fill="none" stroke="#486581" stroke-width="1.4" d="M365.31,-404.49C363.34,-388.14 361,-368.75 361,-368.75 361,-368.75 361,-356.75 361,-356.75 361,-356.75 398.69,-339.23 430.73,-324.33"/>
<polygon fill="#486581" stroke="#486581" stroke-width="1.4" points="432.23,-326.72 438.3,-320.81 429.87,-321.64 432.23,-326.72"/>
<text text-anchor="start" x="361" y="-359.95" font-family="DejaVu Sans" font-size="11.00" fill="#334e68">Передає зображувальні ознаки</text>
</g>
<!-- n_5f5685eeff97 -->
<g id="node12" class="node">
<title>n_5f5685eeff97</title>
<path fill="#4a5568" stroke="#486581" stroke-width="1.5" d="M728,-46.38C728,-46.38 506,-46.38 506,-46.38 500,-46.38 494,-40.38 494,-34.38 494,-34.38 494,-12.38 494,-12.38 494,-6.38 500,-0.37 506,-0.37 506,-0.37 728,-0.37 728,-0.37 734,-0.37 740,-6.37 740,-12.37 740,-12.37 740,-34.38 740,-34.38 740,-40.38 734,-46.38 728,-46.38"/>
<text text-anchor="start" x="559" y="-31.77" font-family="DejaVu Sans" font-weight="bold" font-size="12.00" fill="#ffffff">Сервіс аудиту та</text>
<text text-anchor="start" x="551.5" y="-19.77" font-family="DejaVu Sans" font-weight="bold" font-size="12.00" fill="#ffffff">спостережуваності</text>
<text text-anchor="start" x="504" y="-9.38" font-family="DejaVu Sans" font-size="10.00" fill="#ffffff">[Контейнер · Audit and observability service]</text>
</g>
<!-- n_45a720378876&#45;&gt;n_5f5685eeff97 -->
<g id="edge16" class="edge">
<title>n_45a720378876&#45;&gt;n_5f5685eeff97</title>
<path fill="none" stroke="#486581" stroke-width="1.4" d="M451.72,-147.66C428.42,-130.55 396,-106.75 396,-106.75 396,-106.75 396,-82.75 396,-82.75 396,-82.75 464.85,-64.56 525.69,-48.49"/>
<polygon fill="#486581" stroke="#486581" stroke-width="1.4" points="526.43,-51.19 533.45,-46.44 525,-45.78 526.43,-51.19"/>
<text text-anchor="start" x="396" y="-97.95" font-family="DejaVu Sans" font-size="11.00" fill="#334e68">Фіксує версії моделей і ланцюг</text>
<text text-anchor="start" x="449.5" y="-85.95" font-family="DejaVu Sans" font-size="11.00" fill="#334e68">перетворень</text>
</g>
<!-- n_40b119007c9f -->
<g id="node13" class="node">
<title>n_40b119007c9f</title>
<path fill="#edf2f7" stroke="#486581" stroke-width="1.5" d="M1158.5,-42.4C1158.5,-44.73 1096.42,-46.63 1020,-46.63 943.58,-46.63 881.5,-44.73 881.5,-42.4 881.5,-42.4 881.5,-4.35 881.5,-4.35 881.5,-2.02 943.58,-0.12 1020,-0.12 1096.42,-0.12 1158.5,-2.02 1158.5,-4.35 1158.5,-4.35 1158.5,-42.4 1158.5,-42.4"/>
<path fill="none" stroke="#486581" stroke-width="1.5" d="M1158.5,-42.4C1158.5,-40.07 1096.42,-38.17 1020,-38.17 943.58,-38.17 881.5,-40.07 881.5,-42.4"/>
<text text-anchor="start" x="958" y="-25.77" font-family="DejaVu Sans" font-weight="bold" font-size="12.00" fill="#1a202c">Клінічне сховище</text>
<text text-anchor="start" x="891.5" y="-15.37" font-family="DejaVu Sans" font-size="10.00" fill="#1a202c">[Сховище даних · FHIR&#45;oriented clinical repository]</text>
</g>
<!-- n_45a720378876&#45;&gt;n_40b119007c9f -->
<g id="edge15" class="edge">
<title>n_45a720378876&#45;&gt;n_40b119007c9f</title>
<path fill="none" stroke="#486581" stroke-width="1.4" d="M506.82,-147.66C538.68,-130.55 583,-106.75 583,-106.75 583,-106.75 612,-82.75 612,-82.75 612,-82.75 756.31,-62.1 873.28,-45.37"/>
<polygon fill="#486581" stroke="#486581" stroke-width="1.4" points="873.78,-48.12 881.3,-44.22 872.98,-42.58 873.78,-48.12"/>
<text text-anchor="start" x="612" y="-97.95" font-family="DejaVu Sans" font-size="11.00" fill="#334e68">Зберігає нормалізований результат і</text>
<text text-anchor="start" x="702.5" y="-85.95" font-family="DejaVu Sans" font-size="11.00" fill="#334e68">якість</text>
</g>
<!-- n_ece798a72db0 -->
<g id="node7" class="node">
<title>n_ece798a72db0</title>
<path fill="#f4f7fa" stroke="#486581" stroke-width="1.5" d="M600.5,-592.75C600.5,-592.75 441.5,-592.75 441.5,-592.75 435.5,-592.75 429.5,-586.75 429.5,-580.75 429.5,-580.75 429.5,-558.75 429.5,-558.75 429.5,-552.75 435.5,-546.75 441.5,-546.75 441.5,-546.75 600.5,-546.75 600.5,-546.75 606.5,-546.75 612.5,-552.75 612.5,-558.75 612.5,-558.75 612.5,-580.75 612.5,-580.75 612.5,-586.75 606.5,-592.75 600.5,-592.75"/>
<text text-anchor="start" x="439.5" y="-578.15" font-family="DejaVu Sans" font-weight="bold" font-size="12.00" fill="#18324a">Попереднє оброблення</text>
<text text-anchor="start" x="492" y="-566.15" font-family="DejaVu Sans" font-weight="bold" font-size="12.00" fill="#18324a">сигналів</text>
<text text-anchor="start" x="452.5" y="-555.75" font-family="DejaVu Sans" font-size="10.00" fill="#18324a">[Компонент · DSP pipeline]</text>
</g>
<!-- n_38ba5dcbb7df&#45;&gt;n_ece798a72db0 -->
<g id="edge5" class="edge">
<title>n_38ba5dcbb7df&#45;&gt;n_ece798a72db0</title>
<path fill="none" stroke="#486581" stroke-width="1.4" d="M521,-676.65C521,-657.16 521,-624.94 521,-601.15"/>
<polygon fill="#486581" stroke="#486581" stroke-width="1.4" points="523.8,-601.12 521,-593.12 518.2,-601.12 523.8,-601.12"/>
<text text-anchor="start" x="521" y="-631.95" font-family="DejaVu Sans" font-size="11.00" fill="#334e68">Допускає придатний потік до оброблення</text>
</g>
<!-- n_ece798a72db0&#45;&gt;n_ad554367e5af -->
<g id="edge6" class="edge">
<title>n_ece798a72db0&#45;&gt;n_ad554367e5af</title>
<path fill="none" stroke="#486581" stroke-width="1.4" d="M429.27,-556.02C306.22,-538.95 103,-510.75 103,-510.75 103,-510.75 103,-486.75 103,-486.75 103,-486.75 109.3,-472.69 115.7,-458.42"/>
<polygon fill="#486581" stroke="#486581" stroke-width="1.4" points="118.3,-459.45 119.02,-451.01 113.19,-457.16 118.3,-459.45"/>
<text text-anchor="start" x="103" y="-495.95" font-family="DejaVu Sans" font-size="11.00" fill="#334e68">Передає підготовлений ЕКГ&#45;сигнал</text>
</g>
<!-- n_ece798a72db0&#45;&gt;n_582e6098d8f8 -->
<g id="edge9" class="edge">
<title>n_ece798a72db0&#45;&gt;n_582e6098d8f8</title>
<path fill="none" stroke="#486581" stroke-width="1.4" d="M444.72,-546.74C387.86,-530.33 320,-510.75 320,-510.75 320,-510.75 320,-486.75 320,-486.75 320,-486.75 332.28,-471.91 344.42,-457.24"/>
<polygon fill="#486581" stroke="#486581" stroke-width="1.4" points="346.64,-458.96 349.58,-451.01 342.32,-455.39 346.64,-458.96"/>
<text text-anchor="start" x="320" y="-501.95" font-family="DejaVu Sans" font-size="11.00" fill="#334e68">Передає підтримуване медичне</text>
<text text-anchor="start" x="379" y="-489.95" font-family="DejaVu Sans" font-size="11.00" fill="#334e68">зображення</text>
</g>
<!-- n_0be81a6d58b7 -->
<g id="node8" class="node">
<title>n_0be81a6d58b7</title>
<path fill="#f4f7fa" stroke="#486581" stroke-width="1.5" d="M659,-445.75C659,-445.75 507,-445.75 507,-445.75 501,-445.75 495,-439.75 495,-433.75 495,-433.75 495,-421.75 495,-421.75 495,-415.75 501,-409.75 507,-409.75 507,-409.75 659,-409.75 659,-409.75 665,-409.75 671,-415.75 671,-421.75 671,-421.75 671,-433.75 671,-433.75 671,-439.75 665,-445.75 659,-445.75"/>
<text text-anchor="start" x="523.5" y="-430.15" font-family="DejaVu Sans" font-weight="bold" font-size="12.00" fill="#18324a">Аналізатор відео</text>
<text text-anchor="start" x="505" y="-419.75" font-family="DejaVu Sans" font-size="10.00" fill="#18324a">[Компонент · Computer vision]</text>
</g>
<!-- n_ece798a72db0&#45;&gt;n_0be81a6d58b7 -->
<g id="edge8" class="edge">
<title>n_ece798a72db0&#45;&gt;n_0be81a6d58b7</title>
<path fill="none" stroke="#486581" stroke-width="1.4" d="M519.85,-546.49C519,-530.14 518,-510.75 518,-510.75 518,-510.75 518,-486.75 518,-486.75 518,-486.75 539.53,-467.54 557.81,-451.23"/>
<polygon fill="#486581" stroke="#486581" stroke-width="1.4" points="559.74,-453.25 563.85,-445.84 556.02,-449.08 559.74,-453.25"/>
<text text-anchor="start" x="518" y="-501.95" font-family="DejaVu Sans" font-size="11.00" fill="#334e68">Передає підготовлену</text>
<text text-anchor="start" x="528" y="-489.95" font-family="DejaVu Sans" font-size="11.00" fill="#334e68">відеопослідовність</text>
</g>
<!-- n_3985a6ec34a9 -->
<g id="node9" class="node">
<title>n_3985a6ec34a9</title>
<path fill="#f4f7fa" stroke="#486581" stroke-width="1.5" d="M838.5,-445.75C838.5,-445.75 715.5,-445.75 715.5,-445.75 709.5,-445.75 703.5,-439.75 703.5,-433.75 703.5,-433.75 703.5,-421.75 703.5,-421.75 703.5,-415.75 709.5,-409.75 715.5,-409.75 715.5,-409.75 838.5,-409.75 838.5,-409.75 844.5,-409.75 850.5,-415.75 850.5,-421.75 850.5,-421.75 850.5,-433.75 850.5,-433.75 850.5,-439.75 844.5,-445.75 838.5,-445.75"/>
<text text-anchor="start" x="713.5" y="-430.15" font-family="DejaVu Sans" font-weight="bold" font-size="12.00" fill="#18324a">Аналізатор голосу</text>
<text text-anchor="start" x="716.5" y="-419.75" font-family="DejaVu Sans" font-size="10.00" fill="#18324a">[Компонент · Audio ML]</text>
</g>
<!-- n_ece798a72db0&#45;&gt;n_3985a6ec34a9 -->
<g id="edge7" class="edge">
<title>n_ece798a72db0&#45;&gt;n_3985a6ec34a9</title>
<path fill="none" stroke="#486581" stroke-width="1.4" d="M571.66,-546.66C609.25,-530.27 654,-510.75 654,-510.75 654,-510.75 707.74,-474.92 744.18,-450.63"/>
<polygon fill="#486581" stroke="#486581" stroke-width="1.4" points="746.11,-452.71 751.22,-445.94 743.01,-448.05 746.11,-452.71"/>
<text text-anchor="start" x="686" y="-495.95" font-family="DejaVu Sans" font-size="11.00" fill="#334e68">Передає підготовлений аудіосигнал</text>
</g>
<!-- n_0be81a6d58b7&#45;&gt;n_c8628bd287e4 -->
<g id="edge12" class="edge">
<title>n_0be81a6d58b7&#45;&gt;n_c8628bd287e4</title>
<path fill="none" stroke="#486581" stroke-width="1.4" d="M574.84,-409.45C565.07,-388.72 550,-356.75 550,-356.75 550,-356.75 526.44,-340.1 505.73,-325.47"/>
<polygon fill="#486581" stroke="#486581" stroke-width="1.4" points="507.29,-323.14 499.14,-320.81 504.06,-327.71 507.29,-323.14"/>
<text text-anchor="start" x="555" y="-359.95" font-family="DejaVu Sans" font-size="11.00" fill="#334e68">Передає відеоознаки</text>
</g>
<!-- n_3985a6ec34a9&#45;&gt;n_c8628bd287e4 -->
<g id="edge11" class="edge">
<title>n_3985a6ec34a9&#45;&gt;n_c8628bd287e4</title>
<path fill="none" stroke="#486581" stroke-width="1.4" d="M755,-409.45C728.64,-388.72 688,-356.75 688,-356.75 688,-356.75 612.74,-338.02 551.7,-322.83"/>
<polygon fill="#486581" stroke="#486581" stroke-width="1.4" points="552.01,-320.03 543.57,-320.81 550.65,-325.46 552.01,-320.03"/>
<text text-anchor="start" x="702" y="-359.95" font-family="DejaVu Sans" font-size="11.00" fill="#334e68">Передає голосові ознаки</text>
</g>
<!-- n_fd9938cf1df8&#45;&gt;n_27b1c436e655 -->
<g id="edge17" class="edge">
<title>n_fd9938cf1df8&#45;&gt;n_27b1c436e655</title>
<path fill="none" stroke="#486581" stroke-width="1.4" d="M944.08,-712.81C865.15,-728.3 761,-748.75 761,-748.75 761,-748.75 761,-772.75 761,-772.75 761,-772.75 763.08,-790.12 764.98,-805.91"/>
<polygon fill="#486581" stroke="#486581" stroke-width="1.4" points="762.2,-806.32 765.94,-813.93 767.77,-805.65 762.2,-806.32"/>
<text text-anchor="start" x="761" y="-763.95" font-family="DejaVu Sans" font-size="11.00" fill="#334e68">Передає дозволений сигнал і технічні</text>
<text text-anchor="start" x="847" y="-751.95" font-family="DejaVu Sans" font-size="11.00" fill="#334e68">метадані</text>
</g>
<!-- n_c3da19e3d57e -->
<g id="node11" class="node">
<title>n_c3da19e3d57e</title>
<path fill="#6741d9" stroke="#486581" stroke-width="1.5" d="M1141,-855.12C1141,-855.12 933,-855.12 933,-855.12 927,-855.12 921,-849.12 921,-843.12 921,-843.12 921,-821.12 921,-821.12 921,-815.12 927,-809.12 933,-809.12 933,-809.12 1141,-809.12 1141,-809.12 1147,-809.12 1153,-815.12 1153,-821.12 1153,-821.12 1153,-843.12 1153,-843.12 1153,-849.12 1147,-855.12 1141,-855.12"/>
<text text-anchor="start" x="931" y="-840.52" font-family="DejaVu Sans" font-weight="bold" font-size="12.00" fill="#ffffff">Реєстр і середовище моделей</text>
<text text-anchor="start" x="1027" y="-828.52" font-family="DejaVu Sans" font-weight="bold" font-size="12.00" fill="#ffffff">ШІ</text>
<text text-anchor="start" x="981.5" y="-818.12" font-family="DejaVu Sans" font-size="10.00" fill="#ffffff">[Програмна система]</text>
</g>
<!-- n_f9fe6a00e3bb -->
<g id="node14" class="node">
<title>n_f9fe6a00e3bb</title>
<path fill="#ffe3e3" stroke="#486581" stroke-width="1.5" d="M1426.5,-851.15C1426.5,-853.48 1372.49,-855.38 1306,-855.38 1239.51,-855.38 1185.5,-853.48 1185.5,-851.15 1185.5,-851.15 1185.5,-813.1 1185.5,-813.1 1185.5,-810.77 1239.51,-808.87 1306,-808.87 1372.49,-808.87 1426.5,-810.77 1426.5,-813.1 1426.5,-813.1 1426.5,-851.15 1426.5,-851.15"/>
<path fill="none" stroke="#486581" stroke-width="1.5" d="M1426.5,-851.15C1426.5,-848.82 1372.49,-846.92 1306,-846.92 1239.51,-846.92 1185.5,-848.82 1185.5,-851.15"/>
<text text-anchor="start" x="1206.5" y="-834.52" font-family="DejaVu Sans" font-weight="bold" font-size="12.00" fill="#5c1a1a">Захищене об&#39;єктне сховище</text>
<text text-anchor="start" x="1195.5" y="-824.12" font-family="DejaVu Sans" font-size="10.00" fill="#5c1a1a">[Сховище даних · Encrypted object storage]</text>
</g>
<!-- n_78e6a86e3609 -->
<g id="node15" class="node">
<title>n_78e6a86e3609</title>
<path fill="#2b6cb0" stroke="#c92a2a" stroke-width="3" d="M1211,-188.75C1211,-188.75 971,-188.75 971,-188.75 965,-188.75 959,-182.75 959,-176.75 959,-176.75 959,-154.75 959,-154.75 959,-148.75 965,-142.75 971,-142.75 971,-142.75 1211,-142.75 1211,-142.75 1217,-142.75 1223,-148.75 1223,-154.75 1223,-154.75 1223,-176.75 1223,-176.75 1223,-182.75 1217,-188.75 1211,-188.75"/>
<text text-anchor="start" x="1012" y="-174.15" font-family="DejaVu Sans" font-weight="bold" font-size="12.00" fill="#ffffff">Детермінований рушій</text>
<text text-anchor="start" x="1059" y="-162.15" font-family="DejaVu Sans" font-weight="bold" font-size="12.00" fill="#ffffff">сценаріїв</text>
<text text-anchor="start" x="969" y="-151.75" font-family="DejaVu Sans" font-size="10.00" fill="#ffffff">[Контейнер · Rules engine / finite&#45;state machine]</text>
</g>
<!-- n_78e6a86e3609&#45;&gt;n_5f5685eeff97 -->
<g id="edge2" class="edge">
<title>n_78e6a86e3609&#45;&gt;n_5f5685eeff97</title>
<path fill="none" stroke="#486581" stroke-width="1.4" d="M1006,-142.74C942.63,-126.33 867,-106.75 867,-106.75 867,-106.75 838,-82.75 838,-82.75 838,-82.75 769.15,-64.56 708.31,-48.49"/>
<polygon fill="#486581" stroke="#486581" stroke-width="1.4" points="709,-45.78 700.55,-46.44 707.57,-51.19 709,-45.78"/>
<text text-anchor="start" x="867" y="-97.95" font-family="DejaVu Sans" font-size="11.00" fill="#334e68">Фіксує версію, введення, правило та</text>
<text text-anchor="start" x="909.5" y="-85.95" font-family="DejaVu Sans" font-size="11.00" fill="#334e68">результат обчислення</text>
</g>
<!-- n_78e6a86e3609&#45;&gt;n_40b119007c9f -->
<g id="edge1" class="edge">
<title>n_78e6a86e3609&#45;&gt;n_40b119007c9f</title>
<path fill="none" stroke="#486581" stroke-width="1.4" d="M1091.77,-142.49C1092.33,-126.14 1093,-106.75 1093,-106.75 1093,-106.75 1093,-82.75 1093,-82.75 1093,-82.75 1073.31,-67 1054.38,-51.86"/>
<polygon fill="#486581" stroke="#486581" stroke-width="1.4" points="1056.01,-49.59 1048.01,-46.78 1052.51,-53.96 1056.01,-49.59"/>
<text text-anchor="start" x="1103" y="-97.95" font-family="DejaVu Sans" font-size="11.00" fill="#334e68">Читає та записує відповіді, бали,</text>
<text text-anchor="start" x="1093" y="-85.95" font-family="DejaVu Sans" font-size="11.00" fill="#334e68">ознаки й структурований результат</text>
</g>
</g>
</svg>
