<?xml version="1.0" encoding="UTF-8" standalone="no"?>
<!DOCTYPE svg PUBLIC "-//W3C//DTD SVG 1.1//EN"
 "http://www.w3.org/Graphics/SVG/1.1/DTD/svg11.dtd">
<!-- Generated by graphviz version 2.42.4 (0)
 -->
<!-- Title: G Pages: 1 -->
<svg width="1987pt" height="702pt"
 viewBox="0.00 0.00 1986.90 701.90" xmlns="http://www.w3.org/2000/svg" xmlns:xlink="http://www.w3.org/1999/xlink">
<g id="graph0" class="graph" transform="scale(1 1) rotate(0) translate(25.2 676.7)">
<title>G</title>
<polygon fill="white" stroke="transparent" points="-25.2,25.2 -25.2,-676.7 1961.7,-676.7 1961.7,25.2 -25.2,25.2"/>
<text text-anchor="start" x="114.5" y="-637.3" font-family="DejaVu Sans" font-weight="bold" font-size="14.00">C3.12 — Компоненти інтеграційного шлюзу</text>
<text text-anchor="start" x="8" y="-624.9" font-family="DejaVu Sans" font-size="12.00">Компоненти FHIR/DICOM&#45;обміну, термінологій, повідомлень, календаря, телемедицини та</text>
<text text-anchor="start" x="252" y="-612.9" font-family="DejaVu Sans" font-size="12.00">приватності.</text>
<g id="clust1" class="cluster">
<title>cluster_scope</title>
<path fill="white" stroke="#486581" stroke-width="2.2" d="M20,-134.75C20,-134.75 1025,-134.75 1025,-134.75 1031,-134.75 1037,-140.75 1037,-146.75 1037,-146.75 1037,-476.75 1037,-476.75 1037,-482.75 1031,-488.75 1025,-488.75 1025,-488.75 20,-488.75 20,-488.75 14,-488.75 8,-482.75 8,-476.75 8,-476.75 8,-146.75 8,-146.75 8,-140.75 14,-134.75 20,-134.75"/>
<text text-anchor="start" x="16" y="-474.55" font-family="DejaVu Sans" font-weight="bold" font-size="14.00">Інтеграційний шлюз</text>
</g>
<!-- n_814d249a9505 -->
<g id="node1" class="node">
<title>n_814d249a9505</title>
<path fill="#f4f7fa" stroke="#486581" stroke-width="1.5" d="M342.5,-457.75C342.5,-457.75 207.5,-457.75 207.5,-457.75 201.5,-457.75 195.5,-451.75 195.5,-445.75 195.5,-445.75 195.5,-433.75 195.5,-433.75 195.5,-427.75 201.5,-421.75 207.5,-421.75 207.5,-421.75 342.5,-421.75 342.5,-421.75 348.5,-421.75 354.5,-427.75 354.5,-433.75 354.5,-433.75 354.5,-445.75 354.5,-445.75 354.5,-451.75 348.5,-457.75 342.5,-457.75"/>
<text text-anchor="start" x="205.5" y="-442.15" font-family="DejaVu Sans" font-weight="bold" font-size="12.00" fill="#18324a">Адаптер календаря</text>
<text text-anchor="start" x="206" y="-431.75" font-family="DejaVu Sans" font-size="10.00" fill="#18324a">[Компонент · Calendar API]</text>
</g>
<!-- n_d41792c094aa -->
<g id="node10" class="node">
<title>n_d41792c094aa</title>
<path fill="#e9eef4" stroke="#486581" stroke-width="1.5" d="M1251,-320.75C1251,-320.75 1057,-320.75 1057,-320.75 1051,-320.75 1045,-314.75 1045,-308.75 1045,-308.75 1045,-296.75 1045,-296.75 1045,-290.75 1051,-284.75 1057,-284.75 1057,-284.75 1251,-284.75 1251,-284.75 1257,-284.75 1263,-290.75 1263,-296.75 1263,-296.75 1263,-308.75 1263,-308.75 1263,-314.75 1257,-320.75 1251,-320.75"/>
<text text-anchor="start" x="1055" y="-305.15" font-family="DejaVu Sans" font-weight="bold" font-size="12.00" fill="#263238">Календар і запис на прийом</text>
<text text-anchor="start" x="1098.5" y="-294.75" font-family="DejaVu Sans" font-size="10.00" fill="#263238">[Програмна система]</text>
</g>
<!-- n_814d249a9505&#45;&gt;n_d41792c094aa -->
<g id="edge8" class="edge">
<title>n_814d249a9505&#45;&gt;n_d41792c094aa</title>
<path fill="none" stroke="#486581" stroke-width="1.4" d="M349.22,-421.74C361.86,-418.85 371,-416.75 371,-416.75 371,-416.75 741,-380.75 741,-380.75 741,-380.75 932.45,-345.06 1054.65,-322.27"/>
<polygon fill="#486581" stroke="#486581" stroke-width="1.4" points="1055.25,-325.01 1062.6,-320.79 1054.22,-319.5 1055.25,-325.01"/>
<text text-anchor="start" x="863" y="-365.95" font-family="DejaVu Sans" font-size="11.00" fill="#334e68">Синхронізує подію або слот</text>
</g>
<!-- n_33fc880b462c -->
<g id="node2" class="node">
<title>n_33fc880b462c</title>
<path fill="#f4f7fa" stroke="#486581" stroke-width="1.5" d="M198,-320.75C198,-320.75 32,-320.75 32,-320.75 26,-320.75 20,-314.75 20,-308.75 20,-308.75 20,-296.75 20,-296.75 20,-290.75 26,-284.75 32,-284.75 32,-284.75 198,-284.75 198,-284.75 204,-284.75 210,-290.75 210,-296.75 210,-296.75 210,-308.75 210,-308.75 210,-314.75 204,-320.75 198,-320.75"/>
<text text-anchor="start" x="31.5" y="-305.15" font-family="DejaVu Sans" font-weight="bold" font-size="12.00" fill="#18324a">Контроль політики згод</text>
<text text-anchor="start" x="30" y="-294.75" font-family="DejaVu Sans" font-size="10.00" fill="#18324a">[Компонент · Policy enforcement]</text>
</g>
<!-- n_916017ab9937 -->
<g id="node4" class="node">
<title>n_916017ab9937</title>
<path fill="#f4f7fa" stroke="#486581" stroke-width="1.5" d="M202,-183.75C202,-183.75 28,-183.75 28,-183.75 22,-183.75 16,-177.75 16,-171.75 16,-171.75 16,-159.75 16,-159.75 16,-153.75 22,-147.75 28,-147.75 28,-147.75 202,-147.75 202,-147.75 208,-147.75 214,-153.75 214,-159.75 214,-159.75 214,-171.75 214,-171.75 214,-177.75 208,-183.75 202,-183.75"/>
<text text-anchor="start" x="46.5" y="-168.15" font-family="DejaVu Sans" font-weight="bold" font-size="12.00" fill="#18324a">Конектор МІС / EHR</text>
<text text-anchor="start" x="26" y="-157.75" font-family="DejaVu Sans" font-size="10.00" fill="#18324a">[Компонент · FHIR/REST connector]</text>
</g>
<!-- n_33fc880b462c&#45;&gt;n_916017ab9937 -->
<g id="edge3" class="edge">
<title>n_33fc880b462c&#45;&gt;n_916017ab9937</title>
<path fill="none" stroke="#486581" stroke-width="1.4" d="M114.36,-284.69C113.77,-269.2 113,-248.75 113,-248.75 113,-248.75 113,-224.75 113,-224.75 113,-224.75 113.58,-207.8 114.12,-192.23"/>
<polygon fill="#486581" stroke="#486581" stroke-width="1.4" points="116.93,-191.93 114.41,-183.84 111.34,-191.74 116.93,-191.93"/>
<text text-anchor="start" x="113" y="-233.95" font-family="DejaVu Sans" font-size="11.00" fill="#334e68">Дозволяє мінімізований обмін із МІС</text>
</g>
<!-- n_00553d6e64f0 -->
<g id="node7" class="node">
<title>n_00553d6e64f0</title>
<path fill="#f4f7fa" stroke="#486581" stroke-width="1.5" d="M439,-188.75C439,-188.75 293,-188.75 293,-188.75 287,-188.75 281,-182.75 281,-176.75 281,-176.75 281,-154.75 281,-154.75 281,-148.75 287,-142.75 293,-142.75 293,-142.75 439,-142.75 439,-142.75 445,-142.75 451,-148.75 451,-154.75 451,-154.75 451,-176.75 451,-176.75 451,-182.75 445,-188.75 439,-188.75"/>
<text text-anchor="start" x="295" y="-174.15" font-family="DejaVu Sans" font-weight="bold" font-size="12.00" fill="#18324a">Псевдонімізація для</text>
<text text-anchor="start" x="331" y="-162.15" font-family="DejaVu Sans" font-weight="bold" font-size="12.00" fill="#18324a">аналітики</text>
<text text-anchor="start" x="291" y="-151.75" font-family="DejaVu Sans" font-size="10.00" fill="#18324a">[Компонент · Privacy service]</text>
</g>
<!-- n_33fc880b462c&#45;&gt;n_00553d6e64f0 -->
<g id="edge10" class="edge">
<title>n_33fc880b462c&#45;&gt;n_00553d6e64f0</title>
<path fill="none" stroke="#486581" stroke-width="1.4" d="M184.21,-284.69C247.06,-269.2 330,-248.75 330,-248.75 330,-248.75 342.62,-220 352.92,-196.54"/>
<polygon fill="#486581" stroke="#486581" stroke-width="1.4" points="355.51,-197.61 356.16,-189.16 350.38,-195.36 355.51,-197.61"/>
<text text-anchor="start" x="340" y="-239.95" font-family="DejaVu Sans" font-size="11.00" fill="#334e68">Дозволяє підготовку набору для</text>
<text text-anchor="start" x="358" y="-227.95" font-family="DejaVu Sans" font-size="11.00" fill="#334e68">вторинного використання</text>
</g>
<!-- n_4cb9c41912d7 -->
<g id="node3" class="node">
<title>n_4cb9c41912d7</title>
<path fill="#f4f7fa" stroke="#486581" stroke-width="1.5" d="M559.5,-457.75C559.5,-457.75 398.5,-457.75 398.5,-457.75 392.5,-457.75 386.5,-451.75 386.5,-445.75 386.5,-445.75 386.5,-433.75 386.5,-433.75 386.5,-427.75 392.5,-421.75 398.5,-421.75 398.5,-421.75 559.5,-421.75 559.5,-421.75 565.5,-421.75 571.5,-427.75 571.5,-433.75 571.5,-433.75 571.5,-445.75 571.5,-445.75 571.5,-451.75 565.5,-457.75 559.5,-457.75"/>
<text text-anchor="start" x="396.5" y="-442.15" font-family="DejaVu Sans" font-weight="bold" font-size="12.00" fill="#18324a">Конектор PACS / DICOM</text>
<text text-anchor="start" x="414" y="-431.75" font-family="DejaVu Sans" font-size="10.00" fill="#18324a">[Компонент · DICOMweb]</text>
</g>
<!-- n_b3c512da84fb -->
<g id="node14" class="node">
<title>n_b3c512da84fb</title>
<path fill="#e9eef4" stroke="#486581" stroke-width="1.5" d="M1463,-320.75C1463,-320.75 1307,-320.75 1307,-320.75 1301,-320.75 1295,-314.75 1295,-308.75 1295,-308.75 1295,-296.75 1295,-296.75 1295,-290.75 1301,-284.75 1307,-284.75 1307,-284.75 1463,-284.75 1463,-284.75 1469,-284.75 1475,-290.75 1475,-296.75 1475,-296.75 1475,-308.75 1475,-308.75 1475,-314.75 1469,-320.75 1463,-320.75"/>
<text text-anchor="start" x="1305" y="-305.15" font-family="DejaVu Sans" font-weight="bold" font-size="12.00" fill="#263238">PACS / DICOM&#45;сховище</text>
<text text-anchor="start" x="1329.5" y="-294.75" font-family="DejaVu Sans" font-size="10.00" fill="#263238">[Програмна система]</text>
</g>
<!-- n_4cb9c41912d7&#45;&gt;n_b3c512da84fb -->
<g id="edge6" class="edge">
<title>n_4cb9c41912d7&#45;&gt;n_b3c512da84fb</title>
<path fill="none" stroke="#486581" stroke-width="1.4" d="M562.49,-421.74C576.72,-418.85 587,-416.75 587,-416.75 587,-416.75 1035,-380.75 1035,-380.75 1035,-380.75 1195.73,-345.39 1299.35,-322.59"/>
<polygon fill="#486581" stroke="#486581" stroke-width="1.4" points="1300.11,-325.29 1307.32,-320.84 1298.91,-319.82 1300.11,-325.29"/>
<text text-anchor="start" x="1138" y="-365.95" font-family="DejaVu Sans" font-size="11.00" fill="#334e68">Обмінюється DICOM&#45;об&#39;єктами</text>
</g>
<!-- n_3be1d182bd81 -->
<g id="node11" class="node">
<title>n_3be1d182bd81</title>
<path fill="#e9eef4" stroke="#486581" stroke-width="1.5" d="M171,-41.38C171,-41.38 59,-41.38 59,-41.38 53,-41.38 47,-35.38 47,-29.38 47,-29.38 47,-17.37 47,-17.37 47,-11.38 53,-5.37 59,-5.37 59,-5.37 171,-5.37 171,-5.37 177,-5.37 183,-11.37 183,-17.37 183,-17.37 183,-29.38 183,-29.38 183,-35.38 177,-41.38 171,-41.38"/>
<text text-anchor="start" x="57" y="-25.77" font-family="DejaVu Sans" font-weight="bold" font-size="12.00" fill="#263238">МІС / EHR / ЕСОЗ</text>
<text text-anchor="start" x="59.5" y="-15.37" font-family="DejaVu Sans" font-size="10.00" fill="#263238">[Програмна система]</text>
</g>
<!-- n_916017ab9937&#45;&gt;n_3be1d182bd81 -->
<g id="edge4" class="edge">
<title>n_916017ab9937&#45;&gt;n_3be1d182bd81</title>
<path fill="none" stroke="#486581" stroke-width="1.4" d="M114.12,-147.66C113.23,-130.55 112,-106.75 112,-106.75 112,-106.75 112,-82.75 112,-82.75 112,-82.75 112.89,-65.38 113.7,-49.59"/>
<polygon fill="#486581" stroke="#486581" stroke-width="1.4" points="116.5,-49.71 114.12,-41.57 110.91,-49.42 116.5,-49.71"/>
<text text-anchor="start" x="112" y="-97.95" font-family="DejaVu Sans" font-size="11.00" fill="#334e68">Надсилає або отримує профільовані</text>
<text text-anchor="start" x="195.5" y="-85.95" font-family="DejaVu Sans" font-size="11.00" fill="#334e68">ресурси</text>
</g>
<!-- n_bc4ac4e44917 -->
<g id="node5" class="node">
<title>n_bc4ac4e44917</title>
<path fill="#f4f7fa" stroke="#486581" stroke-width="1.5" d="M151.5,-457.75C151.5,-457.75 28.5,-457.75 28.5,-457.75 22.5,-457.75 16.5,-451.75 16.5,-445.75 16.5,-445.75 16.5,-433.75 16.5,-433.75 16.5,-427.75 22.5,-421.75 28.5,-421.75 28.5,-421.75 151.5,-421.75 151.5,-421.75 157.5,-421.75 163.5,-427.75 163.5,-433.75 163.5,-433.75 163.5,-445.75 163.5,-445.75 163.5,-451.75 157.5,-457.75 151.5,-457.75"/>
<text text-anchor="start" x="26.5" y="-442.15" font-family="DejaVu Sans" font-weight="bold" font-size="12.00" fill="#18324a">FHIR API та мапінг</text>
<text text-anchor="start" x="29.5" y="-431.75" font-family="DejaVu Sans" font-size="10.00" fill="#18324a">[Компонент · HL7 FHIR]</text>
</g>
<!-- n_bc4ac4e44917&#45;&gt;n_33fc880b462c -->
<g id="edge2" class="edge">
<title>n_bc4ac4e44917&#45;&gt;n_33fc880b462c</title>
<path fill="none" stroke="#486581" stroke-width="1.4" d="M93.17,-421.65C97.5,-398.25 105.31,-356.06 110.32,-329.01"/>
<polygon fill="#486581" stroke="#486581" stroke-width="1.4" points="113.08,-329.51 111.78,-321.14 107.57,-328.49 113.08,-329.51"/>
<text text-anchor="start" x="105" y="-371.95" font-family="DejaVu Sans" font-size="11.00" fill="#334e68">Перевіряє право на обмін клінічним</text>
<text text-anchor="start" x="183" y="-359.95" font-family="DejaVu Sans" font-size="11.00" fill="#334e68">ресурсом</text>
</g>
<!-- n_7518abf6c946 -->
<g id="node9" class="node">
<title>n_7518abf6c946</title>
<path fill="#f4f7fa" stroke="#486581" stroke-width="1.5" d="M964,-320.75C964,-320.75 814,-320.75 814,-320.75 808,-320.75 802,-314.75 802,-308.75 802,-308.75 802,-296.75 802,-296.75 802,-290.75 808,-284.75 814,-284.75 814,-284.75 964,-284.75 964,-284.75 970,-284.75 976,-290.75 976,-296.75 976,-296.75 976,-308.75 976,-308.75 976,-314.75 970,-320.75 964,-320.75"/>
<text text-anchor="start" x="813" y="-305.15" font-family="DejaVu Sans" font-weight="bold" font-size="12.00" fill="#18324a">Адаптер термінологій</text>
<text text-anchor="start" x="812" y="-294.75" font-family="DejaVu Sans" font-size="10.00" fill="#18324a">[Компонент · Terminology API]</text>
</g>
<!-- n_bc4ac4e44917&#45;&gt;n_7518abf6c946 -->
<g id="edge13" class="edge">
<title>n_bc4ac4e44917&#45;&gt;n_7518abf6c946</title>
<path fill="none" stroke="#486581" stroke-width="1.4" d="M158.8,-421.74C170.52,-418.85 179,-416.75 179,-416.75 179,-416.75 600.58,-349.65 794.03,-318.87"/>
<polygon fill="#486581" stroke="#486581" stroke-width="1.4" points="794.48,-321.63 801.94,-317.61 793.6,-316.1 794.48,-321.63"/>
<text text-anchor="start" x="555" y="-371.95" font-family="DejaVu Sans" font-size="11.00" fill="#334e68">Передає коди для валідації та</text>
<text text-anchor="start" x="607.5" y="-359.95" font-family="DejaVu Sans" font-size="11.00" fill="#334e68">нормалізації</text>
</g>
<!-- n_937a225df393 -->
<g id="node6" class="node">
<title>n_937a225df393</title>
<path fill="#f4f7fa" stroke="#486581" stroke-width="1.5" d="M787,-457.75C787,-457.75 615,-457.75 615,-457.75 609,-457.75 603,-451.75 603,-445.75 603,-445.75 603,-433.75 603,-433.75 603,-427.75 609,-421.75 615,-421.75 615,-421.75 787,-421.75 787,-421.75 793,-421.75 799,-427.75 799,-433.75 799,-433.75 799,-445.75 799,-445.75 799,-451.75 793,-457.75 787,-457.75"/>
<text text-anchor="start" x="625" y="-442.15" font-family="DejaVu Sans" font-weight="bold" font-size="12.00" fill="#18324a">Адаптер повідомлень</text>
<text text-anchor="start" x="613" y="-431.75" font-family="DejaVu Sans" font-size="10.00" fill="#18324a">[Компонент · SMS/e&#45;mail/push API]</text>
</g>
<!-- n_dff60b2c2060 -->
<g id="node13" class="node">
<title>n_dff60b2c2060</title>
<path fill="#e9eef4" stroke="#486581" stroke-width="1.5" d="M1685,-320.75C1685,-320.75 1519,-320.75 1519,-320.75 1513,-320.75 1507,-314.75 1507,-308.75 1507,-308.75 1507,-296.75 1507,-296.75 1507,-290.75 1513,-284.75 1519,-284.75 1519,-284.75 1685,-284.75 1685,-284.75 1691,-284.75 1697,-290.75 1697,-296.75 1697,-296.75 1697,-308.75 1697,-308.75 1697,-314.75 1691,-320.75 1685,-320.75"/>
<text text-anchor="start" x="1517" y="-305.15" font-family="DejaVu Sans" font-weight="bold" font-size="12.00" fill="#263238">Провайдер повідомлень</text>
<text text-anchor="start" x="1546.5" y="-294.75" font-family="DejaVu Sans" font-size="10.00" fill="#263238">[Програмна система]</text>
</g>
<!-- n_937a225df393&#45;&gt;n_dff60b2c2060 -->
<g id="edge7" class="edge">
<title>n_937a225df393&#45;&gt;n_dff60b2c2060</title>
<path fill="none" stroke="#486581" stroke-width="1.4" d="M789.13,-421.74C804.14,-418.85 815,-416.75 815,-416.75 815,-416.75 1566,-380.75 1566,-380.75 1566,-380.75 1580.05,-350.7 1590.59,-328.15"/>
<polygon fill="#486581" stroke="#486581" stroke-width="1.4" points="1593.16,-329.27 1594.01,-320.84 1588.09,-326.9 1593.16,-329.27"/>
<text text-anchor="start" x="1576" y="-365.95" font-family="DejaVu Sans" font-size="11.00" fill="#334e68">Надсилає повідомлення</text>
</g>
<!-- n_3413ea645d36 -->
<g id="node15" class="node">
<title>n_3413ea645d36</title>
<path fill="#edf2f7" stroke="#486581" stroke-width="1.5" d="M476.5,-42.4C476.5,-44.73 426.97,-46.63 366,-46.63 305.03,-46.63 255.5,-44.73 255.5,-42.4 255.5,-42.4 255.5,-4.35 255.5,-4.35 255.5,-2.02 305.03,-0.12 366,-0.12 426.97,-0.12 476.5,-2.02 476.5,-4.35 476.5,-4.35 476.5,-42.4 476.5,-42.4"/>
<path fill="none" stroke="#486581" stroke-width="1.5" d="M476.5,-42.4C476.5,-40.07 426.97,-38.17 366,-38.17 305.03,-38.17 255.5,-40.07 255.5,-42.4"/>
<text text-anchor="start" x="294.5" y="-25.77" font-family="DejaVu Sans" font-weight="bold" font-size="12.00" fill="#1a202c">Аналітичне сховище</text>
<text text-anchor="start" x="265.5" y="-15.37" font-family="DejaVu Sans" font-size="10.00" fill="#1a202c">[Сховище даних · Analytics warehouse]</text>
</g>
<!-- n_00553d6e64f0&#45;&gt;n_3413ea645d36 -->
<g id="edge11" class="edge">
<title>n_00553d6e64f0&#45;&gt;n_3413ea645d36</title>
<path fill="none" stroke="#486581" stroke-width="1.4" d="M366,-142.51C366,-118.93 366,-81.52 366,-55.13"/>
<polygon fill="#486581" stroke="#486581" stroke-width="1.4" points="368.8,-54.98 366,-46.98 363.2,-54.98 368.8,-54.98"/>
<text text-anchor="start" x="366" y="-97.95" font-family="DejaVu Sans" font-size="11.00" fill="#334e68">Передає знеособлений або агрегований</text>
<text text-anchor="start" x="469.5" y="-85.95" font-family="DejaVu Sans" font-size="11.00" fill="#334e68">набір</text>
</g>
<!-- n_6503933241f6 -->
<g id="node8" class="node">
<title>n_6503933241f6</title>
<path fill="#f4f7fa" stroke="#486581" stroke-width="1.5" d="M1017,-457.75C1017,-457.75 843,-457.75 843,-457.75 837,-457.75 831,-451.75 831,-445.75 831,-445.75 831,-433.75 831,-433.75 831,-427.75 837,-421.75 843,-421.75 843,-421.75 1017,-421.75 1017,-421.75 1023,-421.75 1029,-427.75 1029,-433.75 1029,-433.75 1029,-445.75 1029,-445.75 1029,-451.75 1023,-457.75 1017,-457.75"/>
<text text-anchor="start" x="847" y="-442.15" font-family="DejaVu Sans" font-weight="bold" font-size="12.00" fill="#18324a">Адаптер телемедицини</text>
<text text-anchor="start" x="841" y="-431.75" font-family="DejaVu Sans" font-size="10.00" fill="#18324a">[Компонент · WebRTC platform API]</text>
</g>
<!-- n_8ef8376f7755 -->
<g id="node19" class="node">
<title>n_8ef8376f7755</title>
<path fill="#e9eef4" stroke="#486581" stroke-width="1.5" d="M1924.5,-320.75C1924.5,-320.75 1741.5,-320.75 1741.5,-320.75 1735.5,-320.75 1729.5,-314.75 1729.5,-308.75 1729.5,-308.75 1729.5,-296.75 1729.5,-296.75 1729.5,-290.75 1735.5,-284.75 1741.5,-284.75 1741.5,-284.75 1924.5,-284.75 1924.5,-284.75 1930.5,-284.75 1936.5,-290.75 1936.5,-296.75 1936.5,-296.75 1936.5,-308.75 1936.5,-308.75 1936.5,-314.75 1930.5,-320.75 1924.5,-320.75"/>
<text text-anchor="start" x="1739.5" y="-305.15" font-family="DejaVu Sans" font-weight="bold" font-size="12.00" fill="#263238">Платформа телемедицини</text>
<text text-anchor="start" x="1777.5" y="-294.75" font-family="DejaVu Sans" font-size="10.00" fill="#263238">[Програмна система]</text>
</g>
<!-- n_6503933241f6&#45;&gt;n_8ef8376f7755 -->
<g id="edge9" class="edge">
<title>n_6503933241f6&#45;&gt;n_8ef8376f7755</title>
<path fill="none" stroke="#486581" stroke-width="1.4" d="M1018.9,-421.74C1034.05,-418.85 1045,-416.75 1045,-416.75 1045,-416.75 1726,-380.75 1726,-380.75 1726,-380.75 1771.09,-348.3 1802.73,-325.54"/>
<polygon fill="#486581" stroke="#486581" stroke-width="1.4" points="1804.4,-327.78 1809.25,-320.84 1801.12,-323.24 1804.4,-327.78"/>
<text text-anchor="start" x="1757" y="-365.95" font-family="DejaVu Sans" font-size="11.00" fill="#334e68">Створює захищений сеанс</text>
</g>
<!-- n_09b340c80e8a -->
<g id="node20" class="node">
<title>n_09b340c80e8a</title>
<path fill="#e9eef4" stroke="#486581" stroke-width="1.5" d="M1190.5,-183.75C1190.5,-183.75 1057.5,-183.75 1057.5,-183.75 1051.5,-183.75 1045.5,-177.75 1045.5,-171.75 1045.5,-171.75 1045.5,-159.75 1045.5,-159.75 1045.5,-153.75 1051.5,-147.75 1057.5,-147.75 1057.5,-147.75 1190.5,-147.75 1190.5,-147.75 1196.5,-147.75 1202.5,-153.75 1202.5,-159.75 1202.5,-159.75 1202.5,-171.75 1202.5,-171.75 1202.5,-177.75 1196.5,-183.75 1190.5,-183.75"/>
<text text-anchor="start" x="1055.5" y="-168.15" font-family="DejaVu Sans" font-weight="bold" font-size="12.00" fill="#263238">Сервіс термінологій</text>
<text text-anchor="start" x="1068.5" y="-157.75" font-family="DejaVu Sans" font-size="10.00" fill="#263238">[Програмна система]</text>
</g>
<!-- n_7518abf6c946&#45;&gt;n_09b340c80e8a -->
<g id="edge5" class="edge">
<title>n_7518abf6c946&#45;&gt;n_09b340c80e8a</title>
<path fill="none" stroke="#486581" stroke-width="1.4" d="M918.76,-284.65C961.55,-260.07 1040.41,-214.77 1086.93,-188.05"/>
<polygon fill="#486581" stroke="#486581" stroke-width="1.4" points="1088.57,-190.33 1094.11,-183.92 1085.78,-185.48 1088.57,-190.33"/>
<text text-anchor="start" x="1020" y="-233.95" font-family="DejaVu Sans" font-size="11.00" fill="#334e68">Перевіряє код і версію словника</text>
</g>
<!-- n_3145c0474e62 -->
<g id="node12" class="node">
<title>n_3145c0474e62</title>
<path fill="#c92a2a" stroke="#486581" stroke-width="1.5" d="M978,-600.12C978,-600.12 792,-600.12 792,-600.12 786,-600.12 780,-594.12 780,-588.12 780,-588.12 780,-576.12 780,-576.12 780,-570.12 786,-564.12 792,-564.12 792,-564.12 978,-564.12 978,-564.12 984,-564.12 990,-570.12 990,-576.12 990,-576.12 990,-588.12 990,-588.12 990,-594.12 984,-600.12 978,-600.12"/>
<text text-anchor="start" x="790" y="-584.52" font-family="DejaVu Sans" font-weight="bold" font-size="12.00" fill="#ffffff">Кризова / екстрена служба</text>
<text text-anchor="start" x="829.5" y="-574.12" font-family="DejaVu Sans" font-size="10.00" fill="#ffffff">[Програмна система]</text>
</g>
<!-- n_384146de0c5d -->
<g id="node16" class="node">
<title>n_384146de0c5d</title>
<path fill="#f4f7fa" stroke="#486581" stroke-width="1.5" d="M736,-600.12C736,-600.12 526,-600.12 526,-600.12 520,-600.12 514,-594.12 514,-588.12 514,-588.12 514,-576.12 514,-576.12 514,-570.12 520,-564.12 526,-564.12 526,-564.12 736,-564.12 736,-564.12 742,-564.12 748,-570.12 748,-576.12 748,-576.12 748,-588.12 748,-588.12 748,-594.12 742,-600.12 736,-600.12"/>
<text text-anchor="start" x="577.5" y="-584.52" font-family="DejaVu Sans" font-weight="bold" font-size="12.00" fill="#18324a">API&#45;шлюз і BFF</text>
<text text-anchor="start" x="524" y="-574.12" font-family="DejaVu Sans" font-size="10.00" fill="#18324a">[Контейнер · Reverse proxy / API gateway]</text>
</g>
<!-- n_384146de0c5d&#45;&gt;n_bc4ac4e44917 -->
<g id="edge12" class="edge">
<title>n_384146de0c5d&#45;&gt;n_bc4ac4e44917</title>
<path fill="none" stroke="#486581" stroke-width="1.4" d="M547.57,-564.07C416.97,-537.38 179,-488.75 179,-488.75 179,-488.75 152.89,-474.67 128.96,-461.76"/>
<polygon fill="#486581" stroke="#486581" stroke-width="1.4" points="130,-459.14 121.63,-457.81 127.34,-464.07 130,-459.14"/>
<text text-anchor="start" x="339" y="-513.95" font-family="DejaVu Sans" font-size="11.00" fill="#334e68">Передає авторизований запит обміну</text>
<text text-anchor="start" x="386" y="-501.95" font-family="DejaVu Sans" font-size="11.00" fill="#334e68">клінічними ресурсами</text>
</g>
<!-- n_eb4c5110ae64 -->
<g id="node18" class="node">
<title>n_eb4c5110ae64</title>
<path fill="#b7791f" stroke="#486581" stroke-width="1.5" d="M1271,-462.75C1271,-462.75 1073,-462.75 1073,-462.75 1067,-462.75 1061,-456.75 1061,-450.75 1061,-450.75 1061,-428.75 1061,-428.75 1061,-422.75 1067,-416.75 1073,-416.75 1073,-416.75 1271,-416.75 1271,-416.75 1277,-416.75 1283,-422.75 1283,-428.75 1283,-428.75 1283,-450.75 1283,-450.75 1283,-456.75 1277,-462.75 1271,-462.75"/>
<text text-anchor="start" x="1071" y="-448.15" font-family="DejaVu Sans" font-weight="bold" font-size="12.00" fill="#ffffff">Сервіс завдань, нагадувань і</text>
<text text-anchor="start" x="1137" y="-436.15" font-family="DejaVu Sans" font-weight="bold" font-size="12.00" fill="#ffffff">ескалацій</text>
<text text-anchor="start" x="1087.5" y="-425.75" font-family="DejaVu Sans" font-size="10.00" fill="#ffffff">[Контейнер · Workflow scheduler]</text>
</g>
<!-- n_384146de0c5d&#45;&gt;n_eb4c5110ae64 -->
<g id="edge1" class="edge">
<title>n_384146de0c5d&#45;&gt;n_eb4c5110ae64</title>
<path fill="none" stroke="#486581" stroke-width="1.4" d="M707.42,-564.07C827.04,-537.38 1045,-488.75 1045,-488.75 1045,-488.75 1075.01,-477.41 1105.86,-465.75"/>
<polygon fill="#486581" stroke="#486581" stroke-width="1.4" points="1107.21,-468.23 1113.7,-462.78 1105.23,-462.99 1107.21,-468.23"/>
<text text-anchor="start" x="993" y="-513.95" font-family="DejaVu Sans" font-size="11.00" fill="#334e68">Передає команди щодо завдань,</text>
<text text-anchor="start" x="1030.5" y="-501.95" font-family="DejaVu Sans" font-size="11.00" fill="#334e68">нагадувань і візитів</text>
</g>
<!-- n_40b119007c9f -->
<g id="node17" class="node">
<title>n_40b119007c9f</title>
<path fill="#edf2f7" stroke="#486581" stroke-width="1.5" d="M1299.5,-601.15C1299.5,-603.48 1237.42,-605.38 1161,-605.38 1084.58,-605.38 1022.5,-603.48 1022.5,-601.15 1022.5,-601.15 1022.5,-563.1 1022.5,-563.1 1022.5,-560.77 1084.58,-558.87 1161,-558.87 1237.42,-558.87 1299.5,-560.77 1299.5,-563.1 1299.5,-563.1 1299.5,-601.15 1299.5,-601.15"/>
<path fill="none" stroke="#486581" stroke-width="1.5" d="M1299.5,-601.15C1299.5,-598.82 1237.42,-596.92 1161,-596.92 1084.58,-596.92 1022.5,-598.82 1022.5,-601.15"/>
<text text-anchor="start" x="1099" y="-584.52" font-family="DejaVu Sans" font-weight="bold" font-size="12.00" fill="#1a202c">Клінічне сховище</text>
<text text-anchor="start" x="1032.5" y="-574.12" font-family="DejaVu Sans" font-size="10.00" fill="#1a202c">[Сховище даних · FHIR&#45;oriented clinical repository]</text>
</g>
</g>
</svg>
