<?xml version="1.0" encoding="UTF-8" standalone="no"?>
<!DOCTYPE svg PUBLIC "-//W3C//DTD SVG 1.1//EN"
 "http://www.w3.org/Graphics/SVG/1.1/DTD/svg11.dtd">
<!-- Generated by graphviz version 2.42.4 (0)
 -->
<!-- Title: G Pages: 1 -->
<svg width="2466pt" height="1021pt"
 viewBox="0.00 0.00 2466.40 1021.40" xmlns="http://www.w3.org/2000/svg" xmlns:xlink="http://www.w3.org/1999/xlink">
<g id="graph0" class="graph" transform="scale(1 1) rotate(0) translate(25.2 996.2)">
<title>G</title>
<polygon fill="white" stroke="transparent" points="-25.2,25.2 -25.2,-996.2 2441.2,-996.2 2441.2,25.2 -25.2,25.2"/>
<text text-anchor="start" x="8" y="-956.8" font-family="DejaVu Sans" font-weight="bold" font-size="14.00">DYN.06 — Мультимодальне вимірювання та контроль якості</text>
<text text-anchor="start" x="48" y="-945.2" font-family="DejaVu Sans" font-size="11.00">Контрольований конвеєр ЕКГ, голосу, відео та медичних зображень.</text>
<!-- p_n_fd9938cf1df8 -->
<g id="node1" class="node">
<title>p_n_fd9938cf1df8</title>
<path fill="#e9eef4" stroke="#486581" d="M154,-938C154,-938 12,-938 12,-938 6,-938 0,-932 0,-926 0,-926 0,-912 0,-912 0,-906 6,-900 12,-900 12,-900 154,-900 154,-900 160,-900 166,-906 166,-912 166,-912 166,-926 166,-926 166,-932 160,-938 154,-938"/>
<text text-anchor="start" x="12" y="-922.4" font-family="DejaVu Sans" font-weight="bold" font-size="12.00" fill="#263238">Медичні пристрої та</text>
<text text-anchor="start" x="55.5" y="-910.4" font-family="DejaVu Sans" font-weight="bold" font-size="12.00" fill="#263238">сенсори</text>
</g>
<!-- p_n_27b1c436e655 -->
<g id="node2" class="node">
<title>p_n_27b1c436e655</title>
<path fill="#f4f7fa" stroke="#486581" d="M310,-937C310,-937 196,-937 196,-937 190,-937 184,-931 184,-925 184,-925 184,-913 184,-913 184,-907 190,-901 196,-901 196,-901 310,-901 310,-901 316,-901 322,-907 322,-913 322,-913 322,-925 322,-925 322,-931 316,-937 310,-937"/>
<text text-anchor="start" x="196" y="-916.9" font-family="DejaVu Sans" font-weight="bold" font-size="12.00" fill="#18324a">Шлюз пристроїв</text>
</g>
<!-- p_n_38ba5dcbb7df -->
<g id="node3" class="node">
<title>p_n_38ba5dcbb7df</title>
<path fill="#f4f7fa" stroke="#486581" d="M464,-937C464,-937 352,-937 352,-937 346,-937 340,-931 340,-925 340,-925 340,-913 340,-913 340,-907 346,-901 352,-901 352,-901 464,-901 464,-901 470,-901 476,-907 476,-913 476,-913 476,-925 476,-925 476,-931 470,-937 464,-937"/>
<text text-anchor="start" x="352" y="-916.9" font-family="DejaVu Sans" font-weight="bold" font-size="12.00" fill="#18324a">Контроль якості</text>
</g>
<!-- p_n_ece798a72db0 -->
<g id="node4" class="node">
<title>p_n_ece798a72db0</title>
<path fill="#f4f7fa" stroke="#486581" d="M669.5,-938C669.5,-938 506.5,-938 506.5,-938 500.5,-938 494.5,-932 494.5,-926 494.5,-926 494.5,-912 494.5,-912 494.5,-906 500.5,-900 506.5,-900 506.5,-900 669.5,-900 669.5,-900 675.5,-900 681.5,-906 681.5,-912 681.5,-912 681.5,-926 681.5,-926 681.5,-932 675.5,-938 669.5,-938"/>
<text text-anchor="start" x="506.5" y="-922.4" font-family="DejaVu Sans" font-weight="bold" font-size="12.00" fill="#18324a">Попереднє оброблення</text>
<text text-anchor="start" x="559" y="-910.4" font-family="DejaVu Sans" font-weight="bold" font-size="12.00" fill="#18324a">сигналів</text>
</g>
<!-- p_n_ad554367e5af -->
<g id="node5" class="node">
<title>p_n_ad554367e5af</title>
<path fill="#f4f7fa" stroke="#486581" d="M874.5,-938C874.5,-938 711.5,-938 711.5,-938 705.5,-938 699.5,-932 699.5,-926 699.5,-926 699.5,-912 699.5,-912 699.5,-906 705.5,-900 711.5,-900 711.5,-900 874.5,-900 874.5,-900 880.5,-900 886.5,-906 886.5,-912 886.5,-912 886.5,-926 886.5,-926 886.5,-932 880.5,-938 874.5,-938"/>
<text text-anchor="start" x="735" y="-922.4" font-family="DejaVu Sans" font-weight="bold" font-size="12.00" fill="#18324a">Аналізатор ЕКГ /</text>
<text text-anchor="start" x="711.5" y="-910.4" font-family="DejaVu Sans" font-weight="bold" font-size="12.00" fill="#18324a">Мінесотське кодування</text>
</g>
<!-- p_n_3985a6ec34a9 -->
<g id="node6" class="node">
<title>p_n_3985a6ec34a9</title>
<path fill="#f4f7fa" stroke="#486581" d="M1043.5,-937C1043.5,-937 916.5,-937 916.5,-937 910.5,-937 904.5,-931 904.5,-925 904.5,-925 904.5,-913 904.5,-913 904.5,-907 910.5,-901 916.5,-901 916.5,-901 1043.5,-901 1043.5,-901 1049.5,-901 1055.5,-907 1055.5,-913 1055.5,-913 1055.5,-925 1055.5,-925 1055.5,-931 1049.5,-937 1043.5,-937"/>
<text text-anchor="start" x="916.5" y="-916.9" font-family="DejaVu Sans" font-weight="bold" font-size="12.00" fill="#18324a">Аналізатор голосу</text>
</g>
<!-- p_n_0be81a6d58b7 -->
<g id="node7" class="node">
<title>p_n_0be81a6d58b7</title>
<path fill="#f4f7fa" stroke="#486581" d="M1204.5,-937C1204.5,-937 1085.5,-937 1085.5,-937 1079.5,-937 1073.5,-931 1073.5,-925 1073.5,-925 1073.5,-913 1073.5,-913 1073.5,-907 1079.5,-901 1085.5,-901 1085.5,-901 1204.5,-901 1204.5,-901 1210.5,-901 1216.5,-907 1216.5,-913 1216.5,-913 1216.5,-925 1216.5,-925 1216.5,-931 1210.5,-937 1204.5,-937"/>
<text text-anchor="start" x="1085.5" y="-916.9" font-family="DejaVu Sans" font-weight="bold" font-size="12.00" fill="#18324a">Аналізатор відео</text>
</g>
<!-- p_n_582e6098d8f8 -->
<g id="node8" class="node">
<title>p_n_582e6098d8f8</title>
<path fill="#f4f7fa" stroke="#486581" d="M1397,-938C1397,-938 1247,-938 1247,-938 1241,-938 1235,-932 1235,-926 1235,-926 1235,-912 1235,-912 1235,-906 1241,-900 1247,-900 1247,-900 1397,-900 1397,-900 1403,-900 1409,-906 1409,-912 1409,-912 1409,-926 1409,-926 1409,-932 1403,-938 1397,-938"/>
<text text-anchor="start" x="1247" y="-922.4" font-family="DejaVu Sans" font-weight="bold" font-size="12.00" fill="#18324a">Аналізатор медичних</text>
<text text-anchor="start" x="1284" y="-910.4" font-family="DejaVu Sans" font-weight="bold" font-size="12.00" fill="#18324a">зображень</text>
</g>
<!-- p_n_c8628bd287e4 -->
<g id="node9" class="node">
<title>p_n_c8628bd287e4</title>
<path fill="#f4f7fa" stroke="#486581" d="M1563,-937C1563,-937 1439,-937 1439,-937 1433,-937 1427,-931 1427,-925 1427,-925 1427,-913 1427,-913 1427,-907 1433,-901 1439,-901 1439,-901 1563,-901 1563,-901 1569,-901 1575,-907 1575,-913 1575,-913 1575,-925 1575,-925 1575,-931 1569,-937 1563,-937"/>
<text text-anchor="start" x="1439" y="-916.9" font-family="DejaVu Sans" font-weight="bold" font-size="12.00" fill="#18324a">Об&#39;єднання ознак</text>
</g>
<!-- p_n_45a720378876 -->
<g id="node10" class="node">
<title>p_n_45a720378876</title>
<path fill="#f4f7fa" stroke="#486581" d="M1701,-938C1701,-938 1605,-938 1605,-938 1599,-938 1593,-932 1593,-926 1593,-926 1593,-912 1593,-912 1593,-906 1599,-900 1605,-900 1605,-900 1701,-900 1701,-900 1707,-900 1713,-906 1713,-912 1713,-912 1713,-926 1713,-926 1713,-932 1707,-938 1701,-938"/>
<text text-anchor="start" x="1605" y="-922.4" font-family="DejaVu Sans" font-weight="bold" font-size="12.00" fill="#18324a">Нормалізатор</text>
<text text-anchor="start" x="1614.5" y="-910.4" font-family="DejaVu Sans" font-weight="bold" font-size="12.00" fill="#18324a">результату</text>
</g>
<!-- p_n_40b119007c9f -->
<g id="node11" class="node">
<title>p_n_40b119007c9f</title>
<path fill="#edf2f7" stroke="#486581" d="M1867,-937C1867,-937 1743,-937 1743,-937 1737,-937 1731,-931 1731,-925 1731,-925 1731,-913 1731,-913 1731,-907 1737,-901 1743,-901 1743,-901 1867,-901 1867,-901 1873,-901 1879,-907 1879,-913 1879,-913 1879,-925 1879,-925 1879,-931 1873,-937 1867,-937"/>
<text text-anchor="start" x="1743" y="-916.9" font-family="DejaVu Sans" font-weight="bold" font-size="12.00" fill="#1a202c">Клінічне сховище</text>
</g>
<!-- p_n_5f5685eeff97 -->
<g id="node12" class="node">
<title>p_n_5f5685eeff97</title>
<path fill="#4a5568" stroke="#486581" d="M2040.5,-938C2040.5,-938 1909.5,-938 1909.5,-938 1903.5,-938 1897.5,-932 1897.5,-926 1897.5,-926 1897.5,-912 1897.5,-912 1897.5,-906 1903.5,-900 1909.5,-900 1909.5,-900 2040.5,-900 2040.5,-900 2046.5,-900 2052.5,-906 2052.5,-912 2052.5,-912 2052.5,-926 2052.5,-926 2052.5,-932 2046.5,-938 2040.5,-938"/>
<text text-anchor="start" x="1917" y="-922.4" font-family="DejaVu Sans" font-weight="bold" font-size="12.00" fill="#ffffff">Сервіс аудиту та</text>
<text text-anchor="start" x="1909.5" y="-910.4" font-family="DejaVu Sans" font-weight="bold" font-size="12.00" fill="#ffffff">спостережуваності</text>
</g>
<!-- step_01 -->
<g id="node13" class="node">
<title>step_01</title>
<path fill="#ffffff" stroke="#486581" stroke-width="1.5" d="M2403.5,-938C2403.5,-938 2082.5,-938 2082.5,-938 2076.5,-938 2070.5,-932 2070.5,-926 2070.5,-926 2070.5,-912 2070.5,-912 2070.5,-906 2076.5,-900 2082.5,-900 2082.5,-900 2403.5,-900 2403.5,-900 2409.5,-900 2415.5,-906 2415.5,-912 2415.5,-912 2415.5,-926 2415.5,-926 2415.5,-932 2409.5,-938 2403.5,-938"/>
<text text-anchor="start" x="2082.5" y="-922.4" font-family="DejaVu Sans" font-size="12.00"> </text>
<text text-anchor="start" x="2086.5" y="-922.4" font-family="DejaVu Sans" font-weight="bold" font-size="12.00">1.</text>
<text text-anchor="start" x="2099.5" y="-922.4" font-family="DejaVu Sans" font-size="12.00"> Медичні пристрої та сенсори → Шлюз пристроїв</text>
<text text-anchor="start" x="2114.5" y="-910.4" font-family="DejaVu Sans" font-size="10.00">Передає дозволений сигнал і технічні метадані</text>
<text text-anchor="start" x="2367.5" y="-910.4" font-family="DejaVu Sans" font-size="12.00"> </text>
</g>
<!-- step_02 -->
<g id="node14" class="node">
<title>step_02</title>
<path fill="#ffffff" stroke="#486581" stroke-width="1.5" d="M2364,-878C2364,-878 2122,-878 2122,-878 2116,-878 2110,-872 2110,-866 2110,-866 2110,-852 2110,-852 2110,-846 2116,-840 2122,-840 2122,-840 2364,-840 2364,-840 2370,-840 2376,-846 2376,-852 2376,-852 2376,-866 2376,-866 2376,-872 2370,-878 2364,-878"/>
<text text-anchor="start" x="2122" y="-862.4" font-family="DejaVu Sans" font-size="12.00"> </text>
<text text-anchor="start" x="2126" y="-862.4" font-family="DejaVu Sans" font-weight="bold" font-size="12.00">2.</text>
<text text-anchor="start" x="2139" y="-862.4" font-family="DejaVu Sans" font-size="12.00"> Шлюз пристроїв → Контроль якості</text>
<text text-anchor="start" x="2147" y="-850.4" font-family="DejaVu Sans" font-size="10.00">Передає потік для перевірки якості</text>
<text text-anchor="start" x="2335" y="-850.4" font-family="DejaVu Sans" font-size="12.00"> </text>
</g>
<!-- step_01&#45;&gt;step_02 -->
<g id="edge1" class="edge">
<title>step_01&#45;&gt;step_02</title>
<path fill="none" stroke="#7b8794" stroke-width="1.2" d="M2243,-899.97C2243,-895.32 2243,-890.23 2243,-885.29"/>
<polygon fill="#7b8794" stroke="#7b8794" stroke-width="1.2" points="2245.45,-885.22 2243,-878.22 2240.55,-885.22 2245.45,-885.22"/>
</g>
<!-- step_03 -->
<g id="node15" class="node">
<title>step_03</title>
<path fill="#ffffff" stroke="#486581" stroke-width="1.5" d="M2387,-818C2387,-818 2099,-818 2099,-818 2093,-818 2087,-812 2087,-806 2087,-806 2087,-780 2087,-780 2087,-774 2093,-768 2099,-768 2099,-768 2387,-768 2387,-768 2393,-768 2399,-774 2399,-780 2399,-780 2399,-806 2399,-806 2399,-812 2393,-818 2387,-818"/>
<text text-anchor="start" x="2099" y="-802.4" font-family="DejaVu Sans" font-size="12.00"> </text>
<text text-anchor="start" x="2103" y="-802.4" font-family="DejaVu Sans" font-weight="bold" font-size="12.00">3.</text>
<text text-anchor="start" x="2116" y="-802.4" font-family="DejaVu Sans" font-size="12.00"> Контроль якості → Попереднє оброблення</text>
<text text-anchor="start" x="2216.5" y="-790.4" font-family="DejaVu Sans" font-size="12.00">сигналів</text>
<text text-anchor="start" x="2137.5" y="-778.4" font-family="DejaVu Sans" font-size="10.00">Допускає придатні дані до оброблення</text>
<text text-anchor="start" x="2344.5" y="-778.4" font-family="DejaVu Sans" font-size="12.00"> </text>
</g>
<!-- step_02&#45;&gt;step_03 -->
<g id="edge2" class="edge">
<title>step_02&#45;&gt;step_03</title>
<path fill="none" stroke="#7b8794" stroke-width="1.2" d="M2243,-839.83C2243,-835.36 2243,-830.45 2243,-825.55"/>
<polygon fill="#7b8794" stroke="#7b8794" stroke-width="1.2" points="2245.45,-825.43 2243,-818.43 2240.55,-825.43 2245.45,-825.43"/>
</g>
<!-- step_04 -->
<g id="node16" class="node">
<title>step_04</title>
<path fill="#ffffff" stroke="#486581" stroke-width="1.5" d="M2371,-746C2371,-746 2115,-746 2115,-746 2109,-746 2103,-740 2103,-734 2103,-734 2103,-696 2103,-696 2103,-690 2109,-684 2115,-684 2115,-684 2371,-684 2371,-684 2377,-684 2383,-690 2383,-696 2383,-696 2383,-734 2383,-734 2383,-740 2377,-746 2371,-746"/>
<text text-anchor="start" x="2158.5" y="-730.4" font-family="DejaVu Sans" font-size="12.00"> </text>
<text text-anchor="start" x="2162.5" y="-730.4" font-family="DejaVu Sans" font-weight="bold" font-size="12.00">4.</text>
<text text-anchor="start" x="2175.5" y="-730.4" font-family="DejaVu Sans" font-size="12.00"> Попереднє оброблення</text>
<text text-anchor="start" x="2115" y="-718.4" font-family="DejaVu Sans" font-size="12.00">сигналів → Аналізатор ЕКГ / Мінесотське</text>
<text text-anchor="start" x="2209.5" y="-706.4" font-family="DejaVu Sans" font-size="12.00">кодування</text>
<text text-anchor="start" x="2117" y="-694.4" font-family="DejaVu Sans" font-size="10.00">Передає ЕКГ для кодування й виділення ознак</text>
<text text-anchor="start" x="2365" y="-694.4" font-family="DejaVu Sans" font-size="12.00"> </text>
</g>
<!-- step_03&#45;&gt;step_04 -->
<g id="edge3" class="edge">
<title>step_03&#45;&gt;step_04</title>
<path fill="none" stroke="#7b8794" stroke-width="1.2" d="M2243,-767.95C2243,-763.28 2243,-758.28 2243,-753.29"/>
<polygon fill="#7b8794" stroke="#7b8794" stroke-width="1.2" points="2245.45,-753.04 2243,-746.04 2240.55,-753.04 2245.45,-753.04"/>
</g>
<!-- step_05 -->
<g id="node17" class="node">
<title>step_05</title>
<path fill="#ffffff" stroke="#486581" stroke-width="1.5" d="M2350,-662C2350,-662 2136,-662 2136,-662 2130,-662 2124,-656 2124,-650 2124,-650 2124,-624 2124,-624 2124,-618 2130,-612 2136,-612 2136,-612 2350,-612 2350,-612 2356,-612 2362,-618 2362,-624 2362,-624 2362,-650 2362,-650 2362,-656 2356,-662 2350,-662"/>
<text text-anchor="start" x="2158.5" y="-646.4" font-family="DejaVu Sans" font-size="12.00"> </text>
<text text-anchor="start" x="2162.5" y="-646.4" font-family="DejaVu Sans" font-weight="bold" font-size="12.00">5.</text>
<text text-anchor="start" x="2175.5" y="-646.4" font-family="DejaVu Sans" font-size="12.00"> Попереднє оброблення</text>
<text text-anchor="start" x="2150" y="-634.4" font-family="DejaVu Sans" font-size="12.00">сигналів → Аналізатор голосу</text>
<text text-anchor="start" x="2136" y="-622.4" font-family="DejaVu Sans" font-size="10.00">Передає аудіо для дозволеного аналізу</text>
<text text-anchor="start" x="2346" y="-622.4" font-family="DejaVu Sans" font-size="12.00"> </text>
</g>
<!-- step_04&#45;&gt;step_05 -->
<g id="edge4" class="edge">
<title>step_04&#45;&gt;step_05</title>
<path fill="none" stroke="#7b8794" stroke-width="1.2" d="M2243,-683.96C2243,-679.28 2243,-674.43 2243,-669.71"/>
<polygon fill="#7b8794" stroke="#7b8794" stroke-width="1.2" points="2245.45,-669.45 2243,-662.45 2240.55,-669.45 2245.45,-669.45"/>
</g>
<!-- step_06 -->
<g id="node18" class="node">
<title>step_06</title>
<path fill="#ffffff" stroke="#486581" stroke-width="1.5" d="M2350,-590C2350,-590 2136,-590 2136,-590 2130,-590 2124,-584 2124,-578 2124,-578 2124,-552 2124,-552 2124,-546 2130,-540 2136,-540 2136,-540 2350,-540 2350,-540 2356,-540 2362,-546 2362,-552 2362,-552 2362,-578 2362,-578 2362,-584 2356,-590 2350,-590"/>
<text text-anchor="start" x="2158.5" y="-574.4" font-family="DejaVu Sans" font-size="12.00"> </text>
<text text-anchor="start" x="2162.5" y="-574.4" font-family="DejaVu Sans" font-weight="bold" font-size="12.00">6.</text>
<text text-anchor="start" x="2175.5" y="-574.4" font-family="DejaVu Sans" font-size="12.00"> Попереднє оброблення</text>
<text text-anchor="start" x="2154.5" y="-562.4" font-family="DejaVu Sans" font-size="12.00">сигналів → Аналізатор відео</text>
<text text-anchor="start" x="2136" y="-550.4" font-family="DejaVu Sans" font-size="10.00">Передає відео для дозволеного аналізу</text>
<text text-anchor="start" x="2346" y="-550.4" font-family="DejaVu Sans" font-size="12.00"> </text>
</g>
<!-- step_05&#45;&gt;step_06 -->
<g id="edge5" class="edge">
<title>step_05&#45;&gt;step_06</title>
<path fill="none" stroke="#7b8794" stroke-width="1.2" d="M2243,-611.91C2243,-607.23 2243,-602.27 2243,-597.4"/>
<polygon fill="#7b8794" stroke="#7b8794" stroke-width="1.2" points="2245.45,-597.37 2243,-590.37 2240.55,-597.37 2245.45,-597.37"/>
</g>
<!-- step_07 -->
<g id="node19" class="node">
<title>step_07</title>
<path fill="#ffffff" stroke="#486581" stroke-width="1.5" d="M2363,-518C2363,-518 2123,-518 2123,-518 2117,-518 2111,-512 2111,-506 2111,-506 2111,-468 2111,-468 2111,-462 2117,-456 2123,-456 2123,-456 2363,-456 2363,-456 2369,-456 2375,-462 2375,-468 2375,-468 2375,-506 2375,-506 2375,-512 2369,-518 2363,-518"/>
<text text-anchor="start" x="2158.5" y="-502.4" font-family="DejaVu Sans" font-size="12.00"> </text>
<text text-anchor="start" x="2162.5" y="-502.4" font-family="DejaVu Sans" font-weight="bold" font-size="12.00">7.</text>
<text text-anchor="start" x="2175.5" y="-502.4" font-family="DejaVu Sans" font-size="12.00"> Попереднє оброблення</text>
<text text-anchor="start" x="2140.5" y="-490.4" font-family="DejaVu Sans" font-size="12.00">сигналів → Аналізатор медичних</text>
<text text-anchor="start" x="2208" y="-478.4" font-family="DejaVu Sans" font-size="12.00">зображень</text>
<text text-anchor="start" x="2123" y="-466.4" font-family="DejaVu Sans" font-size="10.00">Передає підтримуване медичне зображення</text>
<text text-anchor="start" x="2359" y="-466.4" font-family="DejaVu Sans" font-size="12.00"> </text>
</g>
<!-- step_06&#45;&gt;step_07 -->
<g id="edge6" class="edge">
<title>step_06&#45;&gt;step_07</title>
<path fill="none" stroke="#7b8794" stroke-width="1.2" d="M2243,-539.95C2243,-535.28 2243,-530.28 2243,-525.29"/>
<polygon fill="#7b8794" stroke="#7b8794" stroke-width="1.2" points="2245.45,-525.04 2243,-518.04 2240.55,-525.04 2245.45,-525.04"/>
</g>
<!-- step_08 -->
<g id="node20" class="node">
<title>step_08</title>
<path fill="#ffffff" stroke="#486581" stroke-width="1.5" d="M2346.5,-434C2346.5,-434 2139.5,-434 2139.5,-434 2133.5,-434 2127.5,-428 2127.5,-422 2127.5,-422 2127.5,-396 2127.5,-396 2127.5,-390 2133.5,-384 2139.5,-384 2139.5,-384 2346.5,-384 2346.5,-384 2352.5,-384 2358.5,-390 2358.5,-396 2358.5,-396 2358.5,-422 2358.5,-422 2358.5,-428 2352.5,-434 2346.5,-434"/>
<text text-anchor="start" x="2139.5" y="-418.4" font-family="DejaVu Sans" font-size="12.00"> </text>
<text text-anchor="start" x="2143.5" y="-418.4" font-family="DejaVu Sans" font-weight="bold" font-size="12.00">8.</text>
<text text-anchor="start" x="2156.5" y="-418.4" font-family="DejaVu Sans" font-size="12.00"> Аналізатор ЕКГ / Мінесотське</text>
<text text-anchor="start" x="2144" y="-406.4" font-family="DejaVu Sans" font-size="12.00">кодування → Об&#39;єднання ознак</text>
<text text-anchor="start" x="2175" y="-394.4" font-family="DejaVu Sans" font-size="10.00">Додає коди й ознаки ЕКГ</text>
<text text-anchor="start" x="2307" y="-394.4" font-family="DejaVu Sans" font-size="12.00"> </text>
</g>
<!-- step_07&#45;&gt;step_08 -->
<g id="edge7" class="edge">
<title>step_07&#45;&gt;step_08</title>
<path fill="none" stroke="#7b8794" stroke-width="1.2" d="M2243,-455.96C2243,-451.28 2243,-446.43 2243,-441.71"/>
<polygon fill="#7b8794" stroke="#7b8794" stroke-width="1.2" points="2245.45,-441.45 2243,-434.45 2240.55,-441.45 2245.45,-441.45"/>
</g>
<!-- step_09 -->
<g id="node21" class="node">
<title>step_09</title>
<path fill="#ffffff" stroke="#486581" stroke-width="1.5" d="M2376.5,-362C2376.5,-362 2109.5,-362 2109.5,-362 2103.5,-362 2097.5,-356 2097.5,-350 2097.5,-350 2097.5,-336 2097.5,-336 2097.5,-330 2103.5,-324 2109.5,-324 2109.5,-324 2376.5,-324 2376.5,-324 2382.5,-324 2388.5,-330 2388.5,-336 2388.5,-336 2388.5,-350 2388.5,-350 2388.5,-356 2382.5,-362 2376.5,-362"/>
<text text-anchor="start" x="2109.5" y="-346.4" font-family="DejaVu Sans" font-size="12.00"> </text>
<text text-anchor="start" x="2113.5" y="-346.4" font-family="DejaVu Sans" font-weight="bold" font-size="12.00">9.</text>
<text text-anchor="start" x="2126.5" y="-346.4" font-family="DejaVu Sans" font-size="12.00"> Аналізатор голосу → Об&#39;єднання ознак</text>
<text text-anchor="start" x="2181.5" y="-334.4" font-family="DejaVu Sans" font-size="10.00">Додає голосові ознаки</text>
<text text-anchor="start" x="2300.5" y="-334.4" font-family="DejaVu Sans" font-size="12.00"> </text>
</g>
<!-- step_08&#45;&gt;step_09 -->
<g id="edge8" class="edge">
<title>step_08&#45;&gt;step_09</title>
<path fill="none" stroke="#7b8794" stroke-width="1.2" d="M2243,-383.8C2243,-379.07 2243,-374.08 2243,-369.31"/>
<polygon fill="#7b8794" stroke="#7b8794" stroke-width="1.2" points="2245.45,-369.04 2243,-362.04 2240.55,-369.04 2245.45,-369.04"/>
</g>
<!-- step_10 -->
<g id="node22" class="node">
<title>step_10</title>
<path fill="#ffffff" stroke="#486581" stroke-width="1.5" d="M2376.5,-302C2376.5,-302 2109.5,-302 2109.5,-302 2103.5,-302 2097.5,-296 2097.5,-290 2097.5,-290 2097.5,-276 2097.5,-276 2097.5,-270 2103.5,-264 2109.5,-264 2109.5,-264 2376.5,-264 2376.5,-264 2382.5,-264 2388.5,-270 2388.5,-276 2388.5,-276 2388.5,-290 2388.5,-290 2388.5,-296 2382.5,-302 2376.5,-302"/>
<text text-anchor="start" x="2109.5" y="-286.4" font-family="DejaVu Sans" font-size="12.00"> </text>
<text text-anchor="start" x="2113.5" y="-286.4" font-family="DejaVu Sans" font-weight="bold" font-size="12.00">10.</text>
<text text-anchor="start" x="2135.5" y="-286.4" font-family="DejaVu Sans" font-size="12.00"> Аналізатор відео → Об&#39;єднання ознак</text>
<text text-anchor="start" x="2191" y="-274.4" font-family="DejaVu Sans" font-size="10.00">Додає відеоознаки</text>
<text text-anchor="start" x="2291" y="-274.4" font-family="DejaVu Sans" font-size="12.00"> </text>
</g>
<!-- step_09&#45;&gt;step_10 -->
<g id="edge9" class="edge">
<title>step_09&#45;&gt;step_10</title>
<path fill="none" stroke="#7b8794" stroke-width="1.2" d="M2243,-323.97C2243,-319.32 2243,-314.23 2243,-309.29"/>
<polygon fill="#7b8794" stroke="#7b8794" stroke-width="1.2" points="2245.45,-309.22 2243,-302.22 2240.55,-309.22 2245.45,-309.22"/>
</g>
<!-- step_11 -->
<g id="node23" class="node">
<title>step_11</title>
<path fill="#ffffff" stroke="#486581" stroke-width="1.5" d="M2343,-242C2343,-242 2143,-242 2143,-242 2137,-242 2131,-236 2131,-230 2131,-230 2131,-204 2131,-204 2131,-198 2137,-192 2143,-192 2143,-192 2343,-192 2343,-192 2349,-192 2355,-198 2355,-204 2355,-204 2355,-230 2355,-230 2355,-236 2349,-242 2343,-242"/>
<text text-anchor="start" x="2160.5" y="-226.4" font-family="DejaVu Sans" font-size="12.00"> </text>
<text text-anchor="start" x="2164.5" y="-226.4" font-family="DejaVu Sans" font-weight="bold" font-size="12.00">11.</text>
<text text-anchor="start" x="2186.5" y="-226.4" font-family="DejaVu Sans" font-size="12.00"> Аналізатор медичних</text>
<text text-anchor="start" x="2143" y="-214.4" font-family="DejaVu Sans" font-size="12.00">зображень → Об&#39;єднання ознак</text>
<text text-anchor="start" x="2164" y="-202.4" font-family="DejaVu Sans" font-size="10.00">Додає зображувальні ознаки</text>
<text text-anchor="start" x="2318" y="-202.4" font-family="DejaVu Sans" font-size="12.00"> </text>
</g>
<!-- step_10&#45;&gt;step_11 -->
<g id="edge10" class="edge">
<title>step_10&#45;&gt;step_11</title>
<path fill="none" stroke="#7b8794" stroke-width="1.2" d="M2243,-263.83C2243,-259.36 2243,-254.45 2243,-249.55"/>
<polygon fill="#7b8794" stroke="#7b8794" stroke-width="1.2" points="2245.45,-249.43 2243,-242.43 2240.55,-249.43 2245.45,-249.43"/>
</g>
<!-- step_12 -->
<g id="node24" class="node">
<title>step_12</title>
<path fill="#ffffff" stroke="#486581" stroke-width="1.5" d="M2404,-170C2404,-170 2082,-170 2082,-170 2076,-170 2070,-164 2070,-158 2070,-158 2070,-144 2070,-144 2070,-138 2076,-132 2082,-132 2082,-132 2404,-132 2404,-132 2410,-132 2416,-138 2416,-144 2416,-144 2416,-158 2416,-158 2416,-164 2410,-170 2404,-170"/>
<text text-anchor="start" x="2082" y="-154.4" font-family="DejaVu Sans" font-size="12.00"> </text>
<text text-anchor="start" x="2086" y="-154.4" font-family="DejaVu Sans" font-weight="bold" font-size="12.00">12.</text>
<text text-anchor="start" x="2108" y="-154.4" font-family="DejaVu Sans" font-size="12.00"> Об&#39;єднання ознак → Нормалізатор результату</text>
<text text-anchor="start" x="2090.5" y="-142.4" font-family="DejaVu Sans" font-size="10.00">Формує узгоджений результат із внеском модальностей</text>
<text text-anchor="start" x="2391.5" y="-142.4" font-family="DejaVu Sans" font-size="12.00"> </text>
</g>
<!-- step_11&#45;&gt;step_12 -->
<g id="edge11" class="edge">
<title>step_11&#45;&gt;step_12</title>
<path fill="none" stroke="#7b8794" stroke-width="1.2" d="M2243,-191.8C2243,-187.07 2243,-182.08 2243,-177.31"/>
<polygon fill="#7b8794" stroke="#7b8794" stroke-width="1.2" points="2245.45,-177.04 2243,-170.04 2240.55,-177.04 2245.45,-177.04"/>
</g>
<!-- step_13 -->
<g id="node25" class="node">
<title>step_13</title>
<path fill="#ffffff" stroke="#486581" stroke-width="1.5" d="M2402,-110C2402,-110 2084,-110 2084,-110 2078,-110 2072,-104 2072,-98 2072,-98 2072,-84 2072,-84 2072,-78 2078,-72 2084,-72 2084,-72 2402,-72 2402,-72 2408,-72 2414,-78 2414,-84 2414,-84 2414,-98 2414,-98 2414,-104 2408,-110 2402,-110"/>
<text text-anchor="start" x="2084" y="-94.4" font-family="DejaVu Sans" font-size="12.00"> </text>
<text text-anchor="start" x="2088" y="-94.4" font-family="DejaVu Sans" font-weight="bold" font-size="12.00">13.</text>
<text text-anchor="start" x="2110" y="-94.4" font-family="DejaVu Sans" font-size="12.00"> Нормалізатор результату → Клінічне сховище</text>
<text text-anchor="start" x="2114.5" y="-82.4" font-family="DejaVu Sans" font-size="10.00">Зберігає показники, якість і версію аналізатора</text>
<text text-anchor="start" x="2367.5" y="-82.4" font-family="DejaVu Sans" font-size="12.00"> </text>
</g>
<!-- step_12&#45;&gt;step_13 -->
<g id="edge12" class="edge">
<title>step_12&#45;&gt;step_13</title>
<path fill="none" stroke="#7b8794" stroke-width="1.2" d="M2243,-131.97C2243,-127.32 2243,-122.23 2243,-117.29"/>
<polygon fill="#7b8794" stroke="#7b8794" stroke-width="1.2" points="2245.45,-117.22 2243,-110.22 2240.55,-117.22 2245.45,-117.22"/>
</g>
<!-- step_14 -->
<g id="node26" class="node">
<title>step_14</title>
<path fill="#ffffff" stroke="#486581" stroke-width="1.5" d="M2400,-50C2400,-50 2086,-50 2086,-50 2080,-50 2074,-44 2074,-38 2074,-38 2074,-12 2074,-12 2074,-6 2080,0 2086,0 2086,0 2400,0 2400,0 2406,0 2412,-6 2412,-12 2412,-12 2412,-38 2412,-38 2412,-44 2406,-50 2400,-50"/>
<text text-anchor="start" x="2086" y="-34.4" font-family="DejaVu Sans" font-size="12.00"> </text>
<text text-anchor="start" x="2090" y="-34.4" font-family="DejaVu Sans" font-weight="bold" font-size="12.00">14.</text>
<text text-anchor="start" x="2112" y="-34.4" font-family="DejaVu Sans" font-size="12.00"> Нормалізатор результату → Сервіс аудиту та</text>
<text text-anchor="start" x="2182.5" y="-22.4" font-family="DejaVu Sans" font-size="12.00">спостережуваності</text>
<text text-anchor="start" x="2170" y="-10.4" font-family="DejaVu Sans" font-size="10.00">Фіксує ланцюг оброблення</text>
<text text-anchor="start" x="2312" y="-10.4" font-family="DejaVu Sans" font-size="12.00"> </text>
</g>
<!-- step_13&#45;&gt;step_14 -->
<g id="edge13" class="edge">
<title>step_13&#45;&gt;step_14</title>
<path fill="none" stroke="#7b8794" stroke-width="1.2" d="M2243,-71.83C2243,-67.36 2243,-62.45 2243,-57.55"/>
<polygon fill="#7b8794" stroke="#7b8794" stroke-width="1.2" points="2245.45,-57.43 2243,-50.43 2240.55,-57.43 2245.45,-57.43"/>
</g>
</g>
</svg>
