<?xml version="1.0" encoding="UTF-8" standalone="no"?>
<!DOCTYPE svg PUBLIC "-//W3C//DTD SVG 1.1//EN"
 "http://www.w3.org/Graphics/SVG/1.1/DTD/svg11.dtd">
<!-- Generated by graphviz version 2.42.4 (0)
 -->
<!-- Title: G Pages: 1 -->
<svg width="1950pt" height="589pt"
 viewBox="0.00 0.00 1949.90 589.40" xmlns="http://www.w3.org/2000/svg" xmlns:xlink="http://www.w3.org/1999/xlink">
<g id="graph0" class="graph" transform="scale(1 1) rotate(0) translate(25.2 564.2)">
<title>G</title>
<polygon fill="white" stroke="transparent" points="-25.2,25.2 -25.2,-564.2 1924.7,-564.2 1924.7,25.2 -25.2,25.2"/>
<text text-anchor="start" x="27.5" y="-524.8" font-family="DejaVu Sans" font-weight="bold" font-size="14.00">DYN.09 — Підготовка до візиту та маршрутизація</text>
<text text-anchor="start" x="8" y="-513.2" font-family="DejaVu Sans" font-size="11.00">Підготовка пацієнта до візиту та маршрутизація до відповідного фахівця.</text>
<!-- p_n_b1b0b8de8a62 -->
<g id="node1" class="node">
<title>p_n_b1b0b8de8a62</title>
<path fill="#084c61" stroke="#486581" d="M65,-505C65,-505 12,-505 12,-505 6,-505 0,-499 0,-493 0,-493 0,-481 0,-481 0,-475 6,-469 12,-469 12,-469 65,-469 65,-469 71,-469 77,-475 77,-481 77,-481 77,-493 77,-493 77,-499 71,-505 65,-505"/>
<text text-anchor="start" x="12" y="-484.9" font-family="DejaVu Sans" font-weight="bold" font-size="12.00" fill="#ffffff">Пацієнт</text>
</g>
<!-- p_n_8a923be70a11 -->
<g id="node2" class="node">
<title>p_n_8a923be70a11</title>
<path fill="#0b7285" stroke="#486581" d="M249.5,-505C249.5,-505 107.5,-505 107.5,-505 101.5,-505 95.5,-499 95.5,-493 95.5,-493 95.5,-481 95.5,-481 95.5,-475 101.5,-469 107.5,-469 107.5,-469 249.5,-469 249.5,-469 255.5,-469 261.5,-475 261.5,-481 261.5,-481 261.5,-493 261.5,-493 261.5,-499 255.5,-505 249.5,-505"/>
<text text-anchor="start" x="107.5" y="-484.9" font-family="DejaVu Sans" font-weight="bold" font-size="12.00" fill="#ffffff">Застосунок пацієнта</text>
</g>
<!-- p_n_384146de0c5d -->
<g id="node3" class="node">
<title>p_n_384146de0c5d</title>
<path fill="#f4f7fa" stroke="#486581" d="M399,-505C399,-505 292,-505 292,-505 286,-505 280,-499 280,-493 280,-493 280,-481 280,-481 280,-475 286,-469 292,-469 292,-469 399,-469 399,-469 405,-469 411,-475 411,-481 411,-481 411,-493 411,-493 411,-499 405,-505 399,-505"/>
<text text-anchor="start" x="292" y="-484.9" font-family="DejaVu Sans" font-weight="bold" font-size="12.00" fill="#18324a">API&#45;шлюз і BFF</text>
</g>
<!-- p_n_f9075d486a51 -->
<g id="node4" class="node">
<title>p_n_f9075d486a51</title>
<path fill="#f4f7fa" stroke="#486581" d="M599.5,-505C599.5,-505 441.5,-505 441.5,-505 435.5,-505 429.5,-499 429.5,-493 429.5,-493 429.5,-481 429.5,-481 429.5,-475 435.5,-469 441.5,-469 441.5,-469 599.5,-469 599.5,-469 605.5,-469 611.5,-475 611.5,-481 611.5,-481 611.5,-493 611.5,-493 611.5,-499 605.5,-505 599.5,-505"/>
<text text-anchor="start" x="441.5" y="-484.9" font-family="DejaVu Sans" font-weight="bold" font-size="12.00" fill="#18324a">Оркестратор взаємодії</text>
</g>
<!-- p_n_c210e7db8afd -->
<g id="node5" class="node">
<title>p_n_c210e7db8afd</title>
<path fill="#2b6cb0" stroke="#486581" d="M761.5,-506C761.5,-506 641.5,-506 641.5,-506 635.5,-506 629.5,-500 629.5,-494 629.5,-494 629.5,-480 629.5,-480 629.5,-474 635.5,-468 641.5,-468 641.5,-468 761.5,-468 761.5,-468 767.5,-468 773.5,-474 773.5,-480 773.5,-480 773.5,-494 773.5,-494 773.5,-500 767.5,-506 761.5,-506"/>
<text text-anchor="start" x="641.5" y="-490.4" font-family="DejaVu Sans" font-weight="bold" font-size="12.00" fill="#ffffff">Сервіс підтримки</text>
<text text-anchor="start" x="642" y="-478.4" font-family="DejaVu Sans" font-weight="bold" font-size="12.00" fill="#ffffff">клінічних рішень</text>
</g>
<!-- p_n_eb4c5110ae64 -->
<g id="node6" class="node">
<title>p_n_eb4c5110ae64</title>
<path fill="#b7791f" stroke="#486581" d="M967,-506C967,-506 804,-506 804,-506 798,-506 792,-500 792,-494 792,-494 792,-480 792,-480 792,-474 798,-468 804,-468 804,-468 967,-468 967,-468 973,-468 979,-474 979,-480 979,-480 979,-494 979,-494 979,-500 973,-506 967,-506"/>
<text text-anchor="start" x="831" y="-490.4" font-family="DejaVu Sans" font-weight="bold" font-size="12.00" fill="#ffffff">Сервіс завдань,</text>
<text text-anchor="start" x="804" y="-478.4" font-family="DejaVu Sans" font-weight="bold" font-size="12.00" fill="#ffffff">нагадувань і ескалацій</text>
</g>
<!-- p_n_b10c10dbc143 -->
<g id="node7" class="node">
<title>p_n_b10c10dbc143</title>
<path fill="#3b5bdb" stroke="#486581" d="M1151.5,-505C1151.5,-505 1009.5,-505 1009.5,-505 1003.5,-505 997.5,-499 997.5,-493 997.5,-493 997.5,-481 997.5,-481 997.5,-475 1003.5,-469 1009.5,-469 1009.5,-469 1151.5,-469 1151.5,-469 1157.5,-469 1163.5,-475 1163.5,-481 1163.5,-481 1163.5,-493 1163.5,-493 1163.5,-499 1157.5,-505 1151.5,-505"/>
<text text-anchor="start" x="1009.5" y="-484.9" font-family="DejaVu Sans" font-weight="bold" font-size="12.00" fill="#ffffff">Інтеграційний шлюз</text>
</g>
<!-- p_n_d41792c094aa -->
<g id="node8" class="node">
<title>p_n_d41792c094aa</title>
<path fill="#e9eef4" stroke="#486581" d="M1335.5,-506C1335.5,-506 1193.5,-506 1193.5,-506 1187.5,-506 1181.5,-500 1181.5,-494 1181.5,-494 1181.5,-480 1181.5,-480 1181.5,-474 1187.5,-468 1193.5,-468 1193.5,-468 1335.5,-468 1335.5,-468 1341.5,-468 1347.5,-474 1347.5,-480 1347.5,-480 1347.5,-494 1347.5,-494 1347.5,-500 1341.5,-506 1335.5,-506"/>
<text text-anchor="start" x="1193.5" y="-490.4" font-family="DejaVu Sans" font-weight="bold" font-size="12.00" fill="#263238">Календар і запис на</text>
<text text-anchor="start" x="1238.5" y="-478.4" font-family="DejaVu Sans" font-weight="bold" font-size="12.00" fill="#263238">прийом</text>
</g>
<!-- p_n_8ef8376f7755 -->
<g id="node9" class="node">
<title>p_n_8ef8376f7755</title>
<path fill="#e9eef4" stroke="#486581" d="M1565,-505C1565,-505 1378,-505 1378,-505 1372,-505 1366,-499 1366,-493 1366,-493 1366,-481 1366,-481 1366,-475 1372,-469 1378,-469 1378,-469 1565,-469 1565,-469 1571,-469 1577,-475 1577,-481 1577,-481 1577,-493 1577,-493 1577,-499 1571,-505 1565,-505"/>
<text text-anchor="start" x="1378" y="-484.9" font-family="DejaVu Sans" font-weight="bold" font-size="12.00" fill="#263238">Платформа телемедицини</text>
</g>
<!-- step_01 -->
<g id="node10" class="node">
<title>step_01</title>
<path fill="#ffffff" stroke="#486581" stroke-width="1.5" d="M1825.5,-506C1825.5,-506 1607.5,-506 1607.5,-506 1601.5,-506 1595.5,-500 1595.5,-494 1595.5,-494 1595.5,-480 1595.5,-480 1595.5,-474 1601.5,-468 1607.5,-468 1607.5,-468 1825.5,-468 1825.5,-468 1831.5,-468 1837.5,-474 1837.5,-480 1837.5,-480 1837.5,-494 1837.5,-494 1837.5,-500 1831.5,-506 1825.5,-506"/>
<text text-anchor="start" x="1607.5" y="-490.4" font-family="DejaVu Sans" font-size="12.00"> </text>
<text text-anchor="start" x="1611.5" y="-490.4" font-family="DejaVu Sans" font-weight="bold" font-size="12.00">1.</text>
<text text-anchor="start" x="1624.5" y="-490.4" font-family="DejaVu Sans" font-size="12.00"> Пацієнт → Застосунок пацієнта</text>
<text text-anchor="start" x="1619" y="-478.4" font-family="DejaVu Sans" font-size="10.00">Запитує підготовку до консультації</text>
<text text-anchor="start" x="1810" y="-478.4" font-family="DejaVu Sans" font-size="12.00"> </text>
</g>
<!-- step_02 -->
<g id="node11" class="node">
<title>step_02</title>
<path fill="#ffffff" stroke="#486581" stroke-width="1.5" d="M1847,-446C1847,-446 1586,-446 1586,-446 1580,-446 1574,-440 1574,-434 1574,-434 1574,-420 1574,-420 1574,-414 1580,-408 1586,-408 1586,-408 1847,-408 1847,-408 1853,-408 1859,-414 1859,-420 1859,-420 1859,-434 1859,-434 1859,-440 1853,-446 1847,-446"/>
<text text-anchor="start" x="1586" y="-430.4" font-family="DejaVu Sans" font-size="12.00"> </text>
<text text-anchor="start" x="1590" y="-430.4" font-family="DejaVu Sans" font-weight="bold" font-size="12.00">2.</text>
<text text-anchor="start" x="1603" y="-430.4" font-family="DejaVu Sans" font-size="12.00"> Застосунок пацієнта → API&#45;шлюз і BFF</text>
<text text-anchor="start" x="1604.5" y="-418.4" font-family="DejaVu Sans" font-size="10.00">Передає запит із дозволеним контекстом</text>
<text text-anchor="start" x="1824.5" y="-418.4" font-family="DejaVu Sans" font-size="12.00"> </text>
</g>
<!-- step_01&#45;&gt;step_02 -->
<g id="edge1" class="edge">
<title>step_01&#45;&gt;step_02</title>
<path fill="none" stroke="#7b8794" stroke-width="1.2" d="M1716.5,-467.97C1716.5,-463.32 1716.5,-458.23 1716.5,-453.29"/>
<polygon fill="#7b8794" stroke="#7b8794" stroke-width="1.2" points="1718.95,-453.22 1716.5,-446.22 1714.05,-453.22 1718.95,-453.22"/>
</g>
<!-- step_03 -->
<g id="node12" class="node">
<title>step_03</title>
<path fill="#ffffff" stroke="#486581" stroke-width="1.5" d="M1854,-386C1854,-386 1579,-386 1579,-386 1573,-386 1567,-380 1567,-374 1567,-374 1567,-360 1567,-360 1567,-354 1573,-348 1579,-348 1579,-348 1854,-348 1854,-348 1860,-348 1866,-354 1866,-360 1866,-360 1866,-374 1866,-374 1866,-380 1860,-386 1854,-386"/>
<text text-anchor="start" x="1579" y="-370.4" font-family="DejaVu Sans" font-size="12.00"> </text>
<text text-anchor="start" x="1583" y="-370.4" font-family="DejaVu Sans" font-weight="bold" font-size="12.00">3.</text>
<text text-anchor="start" x="1596" y="-370.4" font-family="DejaVu Sans" font-size="12.00"> API&#45;шлюз і BFF → Оркестратор взаємодії</text>
<text text-anchor="start" x="1593" y="-358.4" font-family="DejaVu Sans" font-size="10.00">Формує зрозумілий підсумок і перелік питань</text>
<text text-anchor="start" x="1836" y="-358.4" font-family="DejaVu Sans" font-size="12.00"> </text>
</g>
<!-- step_02&#45;&gt;step_03 -->
<g id="edge2" class="edge">
<title>step_02&#45;&gt;step_03</title>
<path fill="none" stroke="#7b8794" stroke-width="1.2" d="M1716.5,-407.97C1716.5,-403.32 1716.5,-398.23 1716.5,-393.29"/>
<polygon fill="#7b8794" stroke="#7b8794" stroke-width="1.2" points="1718.95,-393.22 1716.5,-386.22 1714.05,-393.22 1718.95,-393.22"/>
</g>
<!-- step_04 -->
<g id="node13" class="node">
<title>step_04</title>
<path fill="#ffffff" stroke="#486581" stroke-width="1.5" d="M1866,-326C1866,-326 1567,-326 1567,-326 1561,-326 1555,-320 1555,-314 1555,-314 1555,-288 1555,-288 1555,-282 1561,-276 1567,-276 1567,-276 1866,-276 1866,-276 1872,-276 1878,-282 1878,-288 1878,-288 1878,-314 1878,-314 1878,-320 1872,-326 1866,-326"/>
<text text-anchor="start" x="1567" y="-310.4" font-family="DejaVu Sans" font-size="12.00"> </text>
<text text-anchor="start" x="1571" y="-310.4" font-family="DejaVu Sans" font-weight="bold" font-size="12.00">4.</text>
<text text-anchor="start" x="1584" y="-310.4" font-family="DejaVu Sans" font-size="12.00"> API&#45;шлюз і BFF → Сервіс підтримки клінічних</text>
<text text-anchor="start" x="1694.5" y="-298.4" font-family="DejaVu Sans" font-size="12.00">рішень</text>
<text text-anchor="start" x="1609" y="-286.4" font-family="DejaVu Sans" font-size="10.00">Визначає допустимі варіанти маршруту</text>
<text text-anchor="start" x="1820" y="-286.4" font-family="DejaVu Sans" font-size="12.00"> </text>
</g>
<!-- step_03&#45;&gt;step_04 -->
<g id="edge3" class="edge">
<title>step_03&#45;&gt;step_04</title>
<path fill="none" stroke="#7b8794" stroke-width="1.2" d="M1716.5,-347.83C1716.5,-343.36 1716.5,-338.45 1716.5,-333.55"/>
<polygon fill="#7b8794" stroke="#7b8794" stroke-width="1.2" points="1718.95,-333.43 1716.5,-326.43 1714.05,-333.43 1718.95,-333.43"/>
</g>
<!-- step_05 -->
<g id="node14" class="node">
<title>step_05</title>
<path fill="#ffffff" stroke="#486581" stroke-width="1.5" d="M1841,-254C1841,-254 1592,-254 1592,-254 1586,-254 1580,-248 1580,-242 1580,-242 1580,-204 1580,-204 1580,-198 1586,-192 1592,-192 1592,-192 1841,-192 1841,-192 1847,-192 1853,-198 1853,-204 1853,-204 1853,-242 1853,-242 1853,-248 1847,-254 1841,-254"/>
<text text-anchor="start" x="1621.5" y="-238.4" font-family="DejaVu Sans" font-size="12.00"> </text>
<text text-anchor="start" x="1625.5" y="-238.4" font-family="DejaVu Sans" font-weight="bold" font-size="12.00">5.</text>
<text text-anchor="start" x="1638.5" y="-238.4" font-family="DejaVu Sans" font-size="12.00"> Сервіс підтримки клінічних</text>
<text text-anchor="start" x="1595.5" y="-226.4" font-family="DejaVu Sans" font-size="12.00">рішень → Сервіс завдань, нагадувань і</text>
<text text-anchor="start" x="1684.5" y="-214.4" font-family="DejaVu Sans" font-size="12.00">ескалацій</text>
<text text-anchor="start" x="1592" y="-202.4" font-family="DejaVu Sans" font-size="10.00">Передає роль фахівця, пріоритет і часові межі</text>
<text text-anchor="start" x="1837" y="-202.4" font-family="DejaVu Sans" font-size="12.00"> </text>
</g>
<!-- step_04&#45;&gt;step_05 -->
<g id="edge4" class="edge">
<title>step_04&#45;&gt;step_05</title>
<path fill="none" stroke="#7b8794" stroke-width="1.2" d="M1716.5,-275.95C1716.5,-271.28 1716.5,-266.28 1716.5,-261.29"/>
<polygon fill="#7b8794" stroke="#7b8794" stroke-width="1.2" points="1718.95,-261.04 1716.5,-254.04 1714.05,-261.04 1718.95,-261.04"/>
</g>
<!-- step_06 -->
<g id="node15" class="node">
<title>step_06</title>
<path fill="#ffffff" stroke="#486581" stroke-width="1.5" d="M1851,-170C1851,-170 1582,-170 1582,-170 1576,-170 1570,-164 1570,-158 1570,-158 1570,-132 1570,-132 1570,-126 1576,-120 1582,-120 1582,-120 1851,-120 1851,-120 1857,-120 1863,-126 1863,-132 1863,-132 1863,-158 1863,-158 1863,-164 1857,-170 1851,-170"/>
<text text-anchor="start" x="1615.5" y="-154.4" font-family="DejaVu Sans" font-size="12.00"> </text>
<text text-anchor="start" x="1619.5" y="-154.4" font-family="DejaVu Sans" font-weight="bold" font-size="12.00">6.</text>
<text text-anchor="start" x="1632.5" y="-154.4" font-family="DejaVu Sans" font-size="12.00"> Сервіс завдань, нагадувань і</text>
<text text-anchor="start" x="1612.5" y="-142.4" font-family="DejaVu Sans" font-size="12.00">ескалацій → Інтеграційний шлюз</text>
<text text-anchor="start" x="1582" y="-130.4" font-family="DejaVu Sans" font-size="10.00">Запитує доступний слот або телемедичний сеанс</text>
<text text-anchor="start" x="1847" y="-130.4" font-family="DejaVu Sans" font-size="12.00"> </text>
</g>
<!-- step_05&#45;&gt;step_06 -->
<g id="edge5" class="edge">
<title>step_05&#45;&gt;step_06</title>
<path fill="none" stroke="#7b8794" stroke-width="1.2" d="M1716.5,-191.96C1716.5,-187.28 1716.5,-182.43 1716.5,-177.71"/>
<polygon fill="#7b8794" stroke="#7b8794" stroke-width="1.2" points="1718.95,-177.45 1716.5,-170.45 1714.05,-177.45 1718.95,-177.45"/>
</g>
<!-- step_07 -->
<g id="node16" class="node">
<title>step_07</title>
<path fill="#ffffff" stroke="#486581" stroke-width="1.5" d="M1887.5,-98C1887.5,-98 1545.5,-98 1545.5,-98 1539.5,-98 1533.5,-92 1533.5,-86 1533.5,-86 1533.5,-72 1533.5,-72 1533.5,-66 1539.5,-60 1545.5,-60 1545.5,-60 1887.5,-60 1887.5,-60 1893.5,-60 1899.5,-66 1899.5,-72 1899.5,-72 1899.5,-86 1899.5,-86 1899.5,-92 1893.5,-98 1887.5,-98"/>
<text text-anchor="start" x="1545.5" y="-82.4" font-family="DejaVu Sans" font-size="12.00"> </text>
<text text-anchor="start" x="1549.5" y="-82.4" font-family="DejaVu Sans" font-weight="bold" font-size="12.00">7.</text>
<text text-anchor="start" x="1562.5" y="-82.4" font-family="DejaVu Sans" font-size="12.00"> Інтеграційний шлюз → Календар і запис на прийом</text>
<text text-anchor="start" x="1640" y="-70.4" font-family="DejaVu Sans" font-size="10.00">Створює або резервує подію</text>
<text text-anchor="start" x="1789" y="-70.4" font-family="DejaVu Sans" font-size="12.00"> </text>
</g>
<!-- step_06&#45;&gt;step_07 -->
<g id="edge6" class="edge">
<title>step_06&#45;&gt;step_07</title>
<path fill="none" stroke="#7b8794" stroke-width="1.2" d="M1716.5,-119.8C1716.5,-115.07 1716.5,-110.08 1716.5,-105.31"/>
<polygon fill="#7b8794" stroke="#7b8794" stroke-width="1.2" points="1718.95,-105.04 1716.5,-98.04 1714.05,-105.04 1718.95,-105.04"/>
</g>
<!-- step_08 -->
<g id="node17" class="node">
<title>step_08</title>
<path fill="#ffffff" stroke="#486581" stroke-width="1.5" d="M1883.5,-38C1883.5,-38 1549.5,-38 1549.5,-38 1543.5,-38 1537.5,-32 1537.5,-26 1537.5,-26 1537.5,-12 1537.5,-12 1537.5,-6 1543.5,0 1549.5,0 1549.5,0 1883.5,0 1883.5,0 1889.5,0 1895.5,-6 1895.5,-12 1895.5,-12 1895.5,-26 1895.5,-26 1895.5,-32 1889.5,-38 1883.5,-38"/>
<text text-anchor="start" x="1549.5" y="-22.4" font-family="DejaVu Sans" font-size="12.00"> </text>
<text text-anchor="start" x="1553.5" y="-22.4" font-family="DejaVu Sans" font-weight="bold" font-size="12.00">8.</text>
<text text-anchor="start" x="1566.5" y="-22.4" font-family="DejaVu Sans" font-size="12.00"> Інтеграційний шлюз → Платформа телемедицини</text>
<text text-anchor="start" x="1575.5" y="-10.4" font-family="DejaVu Sans" font-size="10.00">За потреби створює захищений дистанційний сеанс</text>
<text text-anchor="start" x="1853.5" y="-10.4" font-family="DejaVu Sans" font-size="12.00"> </text>
</g>
<!-- step_07&#45;&gt;step_08 -->
<g id="edge7" class="edge">
<title>step_07&#45;&gt;step_08</title>
<path fill="none" stroke="#7b8794" stroke-width="1.2" d="M1716.5,-59.97C1716.5,-55.32 1716.5,-50.23 1716.5,-45.29"/>
<polygon fill="#7b8794" stroke="#7b8794" stroke-width="1.2" points="1718.95,-45.22 1716.5,-38.22 1714.05,-45.22 1718.95,-45.22"/>
</g>
</g>
</svg>
