<?xml version="1.0" encoding="UTF-8" standalone="no"?>
<!DOCTYPE svg PUBLIC "-//W3C//DTD SVG 1.1//EN"
 "http://www.w3.org/Graphics/SVG/1.1/DTD/svg11.dtd">
<!-- Generated by graphviz version 2.42.4 (0)
 -->
<!-- Title: G Pages: 1 -->
<svg width="1437pt" height="577pt"
 viewBox="0.00 0.00 1436.90 577.40" xmlns="http://www.w3.org/2000/svg" xmlns:xlink="http://www.w3.org/1999/xlink">
<g id="graph0" class="graph" transform="scale(1 1) rotate(0) translate(25.2 552.2)">
<title>G</title>
<polygon fill="white" stroke="transparent" points="-25.2,25.2 -25.2,-552.2 1411.7,-552.2 1411.7,25.2 -25.2,25.2"/>
<text text-anchor="start" x="44.5" y="-512.8" font-family="DejaVu Sans" font-weight="bold" font-size="14.00">DYN.02 — Вхід, доступ та інформована згода</text>
<text text-anchor="start" x="8" y="-501.2" font-family="DejaVu Sans" font-size="11.00">Створення профілю сесії, автентифікація, інформування та фіксація згод.</text>
<!-- p_n_b1b0b8de8a62 -->
<g id="node1" class="node">
<title>p_n_b1b0b8de8a62</title>
<path fill="#084c61" stroke="#486581" d="M65,-487C65,-487 12,-487 12,-487 6,-487 0,-481 0,-475 0,-475 0,-463 0,-463 0,-457 6,-451 12,-451 12,-451 65,-451 65,-451 71,-451 77,-457 77,-463 77,-463 77,-475 77,-475 77,-481 71,-487 65,-487"/>
<text text-anchor="start" x="12" y="-466.9" font-family="DejaVu Sans" font-weight="bold" font-size="12.00" fill="#ffffff">Пацієнт</text>
</g>
<!-- p_n_8a923be70a11 -->
<g id="node2" class="node">
<title>p_n_8a923be70a11</title>
<path fill="#0b7285" stroke="#486581" d="M249.5,-487C249.5,-487 107.5,-487 107.5,-487 101.5,-487 95.5,-481 95.5,-475 95.5,-475 95.5,-463 95.5,-463 95.5,-457 101.5,-451 107.5,-451 107.5,-451 249.5,-451 249.5,-451 255.5,-451 261.5,-457 261.5,-463 261.5,-463 261.5,-475 261.5,-475 261.5,-481 255.5,-487 249.5,-487"/>
<text text-anchor="start" x="107.5" y="-466.9" font-family="DejaVu Sans" font-weight="bold" font-size="12.00" fill="#ffffff">Застосунок пацієнта</text>
</g>
<!-- p_n_384146de0c5d -->
<g id="node3" class="node">
<title>p_n_384146de0c5d</title>
<path fill="#f4f7fa" stroke="#486581" d="M399,-487C399,-487 292,-487 292,-487 286,-487 280,-481 280,-475 280,-475 280,-463 280,-463 280,-457 286,-451 292,-451 292,-451 399,-451 399,-451 405,-451 411,-457 411,-463 411,-463 411,-475 411,-475 411,-481 405,-487 399,-487"/>
<text text-anchor="start" x="292" y="-466.9" font-family="DejaVu Sans" font-weight="bold" font-size="12.00" fill="#18324a">API&#45;шлюз і BFF</text>
</g>
<!-- p_n_dcb3f876e224 -->
<g id="node4" class="node">
<title>p_n_dcb3f876e224</title>
<path fill="#f4f7fa" stroke="#486581" d="M581.5,-488C581.5,-488 441.5,-488 441.5,-488 435.5,-488 429.5,-482 429.5,-476 429.5,-476 429.5,-462 429.5,-462 429.5,-456 435.5,-450 441.5,-450 441.5,-450 581.5,-450 581.5,-450 587.5,-450 593.5,-456 593.5,-462 593.5,-462 593.5,-476 593.5,-476 593.5,-482 587.5,-488 581.5,-488"/>
<text text-anchor="start" x="441.5" y="-472.4" font-family="DejaVu Sans" font-weight="bold" font-size="12.00" fill="#18324a">Сервіс ідентичності,</text>
<text text-anchor="start" x="456.5" y="-460.4" font-family="DejaVu Sans" font-weight="bold" font-size="12.00" fill="#18324a">доступу та згод</text>
</g>
<!-- p_n_d6434351ba8f -->
<g id="node5" class="node">
<title>p_n_d6434351ba8f</title>
<path fill="#e9eef4" stroke="#486581" d="M721.5,-494C721.5,-494 623.5,-494 623.5,-494 617.5,-494 611.5,-488 611.5,-482 611.5,-482 611.5,-456 611.5,-456 611.5,-450 617.5,-444 623.5,-444 623.5,-444 721.5,-444 721.5,-444 727.5,-444 733.5,-450 733.5,-456 733.5,-456 733.5,-482 733.5,-482 733.5,-488 727.5,-494 721.5,-494"/>
<text text-anchor="start" x="623.5" y="-478.4" font-family="DejaVu Sans" font-weight="bold" font-size="12.00" fill="#263238">Постачальник</text>
<text text-anchor="start" x="629.5" y="-466.4" font-family="DejaVu Sans" font-weight="bold" font-size="12.00" fill="#263238">електронної</text>
<text text-anchor="start" x="628.5" y="-454.4" font-family="DejaVu Sans" font-weight="bold" font-size="12.00" fill="#263238">ідентичності</text>
</g>
<!-- p_n_40b119007c9f -->
<g id="node6" class="node">
<title>p_n_40b119007c9f</title>
<path fill="#edf2f7" stroke="#486581" d="M887.5,-487C887.5,-487 763.5,-487 763.5,-487 757.5,-487 751.5,-481 751.5,-475 751.5,-475 751.5,-463 751.5,-463 751.5,-457 757.5,-451 763.5,-451 763.5,-451 887.5,-451 887.5,-451 893.5,-451 899.5,-457 899.5,-463 899.5,-463 899.5,-475 899.5,-475 899.5,-481 893.5,-487 887.5,-487"/>
<text text-anchor="start" x="763.5" y="-466.9" font-family="DejaVu Sans" font-weight="bold" font-size="12.00" fill="#1a202c">Клінічне сховище</text>
</g>
<!-- p_n_5f5685eeff97 -->
<g id="node7" class="node">
<title>p_n_5f5685eeff97</title>
<path fill="#4a5568" stroke="#486581" d="M1061,-488C1061,-488 930,-488 930,-488 924,-488 918,-482 918,-476 918,-476 918,-462 918,-462 918,-456 924,-450 930,-450 930,-450 1061,-450 1061,-450 1067,-450 1073,-456 1073,-462 1073,-462 1073,-476 1073,-476 1073,-482 1067,-488 1061,-488"/>
<text text-anchor="start" x="937.5" y="-472.4" font-family="DejaVu Sans" font-weight="bold" font-size="12.00" fill="#ffffff">Сервіс аудиту та</text>
<text text-anchor="start" x="930" y="-460.4" font-family="DejaVu Sans" font-weight="bold" font-size="12.00" fill="#ffffff">спостережуваності</text>
</g>
<!-- step_01 -->
<g id="node8" class="node">
<title>step_01</title>
<path fill="#ffffff" stroke="#486581" stroke-width="1.5" d="M1336,-488C1336,-488 1103,-488 1103,-488 1097,-488 1091,-482 1091,-476 1091,-476 1091,-462 1091,-462 1091,-456 1097,-450 1103,-450 1103,-450 1336,-450 1336,-450 1342,-450 1348,-456 1348,-462 1348,-462 1348,-476 1348,-476 1348,-482 1342,-488 1336,-488"/>
<text text-anchor="start" x="1110.5" y="-472.4" font-family="DejaVu Sans" font-size="12.00"> </text>
<text text-anchor="start" x="1114.5" y="-472.4" font-family="DejaVu Sans" font-weight="bold" font-size="12.00">1.</text>
<text text-anchor="start" x="1127.5" y="-472.4" font-family="DejaVu Sans" font-size="12.00"> Пацієнт → Застосунок пацієнта</text>
<text text-anchor="start" x="1103" y="-460.4" font-family="DejaVu Sans" font-size="10.00">Відкриває застосунок і обирає спосіб входу</text>
<text text-anchor="start" x="1332" y="-460.4" font-family="DejaVu Sans" font-size="12.00"> </text>
</g>
<!-- step_02 -->
<g id="node9" class="node">
<title>step_02</title>
<path fill="#ffffff" stroke="#486581" stroke-width="1.5" d="M1350,-422C1350,-422 1089,-422 1089,-422 1083,-422 1077,-416 1077,-410 1077,-410 1077,-396 1077,-396 1077,-390 1083,-384 1089,-384 1089,-384 1350,-384 1350,-384 1356,-384 1362,-390 1362,-396 1362,-396 1362,-410 1362,-410 1362,-416 1356,-422 1350,-422"/>
<text text-anchor="start" x="1089" y="-406.4" font-family="DejaVu Sans" font-size="12.00"> </text>
<text text-anchor="start" x="1093" y="-406.4" font-family="DejaVu Sans" font-weight="bold" font-size="12.00">2.</text>
<text text-anchor="start" x="1106" y="-406.4" font-family="DejaVu Sans" font-size="12.00"> Застосунок пацієнта → API&#45;шлюз і BFF</text>
<text text-anchor="start" x="1160" y="-394.4" font-family="DejaVu Sans" font-size="10.00">Запитує початок сесії</text>
<text text-anchor="start" x="1275" y="-394.4" font-family="DejaVu Sans" font-size="12.00"> </text>
</g>
<!-- step_01&#45;&gt;step_02 -->
<g id="edge1" class="edge">
<title>step_01&#45;&gt;step_02</title>
<path fill="none" stroke="#7b8794" stroke-width="1.2" d="M1219.5,-449.83C1219.5,-443.54 1219.5,-436.35 1219.5,-429.57"/>
<polygon fill="#7b8794" stroke="#7b8794" stroke-width="1.2" points="1221.95,-429.44 1219.5,-422.44 1217.05,-429.44 1221.95,-429.44"/>
</g>
<!-- step_03 -->
<g id="node10" class="node">
<title>step_03</title>
<path fill="#ffffff" stroke="#486581" stroke-width="1.5" d="M1374.5,-362C1374.5,-362 1064.5,-362 1064.5,-362 1058.5,-362 1052.5,-356 1052.5,-350 1052.5,-350 1052.5,-324 1052.5,-324 1052.5,-318 1058.5,-312 1064.5,-312 1064.5,-312 1374.5,-312 1374.5,-312 1380.5,-312 1386.5,-318 1386.5,-324 1386.5,-324 1386.5,-350 1386.5,-350 1386.5,-356 1380.5,-362 1374.5,-362"/>
<text text-anchor="start" x="1064.5" y="-346.4" font-family="DejaVu Sans" font-size="12.00"> </text>
<text text-anchor="start" x="1068.5" y="-346.4" font-family="DejaVu Sans" font-weight="bold" font-size="12.00">3.</text>
<text text-anchor="start" x="1081.5" y="-346.4" font-family="DejaVu Sans" font-size="12.00"> API&#45;шлюз і BFF → Сервіс ідентичності, доступу</text>
<text text-anchor="start" x="1196" y="-334.4" font-family="DejaVu Sans" font-size="12.00">та згод</text>
<text text-anchor="start" x="1138.5" y="-322.4" font-family="DejaVu Sans" font-size="10.00">Передає токен і мету доступу</text>
<text text-anchor="start" x="1296.5" y="-322.4" font-family="DejaVu Sans" font-size="12.00"> </text>
</g>
<!-- step_02&#45;&gt;step_03 -->
<g id="edge2" class="edge">
<title>step_02&#45;&gt;step_03</title>
<path fill="none" stroke="#7b8794" stroke-width="1.2" d="M1219.5,-383.83C1219.5,-379.36 1219.5,-374.45 1219.5,-369.55"/>
<polygon fill="#7b8794" stroke="#7b8794" stroke-width="1.2" points="1221.95,-369.43 1219.5,-362.43 1217.05,-369.43 1221.95,-369.43"/>
</g>
<!-- step_04 -->
<g id="node11" class="node">
<title>step_04</title>
<path fill="#ffffff" stroke="#486581" stroke-width="1.5" d="M1336.5,-290C1336.5,-290 1102.5,-290 1102.5,-290 1096.5,-290 1090.5,-284 1090.5,-278 1090.5,-278 1090.5,-240 1090.5,-240 1090.5,-234 1096.5,-228 1102.5,-228 1102.5,-228 1336.5,-228 1336.5,-228 1342.5,-228 1348.5,-234 1348.5,-240 1348.5,-240 1348.5,-278 1348.5,-278 1348.5,-284 1342.5,-290 1336.5,-290"/>
<text text-anchor="start" x="1119" y="-274.4" font-family="DejaVu Sans" font-size="12.00"> </text>
<text text-anchor="start" x="1123" y="-274.4" font-family="DejaVu Sans" font-weight="bold" font-size="12.00">4.</text>
<text text-anchor="start" x="1136" y="-274.4" font-family="DejaVu Sans" font-size="12.00"> Сервіс ідентичності, доступу</text>
<text text-anchor="start" x="1102.5" y="-262.4" font-family="DejaVu Sans" font-size="12.00">та згод → Постачальник електронної</text>
<text text-anchor="start" x="1180" y="-250.4" font-family="DejaVu Sans" font-size="12.00">ідентичності</text>
<text text-anchor="start" x="1108.5" y="-238.4" font-family="DejaVu Sans" font-size="10.00">Перевіряє електронну ідентичність і MFA</text>
<text text-anchor="start" x="1326.5" y="-238.4" font-family="DejaVu Sans" font-size="12.00"> </text>
</g>
<!-- step_03&#45;&gt;step_04 -->
<g id="edge3" class="edge">
<title>step_03&#45;&gt;step_04</title>
<path fill="none" stroke="#7b8794" stroke-width="1.2" d="M1219.5,-311.95C1219.5,-307.28 1219.5,-302.28 1219.5,-297.29"/>
<polygon fill="#7b8794" stroke="#7b8794" stroke-width="1.2" points="1221.95,-297.04 1219.5,-290.04 1217.05,-297.04 1221.95,-297.04"/>
</g>
<!-- step_05 -->
<g id="node12" class="node">
<title>step_05</title>
<path fill="#ffffff" stroke="#486581" stroke-width="1.5" d="M1349.5,-206C1349.5,-206 1089.5,-206 1089.5,-206 1083.5,-206 1077.5,-200 1077.5,-194 1077.5,-194 1077.5,-168 1077.5,-168 1077.5,-162 1083.5,-156 1089.5,-156 1089.5,-156 1349.5,-156 1349.5,-156 1355.5,-156 1361.5,-162 1361.5,-168 1361.5,-168 1361.5,-194 1361.5,-194 1361.5,-200 1355.5,-206 1349.5,-206"/>
<text text-anchor="start" x="1119" y="-190.4" font-family="DejaVu Sans" font-size="12.00"> </text>
<text text-anchor="start" x="1123" y="-190.4" font-family="DejaVu Sans" font-weight="bold" font-size="12.00">5.</text>
<text text-anchor="start" x="1136" y="-190.4" font-family="DejaVu Sans" font-size="12.00"> Сервіс ідентичності, доступу</text>
<text text-anchor="start" x="1133" y="-178.4" font-family="DejaVu Sans" font-size="12.00">та згод → Клінічне сховище</text>
<text text-anchor="start" x="1089.5" y="-166.4" font-family="DejaVu Sans" font-size="10.00">Фіксує версію інформування, обсяг і строк згоди</text>
<text text-anchor="start" x="1345.5" y="-166.4" font-family="DejaVu Sans" font-size="12.00"> </text>
</g>
<!-- step_04&#45;&gt;step_05 -->
<g id="edge4" class="edge">
<title>step_04&#45;&gt;step_05</title>
<path fill="none" stroke="#7b8794" stroke-width="1.2" d="M1219.5,-227.96C1219.5,-223.28 1219.5,-218.43 1219.5,-213.71"/>
<polygon fill="#7b8794" stroke="#7b8794" stroke-width="1.2" points="1221.95,-213.45 1219.5,-206.45 1217.05,-213.45 1221.95,-213.45"/>
</g>
<!-- step_06 -->
<g id="node13" class="node">
<title>step_06</title>
<path fill="#ffffff" stroke="#486581" stroke-width="1.5" d="M1330,-134C1330,-134 1109,-134 1109,-134 1103,-134 1097,-128 1097,-122 1097,-122 1097,-84 1097,-84 1097,-78 1103,-72 1109,-72 1109,-72 1330,-72 1330,-72 1336,-72 1342,-78 1342,-84 1342,-84 1342,-122 1342,-122 1342,-128 1336,-134 1330,-134"/>
<text text-anchor="start" x="1119" y="-118.4" font-family="DejaVu Sans" font-size="12.00"> </text>
<text text-anchor="start" x="1123" y="-118.4" font-family="DejaVu Sans" font-weight="bold" font-size="12.00">6.</text>
<text text-anchor="start" x="1136" y="-118.4" font-family="DejaVu Sans" font-size="12.00"> Сервіс ідентичності, доступу</text>
<text text-anchor="start" x="1135" y="-106.4" font-family="DejaVu Sans" font-size="12.00">та згод → Сервіс аудиту та</text>
<text text-anchor="start" x="1159" y="-94.4" font-family="DejaVu Sans" font-size="12.00">спостережуваності</text>
<text text-anchor="start" x="1109" y="-82.4" font-family="DejaVu Sans" font-size="10.00">Реєструє рішення доступу та знімок згод</text>
<text text-anchor="start" x="1326" y="-82.4" font-family="DejaVu Sans" font-size="12.00"> </text>
</g>
<!-- step_05&#45;&gt;step_06 -->
<g id="edge5" class="edge">
<title>step_05&#45;&gt;step_06</title>
<path fill="none" stroke="#7b8794" stroke-width="1.2" d="M1219.5,-155.95C1219.5,-151.28 1219.5,-146.28 1219.5,-141.29"/>
<polygon fill="#7b8794" stroke="#7b8794" stroke-width="1.2" points="1221.95,-141.04 1219.5,-134.04 1217.05,-141.04 1221.95,-141.04"/>
</g>
<!-- step_07 -->
<g id="node14" class="node">
<title>step_07</title>
<path fill="#ffffff" stroke="#486581" stroke-width="1.5" d="M1337,-50C1337,-50 1102,-50 1102,-50 1096,-50 1090,-44 1090,-38 1090,-38 1090,-12 1090,-12 1090,-6 1096,0 1102,0 1102,0 1337,0 1337,0 1343,0 1349,-6 1349,-12 1349,-12 1349,-38 1349,-38 1349,-44 1343,-50 1337,-50"/>
<text text-anchor="start" x="1102" y="-34.4" font-family="DejaVu Sans" font-size="12.00"> </text>
<text text-anchor="start" x="1106" y="-34.4" font-family="DejaVu Sans" font-weight="bold" font-size="12.00">7.</text>
<text text-anchor="start" x="1119" y="-34.4" font-family="DejaVu Sans" font-size="12.00"> API&#45;шлюз і BFF → Сервіс аудиту та</text>
<text text-anchor="start" x="1159" y="-22.4" font-family="DejaVu Sans" font-size="12.00">спостережуваності</text>
<text text-anchor="start" x="1111.5" y="-10.4" font-family="DejaVu Sans" font-size="10.00">Реєструє результат початкового запиту</text>
<text text-anchor="start" x="1323.5" y="-10.4" font-family="DejaVu Sans" font-size="12.00"> </text>
</g>
<!-- step_06&#45;&gt;step_07 -->
<g id="edge6" class="edge">
<title>step_06&#45;&gt;step_07</title>
<path fill="none" stroke="#7b8794" stroke-width="1.2" d="M1219.5,-71.96C1219.5,-67.28 1219.5,-62.43 1219.5,-57.71"/>
<polygon fill="#7b8794" stroke="#7b8794" stroke-width="1.2" points="1221.95,-57.45 1219.5,-50.45 1217.05,-57.45 1221.95,-57.45"/>
</g>
</g>
</svg>
