<?xml version="1.0" encoding="UTF-8" standalone="no"?>
<!DOCTYPE svg PUBLIC "-//W3C//DTD SVG 1.1//EN"
 "http://www.w3.org/Graphics/SVG/1.1/DTD/svg11.dtd">
<!-- Generated by graphviz version 2.42.4 (0)
 -->
<!-- Title: G Pages: 1 -->
<svg width="2911pt" height="876pt"
 viewBox="0.00 0.00 2910.90 876.40" xmlns="http://www.w3.org/2000/svg" xmlns:xlink="http://www.w3.org/1999/xlink">
<g id="graph0" class="graph" transform="scale(1 1) rotate(0) translate(25.2 851.2)">
<title>G</title>
<polygon fill="white" stroke="transparent" points="-25.2,25.2 -25.2,-851.2 2885.7,-851.2 2885.7,25.2 -25.2,25.2"/>
<text text-anchor="start" x="39.5" y="-811.8" font-family="DejaVu Sans" font-weight="bold" font-size="14.00">DYN.04 — Опитувальник, розгалуження та обчислення балів</text>
<text text-anchor="start" x="8" y="-800.2" font-family="DejaVu Sans" font-size="11.00">Внутрішній детермінований процес виконання опитувальника, розгалуження, оцінювання та</text>
<text text-anchor="start" x="213.5" y="-789.2" font-family="DejaVu Sans" font-size="11.00">формування результату.</text>
<!-- p_n_a2ddeaf00067 -->
<g id="node1" class="node">
<title>p_n_a2ddeaf00067</title>
<path fill="#f4f7fa" stroke="#486581" d="M112,-782C112,-782 12,-782 12,-782 6,-782 0,-776 0,-770 0,-770 0,-756 0,-756 0,-750 6,-744 12,-744 12,-744 112,-744 112,-744 118,-744 124,-750 124,-756 124,-756 124,-770 124,-770 124,-776 118,-782 112,-782"/>
<text text-anchor="start" x="12" y="-766.4" font-family="DejaVu Sans" font-weight="bold" font-size="12.00" fill="#18324a">Завантажувач</text>
<text text-anchor="start" x="22" y="-754.4" font-family="DejaVu Sans" font-weight="bold" font-size="12.00" fill="#18324a">визначення</text>
</g>
<!-- p_n_ace1c56edb4b -->
<g id="node2" class="node">
<title>p_n_ace1c56edb4b</title>
<path fill="#edf2f7" stroke="#486581" d="M281.5,-781C281.5,-781 154.5,-781 154.5,-781 148.5,-781 142.5,-775 142.5,-769 142.5,-769 142.5,-757 142.5,-757 142.5,-751 148.5,-745 154.5,-745 154.5,-745 281.5,-745 281.5,-745 287.5,-745 293.5,-751 293.5,-757 293.5,-757 293.5,-769 293.5,-769 293.5,-775 287.5,-781 281.5,-781"/>
<text text-anchor="start" x="154.5" y="-760.9" font-family="DejaVu Sans" font-weight="bold" font-size="12.00" fill="#1a202c">Реєстр алгоритмів</text>
</g>
<!-- p_n_cceecca00082 -->
<g id="node3" class="node">
<title>p_n_cceecca00082</title>
<path fill="#f4f7fa" stroke="#486581" d="M480,-781C480,-781 324,-781 324,-781 318,-781 312,-775 312,-769 312,-769 312,-757 312,-757 312,-751 318,-745 324,-745 324,-745 480,-745 480,-745 486,-745 492,-751 492,-757 492,-757 492,-769 492,-769 492,-775 486,-781 480,-781"/>
<text text-anchor="start" x="324" y="-760.9" font-family="DejaVu Sans" font-weight="bold" font-size="12.00" fill="#18324a">Валідатор визначення</text>
</g>
<!-- p_n_7d0ed53f62c1 -->
<g id="node4" class="node">
<title>p_n_7d0ed53f62c1</title>
<path fill="#f4f7fa" stroke="#486581" d="M667.5,-781C667.5,-781 522.5,-781 522.5,-781 516.5,-781 510.5,-775 510.5,-769 510.5,-769 510.5,-757 510.5,-757 510.5,-751 516.5,-745 522.5,-745 522.5,-745 667.5,-745 667.5,-745 673.5,-745 679.5,-751 679.5,-757 679.5,-757 679.5,-769 679.5,-769 679.5,-775 673.5,-781 667.5,-781"/>
<text text-anchor="start" x="522.5" y="-760.9" font-family="DejaVu Sans" font-weight="bold" font-size="12.00" fill="#18324a">Інтерпретатор станів</text>
</g>
<!-- p_n_0fca791e572f -->
<g id="node5" class="node">
<title>p_n_0fca791e572f</title>
<path fill="#f4f7fa" stroke="#486581" d="M848.5,-781C848.5,-781 709.5,-781 709.5,-781 703.5,-781 697.5,-775 697.5,-769 697.5,-769 697.5,-757 697.5,-757 697.5,-751 703.5,-745 709.5,-745 709.5,-745 848.5,-745 848.5,-745 854.5,-745 860.5,-751 860.5,-757 860.5,-757 860.5,-769 860.5,-769 860.5,-775 854.5,-781 848.5,-781"/>
<text text-anchor="start" x="709.5" y="-760.9" font-family="DejaVu Sans" font-weight="bold" font-size="12.00" fill="#18324a">Валідатор відповіді</text>
</g>
<!-- p_n_5a67c5f4b68e -->
<g id="node6" class="node">
<title>p_n_5a67c5f4b68e</title>
<path fill="#f4f7fa" stroke="#486581" d="M1039,-782C1039,-782 891,-782 891,-782 885,-782 879,-776 879,-770 879,-770 879,-756 879,-756 879,-750 885,-744 891,-744 891,-744 1039,-744 1039,-744 1045,-744 1051,-750 1051,-756 1051,-756 1051,-770 1051,-770 1051,-776 1045,-782 1039,-782"/>
<text text-anchor="start" x="891" y="-766.4" font-family="DejaVu Sans" font-weight="bold" font-size="12.00" fill="#18324a">Селектор наступного</text>
<text text-anchor="start" x="944.5" y="-754.4" font-family="DejaVu Sans" font-weight="bold" font-size="12.00" fill="#18324a">кроку</text>
</g>
<!-- p_n_ed8ce554b27d -->
<g id="node7" class="node">
<title>p_n_ed8ce554b27d</title>
<path fill="#f4f7fa" stroke="#486581" d="M1223,-781C1223,-781 1081,-781 1081,-781 1075,-781 1069,-775 1069,-769 1069,-769 1069,-757 1069,-757 1069,-751 1075,-745 1081,-745 1081,-745 1223,-745 1223,-745 1229,-745 1235,-751 1235,-757 1235,-757 1235,-769 1235,-769 1235,-775 1229,-781 1223,-781"/>
<text text-anchor="start" x="1081" y="-760.9" font-family="DejaVu Sans" font-weight="bold" font-size="12.00" fill="#18324a">Оцінювач переходів</text>
</g>
<!-- p_n_85473b992a75 -->
<g id="node8" class="node">
<title>p_n_85473b992a75</title>
<path fill="#f4f7fa" stroke="#486581" d="M1397,-781C1397,-781 1265,-781 1265,-781 1259,-781 1253,-775 1253,-769 1253,-769 1253,-757 1253,-757 1253,-751 1259,-745 1265,-745 1265,-745 1397,-745 1397,-745 1403,-745 1409,-751 1409,-757 1409,-757 1409,-769 1409,-769 1409,-775 1403,-781 1397,-781"/>
<text text-anchor="start" x="1265" y="-760.9" font-family="DejaVu Sans" font-weight="bold" font-size="12.00" fill="#18324a">Калькулятор балів</text>
</g>
<!-- p_n_26bad87451f0 -->
<g id="node9" class="node">
<title>p_n_26bad87451f0</title>
<path fill="#f4f7fa" stroke="#486581" d="M1576.5,-782C1576.5,-782 1439.5,-782 1439.5,-782 1433.5,-782 1427.5,-776 1427.5,-770 1427.5,-770 1427.5,-756 1427.5,-756 1427.5,-750 1433.5,-744 1439.5,-744 1439.5,-744 1576.5,-744 1576.5,-744 1582.5,-744 1588.5,-750 1588.5,-756 1588.5,-756 1588.5,-770 1588.5,-770 1588.5,-776 1582.5,-782 1576.5,-782"/>
<text text-anchor="start" x="1439.5" y="-766.4" font-family="DejaVu Sans" font-weight="bold" font-size="12.00" fill="#18324a">Оцінювач червоних</text>
<text text-anchor="start" x="1473" y="-754.4" font-family="DejaVu Sans" font-weight="bold" font-size="12.00" fill="#18324a">прапорців</text>
</g>
<!-- p_n_f441efa4a724 -->
<g id="node10" class="node">
<title>p_n_f441efa4a724</title>
<path fill="#f4f7fa" stroke="#486581" d="M1769.5,-781C1769.5,-781 1618.5,-781 1618.5,-781 1612.5,-781 1606.5,-775 1606.5,-769 1606.5,-769 1606.5,-757 1606.5,-757 1606.5,-751 1612.5,-745 1618.5,-745 1618.5,-745 1769.5,-745 1769.5,-745 1775.5,-745 1781.5,-751 1781.5,-757 1781.5,-757 1781.5,-769 1781.5,-769 1781.5,-775 1775.5,-781 1769.5,-781"/>
<text text-anchor="start" x="1618.5" y="-760.9" font-family="DejaVu Sans" font-weight="bold" font-size="12.00" fill="#18324a">Формувач результату</text>
</g>
<!-- p_n_8a43ae9e62b0 -->
<g id="node11" class="node">
<title>p_n_8a43ae9e62b0</title>
<path fill="#f4f7fa" stroke="#486581" d="M1962.5,-781C1962.5,-781 1811.5,-781 1811.5,-781 1805.5,-781 1799.5,-775 1799.5,-769 1799.5,-769 1799.5,-757 1799.5,-757 1799.5,-751 1805.5,-745 1811.5,-745 1811.5,-745 1962.5,-745 1962.5,-745 1968.5,-745 1974.5,-751 1974.5,-757 1974.5,-757 1974.5,-769 1974.5,-769 1974.5,-775 1968.5,-781 1962.5,-781"/>
<text text-anchor="start" x="1811.5" y="-760.9" font-family="DejaVu Sans" font-weight="bold" font-size="12.00" fill="#18324a">Фіксація походження</text>
</g>
<!-- p_n_c210e7db8afd -->
<g id="node12" class="node">
<title>p_n_c210e7db8afd</title>
<path fill="#2b6cb0" stroke="#486581" d="M2125,-782C2125,-782 2005,-782 2005,-782 1999,-782 1993,-776 1993,-770 1993,-770 1993,-756 1993,-756 1993,-750 1999,-744 2005,-744 2005,-744 2125,-744 2125,-744 2131,-744 2137,-750 2137,-756 2137,-756 2137,-770 2137,-770 2137,-776 2131,-782 2125,-782"/>
<text text-anchor="start" x="2005" y="-766.4" font-family="DejaVu Sans" font-weight="bold" font-size="12.00" fill="#ffffff">Сервіс підтримки</text>
<text text-anchor="start" x="2005.5" y="-754.4" font-family="DejaVu Sans" font-weight="bold" font-size="12.00" fill="#ffffff">клінічних рішень</text>
</g>
<!-- p_n_40b119007c9f -->
<g id="node13" class="node">
<title>p_n_40b119007c9f</title>
<path fill="#edf2f7" stroke="#486581" d="M2291,-781C2291,-781 2167,-781 2167,-781 2161,-781 2155,-775 2155,-769 2155,-769 2155,-757 2155,-757 2155,-751 2161,-745 2167,-745 2167,-745 2291,-745 2291,-745 2297,-745 2303,-751 2303,-757 2303,-757 2303,-769 2303,-769 2303,-775 2297,-781 2291,-781"/>
<text text-anchor="start" x="2167" y="-760.9" font-family="DejaVu Sans" font-weight="bold" font-size="12.00" fill="#1a202c">Клінічне сховище</text>
</g>
<!-- p_n_5f5685eeff97 -->
<g id="node14" class="node">
<title>p_n_5f5685eeff97</title>
<path fill="#4a5568" stroke="#486581" d="M2464.5,-782C2464.5,-782 2333.5,-782 2333.5,-782 2327.5,-782 2321.5,-776 2321.5,-770 2321.5,-770 2321.5,-756 2321.5,-756 2321.5,-750 2327.5,-744 2333.5,-744 2333.5,-744 2464.5,-744 2464.5,-744 2470.5,-744 2476.5,-750 2476.5,-756 2476.5,-756 2476.5,-770 2476.5,-770 2476.5,-776 2470.5,-782 2464.5,-782"/>
<text text-anchor="start" x="2341" y="-766.4" font-family="DejaVu Sans" font-weight="bold" font-size="12.00" fill="#ffffff">Сервіс аудиту та</text>
<text text-anchor="start" x="2333.5" y="-754.4" font-family="DejaVu Sans" font-weight="bold" font-size="12.00" fill="#ffffff">спостережуваності</text>
</g>
<!-- step_01 -->
<g id="node15" class="node">
<title>step_01</title>
<path fill="#ffffff" stroke="#486581" stroke-width="1.5" d="M2827,-782C2827,-782 2507,-782 2507,-782 2501,-782 2495,-776 2495,-770 2495,-770 2495,-756 2495,-756 2495,-750 2501,-744 2507,-744 2507,-744 2827,-744 2827,-744 2833,-744 2839,-750 2839,-756 2839,-756 2839,-770 2839,-770 2839,-776 2833,-782 2827,-782"/>
<text text-anchor="start" x="2507" y="-766.4" font-family="DejaVu Sans" font-size="12.00"> </text>
<text text-anchor="start" x="2511" y="-766.4" font-family="DejaVu Sans" font-weight="bold" font-size="12.00">1.</text>
<text text-anchor="start" x="2524" y="-766.4" font-family="DejaVu Sans" font-size="12.00"> Завантажувач визначення → Реєстр алгоритмів</text>
<text text-anchor="start" x="2562.5" y="-754.4" font-family="DejaVu Sans" font-size="10.00">Отримує підписану версію визначення</text>
<text text-anchor="start" x="2767.5" y="-754.4" font-family="DejaVu Sans" font-size="12.00"> </text>
</g>
<!-- step_02 -->
<g id="node16" class="node">
<title>step_02</title>
<path fill="#ffffff" stroke="#486581" stroke-width="1.5" d="M2839.5,-722C2839.5,-722 2494.5,-722 2494.5,-722 2488.5,-722 2482.5,-716 2482.5,-710 2482.5,-710 2482.5,-696 2482.5,-696 2482.5,-690 2488.5,-684 2494.5,-684 2494.5,-684 2839.5,-684 2839.5,-684 2845.5,-684 2851.5,-690 2851.5,-696 2851.5,-696 2851.5,-710 2851.5,-710 2851.5,-716 2845.5,-722 2839.5,-722"/>
<text text-anchor="start" x="2494.5" y="-706.4" font-family="DejaVu Sans" font-size="12.00"> </text>
<text text-anchor="start" x="2498.5" y="-706.4" font-family="DejaVu Sans" font-weight="bold" font-size="12.00">2.</text>
<text text-anchor="start" x="2511.5" y="-706.4" font-family="DejaVu Sans" font-size="12.00"> Завантажувач визначення → Валідатор визначення</text>
<text text-anchor="start" x="2549" y="-694.4" font-family="DejaVu Sans" font-size="10.00">Передає визначення на повторну перевірку</text>
<text text-anchor="start" x="2781" y="-694.4" font-family="DejaVu Sans" font-size="12.00"> </text>
</g>
<!-- step_01&#45;&gt;step_02 -->
<g id="edge1" class="edge">
<title>step_01&#45;&gt;step_02</title>
<path fill="none" stroke="#7b8794" stroke-width="1.2" d="M2667,-743.97C2667,-739.32 2667,-734.23 2667,-729.29"/>
<polygon fill="#7b8794" stroke="#7b8794" stroke-width="1.2" points="2669.45,-729.22 2667,-722.22 2664.55,-729.22 2669.45,-729.22"/>
</g>
<!-- step_03 -->
<g id="node17" class="node">
<title>step_03</title>
<path fill="#ffffff" stroke="#486581" stroke-width="1.5" d="M2823,-662C2823,-662 2511,-662 2511,-662 2505,-662 2499,-656 2499,-650 2499,-650 2499,-636 2499,-636 2499,-630 2505,-624 2511,-624 2511,-624 2823,-624 2823,-624 2829,-624 2835,-630 2835,-636 2835,-636 2835,-650 2835,-650 2835,-656 2829,-662 2823,-662"/>
<text text-anchor="start" x="2511" y="-646.4" font-family="DejaVu Sans" font-size="12.00"> </text>
<text text-anchor="start" x="2515" y="-646.4" font-family="DejaVu Sans" font-weight="bold" font-size="12.00">3.</text>
<text text-anchor="start" x="2528" y="-646.4" font-family="DejaVu Sans" font-size="12.00"> Валідатор визначення → Інтерпретатор станів</text>
<text text-anchor="start" x="2585" y="-634.4" font-family="DejaVu Sans" font-size="10.00">Активує валідний граф станів</text>
<text text-anchor="start" x="2745" y="-634.4" font-family="DejaVu Sans" font-size="12.00"> </text>
</g>
<!-- step_02&#45;&gt;step_03 -->
<g id="edge2" class="edge">
<title>step_02&#45;&gt;step_03</title>
<path fill="none" stroke="#7b8794" stroke-width="1.2" d="M2667,-683.97C2667,-679.32 2667,-674.23 2667,-669.29"/>
<polygon fill="#7b8794" stroke="#7b8794" stroke-width="1.2" points="2669.45,-669.22 2667,-662.22 2664.55,-669.22 2669.45,-669.22"/>
</g>
<!-- step_04 -->
<g id="node18" class="node">
<title>step_04</title>
<path fill="#ffffff" stroke="#486581" stroke-width="1.5" d="M2814,-602C2814,-602 2520,-602 2520,-602 2514,-602 2508,-596 2508,-590 2508,-590 2508,-576 2508,-576 2508,-570 2514,-564 2520,-564 2520,-564 2814,-564 2814,-564 2820,-564 2826,-570 2826,-576 2826,-576 2826,-590 2826,-590 2826,-596 2820,-602 2814,-602"/>
<text text-anchor="start" x="2520" y="-586.4" font-family="DejaVu Sans" font-size="12.00"> </text>
<text text-anchor="start" x="2524" y="-586.4" font-family="DejaVu Sans" font-weight="bold" font-size="12.00">4.</text>
<text text-anchor="start" x="2537" y="-586.4" font-family="DejaVu Sans" font-size="12.00"> Валідатор відповіді → Інтерпретатор станів</text>
<text text-anchor="start" x="2585.5" y="-574.4" font-family="DejaVu Sans" font-size="10.00">Передає типізовану відповідь</text>
<text text-anchor="start" x="2744.5" y="-574.4" font-family="DejaVu Sans" font-size="12.00"> </text>
</g>
<!-- step_03&#45;&gt;step_04 -->
<g id="edge3" class="edge">
<title>step_03&#45;&gt;step_04</title>
<path fill="none" stroke="#7b8794" stroke-width="1.2" d="M2667,-623.97C2667,-619.32 2667,-614.23 2667,-609.29"/>
<polygon fill="#7b8794" stroke="#7b8794" stroke-width="1.2" points="2669.45,-609.22 2667,-602.22 2664.55,-609.22 2669.45,-609.22"/>
</g>
<!-- step_05 -->
<g id="node19" class="node">
<title>step_05</title>
<path fill="#ffffff" stroke="#486581" stroke-width="1.5" d="M2841,-542C2841,-542 2493,-542 2493,-542 2487,-542 2481,-536 2481,-530 2481,-530 2481,-516 2481,-516 2481,-510 2487,-504 2493,-504 2493,-504 2841,-504 2841,-504 2847,-504 2853,-510 2853,-516 2853,-516 2853,-530 2853,-530 2853,-536 2847,-542 2841,-542"/>
<text text-anchor="start" x="2493" y="-526.4" font-family="DejaVu Sans" font-size="12.00"> </text>
<text text-anchor="start" x="2497" y="-526.4" font-family="DejaVu Sans" font-weight="bold" font-size="12.00">5.</text>
<text text-anchor="start" x="2510" y="-526.4" font-family="DejaVu Sans" font-size="12.00"> Інтерпретатор станів → Селектор наступного кроку</text>
<text text-anchor="start" x="2565.5" y="-514.4" font-family="DejaVu Sans" font-size="10.00">Запитує наступний допустимий крок</text>
<text text-anchor="start" x="2764.5" y="-514.4" font-family="DejaVu Sans" font-size="12.00"> </text>
</g>
<!-- step_04&#45;&gt;step_05 -->
<g id="edge4" class="edge">
<title>step_04&#45;&gt;step_05</title>
<path fill="none" stroke="#7b8794" stroke-width="1.2" d="M2667,-563.97C2667,-559.32 2667,-554.23 2667,-549.29"/>
<polygon fill="#7b8794" stroke="#7b8794" stroke-width="1.2" points="2669.45,-549.22 2667,-542.22 2664.55,-549.22 2669.45,-549.22"/>
</g>
<!-- step_06 -->
<g id="node20" class="node">
<title>step_06</title>
<path fill="#ffffff" stroke="#486581" stroke-width="1.5" d="M2836.5,-482C2836.5,-482 2497.5,-482 2497.5,-482 2491.5,-482 2485.5,-476 2485.5,-470 2485.5,-470 2485.5,-456 2485.5,-456 2485.5,-450 2491.5,-444 2497.5,-444 2497.5,-444 2836.5,-444 2836.5,-444 2842.5,-444 2848.5,-450 2848.5,-456 2848.5,-456 2848.5,-470 2848.5,-470 2848.5,-476 2842.5,-482 2836.5,-482"/>
<text text-anchor="start" x="2497.5" y="-466.4" font-family="DejaVu Sans" font-size="12.00"> </text>
<text text-anchor="start" x="2501.5" y="-466.4" font-family="DejaVu Sans" font-weight="bold" font-size="12.00">6.</text>
<text text-anchor="start" x="2514.5" y="-466.4" font-family="DejaVu Sans" font-size="12.00"> Селектор наступного кроку → Оцінювач переходів</text>
<text text-anchor="start" x="2595" y="-454.4" font-family="DejaVu Sans" font-size="10.00">Перевіряє умови переходу</text>
<text text-anchor="start" x="2735" y="-454.4" font-family="DejaVu Sans" font-size="12.00"> </text>
</g>
<!-- step_05&#45;&gt;step_06 -->
<g id="edge5" class="edge">
<title>step_05&#45;&gt;step_06</title>
<path fill="none" stroke="#7b8794" stroke-width="1.2" d="M2667,-503.97C2667,-499.32 2667,-494.23 2667,-489.29"/>
<polygon fill="#7b8794" stroke="#7b8794" stroke-width="1.2" points="2669.45,-489.22 2667,-482.22 2664.55,-489.22 2669.45,-489.22"/>
</g>
<!-- step_07 -->
<g id="node21" class="node">
<title>step_07</title>
<path fill="#ffffff" stroke="#486581" stroke-width="1.5" d="M2807.5,-422C2807.5,-422 2526.5,-422 2526.5,-422 2520.5,-422 2514.5,-416 2514.5,-410 2514.5,-410 2514.5,-396 2514.5,-396 2514.5,-390 2520.5,-384 2526.5,-384 2526.5,-384 2807.5,-384 2807.5,-384 2813.5,-384 2819.5,-390 2819.5,-396 2819.5,-396 2819.5,-410 2819.5,-410 2819.5,-416 2813.5,-422 2807.5,-422"/>
<text text-anchor="start" x="2526.5" y="-406.4" font-family="DejaVu Sans" font-size="12.00"> </text>
<text text-anchor="start" x="2530.5" y="-406.4" font-family="DejaVu Sans" font-weight="bold" font-size="12.00">7.</text>
<text text-anchor="start" x="2543.5" y="-406.4" font-family="DejaVu Sans" font-size="12.00"> Оцінювач переходів → Калькулятор балів</text>
<text text-anchor="start" x="2586.5" y="-394.4" font-family="DejaVu Sans" font-size="10.00">Передає релевантні відповіді</text>
<text text-anchor="start" x="2743.5" y="-394.4" font-family="DejaVu Sans" font-size="12.00"> </text>
</g>
<!-- step_06&#45;&gt;step_07 -->
<g id="edge6" class="edge">
<title>step_06&#45;&gt;step_07</title>
<path fill="none" stroke="#7b8794" stroke-width="1.2" d="M2667,-443.97C2667,-439.32 2667,-434.23 2667,-429.29"/>
<polygon fill="#7b8794" stroke="#7b8794" stroke-width="1.2" points="2669.45,-429.22 2667,-422.22 2664.55,-429.22 2669.45,-429.22"/>
</g>
<!-- step_08 -->
<g id="node22" class="node">
<title>step_08</title>
<path fill="#ffffff" stroke="#486581" stroke-width="1.5" d="M2838.5,-362C2838.5,-362 2495.5,-362 2495.5,-362 2489.5,-362 2483.5,-356 2483.5,-350 2483.5,-350 2483.5,-336 2483.5,-336 2483.5,-330 2489.5,-324 2495.5,-324 2495.5,-324 2838.5,-324 2838.5,-324 2844.5,-324 2850.5,-330 2850.5,-336 2850.5,-336 2850.5,-350 2850.5,-350 2850.5,-356 2844.5,-362 2838.5,-362"/>
<text text-anchor="start" x="2495.5" y="-346.4" font-family="DejaVu Sans" font-size="12.00"> </text>
<text text-anchor="start" x="2499.5" y="-346.4" font-family="DejaVu Sans" font-weight="bold" font-size="12.00">8.</text>
<text text-anchor="start" x="2512.5" y="-346.4" font-family="DejaVu Sans" font-size="12.00"> Калькулятор балів → Оцінювач червоних прапорців</text>
<text text-anchor="start" x="2549" y="-334.4" font-family="DejaVu Sans" font-size="10.00">Обчислює бали та передає критичні ознаки</text>
<text text-anchor="start" x="2781" y="-334.4" font-family="DejaVu Sans" font-size="12.00"> </text>
</g>
<!-- step_07&#45;&gt;step_08 -->
<g id="edge7" class="edge">
<title>step_07&#45;&gt;step_08</title>
<path fill="none" stroke="#7b8794" stroke-width="1.2" d="M2667,-383.97C2667,-379.32 2667,-374.23 2667,-369.29"/>
<polygon fill="#7b8794" stroke="#7b8794" stroke-width="1.2" points="2669.45,-369.22 2667,-362.22 2664.55,-369.22 2669.45,-369.22"/>
</g>
<!-- step_09 -->
<g id="node23" class="node">
<title>step_09</title>
<path fill="#ffffff" stroke="#486581" stroke-width="1.5" d="M2848.5,-302C2848.5,-302 2485.5,-302 2485.5,-302 2479.5,-302 2473.5,-296 2473.5,-290 2473.5,-290 2473.5,-276 2473.5,-276 2473.5,-270 2479.5,-264 2485.5,-264 2485.5,-264 2848.5,-264 2848.5,-264 2854.5,-264 2860.5,-270 2860.5,-276 2860.5,-276 2860.5,-290 2860.5,-290 2860.5,-296 2854.5,-302 2848.5,-302"/>
<text text-anchor="start" x="2485.5" y="-286.4" font-family="DejaVu Sans" font-size="12.00"> </text>
<text text-anchor="start" x="2489.5" y="-286.4" font-family="DejaVu Sans" font-weight="bold" font-size="12.00">9.</text>
<text text-anchor="start" x="2502.5" y="-286.4" font-family="DejaVu Sans" font-size="12.00"> Оцінювач червоних прапорців → Формувач результату</text>
<text text-anchor="start" x="2591" y="-274.4" font-family="DejaVu Sans" font-size="10.00">Додає прапорці й пріоритет</text>
<text text-anchor="start" x="2739" y="-274.4" font-family="DejaVu Sans" font-size="12.00"> </text>
</g>
<!-- step_08&#45;&gt;step_09 -->
<g id="edge8" class="edge">
<title>step_08&#45;&gt;step_09</title>
<path fill="none" stroke="#7b8794" stroke-width="1.2" d="M2667,-323.97C2667,-319.32 2667,-314.23 2667,-309.29"/>
<polygon fill="#7b8794" stroke="#7b8794" stroke-width="1.2" points="2669.45,-309.22 2667,-302.22 2664.55,-309.22 2669.45,-309.22"/>
</g>
<!-- step_10 -->
<g id="node24" class="node">
<title>step_10</title>
<path fill="#ffffff" stroke="#486581" stroke-width="1.5" d="M2827,-242C2827,-242 2507,-242 2507,-242 2501,-242 2495,-236 2495,-230 2495,-230 2495,-216 2495,-216 2495,-210 2501,-204 2507,-204 2507,-204 2827,-204 2827,-204 2833,-204 2839,-210 2839,-216 2839,-216 2839,-230 2839,-230 2839,-236 2833,-242 2827,-242"/>
<text text-anchor="start" x="2507" y="-226.4" font-family="DejaVu Sans" font-size="12.00"> </text>
<text text-anchor="start" x="2511" y="-226.4" font-family="DejaVu Sans" font-weight="bold" font-size="12.00">10.</text>
<text text-anchor="start" x="2533" y="-226.4" font-family="DejaVu Sans" font-size="12.00"> Формувач результату → Фіксація походження</text>
<text text-anchor="start" x="2572.5" y="-214.4" font-family="DejaVu Sans" font-size="10.00">Формує структурований результат</text>
<text text-anchor="start" x="2757.5" y="-214.4" font-family="DejaVu Sans" font-size="12.00"> </text>
</g>
<!-- step_09&#45;&gt;step_10 -->
<g id="edge9" class="edge">
<title>step_09&#45;&gt;step_10</title>
<path fill="none" stroke="#7b8794" stroke-width="1.2" d="M2667,-263.97C2667,-259.32 2667,-254.23 2667,-249.29"/>
<polygon fill="#7b8794" stroke="#7b8794" stroke-width="1.2" points="2669.45,-249.22 2667,-242.22 2664.55,-249.22 2669.45,-249.22"/>
</g>
<!-- step_11 -->
<g id="node25" class="node">
<title>step_11</title>
<path fill="#ffffff" stroke="#486581" stroke-width="1.5" d="M2843.5,-182C2843.5,-182 2490.5,-182 2490.5,-182 2484.5,-182 2478.5,-176 2478.5,-170 2478.5,-170 2478.5,-144 2478.5,-144 2478.5,-138 2484.5,-132 2490.5,-132 2490.5,-132 2843.5,-132 2843.5,-132 2849.5,-132 2855.5,-138 2855.5,-144 2855.5,-144 2855.5,-170 2855.5,-170 2855.5,-176 2849.5,-182 2843.5,-182"/>
<text text-anchor="start" x="2490.5" y="-166.4" font-family="DejaVu Sans" font-size="12.00"> </text>
<text text-anchor="start" x="2494.5" y="-166.4" font-family="DejaVu Sans" font-weight="bold" font-size="12.00">11.</text>
<text text-anchor="start" x="2516.5" y="-166.4" font-family="DejaVu Sans" font-size="12.00"> Формувач результату → Сервіс підтримки клінічних</text>
<text text-anchor="start" x="2645" y="-154.4" font-family="DejaVu Sans" font-size="12.00">рішень</text>
<text text-anchor="start" x="2530.5" y="-142.4" font-family="DejaVu Sans" font-size="10.00">Передає результат до підтримки клінічних рішень</text>
<text text-anchor="start" x="2799.5" y="-142.4" font-family="DejaVu Sans" font-size="12.00"> </text>
</g>
<!-- step_10&#45;&gt;step_11 -->
<g id="edge10" class="edge">
<title>step_10&#45;&gt;step_11</title>
<path fill="none" stroke="#7b8794" stroke-width="1.2" d="M2667,-203.83C2667,-199.36 2667,-194.45 2667,-189.55"/>
<polygon fill="#7b8794" stroke="#7b8794" stroke-width="1.2" points="2669.45,-189.43 2667,-182.43 2664.55,-189.43 2669.45,-189.43"/>
</g>
<!-- step_12 -->
<g id="node26" class="node">
<title>step_12</title>
<path fill="#ffffff" stroke="#486581" stroke-width="1.5" d="M2813,-110C2813,-110 2521,-110 2521,-110 2515,-110 2509,-104 2509,-98 2509,-98 2509,-84 2509,-84 2509,-78 2515,-72 2521,-72 2521,-72 2813,-72 2813,-72 2819,-72 2825,-78 2825,-84 2825,-84 2825,-98 2825,-98 2825,-104 2819,-110 2813,-110"/>
<text text-anchor="start" x="2521" y="-94.4" font-family="DejaVu Sans" font-size="12.00"> </text>
<text text-anchor="start" x="2525" y="-94.4" font-family="DejaVu Sans" font-weight="bold" font-size="12.00">12.</text>
<text text-anchor="start" x="2547" y="-94.4" font-family="DejaVu Sans" font-size="12.00"> Фіксація походження → Клінічне сховище</text>
<text text-anchor="start" x="2538.5" y="-82.4" font-family="DejaVu Sans" font-size="10.00">Зберігає результат і відтворюване походження</text>
<text text-anchor="start" x="2791.5" y="-82.4" font-family="DejaVu Sans" font-size="12.00"> </text>
</g>
<!-- step_11&#45;&gt;step_12 -->
<g id="edge11" class="edge">
<title>step_11&#45;&gt;step_12</title>
<path fill="none" stroke="#7b8794" stroke-width="1.2" d="M2667,-131.8C2667,-127.07 2667,-122.08 2667,-117.31"/>
<polygon fill="#7b8794" stroke="#7b8794" stroke-width="1.2" points="2669.45,-117.04 2667,-110.04 2664.55,-117.04 2669.45,-117.04"/>
</g>
<!-- step_13 -->
<g id="node27" class="node">
<title>step_13</title>
<path fill="#ffffff" stroke="#486581" stroke-width="1.5" d="M2811,-50C2811,-50 2523,-50 2523,-50 2517,-50 2511,-44 2511,-38 2511,-38 2511,-12 2511,-12 2511,-6 2517,0 2523,0 2523,0 2811,0 2811,0 2817,0 2823,-6 2823,-12 2823,-12 2823,-38 2823,-38 2823,-44 2817,-50 2811,-50"/>
<text text-anchor="start" x="2523" y="-34.4" font-family="DejaVu Sans" font-size="12.00"> </text>
<text text-anchor="start" x="2527" y="-34.4" font-family="DejaVu Sans" font-weight="bold" font-size="12.00">13.</text>
<text text-anchor="start" x="2549" y="-34.4" font-family="DejaVu Sans" font-size="12.00"> Фіксація походження → Сервіс аудиту та</text>
<text text-anchor="start" x="2606.5" y="-22.4" font-family="DejaVu Sans" font-size="12.00">спостережуваності</text>
<text text-anchor="start" x="2595.5" y="-10.4" font-family="DejaVu Sans" font-size="10.00">Реєструє доказ виконання</text>
<text text-anchor="start" x="2734.5" y="-10.4" font-family="DejaVu Sans" font-size="12.00"> </text>
</g>
<!-- step_12&#45;&gt;step_13 -->
<g id="edge12" class="edge">
<title>step_12&#45;&gt;step_13</title>
<path fill="none" stroke="#7b8794" stroke-width="1.2" d="M2667,-71.83C2667,-67.36 2667,-62.45 2667,-57.55"/>
<polygon fill="#7b8794" stroke="#7b8794" stroke-width="1.2" points="2669.45,-57.43 2667,-50.43 2664.55,-57.43 2669.45,-57.43"/>
</g>
</g>
</svg>
