<?xml version="1.0" encoding="UTF-8" standalone="no"?>
<!DOCTYPE svg PUBLIC "-//W3C//DTD SVG 1.1//EN"
 "http://www.w3.org/Graphics/SVG/1.1/DTD/svg11.dtd">
<!-- Generated by graphviz version 2.42.4 (0)
 -->
<!-- Title: G Pages: 1 -->
<svg width="2382pt" height="768pt"
 viewBox="0.00 0.00 2381.90 768.40" xmlns="http://www.w3.org/2000/svg" xmlns:xlink="http://www.w3.org/1999/xlink">
<g id="graph0" class="graph" transform="scale(1 1) rotate(0) translate(25.2 743.2)">
<title>G</title>
<polygon fill="white" stroke="transparent" points="-25.2,25.2 -25.2,-743.2 2356.7,-743.2 2356.7,25.2 -25.2,25.2"/>
<text text-anchor="start" x="17" y="-703.8" font-family="DejaVu Sans" font-weight="bold" font-size="14.00">DYN.11 — Формалізація, тестування та публікація алгоритму</text>
<text text-anchor="start" x="8" y="-692.2" font-family="DejaVu Sans" font-size="11.00">Перетворення вихідного документа на перевірену, погоджену та опубліковану версію</text>
<text text-anchor="start" x="232.5" y="-681.2" font-family="DejaVu Sans" font-size="11.00">алгоритму.</text>
<!-- p_n_9c1b2838ecd8 -->
<g id="node1" class="node">
<title>p_n_9c1b2838ecd8</title>
<path fill="#8a5a00" stroke="#486581" d="M159,-673C159,-673 12,-673 12,-673 6,-673 0,-667 0,-661 0,-661 0,-649 0,-649 0,-643 6,-637 12,-637 12,-637 159,-637 159,-637 165,-637 171,-643 171,-649 171,-649 171,-661 171,-661 171,-667 165,-673 159,-673"/>
<text text-anchor="start" x="12" y="-652.9" font-family="DejaVu Sans" font-weight="bold" font-size="12.00" fill="#ffffff">Клінічний методолог</text>
</g>
<!-- p_n_b4d64920ec8b -->
<g id="node2" class="node">
<title>p_n_b4d64920ec8b</title>
<path fill="#f4f7fa" stroke="#486581" d="M329.5,-674C329.5,-674 201.5,-674 201.5,-674 195.5,-674 189.5,-668 189.5,-662 189.5,-662 189.5,-648 189.5,-648 189.5,-642 195.5,-636 201.5,-636 201.5,-636 329.5,-636 329.5,-636 335.5,-636 341.5,-642 341.5,-648 341.5,-648 341.5,-662 341.5,-662 341.5,-668 335.5,-674 329.5,-674"/>
<text text-anchor="start" x="201.5" y="-658.4" font-family="DejaVu Sans" font-weight="bold" font-size="12.00" fill="#18324a">Імпортер вихідних</text>
<text text-anchor="start" x="228.5" y="-646.4" font-family="DejaVu Sans" font-weight="bold" font-size="12.00" fill="#18324a">матеріалів</text>
</g>
<!-- p_n_b30059fba026 -->
<g id="node3" class="node">
<title>p_n_b30059fba026</title>
<path fill="#e9eef4" stroke="#486581" d="M521.5,-674C521.5,-674 371.5,-674 371.5,-674 365.5,-674 359.5,-668 359.5,-662 359.5,-662 359.5,-648 359.5,-648 359.5,-642 365.5,-636 371.5,-636 371.5,-636 521.5,-636 521.5,-636 527.5,-636 533.5,-642 533.5,-648 533.5,-648 533.5,-662 533.5,-662 533.5,-668 527.5,-674 521.5,-674"/>
<text text-anchor="start" x="371.5" y="-658.4" font-family="DejaVu Sans" font-weight="bold" font-size="12.00" fill="#263238">Репозиторій вихідних</text>
<text text-anchor="start" x="408.5" y="-646.4" font-family="DejaVu Sans" font-weight="bold" font-size="12.00" fill="#263238">алгоритмів</text>
</g>
<!-- p_n_d1cce12dd4aa -->
<g id="node4" class="node">
<title>p_n_d1cce12dd4aa</title>
<path fill="#f4f7fa" stroke="#486581" d="M715,-674C715,-674 564,-674 564,-674 558,-674 552,-668 552,-662 552,-662 552,-648 552,-648 552,-642 558,-636 564,-636 564,-636 715,-636 715,-636 721,-636 727,-642 727,-648 727,-648 727,-662 727,-662 727,-668 721,-674 715,-674"/>
<text text-anchor="start" x="564" y="-658.4" font-family="DejaVu Sans" font-weight="bold" font-size="12.00" fill="#18324a">Редактор визначення</text>
<text text-anchor="start" x="603" y="-646.4" font-family="DejaVu Sans" font-weight="bold" font-size="12.00" fill="#18324a">алгоритму</text>
</g>
<!-- p_n_7c012fa0049e -->
<g id="node5" class="node">
<title>p_n_7c012fa0049e</title>
<path fill="#f4f7fa" stroke="#486581" d="M905.5,-674C905.5,-674 757.5,-674 757.5,-674 751.5,-674 745.5,-668 745.5,-662 745.5,-662 745.5,-648 745.5,-648 745.5,-642 751.5,-636 757.5,-636 757.5,-636 905.5,-636 905.5,-636 911.5,-636 917.5,-642 917.5,-648 917.5,-648 917.5,-662 917.5,-662 917.5,-668 911.5,-674 905.5,-674"/>
<text text-anchor="start" x="757.5" y="-658.4" font-family="DejaVu Sans" font-weight="bold" font-size="12.00" fill="#18324a">Клінічний і технічний</text>
<text text-anchor="start" x="796.5" y="-646.4" font-family="DejaVu Sans" font-weight="bold" font-size="12.00" fill="#18324a">валідатор</text>
</g>
<!-- p_n_d1038ddad4bb -->
<g id="node6" class="node">
<title>p_n_d1038ddad4bb</title>
<path fill="#f4f7fa" stroke="#486581" d="M1083.5,-674C1083.5,-674 947.5,-674 947.5,-674 941.5,-674 935.5,-668 935.5,-662 935.5,-662 935.5,-648 935.5,-648 935.5,-642 941.5,-636 947.5,-636 947.5,-636 1083.5,-636 1083.5,-636 1089.5,-636 1095.5,-642 1095.5,-648 1095.5,-648 1095.5,-662 1095.5,-662 1095.5,-668 1089.5,-674 1083.5,-674"/>
<text text-anchor="start" x="947.5" y="-658.4" font-family="DejaVu Sans" font-weight="bold" font-size="12.00" fill="#18324a">Симулятор і тестові</text>
<text text-anchor="start" x="990.5" y="-646.4" font-family="DejaVu Sans" font-weight="bold" font-size="12.00" fill="#18324a">набори</text>
</g>
<!-- p_n_82e79b78f358 -->
<g id="node7" class="node">
<title>p_n_82e79b78f358</title>
<path fill="#f4f7fa" stroke="#486581" d="M1267,-674C1267,-674 1126,-674 1126,-674 1120,-674 1114,-668 1114,-662 1114,-662 1114,-648 1114,-648 1114,-642 1120,-636 1126,-636 1126,-636 1267,-636 1267,-636 1273,-636 1279,-642 1279,-648 1279,-648 1279,-662 1279,-662 1279,-668 1273,-674 1267,-674"/>
<text text-anchor="start" x="1126" y="-658.4" font-family="DejaVu Sans" font-weight="bold" font-size="12.00" fill="#18324a">Маршрут клінічного</text>
<text text-anchor="start" x="1154" y="-646.4" font-family="DejaVu Sans" font-weight="bold" font-size="12.00" fill="#18324a">погодження</text>
</g>
<!-- p_n_2e07cf3754b4 -->
<g id="node8" class="node">
<title>p_n_2e07cf3754b4</title>
<path fill="#f4f7fa" stroke="#486581" d="M1448,-673C1448,-673 1309,-673 1309,-673 1303,-673 1297,-667 1297,-661 1297,-661 1297,-649 1297,-649 1297,-643 1303,-637 1309,-637 1309,-637 1448,-637 1448,-637 1454,-637 1460,-643 1460,-649 1460,-649 1460,-661 1460,-661 1460,-667 1454,-673 1448,-673"/>
<text text-anchor="start" x="1309" y="-652.9" font-family="DejaVu Sans" font-weight="bold" font-size="12.00" fill="#18324a">Керування версіями</text>
</g>
<!-- p_n_22a2655265f6 -->
<g id="node9" class="node">
<title>p_n_22a2655265f6</title>
<path fill="#f4f7fa" stroke="#486581" d="M1578.5,-674C1578.5,-674 1490.5,-674 1490.5,-674 1484.5,-674 1478.5,-668 1478.5,-662 1478.5,-662 1478.5,-648 1478.5,-648 1478.5,-642 1484.5,-636 1490.5,-636 1490.5,-636 1578.5,-636 1578.5,-636 1584.5,-636 1590.5,-642 1590.5,-648 1590.5,-648 1590.5,-662 1590.5,-662 1590.5,-668 1584.5,-674 1578.5,-674"/>
<text text-anchor="start" x="1491" y="-658.4" font-family="DejaVu Sans" font-weight="bold" font-size="12.00" fill="#18324a">Публікатор і</text>
<text text-anchor="start" x="1490.5" y="-646.4" font-family="DejaVu Sans" font-weight="bold" font-size="12.00" fill="#18324a">відкликання</text>
</g>
<!-- p_n_ace1c56edb4b -->
<g id="node10" class="node">
<title>p_n_ace1c56edb4b</title>
<path fill="#edf2f7" stroke="#486581" d="M1748,-673C1748,-673 1621,-673 1621,-673 1615,-673 1609,-667 1609,-661 1609,-661 1609,-649 1609,-649 1609,-643 1615,-637 1621,-637 1621,-637 1748,-637 1748,-637 1754,-637 1760,-643 1760,-649 1760,-649 1760,-661 1760,-661 1760,-667 1754,-673 1748,-673"/>
<text text-anchor="start" x="1621" y="-652.9" font-family="DejaVu Sans" font-weight="bold" font-size="12.00" fill="#1a202c">Реєстр алгоритмів</text>
</g>
<!-- p_n_5f5685eeff97 -->
<g id="node11" class="node">
<title>p_n_5f5685eeff97</title>
<path fill="#4a5568" stroke="#486581" d="M1921,-674C1921,-674 1790,-674 1790,-674 1784,-674 1778,-668 1778,-662 1778,-662 1778,-648 1778,-648 1778,-642 1784,-636 1790,-636 1790,-636 1921,-636 1921,-636 1927,-636 1933,-642 1933,-648 1933,-648 1933,-662 1933,-662 1933,-668 1927,-674 1921,-674"/>
<text text-anchor="start" x="1797.5" y="-658.4" font-family="DejaVu Sans" font-weight="bold" font-size="12.00" fill="#ffffff">Сервіс аудиту та</text>
<text text-anchor="start" x="1790" y="-646.4" font-family="DejaVu Sans" font-weight="bold" font-size="12.00" fill="#ffffff">спостережуваності</text>
</g>
<!-- step_01 -->
<g id="node12" class="node">
<title>step_01</title>
<path fill="#ffffff" stroke="#486581" stroke-width="1.5" d="M2316,-674C2316,-674 1963,-674 1963,-674 1957,-674 1951,-668 1951,-662 1951,-662 1951,-648 1951,-648 1951,-642 1957,-636 1963,-636 1963,-636 2316,-636 2316,-636 2322,-636 2328,-642 2328,-648 2328,-648 2328,-662 2328,-662 2328,-668 2322,-674 2316,-674"/>
<text text-anchor="start" x="1963" y="-658.4" font-family="DejaVu Sans" font-size="12.00"> </text>
<text text-anchor="start" x="1967" y="-658.4" font-family="DejaVu Sans" font-weight="bold" font-size="12.00">1.</text>
<text text-anchor="start" x="1980" y="-658.4" font-family="DejaVu Sans" font-size="12.00"> Клінічний методолог → Імпортер вихідних матеріалів</text>
<text text-anchor="start" x="2004.5" y="-646.4" font-family="DejaVu Sans" font-size="10.00">Ініціює імпорт документа або створення чернетки</text>
<text text-anchor="start" x="2270.5" y="-646.4" font-family="DejaVu Sans" font-size="12.00"> </text>
</g>
<!-- step_02 -->
<g id="node13" class="node">
<title>step_02</title>
<path fill="#ffffff" stroke="#486581" stroke-width="1.5" d="M2318,-614C2318,-614 1961,-614 1961,-614 1955,-614 1949,-608 1949,-602 1949,-602 1949,-576 1949,-576 1949,-570 1955,-564 1961,-564 1961,-564 2318,-564 2318,-564 2324,-564 2330,-570 2330,-576 2330,-576 2330,-602 2330,-602 2330,-608 2324,-614 2318,-614"/>
<text text-anchor="start" x="1961" y="-598.4" font-family="DejaVu Sans" font-size="12.00"> </text>
<text text-anchor="start" x="1965" y="-598.4" font-family="DejaVu Sans" font-weight="bold" font-size="12.00">2.</text>
<text text-anchor="start" x="1978" y="-598.4" font-family="DejaVu Sans" font-size="12.00"> Імпортер вихідних матеріалів → Репозиторій вихідних</text>
<text text-anchor="start" x="2104.5" y="-586.4" font-family="DejaVu Sans" font-size="12.00">алгоритмів</text>
<text text-anchor="start" x="2033.5" y="-574.4" font-family="DejaVu Sans" font-size="10.00">Отримує вихідний документ і метадані</text>
<text text-anchor="start" x="2241.5" y="-574.4" font-family="DejaVu Sans" font-size="12.00"> </text>
</g>
<!-- step_01&#45;&gt;step_02 -->
<g id="edge1" class="edge">
<title>step_01&#45;&gt;step_02</title>
<path fill="none" stroke="#7b8794" stroke-width="1.2" d="M2139.5,-635.83C2139.5,-631.36 2139.5,-626.45 2139.5,-621.55"/>
<polygon fill="#7b8794" stroke="#7b8794" stroke-width="1.2" points="2141.95,-621.43 2139.5,-614.43 2137.05,-621.43 2141.95,-621.43"/>
</g>
<!-- step_03 -->
<g id="node14" class="node">
<title>step_03</title>
<path fill="#ffffff" stroke="#486581" stroke-width="1.5" d="M2319.5,-542C2319.5,-542 1959.5,-542 1959.5,-542 1953.5,-542 1947.5,-536 1947.5,-530 1947.5,-530 1947.5,-504 1947.5,-504 1947.5,-498 1953.5,-492 1959.5,-492 1959.5,-492 2319.5,-492 2319.5,-492 2325.5,-492 2331.5,-498 2331.5,-504 2331.5,-504 2331.5,-530 2331.5,-530 2331.5,-536 2325.5,-542 2319.5,-542"/>
<text text-anchor="start" x="1959.5" y="-526.4" font-family="DejaVu Sans" font-size="12.00"> </text>
<text text-anchor="start" x="1963.5" y="-526.4" font-family="DejaVu Sans" font-weight="bold" font-size="12.00">3.</text>
<text text-anchor="start" x="1976.5" y="-526.4" font-family="DejaVu Sans" font-size="12.00"> Імпортер вихідних матеріалів → Редактор визначення</text>
<text text-anchor="start" x="2106" y="-514.4" font-family="DejaVu Sans" font-size="12.00">алгоритму</text>
<text text-anchor="start" x="2048.5" y="-502.4" font-family="DejaVu Sans" font-size="10.00">Створює структуровану чернетку</text>
<text text-anchor="start" x="2226.5" y="-502.4" font-family="DejaVu Sans" font-size="12.00"> </text>
</g>
<!-- step_02&#45;&gt;step_03 -->
<g id="edge2" class="edge">
<title>step_02&#45;&gt;step_03</title>
<path fill="none" stroke="#7b8794" stroke-width="1.2" d="M2139.5,-563.91C2139.5,-559.23 2139.5,-554.27 2139.5,-549.4"/>
<polygon fill="#7b8794" stroke="#7b8794" stroke-width="1.2" points="2141.95,-549.37 2139.5,-542.37 2137.05,-549.37 2141.95,-549.37"/>
</g>
<!-- step_04 -->
<g id="node15" class="node">
<title>step_04</title>
<path fill="#ffffff" stroke="#486581" stroke-width="1.5" d="M2274,-470C2274,-470 2005,-470 2005,-470 1999,-470 1993,-464 1993,-458 1993,-458 1993,-420 1993,-420 1993,-414 1999,-408 2005,-408 2005,-408 2274,-408 2274,-408 2280,-408 2286,-414 2286,-420 2286,-420 2286,-458 2286,-458 2286,-464 2280,-470 2274,-470"/>
<text text-anchor="start" x="2060.5" y="-454.4" font-family="DejaVu Sans" font-size="12.00"> </text>
<text text-anchor="start" x="2064.5" y="-454.4" font-family="DejaVu Sans" font-weight="bold" font-size="12.00">4.</text>
<text text-anchor="start" x="2077.5" y="-454.4" font-family="DejaVu Sans" font-size="12.00"> Редактор визначення</text>
<text text-anchor="start" x="2032.5" y="-442.4" font-family="DejaVu Sans" font-size="12.00">алгоритму → Клінічний і технічний</text>
<text text-anchor="start" x="2108" y="-430.4" font-family="DejaVu Sans" font-size="12.00">валідатор</text>
<text text-anchor="start" x="2005" y="-418.4" font-family="DejaVu Sans" font-size="10.00">Передає правила, кроки та метадані на перевірку</text>
<text text-anchor="start" x="2270" y="-418.4" font-family="DejaVu Sans" font-size="12.00"> </text>
</g>
<!-- step_03&#45;&gt;step_04 -->
<g id="edge3" class="edge">
<title>step_03&#45;&gt;step_04</title>
<path fill="none" stroke="#7b8794" stroke-width="1.2" d="M2139.5,-491.95C2139.5,-487.28 2139.5,-482.28 2139.5,-477.29"/>
<polygon fill="#7b8794" stroke="#7b8794" stroke-width="1.2" points="2141.95,-477.04 2139.5,-470.04 2137.05,-477.04 2141.95,-477.04"/>
</g>
<!-- step_05 -->
<g id="node16" class="node">
<title>step_05</title>
<path fill="#ffffff" stroke="#486581" stroke-width="1.5" d="M2266,-386C2266,-386 2013,-386 2013,-386 2007,-386 2001,-380 2001,-374 2001,-374 2001,-348 2001,-348 2001,-342 2007,-336 2013,-336 2013,-336 2266,-336 2266,-336 2272,-336 2278,-342 2278,-348 2278,-348 2278,-374 2278,-374 2278,-380 2272,-386 2266,-386"/>
<text text-anchor="start" x="2064" y="-370.4" font-family="DejaVu Sans" font-size="12.00"> </text>
<text text-anchor="start" x="2068" y="-370.4" font-family="DejaVu Sans" font-weight="bold" font-size="12.00">5.</text>
<text text-anchor="start" x="2081" y="-370.4" font-family="DejaVu Sans" font-size="12.00"> Клінічний і технічний</text>
<text text-anchor="start" x="2013" y="-358.4" font-family="DejaVu Sans" font-size="12.00">валідатор → Симулятор і тестові набори</text>
<text text-anchor="start" x="2037" y="-346.4" font-family="DejaVu Sans" font-size="10.00">Допускає валідну версію до симуляції</text>
<text text-anchor="start" x="2238" y="-346.4" font-family="DejaVu Sans" font-size="12.00"> </text>
</g>
<!-- step_04&#45;&gt;step_05 -->
<g id="edge4" class="edge">
<title>step_04&#45;&gt;step_05</title>
<path fill="none" stroke="#7b8794" stroke-width="1.2" d="M2139.5,-407.96C2139.5,-403.28 2139.5,-398.43 2139.5,-393.71"/>
<polygon fill="#7b8794" stroke="#7b8794" stroke-width="1.2" points="2141.95,-393.45 2139.5,-386.45 2137.05,-393.45 2141.95,-393.45"/>
</g>
<!-- step_06 -->
<g id="node17" class="node">
<title>step_06</title>
<path fill="#ffffff" stroke="#486581" stroke-width="1.5" d="M2307.5,-314C2307.5,-314 1971.5,-314 1971.5,-314 1965.5,-314 1959.5,-308 1959.5,-302 1959.5,-302 1959.5,-276 1959.5,-276 1959.5,-270 1965.5,-264 1971.5,-264 1971.5,-264 2307.5,-264 2307.5,-264 2313.5,-264 2319.5,-270 2319.5,-276 2319.5,-276 2319.5,-302 2319.5,-302 2319.5,-308 2313.5,-314 2307.5,-314"/>
<text text-anchor="start" x="1971.5" y="-298.4" font-family="DejaVu Sans" font-size="12.00"> </text>
<text text-anchor="start" x="1975.5" y="-298.4" font-family="DejaVu Sans" font-weight="bold" font-size="12.00">6.</text>
<text text-anchor="start" x="1988.5" y="-298.4" font-family="DejaVu Sans" font-size="12.00"> Симулятор і тестові набори → Маршрут клінічного</text>
<text text-anchor="start" x="2100.5" y="-286.4" font-family="DejaVu Sans" font-size="12.00">погодження</text>
<text text-anchor="start" x="2036.5" y="-274.4" font-family="DejaVu Sans" font-size="10.00">Передає протокол тестів і відхилення</text>
<text text-anchor="start" x="2238.5" y="-274.4" font-family="DejaVu Sans" font-size="12.00"> </text>
</g>
<!-- step_05&#45;&gt;step_06 -->
<g id="edge5" class="edge">
<title>step_05&#45;&gt;step_06</title>
<path fill="none" stroke="#7b8794" stroke-width="1.2" d="M2139.5,-335.91C2139.5,-331.23 2139.5,-326.27 2139.5,-321.4"/>
<polygon fill="#7b8794" stroke="#7b8794" stroke-width="1.2" points="2141.95,-321.37 2139.5,-314.37 2137.05,-321.37 2141.95,-321.37"/>
</g>
<!-- step_07 -->
<g id="node18" class="node">
<title>step_07</title>
<path fill="#ffffff" stroke="#486581" stroke-width="1.5" d="M2250,-242C2250,-242 2029,-242 2029,-242 2023,-242 2017,-236 2017,-230 2017,-230 2017,-204 2017,-204 2017,-198 2023,-192 2029,-192 2029,-192 2250,-192 2250,-192 2256,-192 2262,-198 2262,-204 2262,-204 2262,-230 2262,-230 2262,-236 2256,-242 2250,-242"/>
<text text-anchor="start" x="2066" y="-226.4" font-family="DejaVu Sans" font-size="12.00"> </text>
<text text-anchor="start" x="2070" y="-226.4" font-family="DejaVu Sans" font-weight="bold" font-size="12.00">7.</text>
<text text-anchor="start" x="2083" y="-226.4" font-family="DejaVu Sans" font-size="12.00"> Маршрут клінічного</text>
<text text-anchor="start" x="2029" y="-214.4" font-family="DejaVu Sans" font-size="12.00">погодження → Керування версіями</text>
<text text-anchor="start" x="2063.5" y="-202.4" font-family="DejaVu Sans" font-size="10.00">Фіксує погоджену редакцію</text>
<text text-anchor="start" x="2211.5" y="-202.4" font-family="DejaVu Sans" font-size="12.00"> </text>
</g>
<!-- step_06&#45;&gt;step_07 -->
<g id="edge6" class="edge">
<title>step_06&#45;&gt;step_07</title>
<path fill="none" stroke="#7b8794" stroke-width="1.2" d="M2139.5,-263.91C2139.5,-259.23 2139.5,-254.27 2139.5,-249.4"/>
<polygon fill="#7b8794" stroke="#7b8794" stroke-width="1.2" points="2141.95,-249.37 2139.5,-242.37 2137.05,-249.37 2141.95,-249.37"/>
</g>
<!-- step_08 -->
<g id="node19" class="node">
<title>step_08</title>
<path fill="#ffffff" stroke="#486581" stroke-width="1.5" d="M2301.5,-170C2301.5,-170 1977.5,-170 1977.5,-170 1971.5,-170 1965.5,-164 1965.5,-158 1965.5,-158 1965.5,-144 1965.5,-144 1965.5,-138 1971.5,-132 1977.5,-132 1977.5,-132 2301.5,-132 2301.5,-132 2307.5,-132 2313.5,-138 2313.5,-144 2313.5,-144 2313.5,-158 2313.5,-158 2313.5,-164 2307.5,-170 2301.5,-170"/>
<text text-anchor="start" x="1977.5" y="-154.4" font-family="DejaVu Sans" font-size="12.00"> </text>
<text text-anchor="start" x="1981.5" y="-154.4" font-family="DejaVu Sans" font-weight="bold" font-size="12.00">8.</text>
<text text-anchor="start" x="1994.5" y="-154.4" font-family="DejaVu Sans" font-size="12.00"> Керування версіями → Публікатор і відкликання</text>
<text text-anchor="start" x="2031" y="-142.4" font-family="DejaVu Sans" font-size="10.00">Створює незмінний кандидат на випуск</text>
<text text-anchor="start" x="2244" y="-142.4" font-family="DejaVu Sans" font-size="12.00"> </text>
</g>
<!-- step_07&#45;&gt;step_08 -->
<g id="edge7" class="edge">
<title>step_07&#45;&gt;step_08</title>
<path fill="none" stroke="#7b8794" stroke-width="1.2" d="M2139.5,-191.8C2139.5,-187.07 2139.5,-182.08 2139.5,-177.31"/>
<polygon fill="#7b8794" stroke="#7b8794" stroke-width="1.2" points="2141.95,-177.04 2139.5,-170.04 2137.05,-177.04 2141.95,-177.04"/>
</g>
<!-- step_09 -->
<g id="node20" class="node">
<title>step_09</title>
<path fill="#ffffff" stroke="#486581" stroke-width="1.5" d="M2296,-110C2296,-110 1983,-110 1983,-110 1977,-110 1971,-104 1971,-98 1971,-98 1971,-84 1971,-84 1971,-78 1977,-72 1983,-72 1983,-72 2296,-72 2296,-72 2302,-72 2308,-78 2308,-84 2308,-84 2308,-98 2308,-98 2308,-104 2302,-110 2296,-110"/>
<text text-anchor="start" x="1983" y="-94.4" font-family="DejaVu Sans" font-size="12.00"> </text>
<text text-anchor="start" x="1987" y="-94.4" font-family="DejaVu Sans" font-weight="bold" font-size="12.00">9.</text>
<text text-anchor="start" x="2000" y="-94.4" font-family="DejaVu Sans" font-size="12.00"> Публікатор і відкликання → Реєстр алгоритмів</text>
<text text-anchor="start" x="2040" y="-82.4" font-family="DejaVu Sans" font-size="10.00">Атомарно публікує підписану версію</text>
<text text-anchor="start" x="2235" y="-82.4" font-family="DejaVu Sans" font-size="12.00"> </text>
</g>
<!-- step_08&#45;&gt;step_09 -->
<g id="edge8" class="edge">
<title>step_08&#45;&gt;step_09</title>
<path fill="none" stroke="#7b8794" stroke-width="1.2" d="M2139.5,-131.97C2139.5,-127.32 2139.5,-122.23 2139.5,-117.29"/>
<polygon fill="#7b8794" stroke="#7b8794" stroke-width="1.2" points="2141.95,-117.22 2139.5,-110.22 2137.05,-117.22 2141.95,-117.22"/>
</g>
<!-- step_10 -->
<g id="node21" class="node">
<title>step_10</title>
<path fill="#ffffff" stroke="#486581" stroke-width="1.5" d="M2309.5,-50C2309.5,-50 1969.5,-50 1969.5,-50 1963.5,-50 1957.5,-44 1957.5,-38 1957.5,-38 1957.5,-12 1957.5,-12 1957.5,-6 1963.5,0 1969.5,0 1969.5,0 2309.5,0 2309.5,0 2315.5,0 2321.5,-6 2321.5,-12 2321.5,-12 2321.5,-38 2321.5,-38 2321.5,-44 2315.5,-50 2309.5,-50"/>
<text text-anchor="start" x="1983.5" y="-34.4" font-family="DejaVu Sans" font-size="12.00"> </text>
<text text-anchor="start" x="1987.5" y="-34.4" font-family="DejaVu Sans" font-weight="bold" font-size="12.00">10.</text>
<text text-anchor="start" x="2009.5" y="-34.4" font-family="DejaVu Sans" font-size="12.00"> Публікатор і відкликання → Сервіс аудиту та</text>
<text text-anchor="start" x="2079" y="-22.4" font-family="DejaVu Sans" font-size="12.00">спостережуваності</text>
<text text-anchor="start" x="1969.5" y="-10.4" font-family="DejaVu Sans" font-size="10.00">Фіксує авторів, погодження, контрольну суму та дату чинності</text>
<text text-anchor="start" x="2305.5" y="-10.4" font-family="DejaVu Sans" font-size="12.00"> </text>
</g>
<!-- step_09&#45;&gt;step_10 -->
<g id="edge9" class="edge">
<title>step_09&#45;&gt;step_10</title>
<path fill="none" stroke="#7b8794" stroke-width="1.2" d="M2139.5,-71.83C2139.5,-67.36 2139.5,-62.45 2139.5,-57.55"/>
<polygon fill="#7b8794" stroke="#7b8794" stroke-width="1.2" points="2141.95,-57.43 2139.5,-50.43 2137.05,-57.43 2141.95,-57.43"/>
</g>
</g>
</svg>
