<?xml version="1.0" encoding="UTF-8" standalone="no"?>
<!DOCTYPE svg PUBLIC "-//W3C//DTD SVG 1.1//EN"
 "http://www.w3.org/Graphics/SVG/1.1/DTD/svg11.dtd">
<!-- Generated by graphviz version 2.42.4 (0)
 -->
<!-- Title: G Pages: 1 -->
<svg width="1887pt" height="480pt"
 viewBox="0.00 0.00 1886.90 480.40" xmlns="http://www.w3.org/2000/svg" xmlns:xlink="http://www.w3.org/1999/xlink">
<g id="graph0" class="graph" transform="scale(1 1) rotate(0) translate(25.2 455.2)">
<title>G</title>
<polygon fill="white" stroke="transparent" points="-25.2,25.2 -25.2,-455.2 1861.7,-455.2 1861.7,25.2 -25.2,25.2"/>
<text text-anchor="start" x="8" y="-415.8" font-family="DejaVu Sans" font-weight="bold" font-size="14.00">L4.01 — Контракт визначення універсального алгоритму</text>
<text text-anchor="start" x="16" y="-403.4" font-family="DejaVu Sans" font-size="12.00">Логічна структура версійованого формального визначення алгоритму.</text>
<!-- n_3f0c95ec6d55 -->
<g id="node1" class="node">
<title>n_3f0c95ec6d55</title>
<polygon fill="#ffe8a1" stroke="#486581" stroke-width="3" points="948,-396 796,-396 796,-392 792,-392 792,-388 796,-388 796,-368 792,-368 792,-364 796,-364 796,-360 948,-360 948,-396"/>
<polyline fill="none" stroke="#486581" stroke-width="3" points="796,-392 800,-392 800,-388 796,-388 "/>
<polyline fill="none" stroke="#486581" stroke-width="3" points="796,-368 800,-368 800,-364 796,-364 "/>
<text text-anchor="start" x="806" y="-380.4" font-family="DejaVu Sans" font-weight="bold" font-size="12.00" fill="#4a3b00">AlgorithmDefinition</text>
<text text-anchor="start" x="820" y="-370" font-family="DejaVu Sans" font-size="10.00" fill="#4a3b00">[Логічний елемент]</text>
</g>
<!-- n_a136a9d81a77 -->
<g id="node3" class="node">
<title>n_a136a9d81a77</title>
<polygon fill="#fff9db" stroke="#486581" stroke-width="1.5" points="164,-276 0,-276 0,-272 -4,-272 -4,-268 0,-268 0,-248 -4,-248 -4,-244 0,-244 0,-240 164,-240 164,-276"/>
<polyline fill="none" stroke="#486581" stroke-width="1.5" points="0,-272 4,-272 4,-268 0,-268 "/>
<polyline fill="none" stroke="#486581" stroke-width="1.5" points="0,-248 4,-248 4,-244 0,-244 "/>
<text text-anchor="start" x="10" y="-260.4" font-family="DejaVu Sans" font-weight="bold" font-size="12.00" fill="#4a3b00">CommunicationPolicy</text>
<text text-anchor="start" x="30" y="-250" font-family="DejaVu Sans" font-size="10.00" fill="#4a3b00">[Логічний елемент]</text>
</g>
<!-- n_3f0c95ec6d55&#45;&gt;n_a136a9d81a77 -->
<g id="edge10" class="edge">
<title>n_3f0c95ec6d55&#45;&gt;n_a136a9d81a77</title>
<path fill="none" stroke="#486581" stroke-width="1.4" d="M795.84,-368.13C666.32,-353.04 417,-324 417,-324 417,-324 271.55,-295.78 172.33,-276.53"/>
<polygon fill="#486581" stroke="#486581" stroke-width="1.4" points="172.77,-273.76 164.38,-274.98 171.7,-279.26 172.77,-273.76"/>
<text text-anchor="start" x="417" y="-315.2" font-family="DejaVu Sans" font-size="11.00" fill="#334e68">Містить</text>
</g>
<!-- n_89b51bcb71cb -->
<g id="node4" class="node">
<title>n_89b51bcb71cb</title>
<polygon fill="#fff9db" stroke="#486581" stroke-width="1.5" points="359.5,-276 196.5,-276 196.5,-272 192.5,-272 192.5,-268 196.5,-268 196.5,-248 192.5,-248 192.5,-244 196.5,-244 196.5,-240 359.5,-240 359.5,-276"/>
<polyline fill="none" stroke="#486581" stroke-width="1.5" points="196.5,-272 200.5,-272 200.5,-268 196.5,-268 "/>
<polyline fill="none" stroke="#486581" stroke-width="1.5" points="196.5,-248 200.5,-248 200.5,-244 196.5,-244 "/>
<text text-anchor="start" x="206.5" y="-260.4" font-family="DejaVu Sans" font-weight="bold" font-size="12.00" fill="#4a3b00">ConsentRequirement</text>
<text text-anchor="start" x="226" y="-250" font-family="DejaVu Sans" font-size="10.00" fill="#4a3b00">[Логічний елемент]</text>
</g>
<!-- n_3f0c95ec6d55&#45;&gt;n_89b51bcb71cb -->
<g id="edge2" class="edge">
<title>n_3f0c95ec6d55&#45;&gt;n_89b51bcb71cb</title>
<path fill="none" stroke="#486581" stroke-width="1.4" d="M795.88,-365.82C689.97,-350.28 511,-324 511,-324 511,-324 415.74,-297.42 347.04,-278.26"/>
<polygon fill="#486581" stroke="#486581" stroke-width="1.4" points="347.68,-275.53 339.22,-276.08 346.17,-280.92 347.68,-275.53"/>
<text text-anchor="start" x="511" y="-315.2" font-family="DejaVu Sans" font-size="11.00" fill="#334e68">Містить</text>
</g>
<!-- n_9e957a45e3a9 -->
<g id="node5" class="node">
<title>n_9e957a45e3a9</title>
<polygon fill="#fff9db" stroke="#486581" stroke-width="1.5" points="516,-276 392,-276 392,-272 388,-272 388,-268 392,-268 392,-248 388,-248 388,-244 392,-244 392,-240 516,-240 516,-276"/>
<polyline fill="none" stroke="#486581" stroke-width="1.5" points="392,-272 396,-272 396,-268 392,-268 "/>
<polyline fill="none" stroke="#486581" stroke-width="1.5" points="392,-248 396,-248 396,-244 392,-244 "/>
<text text-anchor="start" x="418" y="-260.4" font-family="DejaVu Sans" font-weight="bold" font-size="12.00" fill="#4a3b00">DataPolicy</text>
<text text-anchor="start" x="402" y="-250" font-family="DejaVu Sans" font-size="10.00" fill="#4a3b00">[Логічний елемент]</text>
</g>
<!-- n_3f0c95ec6d55&#45;&gt;n_9e957a45e3a9 -->
<g id="edge11" class="edge">
<title>n_3f0c95ec6d55&#45;&gt;n_9e957a45e3a9</title>
<path fill="none" stroke="#486581" stroke-width="1.4" d="M795.89,-362.8C711.77,-347.1 588,-324 588,-324 588,-324 536.06,-298.81 496.86,-279.79"/>
<polygon fill="#486581" stroke="#486581" stroke-width="1.4" points="497.63,-277.05 489.21,-276.08 495.18,-282.09 497.63,-277.05"/>
<text text-anchor="start" x="588" y="-315.2" font-family="DejaVu Sans" font-size="11.00" fill="#334e68">Містить</text>
</g>
<!-- n_fea8051f29e0 -->
<g id="node6" class="node">
<title>n_fea8051f29e0</title>
<polygon fill="#fff9db" stroke="#486581" stroke-width="1.5" points="672,-276 548,-276 548,-272 544,-272 544,-268 548,-268 548,-248 544,-248 544,-244 548,-244 548,-240 672,-240 672,-276"/>
<polyline fill="none" stroke="#486581" stroke-width="1.5" points="548,-272 552,-272 552,-268 548,-268 "/>
<polyline fill="none" stroke="#486581" stroke-width="1.5" points="548,-248 552,-248 552,-244 548,-244 "/>
<text text-anchor="start" x="560" y="-260.4" font-family="DejaVu Sans" font-weight="bold" font-size="12.00" fill="#4a3b00">EligibilityPolicy</text>
<text text-anchor="start" x="558" y="-250" font-family="DejaVu Sans" font-size="10.00" fill="#4a3b00">[Логічний елемент]</text>
</g>
<!-- n_3f0c95ec6d55&#45;&gt;n_fea8051f29e0 -->
<g id="edge1" class="edge">
<title>n_3f0c95ec6d55&#45;&gt;n_fea8051f29e0</title>
<path fill="none" stroke="#486581" stroke-width="1.4" d="M800.21,-359.94C735.02,-344.45 649,-324 649,-324 649,-324 635.6,-301.66 624.5,-283.17"/>
<polygon fill="#486581" stroke="#486581" stroke-width="1.4" points="626.76,-281.5 620.25,-276.08 621.96,-284.38 626.76,-281.5"/>
<text text-anchor="start" x="649" y="-315.2" font-family="DejaVu Sans" font-size="11.00" fill="#334e68">Містить</text>
</g>
<!-- n_029a77c06c6e -->
<g id="node7" class="node">
<title>n_029a77c06c6e</title>
<polygon fill="#fff9db" stroke="#486581" stroke-width="1.5" points="810,-36 686,-36 686,-32 682,-32 682,-28 686,-28 686,-8 682,-8 682,-4 686,-4 686,0 810,0 810,-36"/>
<polyline fill="none" stroke="#486581" stroke-width="1.5" points="686,-32 690,-32 690,-28 686,-28 "/>
<polyline fill="none" stroke="#486581" stroke-width="1.5" points="686,-8 690,-8 690,-4 686,-4 "/>
<text text-anchor="start" x="698" y="-20.4" font-family="DejaVu Sans" font-weight="bold" font-size="12.00" fill="#4a3b00">FollowUpPolicy</text>
<text text-anchor="start" x="696" y="-10" font-family="DejaVu Sans" font-size="10.00" fill="#4a3b00">[Логічний елемент]</text>
</g>
<!-- n_3f0c95ec6d55&#45;&gt;n_029a77c06c6e -->
<g id="edge9" class="edge">
<title>n_3f0c95ec6d55&#45;&gt;n_029a77c06c6e</title>
<path fill="none" stroke="#486581" stroke-width="1.4" d="M858.48,-359.94C846.2,-344.45 830,-324 830,-324 830,-324 779,-204 779,-204 779,-204 760.71,-94.86 752.23,-44.24"/>
<polygon fill="#486581" stroke="#486581" stroke-width="1.4" points="754.94,-43.5 750.86,-36.07 749.42,-44.43 754.94,-43.5"/>
<text text-anchor="start" x="779" y="-195.2" font-family="DejaVu Sans" font-size="11.00" fill="#334e68">Містить</text>
</g>
<!-- n_2ff88be2cb95 -->
<g id="node8" class="node">
<title>n_2ff88be2cb95</title>
<polygon fill="#fff9db" stroke="#486581" stroke-width="1.5" points="1217,-276 1037,-276 1037,-272 1033,-272 1033,-268 1037,-268 1037,-248 1033,-248 1033,-244 1037,-244 1037,-240 1217,-240 1217,-276"/>
<polyline fill="none" stroke="#486581" stroke-width="1.5" points="1037,-272 1041,-272 1041,-268 1037,-268 "/>
<polyline fill="none" stroke="#486581" stroke-width="1.5" points="1037,-248 1041,-248 1041,-244 1037,-244 "/>
<text text-anchor="start" x="1047" y="-260.4" font-family="DejaVu Sans" font-weight="bold" font-size="12.00" fill="#4a3b00">MeasurementDefinition</text>
<text text-anchor="start" x="1075" y="-250" font-family="DejaVu Sans" font-size="10.00" fill="#4a3b00">[Логічний елемент]</text>
</g>
<!-- n_3f0c95ec6d55&#45;&gt;n_2ff88be2cb95 -->
<g id="edge6" class="edge">
<title>n_3f0c95ec6d55&#45;&gt;n_2ff88be2cb95</title>
<path fill="none" stroke="#486581" stroke-width="1.4" d="M908.81,-359.97C954.85,-338.66 1033.62,-302.21 1082.86,-279.42"/>
<polygon fill="#486581" stroke="#486581" stroke-width="1.4" points="1084.12,-281.93 1090.2,-276.03 1081.77,-276.85 1084.12,-281.93"/>
<text text-anchor="start" x="1008" y="-315.2" font-family="DejaVu Sans" font-size="11.00" fill="#334e68">Містить</text>
</g>
<!-- n_55d6f7ae64dd -->
<g id="node9" class="node">
<title>n_55d6f7ae64dd</title>
<polygon fill="#fff9db" stroke="#486581" stroke-width="1.5" points="934.5,-156 787.5,-156 787.5,-152 783.5,-152 783.5,-148 787.5,-148 787.5,-128 783.5,-128 783.5,-124 787.5,-124 787.5,-120 934.5,-120 934.5,-156"/>
<polyline fill="none" stroke="#486581" stroke-width="1.5" points="787.5,-152 791.5,-152 791.5,-148 787.5,-148 "/>
<polyline fill="none" stroke="#486581" stroke-width="1.5" points="787.5,-128 791.5,-128 791.5,-124 787.5,-124 "/>
<text text-anchor="start" x="797.5" y="-140.4" font-family="DejaVu Sans" font-weight="bold" font-size="12.00" fill="#4a3b00">OutcomeDefinition</text>
<text text-anchor="start" x="809" y="-130" font-family="DejaVu Sans" font-size="10.00" fill="#4a3b00">[Логічний елемент]</text>
</g>
<!-- n_3f0c95ec6d55&#45;&gt;n_55d6f7ae64dd -->
<g id="edge7" class="edge">
<title>n_3f0c95ec6d55&#45;&gt;n_55d6f7ae64dd</title>
<path fill="none" stroke="#486581" stroke-width="1.4" d="M862.84,-359.87C847.43,-331.05 818,-276 818,-276 818,-276 818,-240 818,-240 818,-240 837.75,-193.61 850.48,-163.71"/>
<polygon fill="#486581" stroke="#486581" stroke-width="1.4" points="853.15,-164.59 853.71,-156.13 848,-162.4 853.15,-164.59"/>
<text text-anchor="start" x="818" y="-255.2" font-family="DejaVu Sans" font-size="11.00" fill="#334e68">Містить</text>
</g>
<!-- n_8dee476e58b1 -->
<g id="node11" class="node">
<title>n_8dee476e58b1</title>
<polygon fill="#ffe3e3" stroke="#c92a2a" stroke-width="3" points="1484,-276 1360,-276 1360,-272 1356,-272 1356,-268 1360,-268 1360,-248 1356,-248 1356,-244 1360,-244 1360,-240 1484,-240 1484,-276"/>
<polyline fill="none" stroke="#c92a2a" stroke-width="3" points="1360,-272 1364,-272 1364,-268 1360,-268 "/>
<polyline fill="none" stroke="#c92a2a" stroke-width="3" points="1360,-248 1364,-248 1364,-244 1360,-244 "/>
<text text-anchor="start" x="1380" y="-260.4" font-family="DejaVu Sans" font-weight="bold" font-size="12.00" fill="#5c1a1a">RedFlagRule</text>
<text text-anchor="start" x="1370" y="-250" font-family="DejaVu Sans" font-size="10.00" fill="#5c1a1a">[Логічний елемент]</text>
</g>
<!-- n_3f0c95ec6d55&#45;&gt;n_8dee476e58b1 -->
<g id="edge5" class="edge">
<title>n_3f0c95ec6d55&#45;&gt;n_8dee476e58b1</title>
<path fill="none" stroke="#486581" stroke-width="1.4" d="M948.09,-367.71C1072.56,-352.51 1306,-324 1306,-324 1306,-324 1350.59,-299.02 1384.47,-280.03"/>
<polygon fill="#486581" stroke="#486581" stroke-width="1.4" points="1385.91,-282.43 1391.52,-276.08 1383.17,-277.55 1385.91,-282.43"/>
<text text-anchor="start" x="1326" y="-315.2" font-family="DejaVu Sans" font-size="11.00" fill="#334e68">Містить</text>
</g>
<!-- n_19648c3e442e -->
<g id="node12" class="node">
<title>n_19648c3e442e</title>
<polygon fill="#fff9db" stroke="#c92a2a" stroke-width="3" points="1370,-156 1246,-156 1246,-152 1242,-152 1242,-148 1246,-148 1246,-128 1242,-128 1242,-124 1246,-124 1246,-120 1370,-120 1370,-156"/>
<polyline fill="none" stroke="#c92a2a" stroke-width="3" points="1246,-152 1250,-152 1250,-148 1246,-148 "/>
<polyline fill="none" stroke="#c92a2a" stroke-width="3" points="1246,-128 1250,-128 1250,-124 1246,-124 "/>
<text text-anchor="start" x="1262.5" y="-140.4" font-family="DejaVu Sans" font-weight="bold" font-size="12.00" fill="#4a3b00">RoutingPolicy</text>
<text text-anchor="start" x="1256" y="-130" font-family="DejaVu Sans" font-size="10.00" fill="#4a3b00">[Логічний елемент]</text>
</g>
<!-- n_3f0c95ec6d55&#45;&gt;n_19648c3e442e -->
<g id="edge8" class="edge">
<title>n_3f0c95ec6d55&#45;&gt;n_19648c3e442e</title>
<path fill="none" stroke="#486581" stroke-width="1.4" d="M933.48,-359.94C989.32,-344.45 1063,-324 1063,-324 1063,-324 1233,-276 1233,-276 1233,-276 1273.03,-202.87 1294.6,-163.47"/>
<polygon fill="#486581" stroke="#486581" stroke-width="1.4" points="1297.27,-164.44 1298.65,-156.07 1292.36,-161.75 1297.27,-164.44"/>
<text text-anchor="start" x="1253" y="-255.2" font-family="DejaVu Sans" font-size="11.00" fill="#334e68">Містить</text>
</g>
<!-- n_115ff0812c04 -->
<g id="node13" class="node">
<title>n_115ff0812c04</title>
<polygon fill="#ffe3e3" stroke="#c92a2a" stroke-width="3" points="1005,-276 881,-276 881,-272 877,-272 877,-268 881,-268 881,-248 877,-248 877,-244 881,-244 881,-240 1005,-240 1005,-276"/>
<polyline fill="none" stroke="#c92a2a" stroke-width="3" points="881,-272 885,-272 885,-268 881,-268 "/>
<polyline fill="none" stroke="#c92a2a" stroke-width="3" points="881,-248 885,-248 885,-244 881,-244 "/>
<text text-anchor="start" x="903" y="-260.4" font-family="DejaVu Sans" font-weight="bold" font-size="12.00" fill="#5c1a1a">ScoringRule</text>
<text text-anchor="start" x="891" y="-250" font-family="DejaVu Sans" font-size="10.00" fill="#5c1a1a">[Логічний елемент]</text>
</g>
<!-- n_3f0c95ec6d55&#45;&gt;n_115ff0812c04 -->
<g id="edge4" class="edge">
<title>n_3f0c95ec6d55&#45;&gt;n_115ff0812c04</title>
<path fill="none" stroke="#486581" stroke-width="1.4" d="M882.32,-359.84C894.47,-339.65 914.72,-306 928.45,-283.18"/>
<polygon fill="#486581" stroke="#486581" stroke-width="1.4" points="930.94,-284.48 932.66,-276.18 926.14,-281.59 930.94,-284.48"/>
<text text-anchor="start" x="910" y="-315.2" font-family="DejaVu Sans" font-size="11.00" fill="#334e68">Містить</text>
</g>
<!-- n_a351c01a5440 -->
<g id="node14" class="node">
<title>n_a351c01a5440</title>
<polygon fill="#fff9db" stroke="#486581" stroke-width="1.5" points="1640,-276 1516,-276 1516,-272 1512,-272 1512,-268 1516,-268 1516,-248 1512,-248 1512,-244 1516,-244 1516,-240 1640,-240 1640,-276"/>
<polyline fill="none" stroke="#486581" stroke-width="1.5" points="1516,-272 1520,-272 1520,-268 1516,-268 "/>
<polyline fill="none" stroke="#486581" stroke-width="1.5" points="1516,-248 1520,-248 1520,-244 1516,-244 "/>
<text text-anchor="start" x="1532.5" y="-260.4" font-family="DejaVu Sans" font-weight="bold" font-size="12.00" fill="#4a3b00">ScenarioStep</text>
<text text-anchor="start" x="1526" y="-250" font-family="DejaVu Sans" font-size="10.00" fill="#4a3b00">[Логічний елемент]</text>
</g>
<!-- n_3f0c95ec6d55&#45;&gt;n_a351c01a5440 -->
<g id="edge3" class="edge">
<title>n_3f0c95ec6d55&#45;&gt;n_a351c01a5440</title>
<path fill="none" stroke="#486581" stroke-width="1.4" d="M948.2,-369.07C1090.2,-354.28 1381,-324 1381,-324 1381,-324 1460.57,-297.75 1518.57,-278.61"/>
<polygon fill="#486581" stroke="#486581" stroke-width="1.4" points="1519.52,-281.24 1526.24,-276.08 1517.77,-275.93 1519.52,-281.24"/>
<text text-anchor="start" x="1415" y="-315.2" font-family="DejaVu Sans" font-size="11.00" fill="#334e68">Містить упорядкований граф</text>
</g>
<!-- n_c2054d15f8cf -->
<g id="node15" class="node">
<title>n_c2054d15f8cf</title>
<polygon fill="#fff9db" stroke="#486581" stroke-width="1.5" points="1820,-276 1672,-276 1672,-272 1668,-272 1668,-268 1672,-268 1672,-248 1668,-248 1668,-244 1672,-244 1672,-240 1820,-240 1820,-276"/>
<polyline fill="none" stroke="#486581" stroke-width="1.5" points="1672,-272 1676,-272 1676,-268 1672,-268 "/>
<polyline fill="none" stroke="#486581" stroke-width="1.5" points="1672,-248 1676,-248 1676,-244 1672,-244 "/>
<text text-anchor="start" x="1682" y="-260.4" font-family="DejaVu Sans" font-weight="bold" font-size="12.00" fill="#4a3b00">AlgorithmTestCase</text>
<text text-anchor="start" x="1694" y="-250" font-family="DejaVu Sans" font-size="10.00" fill="#4a3b00">[Логічний елемент]</text>
</g>
<!-- n_3f0c95ec6d55&#45;&gt;n_c2054d15f8cf -->
<g id="edge12" class="edge">
<title>n_3f0c95ec6d55&#45;&gt;n_c2054d15f8cf</title>
<path fill="none" stroke="#486581" stroke-width="1.4" d="M948.32,-371.43C1134.72,-357.82 1598,-324 1598,-324 1598,-324 1656.32,-298.39 1699.74,-279.32"/>
<polygon fill="#486581" stroke="#486581" stroke-width="1.4" points="1700.92,-281.86 1707.11,-276.08 1698.66,-276.73 1700.92,-281.86"/>
<text text-anchor="start" x="1623" y="-315.2" font-family="DejaVu Sans" font-size="11.00" fill="#334e68">Перевіряється</text>
</g>
<!-- n_2c7b9ec7246f -->
<g id="node2" class="node">
<title>n_2c7b9ec7246f</title>
<polygon fill="#ffe3e3" stroke="#486581" stroke-width="1.5" points="1578,-156 1454,-156 1454,-152 1450,-152 1450,-148 1454,-148 1454,-128 1450,-128 1450,-124 1454,-124 1454,-120 1578,-120 1578,-156"/>
<polyline fill="none" stroke="#486581" stroke-width="1.5" points="1454,-152 1458,-152 1458,-148 1454,-148 "/>
<polyline fill="none" stroke="#486581" stroke-width="1.5" points="1454,-128 1458,-128 1458,-124 1454,-124 "/>
<text text-anchor="start" x="1478" y="-140.4" font-family="DejaVu Sans" font-weight="bold" font-size="12.00" fill="#5c1a1a">BranchRule</text>
<text text-anchor="start" x="1464" y="-130" font-family="DejaVu Sans" font-size="10.00" fill="#5c1a1a">[Логічний елемент]</text>
</g>
<!-- n_2c7b9ec7246f&#45;&gt;n_a351c01a5440 -->
<g id="edge15" class="edge">
<title>n_2c7b9ec7246f&#45;&gt;n_a351c01a5440</title>
<path fill="none" stroke="#486581" stroke-width="1.4" d="M1484.77,-156.06C1456.42,-171.55 1419,-192 1419,-192 1419,-192 1419,-204 1419,-204 1419,-204 1473.81,-222.27 1519.07,-237.36"/>
<polygon fill="#486581" stroke="#486581" stroke-width="1.4" points="1518.34,-240.07 1526.82,-239.94 1520.11,-234.75 1518.34,-240.07"/>
<text text-anchor="start" x="1419" y="-195.2" font-family="DejaVu Sans" font-size="11.00" fill="#334e68">Посилається на цільовий крок</text>
</g>
<!-- n_2ff88be2cb95&#45;&gt;n_55d6f7ae64dd -->
<g id="edge18" class="edge">
<title>n_2ff88be2cb95&#45;&gt;n_55d6f7ae64dd</title>
<path fill="none" stroke="#486581" stroke-width="1.4" d="M1100.73,-239.92C1071.1,-220.66 1027,-192 1027,-192 1027,-192 969.54,-173.65 922.23,-158.55"/>
<polygon fill="#486581" stroke="#486581" stroke-width="1.4" points="922.91,-155.83 914.44,-156.06 921.21,-161.16 922.91,-155.83"/>
<text text-anchor="start" x="1044" y="-195.2" font-family="DejaVu Sans" font-size="11.00" fill="#334e68">Додає нормалізовані ознаки до</text>
</g>
<!-- n_55d6f7ae64dd&#45;&gt;n_029a77c06c6e -->
<g id="edge19" class="edge">
<title>n_55d6f7ae64dd&#45;&gt;n_029a77c06c6e</title>
<path fill="none" stroke="#486581" stroke-width="1.4" d="M844.57,-119.84C824.9,-99.31 791.89,-64.83 770.03,-42"/>
<polygon fill="#486581" stroke="#486581" stroke-width="1.4" points="772.01,-40.02 764.45,-36.18 767.96,-43.89 772.01,-40.02"/>
<text text-anchor="start" x="808" y="-75.2" font-family="DejaVu Sans" font-size="11.00" fill="#334e68">Визначає</text>
</g>
<!-- n_c1d5fca69896 -->
<g id="node10" class="node">
<title>n_c1d5fca69896</title>
<polygon fill="#fff9db" stroke="#486581" stroke-width="1.5" points="1836.5,-156 1689.5,-156 1689.5,-152 1685.5,-152 1685.5,-148 1689.5,-148 1689.5,-128 1685.5,-128 1685.5,-124 1689.5,-124 1689.5,-120 1836.5,-120 1836.5,-156"/>
<polyline fill="none" stroke="#486581" stroke-width="1.5" points="1689.5,-152 1693.5,-152 1693.5,-148 1689.5,-148 "/>
<polyline fill="none" stroke="#486581" stroke-width="1.5" points="1689.5,-128 1693.5,-128 1693.5,-124 1689.5,-124 "/>
<text text-anchor="start" x="1699.5" y="-140.4" font-family="DejaVu Sans" font-weight="bold" font-size="12.00" fill="#4a3b00">QuestionDefinition</text>
<text text-anchor="start" x="1711" y="-130" font-family="DejaVu Sans" font-size="10.00" fill="#4a3b00">[Логічний елемент]</text>
</g>
<!-- n_8dee476e58b1&#45;&gt;n_19648c3e442e -->
<g id="edge17" class="edge">
<title>n_8dee476e58b1&#45;&gt;n_19648c3e442e</title>
<path fill="none" stroke="#486581" stroke-width="1.4" d="M1401.08,-239.94C1382.07,-224.45 1357,-204 1357,-204 1357,-204 1339.86,-181.26 1325.85,-162.68"/>
<polygon fill="#486581" stroke="#486581" stroke-width="1.4" points="1327.93,-160.78 1320.87,-156.08 1323.45,-164.15 1327.93,-160.78"/>
<text text-anchor="start" x="1357" y="-195.2" font-family="DejaVu Sans" font-size="11.00" fill="#334e68">Запускає</text>
</g>
<!-- n_115ff0812c04&#45;&gt;n_55d6f7ae64dd -->
<g id="edge16" class="edge">
<title>n_115ff0812c04&#45;&gt;n_55d6f7ae64dd</title>
<path fill="none" stroke="#486581" stroke-width="1.4" d="M924.97,-239.94C908.6,-224.45 887,-204 887,-204 887,-204 878.22,-182.05 870.87,-163.67"/>
<polygon fill="#486581" stroke="#486581" stroke-width="1.4" points="873.4,-162.47 867.83,-156.08 868.2,-164.55 873.4,-162.47"/>
<text text-anchor="start" x="887" y="-195.2" font-family="DejaVu Sans" font-size="11.00" fill="#334e68">Формує показники для</text>
</g>
<!-- n_a351c01a5440&#45;&gt;n_2c7b9ec7246f -->
<g id="edge14" class="edge">
<title>n_a351c01a5440&#45;&gt;n_2c7b9ec7246f</title>
<path fill="none" stroke="#486581" stroke-width="1.4" d="M1587.34,-239.94C1595.81,-224.45 1607,-204 1607,-204 1607,-204 1607,-192 1607,-192 1607,-192 1577.67,-174.92 1552.31,-160.15"/>
<polygon fill="#486581" stroke="#486581" stroke-width="1.4" points="1553.62,-157.67 1545.29,-156.06 1550.8,-162.51 1553.62,-157.67"/>
<text text-anchor="start" x="1607" y="-195.2" font-family="DejaVu Sans" font-size="11.00" fill="#334e68">Має переходи</text>
</g>
<!-- n_a351c01a5440&#45;&gt;n_c1d5fca69896 -->
<g id="edge13" class="edge">
<title>n_a351c01a5440&#45;&gt;n_c1d5fca69896</title>
<path fill="none" stroke="#486581" stroke-width="1.4" d="M1616.63,-239.94C1651.71,-224.45 1698,-204 1698,-204 1698,-204 1721.14,-180.86 1739.8,-162.2"/>
<polygon fill="#486581" stroke="#486581" stroke-width="1.4" points="1742.25,-163.71 1745.92,-156.08 1738.29,-159.75 1742.25,-163.71"/>
<text text-anchor="start" x="1709" y="-195.2" font-family="DejaVu Sans" font-size="11.00" fill="#334e68">Може містити</text>
</g>
</g>
</svg>
