<?xml version="1.0" encoding="UTF-8" standalone="no"?>
<!DOCTYPE svg PUBLIC "-//W3C//DTD SVG 1.1//EN"
 "http://www.w3.org/Graphics/SVG/1.1/DTD/svg11.dtd">
<!-- Generated by graphviz version 2.42.4 (0)
 -->
<!-- Title: G Pages: 1 -->
<svg width="1366pt" height="908pt"
 viewBox="0.00 0.00 1366.40 908.40" xmlns="http://www.w3.org/2000/svg" xmlns:xlink="http://www.w3.org/1999/xlink">
<g id="graph0" class="graph" transform="scale(1 1) rotate(0) translate(25.2 883.2)">
<title>G</title>
<polygon fill="white" stroke="transparent" points="-25.2,25.2 -25.2,-883.2 1341.2,-883.2 1341.2,25.2 -25.2,25.2"/>
<text text-anchor="start" x="60.5" y="-843.8" font-family="DejaVu Sans" font-weight="bold" font-size="14.00">C1.02 — Системний контекст платформи</text>
<text text-anchor="start" x="8" y="-831.4" font-family="DejaVu Sans" font-size="12.00">Повний системний контекст платформи та її зовнішніх залежностей.</text>
<!-- n_b30059fba026 -->
<g id="node1" class="node">
<title>n_b30059fba026</title>
<path fill="#e9eef4" stroke="#486581" stroke-width="1.5" d="M1273,-824C1273,-824 1127,-824 1127,-824 1121,-824 1115,-818 1115,-812 1115,-812 1115,-790 1115,-790 1115,-784 1121,-778 1127,-778 1127,-778 1273,-778 1273,-778 1279,-778 1285,-784 1285,-790 1285,-790 1285,-812 1285,-812 1285,-818 1279,-824 1273,-824"/>
<text text-anchor="start" x="1125" y="-809.4" font-family="DejaVu Sans" font-weight="bold" font-size="12.00" fill="#263238">Репозиторій вихідних</text>
<text text-anchor="start" x="1162" y="-797.4" font-family="DejaVu Sans" font-weight="bold" font-size="12.00" fill="#263238">алгоритмів</text>
<text text-anchor="start" x="1144.5" y="-787" font-family="DejaVu Sans" font-size="10.00" fill="#263238">[Програмна система]</text>
</g>
<!-- n_d41792c094aa -->
<g id="node2" class="node">
<title>n_d41792c094aa</title>
<path fill="#e9eef4" stroke="#486581" stroke-width="1.5" d="M1297,-746C1297,-746 1103,-746 1103,-746 1097,-746 1091,-740 1091,-734 1091,-734 1091,-722 1091,-722 1091,-716 1097,-710 1103,-710 1103,-710 1297,-710 1297,-710 1303,-710 1309,-716 1309,-722 1309,-722 1309,-734 1309,-734 1309,-740 1303,-746 1297,-746"/>
<text text-anchor="start" x="1101" y="-730.4" font-family="DejaVu Sans" font-weight="bold" font-size="12.00" fill="#263238">Календар і запис на прийом</text>
<text text-anchor="start" x="1144.5" y="-720" font-family="DejaVu Sans" font-size="10.00" fill="#263238">[Програмна система]</text>
</g>
<!-- n_f0d38fbc8ca4 -->
<g id="node3" class="node">
<title>n_f0d38fbc8ca4</title>
<path fill="#6c4ab6" stroke="#486581" stroke-width="1.5" d="M217.5,-669C217.5,-669 19.5,-669 19.5,-669 13.5,-669 7.5,-663 7.5,-657 7.5,-657 7.5,-645 7.5,-645 7.5,-639 13.5,-633 19.5,-633 19.5,-633 217.5,-633 217.5,-633 223.5,-633 229.5,-639 229.5,-645 229.5,-645 229.5,-657 229.5,-657 229.5,-663 223.5,-669 217.5,-669"/>
<text text-anchor="start" x="17.5" y="-653.4" font-family="DejaVu Sans" font-weight="bold" font-size="12.00" fill="#ffffff">Черговий кризовий фахівець</text>
<text text-anchor="start" x="99" y="-643" font-family="DejaVu Sans" font-size="10.00" fill="#ffffff">[Особа]</text>
</g>
<!-- n_3c72abbe626f -->
<g id="node14" class="node">
<title>n_3c72abbe626f</title>
<path fill="#0a6ebd" stroke="#486581" stroke-width="1.5" d="M750,-441C750,-441 567,-441 567,-441 561,-441 555,-435 555,-429 555,-429 555,-395 555,-395 555,-389 561,-383 567,-383 567,-383 750,-383 750,-383 756,-383 762,-389 762,-395 762,-395 762,-429 762,-429 762,-435 756,-441 750,-441"/>
<text text-anchor="start" x="581.5" y="-426.4" font-family="DejaVu Sans" font-weight="bold" font-size="12.00" fill="#ffffff">Платформа реалізації</text>
<text text-anchor="start" x="565" y="-414.4" font-family="DejaVu Sans" font-weight="bold" font-size="12.00" fill="#ffffff">психіатричних сценаріїв та</text>
<text text-anchor="start" x="620.5" y="-402.4" font-family="DejaVu Sans" font-weight="bold" font-size="12.00" fill="#ffffff">алгоритмів</text>
<text text-anchor="start" x="603" y="-392" font-family="DejaVu Sans" font-size="10.00" fill="#ffffff">[Програмна система]</text>
</g>
<!-- n_f0d38fbc8ca4&#45;&gt;n_3c72abbe626f -->
<g id="edge5" class="edge">
<title>n_f0d38fbc8ca4&#45;&gt;n_3c72abbe626f</title>
<path fill="none" stroke="#486581" stroke-width="1.4" d="M229.72,-634.72C347.97,-617.26 519,-592 519,-592 519,-592 589.53,-500.33 629.93,-447.83"/>
<polygon fill="#486581" stroke="#486581" stroke-width="1.4" points="632.28,-449.37 634.94,-441.32 627.84,-445.95 632.28,-449.37"/>
<text text-anchor="start" x="302" y="-641.2" font-family="DejaVu Sans" font-size="11.00" fill="#334e68">Отримує та опрацьовує кризові</text>
<text text-anchor="start" x="369" y="-629.2" font-family="DejaVu Sans" font-size="11.00" fill="#334e68">ескалації</text>
</g>
<!-- n_fd9938cf1df8 -->
<g id="node4" class="node">
<title>n_fd9938cf1df8</title>
<path fill="#e9eef4" stroke="#486581" stroke-width="1.5" d="M1298.5,-678C1298.5,-678 1101.5,-678 1101.5,-678 1095.5,-678 1089.5,-672 1089.5,-666 1089.5,-666 1089.5,-654 1089.5,-654 1089.5,-648 1095.5,-642 1101.5,-642 1101.5,-642 1298.5,-642 1298.5,-642 1304.5,-642 1310.5,-648 1310.5,-654 1310.5,-654 1310.5,-666 1310.5,-666 1310.5,-672 1304.5,-678 1298.5,-678"/>
<text text-anchor="start" x="1099.5" y="-662.4" font-family="DejaVu Sans" font-weight="bold" font-size="12.00" fill="#263238">Медичні пристрої та сенсори</text>
<text text-anchor="start" x="1144.5" y="-652" font-family="DejaVu Sans" font-size="10.00" fill="#263238">[Програмна система]</text>
</g>
<!-- n_3be1d182bd81 -->
<g id="node5" class="node">
<title>n_3be1d182bd81</title>
<path fill="#e9eef4" stroke="#486581" stroke-width="1.5" d="M1256,-610C1256,-610 1144,-610 1144,-610 1138,-610 1132,-604 1132,-598 1132,-598 1132,-586 1132,-586 1132,-580 1138,-574 1144,-574 1144,-574 1256,-574 1256,-574 1262,-574 1268,-580 1268,-586 1268,-586 1268,-598 1268,-598 1268,-604 1262,-610 1256,-610"/>
<text text-anchor="start" x="1142" y="-594.4" font-family="DejaVu Sans" font-weight="bold" font-size="12.00" fill="#263238">МІС / EHR / ЕСОЗ</text>
<text text-anchor="start" x="1144.5" y="-584" font-family="DejaVu Sans" font-size="10.00" fill="#263238">[Програмна система]</text>
</g>
<!-- n_3145c0474e62 -->
<g id="node6" class="node">
<title>n_3145c0474e62</title>
<path fill="#c92a2a" stroke="#486581" stroke-width="1.5" d="M1293,-542C1293,-542 1107,-542 1107,-542 1101,-542 1095,-536 1095,-530 1095,-530 1095,-518 1095,-518 1095,-512 1101,-506 1107,-506 1107,-506 1293,-506 1293,-506 1299,-506 1305,-512 1305,-518 1305,-518 1305,-530 1305,-530 1305,-536 1299,-542 1293,-542"/>
<text text-anchor="start" x="1105" y="-526.4" font-family="DejaVu Sans" font-weight="bold" font-size="12.00" fill="#ffffff">Кризова / екстрена служба</text>
<text text-anchor="start" x="1144.5" y="-516" font-family="DejaVu Sans" font-size="10.00" fill="#ffffff">[Програмна система]</text>
</g>
<!-- n_c3da19e3d57e -->
<g id="node7" class="node">
<title>n_c3da19e3d57e</title>
<path fill="#6741d9" stroke="#486581" stroke-width="1.5" d="M1304,-474C1304,-474 1096,-474 1096,-474 1090,-474 1084,-468 1084,-462 1084,-462 1084,-440 1084,-440 1084,-434 1090,-428 1096,-428 1096,-428 1304,-428 1304,-428 1310,-428 1316,-434 1316,-440 1316,-440 1316,-462 1316,-462 1316,-468 1310,-474 1304,-474"/>
<text text-anchor="start" x="1094" y="-459.4" font-family="DejaVu Sans" font-weight="bold" font-size="12.00" fill="#ffffff">Реєстр і середовище моделей</text>
<text text-anchor="start" x="1190" y="-447.4" font-family="DejaVu Sans" font-weight="bold" font-size="12.00" fill="#ffffff">ШІ</text>
<text text-anchor="start" x="1144.5" y="-437" font-family="DejaVu Sans" font-size="10.00" fill="#ffffff">[Програмна система]</text>
</g>
<!-- n_d6434351ba8f -->
<g id="node8" class="node">
<title>n_d6434351ba8f</title>
<path fill="#e9eef4" stroke="#486581" stroke-width="1.5" d="M1292,-396C1292,-396 1108,-396 1108,-396 1102,-396 1096,-390 1096,-384 1096,-384 1096,-362 1096,-362 1096,-356 1102,-350 1108,-350 1108,-350 1292,-350 1292,-350 1298,-350 1304,-356 1304,-362 1304,-362 1304,-384 1304,-384 1304,-390 1298,-396 1292,-396"/>
<text text-anchor="start" x="1106" y="-381.4" font-family="DejaVu Sans" font-weight="bold" font-size="12.00" fill="#263238">Постачальник електронної</text>
<text text-anchor="start" x="1156" y="-369.4" font-family="DejaVu Sans" font-weight="bold" font-size="12.00" fill="#263238">ідентичності</text>
<text text-anchor="start" x="1144.5" y="-359" font-family="DejaVu Sans" font-size="10.00" fill="#263238">[Програмна система]</text>
</g>
<!-- n_9c1b2838ecd8 -->
<g id="node9" class="node">
<title>n_9c1b2838ecd8</title>
<path fill="#8a5a00" stroke="#486581" stroke-width="1.5" d="M190,-601C190,-601 47,-601 47,-601 41,-601 35,-595 35,-589 35,-589 35,-577 35,-577 35,-571 41,-565 47,-565 47,-565 190,-565 190,-565 196,-565 202,-571 202,-577 202,-577 202,-589 202,-589 202,-595 196,-601 190,-601"/>
<text text-anchor="start" x="45" y="-585.4" font-family="DejaVu Sans" font-weight="bold" font-size="12.00" fill="#ffffff">Клінічний методолог</text>
<text text-anchor="start" x="99" y="-575" font-family="DejaVu Sans" font-size="10.00" fill="#ffffff">[Особа]</text>
</g>
<!-- n_9c1b2838ecd8&#45;&gt;n_3c72abbe626f -->
<g id="edge6" class="edge">
<title>n_9c1b2838ecd8&#45;&gt;n_3c72abbe626f</title>
<path fill="none" stroke="#486581" stroke-width="1.4" d="M202.28,-571.4C319.29,-554.99 519,-527 519,-527 519,-527 575.33,-480.23 616.14,-446.34"/>
<polygon fill="#486581" stroke="#486581" stroke-width="1.4" points="618.18,-448.28 622.55,-441.02 614.61,-443.98 618.18,-448.28"/>
<text text-anchor="start" x="298" y="-575.2" font-family="DejaVu Sans" font-size="11.00" fill="#334e68">Формалізує, тестує, погоджує та</text>
<text text-anchor="start" x="337" y="-563.2" font-family="DejaVu Sans" font-size="11.00" fill="#334e68">публікує алгоритми</text>
</g>
<!-- n_dff60b2c2060 -->
<g id="node10" class="node">
<title>n_dff60b2c2060</title>
<path fill="#e9eef4" stroke="#486581" stroke-width="1.5" d="M1283,-318C1283,-318 1117,-318 1117,-318 1111,-318 1105,-312 1105,-306 1105,-306 1105,-294 1105,-294 1105,-288 1111,-282 1117,-282 1117,-282 1283,-282 1283,-282 1289,-282 1295,-288 1295,-294 1295,-294 1295,-306 1295,-306 1295,-312 1289,-318 1283,-318"/>
<text text-anchor="start" x="1115" y="-302.4" font-family="DejaVu Sans" font-weight="bold" font-size="12.00" fill="#263238">Провайдер повідомлень</text>
<text text-anchor="start" x="1144.5" y="-292" font-family="DejaVu Sans" font-size="10.00" fill="#263238">[Програмна система]</text>
</g>
<!-- n_285f9a003f67 -->
<g id="node11" class="node">
<title>n_285f9a003f67</title>
<path fill="#6c4ab6" stroke="#486581" stroke-width="1.5" d="M225,-533C225,-533 12,-533 12,-533 6,-533 0,-527 0,-521 0,-521 0,-509 0,-509 0,-503 6,-497 12,-497 12,-497 225,-497 225,-497 231,-497 237,-503 237,-509 237,-509 237,-521 237,-521 237,-527 231,-533 225,-533"/>
<text text-anchor="start" x="10" y="-517.4" font-family="DejaVu Sans" font-weight="bold" font-size="12.00" fill="#ffffff">Медична сестра / координатор</text>
<text text-anchor="start" x="99" y="-507" font-family="DejaVu Sans" font-size="10.00" fill="#ffffff">[Особа]</text>
</g>
<!-- n_285f9a003f67&#45;&gt;n_3c72abbe626f -->
<g id="edge4" class="edge">
<title>n_285f9a003f67&#45;&gt;n_3c72abbe626f</title>
<path fill="none" stroke="#486581" stroke-width="1.4" d="M237.2,-501.15C355.05,-487.29 519,-468 519,-468 519,-468 547.08,-456.65 577.95,-444.17"/>
<polygon fill="#486581" stroke="#486581" stroke-width="1.4" points="579.04,-446.74 585.41,-441.15 576.94,-441.55 579.04,-446.74"/>
<text text-anchor="start" x="278" y="-510.2" font-family="DejaVu Sans" font-size="11.00" fill="#334e68">Використовує для координації завдань,</text>
<text text-anchor="start" x="293.5" y="-498.2" font-family="DejaVu Sans" font-size="11.00" fill="#334e68">повторних контактів і вимірювань</text>
</g>
<!-- n_b3c512da84fb -->
<g id="node12" class="node">
<title>n_b3c512da84fb</title>
<path fill="#e9eef4" stroke="#486581" stroke-width="1.5" d="M1278,-250C1278,-250 1122,-250 1122,-250 1116,-250 1110,-244 1110,-238 1110,-238 1110,-226 1110,-226 1110,-220 1116,-214 1122,-214 1122,-214 1278,-214 1278,-214 1284,-214 1290,-220 1290,-226 1290,-226 1290,-238 1290,-238 1290,-244 1284,-250 1278,-250"/>
<text text-anchor="start" x="1120" y="-234.4" font-family="DejaVu Sans" font-weight="bold" font-size="12.00" fill="#263238">PACS / DICOM&#45;сховище</text>
<text text-anchor="start" x="1144.5" y="-224" font-family="DejaVu Sans" font-size="10.00" fill="#263238">[Програмна система]</text>
</g>
<!-- n_b1b0b8de8a62 -->
<g id="node13" class="node">
<title>n_b1b0b8de8a62</title>
<path fill="#084c61" stroke="#486581" stroke-width="1.5" d="M143,-465C143,-465 94,-465 94,-465 88,-465 82,-459 82,-453 82,-453 82,-441 82,-441 82,-435 88,-429 94,-429 94,-429 143,-429 143,-429 149,-429 155,-435 155,-441 155,-441 155,-453 155,-453 155,-459 149,-465 143,-465"/>
<text text-anchor="start" x="92" y="-449.4" font-family="DejaVu Sans" font-weight="bold" font-size="12.00" fill="#ffffff">Пацієнт</text>
<text text-anchor="start" x="99" y="-439" font-family="DejaVu Sans" font-size="10.00" fill="#ffffff">[Особа]</text>
</g>
<!-- n_b1b0b8de8a62&#45;&gt;n_3c72abbe626f -->
<g id="edge1" class="edge">
<title>n_b1b0b8de8a62&#45;&gt;n_3c72abbe626f</title>
<path fill="none" stroke="#486581" stroke-width="1.4" d="M155.22,-444.68C233.73,-439.57 424.11,-427.18 546.63,-419.21"/>
<polygon fill="#486581" stroke="#486581" stroke-width="1.4" points="547.16,-421.98 554.96,-418.67 546.8,-416.4 547.16,-421.98"/>
<text text-anchor="start" x="275.5" y="-451.2" font-family="DejaVu Sans" font-size="11.00" fill="#334e68">Використовує для скринінгу, супроводу,</text>
<text text-anchor="start" x="281.5" y="-439.2" font-family="DejaVu Sans" font-size="11.00" fill="#334e68">вимірювань і підготовки до звернення</text>
</g>
<!-- n_3c72abbe626f&#45;&gt;n_b30059fba026 -->
<g id="edge13" class="edge">
<title>n_3c72abbe626f&#45;&gt;n_b30059fba026</title>
<path fill="none" stroke="#486581" stroke-width="1.4" d="M672.28,-441.07C706.57,-519.05 798,-727 798,-727 798,-727 988.5,-762.15 1106.89,-784"/>
<polygon fill="#486581" stroke="#486581" stroke-width="1.4" points="1106.56,-786.79 1114.94,-785.49 1107.58,-781.28 1106.56,-786.79"/>
<text text-anchor="start" x="805.5" y="-787.2" font-family="DejaVu Sans" font-size="11.00" fill="#334e68">Імпортує вихідні документи алгоритмів</text>
<text text-anchor="start" x="858.5" y="-775.2" font-family="DejaVu Sans" font-size="11.00" fill="#334e68">у проєктному контурі</text>
</g>
<!-- n_3c72abbe626f&#45;&gt;n_d41792c094aa -->
<g id="edge15" class="edge">
<title>n_3c72abbe626f&#45;&gt;n_d41792c094aa</title>
<path fill="none" stroke="#486581" stroke-width="1.4" d="M674.85,-441.04C710.91,-509.25 798,-674 798,-674 798,-674 964.26,-696.39 1082.66,-712.33"/>
<polygon fill="#486581" stroke="#486581" stroke-width="1.4" points="1082.45,-715.13 1090.75,-713.42 1083.19,-709.58 1082.45,-715.13"/>
<text text-anchor="start" x="821" y="-710.2" font-family="DejaVu Sans" font-size="11.00" fill="#334e68">Синхронізує події, слоти та візити</text>
</g>
<!-- n_3c72abbe626f&#45;&gt;n_fd9938cf1df8 -->
<g id="edge18" class="edge">
<title>n_3c72abbe626f&#45;&gt;n_fd9938cf1df8</title>
<path fill="none" stroke="#486581" stroke-width="1.4" d="M679.64,-441.37C718.05,-497.4 798,-614 798,-614 798,-614 963.03,-632.93 1081.35,-646.5"/>
<polygon fill="#486581" stroke="#486581" stroke-width="1.4" points="1081.16,-649.3 1089.42,-647.43 1081.8,-643.74 1081.16,-649.3"/>
<text text-anchor="start" x="823.5" y="-657.2" font-family="DejaVu Sans" font-size="11.00" fill="#334e68">Отримує дозволені біосигнали та</text>
<text text-anchor="start" x="831.5" y="-645.2" font-family="DejaVu Sans" font-size="11.00" fill="#334e68">теледіагностичні вимірювання</text>
</g>
<!-- n_3c72abbe626f&#45;&gt;n_3be1d182bd81 -->
<g id="edge10" class="edge">
<title>n_3c72abbe626f&#45;&gt;n_3be1d182bd81</title>
<path fill="none" stroke="#486581" stroke-width="1.4" d="M692.32,-441.15C733.28,-477.52 798,-535 798,-535 798,-535 1007.55,-564.79 1123.69,-581.29"/>
<polygon fill="#486581" stroke="#486581" stroke-width="1.4" points="1123.57,-584.11 1131.88,-582.46 1124.36,-578.56 1123.57,-584.11"/>
<text text-anchor="start" x="817.5" y="-597.2" font-family="DejaVu Sans" font-size="11.00" fill="#334e68">Обмінюється клінічними даними та</text>
<text text-anchor="start" x="818.5" y="-585.2" font-family="DejaVu Sans" font-size="11.00" fill="#334e68">результатами за контрольованими</text>
<text text-anchor="start" x="884" y="-573.2" font-family="DejaVu Sans" font-size="11.00" fill="#334e68">контрактами</text>
</g>
<!-- n_3c72abbe626f&#45;&gt;n_3145c0474e62 -->
<g id="edge17" class="edge">
<title>n_3c72abbe626f&#45;&gt;n_3145c0474e62</title>
<path fill="none" stroke="#486581" stroke-width="1.4" d="M727.94,-441.15C762.83,-456.02 798,-471 798,-471 798,-471 968.22,-493.5 1086.86,-509.18"/>
<polygon fill="#486581" stroke="#486581" stroke-width="1.4" points="1086.65,-511.98 1094.95,-510.25 1087.39,-506.42 1086.65,-511.98"/>
<text text-anchor="start" x="810" y="-518.2" font-family="DejaVu Sans" font-size="11.00" fill="#334e68">Передає підтверджені або формально</text>
<text text-anchor="start" x="841.5" y="-506.2" font-family="DejaVu Sans" font-size="11.00" fill="#334e68">визначені кризові ескалації</text>
</g>
<!-- n_3c72abbe626f&#45;&gt;n_c3da19e3d57e -->
<g id="edge20" class="edge">
<title>n_3c72abbe626f&#45;&gt;n_c3da19e3d57e</title>
<path fill="none" stroke="#486581" stroke-width="1.4" d="M762.25,-419.43C851.37,-425.87 980.58,-435.21 1075.35,-442.06"/>
<polygon fill="#486581" stroke="#486581" stroke-width="1.4" points="1075.36,-444.87 1083.54,-442.65 1075.77,-439.28 1075.36,-444.87"/>
<text text-anchor="start" x="824.5" y="-454.2" font-family="DejaVu Sans" font-size="11.00" fill="#334e68">Викликає дозволені моделі через</text>
<text text-anchor="start" x="847" y="-442.2" font-family="DejaVu Sans" font-size="11.00" fill="#334e68">контрольований ШІ&#45;шлюз</text>
</g>
<!-- n_3c72abbe626f&#45;&gt;n_d6434351ba8f -->
<g id="edge9" class="edge">
<title>n_3c72abbe626f&#45;&gt;n_d6434351ba8f</title>
<path fill="none" stroke="#486581" stroke-width="1.4" d="M762.33,-393.44C782.73,-389.76 798,-387 798,-387 798,-387 969.22,-381.02 1087.9,-376.88"/>
<polygon fill="#486581" stroke="#486581" stroke-width="1.4" points="1088.1,-379.67 1095.99,-376.6 1087.9,-374.08 1088.1,-379.67"/>
<text text-anchor="start" x="810.5" y="-402.2" font-family="DejaVu Sans" font-size="11.00" fill="#334e68">Делегує автентифікацію та перевірку</text>
<text text-anchor="start" x="886.5" y="-390.2" font-family="DejaVu Sans" font-size="11.00" fill="#334e68">рівня довіри</text>
</g>
<!-- n_3c72abbe626f&#45;&gt;n_dff60b2c2060 -->
<g id="edge14" class="edge">
<title>n_3c72abbe626f&#45;&gt;n_dff60b2c2060</title>
<path fill="none" stroke="#486581" stroke-width="1.4" d="M720.65,-382.86C757.75,-365.18 798,-346 798,-346 798,-346 978.09,-325.34 1096.89,-311.71"/>
<polygon fill="#486581" stroke="#486581" stroke-width="1.4" points="1097.35,-314.48 1104.98,-310.78 1096.72,-308.92 1097.35,-314.48"/>
<text text-anchor="start" x="831" y="-361.2" font-family="DejaVu Sans" font-size="11.00" fill="#334e68">Надсилає мінімально необхідні</text>
<text text-anchor="start" x="882" y="-349.2" font-family="DejaVu Sans" font-size="11.00" fill="#334e68">повідомлення</text>
</g>
<!-- n_3c72abbe626f&#45;&gt;n_b3c512da84fb -->
<g id="edge19" class="edge">
<title>n_3c72abbe626f&#45;&gt;n_b3c512da84fb</title>
<path fill="none" stroke="#486581" stroke-width="1.4" d="M691.27,-382.86C732.16,-345.37 798,-285 798,-285 798,-285 982.74,-260.58 1101.43,-244.9"/>
<polygon fill="#486581" stroke="#486581" stroke-width="1.4" points="1101.94,-247.65 1109.51,-243.83 1101.21,-242.1 1101.94,-247.65"/>
<text text-anchor="start" x="798" y="-300.2" font-family="DejaVu Sans" font-size="11.00" fill="#334e68">Обмінюється підтримуваними медичними</text>
<text text-anchor="start" x="879" y="-288.2" font-family="DejaVu Sans" font-size="11.00" fill="#334e68">зображеннями</text>
</g>
<!-- n_0a99d320f3b9 -->
<g id="node15" class="node">
<title>n_0a99d320f3b9</title>
<path fill="#e9eef4" stroke="#486581" stroke-width="1.5" d="M1275,-182C1275,-182 1125,-182 1125,-182 1119,-182 1113,-176 1113,-170 1113,-170 1113,-148 1113,-148 1113,-142 1119,-136 1125,-136 1125,-136 1275,-136 1275,-136 1281,-136 1287,-142 1287,-148 1287,-148 1287,-170 1287,-170 1287,-176 1281,-182 1275,-182"/>
<text text-anchor="start" x="1123" y="-167.4" font-family="DejaVu Sans" font-weight="bold" font-size="12.00" fill="#263238">Репозиторій клінічних</text>
<text text-anchor="start" x="1135.5" y="-155.4" font-family="DejaVu Sans" font-weight="bold" font-size="12.00" fill="#263238">протоколів і знань</text>
<text text-anchor="start" x="1144.5" y="-145" font-family="DejaVu Sans" font-size="10.00" fill="#263238">[Програмна система]</text>
</g>
<!-- n_3c72abbe626f&#45;&gt;n_0a99d320f3b9 -->
<g id="edge12" class="edge">
<title>n_3c72abbe626f&#45;&gt;n_0a99d320f3b9</title>
<path fill="none" stroke="#486581" stroke-width="1.4" d="M680.54,-382.84C719.28,-329.13 798,-220 798,-220 798,-220 986.39,-191.34 1104.92,-173.31"/>
<polygon fill="#486581" stroke="#486581" stroke-width="1.4" points="1105.49,-176.06 1112.98,-172.09 1104.65,-170.52 1105.49,-176.06"/>
<text text-anchor="start" x="819.5" y="-235.2" font-family="DejaVu Sans" font-size="11.00" fill="#334e68">Отримує затверджені протоколи й</text>
<text text-anchor="start" x="878" y="-223.2" font-family="DejaVu Sans" font-size="11.00" fill="#334e68">джерела знань</text>
</g>
<!-- n_8ef8376f7755 -->
<g id="node20" class="node">
<title>n_8ef8376f7755</title>
<path fill="#e9eef4" stroke="#486581" stroke-width="1.5" d="M1291.5,-104C1291.5,-104 1108.5,-104 1108.5,-104 1102.5,-104 1096.5,-98 1096.5,-92 1096.5,-92 1096.5,-80 1096.5,-80 1096.5,-74 1102.5,-68 1108.5,-68 1108.5,-68 1291.5,-68 1291.5,-68 1297.5,-68 1303.5,-74 1303.5,-80 1303.5,-80 1303.5,-92 1303.5,-92 1303.5,-98 1297.5,-104 1291.5,-104"/>
<text text-anchor="start" x="1106.5" y="-88.4" font-family="DejaVu Sans" font-weight="bold" font-size="12.00" fill="#263238">Платформа телемедицини</text>
<text text-anchor="start" x="1144.5" y="-78" font-family="DejaVu Sans" font-size="10.00" fill="#263238">[Програмна система]</text>
</g>
<!-- n_3c72abbe626f&#45;&gt;n_8ef8376f7755 -->
<g id="edge16" class="edge">
<title>n_3c72abbe626f&#45;&gt;n_8ef8376f7755</title>
<path fill="none" stroke="#486581" stroke-width="1.4" d="M674.85,-382.96C710.91,-314.75 798,-150 798,-150 798,-150 969.47,-122.63 1088.16,-103.69"/>
<polygon fill="#486581" stroke="#486581" stroke-width="1.4" points="1088.79,-106.42 1096.25,-102.4 1087.91,-100.89 1088.79,-106.42"/>
<text text-anchor="start" x="831.5" y="-165.2" font-family="DejaVu Sans" font-size="11.00" fill="#334e68">Створює захищені дистанційні</text>
<text text-anchor="start" x="885.5" y="-153.2" font-family="DejaVu Sans" font-size="11.00" fill="#334e68">консультації</text>
</g>
<!-- n_09b340c80e8a -->
<g id="node21" class="node">
<title>n_09b340c80e8a</title>
<path fill="#e9eef4" stroke="#486581" stroke-width="1.5" d="M1266.5,-36C1266.5,-36 1133.5,-36 1133.5,-36 1127.5,-36 1121.5,-30 1121.5,-24 1121.5,-24 1121.5,-12 1121.5,-12 1121.5,-6 1127.5,0 1133.5,0 1133.5,0 1266.5,0 1266.5,0 1272.5,0 1278.5,-6 1278.5,-12 1278.5,-12 1278.5,-24 1278.5,-24 1278.5,-30 1272.5,-36 1266.5,-36"/>
<text text-anchor="start" x="1131.5" y="-20.4" font-family="DejaVu Sans" font-weight="bold" font-size="12.00" fill="#263238">Сервіс термінологій</text>
<text text-anchor="start" x="1144.5" y="-10" font-family="DejaVu Sans" font-size="10.00" fill="#263238">[Програмна система]</text>
</g>
<!-- n_3c72abbe626f&#45;&gt;n_09b340c80e8a -->
<g id="edge11" class="edge">
<title>n_3c72abbe626f&#45;&gt;n_09b340c80e8a</title>
<path fill="none" stroke="#486581" stroke-width="1.4" d="M672.04,-382.95C706.13,-303.93 798,-91 798,-91 798,-91 995.42,-55.06 1113.22,-33.62"/>
<polygon fill="#486581" stroke="#486581" stroke-width="1.4" points="1113.84,-36.35 1121.21,-32.16 1112.84,-30.84 1113.84,-36.35"/>
<text text-anchor="start" x="811" y="-94.2" font-family="DejaVu Sans" font-size="11.00" fill="#334e68">Перевіряє та нормалізує клінічні коди</text>
</g>
<!-- n_f465f9f86773 -->
<g id="node16" class="node">
<title>n_f465f9f86773</title>
<path fill="#6c4ab6" stroke="#486581" stroke-width="1.5" d="M167.5,-397C167.5,-397 69.5,-397 69.5,-397 63.5,-397 57.5,-391 57.5,-385 57.5,-385 57.5,-373 57.5,-373 57.5,-367 63.5,-361 69.5,-361 69.5,-361 167.5,-361 167.5,-361 173.5,-361 179.5,-367 179.5,-373 179.5,-373 179.5,-385 179.5,-385 179.5,-391 173.5,-397 167.5,-397"/>
<text text-anchor="start" x="67.5" y="-381.4" font-family="DejaVu Sans" font-weight="bold" font-size="12.00" fill="#ffffff">Лікар&#45;психіатр</text>
<text text-anchor="start" x="99" y="-371" font-family="DejaVu Sans" font-size="10.00" fill="#ffffff">[Особа]</text>
</g>
<!-- n_f465f9f86773&#45;&gt;n_3c72abbe626f -->
<g id="edge2" class="edge">
<title>n_f465f9f86773&#45;&gt;n_3c72abbe626f</title>
<path fill="none" stroke="#486581" stroke-width="1.4" d="M179.73,-376.65C222.73,-374.96 273,-373 273,-373 273,-373 519,-373 519,-373 519,-373 530.48,-376.23 546.83,-380.84"/>
<polygon fill="#486581" stroke="#486581" stroke-width="1.4" points="546.21,-383.57 554.67,-383.04 547.73,-378.18 546.21,-383.57"/>
<text text-anchor="start" x="281.5" y="-400.2" font-family="DejaVu Sans" font-size="11.00" fill="#334e68">Використовує для оцінювання ризику,</text>
<text text-anchor="start" x="283" y="-388.2" font-family="DejaVu Sans" font-size="11.00" fill="#334e68">підтвердження висновків і керування</text>
<text text-anchor="start" x="360" y="-376.2" font-family="DejaVu Sans" font-size="11.00" fill="#334e68">траєкторією</text>
</g>
<!-- n_487bf0f57271 -->
<g id="node17" class="node">
<title>n_487bf0f57271</title>
<path fill="#6c4ab6" stroke="#486581" stroke-width="1.5" d="M206,-329C206,-329 31,-329 31,-329 25,-329 19,-323 19,-317 19,-317 19,-305 19,-305 19,-299 25,-293 31,-293 31,-293 206,-293 206,-293 212,-293 218,-299 218,-305 218,-305 218,-317 218,-317 218,-323 212,-329 206,-329"/>
<text text-anchor="start" x="29" y="-313.4" font-family="DejaVu Sans" font-weight="bold" font-size="12.00" fill="#ffffff">Психолог / психотерапевт</text>
<text text-anchor="start" x="99" y="-303" font-family="DejaVu Sans" font-size="10.00" fill="#ffffff">[Особа]</text>
</g>
<!-- n_487bf0f57271&#45;&gt;n_3c72abbe626f -->
<g id="edge3" class="edge">
<title>n_487bf0f57271&#45;&gt;n_3c72abbe626f</title>
<path fill="none" stroke="#486581" stroke-width="1.4" d="M218.25,-318.42C336.56,-327.3 519,-341 519,-341 519,-341 557.25,-360.61 593.55,-379.21"/>
<polygon fill="#486581" stroke="#486581" stroke-width="1.4" points="592.37,-381.76 600.77,-382.92 594.93,-376.78 592.37,-381.76"/>
<text text-anchor="start" x="295" y="-356.2" font-family="DejaVu Sans" font-size="11.00" fill="#334e68">Використовує для психологічного</text>
<text text-anchor="start" x="283" y="-344.2" font-family="DejaVu Sans" font-size="11.00" fill="#334e68">оцінювання та планування супроводу</text>
</g>
<!-- n_7e22ea473607 -->
<g id="node18" class="node">
<title>n_7e22ea473607</title>
<path fill="#084c61" stroke="#486581" stroke-width="1.5" d="M190.5,-261C190.5,-261 46.5,-261 46.5,-261 40.5,-261 34.5,-255 34.5,-249 34.5,-249 34.5,-237 34.5,-237 34.5,-231 40.5,-225 46.5,-225 46.5,-225 190.5,-225 190.5,-225 196.5,-225 202.5,-231 202.5,-237 202.5,-237 202.5,-249 202.5,-249 202.5,-255 196.5,-261 190.5,-261"/>
<text text-anchor="start" x="44.5" y="-245.4" font-family="DejaVu Sans" font-weight="bold" font-size="12.00" fill="#ffffff">Аналітик / дослідник</text>
<text text-anchor="start" x="99" y="-235" font-family="DejaVu Sans" font-size="10.00" fill="#ffffff">[Особа]</text>
</g>
<!-- n_7e22ea473607&#45;&gt;n_3c72abbe626f -->
<g id="edge7" class="edge">
<title>n_7e22ea473607&#45;&gt;n_3c72abbe626f</title>
<path fill="none" stroke="#486581" stroke-width="1.4" d="M202.76,-253C319.84,-267.07 519,-291 519,-291 519,-291 576.89,-341.57 617.81,-377.33"/>
<polygon fill="#486581" stroke="#486581" stroke-width="1.4" points="616.11,-379.55 623.97,-382.71 619.79,-375.34 616.11,-379.55"/>
<text text-anchor="start" x="273" y="-306.2" font-family="DejaVu Sans" font-size="11.00" fill="#334e68">Отримує лише дозволені знеособлені або</text>
<text text-anchor="start" x="350" y="-294.2" font-family="DejaVu Sans" font-size="11.00" fill="#334e68">агреговані дані</text>
</g>
<!-- n_c7796133ac1d -->
<g id="node19" class="node">
<title>n_c7796133ac1d</title>
<path fill="#4a5568" stroke="#486581" stroke-width="1.5" d="M217,-193C217,-193 20,-193 20,-193 14,-193 8,-187 8,-181 8,-181 8,-159 8,-159 8,-153 14,-147 20,-147 20,-147 217,-147 217,-147 223,-147 229,-153 229,-159 229,-159 229,-181 229,-181 229,-187 223,-193 217,-193"/>
<text text-anchor="start" x="18" y="-178.4" font-family="DejaVu Sans" font-weight="bold" font-size="12.00" fill="#ffffff">Адміністратор платформи та</text>
<text text-anchor="start" x="90" y="-166.4" font-family="DejaVu Sans" font-weight="bold" font-size="12.00" fill="#ffffff">безпеки</text>
<text text-anchor="start" x="99" y="-156" font-family="DejaVu Sans" font-size="10.00" fill="#ffffff">[Особа]</text>
</g>
<!-- n_c7796133ac1d&#45;&gt;n_3c72abbe626f -->
<g id="edge8" class="edge">
<title>n_c7796133ac1d&#45;&gt;n_3c72abbe626f</title>
<path fill="none" stroke="#486581" stroke-width="1.4" d="M229.19,-186.47C347.46,-204.24 519,-230 519,-230 519,-230 589.9,-323.17 630.25,-376.19"/>
<polygon fill="#486581" stroke="#486581" stroke-width="1.4" points="628.17,-378.09 635.25,-382.76 632.63,-374.7 628.17,-378.09"/>
<text text-anchor="start" x="315.5" y="-245.2" font-family="DejaVu Sans" font-size="11.00" fill="#334e68">Адмініструє доступ, аудит,</text>
<text text-anchor="start" x="289" y="-233.2" font-family="DejaVu Sans" font-size="11.00" fill="#334e68">конфігурацію та спостережуваність</text>
</g>
</g>
</svg>
