<?xml version="1.0" encoding="UTF-8" standalone="no"?>
<!DOCTYPE svg PUBLIC "-//W3C//DTD SVG 1.1//EN"
 "http://www.w3.org/Graphics/SVG/1.1/DTD/svg11.dtd">
<!-- Generated by graphviz version 2.42.4 (0)
 -->
<!-- Title: G Pages: 1 -->
<svg width="3586pt" height="777pt"
 viewBox="0.00 0.00 3586.40 777.40" xmlns="http://www.w3.org/2000/svg" xmlns:xlink="http://www.w3.org/1999/xlink">
<g id="graph0" class="graph" transform="scale(1 1) rotate(0) translate(25.2 752.2)">
<title>G</title>
<polygon fill="white" stroke="transparent" points="-25.2,25.2 -25.2,-752.2 3561.2,-752.2 3561.2,25.2 -25.2,25.2"/>
<text text-anchor="start" x="149.5" y="-712.8" font-family="DejaVu Sans" font-weight="bold" font-size="14.00">C2.04 — Життєвий цикл алгоритмів</text>
<text text-anchor="start" x="8" y="-700.4" font-family="DejaVu Sans" font-size="12.00">Контейнери проєктування, перевірки, публікації, виконання та відкликання універсальних</text>
<text text-anchor="start" x="223" y="-688.4" font-family="DejaVu Sans" font-size="12.00">визначень алгоритмів.</text>
<g id="clust1" class="cluster">
<title>cluster_scope</title>
<path fill="white" stroke="#0a6ebd" stroke-width="2.2" d="M536,-59C536,-59 3516,-59 3516,-59 3522,-59 3528,-65 3528,-71 3528,-71 3528,-455 3528,-455 3528,-461 3522,-467 3516,-467 3516,-467 536,-467 536,-467 530,-467 524,-461 524,-455 524,-455 524,-71 524,-71 524,-65 530,-59 536,-59"/>
<text text-anchor="start" x="532" y="-452.8" font-family="DejaVu Sans" font-weight="bold" font-size="14.00">Платформа реалізації психіатричних сценаріїв та алгоритмів</text>
</g>
<!-- n_ace1c56edb4b -->
<g id="node1" class="node">
<title>n_ace1c56edb4b</title>
<path fill="#edf2f7" stroke="#486581" stroke-width="1.5" d="M2393.5,-353.02C2393.5,-355.36 2346.89,-357.25 2289.5,-357.25 2232.11,-357.25 2185.5,-355.36 2185.5,-353.02 2185.5,-353.02 2185.5,-314.98 2185.5,-314.98 2185.5,-312.64 2232.11,-310.75 2289.5,-310.75 2346.89,-310.75 2393.5,-312.64 2393.5,-314.98 2393.5,-314.98 2393.5,-353.02 2393.5,-353.02"/>
<path fill="none" stroke="#486581" stroke-width="1.5" d="M2393.5,-353.02C2393.5,-350.69 2346.89,-348.8 2289.5,-348.8 2232.11,-348.8 2185.5,-350.69 2185.5,-353.02"/>
<text text-anchor="start" x="2226" y="-336.4" font-family="DejaVu Sans" font-weight="bold" font-size="12.00" fill="#1a202c">Реєстр алгоритмів</text>
<text text-anchor="start" x="2195.5" y="-326" font-family="DejaVu Sans" font-size="10.00" fill="#1a202c">[Сховище даних · Versioned registry]</text>
</g>
<!-- n_d23827c92006 -->
<g id="node2" class="node">
<title>n_d23827c92006</title>
<path fill="#8a5a00" stroke="#486581" stroke-width="1.5" d="M692,-293C692,-293 544,-293 544,-293 538,-293 532,-287 532,-281 532,-281 532,-259 532,-259 532,-253 538,-247 544,-247 544,-247 692,-247 692,-247 698,-247 704,-253 704,-259 704,-259 704,-281 704,-281 704,-287 698,-293 692,-293"/>
<text text-anchor="start" x="551.5" y="-278.4" font-family="DejaVu Sans" font-weight="bold" font-size="12.00" fill="#ffffff">Студія алгоритмів і</text>
<text text-anchor="start" x="579.5" y="-266.4" font-family="DejaVu Sans" font-weight="bold" font-size="12.00" fill="#ffffff">протоколів</text>
<text text-anchor="start" x="542" y="-256" font-family="DejaVu Sans" font-size="10.00" fill="#ffffff">[Контейнер · Web application]</text>
</g>
<!-- n_d23827c92006&#45;&gt;n_ace1c56edb4b -->
<g id="edge14" class="edge">
<title>n_d23827c92006&#45;&gt;n_ace1c56edb4b</title>
<path fill="none" stroke="#486581" stroke-width="1.4" d="M704.02,-281.24C724.2,-283.91 740,-286 740,-286 740,-286 1868,-324 1868,-324 1868,-324 2052.67,-328.39 2177.25,-331.35"/>
<polygon fill="#486581" stroke="#486581" stroke-width="1.4" points="2177.3,-334.16 2185.36,-331.55 2177.43,-328.56 2177.3,-334.16"/>
<text text-anchor="start" x="1298.5" y="-327.2" font-family="DejaVu Sans" font-size="11.00" fill="#334e68">Публікує лише погоджені, підписані й</text>
<text text-anchor="start" x="1354" y="-315.2" font-family="DejaVu Sans" font-size="11.00" fill="#334e68">протестовані версії</text>
</g>
<!-- n_384146de0c5d -->
<g id="node3" class="node">
<title>n_384146de0c5d</title>
<path fill="#f4f7fa" stroke="#486581" stroke-width="1.5" d="M1243,-224C1243,-224 1033,-224 1033,-224 1027,-224 1021,-218 1021,-212 1021,-212 1021,-200 1021,-200 1021,-194 1027,-188 1033,-188 1033,-188 1243,-188 1243,-188 1249,-188 1255,-194 1255,-200 1255,-200 1255,-212 1255,-212 1255,-218 1249,-224 1243,-224"/>
<text text-anchor="start" x="1084.5" y="-208.4" font-family="DejaVu Sans" font-weight="bold" font-size="12.00" fill="#18324a">API&#45;шлюз і BFF</text>
<text text-anchor="start" x="1031" y="-198" font-family="DejaVu Sans" font-size="10.00" fill="#18324a">[Контейнер · Reverse proxy / API gateway]</text>
</g>
<!-- n_d23827c92006&#45;&gt;n_384146de0c5d -->
<g id="edge4" class="edge">
<title>n_d23827c92006&#45;&gt;n_384146de0c5d</title>
<path fill="none" stroke="#486581" stroke-width="1.4" d="M704.25,-259.47C788.19,-249.1 917.32,-233.14 1012.69,-221.36"/>
<polygon fill="#486581" stroke="#486581" stroke-width="1.4" points="1013.06,-224.13 1020.65,-220.37 1012.37,-218.58 1013.06,-224.13"/>
<text text-anchor="start" x="740" y="-269.2" font-family="DejaVu Sans" font-size="11.00" fill="#334e68">Викликає адміністративне API життєвого</text>
<text text-anchor="start" x="810" y="-257.2" font-family="DejaVu Sans" font-size="11.00" fill="#334e68">циклу алгоритмів</text>
</g>
<!-- n_5f5685eeff97 -->
<g id="node4" class="node">
<title>n_5f5685eeff97</title>
<path fill="#4a5568" stroke="#486581" stroke-width="1.5" d="M2955,-245C2955,-245 2733,-245 2733,-245 2727,-245 2721,-239 2721,-233 2721,-233 2721,-211 2721,-211 2721,-205 2727,-199 2733,-199 2733,-199 2955,-199 2955,-199 2961,-199 2967,-205 2967,-211 2967,-211 2967,-233 2967,-233 2967,-239 2961,-245 2955,-245"/>
<text text-anchor="start" x="2786" y="-230.4" font-family="DejaVu Sans" font-weight="bold" font-size="12.00" fill="#ffffff">Сервіс аудиту та</text>
<text text-anchor="start" x="2778.5" y="-218.4" font-family="DejaVu Sans" font-weight="bold" font-size="12.00" fill="#ffffff">спостережуваності</text>
<text text-anchor="start" x="2731" y="-208" font-family="DejaVu Sans" font-size="10.00" fill="#ffffff">[Контейнер · Audit and observability service]</text>
</g>
<!-- n_d23827c92006&#45;&gt;n_5f5685eeff97 -->
<g id="edge16" class="edge">
<title>n_d23827c92006&#45;&gt;n_5f5685eeff97</title>
<path fill="none" stroke="#486581" stroke-width="1.4" d="M670.67,-246.94C703.55,-232.27 740,-216 740,-216 740,-216 1021,-172 1021,-172 1021,-172 1568,-107 1568,-107 1568,-107 1868,-91 1868,-91 1868,-91 2132,-91 2132,-91 2132,-91 2685,-152 2685,-152 2685,-152 2738.66,-175.78 2783.44,-195.61"/>
<polygon fill="#486581" stroke="#486581" stroke-width="1.4" points="2782.38,-198.2 2790.83,-198.89 2784.65,-193.08 2782.38,-198.2"/>
<text text-anchor="start" x="1582.5" y="-122.2" font-family="DejaVu Sans" font-size="11.00" fill="#334e68">Реєструє зміни, перевірки, погодження</text>
<text text-anchor="start" x="1666.5" y="-110.2" font-family="DejaVu Sans" font-size="11.00" fill="#334e68">та випуски</text>
</g>
<!-- n_da26d52269a5 -->
<g id="node6" class="node">
<title>n_da26d52269a5</title>
<path fill="#c05621" stroke="#486581" stroke-width="1.5" d="M2377.5,-432.02C2377.5,-434.36 2338.06,-436.25 2289.5,-436.25 2240.94,-436.25 2201.5,-434.36 2201.5,-432.02 2201.5,-432.02 2201.5,-393.98 2201.5,-393.98 2201.5,-391.64 2240.94,-389.75 2289.5,-389.75 2338.06,-389.75 2377.5,-391.64 2377.5,-393.98 2377.5,-393.98 2377.5,-432.02 2377.5,-432.02"/>
<path fill="none" stroke="#486581" stroke-width="1.5" d="M2377.5,-432.02C2377.5,-429.69 2338.06,-427.8 2289.5,-427.8 2240.94,-427.8 2201.5,-429.69 2201.5,-432.02"/>
<text text-anchor="start" x="2211.5" y="-415.4" font-family="DejaVu Sans" font-weight="bold" font-size="12.00" fill="#ffffff">Шина доменних подій</text>
<text text-anchor="start" x="2221.5" y="-405" font-family="DejaVu Sans" font-size="10.00" fill="#ffffff">[Контейнер · Event broker]</text>
</g>
<!-- n_d23827c92006&#45;&gt;n_da26d52269a5 -->
<g id="edge15" class="edge">
<title>n_d23827c92006&#45;&gt;n_da26d52269a5</title>
<path fill="none" stroke="#486581" stroke-width="1.4" d="M704.02,-290.38C724.2,-295.21 740,-299 740,-299 740,-299 1868,-403 1868,-403 1868,-403 2069.27,-407.79 2193.32,-410.74"/>
<polygon fill="#486581" stroke="#486581" stroke-width="1.4" points="2193.31,-413.54 2201.37,-410.93 2193.44,-407.94 2193.31,-413.54"/>
<text text-anchor="start" x="1298.5" y="-385.2" font-family="DejaVu Sans" font-size="11.00" fill="#334e68">Публікує події публікації, відкликання</text>
<text text-anchor="start" x="1342" y="-373.2" font-family="DejaVu Sans" font-size="11.00" fill="#334e68">та закінчення чинності</text>
</g>
<!-- n_b30059fba026 -->
<g id="node9" class="node">
<title>n_b30059fba026</title>
<path fill="#e9eef4" stroke="#486581" stroke-width="1.5" d="M1211,-51C1211,-51 1065,-51 1065,-51 1059,-51 1053,-45 1053,-39 1053,-39 1053,-17 1053,-17 1053,-11 1059,-5 1065,-5 1065,-5 1211,-5 1211,-5 1217,-5 1223,-11 1223,-17 1223,-17 1223,-39 1223,-39 1223,-45 1217,-51 1211,-51"/>
<text text-anchor="start" x="1063" y="-36.4" font-family="DejaVu Sans" font-weight="bold" font-size="12.00" fill="#263238">Репозиторій вихідних</text>
<text text-anchor="start" x="1100" y="-24.4" font-family="DejaVu Sans" font-weight="bold" font-size="12.00" fill="#263238">алгоритмів</text>
<text text-anchor="start" x="1082.5" y="-14" font-family="DejaVu Sans" font-size="10.00" fill="#263238">[Програмна система]</text>
</g>
<!-- n_d23827c92006&#45;&gt;n_b30059fba026 -->
<g id="edge13" class="edge">
<title>n_d23827c92006&#45;&gt;n_b30059fba026</title>
<path fill="none" stroke="#486581" stroke-width="1.4" d="M632.65,-247C664.29,-193.64 740,-66 740,-66 740,-66 927.55,-48.05 1044.84,-36.82"/>
<polygon fill="#486581" stroke="#486581" stroke-width="1.4" points="1045.11,-39.61 1052.81,-36.06 1044.58,-34.03 1045.11,-39.61"/>
<text text-anchor="start" x="768.5" y="-81.2" font-family="DejaVu Sans" font-size="11.00" fill="#334e68">Імпортує проєктні документи зі</text>
<text text-anchor="start" x="784" y="-69.2" font-family="DejaVu Sans" font-size="11.00" fill="#334e68">збереженням походження</text>
</g>
<!-- n_384146de0c5d&#45;&gt;n_5f5685eeff97 -->
<g id="edge7" class="edge">
<title>n_384146de0c5d&#45;&gt;n_5f5685eeff97</title>
<path fill="none" stroke="#486581" stroke-width="1.4" d="M1255.2,-207.05C1614.74,-210.31 2685,-220 2685,-220 2685,-220 2696.11,-220.14 2712.44,-220.35"/>
<polygon fill="#486581" stroke="#486581" stroke-width="1.4" points="2712.82,-223.15 2720.85,-220.45 2712.89,-217.55 2712.82,-223.15"/>
<text text-anchor="start" x="1879.5" y="-229.2" font-family="DejaVu Sans" font-size="11.00" fill="#334e68">Реєструє доступ і результат оброблення</text>
<text text-anchor="start" x="1979" y="-217.2" font-family="DejaVu Sans" font-size="11.00" fill="#334e68">запиту</text>
</g>
<!-- n_dcb3f876e224 -->
<g id="node7" class="node">
<title>n_dcb3f876e224</title>
<path fill="#f4f7fa" stroke="#486581" stroke-width="1.5" d="M2120,-153C2120,-153 1880,-153 1880,-153 1874,-153 1868,-147 1868,-141 1868,-141 1868,-119 1868,-119 1868,-113 1874,-107 1880,-107 1880,-107 2120,-107 2120,-107 2126,-107 2132,-113 2132,-119 2132,-119 2132,-141 2132,-141 2132,-147 2126,-153 2120,-153"/>
<text text-anchor="start" x="1900.5" y="-138.4" font-family="DejaVu Sans" font-weight="bold" font-size="12.00" fill="#18324a">Сервіс ідентичності, доступу</text>
<text text-anchor="start" x="1974.5" y="-126.4" font-family="DejaVu Sans" font-weight="bold" font-size="12.00" fill="#18324a">та згод</text>
<text text-anchor="start" x="1878" y="-116" font-family="DejaVu Sans" font-size="10.00" fill="#18324a">[Контейнер · OIDC, RBAC/ABAC, consent service]</text>
</g>
<!-- n_384146de0c5d&#45;&gt;n_dcb3f876e224 -->
<g id="edge5" class="edge">
<title>n_384146de0c5d&#45;&gt;n_dcb3f876e224</title>
<path fill="none" stroke="#486581" stroke-width="1.4" d="M1213.22,-187.93C1251.8,-178.54 1291,-169 1291,-169 1291,-169 1653.49,-149.03 1859.72,-137.67"/>
<polygon fill="#486581" stroke="#486581" stroke-width="1.4" points="1860.07,-140.46 1867.9,-137.22 1859.76,-134.87 1860.07,-140.46"/>
<text text-anchor="start" x="1291" y="-172.2" font-family="DejaVu Sans" font-size="11.00" fill="#334e68">Перевіряє сесію, повноваження та згоду</text>
</g>
<!-- n_78e6a86e3609 -->
<g id="node8" class="node">
<title>n_78e6a86e3609</title>
<path fill="#2b6cb0" stroke="#c92a2a" stroke-width="3" d="M1820,-285C1820,-285 1580,-285 1580,-285 1574,-285 1568,-279 1568,-273 1568,-273 1568,-251 1568,-251 1568,-245 1574,-239 1580,-239 1580,-239 1820,-239 1820,-239 1826,-239 1832,-245 1832,-251 1832,-251 1832,-273 1832,-273 1832,-279 1826,-285 1820,-285"/>
<text text-anchor="start" x="1621" y="-270.4" font-family="DejaVu Sans" font-weight="bold" font-size="12.00" fill="#ffffff">Детермінований рушій</text>
<text text-anchor="start" x="1668" y="-258.4" font-family="DejaVu Sans" font-weight="bold" font-size="12.00" fill="#ffffff">сценаріїв</text>
<text text-anchor="start" x="1578" y="-248" font-family="DejaVu Sans" font-size="10.00" fill="#ffffff">[Контейнер · Rules engine / finite&#45;state machine]</text>
</g>
<!-- n_384146de0c5d&#45;&gt;n_78e6a86e3609 -->
<g id="edge6" class="edge">
<title>n_384146de0c5d&#45;&gt;n_78e6a86e3609</title>
<path fill="none" stroke="#486581" stroke-width="1.4" d="M1255.03,-217.6C1343.6,-226.46 1465.95,-238.69 1559.79,-248.08"/>
<polygon fill="#486581" stroke="#486581" stroke-width="1.4" points="1559.68,-250.88 1567.92,-248.89 1560.24,-245.31 1559.68,-250.88"/>
<text text-anchor="start" x="1293" y="-258.2" font-family="DejaVu Sans" font-size="11.00" fill="#334e68">Передає типізовані команди виконання</text>
<text text-anchor="start" x="1384.5" y="-246.2" font-family="DejaVu Sans" font-size="11.00" fill="#334e68">сценарію</text>
</g>
<!-- n_e37cdb3e9f92 -->
<g id="node5" class="node">
<title>n_e37cdb3e9f92</title>
<path fill="#edf2f7" stroke="#486581" stroke-width="1.5" d="M3520,-241.02C3520,-243.36 3461.28,-245.25 3389,-245.25 3316.72,-245.25 3258,-243.36 3258,-241.02 3258,-241.02 3258,-202.98 3258,-202.98 3258,-200.64 3316.72,-198.75 3389,-198.75 3461.28,-198.75 3520,-200.64 3520,-202.98 3520,-202.98 3520,-241.02 3520,-241.02"/>
<path fill="none" stroke="#486581" stroke-width="1.5" d="M3520,-241.02C3520,-238.69 3461.28,-236.8 3389,-236.8 3316.72,-236.8 3258,-238.69 3258,-241.02"/>
<text text-anchor="start" x="3298.5" y="-224.4" font-family="DejaVu Sans" font-weight="bold" font-size="12.00" fill="#1a202c">Незмінне сховище аудиту</text>
<text text-anchor="start" x="3268" y="-214" font-family="DejaVu Sans" font-size="10.00" fill="#1a202c">[Сховище даних · WORM / append&#45;only storage]</text>
</g>
<!-- n_5f5685eeff97&#45;&gt;n_e37cdb3e9f92 -->
<g id="edge18" class="edge">
<title>n_5f5685eeff97&#45;&gt;n_e37cdb3e9f92</title>
<path fill="none" stroke="#486581" stroke-width="1.4" d="M2967.2,-222C3051.05,-222 3162.49,-222 3249.61,-222"/>
<polygon fill="#486581" stroke="#486581" stroke-width="1.4" points="3249.7,-224.8 3257.7,-222 3249.7,-219.2 3249.7,-224.8"/>
<text text-anchor="start" x="3003" y="-237.2" font-family="DejaVu Sans" font-size="11.00" fill="#334e68">Записує незмінні події та контрольні</text>
<text text-anchor="start" x="3098" y="-225.2" font-family="DejaVu Sans" font-size="11.00" fill="#334e68">суми</text>
</g>
<!-- n_da26d52269a5&#45;&gt;n_5f5685eeff97 -->
<g id="edge17" class="edge">
<title>n_da26d52269a5&#45;&gt;n_5f5685eeff97</title>
<path fill="none" stroke="#486581" stroke-width="1.4" d="M2357.8,-390.66C2385.4,-381.5 2411,-373 2411,-373 2411,-373 2645.96,-290.87 2769.32,-247.75"/>
<polygon fill="#486581" stroke="#486581" stroke-width="1.4" points="2770.29,-250.38 2776.92,-245.1 2768.44,-245.09 2770.29,-250.38"/>
<text text-anchor="start" x="2447" y="-375.2" font-family="DejaVu Sans" font-size="11.00" fill="#334e68">Доставляє доменні події для незмінного</text>
<text text-anchor="start" x="2540" y="-363.2" font-family="DejaVu Sans" font-size="11.00" fill="#334e68">журналу</text>
</g>
<!-- n_dcb3f876e224&#45;&gt;n_5f5685eeff97 -->
<g id="edge9" class="edge">
<title>n_dcb3f876e224&#45;&gt;n_5f5685eeff97</title>
<path fill="none" stroke="#486581" stroke-width="1.4" d="M2132.14,-138.64C2252.09,-146.54 2411,-157 2411,-157 2411,-157 2685,-181 2685,-181 2685,-181 2713.53,-188.4 2746.34,-196.92"/>
<polygon fill="#486581" stroke="#486581" stroke-width="1.4" points="2745.85,-199.68 2754.3,-198.98 2747.26,-194.26 2745.85,-199.68"/>
<text text-anchor="start" x="2175" y="-172.2" font-family="DejaVu Sans" font-size="11.00" fill="#334e68">Реєструє рішення авторизації та зміни</text>
<text text-anchor="start" x="2276" y="-160.2" font-family="DejaVu Sans" font-size="11.00" fill="#334e68">згод</text>
</g>
<!-- n_d6434351ba8f -->
<g id="node10" class="node">
<title>n_d6434351ba8f</title>
<path fill="#e9eef4" stroke="#486581" stroke-width="1.5" d="M2658,-46C2658,-46 2474,-46 2474,-46 2468,-46 2462,-40 2462,-34 2462,-34 2462,-12 2462,-12 2462,-6 2468,0 2474,0 2474,0 2658,0 2658,0 2664,0 2670,-6 2670,-12 2670,-12 2670,-34 2670,-34 2670,-40 2664,-46 2658,-46"/>
<text text-anchor="start" x="2472" y="-31.4" font-family="DejaVu Sans" font-weight="bold" font-size="12.00" fill="#263238">Постачальник електронної</text>
<text text-anchor="start" x="2522" y="-19.4" font-family="DejaVu Sans" font-weight="bold" font-size="12.00" fill="#263238">ідентичності</text>
<text text-anchor="start" x="2510.5" y="-9" font-family="DejaVu Sans" font-size="10.00" fill="#263238">[Програмна система]</text>
</g>
<!-- n_dcb3f876e224&#45;&gt;n_d6434351ba8f -->
<g id="edge8" class="edge">
<title>n_dcb3f876e224&#45;&gt;n_d6434351ba8f</title>
<path fill="none" stroke="#486581" stroke-width="1.4" d="M2079.61,-106.93C2122.92,-94.23 2168,-81 2168,-81 2168,-81 2336.52,-56.38 2453.98,-39.22"/>
<polygon fill="#486581" stroke="#486581" stroke-width="1.4" points="2454.48,-41.98 2461.99,-38.05 2453.67,-36.44 2454.48,-41.98"/>
<text text-anchor="start" x="2168" y="-84.2" font-family="DejaVu Sans" font-size="11.00" fill="#334e68">Федеративно автентифікує користувача</text>
</g>
<!-- n_78e6a86e3609&#45;&gt;n_ace1c56edb4b -->
<g id="edge10" class="edge">
<title>n_78e6a86e3609&#45;&gt;n_ace1c56edb4b</title>
<path fill="none" stroke="#486581" stroke-width="1.4" d="M1832.07,-272.34C1958.87,-282.34 2132,-296 2132,-296 2132,-296 2158.84,-302.52 2190.29,-310.15"/>
<polygon fill="#486581" stroke="#486581" stroke-width="1.4" points="2189.94,-312.95 2198.37,-312.12 2191.26,-307.51 2189.94,-312.95"/>
<text text-anchor="start" x="1891.5" y="-311.2" font-family="DejaVu Sans" font-size="11.00" fill="#334e68">Завантажує підписану опубліковану</text>
<text text-anchor="start" x="1944" y="-299.2" font-family="DejaVu Sans" font-size="11.00" fill="#334e68">версію визначення</text>
</g>
<!-- n_78e6a86e3609&#45;&gt;n_5f5685eeff97 -->
<g id="edge12" class="edge">
<title>n_78e6a86e3609&#45;&gt;n_5f5685eeff97</title>
<path fill="none" stroke="#486581" stroke-width="1.4" d="M1832,-257.41C2052.06,-249.7 2493.35,-234.25 2712.84,-226.56"/>
<polygon fill="#486581" stroke="#486581" stroke-width="1.4" points="2712.98,-229.36 2720.87,-226.28 2712.78,-223.76 2712.98,-229.36"/>
<text text-anchor="start" x="2180.5" y="-260.2" font-family="DejaVu Sans" font-size="11.00" fill="#334e68">Фіксує версію, введення, правило та</text>
<text text-anchor="start" x="2223" y="-248.2" font-family="DejaVu Sans" font-size="11.00" fill="#334e68">результат обчислення</text>
</g>
<!-- n_78e6a86e3609&#45;&gt;n_da26d52269a5 -->
<g id="edge11" class="edge">
<title>n_78e6a86e3609&#45;&gt;n_da26d52269a5</title>
<path fill="none" stroke="#486581" stroke-width="1.4" d="M1759.41,-285.08C1807.57,-304.12 1868,-328 1868,-328 1868,-328 2132,-375 2132,-375 2132,-375 2160.5,-381.92 2193.17,-389.85"/>
<polygon fill="#486581" stroke="#486581" stroke-width="1.4" points="2192.66,-392.61 2201.1,-391.78 2193.99,-387.17 2192.66,-392.61"/>
<text text-anchor="start" x="1889.5" y="-390.2" font-family="DejaVu Sans" font-size="11.00" fill="#334e68">Публікує події результату, прапорця,</text>
<text text-anchor="start" x="1936.5" y="-378.2" font-family="DejaVu Sans" font-size="11.00" fill="#334e68">паузи та завершення</text>
</g>
<!-- n_9c1b2838ecd8 -->
<g id="node11" class="node">
<title>n_9c1b2838ecd8</title>
<path fill="#8a5a00" stroke="#486581" stroke-width="1.5" d="M182,-288C182,-288 39,-288 39,-288 33,-288 27,-282 27,-276 27,-276 27,-264 27,-264 27,-258 33,-252 39,-252 39,-252 182,-252 182,-252 188,-252 194,-258 194,-264 194,-264 194,-276 194,-276 194,-282 188,-288 182,-288"/>
<text text-anchor="start" x="37" y="-272.4" font-family="DejaVu Sans" font-weight="bold" font-size="12.00" fill="#ffffff">Клінічний методолог</text>
<text text-anchor="start" x="91" y="-262" font-family="DejaVu Sans" font-size="10.00" fill="#ffffff">[Особа]</text>
</g>
<!-- n_9c1b2838ecd8&#45;&gt;n_d23827c92006 -->
<g id="edge1" class="edge">
<title>n_9c1b2838ecd8&#45;&gt;n_d23827c92006</title>
<path fill="none" stroke="#486581" stroke-width="1.4" d="M194.12,-270C284.57,-270 429.25,-270 523.71,-270"/>
<polygon fill="#486581" stroke="#486581" stroke-width="1.4" points="523.84,-272.8 531.84,-270 523.84,-267.2 523.84,-272.8"/>
<text text-anchor="start" x="284.5" y="-285.2" font-family="DejaVu Sans" font-size="11.00" fill="#334e68">Створює і погоджує формальні</text>
<text text-anchor="start" x="307" y="-273.2" font-family="DejaVu Sans" font-size="11.00" fill="#334e68">визначення алгоритмів</text>
</g>
<!-- n_0a99d320f3b9 -->
<g id="node12" class="node">
<title>n_0a99d320f3b9</title>
<path fill="#e9eef4" stroke="#486581" stroke-width="1.5" d="M185.5,-477C185.5,-477 35.5,-477 35.5,-477 29.5,-477 23.5,-471 23.5,-465 23.5,-465 23.5,-443 23.5,-443 23.5,-437 29.5,-431 35.5,-431 35.5,-431 185.5,-431 185.5,-431 191.5,-431 197.5,-437 197.5,-443 197.5,-443 197.5,-465 197.5,-465 197.5,-471 191.5,-477 185.5,-477"/>
<text text-anchor="start" x="33.5" y="-462.4" font-family="DejaVu Sans" font-weight="bold" font-size="12.00" fill="#263238">Репозиторій клінічних</text>
<text text-anchor="start" x="46" y="-450.4" font-family="DejaVu Sans" font-weight="bold" font-size="12.00" fill="#263238">протоколів і знань</text>
<text text-anchor="start" x="55" y="-440" font-family="DejaVu Sans" font-size="10.00" fill="#263238">[Програмна система]</text>
</g>
<!-- n_f465f9f86773 -->
<g id="node13" class="node">
<title>n_f465f9f86773</title>
<path fill="#6c4ab6" stroke="#486581" stroke-width="1.5" d="M159.5,-545C159.5,-545 61.5,-545 61.5,-545 55.5,-545 49.5,-539 49.5,-533 49.5,-533 49.5,-521 49.5,-521 49.5,-515 55.5,-509 61.5,-509 61.5,-509 159.5,-509 159.5,-509 165.5,-509 171.5,-515 171.5,-521 171.5,-521 171.5,-533 171.5,-533 171.5,-539 165.5,-545 159.5,-545"/>
<text text-anchor="start" x="59.5" y="-529.4" font-family="DejaVu Sans" font-weight="bold" font-size="12.00" fill="#ffffff">Лікар&#45;психіатр</text>
<text text-anchor="start" x="91" y="-519" font-family="DejaVu Sans" font-size="10.00" fill="#ffffff">[Особа]</text>
</g>
<!-- n_487bf0f57271 -->
<g id="node14" class="node">
<title>n_487bf0f57271</title>
<path fill="#6c4ab6" stroke="#486581" stroke-width="1.5" d="M198,-613C198,-613 23,-613 23,-613 17,-613 11,-607 11,-601 11,-601 11,-589 11,-589 11,-583 17,-577 23,-577 23,-577 198,-577 198,-577 204,-577 210,-583 210,-589 210,-589 210,-601 210,-601 210,-607 204,-613 198,-613"/>
<text text-anchor="start" x="21" y="-597.4" font-family="DejaVu Sans" font-weight="bold" font-size="12.00" fill="#ffffff">Психолог / психотерапевт</text>
<text text-anchor="start" x="91" y="-587" font-family="DejaVu Sans" font-size="10.00" fill="#ffffff">[Особа]</text>
</g>
<!-- n_c7796133ac1d -->
<g id="node15" class="node">
<title>n_c7796133ac1d</title>
<path fill="#4a5568" stroke="#486581" stroke-width="1.5" d="M209,-399C209,-399 12,-399 12,-399 6,-399 0,-393 0,-387 0,-387 0,-365 0,-365 0,-359 6,-353 12,-353 12,-353 209,-353 209,-353 215,-353 221,-359 221,-365 221,-365 221,-387 221,-387 221,-393 215,-399 209,-399"/>
<text text-anchor="start" x="10" y="-384.4" font-family="DejaVu Sans" font-weight="bold" font-size="12.00" fill="#ffffff">Адміністратор платформи та</text>
<text text-anchor="start" x="82" y="-372.4" font-family="DejaVu Sans" font-weight="bold" font-size="12.00" fill="#ffffff">безпеки</text>
<text text-anchor="start" x="91" y="-362" font-family="DejaVu Sans" font-size="10.00" fill="#ffffff">[Особа]</text>
</g>
<!-- n_c7796133ac1d&#45;&gt;n_d23827c92006 -->
<g id="edge3" class="edge">
<title>n_c7796133ac1d&#45;&gt;n_d23827c92006</title>
<path fill="none" stroke="#486581" stroke-width="1.4" d="M221.17,-354.89C334.82,-333.02 496,-302 496,-302 496,-302 507.88,-298.86 524.19,-294.54"/>
<polygon fill="#486581" stroke="#486581" stroke-width="1.4" points="524.96,-297.24 531.98,-292.49 523.53,-291.82 524.96,-297.24"/>
<text text-anchor="start" x="257" y="-362.2" font-family="DejaVu Sans" font-size="11.00" fill="#334e68">Керує технічними політиками публікації</text>
<text text-anchor="start" x="331" y="-350.2" font-family="DejaVu Sans" font-size="11.00" fill="#334e68">та відкликання</text>
</g>
<!-- n_c7796133ac1d&#45;&gt;n_5f5685eeff97 -->
<g id="edge2" class="edge">
<title>n_c7796133ac1d&#45;&gt;n_5f5685eeff97</title>
<path fill="none" stroke="#486581" stroke-width="1.4" d="M218.39,-399.05C366.74,-431.04 617,-485 617,-485 617,-485 617,-485 2290.5,-485 2290.5,-485 2685,-392 2685,-392 2685,-392 2770.61,-299.89 2815.8,-251.27"/>
<polygon fill="#486581" stroke="#486581" stroke-width="1.4" points="2817.97,-253.05 2821.36,-245.28 2813.86,-249.24 2817.97,-253.05"/>
<text text-anchor="start" x="1299.5" y="-500.2" font-family="DejaVu Sans" font-size="11.00" fill="#334e68">Контролює журнали, події безпеки та</text>
<text text-anchor="start" x="1360" y="-488.2" font-family="DejaVu Sans" font-size="11.00" fill="#334e68">технічні метрики</text>
</g>
<!-- n_09b340c80e8a -->
<g id="node16" class="node">
<title>n_09b340c80e8a</title>
<path fill="#e9eef4" stroke="#486581" stroke-width="1.5" d="M177,-681C177,-681 44,-681 44,-681 38,-681 32,-675 32,-669 32,-669 32,-657 32,-657 32,-651 38,-645 44,-645 44,-645 177,-645 177,-645 183,-645 189,-651 189,-657 189,-657 189,-669 189,-669 189,-675 183,-681 177,-681"/>
<text text-anchor="start" x="42" y="-665.4" font-family="DejaVu Sans" font-weight="bold" font-size="12.00" fill="#263238">Сервіс термінологій</text>
<text text-anchor="start" x="55" y="-655" font-family="DejaVu Sans" font-size="10.00" fill="#263238">[Програмна система]</text>
</g>
</g>
</svg>
