<?xml version="1.0" encoding="UTF-8" standalone="no"?>
<!DOCTYPE svg PUBLIC "-//W3C//DTD SVG 1.1//EN"
 "http://www.w3.org/Graphics/SVG/1.1/DTD/svg11.dtd">
<!-- Generated by graphviz version 2.42.4 (0)
 -->
<!-- Title: G Pages: 1 -->
<svg width="1111pt" height="580pt"
 viewBox="0.00 0.00 1110.90 580.15" xmlns="http://www.w3.org/2000/svg" xmlns:xlink="http://www.w3.org/1999/xlink">
<g id="graph0" class="graph" transform="scale(1 1) rotate(0) translate(25.2 554.95)">
<title>G</title>
<polygon fill="white" stroke="transparent" points="-25.2,25.2 -25.2,-554.95 1085.7,-554.95 1085.7,25.2 -25.2,25.2"/>
<text text-anchor="start" x="78.5" y="-515.55" font-family="DejaVu Sans" font-weight="bold" font-size="14.00">C3.05 — Компоненти ідентичності, доступу та згод</text>
<text text-anchor="start" x="8" y="-503.15" font-family="DejaVu Sans" font-size="12.00">Компоненти федеративної ідентичності, атрибутної авторизації, згод і сесійних токенів.</text>
<g id="clust1" class="cluster">
<title>cluster_scope</title>
<path fill="white" stroke="#486581" stroke-width="2.2" d="M20,-8C20,-8 311,-8 311,-8 317,-8 323,-14 323,-20 323,-20 323,-475.75 323,-475.75 323,-481.75 317,-487.75 311,-487.75 311,-487.75 20,-487.75 20,-487.75 14,-487.75 8,-481.75 8,-475.75 8,-475.75 8,-20 8,-20 8,-14 14,-8 20,-8"/>
<text text-anchor="start" x="16" y="-473.55" font-family="DejaVu Sans" font-weight="bold" font-size="14.00">Сервіс ідентичності, доступу та згод</text>
</g>
<!-- n_68193d010676 -->
<g id="node1" class="node">
<title>n_68193d010676</title>
<path fill="#f4f7fa" stroke="#486581" stroke-width="1.5" d="M208,-189.38C208,-189.38 28,-189.38 28,-189.38 22,-189.38 16,-183.38 16,-177.38 16,-177.38 16,-165.38 16,-165.38 16,-159.38 22,-153.38 28,-153.38 28,-153.38 208,-153.38 208,-153.38 214,-153.38 220,-159.38 220,-165.38 220,-165.38 220,-177.38 220,-177.38 220,-183.38 214,-189.38 208,-189.38"/>
<text text-anchor="start" x="62.5" y="-173.78" font-family="DejaVu Sans" font-weight="bold" font-size="12.00" fill="#18324a">Менеджер згод</text>
<text text-anchor="start" x="26" y="-163.38" font-family="DejaVu Sans" font-size="10.00" fill="#18324a">[Компонент · Consent management]</text>
</g>
<!-- n_980b20fe1d7d -->
<g id="node4" class="node">
<title>n_980b20fe1d7d</title>
<path fill="#f4f7fa" stroke="#486581" stroke-width="1.5" d="M186,-52C186,-52 28,-52 28,-52 22,-52 16,-46 16,-40 16,-40 16,-28 16,-28 16,-22 22,-16 28,-16 28,-16 186,-16 186,-16 192,-16 198,-22 198,-28 198,-28 198,-40 198,-40 198,-46 192,-52 186,-52"/>
<text text-anchor="start" x="26" y="-36.4" font-family="DejaVu Sans" font-weight="bold" font-size="12.00" fill="#18324a">Сервіс сесійних токенів</text>
<text text-anchor="start" x="36" y="-26" font-family="DejaVu Sans" font-size="10.00" fill="#18324a">[Компонент · Token service]</text>
</g>
<!-- n_68193d010676&#45;&gt;n_980b20fe1d7d -->
<g id="edge5" class="edge">
<title>n_68193d010676&#45;&gt;n_980b20fe1d7d</title>
<path fill="none" stroke="#486581" stroke-width="1.4" d="M116.61,-153.23C114.7,-129.73 111.25,-87.36 109.05,-60.23"/>
<polygon fill="#486581" stroke="#486581" stroke-width="1.4" points="111.82,-59.75 108.38,-52.01 106.24,-60.21 111.82,-59.75"/>
<text text-anchor="start" x="114" y="-108.58" font-family="DejaVu Sans" font-size="11.00" fill="#334e68">Дозволяє видати мінімальний сесійний</text>
<text text-anchor="start" x="213" y="-96.58" font-family="DejaVu Sans" font-size="11.00" fill="#334e68">токен</text>
</g>
<!-- n_40b119007c9f -->
<g id="node8" class="node">
<title>n_40b119007c9f</title>
<path fill="#edf2f7" stroke="#486581" stroke-width="1.5" d="M608.5,-53.02C608.5,-55.36 546.42,-57.25 470,-57.25 393.58,-57.25 331.5,-55.36 331.5,-53.02 331.5,-53.02 331.5,-14.98 331.5,-14.98 331.5,-12.64 393.58,-10.75 470,-10.75 546.42,-10.75 608.5,-12.64 608.5,-14.98 608.5,-14.98 608.5,-53.02 608.5,-53.02"/>
<path fill="none" stroke="#486581" stroke-width="1.5" d="M608.5,-53.02C608.5,-50.69 546.42,-48.8 470,-48.8 393.58,-48.8 331.5,-50.69 331.5,-53.02"/>
<text text-anchor="start" x="408" y="-36.4" font-family="DejaVu Sans" font-weight="bold" font-size="12.00" fill="#1a202c">Клінічне сховище</text>
<text text-anchor="start" x="341.5" y="-26" font-family="DejaVu Sans" font-size="10.00" fill="#1a202c">[Сховище даних · FHIR&#45;oriented clinical repository]</text>
</g>
<!-- n_68193d010676&#45;&gt;n_40b119007c9f -->
<g id="edge6" class="edge">
<title>n_68193d010676&#45;&gt;n_40b119007c9f</title>
<path fill="none" stroke="#486581" stroke-width="1.4" d="M194.29,-153.31C263.58,-137.82 355,-117.38 355,-117.38 355,-117.38 398.79,-86.01 432.32,-61.99"/>
<polygon fill="#486581" stroke="#486581" stroke-width="1.4" points="434.01,-64.23 438.88,-57.29 430.75,-59.67 434.01,-64.23"/>
<text text-anchor="start" x="386" y="-102.58" font-family="DejaVu Sans" font-size="11.00" fill="#334e68">Зберігає або читає запис згоди</text>
</g>
<!-- n_90d740bc739b -->
<g id="node2" class="node">
<title>n_90d740bc739b</title>
<path fill="#f4f7fa" stroke="#486581" stroke-width="1.5" d="M238.5,-456.75C238.5,-456.75 91.5,-456.75 91.5,-456.75 85.5,-456.75 79.5,-450.75 79.5,-444.75 79.5,-444.75 79.5,-432.75 79.5,-432.75 79.5,-426.75 85.5,-420.75 91.5,-420.75 91.5,-420.75 238.5,-420.75 238.5,-420.75 244.5,-420.75 250.5,-426.75 250.5,-432.75 250.5,-432.75 250.5,-444.75 250.5,-444.75 250.5,-450.75 244.5,-456.75 238.5,-456.75"/>
<text text-anchor="start" x="116.5" y="-441.15" font-family="DejaVu Sans" font-weight="bold" font-size="12.00" fill="#18324a">Адаптер OIDC</text>
<text text-anchor="start" x="89.5" y="-430.75" font-family="DejaVu Sans" font-size="10.00" fill="#18324a">[Компонент · OIDC/OAuth 2.0]</text>
</g>
<!-- n_1b36d7f304c6 -->
<g id="node3" class="node">
<title>n_1b36d7f304c6</title>
<path fill="#f4f7fa" stroke="#486581" stroke-width="1.5" d="M190.5,-314.38C190.5,-314.38 29.5,-314.38 29.5,-314.38 23.5,-314.38 17.5,-308.38 17.5,-302.38 17.5,-302.38 17.5,-290.38 17.5,-290.38 17.5,-284.38 23.5,-278.38 29.5,-278.38 29.5,-278.38 190.5,-278.38 190.5,-278.38 196.5,-278.38 202.5,-284.38 202.5,-290.38 202.5,-290.38 202.5,-302.38 202.5,-302.38 202.5,-308.38 196.5,-314.38 190.5,-314.38"/>
<text text-anchor="start" x="27.5" y="-298.77" font-family="DejaVu Sans" font-weight="bold" font-size="12.00" fill="#18324a">Авторизація RBAC/ABAC</text>
<text text-anchor="start" x="39.5" y="-288.38" font-family="DejaVu Sans" font-size="10.00" fill="#18324a">[Компонент · Policy engine]</text>
</g>
<!-- n_90d740bc739b&#45;&gt;n_1b36d7f304c6 -->
<g id="edge3" class="edge">
<title>n_90d740bc739b&#45;&gt;n_1b36d7f304c6</title>
<path fill="none" stroke="#486581" stroke-width="1.4" d="M158.26,-420.54C148.61,-395.91 130.81,-350.48 119.73,-322.21"/>
<polygon fill="#486581" stroke="#486581" stroke-width="1.4" points="122.32,-321.16 116.8,-314.73 117.11,-323.2 122.32,-321.16"/>
<text text-anchor="start" x="141" y="-370.57" font-family="DejaVu Sans" font-size="11.00" fill="#334e68">Передає підтверджену ідентичність і</text>
<text text-anchor="start" x="224.5" y="-358.57" font-family="DejaVu Sans" font-size="11.00" fill="#334e68">атрибути</text>
</g>
<!-- n_d6434351ba8f -->
<g id="node5" class="node">
<title>n_d6434351ba8f</title>
<path fill="#e9eef4" stroke="#486581" stroke-width="1.5" d="M527,-319.38C527,-319.38 343,-319.38 343,-319.38 337,-319.38 331,-313.38 331,-307.38 331,-307.38 331,-285.38 331,-285.38 331,-279.38 337,-273.38 343,-273.38 343,-273.38 527,-273.38 527,-273.38 533,-273.38 539,-279.38 539,-285.38 539,-285.38 539,-307.38 539,-307.38 539,-313.38 533,-319.38 527,-319.38"/>
<text text-anchor="start" x="341" y="-304.77" font-family="DejaVu Sans" font-weight="bold" font-size="12.00" fill="#263238">Постачальник електронної</text>
<text text-anchor="start" x="391" y="-292.77" font-family="DejaVu Sans" font-weight="bold" font-size="12.00" fill="#263238">ідентичності</text>
<text text-anchor="start" x="379.5" y="-282.38" font-family="DejaVu Sans" font-size="10.00" fill="#263238">[Програмна система]</text>
</g>
<!-- n_90d740bc739b&#45;&gt;n_d6434351ba8f -->
<g id="edge2" class="edge">
<title>n_90d740bc739b&#45;&gt;n_d6434351ba8f</title>
<path fill="none" stroke="#486581" stroke-width="1.4" d="M225.43,-420.71C286.53,-403.48 372,-379.38 372,-379.38 372,-379.38 394.67,-349.87 412.81,-326.26"/>
<polygon fill="#486581" stroke="#486581" stroke-width="1.4" points="415.13,-327.83 417.78,-319.78 410.69,-324.42 415.13,-327.83"/>
<text text-anchor="start" x="389" y="-364.57" font-family="DejaVu Sans" font-size="11.00" fill="#334e68">Виконує OIDC&#45;обмін</text>
</g>
<!-- n_1b36d7f304c6&#45;&gt;n_68193d010676 -->
<g id="edge4" class="edge">
<title>n_1b36d7f304c6&#45;&gt;n_68193d010676</title>
<path fill="none" stroke="#486581" stroke-width="1.4" d="M111.11,-278.27C112.47,-257.37 114.78,-221.81 116.35,-197.73"/>
<polygon fill="#486581" stroke="#486581" stroke-width="1.4" points="119.15,-197.89 116.87,-189.73 113.56,-197.53 119.15,-197.89"/>
<text text-anchor="start" x="115" y="-228.57" font-family="DejaVu Sans" font-size="11.00" fill="#334e68">Перевіряє мету й необхідну згоду</text>
</g>
<!-- n_384146de0c5d -->
<g id="node6" class="node">
<title>n_384146de0c5d</title>
<path fill="#f4f7fa" stroke="#486581" stroke-width="1.5" d="M799,-456.75C799,-456.75 589,-456.75 589,-456.75 583,-456.75 577,-450.75 577,-444.75 577,-444.75 577,-432.75 577,-432.75 577,-426.75 583,-420.75 589,-420.75 589,-420.75 799,-420.75 799,-420.75 805,-420.75 811,-426.75 811,-432.75 811,-432.75 811,-444.75 811,-444.75 811,-450.75 805,-456.75 799,-456.75"/>
<text text-anchor="start" x="640.5" y="-441.15" font-family="DejaVu Sans" font-weight="bold" font-size="12.00" fill="#18324a">API&#45;шлюз і BFF</text>
<text text-anchor="start" x="587" y="-430.75" font-family="DejaVu Sans" font-size="10.00" fill="#18324a">[Контейнер · Reverse proxy / API gateway]</text>
</g>
<!-- n_5f5685eeff97 -->
<g id="node7" class="node">
<title>n_5f5685eeff97</title>
<path fill="#4a5568" stroke="#486581" stroke-width="1.5" d="M805,-319.38C805,-319.38 583,-319.38 583,-319.38 577,-319.38 571,-313.38 571,-307.38 571,-307.38 571,-285.38 571,-285.38 571,-279.38 577,-273.38 583,-273.38 583,-273.38 805,-273.38 805,-273.38 811,-273.38 817,-279.38 817,-285.38 817,-285.38 817,-307.38 817,-307.38 817,-313.38 811,-319.38 805,-319.38"/>
<text text-anchor="start" x="636" y="-304.77" font-family="DejaVu Sans" font-weight="bold" font-size="12.00" fill="#ffffff">Сервіс аудиту та</text>
<text text-anchor="start" x="628.5" y="-292.77" font-family="DejaVu Sans" font-weight="bold" font-size="12.00" fill="#ffffff">спостережуваності</text>
<text text-anchor="start" x="581" y="-282.38" font-family="DejaVu Sans" font-size="10.00" fill="#ffffff">[Контейнер · Audit and observability service]</text>
</g>
<!-- n_384146de0c5d&#45;&gt;n_5f5685eeff97 -->
<g id="edge1" class="edge">
<title>n_384146de0c5d&#45;&gt;n_5f5685eeff97</title>
<path fill="none" stroke="#486581" stroke-width="1.4" d="M694,-420.54C694,-397.58 694,-356.55 694,-328.19"/>
<polygon fill="#486581" stroke="#486581" stroke-width="1.4" points="696.8,-327.83 694,-319.83 691.2,-327.83 696.8,-327.83"/>
<text text-anchor="start" x="694" y="-370.57" font-family="DejaVu Sans" font-size="11.00" fill="#334e68">Реєструє доступ і результат оброблення</text>
<text text-anchor="start" x="793.5" y="-358.57" font-family="DejaVu Sans" font-size="11.00" fill="#334e68">запиту</text>
</g>
<!-- n_331a3889c3d6 -->
<g id="node9" class="node">
<title>n_331a3889c3d6</title>
<path fill="#edf2f7" stroke="#486581" stroke-width="1.5" d="M1060.5,-457.77C1060.5,-460.11 1011.87,-462 952,-462 892.13,-462 843.5,-460.11 843.5,-457.77 843.5,-457.77 843.5,-419.73 843.5,-419.73 843.5,-417.39 892.13,-415.5 952,-415.5 1011.87,-415.5 1060.5,-417.39 1060.5,-419.73 1060.5,-419.73 1060.5,-457.77 1060.5,-457.77"/>
<path fill="none" stroke="#486581" stroke-width="1.5" d="M1060.5,-457.77C1060.5,-455.44 1011.87,-453.55 952,-453.55 892.13,-453.55 843.5,-455.44 843.5,-457.77"/>
<text text-anchor="start" x="870" y="-441.15" font-family="DejaVu Sans" font-weight="bold" font-size="12.00" fill="#1a202c">Операційна база даних</text>
<text text-anchor="start" x="853.5" y="-430.75" font-family="DejaVu Sans" font-size="10.00" fill="#1a202c">[Сховище даних · Relational database]</text>
</g>
</g>
</svg>
