<?xml version="1.0" encoding="UTF-8" standalone="no"?>
<!DOCTYPE svg PUBLIC "-//W3C//DTD SVG 1.1//EN"
 "http://www.w3.org/Graphics/SVG/1.1/DTD/svg11.dtd">
<!-- Generated by graphviz version 2.42.4 (0)
 -->
<!-- Title: G Pages: 1 -->
<svg width="2651pt" height="313pt"
 viewBox="0.00 0.00 2650.90 313.40" xmlns="http://www.w3.org/2000/svg" xmlns:xlink="http://www.w3.org/1999/xlink">
<g id="graph0" class="graph" transform="scale(1 1) rotate(0) translate(25.2 288.2)">
<title>G</title>
<polygon fill="white" stroke="transparent" points="-25.2,25.2 -25.2,-288.2 2625.7,-288.2 2625.7,25.2 -25.2,25.2"/>
<text text-anchor="start" x="64" y="-248.8" font-family="DejaVu Sans" font-weight="bold" font-size="14.00">C3.02 — Компоненти кабінету медичного працівника</text>
<text text-anchor="start" x="8" y="-236.4" font-family="DejaVu Sans" font-size="12.00">Компоненти кабінету медичного працівника з окремим контролем ризиків, пояснень і</text>
<text text-anchor="start" x="230.5" y="-224.4" font-family="DejaVu Sans" font-size="12.00">підтвердження.</text>
<g id="clust1" class="cluster">
<title>cluster_scope</title>
<path fill="white" stroke="#486581" stroke-width="2.2" d="M20,-124C20,-124 1687,-124 1687,-124 1693,-124 1699,-130 1699,-136 1699,-136 1699,-197 1699,-197 1699,-203 1693,-209 1687,-209 1687,-209 20,-209 20,-209 14,-209 8,-203 8,-197 8,-197 8,-136 8,-136 8,-130 14,-124 20,-124"/>
<text text-anchor="start" x="16" y="-194.8" font-family="DejaVu Sans" font-weight="bold" font-size="14.00">Кабінет медичного працівника</text>
</g>
<!-- n_6e16ac4f965e -->
<g id="node1" class="node">
<title>n_6e16ac4f965e</title>
<path fill="#f4f7fa" stroke="#486581" stroke-width="1.5" d="M142,-178C142,-178 28,-178 28,-178 22,-178 16,-172 16,-166 16,-166 16,-144 16,-144 16,-138 22,-132 28,-132 28,-132 142,-132 142,-132 148,-132 154,-138 154,-144 154,-144 154,-166 154,-166 154,-172 148,-178 142,-178"/>
<text text-anchor="start" x="26" y="-163.4" font-family="DejaVu Sans" font-weight="bold" font-size="12.00" fill="#18324a">Підпис і клінічне</text>
<text text-anchor="start" x="31.5" y="-151.4" font-family="DejaVu Sans" font-weight="bold" font-size="12.00" fill="#18324a">підтвердження</text>
<text text-anchor="start" x="30" y="-141" font-family="DejaVu Sans" font-size="10.00" fill="#18324a">[Компонент · Web UI]</text>
</g>
<!-- n_384146de0c5d -->
<g id="node11" class="node">
<title>n_384146de0c5d</title>
<path fill="#f4f7fa" stroke="#486581" stroke-width="1.5" d="M834,-36C834,-36 624,-36 624,-36 618,-36 612,-30 612,-24 612,-24 612,-12 612,-12 612,-6 618,0 624,0 624,0 834,0 834,0 840,0 846,-6 846,-12 846,-12 846,-24 846,-24 846,-30 840,-36 834,-36"/>
<text text-anchor="start" x="675.5" y="-20.4" font-family="DejaVu Sans" font-weight="bold" font-size="12.00" fill="#18324a">API&#45;шлюз і BFF</text>
<text text-anchor="start" x="622" y="-10" font-family="DejaVu Sans" font-size="10.00" fill="#18324a">[Контейнер · Reverse proxy / API gateway]</text>
</g>
<!-- n_6e16ac4f965e&#45;&gt;n_384146de0c5d -->
<g id="edge8" class="edge">
<title>n_6e16ac4f965e&#45;&gt;n_384146de0c5d</title>
<path fill="none" stroke="#486581" stroke-width="1.4" d="M62.74,-131.74C46.39,-115.39 27,-96 27,-96 27,-96 27,-72 27,-72 27,-72 402.08,-43.68 603.9,-28.44"/>
<polygon fill="#486581" stroke="#486581" stroke-width="1.4" points="604.13,-31.24 611.9,-27.84 603.71,-25.65 604.13,-31.24"/>
<text text-anchor="start" x="27" y="-87.2" font-family="DejaVu Sans" font-size="11.00" fill="#334e68">Підтверджує або відхиляє клінічно</text>
<text text-anchor="start" x="78.5" y="-75.2" font-family="DejaVu Sans" font-size="11.00" fill="#334e68">значущий проєкт</text>
</g>
<!-- n_d4475f6f1617 -->
<g id="node2" class="node">
<title>n_d4475f6f1617</title>
<path fill="#f4f7fa" stroke="#486581" stroke-width="1.5" d="M390,-173C390,-173 198,-173 198,-173 192,-173 186,-167 186,-161 186,-161 186,-149 186,-149 186,-143 192,-137 198,-137 198,-137 390,-137 390,-137 396,-137 402,-143 402,-149 402,-149 402,-161 402,-161 402,-167 396,-173 390,-173"/>
<text text-anchor="start" x="196" y="-157.4" font-family="DejaVu Sans" font-weight="bold" font-size="12.00" fill="#18324a">Робоча область оцінювання</text>
<text text-anchor="start" x="239" y="-147" font-family="DejaVu Sans" font-size="10.00" fill="#18324a">[Компонент · Web UI]</text>
</g>
<!-- n_d4475f6f1617&#45;&gt;n_384146de0c5d -->
<g id="edge2" class="edge">
<title>n_d4475f6f1617&#45;&gt;n_384146de0c5d</title>
<path fill="none" stroke="#486581" stroke-width="1.4" d="M278.68,-136.91C263.34,-119.8 242,-96 242,-96 242,-96 242,-72 242,-72 242,-72 459.33,-48.35 603.63,-32.64"/>
<polygon fill="#486581" stroke="#486581" stroke-width="1.4" points="604.08,-35.41 611.73,-31.76 603.48,-29.84 604.08,-35.41"/>
<text text-anchor="start" x="242" y="-87.2" font-family="DejaVu Sans" font-size="11.00" fill="#334e68">Надсилає професійні спостереження та</text>
<text text-anchor="start" x="328.5" y="-75.2" font-family="DejaVu Sans" font-size="11.00" fill="#334e68">уточнення</text>
</g>
<!-- n_2c611944774f -->
<g id="node3" class="node">
<title>n_2c611944774f</title>
<path fill="#f4f7fa" stroke="#486581" stroke-width="1.5" d="M606,-173C606,-173 446,-173 446,-173 440,-173 434,-167 434,-161 434,-161 434,-149 434,-149 434,-143 440,-137 446,-137 446,-137 606,-137 606,-137 612,-137 618,-143 618,-149 618,-149 618,-161 618,-161 618,-167 612,-173 606,-173"/>
<text text-anchor="start" x="444" y="-157.4" font-family="DejaVu Sans" font-weight="bold" font-size="12.00" fill="#18324a">Часова шкала пацієнта</text>
<text text-anchor="start" x="471" y="-147" font-family="DejaVu Sans" font-size="10.00" fill="#18324a">[Компонент · Web UI]</text>
</g>
<!-- n_2c611944774f&#45;&gt;n_384146de0c5d -->
<g id="edge1" class="edge">
<title>n_2c611944774f&#45;&gt;n_384146de0c5d</title>
<path fill="none" stroke="#486581" stroke-width="1.4" d="M514.51,-136.91C503.01,-119.8 487,-96 487,-96 487,-96 487,-72 487,-72 487,-72 573.55,-53.04 643.13,-37.81"/>
<polygon fill="#486581" stroke="#486581" stroke-width="1.4" points="643.88,-40.51 651.1,-36.06 642.68,-35.04 643.88,-40.51"/>
<text text-anchor="start" x="487" y="-87.2" font-family="DejaVu Sans" font-size="11.00" fill="#334e68">Отримує часову шкалу з походженням</text>
<text text-anchor="start" x="584" y="-75.2" font-family="DejaVu Sans" font-size="11.00" fill="#334e68">даних</text>
</g>
<!-- n_2cf200f87bea -->
<g id="node4" class="node">
<title>n_2cf200f87bea</title>
<path fill="#f4f7fa" stroke="#486581" stroke-width="1.5" d="M791.5,-173C791.5,-173 662.5,-173 662.5,-173 656.5,-173 650.5,-167 650.5,-161 650.5,-161 650.5,-149 650.5,-149 650.5,-143 656.5,-137 662.5,-137 662.5,-137 791.5,-137 791.5,-137 797.5,-137 803.5,-143 803.5,-149 803.5,-149 803.5,-161 803.5,-161 803.5,-167 797.5,-173 791.5,-173"/>
<text text-anchor="start" x="660.5" y="-157.4" font-family="DejaVu Sans" font-weight="bold" font-size="12.00" fill="#18324a">Панель протоколів</text>
<text text-anchor="start" x="672" y="-147" font-family="DejaVu Sans" font-size="10.00" fill="#18324a">[Компонент · Web UI]</text>
</g>
<!-- n_2cf200f87bea&#45;&gt;n_384146de0c5d -->
<g id="edge5" class="edge">
<title>n_2cf200f87bea&#45;&gt;n_384146de0c5d</title>
<path fill="none" stroke="#486581" stroke-width="1.4" d="M726.71,-136.91C726.41,-119.8 726,-96 726,-96 726,-96 726,-72 726,-72 726,-72 726.79,-57.98 727.56,-44.36"/>
<polygon fill="#486581" stroke="#486581" stroke-width="1.4" points="730.38,-44.21 728.03,-36.06 724.79,-43.89 730.38,-44.21"/>
<text text-anchor="start" x="726" y="-87.2" font-family="DejaVu Sans" font-size="11.00" fill="#334e68">Отримує протоколи та умови</text>
<text text-anchor="start" x="774" y="-75.2" font-family="DejaVu Sans" font-size="11.00" fill="#334e68">відповідності</text>
</g>
<!-- n_f2b212a22f52 -->
<g id="node5" class="node">
<title>n_f2b212a22f52</title>
<path fill="#f4f7fa" stroke="#c92a2a" stroke-width="3" d="M1038.5,-173C1038.5,-173 847.5,-173 847.5,-173 841.5,-173 835.5,-167 835.5,-161 835.5,-161 835.5,-149 835.5,-149 835.5,-143 841.5,-137 847.5,-137 847.5,-137 1038.5,-137 1038.5,-137 1044.5,-137 1050.5,-143 1050.5,-149 1050.5,-149 1050.5,-161 1050.5,-161 1050.5,-167 1044.5,-173 1038.5,-173"/>
<text text-anchor="start" x="845.5" y="-157.4" font-family="DejaVu Sans" font-weight="bold" font-size="12.00" fill="#18324a">Панель червоних прапорців</text>
<text text-anchor="start" x="888" y="-147" font-family="DejaVu Sans" font-size="10.00" fill="#18324a">[Компонент · Web UI]</text>
</g>
<!-- n_f2b212a22f52&#45;&gt;n_384146de0c5d -->
<g id="edge4" class="edge">
<title>n_f2b212a22f52&#45;&gt;n_384146de0c5d</title>
<path fill="none" stroke="#486581" stroke-width="1.4" d="M934.94,-136.61C923.79,-112.54 905,-72 905,-72 905,-72 843.83,-53.58 793.61,-38.46"/>
<polygon fill="#486581" stroke="#486581" stroke-width="1.4" points="794.12,-35.69 785.66,-36.06 792.51,-41.05 794.12,-35.69"/>
<text text-anchor="start" x="915" y="-87.2" font-family="DejaVu Sans" font-size="11.00" fill="#334e68">Отримує пріоритетні прапорці й статуси</text>
<text text-anchor="start" x="1015.5" y="-75.2" font-family="DejaVu Sans" font-size="11.00" fill="#334e68">реакції</text>
</g>
<!-- n_a7ec97cb48db -->
<g id="node6" class="node">
<title>n_a7ec97cb48db</title>
<path fill="#f4f7fa" stroke="#486581" stroke-width="1.5" d="M1243,-173C1243,-173 1095,-173 1095,-173 1089,-173 1083,-167 1083,-161 1083,-161 1083,-149 1083,-149 1083,-143 1089,-137 1095,-137 1095,-137 1243,-137 1243,-137 1249,-137 1255,-143 1255,-149 1255,-149 1255,-161 1255,-161 1255,-167 1249,-173 1243,-173"/>
<text text-anchor="start" x="1093" y="-157.4" font-family="DejaVu Sans" font-weight="bold" font-size="12.00" fill="#18324a">Перегляд результатів</text>
<text text-anchor="start" x="1114" y="-147" font-family="DejaVu Sans" font-size="10.00" fill="#18324a">[Компонент · Web UI]</text>
</g>
<!-- n_a7ec97cb48db&#45;&gt;n_384146de0c5d -->
<g id="edge3" class="edge">
<title>n_a7ec97cb48db&#45;&gt;n_384146de0c5d</title>
<path fill="none" stroke="#486581" stroke-width="1.4" d="M1168.15,-136.61C1166.98,-112.54 1165,-72 1165,-72 1165,-72 982.97,-49.87 854.15,-34.21"/>
<polygon fill="#486581" stroke="#486581" stroke-width="1.4" points="854.41,-31.42 846.13,-33.24 853.73,-36.98 854.41,-31.42"/>
<text text-anchor="start" x="1166" y="-87.2" font-family="DejaVu Sans" font-size="11.00" fill="#334e68">Отримує бали, правила, версії та</text>
<text text-anchor="start" x="1232" y="-75.2" font-family="DejaVu Sans" font-size="11.00" fill="#334e68">пояснення</text>
</g>
<!-- n_ea4cce70084c -->
<g id="node7" class="node">
<title>n_ea4cce70084c</title>
<path fill="#f4f7fa" stroke="#486581" stroke-width="1.5" d="M1679,-173C1679,-173 1493,-173 1493,-173 1487,-173 1481,-167 1481,-161 1481,-161 1481,-149 1481,-149 1481,-143 1487,-137 1493,-137 1493,-137 1679,-137 1679,-137 1685,-137 1691,-143 1691,-149 1691,-149 1691,-161 1691,-161 1691,-167 1685,-173 1679,-173"/>
<text text-anchor="start" x="1491" y="-157.4" font-family="DejaVu Sans" font-weight="bold" font-size="12.00" fill="#18324a">Телемедична консультація</text>
<text text-anchor="start" x="1513.5" y="-147" font-family="DejaVu Sans" font-size="10.00" fill="#18324a">[Компонент · WebRTC client]</text>
</g>
<!-- n_8ef8376f7755 -->
<g id="node14" class="node">
<title>n_8ef8376f7755</title>
<path fill="#e9eef4" stroke="#486581" stroke-width="1.5" d="M1761.5,-36C1761.5,-36 1578.5,-36 1578.5,-36 1572.5,-36 1566.5,-30 1566.5,-24 1566.5,-24 1566.5,-12 1566.5,-12 1566.5,-6 1572.5,0 1578.5,0 1578.5,0 1761.5,0 1761.5,0 1767.5,0 1773.5,-6 1773.5,-12 1773.5,-12 1773.5,-24 1773.5,-24 1773.5,-30 1767.5,-36 1761.5,-36"/>
<text text-anchor="start" x="1576.5" y="-20.4" font-family="DejaVu Sans" font-weight="bold" font-size="12.00" fill="#263238">Платформа телемедицини</text>
<text text-anchor="start" x="1614.5" y="-10" font-family="DejaVu Sans" font-size="10.00" fill="#263238">[Програмна система]</text>
</g>
<!-- n_ea4cce70084c&#45;&gt;n_8ef8376f7755 -->
<g id="edge7" class="edge">
<title>n_ea4cce70084c&#45;&gt;n_8ef8376f7755</title>
<path fill="none" stroke="#486581" stroke-width="1.4" d="M1600.14,-136.91C1614.3,-119.8 1634,-96 1634,-96 1634,-96 1648.05,-65.95 1658.59,-43.4"/>
<polygon fill="#486581" stroke="#486581" stroke-width="1.4" points="1661.16,-44.52 1662.01,-36.09 1656.09,-42.15 1661.16,-44.52"/>
<text text-anchor="start" x="1644" y="-81.2" font-family="DejaVu Sans" font-size="11.00" fill="#334e68">Приєднується до захищеного сеансу</text>
</g>
<!-- n_f787c2558c64 -->
<g id="node8" class="node">
<title>n_f787c2558c64</title>
<path fill="#f4f7fa" stroke="#486581" stroke-width="1.5" d="M1436.5,-173C1436.5,-173 1299.5,-173 1299.5,-173 1293.5,-173 1287.5,-167 1287.5,-161 1287.5,-161 1287.5,-149 1287.5,-149 1287.5,-143 1293.5,-137 1299.5,-137 1299.5,-137 1436.5,-137 1436.5,-137 1442.5,-137 1448.5,-143 1448.5,-149 1448.5,-149 1448.5,-161 1448.5,-161 1448.5,-167 1442.5,-173 1436.5,-173"/>
<text text-anchor="start" x="1297.5" y="-157.4" font-family="DejaVu Sans" font-weight="bold" font-size="12.00" fill="#18324a">Редактор траєкторії</text>
<text text-anchor="start" x="1313" y="-147" font-family="DejaVu Sans" font-size="10.00" fill="#18324a">[Компонент · Web UI]</text>
</g>
<!-- n_f787c2558c64&#45;&gt;n_384146de0c5d -->
<g id="edge6" class="edge">
<title>n_f787c2558c64&#45;&gt;n_384146de0c5d</title>
<path fill="none" stroke="#486581" stroke-width="1.4" d="M1368.59,-136.91C1369.18,-119.8 1370,-96 1370,-96 1370,-96 1370,-72 1370,-72 1370,-72 1041.02,-44.8 854.42,-29.37"/>
<polygon fill="#486581" stroke="#486581" stroke-width="1.4" points="854.4,-26.56 846.2,-28.69 853.94,-32.14 854.4,-26.56"/>
<text text-anchor="start" x="1370" y="-87.2" font-family="DejaVu Sans" font-size="11.00" fill="#334e68">Зберігає коригування проєкту</text>
<text text-anchor="start" x="1430" y="-75.2" font-family="DejaVu Sans" font-size="11.00" fill="#334e68">траєкторії</text>
</g>
<!-- n_f0d38fbc8ca4 -->
<g id="node9" class="node">
<title>n_f0d38fbc8ca4</title>
<path fill="#6c4ab6" stroke="#486581" stroke-width="1.5" d="M1933,-173C1933,-173 1735,-173 1735,-173 1729,-173 1723,-167 1723,-161 1723,-161 1723,-149 1723,-149 1723,-143 1729,-137 1735,-137 1735,-137 1933,-137 1933,-137 1939,-137 1945,-143 1945,-149 1945,-149 1945,-161 1945,-161 1945,-167 1939,-173 1933,-173"/>
<text text-anchor="start" x="1733" y="-157.4" font-family="DejaVu Sans" font-weight="bold" font-size="12.00" fill="#ffffff">Черговий кризовий фахівець</text>
<text text-anchor="start" x="1814.5" y="-147" font-family="DejaVu Sans" font-size="10.00" fill="#ffffff">[Особа]</text>
</g>
<!-- n_285f9a003f67 -->
<g id="node10" class="node">
<title>n_285f9a003f67</title>
<path fill="#6c4ab6" stroke="#486581" stroke-width="1.5" d="M2202.5,-173C2202.5,-173 1989.5,-173 1989.5,-173 1983.5,-173 1977.5,-167 1977.5,-161 1977.5,-161 1977.5,-149 1977.5,-149 1977.5,-143 1983.5,-137 1989.5,-137 1989.5,-137 2202.5,-137 2202.5,-137 2208.5,-137 2214.5,-143 2214.5,-149 2214.5,-149 2214.5,-161 2214.5,-161 2214.5,-167 2208.5,-173 2202.5,-173"/>
<text text-anchor="start" x="1987.5" y="-157.4" font-family="DejaVu Sans" font-weight="bold" font-size="12.00" fill="#ffffff">Медична сестра / координатор</text>
<text text-anchor="start" x="2076.5" y="-147" font-family="DejaVu Sans" font-size="10.00" fill="#ffffff">[Особа]</text>
</g>
<!-- n_f465f9f86773 -->
<g id="node12" class="node">
<title>n_f465f9f86773</title>
<path fill="#6c4ab6" stroke="#486581" stroke-width="1.5" d="M2357,-173C2357,-173 2259,-173 2259,-173 2253,-173 2247,-167 2247,-161 2247,-161 2247,-149 2247,-149 2247,-143 2253,-137 2259,-137 2259,-137 2357,-137 2357,-137 2363,-137 2369,-143 2369,-149 2369,-149 2369,-161 2369,-161 2369,-167 2363,-173 2357,-173"/>
<text text-anchor="start" x="2257" y="-157.4" font-family="DejaVu Sans" font-weight="bold" font-size="12.00" fill="#ffffff">Лікар&#45;психіатр</text>
<text text-anchor="start" x="2288.5" y="-147" font-family="DejaVu Sans" font-size="10.00" fill="#ffffff">[Особа]</text>
</g>
<!-- n_487bf0f57271 -->
<g id="node13" class="node">
<title>n_487bf0f57271</title>
<path fill="#6c4ab6" stroke="#486581" stroke-width="1.5" d="M2588.5,-173C2588.5,-173 2413.5,-173 2413.5,-173 2407.5,-173 2401.5,-167 2401.5,-161 2401.5,-161 2401.5,-149 2401.5,-149 2401.5,-143 2407.5,-137 2413.5,-137 2413.5,-137 2588.5,-137 2588.5,-137 2594.5,-137 2600.5,-143 2600.5,-149 2600.5,-149 2600.5,-161 2600.5,-161 2600.5,-167 2594.5,-173 2588.5,-173"/>
<text text-anchor="start" x="2411.5" y="-157.4" font-family="DejaVu Sans" font-weight="bold" font-size="12.00" fill="#ffffff">Психолог / психотерапевт</text>
<text text-anchor="start" x="2481.5" y="-147" font-family="DejaVu Sans" font-size="10.00" fill="#ffffff">[Особа]</text>
</g>
</g>
</svg>
