<?xml version="1.0" encoding="UTF-8" standalone="no"?>
<!DOCTYPE svg PUBLIC "-//W3C//DTD SVG 1.1//EN"
 "http://www.w3.org/Graphics/SVG/1.1/DTD/svg11.dtd">
<!-- Generated by graphviz version 2.42.4 (0)
 -->
<!-- Title: G Pages: 1 -->
<svg width="2160pt" height="1371pt"
 viewBox="0.00 0.00 2160.40 1371.40" xmlns="http://www.w3.org/2000/svg" xmlns:xlink="http://www.w3.org/1999/xlink">
<g id="graph0" class="graph" transform="scale(1 1) rotate(0) translate(25.2 1346.2)">
<title>G</title>
<polygon fill="white" stroke="transparent" points="-25.2,25.2 -25.2,-1346.2 2135.2,-1346.2 2135.2,25.2 -25.2,25.2"/>
<text text-anchor="start" x="161.5" y="-1306.8" font-family="DejaVu Sans" font-weight="bold" font-size="14.00">C3.04 — Компоненти API&#45;шлюзу</text>
<text text-anchor="start" x="8" y="-1294.4" font-family="DejaVu Sans" font-size="12.00">Компоненти контрольованого входу, перевірки токенів, квот, контрактів і маршрутизації.</text>
<g id="clust1" class="cluster">
<title>cluster_scope</title>
<path fill="white" stroke="#486581" stroke-width="2.2" d="M1191,-822C1191,-822 1441,-822 1441,-822 1447,-822 1453,-828 1453,-834 1453,-834 1453,-1267 1453,-1267 1453,-1273 1447,-1279 1441,-1279 1441,-1279 1191,-1279 1191,-1279 1185,-1279 1179,-1273 1179,-1267 1179,-1267 1179,-834 1179,-834 1179,-828 1185,-822 1191,-822"/>
<text text-anchor="start" x="1187" y="-1264.8" font-family="DejaVu Sans" font-weight="bold" font-size="14.00">API&#45;шлюз і BFF</text>
</g>
<!-- n_41f799bbfc63 -->
<g id="node1" class="node">
<title>n_41f799bbfc63</title>
<path fill="#f4f7fa" stroke="#486581" stroke-width="1.5" d="M1333,-866C1333,-866 1199,-866 1199,-866 1193,-866 1187,-860 1187,-854 1187,-854 1187,-842 1187,-842 1187,-836 1193,-830 1199,-830 1199,-830 1333,-830 1333,-830 1339,-830 1345,-836 1345,-842 1345,-842 1345,-854 1345,-854 1345,-860 1339,-866 1333,-866"/>
<text text-anchor="start" x="1197" y="-850.4" font-family="DejaVu Sans" font-weight="bold" font-size="12.00" fill="#18324a">Маршрутизатор API</text>
<text text-anchor="start" x="1201.5" y="-840" font-family="DejaVu Sans" font-size="10.00" fill="#18324a">[Компонент · API routing]</text>
</g>
<!-- n_c210e7db8afd -->
<g id="node7" class="node">
<title>n_c210e7db8afd</title>
<path fill="#2b6cb0" stroke="#486581" stroke-width="1.5" d="M1268,-472C1268,-472 1040,-472 1040,-472 1034,-472 1028,-466 1028,-460 1028,-460 1028,-438 1028,-438 1028,-432 1034,-426 1040,-426 1040,-426 1268,-426 1268,-426 1274,-426 1280,-432 1280,-438 1280,-438 1280,-460 1280,-460 1280,-466 1274,-472 1268,-472"/>
<text text-anchor="start" x="1059" y="-457.4" font-family="DejaVu Sans" font-weight="bold" font-size="12.00" fill="#ffffff">Сервіс підтримки клінічних</text>
<text text-anchor="start" x="1129.5" y="-445.4" font-family="DejaVu Sans" font-weight="bold" font-size="12.00" fill="#ffffff">рішень</text>
<text text-anchor="start" x="1038" y="-435" font-family="DejaVu Sans" font-size="10.00" fill="#ffffff">[Контейнер · Clinical decision support service]</text>
</g>
<!-- n_41f799bbfc63&#45;&gt;n_c210e7db8afd -->
<g id="edge22" class="edge">
<title>n_41f799bbfc63&#45;&gt;n_c210e7db8afd</title>
<path fill="none" stroke="#486581" stroke-width="1.4" d="M1265.7,-829.78C1264.94,-786.02 1263,-674 1263,-674 1263,-674 1262,-508 1262,-508 1262,-508 1231.12,-491.41 1202.38,-475.98"/>
<polygon fill="#486581" stroke="#486581" stroke-width="1.4" points="1203.51,-473.41 1195.14,-472.09 1200.86,-478.34 1203.51,-473.41"/>
<text text-anchor="start" x="1263" y="-659.2" font-family="DejaVu Sans" font-size="11.00" fill="#334e68">Маршрутизує клінічний перегляд</text>
</g>
<!-- n_b10c10dbc143 -->
<g id="node10" class="node">
<title>n_b10c10dbc143</title>
<path fill="#3b5bdb" stroke="#486581" stroke-width="1.5" d="M1690,-183C1690,-183 1438,-183 1438,-183 1432,-183 1426,-177 1426,-171 1426,-171 1426,-159 1426,-159 1426,-153 1432,-147 1438,-147 1438,-147 1690,-147 1690,-147 1696,-147 1702,-153 1702,-159 1702,-159 1702,-171 1702,-171 1702,-177 1696,-183 1690,-183"/>
<text text-anchor="start" x="1493" y="-167.4" font-family="DejaVu Sans" font-weight="bold" font-size="12.00" fill="#ffffff">Інтеграційний шлюз</text>
<text text-anchor="start" x="1436" y="-157" font-family="DejaVu Sans" font-size="10.00" fill="#ffffff">[Контейнер · FHIR/DICOM/REST integration service]</text>
</g>
<!-- n_41f799bbfc63&#45;&gt;n_b10c10dbc143 -->
<g id="edge25" class="edge">
<title>n_41f799bbfc63&#45;&gt;n_b10c10dbc143</title>
<path fill="none" stroke="#486581" stroke-width="1.4" d="M1325.9,-829.97C1440.83,-797.29 1681,-729 1681,-729 1681,-729 1681,-729 1681,-306 1681,-306 1660,-224 1660,-224 1660,-224 1626.8,-203.94 1599.45,-187.42"/>
<polygon fill="#486581" stroke="#486581" stroke-width="1.4" points="1600.58,-184.83 1592.28,-183.09 1597.68,-189.62 1600.58,-184.83"/>
<text text-anchor="start" x="1681" y="-517.2" font-family="DejaVu Sans" font-size="11.00" fill="#334e68">Маршрутизує зовнішній обмін</text>
</g>
<!-- n_f9075d486a51 -->
<g id="node11" class="node">
<title>n_f9075d486a51</title>
<path fill="#f4f7fa" stroke="#486581" stroke-width="1.5" d="M850.5,-746C850.5,-746 687.5,-746 687.5,-746 681.5,-746 675.5,-740 675.5,-734 675.5,-734 675.5,-722 675.5,-722 675.5,-716 681.5,-710 687.5,-710 687.5,-710 850.5,-710 850.5,-710 856.5,-710 862.5,-716 862.5,-722 862.5,-722 862.5,-734 862.5,-734 862.5,-740 856.5,-746 850.5,-746"/>
<text text-anchor="start" x="690" y="-730.4" font-family="DejaVu Sans" font-weight="bold" font-size="12.00" fill="#18324a">Оркестратор взаємодії</text>
<text text-anchor="start" x="685.5" y="-720" font-family="DejaVu Sans" font-size="10.00" fill="#18324a">[Контейнер · Application service]</text>
</g>
<!-- n_41f799bbfc63&#45;&gt;n_f9075d486a51 -->
<g id="edge20" class="edge">
<title>n_41f799bbfc63&#45;&gt;n_f9075d486a51</title>
<path fill="none" stroke="#486581" stroke-width="1.4" d="M1186.75,-837.77C1056.38,-822.58 811,-794 811,-794 811,-794 796.57,-771.66 784.62,-753.17"/>
<polygon fill="#486581" stroke="#486581" stroke-width="1.4" points="786.73,-751.28 780.04,-746.08 782.02,-754.32 786.73,-751.28"/>
<text text-anchor="start" x="811" y="-785.2" font-family="DejaVu Sans" font-size="11.00" fill="#334e68">Маршрутизує діалогові операції</text>
</g>
<!-- n_a57f04482dc5 -->
<g id="node12" class="node">
<title>n_a57f04482dc5</title>
<path fill="#0f766e" stroke="#c92a2a" stroke-width="3" d="M614,-472C614,-472 404,-472 404,-472 398,-472 392,-466 392,-460 392,-460 392,-438 392,-438 392,-432 398,-426 404,-426 404,-426 614,-426 614,-426 620,-426 626,-432 626,-438 626,-438 626,-460 626,-460 626,-466 620,-472 614,-472"/>
<text text-anchor="start" x="422" y="-457.4" font-family="DejaVu Sans" font-weight="bold" font-size="12.00" fill="#ffffff">Сервіс мультимодальних</text>
<text text-anchor="start" x="468" y="-445.4" font-family="DejaVu Sans" font-weight="bold" font-size="12.00" fill="#ffffff">вимірювань</text>
<text text-anchor="start" x="402" y="-435" font-family="DejaVu Sans" font-size="10.00" fill="#ffffff">[Контейнер · Signal and media processing]</text>
</g>
<!-- n_41f799bbfc63&#45;&gt;n_a57f04482dc5 -->
<g id="edge23" class="edge">
<title>n_41f799bbfc63&#45;&gt;n_a57f04482dc5</title>
<path fill="none" stroke="#486581" stroke-width="1.4" d="M1186.8,-838.07C1052.86,-822.96 796,-794 796,-794 796,-794 158,-674 158,-674 158,-674 158,-650 158,-650 158,-650 367.64,-530.55 462.89,-476.27"/>
<polygon fill="#486581" stroke="#486581" stroke-width="1.4" points="464.53,-478.56 470.1,-472.17 461.76,-473.7 464.53,-478.56"/>
<text text-anchor="start" x="158" y="-659.2" font-family="DejaVu Sans" font-size="11.00" fill="#334e68">Маршрутизує вимірювання</text>
</g>
<!-- n_78e6a86e3609 -->
<g id="node14" class="node">
<title>n_78e6a86e3609</title>
<path fill="#2b6cb0" stroke="#c92a2a" stroke-width="3" d="M875,-614C875,-614 635,-614 635,-614 629,-614 623,-608 623,-602 623,-602 623,-580 623,-580 623,-574 629,-568 635,-568 635,-568 875,-568 875,-568 881,-568 887,-574 887,-580 887,-580 887,-602 887,-602 887,-608 881,-614 875,-614"/>
<text text-anchor="start" x="676" y="-599.4" font-family="DejaVu Sans" font-weight="bold" font-size="12.00" fill="#ffffff">Детермінований рушій</text>
<text text-anchor="start" x="723" y="-587.4" font-family="DejaVu Sans" font-weight="bold" font-size="12.00" fill="#ffffff">сценаріїв</text>
<text text-anchor="start" x="633" y="-577" font-family="DejaVu Sans" font-size="10.00" fill="#ffffff">[Контейнер · Rules engine / finite&#45;state machine]</text>
</g>
<!-- n_41f799bbfc63&#45;&gt;n_78e6a86e3609 -->
<g id="edge21" class="edge">
<title>n_41f799bbfc63&#45;&gt;n_78e6a86e3609</title>
<path fill="none" stroke="#486581" stroke-width="1.4" d="M1229.19,-829.87C1167.28,-801.05 1049,-746 1049,-746 1049,-746 1004,-650 1004,-650 1004,-650 926.06,-631.84 857.38,-615.85"/>
<polygon fill="#486581" stroke="#486581" stroke-width="1.4" points="857.92,-613.1 849.49,-614.01 856.65,-618.55 857.92,-613.1"/>
<text text-anchor="start" x="1049" y="-725.2" font-family="DejaVu Sans" font-size="11.00" fill="#334e68">Маршрутизує команди сценарію</text>
</g>
<!-- n_eb4c5110ae64 -->
<g id="node15" class="node">
<title>n_eb4c5110ae64</title>
<path fill="#b7791f" stroke="#486581" stroke-width="1.5" d="M1362,-330C1362,-330 1164,-330 1164,-330 1158,-330 1152,-324 1152,-318 1152,-318 1152,-296 1152,-296 1152,-290 1158,-284 1164,-284 1164,-284 1362,-284 1362,-284 1368,-284 1374,-290 1374,-296 1374,-296 1374,-318 1374,-318 1374,-324 1368,-330 1362,-330"/>
<text text-anchor="start" x="1162" y="-315.4" font-family="DejaVu Sans" font-weight="bold" font-size="12.00" fill="#ffffff">Сервіс завдань, нагадувань і</text>
<text text-anchor="start" x="1228" y="-303.4" font-family="DejaVu Sans" font-weight="bold" font-size="12.00" fill="#ffffff">ескалацій</text>
<text text-anchor="start" x="1178.5" y="-293" font-family="DejaVu Sans" font-size="10.00" fill="#ffffff">[Контейнер · Workflow scheduler]</text>
</g>
<!-- n_41f799bbfc63&#45;&gt;n_eb4c5110ae64 -->
<g id="edge24" class="edge">
<title>n_41f799bbfc63&#45;&gt;n_eb4c5110ae64</title>
<path fill="none" stroke="#486581" stroke-width="1.4" d="M1285.91,-829.78C1336.5,-786.02 1466,-674 1466,-674 1466,-674 1466,-650 1466,-650 1466,-650 1419,-614 1419,-614 1419,-614 1333,-366 1333,-366 1333,-366 1314.44,-350.62 1296.44,-335.7"/>
<polygon fill="#486581" stroke="#486581" stroke-width="1.4" points="1297.81,-333.21 1289.86,-330.26 1294.24,-337.52 1297.81,-333.21"/>
<text text-anchor="start" x="1419" y="-588.2" font-family="DejaVu Sans" font-size="11.00" fill="#334e68">Маршрутизує завдання та нагадування</text>
</g>
<!-- n_a2945bc79c18 -->
<g id="node2" class="node">
<title>n_a2945bc79c18</title>
<path fill="#f4f7fa" stroke="#486581" stroke-width="1.5" d="M1395,-1248C1395,-1248 1221,-1248 1221,-1248 1215,-1248 1209,-1242 1209,-1236 1209,-1236 1209,-1224 1209,-1224 1209,-1218 1215,-1212 1221,-1212 1221,-1212 1395,-1212 1395,-1212 1401,-1212 1407,-1218 1407,-1224 1407,-1224 1407,-1236 1407,-1236 1407,-1242 1401,-1248 1395,-1248"/>
<text text-anchor="start" x="1219" y="-1232.4" font-family="DejaVu Sans" font-weight="bold" font-size="12.00" fill="#18324a">Перевірка автентифікації</text>
<text text-anchor="start" x="1227.5" y="-1222" font-family="DejaVu Sans" font-size="10.00" fill="#18324a">[Компонент · OIDC middleware]</text>
</g>
<!-- n_ca3082d69c27 -->
<g id="node3" class="node">
<title>n_ca3082d69c27</title>
<path fill="#f4f7fa" stroke="#486581" stroke-width="1.5" d="M1381,-1123C1381,-1123 1199,-1123 1199,-1123 1193,-1123 1187,-1117 1187,-1111 1187,-1111 1187,-1099 1187,-1099 1187,-1093 1193,-1087 1199,-1087 1199,-1087 1381,-1087 1381,-1087 1387,-1087 1393,-1093 1393,-1099 1393,-1099 1393,-1111 1393,-1111 1393,-1117 1387,-1123 1381,-1123"/>
<text text-anchor="start" x="1197" y="-1107.4" font-family="DejaVu Sans" font-weight="bold" font-size="12.00" fill="#18324a">Обмеження навантаження</text>
<text text-anchor="start" x="1220.5" y="-1097" font-family="DejaVu Sans" font-size="10.00" fill="#18324a">[Компонент · Rate limiting]</text>
</g>
<!-- n_a2945bc79c18&#45;&gt;n_ca3082d69c27 -->
<g id="edge17" class="edge">
<title>n_a2945bc79c18&#45;&gt;n_ca3082d69c27</title>
<path fill="none" stroke="#486581" stroke-width="1.4" d="M1303.82,-1211.94C1300.01,-1196.45 1295,-1176 1295,-1176 1295,-1176 1293.25,-1151.52 1291.82,-1131.52"/>
<polygon fill="#486581" stroke="#486581" stroke-width="1.4" points="1294.6,-1131.08 1291.24,-1123.3 1289.01,-1131.48 1294.6,-1131.08"/>
<text text-anchor="start" x="1295" y="-1167.2" font-family="DejaVu Sans" font-size="11.00" fill="#334e68">Передає автентифікований запит</text>
</g>
<!-- n_dcb3f876e224 -->
<g id="node9" class="node">
<title>n_dcb3f876e224</title>
<path fill="#f4f7fa" stroke="#486581" stroke-width="1.5" d="M1857,-1128C1857,-1128 1617,-1128 1617,-1128 1611,-1128 1605,-1122 1605,-1116 1605,-1116 1605,-1094 1605,-1094 1605,-1088 1611,-1082 1617,-1082 1617,-1082 1857,-1082 1857,-1082 1863,-1082 1869,-1088 1869,-1094 1869,-1094 1869,-1116 1869,-1116 1869,-1122 1863,-1128 1857,-1128"/>
<text text-anchor="start" x="1637.5" y="-1113.4" font-family="DejaVu Sans" font-weight="bold" font-size="12.00" fill="#18324a">Сервіс ідентичності, доступу</text>
<text text-anchor="start" x="1711.5" y="-1101.4" font-family="DejaVu Sans" font-weight="bold" font-size="12.00" fill="#18324a">та згод</text>
<text text-anchor="start" x="1615" y="-1091" font-family="DejaVu Sans" font-size="10.00" fill="#18324a">[Контейнер · OIDC, RBAC/ABAC, consent service]</text>
</g>
<!-- n_a2945bc79c18&#45;&gt;n_dcb3f876e224 -->
<g id="edge16" class="edge">
<title>n_a2945bc79c18&#45;&gt;n_dcb3f876e224</title>
<path fill="none" stroke="#486581" stroke-width="1.4" d="M1370.13,-1211.94C1426.55,-1196.45 1501,-1176 1501,-1176 1501,-1176 1586.74,-1150.57 1654.86,-1130.36"/>
<polygon fill="#486581" stroke="#486581" stroke-width="1.4" points="1655.78,-1133.01 1662.65,-1128.05 1654.19,-1127.64 1655.78,-1133.01"/>
<text text-anchor="start" x="1540" y="-1167.2" font-family="DejaVu Sans" font-size="11.00" fill="#334e68">Перевіряє токен і контекст доступу</text>
</g>
<!-- n_347e5595e1b1 -->
<g id="node4" class="node">
<title>n_347e5595e1b1</title>
<path fill="#f4f7fa" stroke="#486581" stroke-width="1.5" d="M1387,-986C1387,-986 1199,-986 1199,-986 1193,-986 1187,-980 1187,-974 1187,-974 1187,-962 1187,-962 1187,-956 1193,-950 1199,-950 1199,-950 1387,-950 1387,-950 1393,-950 1399,-956 1399,-962 1399,-962 1399,-974 1399,-974 1399,-980 1393,-986 1387,-986"/>
<text text-anchor="start" x="1220.5" y="-970.4" font-family="DejaVu Sans" font-weight="bold" font-size="12.00" fill="#18324a">Контроль контрактів</text>
<text text-anchor="start" x="1197" y="-960" font-family="DejaVu Sans" font-size="10.00" fill="#18324a">[Компонент · OpenAPI / JSON Schema]</text>
</g>
<!-- n_ca3082d69c27&#45;&gt;n_347e5595e1b1 -->
<g id="edge18" class="edge">
<title>n_ca3082d69c27&#45;&gt;n_347e5595e1b1</title>
<path fill="none" stroke="#486581" stroke-width="1.4" d="M1290.38,-1086.9C1290.9,-1063.6 1291.83,-1021.67 1292.43,-994.61"/>
<polygon fill="#486581" stroke="#486581" stroke-width="1.4" points="1295.24,-994.45 1292.61,-986.39 1289.64,-994.32 1295.24,-994.45"/>
<text text-anchor="start" x="1291" y="-1037.2" font-family="DejaVu Sans" font-size="11.00" fill="#334e68">Передає запит у межах встановлених</text>
<text text-anchor="start" x="1390" y="-1025.2" font-family="DejaVu Sans" font-size="11.00" fill="#334e68">квот</text>
</g>
<!-- n_347e5595e1b1&#45;&gt;n_41f799bbfc63 -->
<g id="edge19" class="edge">
<title>n_347e5595e1b1&#45;&gt;n_41f799bbfc63</title>
<path fill="none" stroke="#486581" stroke-width="1.4" d="M1289.07,-949.84C1284.51,-929.92 1276.95,-896.87 1271.74,-874.07"/>
<polygon fill="#486581" stroke="#486581" stroke-width="1.4" points="1274.44,-873.35 1269.93,-866.18 1268.99,-874.6 1274.44,-873.35"/>
<text text-anchor="start" x="1280" y="-905.2" font-family="DejaVu Sans" font-size="11.00" fill="#334e68">Передає валідований контракт</text>
</g>
<!-- n_d23827c92006 -->
<g id="node5" class="node">
<title>n_d23827c92006</title>
<path fill="#8a5a00" stroke="#486581" stroke-width="1.5" d="M160,-188C160,-188 12,-188 12,-188 6,-188 0,-182 0,-176 0,-176 0,-154 0,-154 0,-148 6,-142 12,-142 12,-142 160,-142 160,-142 166,-142 172,-148 172,-154 172,-154 172,-176 172,-176 172,-182 166,-188 160,-188"/>
<text text-anchor="start" x="19.5" y="-173.4" font-family="DejaVu Sans" font-weight="bold" font-size="12.00" fill="#ffffff">Студія алгоритмів і</text>
<text text-anchor="start" x="47.5" y="-161.4" font-family="DejaVu Sans" font-weight="bold" font-size="12.00" fill="#ffffff">протоколів</text>
<text text-anchor="start" x="10" y="-151" font-family="DejaVu Sans" font-size="10.00" fill="#ffffff">[Контейнер · Web application]</text>
</g>
<!-- n_5f5685eeff97 -->
<g id="node6" class="node">
<title>n_5f5685eeff97</title>
<path fill="#4a5568" stroke="#486581" stroke-width="1.5" d="M974,-46C974,-46 752,-46 752,-46 746,-46 740,-40 740,-34 740,-34 740,-12 740,-12 740,-6 746,0 752,0 752,0 974,0 974,0 980,0 986,-6 986,-12 986,-12 986,-34 986,-34 986,-40 980,-46 974,-46"/>
<text text-anchor="start" x="805" y="-31.4" font-family="DejaVu Sans" font-weight="bold" font-size="12.00" fill="#ffffff">Сервіс аудиту та</text>
<text text-anchor="start" x="797.5" y="-19.4" font-family="DejaVu Sans" font-weight="bold" font-size="12.00" fill="#ffffff">спостережуваності</text>
<text text-anchor="start" x="750" y="-9" font-family="DejaVu Sans" font-size="10.00" fill="#ffffff">[Контейнер · Audit and observability service]</text>
</g>
<!-- n_d23827c92006&#45;&gt;n_5f5685eeff97 -->
<g id="edge15" class="edge">
<title>n_d23827c92006&#45;&gt;n_5f5685eeff97</title>
<path fill="none" stroke="#486581" stroke-width="1.4" d="M84.85,-141.74C84,-125.39 83,-106 83,-106 83,-106 83,-82 83,-82 83,-82 509.43,-50.29 731.69,-33.76"/>
<polygon fill="#486581" stroke="#486581" stroke-width="1.4" points="732.07,-36.54 739.84,-33.16 731.65,-30.96 732.07,-36.54"/>
<text text-anchor="start" x="83" y="-97.2" font-family="DejaVu Sans" font-size="11.00" fill="#334e68">Реєструє зміни, перевірки, погодження</text>
<text text-anchor="start" x="167" y="-85.2" font-family="DejaVu Sans" font-size="11.00" fill="#334e68">та випуски</text>
</g>
<!-- n_c210e7db8afd&#45;&gt;n_5f5685eeff97 -->
<g id="edge10" class="edge">
<title>n_c210e7db8afd&#45;&gt;n_5f5685eeff97</title>
<path fill="none" stroke="#486581" stroke-width="1.4" d="M1112.86,-425.91C1082.34,-409.52 1046,-390 1046,-390 1046,-390 935,-248 935,-248 935,-248 892.3,-115.15 872.67,-54.07"/>
<polygon fill="#486581" stroke="#486581" stroke-width="1.4" points="875.28,-53.06 870.17,-46.3 869.95,-54.77 875.28,-53.06"/>
<text text-anchor="start" x="935" y="-239.2" font-family="DejaVu Sans" font-size="11.00" fill="#334e68">Реєструє правила, джерела, пояснення</text>
<text text-anchor="start" x="972" y="-227.2" font-family="DejaVu Sans" font-size="11.00" fill="#334e68">та клінічне підтвердження</text>
</g>
<!-- n_c210e7db8afd&#45;&gt;n_eb4c5110ae64 -->
<g id="edge9" class="edge">
<title>n_c210e7db8afd&#45;&gt;n_eb4c5110ae64</title>
<path fill="none" stroke="#486581" stroke-width="1.4" d="M1115.91,-425.91C1087.65,-409.52 1054,-390 1054,-390 1054,-390 1054,-366 1054,-366 1054,-366 1118.37,-348.14 1175.66,-332.24"/>
<polygon fill="#486581" stroke="#486581" stroke-width="1.4" points="1176.73,-334.85 1183.69,-330.01 1175.23,-329.45 1176.73,-334.85"/>
<text text-anchor="start" x="1054" y="-381.2" font-family="DejaVu Sans" font-size="11.00" fill="#334e68">Передає погоджений або безпечний план</text>
<text text-anchor="start" x="1148" y="-369.2" font-family="DejaVu Sans" font-size="11.00" fill="#334e68">супроводу</text>
</g>
<!-- n_a8676803ace0 -->
<g id="node8" class="node">
<title>n_a8676803ace0</title>
<path fill="#6c4ab6" stroke="#486581" stroke-width="1.5" d="M1685,-1248C1685,-1248 1473,-1248 1473,-1248 1467,-1248 1461,-1242 1461,-1236 1461,-1236 1461,-1224 1461,-1224 1461,-1218 1467,-1212 1473,-1212 1473,-1212 1685,-1212 1685,-1212 1691,-1212 1697,-1218 1697,-1224 1697,-1224 1697,-1236 1697,-1236 1697,-1242 1691,-1248 1685,-1248"/>
<text text-anchor="start" x="1471" y="-1232.4" font-family="DejaVu Sans" font-weight="bold" font-size="12.00" fill="#ffffff">Кабінет медичного працівника</text>
<text text-anchor="start" x="1503" y="-1222" font-family="DejaVu Sans" font-size="10.00" fill="#ffffff">[Контейнер · Web application]</text>
</g>
<!-- n_dcb3f876e224&#45;&gt;n_5f5685eeff97 -->
<g id="edge1" class="edge">
<title>n_dcb3f876e224&#45;&gt;n_5f5685eeff97</title>
<path fill="none" stroke="#486581" stroke-width="1.4" d="M1760.78,-1081.71C1801.68,-1043.36 1881,-969 1881,-969 1881,-969 1881,-969 1881,-164 1881,-164 1535,-82 1535,-82 1535,-82 1189.89,-52.21 994.3,-35.33"/>
<polygon fill="#486581" stroke="#486581" stroke-width="1.4" points="994.47,-32.54 986.26,-34.64 993.98,-38.12 994.47,-32.54"/>
<text text-anchor="start" x="1881" y="-594.2" font-family="DejaVu Sans" font-size="11.00" fill="#334e68">Реєструє рішення авторизації та зміни</text>
<text text-anchor="start" x="1982" y="-582.2" font-family="DejaVu Sans" font-size="11.00" fill="#334e68">згод</text>
</g>
<!-- n_b10c10dbc143&#45;&gt;n_5f5685eeff97 -->
<g id="edge14" class="edge">
<title>n_b10c10dbc143&#45;&gt;n_5f5685eeff97</title>
<path fill="none" stroke="#486581" stroke-width="1.4" d="M1492.93,-146.91C1392.99,-122.88 1223,-82 1223,-82 1223,-82 1097.04,-61.71 994.13,-45.13"/>
<polygon fill="#486581" stroke="#486581" stroke-width="1.4" points="994.48,-42.35 986.14,-43.84 993.59,-47.88 994.48,-42.35"/>
<text text-anchor="start" x="1314" y="-97.2" font-family="DejaVu Sans" font-size="11.00" fill="#334e68">Реєструє мету, згоду, склад даних і</text>
<text text-anchor="start" x="1359.5" y="-85.2" font-family="DejaVu Sans" font-size="11.00" fill="#334e68">зовнішній результат</text>
</g>
<!-- n_f9075d486a51&#45;&gt;n_5f5685eeff97 -->
<g id="edge4" class="edge">
<title>n_f9075d486a51&#45;&gt;n_5f5685eeff97</title>
<path fill="none" stroke="#486581" stroke-width="1.4" d="M715.05,-709.9C600.42,-673.58 343,-592 343,-592 343,-592 343,-592 343,-164 343,-164 624.57,-88.19 773.32,-48.14"/>
<polygon fill="#486581" stroke="#486581" stroke-width="1.4" points="774.18,-50.81 781.18,-46.03 772.73,-45.41 774.18,-50.81"/>
<text text-anchor="start" x="343" y="-381.2" font-family="DejaVu Sans" font-size="11.00" fill="#334e68">Реєструє походження сформованої</text>
<text text-anchor="start" x="363.5" y="-369.2" font-family="DejaVu Sans" font-size="11.00" fill="#334e68">репліки й виконаного кроку</text>
</g>
<!-- n_f9075d486a51&#45;&gt;n_78e6a86e3609 -->
<g id="edge2" class="edge">
<title>n_f9075d486a51&#45;&gt;n_78e6a86e3609</title>
<path fill="none" stroke="#486581" stroke-width="1.4" d="M762.88,-709.94C757.33,-694.45 750,-674 750,-674 750,-674 750,-650 750,-650 750,-650 751.17,-636.45 752.37,-622.45"/>
<polygon fill="#486581" stroke="#486581" stroke-width="1.4" points="755.18,-622.47 753.08,-614.26 749.6,-621.99 755.18,-622.47"/>
<text text-anchor="start" x="750" y="-665.2" font-family="DejaVu Sans" font-size="11.00" fill="#334e68">Отримує детермінований наступний крок</text>
<text text-anchor="start" x="823.5" y="-653.2" font-family="DejaVu Sans" font-size="11.00" fill="#334e68">і статус сценарію</text>
</g>
<!-- n_f9075d486a51&#45;&gt;n_eb4c5110ae64 -->
<g id="edge3" class="edge">
<title>n_f9075d486a51&#45;&gt;n_eb4c5110ae64</title>
<path fill="none" stroke="#486581" stroke-width="1.4" d="M845.94,-709.94C915.8,-694.45 1008,-674 1008,-674 1008,-674 1173,-508 1173,-508 1173,-508 1296,-472 1296,-472 1296,-472 1308,-390 1308,-390 1308,-390 1308,-366 1308,-366 1308,-366 1296.69,-351.42 1285.41,-336.88"/>
<polygon fill="#486581" stroke="#486581" stroke-width="1.4" points="1287.39,-334.86 1280.27,-330.26 1282.96,-338.3 1287.39,-334.86"/>
<text text-anchor="start" x="1173" y="-523.2" font-family="DejaVu Sans" font-size="11.00" fill="#334e68">Створює завдання продовження,</text>
<text text-anchor="start" x="1175.5" y="-511.2" font-family="DejaVu Sans" font-size="11.00" fill="#334e68">повторного контакту або візиту</text>
</g>
<!-- n_a57f04482dc5&#45;&gt;n_5f5685eeff97 -->
<g id="edge11" class="edge">
<title>n_a57f04482dc5&#45;&gt;n_5f5685eeff97</title>
<path fill="none" stroke="#486581" stroke-width="1.4" d="M525.5,-425.74C537.63,-409.39 552,-390 552,-390 552,-390 570,-224 570,-224 570,-224 760,-82 760,-82 760,-82 789.21,-65.55 816.51,-50.18"/>
<polygon fill="#486581" stroke="#486581" stroke-width="1.4" points="818.17,-52.46 823.77,-46.09 815.42,-47.58 818.17,-52.46"/>
<text text-anchor="start" x="570" y="-239.2" font-family="DejaVu Sans" font-size="11.00" fill="#334e68">Реєструє ланцюг оброблення та</text>
<text text-anchor="start" x="611.5" y="-227.2" font-family="DejaVu Sans" font-size="11.00" fill="#334e68">параметри моделі</text>
</g>
<!-- n_8a923be70a11 -->
<g id="node13" class="node">
<title>n_8a923be70a11</title>
<path fill="#0b7285" stroke="#486581" stroke-width="1.5" d="M2039,-1248C2039,-1248 1741,-1248 1741,-1248 1735,-1248 1729,-1242 1729,-1236 1729,-1236 1729,-1224 1729,-1224 1729,-1218 1735,-1212 1741,-1212 1741,-1212 2039,-1212 2039,-1212 2045,-1212 2051,-1218 2051,-1224 2051,-1224 2051,-1236 2051,-1236 2051,-1242 2045,-1248 2039,-1248"/>
<text text-anchor="start" x="1819" y="-1232.4" font-family="DejaVu Sans" font-weight="bold" font-size="12.00" fill="#ffffff">Застосунок пацієнта</text>
<text text-anchor="start" x="1739" y="-1222" font-family="DejaVu Sans" font-size="10.00" fill="#ffffff">[Контейнер · PWA / mobile / web, WebRTC, Web Speech APIs]</text>
</g>
<!-- n_78e6a86e3609&#45;&gt;n_5f5685eeff97 -->
<g id="edge8" class="edge">
<title>n_78e6a86e3609&#45;&gt;n_5f5685eeff97</title>
<path fill="none" stroke="#486581" stroke-width="1.4" d="M753.55,-567.83C749.44,-504.96 738,-330 738,-330 738,-330 738,-284 738,-284 738,-284 764,-248 764,-248 764,-248 822.95,-114.61 849.87,-53.7"/>
<polygon fill="#486581" stroke="#486581" stroke-width="1.4" points="852.47,-54.75 853.15,-46.3 847.35,-52.48 852.47,-54.75"/>
<text text-anchor="start" x="738" y="-310.2" font-family="DejaVu Sans" font-size="11.00" fill="#334e68">Фіксує версію, введення, правило та</text>
<text text-anchor="start" x="780.5" y="-298.2" font-family="DejaVu Sans" font-size="11.00" fill="#334e68">результат обчислення</text>
</g>
<!-- n_78e6a86e3609&#45;&gt;n_c210e7db8afd -->
<g id="edge5" class="edge">
<title>n_78e6a86e3609&#45;&gt;n_c210e7db8afd</title>
<path fill="none" stroke="#486581" stroke-width="1.4" d="M769.21,-567.59C784.61,-543.31 807,-508 807,-508 807,-508 922.2,-488.74 1019.85,-472.42"/>
<polygon fill="#486581" stroke="#486581" stroke-width="1.4" points="1020.31,-475.18 1027.74,-471.1 1019.39,-469.66 1020.31,-475.18"/>
<text text-anchor="start" x="807" y="-523.2" font-family="DejaVu Sans" font-size="11.00" fill="#334e68">Передає завершений або проміжний</text>
<text text-anchor="start" x="814.5" y="-511.2" font-family="DejaVu Sans" font-size="11.00" fill="#334e68">клінічний результат для агрегації</text>
</g>
<!-- n_78e6a86e3609&#45;&gt;n_a57f04482dc5 -->
<g id="edge6" class="edge">
<title>n_78e6a86e3609&#45;&gt;n_a57f04482dc5</title>
<path fill="none" stroke="#486581" stroke-width="1.4" d="M638.12,-567.99C550.99,-551.58 447,-532 447,-532 447,-532 447,-508 447,-508 447,-508 463.15,-492.89 478.96,-478.1"/>
<polygon fill="#486581" stroke="#486581" stroke-width="1.4" points="481.28,-479.77 485.21,-472.26 477.45,-475.68 481.28,-479.77"/>
<text text-anchor="start" x="447" y="-523.2" font-family="DejaVu Sans" font-size="11.00" fill="#334e68">Запитує передбачене алгоритмом</text>
<text text-anchor="start" x="510" y="-511.2" font-family="DejaVu Sans" font-size="11.00" fill="#334e68">вимірювання</text>
</g>
<!-- n_78e6a86e3609&#45;&gt;n_eb4c5110ae64 -->
<g id="edge7" class="edge">
<title>n_78e6a86e3609&#45;&gt;n_eb4c5110ae64</title>
<path fill="none" stroke="#486581" stroke-width="1.4" d="M757.29,-567.88C761.93,-523.12 772,-426 772,-426 772,-426 1019.66,-366.48 1163.2,-331.99"/>
<polygon fill="#486581" stroke="#486581" stroke-width="1.4" points="1164.1,-334.65 1171.22,-330.06 1162.79,-329.2 1164.1,-334.65"/>
<text text-anchor="start" x="772" y="-452.2" font-family="DejaVu Sans" font-size="11.00" fill="#334e68">Створює контрольні завдання та строки</text>
<text text-anchor="start" x="871.5" y="-440.2" font-family="DejaVu Sans" font-size="11.00" fill="#334e68">реакції</text>
</g>
<!-- n_eb4c5110ae64&#45;&gt;n_5f5685eeff97 -->
<g id="edge13" class="edge">
<title>n_eb4c5110ae64&#45;&gt;n_5f5685eeff97</title>
<path fill="none" stroke="#486581" stroke-width="1.4" d="M1239.5,-283.59C1214.04,-259.31 1177,-224 1177,-224 1177,-224 967,-82 967,-82 967,-82 937.51,-65.55 909.94,-50.18"/>
<polygon fill="#486581" stroke="#486581" stroke-width="1.4" points="910.97,-47.54 902.61,-46.09 908.24,-52.43 910.97,-47.54"/>
<text text-anchor="start" x="1123" y="-168.2" font-family="DejaVu Sans" font-size="11.00" fill="#334e68">Реєструє створення, доставку та</text>
<text text-anchor="start" x="1161" y="-156.2" font-family="DejaVu Sans" font-size="11.00" fill="#334e68">результат завдання</text>
</g>
<!-- n_eb4c5110ae64&#45;&gt;n_b10c10dbc143 -->
<g id="edge12" class="edge">
<title>n_eb4c5110ae64&#45;&gt;n_b10c10dbc143</title>
<path fill="none" stroke="#486581" stroke-width="1.4" d="M1305.76,-283.81C1352.55,-259.52 1421,-224 1421,-224 1421,-224 1473.01,-202.9 1514.3,-186.16"/>
<polygon fill="#486581" stroke="#486581" stroke-width="1.4" points="1515.51,-188.69 1521.87,-183.09 1513.4,-183.5 1515.51,-188.69"/>
<text text-anchor="start" x="1421" y="-239.2" font-family="DejaVu Sans" font-size="11.00" fill="#334e68">Передає нагадування, події календаря,</text>
<text text-anchor="start" x="1442" y="-227.2" font-family="DejaVu Sans" font-size="11.00" fill="#334e68">телемедичні сеанси та ескалації</text>
</g>
</g>
</svg>
