<?xml version="1.0" encoding="UTF-8" standalone="no"?>
<!DOCTYPE svg PUBLIC "-//W3C//DTD SVG 1.1//EN"
 "http://www.w3.org/Graphics/SVG/1.1/DTD/svg11.dtd">
<!-- Generated by graphviz version 2.42.4 (0)
 -->
<!-- Title: G Pages: 1 -->
<svg width="1047pt" height="1194pt"
 viewBox="0.00 0.00 1046.90 1194.15" xmlns="http://www.w3.org/2000/svg" xmlns:xlink="http://www.w3.org/1999/xlink">
<g id="graph0" class="graph" transform="scale(1 1) rotate(0) translate(25.2 1168.95)">
<title>G</title>
<polygon fill="white" stroke="transparent" points="-25.2,25.2 -25.2,-1168.95 1021.7,-1168.95 1021.7,25.2 -25.2,25.2"/>
<text text-anchor="start" x="71" y="-1129.55" font-family="DejaVu Sans" font-weight="bold" font-size="14.00">C3.03 — Компоненти студії алгоритмів</text>
<text text-anchor="start" x="8" y="-1117.15" font-family="DejaVu Sans" font-size="12.00">Компоненти формалізації та керування життєвим циклом алгоритму.</text>
<g id="clust1" class="cluster">
<title>cluster_scope</title>
<path fill="white" stroke="#486581" stroke-width="2.2" d="M409.5,-139.75C409.5,-139.75 671.5,-139.75 671.5,-139.75 677.5,-139.75 683.5,-145.75 683.5,-151.75 683.5,-151.75 683.5,-993.75 683.5,-993.75 683.5,-999.75 677.5,-1005.75 671.5,-1005.75 671.5,-1005.75 409.5,-1005.75 409.5,-1005.75 403.5,-1005.75 397.5,-999.75 397.5,-993.75 397.5,-993.75 397.5,-151.75 397.5,-151.75 397.5,-145.75 403.5,-139.75 409.5,-139.75"/>
<text text-anchor="start" x="405.5" y="-991.55" font-family="DejaVu Sans" font-weight="bold" font-size="14.00">Студія алгоритмів і протоколів</text>
</g>
<!-- n_82e79b78f358 -->
<g id="node1" class="node">
<title>n_82e79b78f358</title>
<path fill="#f4f7fa" stroke="#486581" stroke-width="1.5" d="M570,-438.75C570,-438.75 417,-438.75 417,-438.75 411,-438.75 405,-432.75 405,-426.75 405,-426.75 405,-404.75 405,-404.75 405,-398.75 411,-392.75 417,-392.75 417,-392.75 570,-392.75 570,-392.75 576,-392.75 582,-398.75 582,-404.75 582,-404.75 582,-426.75 582,-426.75 582,-432.75 576,-438.75 570,-438.75"/>
<text text-anchor="start" x="423" y="-424.15" font-family="DejaVu Sans" font-weight="bold" font-size="12.00" fill="#18324a">Маршрут клінічного</text>
<text text-anchor="start" x="451" y="-412.15" font-family="DejaVu Sans" font-weight="bold" font-size="12.00" fill="#18324a">погодження</text>
<text text-anchor="start" x="415" y="-401.75" font-family="DejaVu Sans" font-size="10.00" fill="#18324a">[Компонент · Workflow engine]</text>
</g>
<!-- n_2e07cf3754b4 -->
<g id="node7" class="node">
<title>n_2e07cf3754b4</title>
<path fill="#f4f7fa" stroke="#486581" stroke-width="1.5" d="M561.5,-308.75C561.5,-308.75 417.5,-308.75 417.5,-308.75 411.5,-308.75 405.5,-302.75 405.5,-296.75 405.5,-296.75 405.5,-284.75 405.5,-284.75 405.5,-278.75 411.5,-272.75 417.5,-272.75 417.5,-272.75 561.5,-272.75 561.5,-272.75 567.5,-272.75 573.5,-278.75 573.5,-284.75 573.5,-284.75 573.5,-296.75 573.5,-296.75 573.5,-302.75 567.5,-308.75 561.5,-308.75"/>
<text text-anchor="start" x="420" y="-293.15" font-family="DejaVu Sans" font-weight="bold" font-size="12.00" fill="#18324a">Керування версіями</text>
<text text-anchor="start" x="415.5" y="-282.75" font-family="DejaVu Sans" font-size="10.00" fill="#18324a">[Компонент · Version control]</text>
</g>
<!-- n_82e79b78f358&#45;&gt;n_2e07cf3754b4 -->
<g id="edge7" class="edge">
<title>n_82e79b78f358&#45;&gt;n_2e07cf3754b4</title>
<path fill="none" stroke="#486581" stroke-width="1.4" d="M492.78,-392.48C492.09,-371.33 491.05,-339.56 490.33,-317.38"/>
<polygon fill="#486581" stroke="#486581" stroke-width="1.4" points="493.12,-317 490.06,-309.09 487.53,-317.18 493.12,-317"/>
<text text-anchor="start" x="491.5" y="-347.95" font-family="DejaVu Sans" font-size="11.00" fill="#334e68">Фіксує погоджену редакцію та статус</text>
</g>
<!-- n_7c012fa0049e -->
<g id="node2" class="node">
<title>n_7c012fa0049e</title>
<path fill="#f4f7fa" stroke="#c92a2a" stroke-width="3" d="M631,-700.75C631,-700.75 418,-700.75 418,-700.75 412,-700.75 406,-694.75 406,-688.75 406,-688.75 406,-666.75 406,-666.75 406,-660.75 412,-654.75 418,-654.75 418,-654.75 631,-654.75 631,-654.75 637,-654.75 643,-660.75 643,-666.75 643,-666.75 643,-688.75 643,-688.75 643,-694.75 637,-700.75 631,-700.75"/>
<text text-anchor="start" x="450.5" y="-686.15" font-family="DejaVu Sans" font-weight="bold" font-size="12.00" fill="#18324a">Клінічний і технічний</text>
<text text-anchor="start" x="489.5" y="-674.15" font-family="DejaVu Sans" font-weight="bold" font-size="12.00" fill="#18324a">валідатор</text>
<text text-anchor="start" x="416" y="-663.75" font-family="DejaVu Sans" font-size="10.00" fill="#18324a">[Компонент · Rules and schema validation]</text>
</g>
<!-- n_d1038ddad4bb -->
<g id="node6" class="node">
<title>n_d1038ddad4bb</title>
<path fill="#f4f7fa" stroke="#486581" stroke-width="1.5" d="M603.5,-558.75C603.5,-558.75 417.5,-558.75 417.5,-558.75 411.5,-558.75 405.5,-552.75 405.5,-546.75 405.5,-546.75 405.5,-534.75 405.5,-534.75 405.5,-528.75 411.5,-522.75 417.5,-522.75 417.5,-522.75 603.5,-522.75 603.5,-522.75 609.5,-522.75 615.5,-528.75 615.5,-534.75 615.5,-534.75 615.5,-546.75 615.5,-546.75 615.5,-552.75 609.5,-558.75 603.5,-558.75"/>
<text text-anchor="start" x="415.5" y="-543.15" font-family="DejaVu Sans" font-weight="bold" font-size="12.00" fill="#18324a">Симулятор і тестові набори</text>
<text text-anchor="start" x="442.5" y="-532.75" font-family="DejaVu Sans" font-size="10.00" fill="#18324a">[Компонент · Test harness]</text>
</g>
<!-- n_7c012fa0049e&#45;&gt;n_d1038ddad4bb -->
<g id="edge5" class="edge">
<title>n_7c012fa0049e&#45;&gt;n_d1038ddad4bb</title>
<path fill="none" stroke="#486581" stroke-width="1.4" d="M522.19,-654.46C519.69,-630.37 515.72,-592.07 513.11,-566.92"/>
<polygon fill="#486581" stroke="#486581" stroke-width="1.4" points="515.89,-566.6 512.28,-558.93 510.32,-567.18 515.89,-566.6"/>
<text text-anchor="start" x="517.5" y="-609.95" font-family="DejaVu Sans" font-size="11.00" fill="#334e68">Допускає до симуляції лише валідну</text>
<text text-anchor="start" x="595" y="-597.95" font-family="DejaVu Sans" font-size="11.00" fill="#334e68">структуру</text>
</g>
<!-- n_d1cce12dd4aa -->
<g id="node3" class="node">
<title>n_d1cce12dd4aa</title>
<path fill="#f4f7fa" stroke="#486581" stroke-width="1.5" d="M595,-842.75C595,-842.75 418,-842.75 418,-842.75 412,-842.75 406,-836.75 406,-830.75 406,-830.75 406,-808.75 406,-808.75 406,-802.75 412,-796.75 418,-796.75 418,-796.75 595,-796.75 595,-796.75 601,-796.75 607,-802.75 607,-808.75 607,-808.75 607,-830.75 607,-830.75 607,-836.75 601,-842.75 595,-842.75"/>
<text text-anchor="start" x="431" y="-828.15" font-family="DejaVu Sans" font-weight="bold" font-size="12.00" fill="#18324a">Редактор визначення</text>
<text text-anchor="start" x="470" y="-816.15" font-family="DejaVu Sans" font-weight="bold" font-size="12.00" fill="#18324a">алгоритму</text>
<text text-anchor="start" x="416" y="-805.75" font-family="DejaVu Sans" font-size="10.00" fill="#18324a">[Компонент · Schema&#45;driven editor]</text>
</g>
<!-- n_d1cce12dd4aa&#45;&gt;n_7c012fa0049e -->
<g id="edge4" class="edge">
<title>n_d1cce12dd4aa&#45;&gt;n_7c012fa0049e</title>
<path fill="none" stroke="#486581" stroke-width="1.4" d="M509.35,-796.57C512.39,-772.91 517.23,-735.3 520.62,-708.96"/>
<polygon fill="#486581" stroke="#486581" stroke-width="1.4" points="523.42,-709.12 521.66,-700.83 517.86,-708.41 523.42,-709.12"/>
<text text-anchor="start" x="516.5" y="-751.95" font-family="DejaVu Sans" font-size="11.00" fill="#334e68">Передає версію на формальну та</text>
<text text-anchor="start" x="559.5" y="-739.95" font-family="DejaVu Sans" font-size="11.00" fill="#334e68">клінічну перевірку</text>
</g>
<!-- n_22a2655265f6 -->
<g id="node4" class="node">
<title>n_22a2655265f6</title>
<path fill="#f4f7fa" stroke="#c92a2a" stroke-width="3" d="M591.5,-183.75C591.5,-183.75 417.5,-183.75 417.5,-183.75 411.5,-183.75 405.5,-177.75 405.5,-171.75 405.5,-171.75 405.5,-159.75 405.5,-159.75 405.5,-153.75 411.5,-147.75 417.5,-147.75 417.5,-147.75 591.5,-147.75 591.5,-147.75 597.5,-147.75 603.5,-153.75 603.5,-159.75 603.5,-159.75 603.5,-171.75 603.5,-171.75 603.5,-177.75 597.5,-183.75 591.5,-183.75"/>
<text text-anchor="start" x="415.5" y="-168.15" font-family="DejaVu Sans" font-weight="bold" font-size="12.00" fill="#18324a">Публікатор і відкликання</text>
<text text-anchor="start" x="428" y="-157.75" font-family="DejaVu Sans" font-size="10.00" fill="#18324a">[Компонент · Release service]</text>
</g>
<!-- n_ace1c56edb4b -->
<g id="node10" class="node">
<title>n_ace1c56edb4b</title>
<path fill="#edf2f7" stroke="#486581" stroke-width="1.5" d="M741.5,-42.4C741.5,-44.73 694.89,-46.63 637.5,-46.63 580.11,-46.63 533.5,-44.73 533.5,-42.4 533.5,-42.4 533.5,-4.35 533.5,-4.35 533.5,-2.02 580.11,-0.12 637.5,-0.12 694.89,-0.12 741.5,-2.02 741.5,-4.35 741.5,-4.35 741.5,-42.4 741.5,-42.4"/>
<path fill="none" stroke="#486581" stroke-width="1.5" d="M741.5,-42.4C741.5,-40.07 694.89,-38.17 637.5,-38.17 580.11,-38.17 533.5,-40.07 533.5,-42.4"/>
<text text-anchor="start" x="574" y="-25.77" font-family="DejaVu Sans" font-weight="bold" font-size="12.00" fill="#1a202c">Реєстр алгоритмів</text>
<text text-anchor="start" x="543.5" y="-15.37" font-family="DejaVu Sans" font-size="10.00" fill="#1a202c">[Сховище даних · Versioned registry]</text>
</g>
<!-- n_22a2655265f6&#45;&gt;n_ace1c56edb4b -->
<g id="edge9" class="edge">
<title>n_22a2655265f6&#45;&gt;n_ace1c56edb4b</title>
<path fill="none" stroke="#486581" stroke-width="1.4" d="M533.08,-147.66C561.69,-130.55 601.5,-106.75 601.5,-106.75 601.5,-106.75 614.12,-77.86 624.42,-54.3"/>
<polygon fill="#486581" stroke="#486581" stroke-width="1.4" points="627.02,-55.34 627.66,-46.88 621.89,-53.09 627.02,-55.34"/>
<text text-anchor="start" x="610.5" y="-97.95" font-family="DejaVu Sans" font-size="11.00" fill="#334e68">Публікує або відкликає підписану</text>
<text text-anchor="start" x="691.5" y="-85.95" font-family="DejaVu Sans" font-size="11.00" fill="#334e68">версію</text>
</g>
<!-- n_5f5685eeff97 -->
<g id="node11" class="node">
<title>n_5f5685eeff97</title>
<path fill="#4a5568" stroke="#486581" stroke-width="1.5" d="M352.5,-46.38C352.5,-46.38 130.5,-46.38 130.5,-46.38 124.5,-46.38 118.5,-40.38 118.5,-34.38 118.5,-34.38 118.5,-12.38 118.5,-12.38 118.5,-6.38 124.5,-0.37 130.5,-0.37 130.5,-0.37 352.5,-0.37 352.5,-0.37 358.5,-0.37 364.5,-6.37 364.5,-12.37 364.5,-12.37 364.5,-34.38 364.5,-34.38 364.5,-40.38 358.5,-46.38 352.5,-46.38"/>
<text text-anchor="start" x="183.5" y="-31.77" font-family="DejaVu Sans" font-weight="bold" font-size="12.00" fill="#ffffff">Сервіс аудиту та</text>
<text text-anchor="start" x="176" y="-19.77" font-family="DejaVu Sans" font-weight="bold" font-size="12.00" fill="#ffffff">спостережуваності</text>
<text text-anchor="start" x="128.5" y="-9.38" font-family="DejaVu Sans" font-size="10.00" fill="#ffffff">[Контейнер · Audit and observability service]</text>
</g>
<!-- n_22a2655265f6&#45;&gt;n_5f5685eeff97 -->
<g id="edge10" class="edge">
<title>n_22a2655265f6&#45;&gt;n_5f5685eeff97</title>
<path fill="none" stroke="#486581" stroke-width="1.4" d="M463.25,-147.66C421.96,-130.55 364.5,-106.75 364.5,-106.75 364.5,-106.75 335.5,-82.75 335.5,-82.75 335.5,-82.75 308.89,-66.23 283.99,-50.76"/>
<polygon fill="#486581" stroke="#486581" stroke-width="1.4" points="285.31,-48.29 277.04,-46.44 282.36,-53.04 285.31,-48.29"/>
<text text-anchor="start" x="364.5" y="-97.95" font-family="DejaVu Sans" font-size="11.00" fill="#334e68">Фіксує випуск, автора, погодження та</text>
<text text-anchor="start" x="428.5" y="-85.95" font-family="DejaVu Sans" font-size="11.00" fill="#334e68">контрольну суму</text>
</g>
<!-- n_b4d64920ec8b -->
<g id="node5" class="node">
<title>n_b4d64920ec8b</title>
<path fill="#f4f7fa" stroke="#486581" stroke-width="1.5" d="M641.5,-974.75C641.5,-974.75 439.5,-974.75 439.5,-974.75 433.5,-974.75 427.5,-968.75 427.5,-962.75 427.5,-962.75 427.5,-950.75 427.5,-950.75 427.5,-944.75 433.5,-938.75 439.5,-938.75 439.5,-938.75 641.5,-938.75 641.5,-938.75 647.5,-938.75 653.5,-944.75 653.5,-950.75 653.5,-950.75 653.5,-962.75 653.5,-962.75 653.5,-968.75 647.5,-974.75 641.5,-974.75"/>
<text text-anchor="start" x="437.5" y="-959.15" font-family="DejaVu Sans" font-weight="bold" font-size="12.00" fill="#18324a">Імпортер вихідних матеріалів</text>
<text text-anchor="start" x="460" y="-948.75" font-family="DejaVu Sans" font-size="10.00" fill="#18324a">[Компонент · Document import]</text>
</g>
<!-- n_b4d64920ec8b&#45;&gt;n_d1cce12dd4aa -->
<g id="edge3" class="edge">
<title>n_b4d64920ec8b&#45;&gt;n_d1cce12dd4aa</title>
<path fill="none" stroke="#486581" stroke-width="1.4" d="M536.19,-938.65C530.66,-916.66 520.94,-878.09 514.14,-851.07"/>
<polygon fill="#486581" stroke="#486581" stroke-width="1.4" points="516.79,-850.16 512.13,-843.09 511.36,-851.53 516.79,-850.16"/>
<text text-anchor="start" x="526.5" y="-893.95" font-family="DejaVu Sans" font-size="11.00" fill="#334e68">Створює контрольовану чернетку</text>
<text text-anchor="start" x="592.5" y="-881.95" font-family="DejaVu Sans" font-size="11.00" fill="#334e68">визначення</text>
</g>
<!-- n_b30059fba026 -->
<g id="node8" class="node">
<title>n_b30059fba026</title>
<path fill="#e9eef4" stroke="#486581" stroke-width="1.5" d="M849.5,-842.75C849.5,-842.75 703.5,-842.75 703.5,-842.75 697.5,-842.75 691.5,-836.75 691.5,-830.75 691.5,-830.75 691.5,-808.75 691.5,-808.75 691.5,-802.75 697.5,-796.75 703.5,-796.75 703.5,-796.75 849.5,-796.75 849.5,-796.75 855.5,-796.75 861.5,-802.75 861.5,-808.75 861.5,-808.75 861.5,-830.75 861.5,-830.75 861.5,-836.75 855.5,-842.75 849.5,-842.75"/>
<text text-anchor="start" x="701.5" y="-828.15" font-family="DejaVu Sans" font-weight="bold" font-size="12.00" fill="#263238">Репозиторій вихідних</text>
<text text-anchor="start" x="738.5" y="-816.15" font-family="DejaVu Sans" font-weight="bold" font-size="12.00" fill="#263238">алгоритмів</text>
<text text-anchor="start" x="721" y="-805.75" font-family="DejaVu Sans" font-size="10.00" fill="#263238">[Програмна система]</text>
</g>
<!-- n_b4d64920ec8b&#45;&gt;n_b30059fba026 -->
<g id="edge2" class="edge">
<title>n_b4d64920ec8b&#45;&gt;n_b30059fba026</title>
<path fill="none" stroke="#486581" stroke-width="1.4" d="M603.59,-938.69C660.89,-923.2 736.5,-902.75 736.5,-902.75 736.5,-902.75 750.53,-874 761.97,-850.54"/>
<polygon fill="#486581" stroke="#486581" stroke-width="1.4" points="764.58,-851.57 765.57,-843.16 759.55,-849.12 764.58,-851.57"/>
<text text-anchor="start" x="746.5" y="-887.95" font-family="DejaVu Sans" font-size="11.00" fill="#334e68">Завантажує документ і метадані джерела</text>
</g>
<!-- n_d1038ddad4bb&#45;&gt;n_82e79b78f358 -->
<g id="edge6" class="edge">
<title>n_d1038ddad4bb&#45;&gt;n_82e79b78f358</title>
<path fill="none" stroke="#486581" stroke-width="1.4" d="M508.14,-522.65C505.44,-503.16 500.99,-470.94 497.7,-447.15"/>
<polygon fill="#486581" stroke="#486581" stroke-width="1.4" points="500.46,-446.66 496.59,-439.12 494.91,-447.43 500.46,-446.66"/>
<text text-anchor="start" x="502.5" y="-477.95" font-family="DejaVu Sans" font-size="11.00" fill="#334e68">Передає докази проходження тестів</text>
</g>
<!-- n_2e07cf3754b4&#45;&gt;n_22a2655265f6 -->
<g id="edge8" class="edge">
<title>n_2e07cf3754b4&#45;&gt;n_22a2655265f6</title>
<path fill="none" stroke="#486581" stroke-width="1.4" d="M491.59,-272.65C494.13,-251.74 498.47,-216.19 501.41,-192.1"/>
<polygon fill="#486581" stroke="#486581" stroke-width="1.4" points="504.19,-192.38 502.38,-184.1 498.64,-191.71 504.19,-192.38"/>
<text text-anchor="start" x="496.5" y="-227.95" font-family="DejaVu Sans" font-size="11.00" fill="#334e68">Передає незмінний кандидат на випуск</text>
</g>
<!-- n_9c1b2838ecd8 -->
<g id="node9" class="node">
<title>n_9c1b2838ecd8</title>
<path fill="#8a5a00" stroke="#486581" stroke-width="1.5" d="M612,-1109.75C612,-1109.75 469,-1109.75 469,-1109.75 463,-1109.75 457,-1103.75 457,-1097.75 457,-1097.75 457,-1085.75 457,-1085.75 457,-1079.75 463,-1073.75 469,-1073.75 469,-1073.75 612,-1073.75 612,-1073.75 618,-1073.75 624,-1079.75 624,-1085.75 624,-1085.75 624,-1097.75 624,-1097.75 624,-1103.75 618,-1109.75 612,-1109.75"/>
<text text-anchor="start" x="467" y="-1094.15" font-family="DejaVu Sans" font-weight="bold" font-size="12.00" fill="#ffffff">Клінічний методолог</text>
<text text-anchor="start" x="521" y="-1083.75" font-family="DejaVu Sans" font-size="10.00" fill="#ffffff">[Особа]</text>
</g>
<!-- n_9c1b2838ecd8&#45;&gt;n_b4d64920ec8b -->
<g id="edge11" class="edge">
<title>n_9c1b2838ecd8&#45;&gt;n_b4d64920ec8b</title>
<path fill="none" stroke="#486581" stroke-width="1.4" d="M540.5,-1073.63C540.5,-1050.59 540.5,-1009.42 540.5,-982.87"/>
<polygon fill="#486581" stroke="#486581" stroke-width="1.4" points="543.3,-982.8 540.5,-974.8 537.7,-982.8 543.3,-982.8"/>
<text text-anchor="start" x="540.5" y="-1028.95" font-family="DejaVu Sans" font-size="11.00" fill="#334e68">Ініціює імпорт або створення</text>
<text text-anchor="start" x="550.5" y="-1016.95" font-family="DejaVu Sans" font-size="11.00" fill="#334e68">контрольованої чернетки</text>
</g>
<!-- n_c7796133ac1d -->
<g id="node12" class="node">
<title>n_c7796133ac1d</title>
<path fill="#4a5568" stroke="#486581" stroke-width="1.5" d="M209,-188.75C209,-188.75 12,-188.75 12,-188.75 6,-188.75 0,-182.75 0,-176.75 0,-176.75 0,-154.75 0,-154.75 0,-148.75 6,-142.75 12,-142.75 12,-142.75 209,-142.75 209,-142.75 215,-142.75 221,-148.75 221,-154.75 221,-154.75 221,-176.75 221,-176.75 221,-182.75 215,-188.75 209,-188.75"/>
<text text-anchor="start" x="10" y="-174.15" font-family="DejaVu Sans" font-weight="bold" font-size="12.00" fill="#ffffff">Адміністратор платформи та</text>
<text text-anchor="start" x="82" y="-162.15" font-family="DejaVu Sans" font-weight="bold" font-size="12.00" fill="#ffffff">безпеки</text>
<text text-anchor="start" x="91" y="-151.75" font-family="DejaVu Sans" font-size="10.00" fill="#ffffff">[Особа]</text>
</g>
<!-- n_c7796133ac1d&#45;&gt;n_5f5685eeff97 -->
<g id="edge1" class="edge">
<title>n_c7796133ac1d&#45;&gt;n_5f5685eeff97</title>
<path fill="none" stroke="#486581" stroke-width="1.4" d="M109.35,-142.49C108.5,-126.14 107.5,-106.75 107.5,-106.75 107.5,-106.75 107.5,-82.75 107.5,-82.75 107.5,-82.75 147.07,-65.51 183.2,-49.77"/>
<polygon fill="#486581" stroke="#486581" stroke-width="1.4" points="184.62,-52.21 190.84,-46.44 182.39,-47.07 184.62,-52.21"/>
<text text-anchor="start" x="107.5" y="-97.95" font-family="DejaVu Sans" font-size="11.00" fill="#334e68">Контролює журнали, події безпеки та</text>
<text text-anchor="start" x="168" y="-85.95" font-family="DejaVu Sans" font-size="11.00" fill="#334e68">технічні метрики</text>
</g>
</g>
</svg>
