<?xml version="1.0" encoding="UTF-8" standalone="no"?>
<!DOCTYPE svg PUBLIC "-//W3C//DTD SVG 1.1//EN"
 "http://www.w3.org/Graphics/SVG/1.1/DTD/svg11.dtd">
<!-- Generated by graphviz version 2.42.4 (0)
 -->
<!-- Title: G Pages: 1 -->
<svg width="2489pt" height="307pt"
 viewBox="0.00 0.00 2488.90 307.40" xmlns="http://www.w3.org/2000/svg" xmlns:xlink="http://www.w3.org/1999/xlink">
<g id="graph0" class="graph" transform="scale(1 1) rotate(0) translate(25.2 282.2)">
<title>G</title>
<polygon fill="white" stroke="transparent" points="-25.2,25.2 -25.2,-282.2 2463.7,-282.2 2463.7,25.2 -25.2,25.2"/>
<text text-anchor="start" x="83" y="-242.8" font-family="DejaVu Sans" font-weight="bold" font-size="14.00">C3.01 — Компоненти застосунку пацієнта</text>
<text text-anchor="start" x="8" y="-230.4" font-family="DejaVu Sans" font-size="12.00">Компоненти пацієнтського застосунку та їхні точки взаємодії з платформою.</text>
<g id="clust1" class="cluster">
<title>cluster_scope</title>
<path fill="white" stroke="#486581" stroke-width="2.2" d="M20,-8C20,-8 1848,-8 1848,-8 1854,-8 1860,-14 1860,-20 1860,-20 1860,-203 1860,-203 1860,-209 1854,-215 1848,-215 1848,-215 20,-215 20,-215 14,-215 8,-209 8,-203 8,-203 8,-20 8,-20 8,-14 14,-8 20,-8"/>
<text text-anchor="start" x="16" y="-200.8" font-family="DejaVu Sans" font-weight="bold" font-size="14.00">Застосунок пацієнта</text>
</g>
<!-- n_449b11ff8ad7 -->
<g id="node1" class="node">
<title>n_449b11ff8ad7</title>
<path fill="#f4f7fa" stroke="#486581" stroke-width="1.5" d="M188,-52C188,-52 28,-52 28,-52 22,-52 16,-46 16,-40 16,-40 16,-28 16,-28 16,-22 22,-16 28,-16 28,-16 188,-16 188,-16 194,-16 200,-22 200,-28 200,-28 200,-40 200,-40 200,-46 194,-52 188,-52"/>
<text text-anchor="start" x="38" y="-36.4" font-family="DejaVu Sans" font-weight="bold" font-size="12.00" fill="#18324a">Модуль доступності</text>
<text text-anchor="start" x="26" y="-26" font-family="DejaVu Sans" font-size="10.00" fill="#18324a">[Компонент · WCAG&#45;oriented UI]</text>
</g>
<!-- n_9502f29f651e -->
<g id="node2" class="node">
<title>n_9502f29f651e</title>
<path fill="#f4f7fa" stroke="#486581" stroke-width="1.5" d="M198.5,-184C198.5,-184 27.5,-184 27.5,-184 21.5,-184 15.5,-178 15.5,-172 15.5,-172 15.5,-160 15.5,-160 15.5,-154 21.5,-148 27.5,-148 27.5,-148 198.5,-148 198.5,-148 204.5,-148 210.5,-154 210.5,-160 210.5,-160 210.5,-172 210.5,-172 210.5,-178 204.5,-184 198.5,-184"/>
<text text-anchor="start" x="35" y="-168.4" font-family="DejaVu Sans" font-weight="bold" font-size="12.00" fill="#18324a">Оболонка та навігація</text>
<text text-anchor="start" x="25.5" y="-158" font-family="DejaVu Sans" font-size="10.00" fill="#18324a">[Компонент · Frontend framework]</text>
</g>
<!-- n_9502f29f651e&#45;&gt;n_449b11ff8ad7 -->
<g id="edge1" class="edge">
<title>n_9502f29f651e&#45;&gt;n_449b11ff8ad7</title>
<path fill="none" stroke="#486581" stroke-width="1.4" d="M94.01,-147.94C76.76,-132.45 54,-112 54,-112 54,-112 54,-88 54,-88 54,-88 70.23,-72.07 84.9,-57.67"/>
<polygon fill="#486581" stroke="#486581" stroke-width="1.4" points="86.87,-59.66 90.62,-52.06 82.95,-55.67 86.87,-59.66"/>
<text text-anchor="start" x="54" y="-97.2" font-family="DejaVu Sans" font-size="11.00" fill="#334e68">Застосовує налаштування доступності</text>
</g>
<!-- n_705e9e8982f0 -->
<g id="node4" class="node">
<title>n_705e9e8982f0</title>
<path fill="#f4f7fa" stroke="#486581" stroke-width="1.5" d="M426,-52C426,-52 244,-52 244,-52 238,-52 232,-46 232,-40 232,-40 232,-28 232,-28 232,-22 238,-16 244,-16 244,-16 426,-16 426,-16 432,-16 438,-22 438,-28 438,-28 438,-40 438,-40 438,-46 432,-52 426,-52"/>
<text text-anchor="start" x="242" y="-36.4" font-family="DejaVu Sans" font-weight="bold" font-size="12.00" fill="#18324a">Налаштування комунікації</text>
<text text-anchor="start" x="256" y="-26" font-family="DejaVu Sans" font-size="10.00" fill="#18324a">[Компонент · Frontend module]</text>
</g>
<!-- n_9502f29f651e&#45;&gt;n_705e9e8982f0 -->
<g id="edge2" class="edge">
<title>n_9502f29f651e&#45;&gt;n_705e9e8982f0</title>
<path fill="none" stroke="#486581" stroke-width="1.4" d="M169.66,-147.94C221.11,-132.45 289,-112 289,-112 289,-112 307.11,-81.69 320.6,-59.1"/>
<polygon fill="#486581" stroke="#486581" stroke-width="1.4" points="323.09,-60.39 324.79,-52.09 318.28,-57.52 323.09,-60.39"/>
<text text-anchor="start" x="303" y="-103.2" font-family="DejaVu Sans" font-size="11.00" fill="#334e68">Застосовує підтверджений профіль</text>
<text text-anchor="start" x="375.5" y="-91.2" font-family="DejaVu Sans" font-size="11.00" fill="#334e68">комунікації</text>
</g>
<!-- n_3011b78e5141 -->
<g id="node3" class="node">
<title>n_3011b78e5141</title>
<path fill="#f4f7fa" stroke="#486581" stroke-width="1.5" d="M421.5,-184C421.5,-184 254.5,-184 254.5,-184 248.5,-184 242.5,-178 242.5,-172 242.5,-172 242.5,-160 242.5,-160 242.5,-154 248.5,-148 254.5,-148 254.5,-148 421.5,-148 421.5,-148 427.5,-148 433.5,-154 433.5,-160 433.5,-160 433.5,-172 433.5,-172 433.5,-178 427.5,-184 421.5,-184"/>
<text text-anchor="start" x="252.5" y="-168.4" font-family="DejaVu Sans" font-weight="bold" font-size="12.00" fill="#18324a">Календар і нагадування</text>
<text text-anchor="start" x="271.5" y="-158" font-family="DejaVu Sans" font-size="10.00" fill="#18324a">[Компонент · Calendar UI]</text>
</g>
<!-- n_384146de0c5d -->
<g id="node13" class="node">
<title>n_384146de0c5d</title>
<path fill="#f4f7fa" stroke="#486581" stroke-width="1.5" d="M2090,-52C2090,-52 1880,-52 1880,-52 1874,-52 1868,-46 1868,-40 1868,-40 1868,-28 1868,-28 1868,-22 1874,-16 1880,-16 1880,-16 2090,-16 2090,-16 2096,-16 2102,-22 2102,-28 2102,-28 2102,-40 2102,-40 2102,-46 2096,-52 2090,-52"/>
<text text-anchor="start" x="1931.5" y="-36.4" font-family="DejaVu Sans" font-weight="bold" font-size="12.00" fill="#18324a">API&#45;шлюз і BFF</text>
<text text-anchor="start" x="1878" y="-26" font-family="DejaVu Sans" font-size="10.00" fill="#18324a">[Контейнер · Reverse proxy / API gateway]</text>
</g>
<!-- n_3011b78e5141&#45;&gt;n_384146de0c5d -->
<g id="edge7" class="edge">
<title>n_3011b78e5141&#45;&gt;n_384146de0c5d</title>
<path fill="none" stroke="#486581" stroke-width="1.4" d="M397.55,-147.94C451.63,-132.45 523,-112 523,-112 523,-112 567,-88 567,-88 567,-88 1750.09,-55.16 1859.65,-51.75"/>
<polygon fill="#486581" stroke="#486581" stroke-width="1.4" points="1859.86,-54.55 1867.75,-51.47 1859.66,-48.95 1859.86,-54.55"/>
<text text-anchor="start" x="567" y="-97.2" font-family="DejaVu Sans" font-size="11.00" fill="#334e68">Отримує завдання, нагадування й події</text>
</g>
<!-- n_5460f0858ced -->
<g id="node5" class="node">
<title>n_5460f0858ced</title>
<path fill="#f4f7fa" stroke="#486581" stroke-width="1.5" d="M654,-184C654,-184 478,-184 478,-184 472,-184 466,-178 466,-172 466,-172 466,-160 466,-160 466,-154 472,-148 478,-148 478,-148 654,-148 654,-148 660,-148 666,-154 666,-160 666,-160 666,-172 666,-172 666,-178 660,-184 654,-184"/>
<text text-anchor="start" x="500" y="-168.4" font-family="DejaVu Sans" font-weight="bold" font-size="12.00" fill="#18324a">Збір скарг і потреб</text>
<text text-anchor="start" x="476" y="-158" font-family="DejaVu Sans" font-size="10.00" fill="#18324a">[Компонент · Form and dialogue UI]</text>
</g>
<!-- n_5460f0858ced&#45;&gt;n_384146de0c5d -->
<g id="edge3" class="edge">
<title>n_5460f0858ced&#45;&gt;n_384146de0c5d</title>
<path fill="none" stroke="#486581" stroke-width="1.4" d="M645.51,-147.94C717.72,-132.45 813,-112 813,-112 813,-112 842,-88 842,-88 842,-88 1762.84,-55.56 1859.57,-51.82"/>
<polygon fill="#486581" stroke="#486581" stroke-width="1.4" points="1859.88,-54.61 1867.75,-51.47 1859.64,-49.01 1859.88,-54.61"/>
<text text-anchor="start" x="842" y="-103.2" font-family="DejaVu Sans" font-size="11.00" fill="#334e68">Надсилає скарги й потреби як</text>
<text text-anchor="start" x="876.5" y="-91.2" font-family="DejaVu Sans" font-size="11.00" fill="#334e68">типізований запит</text>
</g>
<!-- n_da5fe4a11af2 -->
<g id="node6" class="node">
<title>n_da5fe4a11af2</title>
<path fill="#f4f7fa" stroke="#c92a2a" stroke-width="3" d="M900,-184C900,-184 710,-184 710,-184 704,-184 698,-178 698,-172 698,-172 698,-160 698,-160 698,-154 704,-148 710,-148 710,-148 900,-148 900,-148 906,-148 912,-154 912,-160 912,-160 912,-172 912,-172 912,-178 906,-184 900,-184"/>
<text text-anchor="start" x="708" y="-168.4" font-family="DejaVu Sans" font-weight="bold" font-size="12.00" fill="#18324a">Елемент кризової допомоги</text>
<text text-anchor="start" x="740" y="-158" font-family="DejaVu Sans" font-size="10.00" fill="#18324a">[Компонент · Fail&#45;safe UI]</text>
</g>
<!-- n_da5fe4a11af2&#45;&gt;n_384146de0c5d -->
<g id="edge9" class="edge">
<title>n_da5fe4a11af2&#45;&gt;n_384146de0c5d</title>
<path fill="none" stroke="#486581" stroke-width="1.4" d="M877.75,-147.94C943.82,-132.45 1031,-112 1031,-112 1031,-112 1060,-88 1060,-88 1060,-88 1775.5,-55.96 1859.71,-51.89"/>
<polygon fill="#486581" stroke="#486581" stroke-width="1.4" points="1859.91,-54.68 1867.75,-51.47 1859.62,-49.09 1859.91,-54.68"/>
<text text-anchor="start" x="1060" y="-97.2" font-family="DejaVu Sans" font-size="11.00" fill="#334e68">Запускає незалежний кризовий маршрут</text>
</g>
<!-- n_878111d3dce4 -->
<g id="node7" class="node">
<title>n_878111d3dce4</title>
<path fill="#f4f7fa" stroke="#486581" stroke-width="1.5" d="M1131.5,-184C1131.5,-184 956.5,-184 956.5,-184 950.5,-184 944.5,-178 944.5,-172 944.5,-172 944.5,-160 944.5,-160 944.5,-154 950.5,-148 956.5,-148 956.5,-148 1131.5,-148 1131.5,-148 1137.5,-148 1143.5,-154 1143.5,-160 1143.5,-160 1143.5,-172 1143.5,-172 1143.5,-178 1137.5,-184 1131.5,-184"/>
<text text-anchor="start" x="971.5" y="-168.4" font-family="DejaVu Sans" font-weight="bold" font-size="12.00" fill="#18324a">Майстер вимірювань</text>
<text text-anchor="start" x="954.5" y="-158" font-family="DejaVu Sans" font-size="10.00" fill="#18324a">[Компонент · Device integration UI]</text>
</g>
<!-- n_878111d3dce4&#45;&gt;n_384146de0c5d -->
<g id="edge6" class="edge">
<title>n_878111d3dce4&#45;&gt;n_384146de0c5d</title>
<path fill="none" stroke="#486581" stroke-width="1.4" d="M1130.59,-147.94C1209.23,-132.45 1313,-112 1313,-112 1313,-112 1342,-88 1342,-88 1342,-88 1793.17,-56.88 1859.64,-52.09"/>
<polygon fill="#486581" stroke="#486581" stroke-width="1.4" points="1859.99,-54.87 1867.75,-51.47 1859.57,-49.28 1859.99,-54.87"/>
<text text-anchor="start" x="1342" y="-97.2" font-family="DejaVu Sans" font-size="11.00" fill="#334e68">Керує запуском і повтором вимірювання</text>
</g>
<!-- n_84e3cb58f008 -->
<g id="node8" class="node">
<title>n_84e3cb58f008</title>
<path fill="#f4f7fa" stroke="#486581" stroke-width="1.5" d="M1378,-184C1378,-184 1188,-184 1188,-184 1182,-184 1176,-178 1176,-172 1176,-172 1176,-160 1176,-160 1176,-154 1182,-148 1188,-148 1188,-148 1378,-148 1378,-148 1384,-148 1390,-154 1390,-160 1390,-160 1390,-172 1390,-172 1390,-178 1384,-184 1378,-184"/>
<text text-anchor="start" x="1186" y="-168.4" font-family="DejaVu Sans" font-weight="bold" font-size="12.00" fill="#18324a">Захоплення голосу та відео</text>
<text text-anchor="start" x="1194" y="-158" font-family="DejaVu Sans" font-size="10.00" fill="#18324a">[Компонент · WebRTC / Media APIs]</text>
</g>
<!-- n_84e3cb58f008&#45;&gt;n_384146de0c5d -->
<g id="edge5" class="edge">
<title>n_84e3cb58f008&#45;&gt;n_384146de0c5d</title>
<path fill="none" stroke="#486581" stroke-width="1.4" d="M1381.83,-147.94C1471.57,-132.45 1590,-112 1590,-112 1590,-112 1619,-88 1619,-88 1619,-88 1753.74,-68.49 1859.72,-53.14"/>
<polygon fill="#486581" stroke="#486581" stroke-width="1.4" points="1860.42,-55.87 1867.94,-51.95 1859.62,-50.33 1860.42,-55.87"/>
<text text-anchor="start" x="1619" y="-97.2" font-family="DejaVu Sans" font-size="11.00" fill="#334e68">Передає медіа за окремою згодою</text>
</g>
<!-- n_58b52d815b3a -->
<g id="node9" class="node">
<title>n_58b52d815b3a</title>
<path fill="#f4f7fa" stroke="#486581" stroke-width="1.5" d="M1629.5,-184C1629.5,-184 1434.5,-184 1434.5,-184 1428.5,-184 1422.5,-178 1422.5,-172 1422.5,-172 1422.5,-160 1422.5,-160 1422.5,-154 1428.5,-148 1434.5,-148 1434.5,-148 1629.5,-148 1629.5,-148 1635.5,-148 1641.5,-154 1641.5,-160 1641.5,-160 1641.5,-172 1641.5,-172 1641.5,-178 1635.5,-184 1629.5,-184"/>
<text text-anchor="start" x="1432.5" y="-168.4" font-family="DejaVu Sans" font-weight="bold" font-size="12.00" fill="#18324a">Візуалізатор опитувальників</text>
<text text-anchor="start" x="1441.5" y="-158" font-family="DejaVu Sans" font-size="10.00" fill="#18324a">[Компонент · Schema&#45;driven forms]</text>
</g>
<!-- n_58b52d815b3a&#45;&gt;n_384146de0c5d -->
<g id="edge4" class="edge">
<title>n_58b52d815b3a&#45;&gt;n_384146de0c5d</title>
<path fill="none" stroke="#486581" stroke-width="1.4" d="M1627.61,-147.94C1714.43,-132.45 1829,-112 1829,-112 1829,-112 1858,-88 1858,-88 1858,-88 1900.7,-70.18 1936.58,-55.21"/>
<polygon fill="#486581" stroke="#486581" stroke-width="1.4" points="1937.81,-57.73 1944.12,-52.06 1935.66,-52.56 1937.81,-57.73"/>
<text text-anchor="start" x="1858" y="-103.2" font-family="DejaVu Sans" font-size="11.00" fill="#334e68">Отримує крок і надсилає валідовану</text>
<text text-anchor="start" x="1938.5" y="-91.2" font-family="DejaVu Sans" font-size="11.00" fill="#334e68">відповідь</text>
</g>
<!-- n_288b2f41a61e -->
<g id="node10" class="node">
<title>n_288b2f41a61e</title>
<path fill="#f4f7fa" stroke="#486581" stroke-width="1.5" d="M1840,-184C1840,-184 1686,-184 1686,-184 1680,-184 1674,-178 1674,-172 1674,-172 1674,-160 1674,-160 1674,-154 1680,-148 1686,-148 1686,-148 1840,-148 1840,-148 1846,-148 1852,-154 1852,-160 1852,-160 1852,-172 1852,-172 1852,-178 1846,-184 1840,-184"/>
<text text-anchor="start" x="1690.5" y="-168.4" font-family="DejaVu Sans" font-weight="bold" font-size="12.00" fill="#18324a">Підготовка до візиту</text>
<text text-anchor="start" x="1684" y="-158" font-family="DejaVu Sans" font-size="10.00" fill="#18324a">[Компонент · Frontend module]</text>
</g>
<!-- n_288b2f41a61e&#45;&gt;n_384146de0c5d -->
<g id="edge8" class="edge">
<title>n_288b2f41a61e&#45;&gt;n_384146de0c5d</title>
<path fill="none" stroke="#486581" stroke-width="1.4" d="M1852.14,-150.24C1946.82,-134.55 2083,-112 2083,-112 2083,-112 2083,-88 2083,-88 2083,-88 2051.14,-70.77 2023.76,-55.96"/>
<polygon fill="#486581" stroke="#486581" stroke-width="1.4" points="2024.92,-53.4 2016.55,-52.06 2022.25,-58.33 2024.92,-53.4"/>
<text text-anchor="start" x="2083" y="-103.2" font-family="DejaVu Sans" font-size="11.00" fill="#334e68">Запитує підготовлений до візиту</text>
<text text-anchor="start" x="2155.5" y="-91.2" font-family="DejaVu Sans" font-size="11.00" fill="#334e68">підсумок</text>
</g>
<!-- n_3145c0474e62 -->
<g id="node11" class="node">
<title>n_3145c0474e62</title>
<path fill="#c92a2a" stroke="#486581" stroke-width="1.5" d="M2082,-184C2082,-184 1896,-184 1896,-184 1890,-184 1884,-178 1884,-172 1884,-172 1884,-160 1884,-160 1884,-154 1890,-148 1896,-148 1896,-148 2082,-148 2082,-148 2088,-148 2094,-154 2094,-160 2094,-160 2094,-172 2094,-172 2094,-178 2088,-184 2082,-184"/>
<text text-anchor="start" x="1894" y="-168.4" font-family="DejaVu Sans" font-weight="bold" font-size="12.00" fill="#ffffff">Кризова / екстрена служба</text>
<text text-anchor="start" x="1933.5" y="-158" font-family="DejaVu Sans" font-size="10.00" fill="#ffffff">[Програмна система]</text>
</g>
<!-- n_b1b0b8de8a62 -->
<g id="node12" class="node">
<title>n_b1b0b8de8a62</title>
<path fill="#084c61" stroke="#486581" stroke-width="1.5" d="M2187.5,-184C2187.5,-184 2138.5,-184 2138.5,-184 2132.5,-184 2126.5,-178 2126.5,-172 2126.5,-172 2126.5,-160 2126.5,-160 2126.5,-154 2132.5,-148 2138.5,-148 2138.5,-148 2187.5,-148 2187.5,-148 2193.5,-148 2199.5,-154 2199.5,-160 2199.5,-160 2199.5,-172 2199.5,-172 2199.5,-178 2193.5,-184 2187.5,-184"/>
<text text-anchor="start" x="2136.5" y="-168.4" font-family="DejaVu Sans" font-weight="bold" font-size="12.00" fill="#ffffff">Пацієнт</text>
<text text-anchor="start" x="2143.5" y="-158" font-family="DejaVu Sans" font-size="10.00" fill="#ffffff">[Особа]</text>
</g>
<!-- n_8ef8376f7755 -->
<g id="node14" class="node">
<title>n_8ef8376f7755</title>
<path fill="#e9eef4" stroke="#486581" stroke-width="1.5" d="M2426.5,-184C2426.5,-184 2243.5,-184 2243.5,-184 2237.5,-184 2231.5,-178 2231.5,-172 2231.5,-172 2231.5,-160 2231.5,-160 2231.5,-154 2237.5,-148 2243.5,-148 2243.5,-148 2426.5,-148 2426.5,-148 2432.5,-148 2438.5,-154 2438.5,-160 2438.5,-160 2438.5,-172 2438.5,-172 2438.5,-178 2432.5,-184 2426.5,-184"/>
<text text-anchor="start" x="2241.5" y="-168.4" font-family="DejaVu Sans" font-weight="bold" font-size="12.00" fill="#263238">Платформа телемедицини</text>
<text text-anchor="start" x="2279.5" y="-158" font-family="DejaVu Sans" font-size="10.00" fill="#263238">[Програмна система]</text>
</g>
</g>
</svg>
