<?xml version="1.0" encoding="UTF-8" standalone="no"?>
<!DOCTYPE svg PUBLIC "-//W3C//DTD SVG 1.1//EN"
 "http://www.w3.org/Graphics/SVG/1.1/DTD/svg11.dtd">
<!-- Generated by graphviz version 2.42.4 (0)
 -->
<!-- Title: G Pages: 1 -->
<svg width="1913pt" height="586pt"
 viewBox="0.00 0.00 1913.40 586.15" xmlns="http://www.w3.org/2000/svg" xmlns:xlink="http://www.w3.org/1999/xlink">
<g id="graph0" class="graph" transform="scale(1 1) rotate(0) translate(25.2 560.95)">
<title>G</title>
<polygon fill="white" stroke="transparent" points="-25.2,25.2 -25.2,-560.95 1888.2,-560.95 1888.2,25.2 -25.2,25.2"/>
<text text-anchor="start" x="41" y="-521.55" font-family="DejaVu Sans" font-weight="bold" font-size="14.00">C3.11 — Компоненти завдань, нагадувань та ескалацій</text>
<text text-anchor="start" x="8" y="-509.15" font-family="DejaVu Sans" font-size="12.00">Компоненти планування завдань, нагадувань, SLA ескалації та надійних повторів.</text>
<g id="clust1" class="cluster">
<title>cluster_scope</title>
<path fill="white" stroke="#486581" stroke-width="2.2" d="M84,-134.75C84,-134.75 517,-134.75 517,-134.75 523,-134.75 529,-140.75 529,-146.75 529,-146.75 529,-481.75 529,-481.75 529,-487.75 523,-493.75 517,-493.75 517,-493.75 84,-493.75 84,-493.75 78,-493.75 72,-487.75 72,-481.75 72,-481.75 72,-146.75 72,-146.75 72,-140.75 78,-134.75 84,-134.75"/>
<text text-anchor="start" x="80" y="-479.55" font-family="DejaVu Sans" font-weight="bold" font-size="14.00">Сервіс завдань, нагадувань і ескалацій</text>
</g>
<!-- n_78a700e90551 -->
<g id="node1" class="node">
<title>n_78a700e90551</title>
<path fill="#f4f7fa" stroke="#c92a2a" stroke-width="3" d="M495,-325.75C495,-325.75 337,-325.75 337,-325.75 331,-325.75 325,-319.75 325,-313.75 325,-313.75 325,-301.75 325,-301.75 325,-295.75 331,-289.75 337,-289.75 337,-289.75 495,-289.75 495,-289.75 501,-289.75 507,-295.75 507,-301.75 507,-301.75 507,-313.75 507,-313.75 507,-319.75 501,-325.75 495,-325.75"/>
<text text-anchor="start" x="345.5" y="-310.15" font-family="DejaVu Sans" font-weight="bold" font-size="12.00" fill="#18324a">Контроль ескалацій</text>
<text text-anchor="start" x="335" y="-299.75" font-family="DejaVu Sans" font-size="10.00" fill="#18324a">[Компонент · Escalation engine]</text>
</g>
<!-- n_b10c10dbc143 -->
<g id="node7" class="node">
<title>n_b10c10dbc143</title>
<path fill="#3b5bdb" stroke="#486581" stroke-width="1.5" d="M804,-183.75C804,-183.75 552,-183.75 552,-183.75 546,-183.75 540,-177.75 540,-171.75 540,-171.75 540,-159.75 540,-159.75 540,-153.75 546,-147.75 552,-147.75 552,-147.75 804,-147.75 804,-147.75 810,-147.75 816,-153.75 816,-159.75 816,-159.75 816,-171.75 816,-171.75 816,-177.75 810,-183.75 804,-183.75"/>
<text text-anchor="start" x="607" y="-168.15" font-family="DejaVu Sans" font-weight="bold" font-size="12.00" fill="#ffffff">Інтеграційний шлюз</text>
<text text-anchor="start" x="550" y="-157.75" font-family="DejaVu Sans" font-size="10.00" fill="#ffffff">[Контейнер · FHIR/DICOM/REST integration service]</text>
</g>
<!-- n_78a700e90551&#45;&gt;n_b10c10dbc143 -->
<g id="edge12" class="edge">
<title>n_78a700e90551&#45;&gt;n_b10c10dbc143</title>
<path fill="none" stroke="#486581" stroke-width="1.4" d="M482.28,-289.74C548.97,-272.63 642,-248.75 642,-248.75 642,-248.75 656.49,-215.74 667.09,-191.61"/>
<polygon fill="#486581" stroke="#486581" stroke-width="1.4" points="669.71,-192.59 670.37,-184.14 664.59,-190.34 669.71,-192.59"/>
<text text-anchor="start" x="651" y="-239.95" font-family="DejaVu Sans" font-size="11.00" fill="#334e68">Запускає резервний клінічний або</text>
<text text-anchor="start" x="697" y="-227.95" font-family="DejaVu Sans" font-size="11.00" fill="#334e68">кризовий маршрут</text>
</g>
<!-- n_97b83196d6e1 -->
<g id="node2" class="node">
<title>n_97b83196d6e1</title>
<path fill="#f4f7fa" stroke="#486581" stroke-width="1.5" d="M264,-325.75C264,-325.75 98,-325.75 98,-325.75 92,-325.75 86,-319.75 86,-313.75 86,-313.75 86,-301.75 86,-301.75 86,-295.75 92,-289.75 98,-289.75 98,-289.75 264,-289.75 264,-289.75 270,-289.75 276,-295.75 276,-301.75 276,-301.75 276,-313.75 276,-313.75 276,-319.75 270,-325.75 264,-325.75"/>
<text text-anchor="start" x="102" y="-310.15" font-family="DejaVu Sans" font-weight="bold" font-size="12.00" fill="#18324a">Диспетчер нагадувань</text>
<text text-anchor="start" x="96" y="-299.75" font-family="DejaVu Sans" font-size="10.00" fill="#18324a">[Компонент · Notification service]</text>
</g>
<!-- n_64d349359173 -->
<g id="node3" class="node">
<title>n_64d349359173</title>
<path fill="#f4f7fa" stroke="#486581" stroke-width="1.5" d="M277.5,-188.75C277.5,-188.75 92.5,-188.75 92.5,-188.75 86.5,-188.75 80.5,-182.75 80.5,-176.75 80.5,-176.75 80.5,-154.75 80.5,-154.75 80.5,-148.75 86.5,-142.75 92.5,-142.75 92.5,-142.75 277.5,-142.75 277.5,-142.75 283.5,-142.75 289.5,-148.75 289.5,-154.75 289.5,-154.75 289.5,-176.75 289.5,-176.75 289.5,-182.75 283.5,-188.75 277.5,-188.75"/>
<text text-anchor="start" x="105" y="-174.15" font-family="DejaVu Sans" font-weight="bold" font-size="12.00" fill="#18324a">Керування повторними</text>
<text text-anchor="start" x="151.5" y="-162.15" font-family="DejaVu Sans" font-weight="bold" font-size="12.00" fill="#18324a">спробами</text>
<text text-anchor="start" x="90.5" y="-151.75" font-family="DejaVu Sans" font-size="10.00" fill="#18324a">[Компонент · Reliable job processing]</text>
</g>
<!-- n_97b83196d6e1&#45;&gt;n_64d349359173 -->
<g id="edge13" class="edge">
<title>n_97b83196d6e1&#45;&gt;n_64d349359173</title>
<path fill="none" stroke="#486581" stroke-width="1.4" d="M180.12,-289.66C179.23,-272.55 178,-248.75 178,-248.75 178,-248.75 178,-224.75 178,-224.75 178,-224.75 179.63,-211.2 181.32,-197.2"/>
<polygon fill="#486581" stroke="#486581" stroke-width="1.4" points="184.13,-197.29 182.31,-189.01 178.58,-196.62 184.13,-197.29"/>
<text text-anchor="start" x="178" y="-239.95" font-family="DejaVu Sans" font-size="11.00" fill="#334e68">Передає невдалу доставку для</text>
<text text-anchor="start" x="208" y="-227.95" font-family="DejaVu Sans" font-size="11.00" fill="#334e68">обмеженого повтору</text>
</g>
<!-- n_97b83196d6e1&#45;&gt;n_b10c10dbc143 -->
<g id="edge11" class="edge">
<title>n_97b83196d6e1&#45;&gt;n_b10c10dbc143</title>
<path fill="none" stroke="#486581" stroke-width="1.4" d="M235.51,-289.66C290.08,-272.55 366,-248.75 366,-248.75 366,-248.75 395,-224.75 395,-224.75 395,-224.75 504.33,-202.34 587.08,-185.38"/>
<polygon fill="#486581" stroke="#486581" stroke-width="1.4" points="587.73,-188.11 595,-183.76 586.6,-182.62 587.73,-188.11"/>
<text text-anchor="start" x="395" y="-239.95" font-family="DejaVu Sans" font-size="11.00" fill="#334e68">Надсилає повідомлення або календарну</text>
<text text-anchor="start" x="497.5" y="-227.95" font-family="DejaVu Sans" font-size="11.00" fill="#334e68">подію</text>
</g>
<!-- n_331a3889c3d6 -->
<g id="node9" class="node">
<title>n_331a3889c3d6</title>
<path fill="#edf2f7" stroke="#486581" stroke-width="1.5" d="M293.5,-42.4C293.5,-44.73 244.87,-46.63 185,-46.63 125.13,-46.63 76.5,-44.73 76.5,-42.4 76.5,-42.4 76.5,-4.35 76.5,-4.35 76.5,-2.02 125.13,-0.12 185,-0.12 244.87,-0.12 293.5,-2.02 293.5,-4.35 293.5,-4.35 293.5,-42.4 293.5,-42.4"/>
<path fill="none" stroke="#486581" stroke-width="1.5" d="M293.5,-42.4C293.5,-40.07 244.87,-38.17 185,-38.17 125.13,-38.17 76.5,-40.07 76.5,-42.4"/>
<text text-anchor="start" x="103" y="-25.77" font-family="DejaVu Sans" font-weight="bold" font-size="12.00" fill="#1a202c">Операційна база даних</text>
<text text-anchor="start" x="86.5" y="-15.37" font-family="DejaVu Sans" font-size="10.00" fill="#1a202c">[Сховище даних · Relational database]</text>
</g>
<!-- n_64d349359173&#45;&gt;n_331a3889c3d6 -->
<g id="edge14" class="edge">
<title>n_64d349359173&#45;&gt;n_331a3889c3d6</title>
<path fill="none" stroke="#486581" stroke-width="1.4" d="M185,-142.51C185,-118.93 185,-81.52 185,-55.13"/>
<polygon fill="#486581" stroke="#486581" stroke-width="1.4" points="187.8,-54.98 185,-46.98 182.2,-54.98 187.8,-54.98"/>
<text text-anchor="start" x="185" y="-91.95" font-family="DejaVu Sans" font-size="11.00" fill="#334e68">Зберігає повтори та чергу помилок</text>
</g>
<!-- n_b8d81b74b679 -->
<g id="node4" class="node">
<title>n_b8d81b74b679</title>
<path fill="#f4f7fa" stroke="#486581" stroke-width="1.5" d="M249.5,-462.75C249.5,-462.75 92.5,-462.75 92.5,-462.75 86.5,-462.75 80.5,-456.75 80.5,-450.75 80.5,-450.75 80.5,-438.75 80.5,-438.75 80.5,-432.75 86.5,-426.75 92.5,-426.75 92.5,-426.75 249.5,-426.75 249.5,-426.75 255.5,-426.75 261.5,-432.75 261.5,-438.75 261.5,-438.75 261.5,-450.75 261.5,-450.75 261.5,-456.75 255.5,-462.75 249.5,-462.75"/>
<text text-anchor="start" x="90.5" y="-447.15" font-family="DejaVu Sans" font-weight="bold" font-size="12.00" fill="#18324a">Планувальник завдань</text>
<text text-anchor="start" x="92.5" y="-436.75" font-family="DejaVu Sans" font-size="10.00" fill="#18324a">[Компонент · Workflow engine]</text>
</g>
<!-- n_b8d81b74b679&#45;&gt;n_78a700e90551 -->
<g id="edge10" class="edge">
<title>n_b8d81b74b679&#45;&gt;n_78a700e90551</title>
<path fill="none" stroke="#486581" stroke-width="1.4" d="M212.2,-426.69C249.62,-411.2 299,-390.75 299,-390.75 299,-390.75 350.12,-354.92 384.78,-330.63"/>
<polygon fill="#486581" stroke="#486581" stroke-width="1.4" points="386.53,-332.82 391.47,-325.94 383.31,-328.24 386.53,-332.82"/>
<text text-anchor="start" x="330" y="-375.95" font-family="DejaVu Sans" font-size="11.00" fill="#334e68">Передає критичні строки й SLA</text>
</g>
<!-- n_b8d81b74b679&#45;&gt;n_97b83196d6e1 -->
<g id="edge9" class="edge">
<title>n_b8d81b74b679&#45;&gt;n_97b83196d6e1</title>
<path fill="none" stroke="#486581" stroke-width="1.4" d="M151.04,-426.69C132.92,-411.2 109,-390.75 109,-390.75 109,-390.75 109,-366.75 109,-366.75 109,-366.75 133.06,-347.37 153.36,-331.01"/>
<polygon fill="#486581" stroke="#486581" stroke-width="1.4" points="155.31,-333.04 159.79,-325.84 151.8,-328.68 155.31,-333.04"/>
<text text-anchor="start" x="109" y="-375.95" font-family="DejaVu Sans" font-size="11.00" fill="#334e68">Передає події для нагадування</text>
</g>
<!-- n_b8d81b74b679&#45;&gt;n_331a3889c3d6 -->
<g id="edge8" class="edge">
<title>n_b8d81b74b679&#45;&gt;n_331a3889c3d6</title>
<path fill="none" stroke="#486581" stroke-width="1.4" d="M148.47,-426.69C128,-411.2 101,-390.75 101,-390.75 101,-390.75 0,-248.75 0,-248.75 0,-248.75 0,-224.75 0,-224.75 0,-224.75 65,-134.75 65,-134.75 65,-134.75 119.2,-84.9 154.75,-52.2"/>
<polygon fill="#486581" stroke="#486581" stroke-width="1.4" points="156.72,-54.19 160.72,-46.71 152.93,-50.07 156.72,-54.19"/>
<text text-anchor="start" x="0" y="-233.95" font-family="DejaVu Sans" font-size="11.00" fill="#334e68">Зберігає завдання та строки</text>
</g>
<!-- n_5f5685eeff97 -->
<g id="node5" class="node">
<title>n_5f5685eeff97</title>
<path fill="#4a5568" stroke="#486581" stroke-width="1.5" d="M1389,-46.38C1389,-46.38 1167,-46.38 1167,-46.38 1161,-46.38 1155,-40.38 1155,-34.38 1155,-34.38 1155,-12.38 1155,-12.38 1155,-6.38 1161,-0.37 1167,-0.37 1167,-0.37 1389,-0.37 1389,-0.37 1395,-0.37 1401,-6.37 1401,-12.37 1401,-12.37 1401,-34.38 1401,-34.38 1401,-40.38 1395,-46.38 1389,-46.38"/>
<text text-anchor="start" x="1220" y="-31.77" font-family="DejaVu Sans" font-weight="bold" font-size="12.00" fill="#ffffff">Сервіс аудиту та</text>
<text text-anchor="start" x="1212.5" y="-19.77" font-family="DejaVu Sans" font-weight="bold" font-size="12.00" fill="#ffffff">спостережуваності</text>
<text text-anchor="start" x="1165" y="-9.38" font-family="DejaVu Sans" font-size="10.00" fill="#ffffff">[Контейнер · Audit and observability service]</text>
</g>
<!-- n_c210e7db8afd -->
<g id="node6" class="node">
<title>n_c210e7db8afd</title>
<path fill="#2b6cb0" stroke="#486581" stroke-width="1.5" d="M1532,-188.75C1532,-188.75 1304,-188.75 1304,-188.75 1298,-188.75 1292,-182.75 1292,-176.75 1292,-176.75 1292,-154.75 1292,-154.75 1292,-148.75 1298,-142.75 1304,-142.75 1304,-142.75 1532,-142.75 1532,-142.75 1538,-142.75 1544,-148.75 1544,-154.75 1544,-154.75 1544,-176.75 1544,-176.75 1544,-182.75 1538,-188.75 1532,-188.75"/>
<text text-anchor="start" x="1323" y="-174.15" font-family="DejaVu Sans" font-weight="bold" font-size="12.00" fill="#ffffff">Сервіс підтримки клінічних</text>
<text text-anchor="start" x="1393.5" y="-162.15" font-family="DejaVu Sans" font-weight="bold" font-size="12.00" fill="#ffffff">рішень</text>
<text text-anchor="start" x="1302" y="-151.75" font-family="DejaVu Sans" font-size="10.00" fill="#ffffff">[Контейнер · Clinical decision support service]</text>
</g>
<!-- n_c210e7db8afd&#45;&gt;n_5f5685eeff97 -->
<g id="edge6" class="edge">
<title>n_c210e7db8afd&#45;&gt;n_5f5685eeff97</title>
<path fill="none" stroke="#486581" stroke-width="1.4" d="M1395.82,-142.51C1371.45,-118.07 1332.26,-78.78 1305.84,-52.29"/>
<polygon fill="#486581" stroke="#486581" stroke-width="1.4" points="1307.71,-50.2 1300.08,-46.51 1303.75,-54.16 1307.71,-50.2"/>
<text text-anchor="start" x="1356" y="-97.95" font-family="DejaVu Sans" font-size="11.00" fill="#334e68">Реєструє правила, джерела, пояснення</text>
<text text-anchor="start" x="1393" y="-85.95" font-family="DejaVu Sans" font-size="11.00" fill="#334e68">та клінічне підтвердження</text>
</g>
<!-- n_b10c10dbc143&#45;&gt;n_5f5685eeff97 -->
<g id="edge7" class="edge">
<title>n_b10c10dbc143&#45;&gt;n_5f5685eeff97</title>
<path fill="none" stroke="#486581" stroke-width="1.4" d="M738.86,-147.66C824.43,-123.63 970,-82.75 970,-82.75 970,-82.75 1068.12,-64.15 1153.59,-47.95"/>
<polygon fill="#486581" stroke="#486581" stroke-width="1.4" points="1154.22,-50.68 1161.56,-46.44 1153.18,-45.18 1154.22,-50.68"/>
<text text-anchor="start" x="970" y="-97.95" font-family="DejaVu Sans" font-size="11.00" fill="#334e68">Реєструє мету, згоду, склад даних і</text>
<text text-anchor="start" x="1015.5" y="-85.95" font-family="DejaVu Sans" font-size="11.00" fill="#334e68">зовнішній результат</text>
</g>
<!-- n_f9075d486a51 -->
<g id="node8" class="node">
<title>n_f9075d486a51</title>
<path fill="#f4f7fa" stroke="#486581" stroke-width="1.5" d="M1289.5,-462.75C1289.5,-462.75 1126.5,-462.75 1126.5,-462.75 1120.5,-462.75 1114.5,-456.75 1114.5,-450.75 1114.5,-450.75 1114.5,-438.75 1114.5,-438.75 1114.5,-432.75 1120.5,-426.75 1126.5,-426.75 1126.5,-426.75 1289.5,-426.75 1289.5,-426.75 1295.5,-426.75 1301.5,-432.75 1301.5,-438.75 1301.5,-438.75 1301.5,-450.75 1301.5,-450.75 1301.5,-456.75 1295.5,-462.75 1289.5,-462.75"/>
<text text-anchor="start" x="1129" y="-447.15" font-family="DejaVu Sans" font-weight="bold" font-size="12.00" fill="#18324a">Оркестратор взаємодії</text>
<text text-anchor="start" x="1124.5" y="-436.75" font-family="DejaVu Sans" font-size="10.00" fill="#18324a">[Контейнер · Application service]</text>
</g>
<!-- n_f9075d486a51&#45;&gt;n_5f5685eeff97 -->
<g id="edge3" class="edge">
<title>n_f9075d486a51&#45;&gt;n_5f5685eeff97</title>
<path fill="none" stroke="#486581" stroke-width="1.4" d="M1208.71,-426.57C1210.83,-374.94 1217,-224.75 1217,-224.75 1217,-224.75 1251.85,-110.29 1268.86,-54.39"/>
<polygon fill="#486581" stroke="#486581" stroke-width="1.4" points="1271.59,-55.05 1271.24,-46.58 1266.23,-53.42 1271.59,-55.05"/>
<text text-anchor="start" x="1217" y="-239.95" font-family="DejaVu Sans" font-size="11.00" fill="#334e68">Реєструє походження сформованої</text>
<text text-anchor="start" x="1237.5" y="-227.95" font-family="DejaVu Sans" font-size="11.00" fill="#334e68">репліки й виконаного кроку</text>
</g>
<!-- n_f9075d486a51&#45;&gt;n_331a3889c3d6 -->
<g id="edge2" class="edge">
<title>n_f9075d486a51&#45;&gt;n_331a3889c3d6</title>
<path fill="none" stroke="#486581" stroke-width="1.4" d="M1187.25,-426.7C1108.42,-361.92 832,-134.75 832,-134.75 832,-134.75 487.9,-76.05 301.59,-44.26"/>
<polygon fill="#486581" stroke="#486581" stroke-width="1.4" points="302.01,-41.5 293.66,-42.91 301.07,-47.02 302.01,-41.5"/>
<text text-anchor="start" x="968" y="-239.95" font-family="DejaVu Sans" font-size="11.00" fill="#334e68">Зберігає життєвий цикл сесії та</text>
<text text-anchor="start" x="1017" y="-227.95" font-family="DejaVu Sans" font-size="11.00" fill="#334e68">незавершені дії</text>
</g>
<!-- n_78e6a86e3609 -->
<g id="node10" class="node">
<title>n_78e6a86e3609</title>
<path fill="#2b6cb0" stroke="#c92a2a" stroke-width="3" d="M1573,-330.75C1573,-330.75 1333,-330.75 1333,-330.75 1327,-330.75 1321,-324.75 1321,-318.75 1321,-318.75 1321,-296.75 1321,-296.75 1321,-290.75 1327,-284.75 1333,-284.75 1333,-284.75 1573,-284.75 1573,-284.75 1579,-284.75 1585,-290.75 1585,-296.75 1585,-296.75 1585,-318.75 1585,-318.75 1585,-324.75 1579,-330.75 1573,-330.75"/>
<text text-anchor="start" x="1374" y="-316.15" font-family="DejaVu Sans" font-weight="bold" font-size="12.00" fill="#ffffff">Детермінований рушій</text>
<text text-anchor="start" x="1421" y="-304.15" font-family="DejaVu Sans" font-weight="bold" font-size="12.00" fill="#ffffff">сценаріїв</text>
<text text-anchor="start" x="1331" y="-293.75" font-family="DejaVu Sans" font-size="10.00" fill="#ffffff">[Контейнер · Rules engine / finite&#45;state machine]</text>
</g>
<!-- n_f9075d486a51&#45;&gt;n_78e6a86e3609 -->
<g id="edge1" class="edge">
<title>n_f9075d486a51&#45;&gt;n_78e6a86e3609</title>
<path fill="none" stroke="#486581" stroke-width="1.4" d="M1239.03,-426.65C1281.12,-403.46 1356.7,-361.81 1405.84,-334.74"/>
<polygon fill="#486581" stroke="#486581" stroke-width="1.4" points="1407.23,-337.17 1412.89,-330.85 1404.53,-332.26 1407.23,-337.17"/>
<text text-anchor="start" x="1345" y="-381.95" font-family="DejaVu Sans" font-size="11.00" fill="#334e68">Отримує детермінований наступний крок</text>
<text text-anchor="start" x="1418.5" y="-369.95" font-family="DejaVu Sans" font-size="11.00" fill="#334e68">і статус сценарію</text>
</g>
<!-- n_78e6a86e3609&#45;&gt;n_5f5685eeff97 -->
<g id="edge5" class="edge">
<title>n_78e6a86e3609&#45;&gt;n_5f5685eeff97</title>
<path fill="none" stroke="#486581" stroke-width="1.4" d="M1532.31,-284.74C1591.44,-268.33 1662,-248.75 1662,-248.75 1662,-248.75 1662,-224.75 1662,-224.75 1662,-224.75 1598,-82.75 1598,-82.75 1598,-82.75 1495.86,-64.12 1406.99,-47.9"/>
<polygon fill="#486581" stroke="#486581" stroke-width="1.4" points="1407.35,-45.13 1398.98,-46.44 1406.35,-50.63 1407.35,-45.13"/>
<text text-anchor="start" x="1645" y="-168.95" font-family="DejaVu Sans" font-size="11.00" fill="#334e68">Фіксує версію, введення, правило та</text>
<text text-anchor="start" x="1687.5" y="-156.95" font-family="DejaVu Sans" font-size="11.00" fill="#334e68">результат обчислення</text>
</g>
<!-- n_78e6a86e3609&#45;&gt;n_c210e7db8afd -->
<g id="edge4" class="edge">
<title>n_78e6a86e3609&#45;&gt;n_c210e7db8afd</title>
<path fill="none" stroke="#486581" stroke-width="1.4" d="M1447.45,-284.57C1441.51,-260.81 1432.06,-222.98 1425.47,-196.61"/>
<polygon fill="#486581" stroke="#486581" stroke-width="1.4" points="1428.18,-195.91 1423.52,-188.83 1422.74,-197.27 1428.18,-195.91"/>
<text text-anchor="start" x="1437" y="-239.95" font-family="DejaVu Sans" font-size="11.00" fill="#334e68">Передає завершений або проміжний</text>
<text text-anchor="start" x="1444.5" y="-227.95" font-family="DejaVu Sans" font-size="11.00" fill="#334e68">клінічний результат для агрегації</text>
</g>
</g>
</svg>
