<?xml version="1.0" encoding="UTF-8" standalone="no"?>
<!DOCTYPE svg PUBLIC "-//W3C//DTD SVG 1.1//EN"
 "http://www.w3.org/Graphics/SVG/1.1/DTD/svg11.dtd">
<!-- Generated by graphviz version 2.42.4 (0)
 -->
<!-- Title: G Pages: 1 -->
<svg width="1590pt" height="421pt"
 viewBox="0.00 0.00 1590.40 421.40" xmlns="http://www.w3.org/2000/svg" xmlns:xlink="http://www.w3.org/1999/xlink">
<g id="graph0" class="graph" transform="scale(1 1) rotate(0) translate(25.2 396.2)">
<title>G</title>
<polygon fill="white" stroke="transparent" points="-25.2,25.2 -25.2,-396.2 1565.2,-396.2 1565.2,25.2 -25.2,25.2"/>
<text text-anchor="start" x="59.5" y="-356.8" font-family="DejaVu Sans" font-weight="bold" font-size="14.00">DYN.12 — Обмін із МІС / EHR через FHIR</text>
<text text-anchor="start" x="8" y="-345.2" font-family="DejaVu Sans" font-size="11.00">Контрольований обмін структурованими клінічними даними з МІС/EHR.</text>
<!-- p_n_384146de0c5d -->
<g id="node1" class="node">
<title>p_n_384146de0c5d</title>
<path fill="#f4f7fa" stroke="#486581" d="M119,-337C119,-337 12,-337 12,-337 6,-337 0,-331 0,-325 0,-325 0,-313 0,-313 0,-307 6,-301 12,-301 12,-301 119,-301 119,-301 125,-301 131,-307 131,-313 131,-313 131,-325 131,-325 131,-331 125,-337 119,-337"/>
<text text-anchor="start" x="12" y="-316.9" font-family="DejaVu Sans" font-weight="bold" font-size="12.00" fill="#18324a">API&#45;шлюз і BFF</text>
</g>
<!-- p_n_bc4ac4e44917 -->
<g id="node2" class="node">
<title>p_n_bc4ac4e44917</title>
<path fill="#f4f7fa" stroke="#486581" d="M288,-337C288,-337 161,-337 161,-337 155,-337 149,-331 149,-325 149,-325 149,-313 149,-313 149,-307 155,-301 161,-301 161,-301 288,-301 288,-301 294,-301 300,-307 300,-313 300,-313 300,-325 300,-325 300,-331 294,-337 288,-337"/>
<text text-anchor="start" x="161" y="-316.9" font-family="DejaVu Sans" font-weight="bold" font-size="12.00" fill="#18324a">FHIR API та мапінг</text>
</g>
<!-- p_n_7518abf6c946 -->
<g id="node3" class="node">
<title>p_n_7518abf6c946</title>
<path fill="#f4f7fa" stroke="#486581" d="M482.5,-337C482.5,-337 330.5,-337 330.5,-337 324.5,-337 318.5,-331 318.5,-325 318.5,-325 318.5,-313 318.5,-313 318.5,-307 324.5,-301 330.5,-301 330.5,-301 482.5,-301 482.5,-301 488.5,-301 494.5,-307 494.5,-313 494.5,-313 494.5,-325 494.5,-325 494.5,-331 488.5,-337 482.5,-337"/>
<text text-anchor="start" x="330.5" y="-316.9" font-family="DejaVu Sans" font-weight="bold" font-size="12.00" fill="#18324a">Адаптер термінологій</text>
</g>
<!-- p_n_09b340c80e8a -->
<g id="node4" class="node">
<title>p_n_09b340c80e8a</title>
<path fill="#e9eef4" stroke="#486581" d="M662,-337C662,-337 525,-337 525,-337 519,-337 513,-331 513,-325 513,-325 513,-313 513,-313 513,-307 519,-301 525,-301 525,-301 662,-301 662,-301 668,-301 674,-307 674,-313 674,-313 674,-325 674,-325 674,-331 668,-337 662,-337"/>
<text text-anchor="start" x="525" y="-316.9" font-family="DejaVu Sans" font-weight="bold" font-size="12.00" fill="#263238">Сервіс термінологій</text>
</g>
<!-- p_n_33fc880b462c -->
<g id="node5" class="node">
<title>p_n_33fc880b462c</title>
<path fill="#f4f7fa" stroke="#486581" d="M871,-337C871,-337 704,-337 704,-337 698,-337 692,-331 692,-325 692,-325 692,-313 692,-313 692,-307 698,-301 704,-301 704,-301 871,-301 871,-301 877,-301 883,-307 883,-313 883,-313 883,-325 883,-325 883,-331 877,-337 871,-337"/>
<text text-anchor="start" x="704" y="-316.9" font-family="DejaVu Sans" font-weight="bold" font-size="12.00" fill="#18324a">Контроль політики згод</text>
</g>
<!-- p_n_916017ab9937 -->
<g id="node6" class="node">
<title>p_n_916017ab9937</title>
<path fill="#f4f7fa" stroke="#486581" d="M1050,-337C1050,-337 913,-337 913,-337 907,-337 901,-331 901,-325 901,-325 901,-313 901,-313 901,-307 907,-301 913,-301 913,-301 1050,-301 1050,-301 1056,-301 1062,-307 1062,-313 1062,-313 1062,-325 1062,-325 1062,-331 1056,-337 1050,-337"/>
<text text-anchor="start" x="913" y="-316.9" font-family="DejaVu Sans" font-weight="bold" font-size="12.00" fill="#18324a">Конектор МІС / EHR</text>
</g>
<!-- p_n_3be1d182bd81 -->
<g id="node7" class="node">
<title>p_n_3be1d182bd81</title>
<path fill="#e9eef4" stroke="#486581" d="M1208.5,-337C1208.5,-337 1092.5,-337 1092.5,-337 1086.5,-337 1080.5,-331 1080.5,-325 1080.5,-325 1080.5,-313 1080.5,-313 1080.5,-307 1086.5,-301 1092.5,-301 1092.5,-301 1208.5,-301 1208.5,-301 1214.5,-301 1220.5,-307 1220.5,-313 1220.5,-313 1220.5,-325 1220.5,-325 1220.5,-331 1214.5,-337 1208.5,-337"/>
<text text-anchor="start" x="1092.5" y="-316.9" font-family="DejaVu Sans" font-weight="bold" font-size="12.00" fill="#263238">МІС / EHR / ЕСОЗ</text>
</g>
<!-- step_01 -->
<g id="node8" class="node">
<title>step_01</title>
<path fill="#ffffff" stroke="#486581" stroke-width="1.5" d="M1494,-338C1494,-338 1251,-338 1251,-338 1245,-338 1239,-332 1239,-326 1239,-326 1239,-312 1239,-312 1239,-306 1245,-300 1251,-300 1251,-300 1494,-300 1494,-300 1500,-300 1506,-306 1506,-312 1506,-312 1506,-326 1506,-326 1506,-332 1500,-338 1494,-338"/>
<text text-anchor="start" x="1251" y="-322.4" font-family="DejaVu Sans" font-size="12.00"> </text>
<text text-anchor="start" x="1255" y="-322.4" font-family="DejaVu Sans" font-weight="bold" font-size="12.00">1.</text>
<text text-anchor="start" x="1268" y="-322.4" font-family="DejaVu Sans" font-size="12.00"> API&#45;шлюз і BFF → FHIR API та мапінг</text>
<text text-anchor="start" x="1267.5" y="-310.4" font-family="DejaVu Sans" font-size="10.00">Передає авторизовану команду обміну</text>
<text text-anchor="start" x="1473.5" y="-310.4" font-family="DejaVu Sans" font-size="12.00"> </text>
</g>
<!-- step_02 -->
<g id="node9" class="node">
<title>step_02</title>
<path fill="#ffffff" stroke="#486581" stroke-width="1.5" d="M1517,-278C1517,-278 1228,-278 1228,-278 1222,-278 1216,-272 1216,-266 1216,-266 1216,-252 1216,-252 1216,-246 1222,-240 1228,-240 1228,-240 1517,-240 1517,-240 1523,-240 1529,-246 1529,-252 1529,-252 1529,-266 1529,-266 1529,-272 1523,-278 1517,-278"/>
<text text-anchor="start" x="1228" y="-262.4" font-family="DejaVu Sans" font-size="12.00"> </text>
<text text-anchor="start" x="1232" y="-262.4" font-family="DejaVu Sans" font-weight="bold" font-size="12.00">2.</text>
<text text-anchor="start" x="1245" y="-262.4" font-family="DejaVu Sans" font-size="12.00"> FHIR API та мапінг → Адаптер термінологій</text>
<text text-anchor="start" x="1281.5" y="-250.4" font-family="DejaVu Sans" font-size="10.00">Перевіряє коди й версії словників</text>
<text text-anchor="start" x="1459.5" y="-250.4" font-family="DejaVu Sans" font-size="12.00"> </text>
</g>
<!-- step_01&#45;&gt;step_02 -->
<g id="edge1" class="edge">
<title>step_01&#45;&gt;step_02</title>
<path fill="none" stroke="#7b8794" stroke-width="1.2" d="M1372.5,-299.97C1372.5,-295.32 1372.5,-290.23 1372.5,-285.29"/>
<polygon fill="#7b8794" stroke="#7b8794" stroke-width="1.2" points="1374.95,-285.22 1372.5,-278.22 1370.05,-285.22 1374.95,-285.22"/>
</g>
<!-- step_03 -->
<g id="node10" class="node">
<title>step_03</title>
<path fill="#ffffff" stroke="#486581" stroke-width="1.5" d="M1522.5,-218C1522.5,-218 1222.5,-218 1222.5,-218 1216.5,-218 1210.5,-212 1210.5,-206 1210.5,-206 1210.5,-192 1210.5,-192 1210.5,-186 1216.5,-180 1222.5,-180 1222.5,-180 1522.5,-180 1522.5,-180 1528.5,-180 1534.5,-186 1534.5,-192 1534.5,-192 1534.5,-206 1534.5,-206 1534.5,-212 1528.5,-218 1522.5,-218"/>
<text text-anchor="start" x="1222.5" y="-202.4" font-family="DejaVu Sans" font-size="12.00"> </text>
<text text-anchor="start" x="1226.5" y="-202.4" font-family="DejaVu Sans" font-weight="bold" font-size="12.00">3.</text>
<text text-anchor="start" x="1239.5" y="-202.4" font-family="DejaVu Sans" font-size="12.00"> Адаптер термінологій → Сервіс термінологій</text>
<text text-anchor="start" x="1297" y="-190.4" font-family="DejaVu Sans" font-size="10.00">Валідує або відображає код</text>
<text text-anchor="start" x="1444" y="-190.4" font-family="DejaVu Sans" font-size="12.00"> </text>
</g>
<!-- step_02&#45;&gt;step_03 -->
<g id="edge2" class="edge">
<title>step_02&#45;&gt;step_03</title>
<path fill="none" stroke="#7b8794" stroke-width="1.2" d="M1372.5,-239.97C1372.5,-235.32 1372.5,-230.23 1372.5,-225.29"/>
<polygon fill="#7b8794" stroke="#7b8794" stroke-width="1.2" points="1374.95,-225.22 1372.5,-218.22 1370.05,-225.22 1374.95,-225.22"/>
</g>
<!-- step_04 -->
<g id="node11" class="node">
<title>step_04</title>
<path fill="#ffffff" stroke="#486581" stroke-width="1.5" d="M1523.5,-158C1523.5,-158 1221.5,-158 1221.5,-158 1215.5,-158 1209.5,-152 1209.5,-146 1209.5,-146 1209.5,-132 1209.5,-132 1209.5,-126 1215.5,-120 1221.5,-120 1221.5,-120 1523.5,-120 1523.5,-120 1529.5,-120 1535.5,-126 1535.5,-132 1535.5,-132 1535.5,-146 1535.5,-146 1535.5,-152 1529.5,-158 1523.5,-158"/>
<text text-anchor="start" x="1221.5" y="-142.4" font-family="DejaVu Sans" font-size="12.00"> </text>
<text text-anchor="start" x="1225.5" y="-142.4" font-family="DejaVu Sans" font-weight="bold" font-size="12.00">4.</text>
<text text-anchor="start" x="1238.5" y="-142.4" font-family="DejaVu Sans" font-size="12.00"> FHIR API та мапінг → Контроль політики згод</text>
<text text-anchor="start" x="1276" y="-130.4" font-family="DejaVu Sans" font-size="10.00">Перевіряє мету, обсяг і чинну згоду</text>
<text text-anchor="start" x="1465" y="-130.4" font-family="DejaVu Sans" font-size="12.00"> </text>
</g>
<!-- step_03&#45;&gt;step_04 -->
<g id="edge3" class="edge">
<title>step_03&#45;&gt;step_04</title>
<path fill="none" stroke="#7b8794" stroke-width="1.2" d="M1372.5,-179.97C1372.5,-175.32 1372.5,-170.23 1372.5,-165.29"/>
<polygon fill="#7b8794" stroke="#7b8794" stroke-width="1.2" points="1374.95,-165.22 1372.5,-158.22 1370.05,-165.22 1374.95,-165.22"/>
</g>
<!-- step_05 -->
<g id="node12" class="node">
<title>step_05</title>
<path fill="#ffffff" stroke="#486581" stroke-width="1.5" d="M1528,-98C1528,-98 1217,-98 1217,-98 1211,-98 1205,-92 1205,-86 1205,-86 1205,-72 1205,-72 1205,-66 1211,-60 1217,-60 1217,-60 1528,-60 1528,-60 1534,-60 1540,-66 1540,-72 1540,-72 1540,-86 1540,-86 1540,-92 1534,-98 1528,-98"/>
<text text-anchor="start" x="1217" y="-82.4" font-family="DejaVu Sans" font-size="12.00"> </text>
<text text-anchor="start" x="1221" y="-82.4" font-family="DejaVu Sans" font-weight="bold" font-size="12.00">5.</text>
<text text-anchor="start" x="1234" y="-82.4" font-family="DejaVu Sans" font-size="12.00"> Контроль політики згод → Конектор МІС / EHR</text>
<text text-anchor="start" x="1291" y="-70.4" font-family="DejaVu Sans" font-size="10.00">Дозволяє мінімізований обмін</text>
<text text-anchor="start" x="1450" y="-70.4" font-family="DejaVu Sans" font-size="12.00"> </text>
</g>
<!-- step_04&#45;&gt;step_05 -->
<g id="edge4" class="edge">
<title>step_04&#45;&gt;step_05</title>
<path fill="none" stroke="#7b8794" stroke-width="1.2" d="M1372.5,-119.97C1372.5,-115.32 1372.5,-110.23 1372.5,-105.29"/>
<polygon fill="#7b8794" stroke="#7b8794" stroke-width="1.2" points="1374.95,-105.22 1372.5,-98.22 1370.05,-105.22 1374.95,-105.22"/>
</g>
<!-- step_06 -->
<g id="node13" class="node">
<title>step_06</title>
<path fill="#ffffff" stroke="#486581" stroke-width="1.5" d="M1504.5,-38C1504.5,-38 1240.5,-38 1240.5,-38 1234.5,-38 1228.5,-32 1228.5,-26 1228.5,-26 1228.5,-12 1228.5,-12 1228.5,-6 1234.5,0 1240.5,0 1240.5,0 1504.5,0 1504.5,0 1510.5,0 1516.5,-6 1516.5,-12 1516.5,-12 1516.5,-26 1516.5,-26 1516.5,-32 1510.5,-38 1504.5,-38"/>
<text text-anchor="start" x="1240.5" y="-22.4" font-family="DejaVu Sans" font-size="12.00"> </text>
<text text-anchor="start" x="1244.5" y="-22.4" font-family="DejaVu Sans" font-weight="bold" font-size="12.00">6.</text>
<text text-anchor="start" x="1257.5" y="-22.4" font-family="DejaVu Sans" font-size="12.00"> Конектор МІС / EHR → МІС / EHR / ЕСОЗ</text>
<text text-anchor="start" x="1252.5" y="-10.4" font-family="DejaVu Sans" font-size="10.00">Надсилає або отримує профільовані ресурси</text>
<text text-anchor="start" x="1488.5" y="-10.4" font-family="DejaVu Sans" font-size="12.00"> </text>
</g>
<!-- step_05&#45;&gt;step_06 -->
<g id="edge5" class="edge">
<title>step_05&#45;&gt;step_06</title>
<path fill="none" stroke="#7b8794" stroke-width="1.2" d="M1372.5,-59.97C1372.5,-55.32 1372.5,-50.23 1372.5,-45.29"/>
<polygon fill="#7b8794" stroke="#7b8794" stroke-width="1.2" points="1374.95,-45.22 1372.5,-38.22 1370.05,-45.22 1374.95,-45.22"/>
</g>
</g>
</svg>
