<?xml version="1.0" encoding="UTF-8" standalone="no"?>
<!DOCTYPE svg PUBLIC "-//W3C//DTD SVG 1.1//EN"
 "http://www.w3.org/Graphics/SVG/1.1/DTD/svg11.dtd">
<!-- Generated by graphviz version 2.42.4 (0)
 -->
<!-- Title: G Pages: 1 -->
<svg width="1770pt" height="577pt"
 viewBox="0.00 0.00 1770.40 577.40" xmlns="http://www.w3.org/2000/svg" xmlns:xlink="http://www.w3.org/1999/xlink">
<g id="graph0" class="graph" transform="scale(1 1) rotate(0) translate(25.2 552.2)">
<title>G</title>
<polygon fill="white" stroke="transparent" points="-25.2,25.2 -25.2,-552.2 1745.2,-552.2 1745.2,25.2 -25.2,25.2"/>
<text text-anchor="start" x="54.5" y="-512.8" font-family="DejaVu Sans" font-weight="bold" font-size="14.00">DYN.08 — Клінічний перегляд і траєкторія пацієнта</text>
<text text-anchor="start" x="8" y="-501.2" font-family="DejaVu Sans" font-size="11.00">Огляд медичним працівником, пояснення, коригування та підтвердження траєкторії.</text>
<!-- p_n_f465f9f86773 -->
<g id="node1" class="node">
<title>p_n_f465f9f86773</title>
<path fill="#6c4ab6" stroke="#486581" d="M114,-493C114,-493 12,-493 12,-493 6,-493 0,-487 0,-481 0,-481 0,-469 0,-469 0,-463 6,-457 12,-457 12,-457 114,-457 114,-457 120,-457 126,-463 126,-469 126,-469 126,-481 126,-481 126,-487 120,-493 114,-493"/>
<text text-anchor="start" x="12" y="-472.9" font-family="DejaVu Sans" font-weight="bold" font-size="12.00" fill="#ffffff">Лікар&#45;психіатр</text>
</g>
<!-- p_n_a8676803ace0 -->
<g id="node2" class="node">
<title>p_n_a8676803ace0</title>
<path fill="#6c4ab6" stroke="#486581" d="M289.5,-494C289.5,-494 156.5,-494 156.5,-494 150.5,-494 144.5,-488 144.5,-482 144.5,-482 144.5,-468 144.5,-468 144.5,-462 150.5,-456 156.5,-456 156.5,-456 289.5,-456 289.5,-456 295.5,-456 301.5,-462 301.5,-468 301.5,-468 301.5,-482 301.5,-482 301.5,-488 295.5,-494 289.5,-494"/>
<text text-anchor="start" x="156.5" y="-478.4" font-family="DejaVu Sans" font-weight="bold" font-size="12.00" fill="#ffffff">Кабінет медичного</text>
<text text-anchor="start" x="183.5" y="-466.4" font-family="DejaVu Sans" font-weight="bold" font-size="12.00" fill="#ffffff">працівника</text>
</g>
<!-- p_n_384146de0c5d -->
<g id="node3" class="node">
<title>p_n_384146de0c5d</title>
<path fill="#f4f7fa" stroke="#486581" d="M438.5,-493C438.5,-493 331.5,-493 331.5,-493 325.5,-493 319.5,-487 319.5,-481 319.5,-481 319.5,-469 319.5,-469 319.5,-463 325.5,-457 331.5,-457 331.5,-457 438.5,-457 438.5,-457 444.5,-457 450.5,-463 450.5,-469 450.5,-469 450.5,-481 450.5,-481 450.5,-487 444.5,-493 438.5,-493"/>
<text text-anchor="start" x="331.5" y="-472.9" font-family="DejaVu Sans" font-weight="bold" font-size="12.00" fill="#18324a">API&#45;шлюз і BFF</text>
</g>
<!-- p_n_c210e7db8afd -->
<g id="node4" class="node">
<title>p_n_c210e7db8afd</title>
<path fill="#2b6cb0" stroke="#486581" d="M601,-494C601,-494 481,-494 481,-494 475,-494 469,-488 469,-482 469,-482 469,-468 469,-468 469,-462 475,-456 481,-456 481,-456 601,-456 601,-456 607,-456 613,-462 613,-468 613,-468 613,-482 613,-482 613,-488 607,-494 601,-494"/>
<text text-anchor="start" x="481" y="-478.4" font-family="DejaVu Sans" font-weight="bold" font-size="12.00" fill="#ffffff">Сервіс підтримки</text>
<text text-anchor="start" x="481.5" y="-466.4" font-family="DejaVu Sans" font-weight="bold" font-size="12.00" fill="#ffffff">клінічних рішень</text>
</g>
<!-- p_n_0a99d320f3b9 -->
<g id="node5" class="node">
<title>p_n_0a99d320f3b9</title>
<path fill="#e9eef4" stroke="#486581" d="M797,-494C797,-494 643,-494 643,-494 637,-494 631,-488 631,-482 631,-482 631,-468 631,-468 631,-462 637,-456 643,-456 643,-456 797,-456 797,-456 803,-456 809,-462 809,-468 809,-468 809,-482 809,-482 809,-488 803,-494 797,-494"/>
<text text-anchor="start" x="643" y="-478.4" font-family="DejaVu Sans" font-weight="bold" font-size="12.00" fill="#263238">Репозиторій клінічних</text>
<text text-anchor="start" x="655.5" y="-466.4" font-family="DejaVu Sans" font-weight="bold" font-size="12.00" fill="#263238">протоколів і знань</text>
</g>
<!-- p_n_40b119007c9f -->
<g id="node6" class="node">
<title>p_n_40b119007c9f</title>
<path fill="#edf2f7" stroke="#486581" d="M963,-493C963,-493 839,-493 839,-493 833,-493 827,-487 827,-481 827,-481 827,-469 827,-469 827,-463 833,-457 839,-457 839,-457 963,-457 963,-457 969,-457 975,-463 975,-469 975,-469 975,-481 975,-481 975,-487 969,-493 963,-493"/>
<text text-anchor="start" x="839" y="-472.9" font-family="DejaVu Sans" font-weight="bold" font-size="12.00" fill="#1a202c">Клінічне сховище</text>
</g>
<!-- p_n_eb4c5110ae64 -->
<g id="node7" class="node">
<title>p_n_eb4c5110ae64</title>
<path fill="#b7791f" stroke="#486581" d="M1168.5,-494C1168.5,-494 1005.5,-494 1005.5,-494 999.5,-494 993.5,-488 993.5,-482 993.5,-482 993.5,-468 993.5,-468 993.5,-462 999.5,-456 1005.5,-456 1005.5,-456 1168.5,-456 1168.5,-456 1174.5,-456 1180.5,-462 1180.5,-468 1180.5,-468 1180.5,-482 1180.5,-482 1180.5,-488 1174.5,-494 1168.5,-494"/>
<text text-anchor="start" x="1032.5" y="-478.4" font-family="DejaVu Sans" font-weight="bold" font-size="12.00" fill="#ffffff">Сервіс завдань,</text>
<text text-anchor="start" x="1005.5" y="-466.4" font-family="DejaVu Sans" font-weight="bold" font-size="12.00" fill="#ffffff">нагадувань і ескалацій</text>
</g>
<!-- p_n_5f5685eeff97 -->
<g id="node8" class="node">
<title>p_n_5f5685eeff97</title>
<path fill="#4a5568" stroke="#486581" d="M1341.5,-494C1341.5,-494 1210.5,-494 1210.5,-494 1204.5,-494 1198.5,-488 1198.5,-482 1198.5,-482 1198.5,-468 1198.5,-468 1198.5,-462 1204.5,-456 1210.5,-456 1210.5,-456 1341.5,-456 1341.5,-456 1347.5,-456 1353.5,-462 1353.5,-468 1353.5,-468 1353.5,-482 1353.5,-482 1353.5,-488 1347.5,-494 1341.5,-494"/>
<text text-anchor="start" x="1218" y="-478.4" font-family="DejaVu Sans" font-weight="bold" font-size="12.00" fill="#ffffff">Сервіс аудиту та</text>
<text text-anchor="start" x="1210.5" y="-466.4" font-family="DejaVu Sans" font-weight="bold" font-size="12.00" fill="#ffffff">спостережуваності</text>
</g>
<!-- step_01 -->
<g id="node9" class="node">
<title>step_01</title>
<path fill="#ffffff" stroke="#486581" stroke-width="1.5" d="M1708,-494C1708,-494 1384,-494 1384,-494 1378,-494 1372,-488 1372,-482 1372,-482 1372,-468 1372,-468 1372,-462 1378,-456 1384,-456 1384,-456 1708,-456 1708,-456 1714,-456 1720,-462 1720,-468 1720,-468 1720,-482 1720,-482 1720,-488 1714,-494 1708,-494"/>
<text text-anchor="start" x="1384" y="-478.4" font-family="DejaVu Sans" font-size="12.00"> </text>
<text text-anchor="start" x="1388" y="-478.4" font-family="DejaVu Sans" font-weight="bold" font-size="12.00">1.</text>
<text text-anchor="start" x="1401" y="-478.4" font-family="DejaVu Sans" font-size="12.00"> Лікар&#45;психіатр → Кабінет медичного працівника</text>
<text text-anchor="start" x="1453.5" y="-466.4" font-family="DejaVu Sans" font-size="10.00">Відкриває випадок і часову шкалу</text>
<text text-anchor="start" x="1634.5" y="-466.4" font-family="DejaVu Sans" font-size="12.00"> </text>
</g>
<!-- step_02 -->
<g id="node10" class="node">
<title>step_02</title>
<path fill="#ffffff" stroke="#486581" stroke-width="1.5" d="M1708,-434C1708,-434 1384,-434 1384,-434 1378,-434 1372,-428 1372,-422 1372,-422 1372,-408 1372,-408 1372,-402 1378,-396 1384,-396 1384,-396 1708,-396 1708,-396 1714,-396 1720,-402 1720,-408 1720,-408 1720,-422 1720,-422 1720,-428 1714,-434 1708,-434"/>
<text text-anchor="start" x="1384" y="-418.4" font-family="DejaVu Sans" font-size="12.00"> </text>
<text text-anchor="start" x="1388" y="-418.4" font-family="DejaVu Sans" font-weight="bold" font-size="12.00">2.</text>
<text text-anchor="start" x="1401" y="-418.4" font-family="DejaVu Sans" font-size="12.00"> Кабінет медичного працівника → API&#45;шлюз і BFF</text>
<text text-anchor="start" x="1431" y="-406.4" font-family="DejaVu Sans" font-size="10.00">Запитує результати, прапорці та джерела</text>
<text text-anchor="start" x="1657" y="-406.4" font-family="DejaVu Sans" font-size="12.00"> </text>
</g>
<!-- step_01&#45;&gt;step_02 -->
<g id="edge1" class="edge">
<title>step_01&#45;&gt;step_02</title>
<path fill="none" stroke="#7b8794" stroke-width="1.2" d="M1546,-455.97C1546,-451.32 1546,-446.23 1546,-441.29"/>
<polygon fill="#7b8794" stroke="#7b8794" stroke-width="1.2" points="1548.45,-441.22 1546,-434.22 1543.55,-441.22 1548.45,-441.22"/>
</g>
<!-- step_03 -->
<g id="node11" class="node">
<title>step_03</title>
<path fill="#ffffff" stroke="#486581" stroke-width="1.5" d="M1695.5,-374C1695.5,-374 1396.5,-374 1396.5,-374 1390.5,-374 1384.5,-368 1384.5,-362 1384.5,-362 1384.5,-336 1384.5,-336 1384.5,-330 1390.5,-324 1396.5,-324 1396.5,-324 1695.5,-324 1695.5,-324 1701.5,-324 1707.5,-330 1707.5,-336 1707.5,-336 1707.5,-362 1707.5,-362 1707.5,-368 1701.5,-374 1695.5,-374"/>
<text text-anchor="start" x="1396.5" y="-358.4" font-family="DejaVu Sans" font-size="12.00"> </text>
<text text-anchor="start" x="1400.5" y="-358.4" font-family="DejaVu Sans" font-weight="bold" font-size="12.00">3.</text>
<text text-anchor="start" x="1413.5" y="-358.4" font-family="DejaVu Sans" font-size="12.00"> API&#45;шлюз і BFF → Сервіс підтримки клінічних</text>
<text text-anchor="start" x="1524" y="-346.4" font-family="DejaVu Sans" font-size="12.00">рішень</text>
<text text-anchor="start" x="1426.5" y="-334.4" font-family="DejaVu Sans" font-size="10.00">Отримує проєкт узагальнення та пояснення</text>
<text text-anchor="start" x="1661.5" y="-334.4" font-family="DejaVu Sans" font-size="12.00"> </text>
</g>
<!-- step_02&#45;&gt;step_03 -->
<g id="edge2" class="edge">
<title>step_02&#45;&gt;step_03</title>
<path fill="none" stroke="#7b8794" stroke-width="1.2" d="M1546,-395.83C1546,-391.36 1546,-386.45 1546,-381.55"/>
<polygon fill="#7b8794" stroke="#7b8794" stroke-width="1.2" points="1548.45,-381.43 1546,-374.43 1543.55,-381.43 1548.45,-381.43"/>
</g>
<!-- step_04 -->
<g id="node12" class="node">
<title>step_04</title>
<path fill="#ffffff" stroke="#486581" stroke-width="1.5" d="M1645.5,-302C1645.5,-302 1446.5,-302 1446.5,-302 1440.5,-302 1434.5,-296 1434.5,-290 1434.5,-290 1434.5,-252 1434.5,-252 1434.5,-246 1440.5,-240 1446.5,-240 1446.5,-240 1645.5,-240 1645.5,-240 1651.5,-240 1657.5,-246 1657.5,-252 1657.5,-252 1657.5,-290 1657.5,-290 1657.5,-296 1651.5,-302 1645.5,-302"/>
<text text-anchor="start" x="1451" y="-286.4" font-family="DejaVu Sans" font-size="12.00"> </text>
<text text-anchor="start" x="1455" y="-286.4" font-family="DejaVu Sans" font-weight="bold" font-size="12.00">4.</text>
<text text-anchor="start" x="1468" y="-286.4" font-family="DejaVu Sans" font-size="12.00"> Сервіс підтримки клінічних</text>
<text text-anchor="start" x="1446.5" y="-274.4" font-family="DejaVu Sans" font-size="12.00">рішень → Репозиторій клінічних</text>
<text text-anchor="start" x="1488" y="-262.4" font-family="DejaVu Sans" font-size="12.00">протоколів і знань</text>
<text text-anchor="start" x="1457" y="-250.4" font-family="DejaVu Sans" font-size="10.00">Перевіряє релевантні протоколи</text>
<text text-anchor="start" x="1631" y="-250.4" font-family="DejaVu Sans" font-size="12.00"> </text>
</g>
<!-- step_03&#45;&gt;step_04 -->
<g id="edge3" class="edge">
<title>step_03&#45;&gt;step_04</title>
<path fill="none" stroke="#7b8794" stroke-width="1.2" d="M1546,-323.95C1546,-319.28 1546,-314.28 1546,-309.29"/>
<polygon fill="#7b8794" stroke="#7b8794" stroke-width="1.2" points="1548.45,-309.04 1546,-302.04 1543.55,-309.04 1548.45,-309.04"/>
</g>
<!-- step_05 -->
<g id="node13" class="node">
<title>step_05</title>
<path fill="#ffffff" stroke="#486581" stroke-width="1.5" d="M1675.5,-218C1675.5,-218 1416.5,-218 1416.5,-218 1410.5,-218 1404.5,-212 1404.5,-206 1404.5,-206 1404.5,-180 1404.5,-180 1404.5,-174 1410.5,-168 1416.5,-168 1416.5,-168 1675.5,-168 1675.5,-168 1681.5,-168 1687.5,-174 1687.5,-180 1687.5,-180 1687.5,-206 1687.5,-206 1687.5,-212 1681.5,-218 1675.5,-218"/>
<text text-anchor="start" x="1451" y="-202.4" font-family="DejaVu Sans" font-size="12.00"> </text>
<text text-anchor="start" x="1455" y="-202.4" font-family="DejaVu Sans" font-weight="bold" font-size="12.00">5.</text>
<text text-anchor="start" x="1468" y="-202.4" font-family="DejaVu Sans" font-size="12.00"> Сервіс підтримки клінічних</text>
<text text-anchor="start" x="1461" y="-190.4" font-family="DejaVu Sans" font-size="12.00">рішень → Клінічне сховище</text>
<text text-anchor="start" x="1416.5" y="-178.4" font-family="DejaVu Sans" font-size="10.00">Зберігає коригування та підтверджене рішення</text>
<text text-anchor="start" x="1671.5" y="-178.4" font-family="DejaVu Sans" font-size="12.00"> </text>
</g>
<!-- step_04&#45;&gt;step_05 -->
<g id="edge4" class="edge">
<title>step_04&#45;&gt;step_05</title>
<path fill="none" stroke="#7b8794" stroke-width="1.2" d="M1546,-239.96C1546,-235.28 1546,-230.43 1546,-225.71"/>
<polygon fill="#7b8794" stroke="#7b8794" stroke-width="1.2" points="1548.45,-225.45 1546,-218.45 1543.55,-225.45 1548.45,-225.45"/>
</g>
<!-- step_06 -->
<g id="node14" class="node">
<title>step_06</title>
<path fill="#ffffff" stroke="#486581" stroke-width="1.5" d="M1667,-146C1667,-146 1425,-146 1425,-146 1419,-146 1413,-140 1413,-134 1413,-134 1413,-96 1413,-96 1413,-90 1419,-84 1425,-84 1425,-84 1667,-84 1667,-84 1673,-84 1679,-90 1679,-96 1679,-96 1679,-134 1679,-134 1679,-140 1673,-146 1667,-146"/>
<text text-anchor="start" x="1451" y="-130.4" font-family="DejaVu Sans" font-size="12.00"> </text>
<text text-anchor="start" x="1455" y="-130.4" font-family="DejaVu Sans" font-weight="bold" font-size="12.00">6.</text>
<text text-anchor="start" x="1468" y="-130.4" font-family="DejaVu Sans" font-size="12.00"> Сервіс підтримки клінічних</text>
<text text-anchor="start" x="1425" y="-118.4" font-family="DejaVu Sans" font-size="12.00">рішень → Сервіс завдань, нагадувань і</text>
<text text-anchor="start" x="1514" y="-106.4" font-family="DejaVu Sans" font-size="12.00">ескалацій</text>
<text text-anchor="start" x="1444.5" y="-94.4" font-family="DejaVu Sans" font-size="10.00">Створює погоджені контрольні точки</text>
<text text-anchor="start" x="1643.5" y="-94.4" font-family="DejaVu Sans" font-size="12.00"> </text>
</g>
<!-- step_05&#45;&gt;step_06 -->
<g id="edge5" class="edge">
<title>step_05&#45;&gt;step_06</title>
<path fill="none" stroke="#7b8794" stroke-width="1.2" d="M1546,-167.95C1546,-163.28 1546,-158.28 1546,-153.29"/>
<polygon fill="#7b8794" stroke="#7b8794" stroke-width="1.2" points="1548.45,-153.04 1546,-146.04 1543.55,-153.04 1548.45,-153.04"/>
</g>
<!-- step_07 -->
<g id="node15" class="node">
<title>step_07</title>
<path fill="#ffffff" stroke="#486581" stroke-width="1.5" d="M1676,-62C1676,-62 1416,-62 1416,-62 1410,-62 1404,-56 1404,-50 1404,-50 1404,-12 1404,-12 1404,-6 1410,0 1416,0 1416,0 1676,0 1676,0 1682,0 1688,-6 1688,-12 1688,-12 1688,-50 1688,-50 1688,-56 1682,-62 1676,-62"/>
<text text-anchor="start" x="1451" y="-46.4" font-family="DejaVu Sans" font-size="12.00"> </text>
<text text-anchor="start" x="1455" y="-46.4" font-family="DejaVu Sans" font-weight="bold" font-size="12.00">7.</text>
<text text-anchor="start" x="1468" y="-46.4" font-family="DejaVu Sans" font-size="12.00"> Сервіс підтримки клінічних</text>
<text text-anchor="start" x="1463" y="-34.4" font-family="DejaVu Sans" font-size="12.00">рішень → Сервіс аудиту та</text>
<text text-anchor="start" x="1485.5" y="-22.4" font-family="DejaVu Sans" font-size="12.00">спостережуваності</text>
<text text-anchor="start" x="1416" y="-10.4" font-family="DejaVu Sans" font-size="10.00">Фіксує фахівця, обґрунтування й версію джерел</text>
<text text-anchor="start" x="1672" y="-10.4" font-family="DejaVu Sans" font-size="12.00"> </text>
</g>
<!-- step_06&#45;&gt;step_07 -->
<g id="edge6" class="edge">
<title>step_06&#45;&gt;step_07</title>
<path fill="none" stroke="#7b8794" stroke-width="1.2" d="M1546,-83.93C1546,-79.14 1546,-74.14 1546,-69.2"/>
<polygon fill="#7b8794" stroke="#7b8794" stroke-width="1.2" points="1548.45,-69.06 1546,-62.06 1543.55,-69.06 1548.45,-69.06"/>
</g>
</g>
</svg>
