<?xml version="1.0" encoding="UTF-8" standalone="no"?>
<!DOCTYPE svg PUBLIC "-//W3C//DTD SVG 1.1//EN"
 "http://www.w3.org/Graphics/SVG/1.1/DTD/svg11.dtd">
<!-- Generated by graphviz version 2.42.4 (0)
 -->
<!-- Title: G Pages: 1 -->
<svg width="2229pt" height="828pt"
 viewBox="0.00 0.00 2229.40 828.40" xmlns="http://www.w3.org/2000/svg" xmlns:xlink="http://www.w3.org/1999/xlink">
<g id="graph0" class="graph" transform="scale(1 1) rotate(0) translate(25.2 803.2)">
<title>G</title>
<polygon fill="white" stroke="transparent" points="-25.2,25.2 -25.2,-803.2 2204.2,-803.2 2204.2,25.2 -25.2,25.2"/>
<text text-anchor="start" x="92" y="-763.8" font-family="DejaVu Sans" font-weight="bold" font-size="14.00">DYN.13 — Призупинення та відновлення сесії</text>
<text text-anchor="start" x="8" y="-752.2" font-family="DejaVu Sans" font-size="11.00">Безпечне призупинення та відновлення незавершеної сесії без втрати версії алгоритму й</text>
<text text-anchor="start" x="243" y="-741.2" font-family="DejaVu Sans" font-size="11.00">контексту.</text>
<!-- p_n_b1b0b8de8a62 -->
<g id="node1" class="node">
<title>p_n_b1b0b8de8a62</title>
<path fill="#084c61" stroke="#486581" d="M65,-733C65,-733 12,-733 12,-733 6,-733 0,-727 0,-721 0,-721 0,-709 0,-709 0,-703 6,-697 12,-697 12,-697 65,-697 65,-697 71,-697 77,-703 77,-709 77,-709 77,-721 77,-721 77,-727 71,-733 65,-733"/>
<text text-anchor="start" x="12" y="-712.9" font-family="DejaVu Sans" font-weight="bold" font-size="12.00" fill="#ffffff">Пацієнт</text>
</g>
<!-- p_n_8a923be70a11 -->
<g id="node2" class="node">
<title>p_n_8a923be70a11</title>
<path fill="#0b7285" stroke="#486581" d="M249.5,-733C249.5,-733 107.5,-733 107.5,-733 101.5,-733 95.5,-727 95.5,-721 95.5,-721 95.5,-709 95.5,-709 95.5,-703 101.5,-697 107.5,-697 107.5,-697 249.5,-697 249.5,-697 255.5,-697 261.5,-703 261.5,-709 261.5,-709 261.5,-721 261.5,-721 261.5,-727 255.5,-733 249.5,-733"/>
<text text-anchor="start" x="107.5" y="-712.9" font-family="DejaVu Sans" font-weight="bold" font-size="12.00" fill="#ffffff">Застосунок пацієнта</text>
</g>
<!-- p_n_384146de0c5d -->
<g id="node3" class="node">
<title>p_n_384146de0c5d</title>
<path fill="#f4f7fa" stroke="#486581" d="M399,-733C399,-733 292,-733 292,-733 286,-733 280,-727 280,-721 280,-721 280,-709 280,-709 280,-703 286,-697 292,-697 292,-697 399,-697 399,-697 405,-697 411,-703 411,-709 411,-709 411,-721 411,-721 411,-727 405,-733 399,-733"/>
<text text-anchor="start" x="292" y="-712.9" font-family="DejaVu Sans" font-weight="bold" font-size="12.00" fill="#18324a">API&#45;шлюз і BFF</text>
</g>
<!-- p_n_f9075d486a51 -->
<g id="node4" class="node">
<title>p_n_f9075d486a51</title>
<path fill="#f4f7fa" stroke="#486581" d="M599.5,-733C599.5,-733 441.5,-733 441.5,-733 435.5,-733 429.5,-727 429.5,-721 429.5,-721 429.5,-709 429.5,-709 429.5,-703 435.5,-697 441.5,-697 441.5,-697 599.5,-697 599.5,-697 605.5,-697 611.5,-703 611.5,-709 611.5,-709 611.5,-721 611.5,-721 611.5,-727 605.5,-733 599.5,-733"/>
<text text-anchor="start" x="441.5" y="-712.9" font-family="DejaVu Sans" font-weight="bold" font-size="12.00" fill="#18324a">Оркестратор взаємодії</text>
</g>
<!-- p_n_331a3889c3d6 -->
<g id="node5" class="node">
<title>p_n_331a3889c3d6</title>
<path fill="#edf2f7" stroke="#486581" d="M805.5,-733C805.5,-733 641.5,-733 641.5,-733 635.5,-733 629.5,-727 629.5,-721 629.5,-721 629.5,-709 629.5,-709 629.5,-703 635.5,-697 641.5,-697 641.5,-697 805.5,-697 805.5,-697 811.5,-697 817.5,-703 817.5,-709 817.5,-709 817.5,-721 817.5,-721 817.5,-727 811.5,-733 805.5,-733"/>
<text text-anchor="start" x="641.5" y="-712.9" font-family="DejaVu Sans" font-weight="bold" font-size="12.00" fill="#1a202c">Операційна база даних</text>
</g>
<!-- p_n_eb4c5110ae64 -->
<g id="node6" class="node">
<title>p_n_eb4c5110ae64</title>
<path fill="#b7791f" stroke="#486581" d="M1011,-734C1011,-734 848,-734 848,-734 842,-734 836,-728 836,-722 836,-722 836,-708 836,-708 836,-702 842,-696 848,-696 848,-696 1011,-696 1011,-696 1017,-696 1023,-702 1023,-708 1023,-708 1023,-722 1023,-722 1023,-728 1017,-734 1011,-734"/>
<text text-anchor="start" x="875" y="-718.4" font-family="DejaVu Sans" font-weight="bold" font-size="12.00" fill="#ffffff">Сервіс завдань,</text>
<text text-anchor="start" x="848" y="-706.4" font-family="DejaVu Sans" font-weight="bold" font-size="12.00" fill="#ffffff">нагадувань і ескалацій</text>
</g>
<!-- p_n_b10c10dbc143 -->
<g id="node7" class="node">
<title>p_n_b10c10dbc143</title>
<path fill="#3b5bdb" stroke="#486581" d="M1195.5,-733C1195.5,-733 1053.5,-733 1053.5,-733 1047.5,-733 1041.5,-727 1041.5,-721 1041.5,-721 1041.5,-709 1041.5,-709 1041.5,-703 1047.5,-697 1053.5,-697 1053.5,-697 1195.5,-697 1195.5,-697 1201.5,-697 1207.5,-703 1207.5,-709 1207.5,-709 1207.5,-721 1207.5,-721 1207.5,-727 1201.5,-733 1195.5,-733"/>
<text text-anchor="start" x="1053.5" y="-712.9" font-family="DejaVu Sans" font-weight="bold" font-size="12.00" fill="#ffffff">Інтеграційний шлюз</text>
</g>
<!-- p_n_dff60b2c2060 -->
<g id="node8" class="node">
<title>p_n_dff60b2c2060</title>
<path fill="#e9eef4" stroke="#486581" d="M1407.5,-733C1407.5,-733 1237.5,-733 1237.5,-733 1231.5,-733 1225.5,-727 1225.5,-721 1225.5,-721 1225.5,-709 1225.5,-709 1225.5,-703 1231.5,-697 1237.5,-697 1237.5,-697 1407.5,-697 1407.5,-697 1413.5,-697 1419.5,-703 1419.5,-709 1419.5,-709 1419.5,-721 1419.5,-721 1419.5,-727 1413.5,-733 1407.5,-733"/>
<text text-anchor="start" x="1237.5" y="-712.9" font-family="DejaVu Sans" font-weight="bold" font-size="12.00" fill="#263238">Провайдер повідомлень</text>
</g>
<!-- p_n_85612016a131 -->
<g id="node9" class="node">
<title>p_n_85612016a131</title>
<path fill="#edf2f7" stroke="#486581" d="M1609.5,-734C1609.5,-734 1449.5,-734 1449.5,-734 1443.5,-734 1437.5,-728 1437.5,-722 1437.5,-722 1437.5,-708 1437.5,-708 1437.5,-702 1443.5,-696 1449.5,-696 1449.5,-696 1609.5,-696 1609.5,-696 1615.5,-696 1621.5,-702 1621.5,-708 1621.5,-708 1621.5,-722 1621.5,-722 1621.5,-728 1615.5,-734 1609.5,-734"/>
<text text-anchor="start" x="1449.5" y="-718.4" font-family="DejaVu Sans" font-weight="bold" font-size="12.00" fill="#1a202c">Кеш і короткоживучий</text>
<text text-anchor="start" x="1514" y="-706.4" font-family="DejaVu Sans" font-weight="bold" font-size="12.00" fill="#1a202c">стан</text>
</g>
<!-- p_n_78e6a86e3609 -->
<g id="node10" class="node">
<title>p_n_78e6a86e3609</title>
<path fill="#2b6cb0" stroke="#486581" d="M1809.5,-734C1809.5,-734 1651.5,-734 1651.5,-734 1645.5,-734 1639.5,-728 1639.5,-722 1639.5,-722 1639.5,-708 1639.5,-708 1639.5,-702 1645.5,-696 1651.5,-696 1651.5,-696 1809.5,-696 1809.5,-696 1815.5,-696 1821.5,-702 1821.5,-708 1821.5,-708 1821.5,-722 1821.5,-722 1821.5,-728 1815.5,-734 1809.5,-734"/>
<text text-anchor="start" x="1651.5" y="-718.4" font-family="DejaVu Sans" font-weight="bold" font-size="12.00" fill="#ffffff">Детермінований рушій</text>
<text text-anchor="start" x="1698.5" y="-706.4" font-family="DejaVu Sans" font-weight="bold" font-size="12.00" fill="#ffffff">сценаріїв</text>
</g>
<!-- step_01 -->
<g id="node11" class="node">
<title>step_01</title>
<path fill="#ffffff" stroke="#486581" stroke-width="1.5" d="M2115,-734C2115,-734 1852,-734 1852,-734 1846,-734 1840,-728 1840,-722 1840,-722 1840,-708 1840,-708 1840,-702 1846,-696 1852,-696 1852,-696 2115,-696 2115,-696 2121,-696 2127,-702 2127,-708 2127,-708 2127,-722 2127,-722 2127,-728 2121,-734 2115,-734"/>
<text text-anchor="start" x="1874.5" y="-718.4" font-family="DejaVu Sans" font-size="12.00"> </text>
<text text-anchor="start" x="1878.5" y="-718.4" font-family="DejaVu Sans" font-weight="bold" font-size="12.00">1.</text>
<text text-anchor="start" x="1891.5" y="-718.4" font-family="DejaVu Sans" font-size="12.00"> Пацієнт → Застосунок пацієнта</text>
<text text-anchor="start" x="1852" y="-706.4" font-family="DejaVu Sans" font-size="10.00">Просить зберегти прогрес або втрачає з&#39;єднання</text>
<text text-anchor="start" x="2111" y="-706.4" font-family="DejaVu Sans" font-size="12.00"> </text>
</g>
<!-- step_02 -->
<g id="node12" class="node">
<title>step_02</title>
<path fill="#ffffff" stroke="#486581" stroke-width="1.5" d="M2114,-674C2114,-674 1853,-674 1853,-674 1847,-674 1841,-668 1841,-662 1841,-662 1841,-648 1841,-648 1841,-642 1847,-636 1853,-636 1853,-636 2114,-636 2114,-636 2120,-636 2126,-642 2126,-648 2126,-648 2126,-662 2126,-662 2126,-668 2120,-674 2114,-674"/>
<text text-anchor="start" x="1853" y="-658.4" font-family="DejaVu Sans" font-size="12.00"> </text>
<text text-anchor="start" x="1857" y="-658.4" font-family="DejaVu Sans" font-weight="bold" font-size="12.00">2.</text>
<text text-anchor="start" x="1870" y="-658.4" font-family="DejaVu Sans" font-size="12.00"> Застосунок пацієнта → API&#45;шлюз і BFF</text>
<text text-anchor="start" x="1878.5" y="-646.4" font-family="DejaVu Sans" font-size="10.00">Передає останній підтверджений стан</text>
<text text-anchor="start" x="2084.5" y="-646.4" font-family="DejaVu Sans" font-size="12.00"> </text>
</g>
<!-- step_01&#45;&gt;step_02 -->
<g id="edge1" class="edge">
<title>step_01&#45;&gt;step_02</title>
<path fill="none" stroke="#7b8794" stroke-width="1.2" d="M1983.5,-695.97C1983.5,-691.32 1983.5,-686.23 1983.5,-681.29"/>
<polygon fill="#7b8794" stroke="#7b8794" stroke-width="1.2" points="1985.95,-681.22 1983.5,-674.22 1981.05,-681.22 1985.95,-681.22"/>
</g>
<!-- step_03 -->
<g id="node13" class="node">
<title>step_03</title>
<path fill="#ffffff" stroke="#486581" stroke-width="1.5" d="M2121,-614C2121,-614 1846,-614 1846,-614 1840,-614 1834,-608 1834,-602 1834,-602 1834,-588 1834,-588 1834,-582 1840,-576 1846,-576 1846,-576 2121,-576 2121,-576 2127,-576 2133,-582 2133,-588 2133,-588 2133,-602 2133,-602 2133,-608 2127,-614 2121,-614"/>
<text text-anchor="start" x="1846" y="-598.4" font-family="DejaVu Sans" font-size="12.00"> </text>
<text text-anchor="start" x="1850" y="-598.4" font-family="DejaVu Sans" font-weight="bold" font-size="12.00">3.</text>
<text text-anchor="start" x="1863" y="-598.4" font-family="DejaVu Sans" font-size="12.00"> API&#45;шлюз і BFF → Оркестратор взаємодії</text>
<text text-anchor="start" x="1897.5" y="-586.4" font-family="DejaVu Sans" font-size="10.00">Позначає сесію як призупинену</text>
<text text-anchor="start" x="2065.5" y="-586.4" font-family="DejaVu Sans" font-size="12.00"> </text>
</g>
<!-- step_02&#45;&gt;step_03 -->
<g id="edge2" class="edge">
<title>step_02&#45;&gt;step_03</title>
<path fill="none" stroke="#7b8794" stroke-width="1.2" d="M1983.5,-635.97C1983.5,-631.32 1983.5,-626.23 1983.5,-621.29"/>
<polygon fill="#7b8794" stroke="#7b8794" stroke-width="1.2" points="1985.95,-621.22 1983.5,-614.22 1981.05,-621.22 1985.95,-621.22"/>
</g>
<!-- step_04 -->
<g id="node14" class="node">
<title>step_04</title>
<path fill="#ffffff" stroke="#486581" stroke-width="1.5" d="M2149,-554C2149,-554 1818,-554 1818,-554 1812,-554 1806,-548 1806,-542 1806,-542 1806,-528 1806,-528 1806,-522 1812,-516 1818,-516 1818,-516 2149,-516 2149,-516 2155,-516 2161,-522 2161,-528 2161,-528 2161,-542 2161,-542 2161,-548 2155,-554 2149,-554"/>
<text text-anchor="start" x="1818" y="-538.4" font-family="DejaVu Sans" font-size="12.00"> </text>
<text text-anchor="start" x="1822" y="-538.4" font-family="DejaVu Sans" font-weight="bold" font-size="12.00">4.</text>
<text text-anchor="start" x="1835" y="-538.4" font-family="DejaVu Sans" font-size="12.00"> Оркестратор взаємодії → Операційна база даних</text>
<text text-anchor="start" x="1841.5" y="-526.4" font-family="DejaVu Sans" font-size="10.00">Фіксує поточний крок і закріплену версію алгоритму</text>
<text text-anchor="start" x="2121.5" y="-526.4" font-family="DejaVu Sans" font-size="12.00"> </text>
</g>
<!-- step_03&#45;&gt;step_04 -->
<g id="edge3" class="edge">
<title>step_03&#45;&gt;step_04</title>
<path fill="none" stroke="#7b8794" stroke-width="1.2" d="M1983.5,-575.97C1983.5,-571.32 1983.5,-566.23 1983.5,-561.29"/>
<polygon fill="#7b8794" stroke="#7b8794" stroke-width="1.2" points="1985.95,-561.22 1983.5,-554.22 1981.05,-561.22 1985.95,-561.22"/>
</g>
<!-- step_05 -->
<g id="node15" class="node">
<title>step_05</title>
<path fill="#ffffff" stroke="#486581" stroke-width="1.5" d="M2165.5,-494C2165.5,-494 1801.5,-494 1801.5,-494 1795.5,-494 1789.5,-488 1789.5,-482 1789.5,-482 1789.5,-456 1789.5,-456 1789.5,-450 1795.5,-444 1801.5,-444 1801.5,-444 2165.5,-444 2165.5,-444 2171.5,-444 2177.5,-450 2177.5,-456 2177.5,-456 2177.5,-482 2177.5,-482 2177.5,-488 2171.5,-494 2165.5,-494"/>
<text text-anchor="start" x="1801.5" y="-478.4" font-family="DejaVu Sans" font-size="12.00"> </text>
<text text-anchor="start" x="1805.5" y="-478.4" font-family="DejaVu Sans" font-weight="bold" font-size="12.00">5.</text>
<text text-anchor="start" x="1818.5" y="-478.4" font-family="DejaVu Sans" font-size="12.00"> Оркестратор взаємодії → Сервіс завдань, нагадувань і</text>
<text text-anchor="start" x="1951.5" y="-466.4" font-family="DejaVu Sans" font-size="12.00">ескалацій</text>
<text text-anchor="start" x="1886.5" y="-454.4" font-family="DejaVu Sans" font-size="10.00">Створює ненав&#39;язливе нагадування</text>
<text text-anchor="start" x="2076.5" y="-454.4" font-family="DejaVu Sans" font-size="12.00"> </text>
</g>
<!-- step_04&#45;&gt;step_05 -->
<g id="edge4" class="edge">
<title>step_04&#45;&gt;step_05</title>
<path fill="none" stroke="#7b8794" stroke-width="1.2" d="M1983.5,-515.83C1983.5,-511.36 1983.5,-506.45 1983.5,-501.55"/>
<polygon fill="#7b8794" stroke="#7b8794" stroke-width="1.2" points="1985.95,-501.43 1983.5,-494.43 1981.05,-501.43 1985.95,-501.43"/>
</g>
<!-- step_06 -->
<g id="node16" class="node">
<title>step_06</title>
<path fill="#ffffff" stroke="#486581" stroke-width="1.5" d="M2087.5,-422C2087.5,-422 1879.5,-422 1879.5,-422 1873.5,-422 1867.5,-416 1867.5,-410 1867.5,-410 1867.5,-384 1867.5,-384 1867.5,-378 1873.5,-372 1879.5,-372 1879.5,-372 2087.5,-372 2087.5,-372 2093.5,-372 2099.5,-378 2099.5,-384 2099.5,-384 2099.5,-410 2099.5,-410 2099.5,-416 2093.5,-422 2087.5,-422"/>
<text text-anchor="start" x="1882.5" y="-406.4" font-family="DejaVu Sans" font-size="12.00"> </text>
<text text-anchor="start" x="1886.5" y="-406.4" font-family="DejaVu Sans" font-weight="bold" font-size="12.00">6.</text>
<text text-anchor="start" x="1899.5" y="-406.4" font-family="DejaVu Sans" font-size="12.00"> Сервіс завдань, нагадувань і</text>
<text text-anchor="start" x="1879.5" y="-394.4" font-family="DejaVu Sans" font-size="12.00">ескалацій → Інтеграційний шлюз</text>
<text text-anchor="start" x="1924" y="-382.4" font-family="DejaVu Sans" font-size="10.00">Передає нагадування</text>
<text text-anchor="start" x="2039" y="-382.4" font-family="DejaVu Sans" font-size="12.00"> </text>
</g>
<!-- step_05&#45;&gt;step_06 -->
<g id="edge5" class="edge">
<title>step_05&#45;&gt;step_06</title>
<path fill="none" stroke="#7b8794" stroke-width="1.2" d="M1983.5,-443.91C1983.5,-439.23 1983.5,-434.27 1983.5,-429.4"/>
<polygon fill="#7b8794" stroke="#7b8794" stroke-width="1.2" points="1985.95,-429.37 1983.5,-422.37 1981.05,-429.37 1985.95,-429.37"/>
</g>
<!-- step_07 -->
<g id="node17" class="node">
<title>step_07</title>
<path fill="#ffffff" stroke="#486581" stroke-width="1.5" d="M2142,-350C2142,-350 1825,-350 1825,-350 1819,-350 1813,-344 1813,-338 1813,-338 1813,-324 1813,-324 1813,-318 1819,-312 1825,-312 1825,-312 2142,-312 2142,-312 2148,-312 2154,-318 2154,-324 2154,-324 2154,-338 2154,-338 2154,-344 2148,-350 2142,-350"/>
<text text-anchor="start" x="1825" y="-334.4" font-family="DejaVu Sans" font-size="12.00"> </text>
<text text-anchor="start" x="1829" y="-334.4" font-family="DejaVu Sans" font-weight="bold" font-size="12.00">7.</text>
<text text-anchor="start" x="1842" y="-334.4" font-family="DejaVu Sans" font-size="12.00"> Інтеграційний шлюз → Провайдер повідомлень</text>
<text text-anchor="start" x="1882.5" y="-322.4" font-family="DejaVu Sans" font-size="10.00">Надсилає мінімізоване повідомлення</text>
<text text-anchor="start" x="2080.5" y="-322.4" font-family="DejaVu Sans" font-size="12.00"> </text>
</g>
<!-- step_06&#45;&gt;step_07 -->
<g id="edge6" class="edge">
<title>step_06&#45;&gt;step_07</title>
<path fill="none" stroke="#7b8794" stroke-width="1.2" d="M1983.5,-371.8C1983.5,-367.07 1983.5,-362.08 1983.5,-357.31"/>
<polygon fill="#7b8794" stroke="#7b8794" stroke-width="1.2" points="1985.95,-357.04 1983.5,-350.04 1981.05,-357.04 1985.95,-357.04"/>
</g>
<!-- step_08 -->
<g id="node18" class="node">
<title>step_08</title>
<path fill="#ffffff" stroke="#486581" stroke-width="1.5" d="M2092.5,-290C2092.5,-290 1874.5,-290 1874.5,-290 1868.5,-290 1862.5,-284 1862.5,-278 1862.5,-278 1862.5,-264 1862.5,-264 1862.5,-258 1868.5,-252 1874.5,-252 1874.5,-252 2092.5,-252 2092.5,-252 2098.5,-252 2104.5,-258 2104.5,-264 2104.5,-264 2104.5,-278 2104.5,-278 2104.5,-284 2098.5,-290 2092.5,-290"/>
<text text-anchor="start" x="1874.5" y="-274.4" font-family="DejaVu Sans" font-size="12.00"> </text>
<text text-anchor="start" x="1878.5" y="-274.4" font-family="DejaVu Sans" font-weight="bold" font-size="12.00">8.</text>
<text text-anchor="start" x="1891.5" y="-274.4" font-family="DejaVu Sans" font-size="12.00"> Пацієнт → Застосунок пацієнта</text>
<text text-anchor="start" x="1924.5" y="-262.4" font-family="DejaVu Sans" font-size="10.00">Повертається до сесії</text>
<text text-anchor="start" x="2038.5" y="-262.4" font-family="DejaVu Sans" font-size="12.00"> </text>
</g>
<!-- step_07&#45;&gt;step_08 -->
<g id="edge7" class="edge">
<title>step_07&#45;&gt;step_08</title>
<path fill="none" stroke="#7b8794" stroke-width="1.2" d="M1983.5,-311.97C1983.5,-307.32 1983.5,-302.23 1983.5,-297.29"/>
<polygon fill="#7b8794" stroke="#7b8794" stroke-width="1.2" points="1985.95,-297.22 1983.5,-290.22 1981.05,-297.22 1985.95,-297.22"/>
</g>
<!-- step_09 -->
<g id="node19" class="node">
<title>step_09</title>
<path fill="#ffffff" stroke="#486581" stroke-width="1.5" d="M2114,-230C2114,-230 1853,-230 1853,-230 1847,-230 1841,-224 1841,-218 1841,-218 1841,-204 1841,-204 1841,-198 1847,-192 1853,-192 1853,-192 2114,-192 2114,-192 2120,-192 2126,-198 2126,-204 2126,-204 2126,-218 2126,-218 2126,-224 2120,-230 2114,-230"/>
<text text-anchor="start" x="1853" y="-214.4" font-family="DejaVu Sans" font-size="12.00"> </text>
<text text-anchor="start" x="1857" y="-214.4" font-family="DejaVu Sans" font-weight="bold" font-size="12.00">9.</text>
<text text-anchor="start" x="1870" y="-214.4" font-family="DejaVu Sans" font-size="12.00"> Застосунок пацієнта → API&#45;шлюз і BFF</text>
<text text-anchor="start" x="1924.5" y="-202.4" font-family="DejaVu Sans" font-size="10.00">Запитує відновлення</text>
<text text-anchor="start" x="2038.5" y="-202.4" font-family="DejaVu Sans" font-size="12.00"> </text>
</g>
<!-- step_08&#45;&gt;step_09 -->
<g id="edge8" class="edge">
<title>step_08&#45;&gt;step_09</title>
<path fill="none" stroke="#7b8794" stroke-width="1.2" d="M1983.5,-251.97C1983.5,-247.32 1983.5,-242.23 1983.5,-237.29"/>
<polygon fill="#7b8794" stroke="#7b8794" stroke-width="1.2" points="1985.95,-237.22 1983.5,-230.22 1981.05,-237.22 1985.95,-237.22"/>
</g>
<!-- step_10 -->
<g id="node20" class="node">
<title>step_10</title>
<path fill="#ffffff" stroke="#486581" stroke-width="1.5" d="M2125.5,-170C2125.5,-170 1841.5,-170 1841.5,-170 1835.5,-170 1829.5,-164 1829.5,-158 1829.5,-158 1829.5,-144 1829.5,-144 1829.5,-138 1835.5,-132 1841.5,-132 1841.5,-132 2125.5,-132 2125.5,-132 2131.5,-132 2137.5,-138 2137.5,-144 2137.5,-144 2137.5,-158 2137.5,-158 2137.5,-164 2131.5,-170 2125.5,-170"/>
<text text-anchor="start" x="1841.5" y="-154.4" font-family="DejaVu Sans" font-size="12.00"> </text>
<text text-anchor="start" x="1845.5" y="-154.4" font-family="DejaVu Sans" font-weight="bold" font-size="12.00">10.</text>
<text text-anchor="start" x="1867.5" y="-154.4" font-family="DejaVu Sans" font-size="12.00"> API&#45;шлюз і BFF → Оркестратор взаємодії</text>
<text text-anchor="start" x="1846" y="-142.4" font-family="DejaVu Sans" font-size="10.00">Відновлює стан після повторної перевірки доступу</text>
<text text-anchor="start" x="2117" y="-142.4" font-family="DejaVu Sans" font-size="12.00"> </text>
</g>
<!-- step_09&#45;&gt;step_10 -->
<g id="edge9" class="edge">
<title>step_09&#45;&gt;step_10</title>
<path fill="none" stroke="#7b8794" stroke-width="1.2" d="M1983.5,-191.97C1983.5,-187.32 1983.5,-182.23 1983.5,-177.29"/>
<polygon fill="#7b8794" stroke="#7b8794" stroke-width="1.2" points="1985.95,-177.22 1983.5,-170.22 1981.05,-177.22 1985.95,-177.22"/>
</g>
<!-- step_11 -->
<g id="node21" class="node">
<title>step_11</title>
<path fill="#ffffff" stroke="#486581" stroke-width="1.5" d="M2167,-110C2167,-110 1800,-110 1800,-110 1794,-110 1788,-104 1788,-98 1788,-98 1788,-84 1788,-84 1788,-78 1794,-72 1800,-72 1800,-72 2167,-72 2167,-72 2173,-72 2179,-78 2179,-84 2179,-84 2179,-98 2179,-98 2179,-104 2173,-110 2167,-110"/>
<text text-anchor="start" x="1800" y="-94.4" font-family="DejaVu Sans" font-size="12.00"> </text>
<text text-anchor="start" x="1804" y="-94.4" font-family="DejaVu Sans" font-weight="bold" font-size="12.00">11.</text>
<text text-anchor="start" x="1826" y="-94.4" font-family="DejaVu Sans" font-size="12.00"> Оркестратор взаємодії → Кеш і короткоживучий стан</text>
<text text-anchor="start" x="1846" y="-82.4" font-family="DejaVu Sans" font-size="10.00">Відновлює короткоживучий контекст і блокування</text>
<text text-anchor="start" x="2117" y="-82.4" font-family="DejaVu Sans" font-size="12.00"> </text>
</g>
<!-- step_10&#45;&gt;step_11 -->
<g id="edge10" class="edge">
<title>step_10&#45;&gt;step_11</title>
<path fill="none" stroke="#7b8794" stroke-width="1.2" d="M1983.5,-131.97C1983.5,-127.32 1983.5,-122.23 1983.5,-117.29"/>
<polygon fill="#7b8794" stroke="#7b8794" stroke-width="1.2" points="1985.95,-117.22 1983.5,-110.22 1981.05,-117.22 1985.95,-117.22"/>
</g>
<!-- step_12 -->
<g id="node22" class="node">
<title>step_12</title>
<path fill="#ffffff" stroke="#486581" stroke-width="1.5" d="M2151,-50C2151,-50 1816,-50 1816,-50 1810,-50 1804,-44 1804,-38 1804,-38 1804,-12 1804,-12 1804,-6 1810,0 1816,0 1816,0 2151,0 2151,0 2157,0 2163,-6 2163,-12 2163,-12 2163,-38 2163,-38 2163,-44 2157,-50 2151,-50"/>
<text text-anchor="start" x="1816" y="-34.4" font-family="DejaVu Sans" font-size="12.00"> </text>
<text text-anchor="start" x="1820" y="-34.4" font-family="DejaVu Sans" font-weight="bold" font-size="12.00">12.</text>
<text text-anchor="start" x="1842" y="-34.4" font-family="DejaVu Sans" font-size="12.00"> Оркестратор взаємодії → Детермінований рушій</text>
<text text-anchor="start" x="1954.5" y="-22.4" font-family="DejaVu Sans" font-size="12.00">сценаріїв</text>
<text text-anchor="start" x="1866.5" y="-10.4" font-family="DejaVu Sans" font-size="10.00">Продовжує з чинного кроку тієї самої версії</text>
<text text-anchor="start" x="2096.5" y="-10.4" font-family="DejaVu Sans" font-size="12.00"> </text>
</g>
<!-- step_11&#45;&gt;step_12 -->
<g id="edge11" class="edge">
<title>step_11&#45;&gt;step_12</title>
<path fill="none" stroke="#7b8794" stroke-width="1.2" d="M1983.5,-71.83C1983.5,-67.36 1983.5,-62.45 1983.5,-57.55"/>
<polygon fill="#7b8794" stroke="#7b8794" stroke-width="1.2" points="1985.95,-57.43 1983.5,-50.43 1981.05,-57.43 1985.95,-57.43"/>
</g>
</g>
</svg>
