<?xml version="1.0" encoding="UTF-8" standalone="no"?>
<!DOCTYPE svg PUBLIC "-//W3C//DTD SVG 1.1//EN"
 "http://www.w3.org/Graphics/SVG/1.1/DTD/svg11.dtd">
<!-- Generated by graphviz version 2.42.4 (0)
 -->
<!-- Title: G Pages: 1 -->
<svg width="2535pt" height="888pt"
 viewBox="0.00 0.00 2535.40 888.40" xmlns="http://www.w3.org/2000/svg" xmlns:xlink="http://www.w3.org/1999/xlink">
<g id="graph0" class="graph" transform="scale(1 1) rotate(0) translate(25.2 863.2)">
<title>G</title>
<polygon fill="white" stroke="transparent" points="-25.2,25.2 -25.2,-863.2 2510.2,-863.2 2510.2,25.2 -25.2,25.2"/>
<text text-anchor="start" x="88" y="-823.8" font-family="DejaVu Sans" font-weight="bold" font-size="14.00">DYN.07 — Безпечне формування відповіді ШІ</text>
<text text-anchor="start" x="8" y="-812.2" font-family="DejaVu Sans" font-size="11.00">Формування допоміжної ШІ&#45;відповіді з мінімізацією даних, RAG, перевіркою структури та</text>
<text text-anchor="start" x="210.5" y="-801.2" font-family="DejaVu Sans" font-size="11.00">контролем людиною.</text>
<!-- p_n_f9075d486a51 -->
<g id="node1" class="node">
<title>p_n_f9075d486a51</title>
<path fill="#f4f7fa" stroke="#486581" d="M170,-793C170,-793 12,-793 12,-793 6,-793 0,-787 0,-781 0,-781 0,-769 0,-769 0,-763 6,-757 12,-757 12,-757 170,-757 170,-757 176,-757 182,-763 182,-769 182,-769 182,-781 182,-781 182,-787 176,-793 170,-793"/>
<text text-anchor="start" x="12" y="-772.9" font-family="DejaVu Sans" font-weight="bold" font-size="12.00" fill="#18324a">Оркестратор взаємодії</text>
</g>
<!-- p_n_0d0b5b8e203f -->
<g id="node2" class="node">
<title>p_n_0d0b5b8e203f</title>
<path fill="#f4f7fa" stroke="#486581" d="M366,-794C366,-794 212,-794 212,-794 206,-794 200,-788 200,-782 200,-782 200,-768 200,-768 200,-762 206,-756 212,-756 212,-756 366,-756 366,-756 372,-756 378,-762 378,-768 378,-768 378,-782 378,-782 378,-788 372,-794 366,-794"/>
<text text-anchor="start" x="212" y="-778.4" font-family="DejaVu Sans" font-weight="bold" font-size="12.00" fill="#18324a">Менеджер шаблонів і</text>
<text text-anchor="start" x="262.5" y="-766.4" font-family="DejaVu Sans" font-weight="bold" font-size="12.00" fill="#18324a">політик</text>
</g>
<!-- p_n_5e8091b94410 -->
<g id="node3" class="node">
<title>p_n_5e8091b94410</title>
<path fill="#f4f7fa" stroke="#486581" d="M542,-793C542,-793 408,-793 408,-793 402,-793 396,-787 396,-781 396,-781 396,-769 396,-769 396,-763 402,-757 408,-757 408,-757 542,-757 542,-757 548,-757 554,-763 554,-769 554,-769 554,-781 554,-781 554,-787 548,-793 542,-793"/>
<text text-anchor="start" x="408" y="-772.9" font-family="DejaVu Sans" font-weight="bold" font-size="12.00" fill="#18324a">Пошук у базі знань</text>
</g>
<!-- p_n_609849034d86 -->
<g id="node4" class="node">
<title>p_n_609849034d86</title>
<path fill="#edf2f7" stroke="#486581" d="M728.5,-794C728.5,-794 583.5,-794 583.5,-794 577.5,-794 571.5,-788 571.5,-782 571.5,-782 571.5,-768 571.5,-768 571.5,-762 577.5,-756 583.5,-756 583.5,-756 728.5,-756 728.5,-756 734.5,-756 740.5,-762 740.5,-768 740.5,-768 740.5,-782 740.5,-782 740.5,-788 734.5,-794 728.5,-794"/>
<text text-anchor="start" x="583.5" y="-778.4" font-family="DejaVu Sans" font-weight="bold" font-size="12.00" fill="#1a202c">База знань та індекс</text>
<text text-anchor="start" x="629.5" y="-766.4" font-family="DejaVu Sans" font-weight="bold" font-size="12.00" fill="#1a202c">пошуку</text>
</g>
<!-- p_n_5cb9e4723669 -->
<g id="node5" class="node">
<title>p_n_5cb9e4723669</title>
<path fill="#f4f7fa" stroke="#486581" d="M917,-794C917,-794 771,-794 771,-794 765,-794 759,-788 759,-782 759,-782 759,-768 759,-768 759,-762 765,-756 771,-756 771,-756 917,-756 917,-756 923,-756 929,-762 929,-768 929,-768 929,-782 929,-782 929,-788 923,-794 917,-794"/>
<text text-anchor="start" x="771" y="-778.4" font-family="DejaVu Sans" font-weight="bold" font-size="12.00" fill="#18324a">Клінічні та контентні</text>
<text text-anchor="start" x="799.5" y="-766.4" font-family="DejaVu Sans" font-weight="bold" font-size="12.00" fill="#18324a">запобіжники</text>
</g>
<!-- p_n_253c38667a70 -->
<g id="node6" class="node">
<title>p_n_253c38667a70</title>
<path fill="#f4f7fa" stroke="#486581" d="M1136.5,-793C1136.5,-793 959.5,-793 959.5,-793 953.5,-793 947.5,-787 947.5,-781 947.5,-781 947.5,-769 947.5,-769 947.5,-763 953.5,-757 959.5,-757 959.5,-757 1136.5,-757 1136.5,-757 1142.5,-757 1148.5,-763 1148.5,-769 1148.5,-769 1148.5,-781 1148.5,-781 1148.5,-787 1142.5,-793 1136.5,-793"/>
<text text-anchor="start" x="959.5" y="-772.9" font-family="DejaVu Sans" font-weight="bold" font-size="12.00" fill="#18324a">Маршрутизатор моделей</text>
</g>
<!-- p_n_c3da19e3d57e -->
<g id="node7" class="node">
<title>p_n_c3da19e3d57e</title>
<path fill="#6741d9" stroke="#486581" d="M1325,-794C1325,-794 1179,-794 1179,-794 1173,-794 1167,-788 1167,-782 1167,-782 1167,-768 1167,-768 1167,-762 1173,-756 1179,-756 1179,-756 1325,-756 1325,-756 1331,-756 1337,-762 1337,-768 1337,-768 1337,-782 1337,-782 1337,-788 1331,-794 1325,-794"/>
<text text-anchor="start" x="1179" y="-778.4" font-family="DejaVu Sans" font-weight="bold" font-size="12.00" fill="#ffffff">Реєстр і середовище</text>
<text text-anchor="start" x="1209" y="-766.4" font-family="DejaVu Sans" font-weight="bold" font-size="12.00" fill="#ffffff">моделей ШІ</text>
</g>
<!-- p_n_182578176bcb -->
<g id="node8" class="node">
<title>p_n_182578176bcb</title>
<path fill="#f4f7fa" stroke="#486581" d="M1536.5,-794C1536.5,-794 1367.5,-794 1367.5,-794 1361.5,-794 1355.5,-788 1355.5,-782 1355.5,-782 1355.5,-768 1355.5,-768 1355.5,-762 1361.5,-756 1367.5,-756 1367.5,-756 1536.5,-756 1536.5,-756 1542.5,-756 1548.5,-762 1548.5,-768 1548.5,-768 1548.5,-782 1548.5,-782 1548.5,-788 1542.5,-794 1536.5,-794"/>
<text text-anchor="start" x="1416" y="-778.4" font-family="DejaVu Sans" font-weight="bold" font-size="12.00" fill="#18324a">Валідатор</text>
<text text-anchor="start" x="1367.5" y="-766.4" font-family="DejaVu Sans" font-weight="bold" font-size="12.00" fill="#18324a">структурованого виходу</text>
</g>
<!-- p_n_4015bb97f100 -->
<g id="node9" class="node">
<title>p_n_4015bb97f100</title>
<path fill="#f4f7fa" stroke="#486581" d="M1697,-794C1697,-794 1579,-794 1579,-794 1573,-794 1567,-788 1567,-782 1567,-782 1567,-768 1567,-768 1567,-762 1573,-756 1579,-756 1579,-756 1697,-756 1697,-756 1703,-756 1709,-762 1709,-768 1709,-768 1709,-782 1709,-782 1709,-788 1703,-794 1697,-794"/>
<text text-anchor="start" x="1579" y="-778.4" font-family="DejaVu Sans" font-weight="bold" font-size="12.00" fill="#18324a">Компонувальник</text>
<text text-anchor="start" x="1606.5" y="-766.4" font-family="DejaVu Sans" font-weight="bold" font-size="12.00" fill="#18324a">відповіді</text>
</g>
<!-- p_n_1655e04d57aa -->
<g id="node10" class="node">
<title>p_n_1655e04d57aa</title>
<path fill="#f4f7fa" stroke="#486581" d="M1878.5,-793C1878.5,-793 1739.5,-793 1739.5,-793 1733.5,-793 1727.5,-787 1727.5,-781 1727.5,-781 1727.5,-769 1727.5,-769 1727.5,-763 1733.5,-757 1739.5,-757 1739.5,-757 1878.5,-757 1878.5,-757 1884.5,-757 1890.5,-763 1890.5,-769 1890.5,-769 1890.5,-781 1890.5,-781 1890.5,-787 1884.5,-793 1878.5,-793"/>
<text text-anchor="start" x="1739.5" y="-772.9" font-family="DejaVu Sans" font-weight="bold" font-size="12.00" fill="#18324a">Контроль людиною</text>
</g>
<!-- p_n_5f5685eeff97 -->
<g id="node11" class="node">
<title>p_n_5f5685eeff97</title>
<path fill="#4a5568" stroke="#486581" d="M2051.5,-794C2051.5,-794 1920.5,-794 1920.5,-794 1914.5,-794 1908.5,-788 1908.5,-782 1908.5,-782 1908.5,-768 1908.5,-768 1908.5,-762 1914.5,-756 1920.5,-756 1920.5,-756 2051.5,-756 2051.5,-756 2057.5,-756 2063.5,-762 2063.5,-768 2063.5,-768 2063.5,-782 2063.5,-782 2063.5,-788 2057.5,-794 2051.5,-794"/>
<text text-anchor="start" x="1928" y="-778.4" font-family="DejaVu Sans" font-weight="bold" font-size="12.00" fill="#ffffff">Сервіс аудиту та</text>
<text text-anchor="start" x="1920.5" y="-766.4" font-family="DejaVu Sans" font-weight="bold" font-size="12.00" fill="#ffffff">спостережуваності</text>
</g>
<!-- step_01 -->
<g id="node12" class="node">
<title>step_01</title>
<path fill="#ffffff" stroke="#486581" stroke-width="1.5" d="M2464,-794C2464,-794 2094,-794 2094,-794 2088,-794 2082,-788 2082,-782 2082,-782 2082,-768 2082,-768 2082,-762 2088,-756 2094,-756 2094,-756 2464,-756 2464,-756 2470,-756 2476,-762 2476,-768 2476,-768 2476,-782 2476,-782 2476,-788 2470,-794 2464,-794"/>
<text text-anchor="start" x="2094" y="-778.4" font-family="DejaVu Sans" font-size="12.00"> </text>
<text text-anchor="start" x="2098" y="-778.4" font-family="DejaVu Sans" font-weight="bold" font-size="12.00">1.</text>
<text text-anchor="start" x="2111" y="-778.4" font-family="DejaVu Sans" font-size="12.00"> Оркестратор взаємодії → Менеджер шаблонів і політик</text>
<text text-anchor="start" x="2145.5" y="-766.4" font-family="DejaVu Sans" font-size="10.00">Передає завдання, локаль і дозволений контекст</text>
<text text-anchor="start" x="2408.5" y="-766.4" font-family="DejaVu Sans" font-size="12.00"> </text>
</g>
<!-- step_02 -->
<g id="node13" class="node">
<title>step_02</title>
<path fill="#ffffff" stroke="#486581" stroke-width="1.5" d="M2452,-734C2452,-734 2106,-734 2106,-734 2100,-734 2094,-728 2094,-722 2094,-722 2094,-708 2094,-708 2094,-702 2100,-696 2106,-696 2106,-696 2452,-696 2452,-696 2458,-696 2464,-702 2464,-708 2464,-708 2464,-722 2464,-722 2464,-728 2458,-734 2452,-734"/>
<text text-anchor="start" x="2106" y="-718.4" font-family="DejaVu Sans" font-size="12.00"> </text>
<text text-anchor="start" x="2110" y="-718.4" font-family="DejaVu Sans" font-weight="bold" font-size="12.00">2.</text>
<text text-anchor="start" x="2123" y="-718.4" font-family="DejaVu Sans" font-size="12.00"> Менеджер шаблонів і політик → Пошук у базі знань</text>
<text text-anchor="start" x="2202.5" y="-706.4" font-family="DejaVu Sans" font-size="10.00">Запитує дозволені джерела</text>
<text text-anchor="start" x="2351.5" y="-706.4" font-family="DejaVu Sans" font-size="12.00"> </text>
</g>
<!-- step_01&#45;&gt;step_02 -->
<g id="edge1" class="edge">
<title>step_01&#45;&gt;step_02</title>
<path fill="none" stroke="#7b8794" stroke-width="1.2" d="M2279,-755.97C2279,-751.32 2279,-746.23 2279,-741.29"/>
<polygon fill="#7b8794" stroke="#7b8794" stroke-width="1.2" points="2281.45,-741.22 2279,-734.22 2276.55,-741.22 2281.45,-741.22"/>
</g>
<!-- step_03 -->
<g id="node14" class="node">
<title>step_03</title>
<path fill="#ffffff" stroke="#486581" stroke-width="1.5" d="M2450,-674C2450,-674 2108,-674 2108,-674 2102,-674 2096,-668 2096,-662 2096,-662 2096,-648 2096,-648 2096,-642 2102,-636 2108,-636 2108,-636 2450,-636 2450,-636 2456,-636 2462,-642 2462,-648 2462,-648 2462,-662 2462,-662 2462,-668 2456,-674 2450,-674"/>
<text text-anchor="start" x="2108" y="-658.4" font-family="DejaVu Sans" font-size="12.00"> </text>
<text text-anchor="start" x="2112" y="-658.4" font-family="DejaVu Sans" font-weight="bold" font-size="12.00">3.</text>
<text text-anchor="start" x="2125" y="-658.4" font-family="DejaVu Sans" font-size="12.00"> Пошук у базі знань → База знань та індекс пошуку</text>
<text text-anchor="start" x="2161" y="-646.4" font-family="DejaVu Sans" font-size="10.00">Отримує фрагменти з версією і посиланням</text>
<text text-anchor="start" x="2393" y="-646.4" font-family="DejaVu Sans" font-size="12.00"> </text>
</g>
<!-- step_02&#45;&gt;step_03 -->
<g id="edge2" class="edge">
<title>step_02&#45;&gt;step_03</title>
<path fill="none" stroke="#7b8794" stroke-width="1.2" d="M2279,-695.97C2279,-691.32 2279,-686.23 2279,-681.29"/>
<polygon fill="#7b8794" stroke="#7b8794" stroke-width="1.2" points="2281.45,-681.22 2279,-674.22 2276.55,-681.22 2281.45,-681.22"/>
</g>
<!-- step_04 -->
<g id="node15" class="node">
<title>step_04</title>
<path fill="#ffffff" stroke="#486581" stroke-width="1.5" d="M2456.5,-614C2456.5,-614 2101.5,-614 2101.5,-614 2095.5,-614 2089.5,-608 2089.5,-602 2089.5,-602 2089.5,-576 2089.5,-576 2089.5,-570 2095.5,-564 2101.5,-564 2101.5,-564 2456.5,-564 2456.5,-564 2462.5,-564 2468.5,-570 2468.5,-576 2468.5,-576 2468.5,-602 2468.5,-602 2468.5,-608 2462.5,-614 2456.5,-614"/>
<text text-anchor="start" x="2101.5" y="-598.4" font-family="DejaVu Sans" font-size="12.00"> </text>
<text text-anchor="start" x="2105.5" y="-598.4" font-family="DejaVu Sans" font-weight="bold" font-size="12.00">4.</text>
<text text-anchor="start" x="2118.5" y="-598.4" font-family="DejaVu Sans" font-size="12.00"> Менеджер шаблонів і політик → Клінічні та контентні</text>
<text text-anchor="start" x="2238.5" y="-586.4" font-family="DejaVu Sans" font-size="12.00">запобіжники</text>
<text text-anchor="start" x="2153.5" y="-574.4" font-family="DejaVu Sans" font-size="10.00">Застосовує клінічні та приватнісні обмеження</text>
<text text-anchor="start" x="2400.5" y="-574.4" font-family="DejaVu Sans" font-size="12.00"> </text>
</g>
<!-- step_03&#45;&gt;step_04 -->
<g id="edge3" class="edge">
<title>step_03&#45;&gt;step_04</title>
<path fill="none" stroke="#7b8794" stroke-width="1.2" d="M2279,-635.83C2279,-631.36 2279,-626.45 2279,-621.55"/>
<polygon fill="#7b8794" stroke="#7b8794" stroke-width="1.2" points="2281.45,-621.43 2279,-614.43 2276.55,-621.43 2281.45,-621.43"/>
</g>
<!-- step_05 -->
<g id="node16" class="node">
<title>step_05</title>
<path fill="#ffffff" stroke="#486581" stroke-width="1.5" d="M2408,-542C2408,-542 2150,-542 2150,-542 2144,-542 2138,-536 2138,-530 2138,-530 2138,-504 2138,-504 2138,-498 2144,-492 2150,-492 2150,-492 2408,-492 2408,-492 2414,-492 2420,-498 2420,-504 2420,-504 2420,-530 2420,-530 2420,-536 2414,-542 2408,-542"/>
<text text-anchor="start" x="2203.5" y="-526.4" font-family="DejaVu Sans" font-size="12.00"> </text>
<text text-anchor="start" x="2207.5" y="-526.4" font-family="DejaVu Sans" font-weight="bold" font-size="12.00">5.</text>
<text text-anchor="start" x="2220.5" y="-526.4" font-family="DejaVu Sans" font-size="12.00"> Клінічні та контентні</text>
<text text-anchor="start" x="2150" y="-514.4" font-family="DejaVu Sans" font-size="12.00">запобіжники → Маршрутизатор моделей</text>
<text text-anchor="start" x="2197" y="-502.4" font-family="DejaVu Sans" font-size="10.00">Дозволяє мінімізований запит</text>
<text text-anchor="start" x="2357" y="-502.4" font-family="DejaVu Sans" font-size="12.00"> </text>
</g>
<!-- step_04&#45;&gt;step_05 -->
<g id="edge4" class="edge">
<title>step_04&#45;&gt;step_05</title>
<path fill="none" stroke="#7b8794" stroke-width="1.2" d="M2279,-563.91C2279,-559.23 2279,-554.27 2279,-549.4"/>
<polygon fill="#7b8794" stroke="#7b8794" stroke-width="1.2" points="2281.45,-549.37 2279,-542.37 2276.55,-549.37 2281.45,-549.37"/>
</g>
<!-- step_06 -->
<g id="node17" class="node">
<title>step_06</title>
<path fill="#ffffff" stroke="#486581" stroke-width="1.5" d="M2438.5,-470C2438.5,-470 2119.5,-470 2119.5,-470 2113.5,-470 2107.5,-464 2107.5,-458 2107.5,-458 2107.5,-444 2107.5,-444 2107.5,-438 2113.5,-432 2119.5,-432 2119.5,-432 2438.5,-432 2438.5,-432 2444.5,-432 2450.5,-438 2450.5,-444 2450.5,-444 2450.5,-458 2450.5,-458 2450.5,-464 2444.5,-470 2438.5,-470"/>
<text text-anchor="start" x="2119.5" y="-454.4" font-family="DejaVu Sans" font-size="12.00"> </text>
<text text-anchor="start" x="2123.5" y="-454.4" font-family="DejaVu Sans" font-weight="bold" font-size="12.00">6.</text>
<text text-anchor="start" x="2136.5" y="-454.4" font-family="DejaVu Sans" font-size="12.00"> Пошук у базі знань → Маршрутизатор моделей</text>
<text text-anchor="start" x="2196.5" y="-442.4" font-family="DejaVu Sans" font-size="10.00">Передає дозволений контекст</text>
<text text-anchor="start" x="2357.5" y="-442.4" font-family="DejaVu Sans" font-size="12.00"> </text>
</g>
<!-- step_05&#45;&gt;step_06 -->
<g id="edge5" class="edge">
<title>step_05&#45;&gt;step_06</title>
<path fill="none" stroke="#7b8794" stroke-width="1.2" d="M2279,-491.8C2279,-487.07 2279,-482.08 2279,-477.31"/>
<polygon fill="#7b8794" stroke="#7b8794" stroke-width="1.2" points="2281.45,-477.04 2279,-470.04 2276.55,-477.04 2281.45,-477.04"/>
</g>
<!-- step_07 -->
<g id="node18" class="node">
<title>step_07</title>
<path fill="#ffffff" stroke="#486581" stroke-width="1.5" d="M2473,-410C2473,-410 2085,-410 2085,-410 2079,-410 2073,-404 2073,-398 2073,-398 2073,-372 2073,-372 2073,-366 2079,-360 2085,-360 2085,-360 2473,-360 2473,-360 2479,-360 2485,-366 2485,-372 2485,-372 2485,-398 2485,-398 2485,-404 2479,-410 2473,-410"/>
<text text-anchor="start" x="2085" y="-394.4" font-family="DejaVu Sans" font-size="12.00"> </text>
<text text-anchor="start" x="2089" y="-394.4" font-family="DejaVu Sans" font-weight="bold" font-size="12.00">7.</text>
<text text-anchor="start" x="2102" y="-394.4" font-family="DejaVu Sans" font-size="12.00"> Маршрутизатор моделей → Реєстр і середовище моделей</text>
<text text-anchor="start" x="2270.5" y="-382.4" font-family="DejaVu Sans" font-size="12.00">ШІ</text>
<text text-anchor="start" x="2146.5" y="-370.4" font-family="DejaVu Sans" font-size="10.00">Викликає обрану локальну або зовнішню модель</text>
<text text-anchor="start" x="2407.5" y="-370.4" font-family="DejaVu Sans" font-size="12.00"> </text>
</g>
<!-- step_06&#45;&gt;step_07 -->
<g id="edge6" class="edge">
<title>step_06&#45;&gt;step_07</title>
<path fill="none" stroke="#7b8794" stroke-width="1.2" d="M2279,-431.83C2279,-427.36 2279,-422.45 2279,-417.55"/>
<polygon fill="#7b8794" stroke="#7b8794" stroke-width="1.2" points="2281.45,-417.43 2279,-410.43 2276.55,-417.43 2281.45,-417.43"/>
</g>
<!-- step_08 -->
<g id="node19" class="node">
<title>step_08</title>
<path fill="#ffffff" stroke="#486581" stroke-width="1.5" d="M2465,-338C2465,-338 2093,-338 2093,-338 2087,-338 2081,-332 2081,-326 2081,-326 2081,-300 2081,-300 2081,-294 2087,-288 2093,-288 2093,-288 2465,-288 2465,-288 2471,-288 2477,-294 2477,-300 2477,-300 2477,-326 2477,-326 2477,-332 2471,-338 2465,-338"/>
<text text-anchor="start" x="2093" y="-322.4" font-family="DejaVu Sans" font-size="12.00"> </text>
<text text-anchor="start" x="2097" y="-322.4" font-family="DejaVu Sans" font-weight="bold" font-size="12.00">8.</text>
<text text-anchor="start" x="2110" y="-322.4" font-family="DejaVu Sans" font-size="12.00"> Маршрутизатор моделей → Валідатор структурованого</text>
<text text-anchor="start" x="2257" y="-310.4" font-family="DejaVu Sans" font-size="12.00">виходу</text>
<text text-anchor="start" x="2164" y="-298.4" font-family="DejaVu Sans" font-size="10.00">Передає відповідь на перевірку контракту</text>
<text text-anchor="start" x="2390" y="-298.4" font-family="DejaVu Sans" font-size="12.00"> </text>
</g>
<!-- step_07&#45;&gt;step_08 -->
<g id="edge7" class="edge">
<title>step_07&#45;&gt;step_08</title>
<path fill="none" stroke="#7b8794" stroke-width="1.2" d="M2279,-359.91C2279,-355.23 2279,-350.27 2279,-345.4"/>
<polygon fill="#7b8794" stroke="#7b8794" stroke-width="1.2" points="2281.45,-345.37 2279,-338.37 2276.55,-345.37 2281.45,-345.37"/>
</g>
<!-- step_09 -->
<g id="node20" class="node">
<title>step_09</title>
<path fill="#ffffff" stroke="#486581" stroke-width="1.5" d="M2381,-266C2381,-266 2177,-266 2177,-266 2171,-266 2165,-260 2165,-254 2165,-254 2165,-216 2165,-216 2165,-210 2171,-204 2177,-204 2177,-204 2381,-204 2381,-204 2387,-204 2393,-210 2393,-216 2393,-216 2393,-254 2393,-254 2393,-260 2387,-266 2381,-266"/>
<text text-anchor="start" x="2181.5" y="-250.4" font-family="DejaVu Sans" font-size="12.00"> </text>
<text text-anchor="start" x="2185.5" y="-250.4" font-family="DejaVu Sans" font-weight="bold" font-size="12.00">9.</text>
<text text-anchor="start" x="2198.5" y="-250.4" font-family="DejaVu Sans" font-size="12.00"> Валідатор структурованого</text>
<text text-anchor="start" x="2183.5" y="-238.4" font-family="DejaVu Sans" font-size="12.00">виходу → Клінічні та контентні</text>
<text text-anchor="start" x="2238.5" y="-226.4" font-family="DejaVu Sans" font-size="12.00">запобіжники</text>
<text text-anchor="start" x="2177" y="-214.4" font-family="DejaVu Sans" font-size="10.00">Виконує післягенераційний контроль</text>
<text text-anchor="start" x="2377" y="-214.4" font-family="DejaVu Sans" font-size="12.00"> </text>
</g>
<!-- step_08&#45;&gt;step_09 -->
<g id="edge8" class="edge">
<title>step_08&#45;&gt;step_09</title>
<path fill="none" stroke="#7b8794" stroke-width="1.2" d="M2279,-287.95C2279,-283.28 2279,-278.28 2279,-273.29"/>
<polygon fill="#7b8794" stroke="#7b8794" stroke-width="1.2" points="2281.45,-273.04 2279,-266.04 2276.55,-273.04 2281.45,-273.04"/>
</g>
<!-- step_10 -->
<g id="node21" class="node">
<title>step_10</title>
<path fill="#ffffff" stroke="#486581" stroke-width="1.5" d="M2409.5,-182C2409.5,-182 2148.5,-182 2148.5,-182 2142.5,-182 2136.5,-176 2136.5,-170 2136.5,-170 2136.5,-144 2136.5,-144 2136.5,-138 2142.5,-132 2148.5,-132 2148.5,-132 2409.5,-132 2409.5,-132 2415.5,-132 2421.5,-138 2421.5,-144 2421.5,-144 2421.5,-170 2421.5,-170 2421.5,-176 2415.5,-182 2409.5,-182"/>
<text text-anchor="start" x="2199" y="-166.4" font-family="DejaVu Sans" font-size="12.00"> </text>
<text text-anchor="start" x="2203" y="-166.4" font-family="DejaVu Sans" font-weight="bold" font-size="12.00">10.</text>
<text text-anchor="start" x="2225" y="-166.4" font-family="DejaVu Sans" font-size="12.00"> Клінічні та контентні</text>
<text text-anchor="start" x="2148.5" y="-154.4" font-family="DejaVu Sans" font-size="12.00">запобіжники → Компонувальник відповіді</text>
<text text-anchor="start" x="2191" y="-142.4" font-family="DejaVu Sans" font-size="10.00">Передає лише дозволений зміст</text>
<text text-anchor="start" x="2363" y="-142.4" font-family="DejaVu Sans" font-size="12.00"> </text>
</g>
<!-- step_09&#45;&gt;step_10 -->
<g id="edge9" class="edge">
<title>step_09&#45;&gt;step_10</title>
<path fill="none" stroke="#7b8794" stroke-width="1.2" d="M2279,-203.96C2279,-199.28 2279,-194.43 2279,-189.71"/>
<polygon fill="#7b8794" stroke="#7b8794" stroke-width="1.2" points="2281.45,-189.45 2279,-182.45 2276.55,-189.45 2281.45,-189.45"/>
</g>
<!-- step_11 -->
<g id="node22" class="node">
<title>step_11</title>
<path fill="#ffffff" stroke="#486581" stroke-width="1.5" d="M2444.5,-110C2444.5,-110 2113.5,-110 2113.5,-110 2107.5,-110 2101.5,-104 2101.5,-98 2101.5,-98 2101.5,-84 2101.5,-84 2101.5,-78 2107.5,-72 2113.5,-72 2113.5,-72 2444.5,-72 2444.5,-72 2450.5,-72 2456.5,-78 2456.5,-84 2456.5,-84 2456.5,-98 2456.5,-98 2456.5,-104 2450.5,-110 2444.5,-110"/>
<text text-anchor="start" x="2113.5" y="-94.4" font-family="DejaVu Sans" font-size="12.00"> </text>
<text text-anchor="start" x="2117.5" y="-94.4" font-family="DejaVu Sans" font-weight="bold" font-size="12.00">11.</text>
<text text-anchor="start" x="2139.5" y="-94.4" font-family="DejaVu Sans" font-size="12.00"> Компонувальник відповіді → Контроль людиною</text>
<text text-anchor="start" x="2186.5" y="-82.4" font-family="DejaVu Sans" font-size="10.00">Маркує клінічно значущий проєкт</text>
<text text-anchor="start" x="2367.5" y="-82.4" font-family="DejaVu Sans" font-size="12.00"> </text>
</g>
<!-- step_10&#45;&gt;step_11 -->
<g id="edge10" class="edge">
<title>step_10&#45;&gt;step_11</title>
<path fill="none" stroke="#7b8794" stroke-width="1.2" d="M2279,-131.8C2279,-127.07 2279,-122.08 2279,-117.31"/>
<polygon fill="#7b8794" stroke="#7b8794" stroke-width="1.2" points="2281.45,-117.04 2279,-110.04 2276.55,-117.04 2281.45,-117.04"/>
</g>
<!-- step_12 -->
<g id="node23" class="node">
<title>step_12</title>
<path fill="#ffffff" stroke="#486581" stroke-width="1.5" d="M2420,-50C2420,-50 2138,-50 2138,-50 2132,-50 2126,-44 2126,-38 2126,-38 2126,-12 2126,-12 2126,-6 2132,0 2138,0 2138,0 2420,0 2420,0 2426,0 2432,-6 2432,-12 2432,-12 2432,-38 2432,-38 2432,-44 2426,-50 2420,-50"/>
<text text-anchor="start" x="2142.5" y="-34.4" font-family="DejaVu Sans" font-size="12.00"> </text>
<text text-anchor="start" x="2146.5" y="-34.4" font-family="DejaVu Sans" font-weight="bold" font-size="12.00">12.</text>
<text text-anchor="start" x="2168.5" y="-34.4" font-family="DejaVu Sans" font-size="12.00"> Контроль людиною → Сервіс аудиту та</text>
<text text-anchor="start" x="2218.5" y="-22.4" font-family="DejaVu Sans" font-size="12.00">спостережуваності</text>
<text text-anchor="start" x="2138" y="-10.4" font-family="DejaVu Sans" font-size="10.00">Фіксує модель, шаблон, джерела й режим контролю</text>
<text text-anchor="start" x="2416" y="-10.4" font-family="DejaVu Sans" font-size="12.00"> </text>
</g>
<!-- step_11&#45;&gt;step_12 -->
<g id="edge11" class="edge">
<title>step_11&#45;&gt;step_12</title>
<path fill="none" stroke="#7b8794" stroke-width="1.2" d="M2279,-71.83C2279,-67.36 2279,-62.45 2279,-57.55"/>
<polygon fill="#7b8794" stroke="#7b8794" stroke-width="1.2" points="2281.45,-57.43 2279,-50.43 2276.55,-57.43 2281.45,-57.43"/>
</g>
</g>
</svg>
