<?xml version="1.0" encoding="UTF-8" standalone="no"?>
<!DOCTYPE svg PUBLIC "-//W3C//DTD SVG 1.1//EN"
 "http://www.w3.org/Graphics/SVG/1.1/DTD/svg11.dtd">
<!-- Generated by graphviz version 2.42.4 (0)
 -->
<!-- Title: G Pages: 1 -->
<svg width="1719pt" height="517pt"
 viewBox="0.00 0.00 1718.90 517.40" xmlns="http://www.w3.org/2000/svg" xmlns:xlink="http://www.w3.org/1999/xlink">
<g id="graph0" class="graph" transform="scale(1 1) rotate(0) translate(25.2 492.2)">
<title>G</title>
<polygon fill="white" stroke="transparent" points="-25.2,25.2 -25.2,-492.2 1693.7,-492.2 1693.7,25.2 -25.2,25.2"/>
<text text-anchor="start" x="57.5" y="-452.8" font-family="DejaVu Sans" font-weight="bold" font-size="14.00">DYN.03 — Збір скарг і адаптивна комунікація</text>
<text text-anchor="start" x="8" y="-441.2" font-family="DejaVu Sans" font-size="11.00">Збір скарг і потреб із адаптацією каналу та стилю без зміни клінічного змісту.</text>
<!-- p_n_b1b0b8de8a62 -->
<g id="node1" class="node">
<title>p_n_b1b0b8de8a62</title>
<path fill="#084c61" stroke="#486581" d="M65,-433C65,-433 12,-433 12,-433 6,-433 0,-427 0,-421 0,-421 0,-409 0,-409 0,-403 6,-397 12,-397 12,-397 65,-397 65,-397 71,-397 77,-403 77,-409 77,-409 77,-421 77,-421 77,-427 71,-433 65,-433"/>
<text text-anchor="start" x="12" y="-412.9" font-family="DejaVu Sans" font-weight="bold" font-size="12.00" fill="#ffffff">Пацієнт</text>
</g>
<!-- p_n_8a923be70a11 -->
<g id="node2" class="node">
<title>p_n_8a923be70a11</title>
<path fill="#0b7285" stroke="#486581" d="M249.5,-433C249.5,-433 107.5,-433 107.5,-433 101.5,-433 95.5,-427 95.5,-421 95.5,-421 95.5,-409 95.5,-409 95.5,-403 101.5,-397 107.5,-397 107.5,-397 249.5,-397 249.5,-397 255.5,-397 261.5,-403 261.5,-409 261.5,-409 261.5,-421 261.5,-421 261.5,-427 255.5,-433 249.5,-433"/>
<text text-anchor="start" x="107.5" y="-412.9" font-family="DejaVu Sans" font-weight="bold" font-size="12.00" fill="#ffffff">Застосунок пацієнта</text>
</g>
<!-- p_n_384146de0c5d -->
<g id="node3" class="node">
<title>p_n_384146de0c5d</title>
<path fill="#f4f7fa" stroke="#486581" d="M399,-433C399,-433 292,-433 292,-433 286,-433 280,-427 280,-421 280,-421 280,-409 280,-409 280,-403 286,-397 292,-397 292,-397 399,-397 399,-397 405,-397 411,-403 411,-409 411,-409 411,-421 411,-421 411,-427 405,-433 399,-433"/>
<text text-anchor="start" x="292" y="-412.9" font-family="DejaVu Sans" font-weight="bold" font-size="12.00" fill="#18324a">API&#45;шлюз і BFF</text>
</g>
<!-- p_n_f9075d486a51 -->
<g id="node4" class="node">
<title>p_n_f9075d486a51</title>
<path fill="#f4f7fa" stroke="#486581" d="M599.5,-433C599.5,-433 441.5,-433 441.5,-433 435.5,-433 429.5,-427 429.5,-421 429.5,-421 429.5,-409 429.5,-409 429.5,-403 435.5,-397 441.5,-397 441.5,-397 599.5,-397 599.5,-397 605.5,-397 611.5,-403 611.5,-409 611.5,-409 611.5,-421 611.5,-421 611.5,-427 605.5,-433 599.5,-433"/>
<text text-anchor="start" x="441.5" y="-412.9" font-family="DejaVu Sans" font-weight="bold" font-size="12.00" fill="#18324a">Оркестратор взаємодії</text>
</g>
<!-- p_n_4a71738c36d2 -->
<g id="node5" class="node">
<title>p_n_4a71738c36d2</title>
<path fill="#6741d9" stroke="#486581" d="M775,-434C775,-434 642,-434 642,-434 636,-434 630,-428 630,-422 630,-422 630,-408 630,-408 630,-402 636,-396 642,-396 642,-396 775,-396 775,-396 781,-396 787,-402 787,-408 787,-408 787,-422 787,-422 787,-428 781,-434 775,-434"/>
<text text-anchor="start" x="642" y="-418.4" font-family="DejaVu Sans" font-weight="bold" font-size="12.00" fill="#ffffff">Оркестратор ШІ та</text>
<text text-anchor="start" x="645.5" y="-406.4" font-family="DejaVu Sans" font-weight="bold" font-size="12.00" fill="#ffffff">контроль безпеки</text>
</g>
<!-- p_n_40b119007c9f -->
<g id="node6" class="node">
<title>p_n_40b119007c9f</title>
<path fill="#edf2f7" stroke="#486581" d="M941.5,-433C941.5,-433 817.5,-433 817.5,-433 811.5,-433 805.5,-427 805.5,-421 805.5,-421 805.5,-409 805.5,-409 805.5,-403 811.5,-397 817.5,-397 817.5,-397 941.5,-397 941.5,-397 947.5,-397 953.5,-403 953.5,-409 953.5,-409 953.5,-421 953.5,-421 953.5,-427 947.5,-433 941.5,-433"/>
<text text-anchor="start" x="817.5" y="-412.9" font-family="DejaVu Sans" font-weight="bold" font-size="12.00" fill="#1a202c">Клінічне сховище</text>
</g>
<!-- p_n_78e6a86e3609 -->
<g id="node7" class="node">
<title>p_n_78e6a86e3609</title>
<path fill="#2b6cb0" stroke="#486581" d="M1141.5,-434C1141.5,-434 983.5,-434 983.5,-434 977.5,-434 971.5,-428 971.5,-422 971.5,-422 971.5,-408 971.5,-408 971.5,-402 977.5,-396 983.5,-396 983.5,-396 1141.5,-396 1141.5,-396 1147.5,-396 1153.5,-402 1153.5,-408 1153.5,-408 1153.5,-422 1153.5,-422 1153.5,-428 1147.5,-434 1141.5,-434"/>
<text text-anchor="start" x="983.5" y="-418.4" font-family="DejaVu Sans" font-weight="bold" font-size="12.00" fill="#ffffff">Детермінований рушій</text>
<text text-anchor="start" x="1030.5" y="-406.4" font-family="DejaVu Sans" font-weight="bold" font-size="12.00" fill="#ffffff">сценаріїв</text>
</g>
<!-- p_n_5f5685eeff97 -->
<g id="node8" class="node">
<title>p_n_5f5685eeff97</title>
<path fill="#4a5568" stroke="#486581" d="M1315,-434C1315,-434 1184,-434 1184,-434 1178,-434 1172,-428 1172,-422 1172,-422 1172,-408 1172,-408 1172,-402 1178,-396 1184,-396 1184,-396 1315,-396 1315,-396 1321,-396 1327,-402 1327,-408 1327,-408 1327,-422 1327,-422 1327,-428 1321,-434 1315,-434"/>
<text text-anchor="start" x="1191.5" y="-418.4" font-family="DejaVu Sans" font-weight="bold" font-size="12.00" fill="#ffffff">Сервіс аудиту та</text>
<text text-anchor="start" x="1184" y="-406.4" font-family="DejaVu Sans" font-weight="bold" font-size="12.00" fill="#ffffff">спостережуваності</text>
</g>
<!-- step_01 -->
<g id="node9" class="node">
<title>step_01</title>
<path fill="#ffffff" stroke="#486581" stroke-width="1.5" d="M1589.5,-434C1589.5,-434 1357.5,-434 1357.5,-434 1351.5,-434 1345.5,-428 1345.5,-422 1345.5,-422 1345.5,-408 1345.5,-408 1345.5,-402 1351.5,-396 1357.5,-396 1357.5,-396 1589.5,-396 1589.5,-396 1595.5,-396 1601.5,-402 1601.5,-408 1601.5,-408 1601.5,-422 1601.5,-422 1601.5,-428 1595.5,-434 1589.5,-434"/>
<text text-anchor="start" x="1364.5" y="-418.4" font-family="DejaVu Sans" font-size="12.00"> </text>
<text text-anchor="start" x="1368.5" y="-418.4" font-family="DejaVu Sans" font-weight="bold" font-size="12.00">1.</text>
<text text-anchor="start" x="1381.5" y="-418.4" font-family="DejaVu Sans" font-size="12.00"> Пацієнт → Застосунок пацієнта</text>
<text text-anchor="start" x="1357.5" y="-406.4" font-family="DejaVu Sans" font-size="10.00">Описує скарги, потреби та мету звернення</text>
<text text-anchor="start" x="1585.5" y="-406.4" font-family="DejaVu Sans" font-size="12.00"> </text>
</g>
<!-- step_02 -->
<g id="node10" class="node">
<title>step_02</title>
<path fill="#ffffff" stroke="#486581" stroke-width="1.5" d="M1604,-374C1604,-374 1343,-374 1343,-374 1337,-374 1331,-368 1331,-362 1331,-362 1331,-348 1331,-348 1331,-342 1337,-336 1343,-336 1343,-336 1604,-336 1604,-336 1610,-336 1616,-342 1616,-348 1616,-348 1616,-362 1616,-362 1616,-368 1610,-374 1604,-374"/>
<text text-anchor="start" x="1343" y="-358.4" font-family="DejaVu Sans" font-size="12.00"> </text>
<text text-anchor="start" x="1347" y="-358.4" font-family="DejaVu Sans" font-weight="bold" font-size="12.00">2.</text>
<text text-anchor="start" x="1360" y="-358.4" font-family="DejaVu Sans" font-size="12.00"> Застосунок пацієнта → API&#45;шлюз і BFF</text>
<text text-anchor="start" x="1345.5" y="-346.4" font-family="DejaVu Sans" font-size="10.00">Передає текст, транскрипт або медіа за згодою</text>
<text text-anchor="start" x="1597.5" y="-346.4" font-family="DejaVu Sans" font-size="12.00"> </text>
</g>
<!-- step_01&#45;&gt;step_02 -->
<g id="edge1" class="edge">
<title>step_01&#45;&gt;step_02</title>
<path fill="none" stroke="#7b8794" stroke-width="1.2" d="M1473.5,-395.97C1473.5,-391.32 1473.5,-386.23 1473.5,-381.29"/>
<polygon fill="#7b8794" stroke="#7b8794" stroke-width="1.2" points="1475.95,-381.22 1473.5,-374.22 1471.05,-381.22 1475.95,-381.22"/>
</g>
<!-- step_03 -->
<g id="node11" class="node">
<title>step_03</title>
<path fill="#ffffff" stroke="#486581" stroke-width="1.5" d="M1611,-314C1611,-314 1336,-314 1336,-314 1330,-314 1324,-308 1324,-302 1324,-302 1324,-288 1324,-288 1324,-282 1330,-276 1336,-276 1336,-276 1611,-276 1611,-276 1617,-276 1623,-282 1623,-288 1623,-288 1623,-302 1623,-302 1623,-308 1617,-314 1611,-314"/>
<text text-anchor="start" x="1336" y="-298.4" font-family="DejaVu Sans" font-size="12.00"> </text>
<text text-anchor="start" x="1340" y="-298.4" font-family="DejaVu Sans" font-weight="bold" font-size="12.00">3.</text>
<text text-anchor="start" x="1353" y="-298.4" font-family="DejaVu Sans" font-size="12.00"> API&#45;шлюз і BFF → Оркестратор взаємодії</text>
<text text-anchor="start" x="1405.5" y="-286.4" font-family="DejaVu Sans" font-size="10.00">Створює подію введення</text>
<text text-anchor="start" x="1537.5" y="-286.4" font-family="DejaVu Sans" font-size="12.00"> </text>
</g>
<!-- step_02&#45;&gt;step_03 -->
<g id="edge2" class="edge">
<title>step_02&#45;&gt;step_03</title>
<path fill="none" stroke="#7b8794" stroke-width="1.2" d="M1473.5,-335.97C1473.5,-331.32 1473.5,-326.23 1473.5,-321.29"/>
<polygon fill="#7b8794" stroke="#7b8794" stroke-width="1.2" points="1475.95,-321.22 1473.5,-314.22 1471.05,-321.22 1475.95,-321.22"/>
</g>
<!-- step_04 -->
<g id="node12" class="node">
<title>step_04</title>
<path fill="#ffffff" stroke="#486581" stroke-width="1.5" d="M1656.5,-254C1656.5,-254 1290.5,-254 1290.5,-254 1284.5,-254 1278.5,-248 1278.5,-242 1278.5,-242 1278.5,-216 1278.5,-216 1278.5,-210 1284.5,-204 1290.5,-204 1290.5,-204 1656.5,-204 1656.5,-204 1662.5,-204 1668.5,-210 1668.5,-216 1668.5,-216 1668.5,-242 1668.5,-242 1668.5,-248 1662.5,-254 1656.5,-254"/>
<text text-anchor="start" x="1290.5" y="-238.4" font-family="DejaVu Sans" font-size="12.00"> </text>
<text text-anchor="start" x="1294.5" y="-238.4" font-family="DejaVu Sans" font-weight="bold" font-size="12.00">4.</text>
<text text-anchor="start" x="1307.5" y="-238.4" font-family="DejaVu Sans" font-size="12.00"> Оркестратор взаємодії → Оркестратор ШІ та контроль</text>
<text text-anchor="start" x="1447.5" y="-226.4" font-family="DejaVu Sans" font-size="12.00">безпеки</text>
<text text-anchor="start" x="1325.5" y="-214.4" font-family="DejaVu Sans" font-size="10.00">Структурує вільний текст і визначає невизначені поля</text>
<text text-anchor="start" x="1617.5" y="-214.4" font-family="DejaVu Sans" font-size="12.00"> </text>
</g>
<!-- step_03&#45;&gt;step_04 -->
<g id="edge3" class="edge">
<title>step_03&#45;&gt;step_04</title>
<path fill="none" stroke="#7b8794" stroke-width="1.2" d="M1473.5,-275.83C1473.5,-271.36 1473.5,-266.45 1473.5,-261.55"/>
<polygon fill="#7b8794" stroke="#7b8794" stroke-width="1.2" points="1475.95,-261.43 1473.5,-254.43 1471.05,-261.43 1475.95,-261.43"/>
</g>
<!-- step_05 -->
<g id="node13" class="node">
<title>step_05</title>
<path fill="#ffffff" stroke="#486581" stroke-width="1.5" d="M1619.5,-182C1619.5,-182 1327.5,-182 1327.5,-182 1321.5,-182 1315.5,-176 1315.5,-170 1315.5,-170 1315.5,-156 1315.5,-156 1315.5,-150 1321.5,-144 1327.5,-144 1327.5,-144 1619.5,-144 1619.5,-144 1625.5,-144 1631.5,-150 1631.5,-156 1631.5,-156 1631.5,-170 1631.5,-170 1631.5,-176 1625.5,-182 1619.5,-182"/>
<text text-anchor="start" x="1327.5" y="-166.4" font-family="DejaVu Sans" font-size="12.00"> </text>
<text text-anchor="start" x="1331.5" y="-166.4" font-family="DejaVu Sans" font-weight="bold" font-size="12.00">5.</text>
<text text-anchor="start" x="1344.5" y="-166.4" font-family="DejaVu Sans" font-size="12.00"> Оркестратор взаємодії → Клінічне сховище</text>
<text text-anchor="start" x="1327.5" y="-154.4" font-family="DejaVu Sans" font-size="10.00">Зберігає підтверджені структуровані дані та джерело</text>
<text text-anchor="start" x="1615.5" y="-154.4" font-family="DejaVu Sans" font-size="12.00"> </text>
</g>
<!-- step_04&#45;&gt;step_05 -->
<g id="edge4" class="edge">
<title>step_04&#45;&gt;step_05</title>
<path fill="none" stroke="#7b8794" stroke-width="1.2" d="M1473.5,-203.8C1473.5,-199.07 1473.5,-194.08 1473.5,-189.31"/>
<polygon fill="#7b8794" stroke="#7b8794" stroke-width="1.2" points="1475.95,-189.04 1473.5,-182.04 1471.05,-189.04 1475.95,-189.04"/>
</g>
<!-- step_06 -->
<g id="node14" class="node">
<title>step_06</title>
<path fill="#ffffff" stroke="#486581" stroke-width="1.5" d="M1636.5,-122C1636.5,-122 1310.5,-122 1310.5,-122 1304.5,-122 1298.5,-116 1298.5,-110 1298.5,-110 1298.5,-84 1298.5,-84 1298.5,-78 1304.5,-72 1310.5,-72 1310.5,-72 1636.5,-72 1636.5,-72 1642.5,-72 1648.5,-78 1648.5,-84 1648.5,-84 1648.5,-110 1648.5,-110 1648.5,-116 1642.5,-122 1636.5,-122"/>
<text text-anchor="start" x="1310.5" y="-106.4" font-family="DejaVu Sans" font-size="12.00"> </text>
<text text-anchor="start" x="1314.5" y="-106.4" font-family="DejaVu Sans" font-weight="bold" font-size="12.00">6.</text>
<text text-anchor="start" x="1327.5" y="-106.4" font-family="DejaVu Sans" font-size="12.00"> Оркестратор взаємодії → Детермінований рушій</text>
<text text-anchor="start" x="1444.5" y="-94.4" font-family="DejaVu Sans" font-size="12.00">сценаріїв</text>
<text text-anchor="start" x="1334" y="-82.4" font-family="DejaVu Sans" font-size="10.00">Отримує наступне уточнення або формальний крок</text>
<text text-anchor="start" x="1609" y="-82.4" font-family="DejaVu Sans" font-size="12.00"> </text>
</g>
<!-- step_05&#45;&gt;step_06 -->
<g id="edge5" class="edge">
<title>step_05&#45;&gt;step_06</title>
<path fill="none" stroke="#7b8794" stroke-width="1.2" d="M1473.5,-143.83C1473.5,-139.36 1473.5,-134.45 1473.5,-129.55"/>
<polygon fill="#7b8794" stroke="#7b8794" stroke-width="1.2" points="1475.95,-129.43 1473.5,-122.43 1471.05,-129.43 1475.95,-129.43"/>
</g>
<!-- step_07 -->
<g id="node15" class="node">
<title>step_07</title>
<path fill="#ffffff" stroke="#486581" stroke-width="1.5" d="M1618.5,-50C1618.5,-50 1328.5,-50 1328.5,-50 1322.5,-50 1316.5,-44 1316.5,-38 1316.5,-38 1316.5,-12 1316.5,-12 1316.5,-6 1322.5,0 1328.5,0 1328.5,0 1618.5,0 1618.5,0 1624.5,0 1630.5,-6 1630.5,-12 1630.5,-12 1630.5,-38 1630.5,-38 1630.5,-44 1624.5,-50 1618.5,-50"/>
<text text-anchor="start" x="1329.5" y="-34.4" font-family="DejaVu Sans" font-size="12.00"> </text>
<text text-anchor="start" x="1333.5" y="-34.4" font-family="DejaVu Sans" font-weight="bold" font-size="12.00">7.</text>
<text text-anchor="start" x="1346.5" y="-34.4" font-family="DejaVu Sans" font-size="12.00"> Оркестратор взаємодії → Сервіс аудиту та</text>
<text text-anchor="start" x="1413" y="-22.4" font-family="DejaVu Sans" font-size="12.00">спостережуваності</text>
<text text-anchor="start" x="1328.5" y="-10.4" font-family="DejaVu Sans" font-size="10.00">Фіксує канал, політику стилю та походження репліки</text>
<text text-anchor="start" x="1614.5" y="-10.4" font-family="DejaVu Sans" font-size="12.00"> </text>
</g>
<!-- step_06&#45;&gt;step_07 -->
<g id="edge6" class="edge">
<title>step_06&#45;&gt;step_07</title>
<path fill="none" stroke="#7b8794" stroke-width="1.2" d="M1473.5,-71.91C1473.5,-67.23 1473.5,-62.27 1473.5,-57.4"/>
<polygon fill="#7b8794" stroke="#7b8794" stroke-width="1.2" points="1475.95,-57.37 1473.5,-50.37 1471.05,-57.37 1475.95,-57.37"/>
</g>
</g>
</svg>
