<?xml version="1.0" encoding="UTF-8" standalone="no"?>
<!DOCTYPE svg PUBLIC "-//W3C//DTD SVG 1.1//EN"
 "http://www.w3.org/Graphics/SVG/1.1/DTD/svg11.dtd">
<!-- Generated by graphviz version 2.42.4 (0)
 -->
<!-- Title: G Pages: 1 -->
<svg width="2680pt" height="900pt"
 viewBox="0.00 0.00 2680.40 900.40" xmlns="http://www.w3.org/2000/svg" xmlns:xlink="http://www.w3.org/1999/xlink">
<g id="graph0" class="graph" transform="scale(1 1) rotate(0) translate(25.2 875.2)">
<title>G</title>
<polygon fill="white" stroke="transparent" points="-25.2,25.2 -25.2,-875.2 2655.2,-875.2 2655.2,25.2 -25.2,25.2"/>
<text text-anchor="start" x="48" y="-835.8" font-family="DejaVu Sans" font-weight="bold" font-size="14.00">DYN.01 — Універсальний сценарій взаємодії з пацієнтом</text>
<text text-anchor="start" x="8" y="-824.2" font-family="DejaVu Sans" font-size="11.00">Універсальний наскрізний процес виконання будь&#45;якого формалізованого психіатричного</text>
<text text-anchor="start" x="248" y="-813.2" font-family="DejaVu Sans" font-size="11.00">сценарію.</text>
<!-- p_n_b1b0b8de8a62 -->
<g id="node1" class="node">
<title>p_n_b1b0b8de8a62</title>
<path fill="#084c61" stroke="#486581" d="M65,-805C65,-805 12,-805 12,-805 6,-805 0,-799 0,-793 0,-793 0,-781 0,-781 0,-775 6,-769 12,-769 12,-769 65,-769 65,-769 71,-769 77,-775 77,-781 77,-781 77,-793 77,-793 77,-799 71,-805 65,-805"/>
<text text-anchor="start" x="12" y="-784.9" font-family="DejaVu Sans" font-weight="bold" font-size="12.00" fill="#ffffff">Пацієнт</text>
</g>
<!-- p_n_8a923be70a11 -->
<g id="node2" class="node">
<title>p_n_8a923be70a11</title>
<path fill="#0b7285" stroke="#486581" d="M249.5,-805C249.5,-805 107.5,-805 107.5,-805 101.5,-805 95.5,-799 95.5,-793 95.5,-793 95.5,-781 95.5,-781 95.5,-775 101.5,-769 107.5,-769 107.5,-769 249.5,-769 249.5,-769 255.5,-769 261.5,-775 261.5,-781 261.5,-781 261.5,-793 261.5,-793 261.5,-799 255.5,-805 249.5,-805"/>
<text text-anchor="start" x="107.5" y="-784.9" font-family="DejaVu Sans" font-weight="bold" font-size="12.00" fill="#ffffff">Застосунок пацієнта</text>
</g>
<!-- p_n_384146de0c5d -->
<g id="node3" class="node">
<title>p_n_384146de0c5d</title>
<path fill="#f4f7fa" stroke="#486581" d="M399,-805C399,-805 292,-805 292,-805 286,-805 280,-799 280,-793 280,-793 280,-781 280,-781 280,-775 286,-769 292,-769 292,-769 399,-769 399,-769 405,-769 411,-775 411,-781 411,-781 411,-793 411,-793 411,-799 405,-805 399,-805"/>
<text text-anchor="start" x="292" y="-784.9" font-family="DejaVu Sans" font-weight="bold" font-size="12.00" fill="#18324a">API&#45;шлюз і BFF</text>
</g>
<!-- p_n_dcb3f876e224 -->
<g id="node4" class="node">
<title>p_n_dcb3f876e224</title>
<path fill="#f4f7fa" stroke="#486581" d="M581.5,-806C581.5,-806 441.5,-806 441.5,-806 435.5,-806 429.5,-800 429.5,-794 429.5,-794 429.5,-780 429.5,-780 429.5,-774 435.5,-768 441.5,-768 441.5,-768 581.5,-768 581.5,-768 587.5,-768 593.5,-774 593.5,-780 593.5,-780 593.5,-794 593.5,-794 593.5,-800 587.5,-806 581.5,-806"/>
<text text-anchor="start" x="441.5" y="-790.4" font-family="DejaVu Sans" font-weight="bold" font-size="12.00" fill="#18324a">Сервіс ідентичності,</text>
<text text-anchor="start" x="456.5" y="-778.4" font-family="DejaVu Sans" font-weight="bold" font-size="12.00" fill="#18324a">доступу та згод</text>
</g>
<!-- p_n_f9075d486a51 -->
<g id="node5" class="node">
<title>p_n_f9075d486a51</title>
<path fill="#f4f7fa" stroke="#486581" d="M781.5,-805C781.5,-805 623.5,-805 623.5,-805 617.5,-805 611.5,-799 611.5,-793 611.5,-793 611.5,-781 611.5,-781 611.5,-775 617.5,-769 623.5,-769 623.5,-769 781.5,-769 781.5,-769 787.5,-769 793.5,-775 793.5,-781 793.5,-781 793.5,-793 793.5,-793 793.5,-799 787.5,-805 781.5,-805"/>
<text text-anchor="start" x="623.5" y="-784.9" font-family="DejaVu Sans" font-weight="bold" font-size="12.00" fill="#18324a">Оркестратор взаємодії</text>
</g>
<!-- p_n_78e6a86e3609 -->
<g id="node6" class="node">
<title>p_n_78e6a86e3609</title>
<path fill="#2b6cb0" stroke="#486581" d="M981.5,-806C981.5,-806 823.5,-806 823.5,-806 817.5,-806 811.5,-800 811.5,-794 811.5,-794 811.5,-780 811.5,-780 811.5,-774 817.5,-768 823.5,-768 823.5,-768 981.5,-768 981.5,-768 987.5,-768 993.5,-774 993.5,-780 993.5,-780 993.5,-794 993.5,-794 993.5,-800 987.5,-806 981.5,-806"/>
<text text-anchor="start" x="823.5" y="-790.4" font-family="DejaVu Sans" font-weight="bold" font-size="12.00" fill="#ffffff">Детермінований рушій</text>
<text text-anchor="start" x="870.5" y="-778.4" font-family="DejaVu Sans" font-weight="bold" font-size="12.00" fill="#ffffff">сценаріїв</text>
</g>
<!-- p_n_ace1c56edb4b -->
<g id="node7" class="node">
<title>p_n_ace1c56edb4b</title>
<path fill="#edf2f7" stroke="#486581" d="M1151,-805C1151,-805 1024,-805 1024,-805 1018,-805 1012,-799 1012,-793 1012,-793 1012,-781 1012,-781 1012,-775 1018,-769 1024,-769 1024,-769 1151,-769 1151,-769 1157,-769 1163,-775 1163,-781 1163,-781 1163,-793 1163,-793 1163,-799 1157,-805 1151,-805"/>
<text text-anchor="start" x="1024" y="-784.9" font-family="DejaVu Sans" font-weight="bold" font-size="12.00" fill="#1a202c">Реєстр алгоритмів</text>
</g>
<!-- p_n_4a71738c36d2 -->
<g id="node8" class="node">
<title>p_n_4a71738c36d2</title>
<path fill="#6741d9" stroke="#486581" d="M1326,-806C1326,-806 1193,-806 1193,-806 1187,-806 1181,-800 1181,-794 1181,-794 1181,-780 1181,-780 1181,-774 1187,-768 1193,-768 1193,-768 1326,-768 1326,-768 1332,-768 1338,-774 1338,-780 1338,-780 1338,-794 1338,-794 1338,-800 1332,-806 1326,-806"/>
<text text-anchor="start" x="1193" y="-790.4" font-family="DejaVu Sans" font-weight="bold" font-size="12.00" fill="#ffffff">Оркестратор ШІ та</text>
<text text-anchor="start" x="1196.5" y="-778.4" font-family="DejaVu Sans" font-weight="bold" font-size="12.00" fill="#ffffff">контроль безпеки</text>
</g>
<!-- p_n_40b119007c9f -->
<g id="node9" class="node">
<title>p_n_40b119007c9f</title>
<path fill="#edf2f7" stroke="#486581" d="M1492.5,-805C1492.5,-805 1368.5,-805 1368.5,-805 1362.5,-805 1356.5,-799 1356.5,-793 1356.5,-793 1356.5,-781 1356.5,-781 1356.5,-775 1362.5,-769 1368.5,-769 1368.5,-769 1492.5,-769 1492.5,-769 1498.5,-769 1504.5,-775 1504.5,-781 1504.5,-781 1504.5,-793 1504.5,-793 1504.5,-799 1498.5,-805 1492.5,-805"/>
<text text-anchor="start" x="1368.5" y="-784.9" font-family="DejaVu Sans" font-weight="bold" font-size="12.00" fill="#1a202c">Клінічне сховище</text>
</g>
<!-- p_n_c210e7db8afd -->
<g id="node10" class="node">
<title>p_n_c210e7db8afd</title>
<path fill="#2b6cb0" stroke="#486581" d="M1654.5,-806C1654.5,-806 1534.5,-806 1534.5,-806 1528.5,-806 1522.5,-800 1522.5,-794 1522.5,-794 1522.5,-780 1522.5,-780 1522.5,-774 1528.5,-768 1534.5,-768 1534.5,-768 1654.5,-768 1654.5,-768 1660.5,-768 1666.5,-774 1666.5,-780 1666.5,-780 1666.5,-794 1666.5,-794 1666.5,-800 1660.5,-806 1654.5,-806"/>
<text text-anchor="start" x="1534.5" y="-790.4" font-family="DejaVu Sans" font-weight="bold" font-size="12.00" fill="#ffffff">Сервіс підтримки</text>
<text text-anchor="start" x="1535" y="-778.4" font-family="DejaVu Sans" font-weight="bold" font-size="12.00" fill="#ffffff">клінічних рішень</text>
</g>
<!-- p_n_eb4c5110ae64 -->
<g id="node11" class="node">
<title>p_n_eb4c5110ae64</title>
<path fill="#b7791f" stroke="#486581" d="M1860,-806C1860,-806 1697,-806 1697,-806 1691,-806 1685,-800 1685,-794 1685,-794 1685,-780 1685,-780 1685,-774 1691,-768 1697,-768 1697,-768 1860,-768 1860,-768 1866,-768 1872,-774 1872,-780 1872,-780 1872,-794 1872,-794 1872,-800 1866,-806 1860,-806"/>
<text text-anchor="start" x="1724" y="-790.4" font-family="DejaVu Sans" font-weight="bold" font-size="12.00" fill="#ffffff">Сервіс завдань,</text>
<text text-anchor="start" x="1697" y="-778.4" font-family="DejaVu Sans" font-weight="bold" font-size="12.00" fill="#ffffff">нагадувань і ескалацій</text>
</g>
<!-- p_n_b10c10dbc143 -->
<g id="node12" class="node">
<title>p_n_b10c10dbc143</title>
<path fill="#3b5bdb" stroke="#486581" d="M2044.5,-805C2044.5,-805 1902.5,-805 1902.5,-805 1896.5,-805 1890.5,-799 1890.5,-793 1890.5,-793 1890.5,-781 1890.5,-781 1890.5,-775 1896.5,-769 1902.5,-769 1902.5,-769 2044.5,-769 2044.5,-769 2050.5,-769 2056.5,-775 2056.5,-781 2056.5,-781 2056.5,-793 2056.5,-793 2056.5,-799 2050.5,-805 2044.5,-805"/>
<text text-anchor="start" x="1902.5" y="-784.9" font-family="DejaVu Sans" font-weight="bold" font-size="12.00" fill="#ffffff">Інтеграційний шлюз</text>
</g>
<!-- p_n_dff60b2c2060 -->
<g id="node13" class="node">
<title>p_n_dff60b2c2060</title>
<path fill="#e9eef4" stroke="#486581" d="M2256.5,-805C2256.5,-805 2086.5,-805 2086.5,-805 2080.5,-805 2074.5,-799 2074.5,-793 2074.5,-793 2074.5,-781 2074.5,-781 2074.5,-775 2080.5,-769 2086.5,-769 2086.5,-769 2256.5,-769 2256.5,-769 2262.5,-769 2268.5,-775 2268.5,-781 2268.5,-781 2268.5,-793 2268.5,-793 2268.5,-799 2262.5,-805 2256.5,-805"/>
<text text-anchor="start" x="2086.5" y="-784.9" font-family="DejaVu Sans" font-weight="bold" font-size="12.00" fill="#263238">Провайдер повідомлень</text>
</g>
<!-- step_01 -->
<g id="node14" class="node">
<title>step_01</title>
<path fill="#ffffff" stroke="#486581" stroke-width="1.5" d="M2564.5,-806C2564.5,-806 2298.5,-806 2298.5,-806 2292.5,-806 2286.5,-800 2286.5,-794 2286.5,-794 2286.5,-780 2286.5,-780 2286.5,-774 2292.5,-768 2298.5,-768 2298.5,-768 2564.5,-768 2564.5,-768 2570.5,-768 2576.5,-774 2576.5,-780 2576.5,-780 2576.5,-794 2576.5,-794 2576.5,-800 2570.5,-806 2564.5,-806"/>
<text text-anchor="start" x="2322.5" y="-790.4" font-family="DejaVu Sans" font-size="12.00"> </text>
<text text-anchor="start" x="2326.5" y="-790.4" font-family="DejaVu Sans" font-weight="bold" font-size="12.00">1.</text>
<text text-anchor="start" x="2339.5" y="-790.4" font-family="DejaVu Sans" font-size="12.00"> Пацієнт → Застосунок пацієнта</text>
<text text-anchor="start" x="2298.5" y="-778.4" font-family="DejaVu Sans" font-size="10.00">Розпочинає звернення, обирає канал і надає дані</text>
<text text-anchor="start" x="2560.5" y="-778.4" font-family="DejaVu Sans" font-size="12.00"> </text>
</g>
<!-- step_02 -->
<g id="node15" class="node">
<title>step_02</title>
<path fill="#ffffff" stroke="#486581" stroke-width="1.5" d="M2562,-746C2562,-746 2301,-746 2301,-746 2295,-746 2289,-740 2289,-734 2289,-734 2289,-720 2289,-720 2289,-714 2295,-708 2301,-708 2301,-708 2562,-708 2562,-708 2568,-708 2574,-714 2574,-720 2574,-720 2574,-734 2574,-734 2574,-740 2568,-746 2562,-746"/>
<text text-anchor="start" x="2301" y="-730.4" font-family="DejaVu Sans" font-size="12.00"> </text>
<text text-anchor="start" x="2305" y="-730.4" font-family="DejaVu Sans" font-weight="bold" font-size="12.00">2.</text>
<text text-anchor="start" x="2318" y="-730.4" font-family="DejaVu Sans" font-size="12.00"> Застосунок пацієнта → API&#45;шлюз і BFF</text>
<text text-anchor="start" x="2355.5" y="-718.4" font-family="DejaVu Sans" font-size="10.00">Надсилає захищений запит</text>
<text text-anchor="start" x="2503.5" y="-718.4" font-family="DejaVu Sans" font-size="12.00"> </text>
</g>
<!-- step_01&#45;&gt;step_02 -->
<g id="edge1" class="edge">
<title>step_01&#45;&gt;step_02</title>
<path fill="none" stroke="#7b8794" stroke-width="1.2" d="M2431.5,-767.97C2431.5,-763.32 2431.5,-758.23 2431.5,-753.29"/>
<polygon fill="#7b8794" stroke="#7b8794" stroke-width="1.2" points="2433.95,-753.22 2431.5,-746.22 2429.05,-753.22 2433.95,-753.22"/>
</g>
<!-- step_03 -->
<g id="node16" class="node">
<title>step_03</title>
<path fill="#ffffff" stroke="#486581" stroke-width="1.5" d="M2586.5,-686C2586.5,-686 2276.5,-686 2276.5,-686 2270.5,-686 2264.5,-680 2264.5,-674 2264.5,-674 2264.5,-648 2264.5,-648 2264.5,-642 2270.5,-636 2276.5,-636 2276.5,-636 2586.5,-636 2586.5,-636 2592.5,-636 2598.5,-642 2598.5,-648 2598.5,-648 2598.5,-674 2598.5,-674 2598.5,-680 2592.5,-686 2586.5,-686"/>
<text text-anchor="start" x="2276.5" y="-670.4" font-family="DejaVu Sans" font-size="12.00"> </text>
<text text-anchor="start" x="2280.5" y="-670.4" font-family="DejaVu Sans" font-weight="bold" font-size="12.00">3.</text>
<text text-anchor="start" x="2293.5" y="-670.4" font-family="DejaVu Sans" font-size="12.00"> API&#45;шлюз і BFF → Сервіс ідентичності, доступу</text>
<text text-anchor="start" x="2408" y="-658.4" font-family="DejaVu Sans" font-size="12.00">та згод</text>
<text text-anchor="start" x="2302" y="-646.4" font-family="DejaVu Sans" font-size="10.00">Перевіряє ідентичність, повноваження та згоду</text>
<text text-anchor="start" x="2557" y="-646.4" font-family="DejaVu Sans" font-size="12.00"> </text>
</g>
<!-- step_02&#45;&gt;step_03 -->
<g id="edge2" class="edge">
<title>step_02&#45;&gt;step_03</title>
<path fill="none" stroke="#7b8794" stroke-width="1.2" d="M2431.5,-707.83C2431.5,-703.36 2431.5,-698.45 2431.5,-693.55"/>
<polygon fill="#7b8794" stroke="#7b8794" stroke-width="1.2" points="2433.95,-693.43 2431.5,-686.43 2429.05,-693.43 2433.95,-693.43"/>
</g>
<!-- step_04 -->
<g id="node17" class="node">
<title>step_04</title>
<path fill="#ffffff" stroke="#486581" stroke-width="1.5" d="M2569,-614C2569,-614 2294,-614 2294,-614 2288,-614 2282,-608 2282,-602 2282,-602 2282,-588 2282,-588 2282,-582 2288,-576 2294,-576 2294,-576 2569,-576 2569,-576 2575,-576 2581,-582 2581,-588 2581,-588 2581,-602 2581,-602 2581,-608 2575,-614 2569,-614"/>
<text text-anchor="start" x="2294" y="-598.4" font-family="DejaVu Sans" font-size="12.00"> </text>
<text text-anchor="start" x="2298" y="-598.4" font-family="DejaVu Sans" font-weight="bold" font-size="12.00">4.</text>
<text text-anchor="start" x="2311" y="-598.4" font-family="DejaVu Sans" font-size="12.00"> API&#45;шлюз і BFF → Оркестратор взаємодії</text>
<text text-anchor="start" x="2325" y="-586.4" font-family="DejaVu Sans" font-size="10.00">Створює або відновлює діалогову сесію</text>
<text text-anchor="start" x="2534" y="-586.4" font-family="DejaVu Sans" font-size="12.00"> </text>
</g>
<!-- step_03&#45;&gt;step_04 -->
<g id="edge3" class="edge">
<title>step_03&#45;&gt;step_04</title>
<path fill="none" stroke="#7b8794" stroke-width="1.2" d="M2431.5,-635.8C2431.5,-631.07 2431.5,-626.08 2431.5,-621.31"/>
<polygon fill="#7b8794" stroke="#7b8794" stroke-width="1.2" points="2433.95,-621.04 2431.5,-614.04 2429.05,-621.04 2433.95,-621.04"/>
</g>
<!-- step_05 -->
<g id="node18" class="node">
<title>step_05</title>
<path fill="#ffffff" stroke="#486581" stroke-width="1.5" d="M2594.5,-554C2594.5,-554 2268.5,-554 2268.5,-554 2262.5,-554 2256.5,-548 2256.5,-542 2256.5,-542 2256.5,-516 2256.5,-516 2256.5,-510 2262.5,-504 2268.5,-504 2268.5,-504 2594.5,-504 2594.5,-504 2600.5,-504 2606.5,-510 2606.5,-516 2606.5,-516 2606.5,-542 2606.5,-542 2606.5,-548 2600.5,-554 2594.5,-554"/>
<text text-anchor="start" x="2268.5" y="-538.4" font-family="DejaVu Sans" font-size="12.00"> </text>
<text text-anchor="start" x="2272.5" y="-538.4" font-family="DejaVu Sans" font-weight="bold" font-size="12.00">5.</text>
<text text-anchor="start" x="2285.5" y="-538.4" font-family="DejaVu Sans" font-size="12.00"> Оркестратор взаємодії → Детермінований рушій</text>
<text text-anchor="start" x="2402.5" y="-526.4" font-family="DejaVu Sans" font-size="12.00">сценаріїв</text>
<text text-anchor="start" x="2319.5" y="-514.4" font-family="DejaVu Sans" font-size="10.00">Запитує детермінований наступний крок</text>
<text text-anchor="start" x="2539.5" y="-514.4" font-family="DejaVu Sans" font-size="12.00"> </text>
</g>
<!-- step_04&#45;&gt;step_05 -->
<g id="edge4" class="edge">
<title>step_04&#45;&gt;step_05</title>
<path fill="none" stroke="#7b8794" stroke-width="1.2" d="M2431.5,-575.83C2431.5,-571.36 2431.5,-566.45 2431.5,-561.55"/>
<polygon fill="#7b8794" stroke="#7b8794" stroke-width="1.2" points="2433.95,-561.43 2431.5,-554.43 2429.05,-561.43 2433.95,-561.43"/>
</g>
<!-- step_06 -->
<g id="node19" class="node">
<title>step_06</title>
<path fill="#ffffff" stroke="#486581" stroke-width="1.5" d="M2545,-482C2545,-482 2318,-482 2318,-482 2312,-482 2306,-476 2306,-470 2306,-470 2306,-444 2306,-444 2306,-438 2312,-432 2318,-432 2318,-432 2545,-432 2545,-432 2551,-432 2557,-438 2557,-444 2557,-444 2557,-470 2557,-470 2557,-476 2551,-482 2545,-482"/>
<text text-anchor="start" x="2349.5" y="-466.4" font-family="DejaVu Sans" font-size="12.00"> </text>
<text text-anchor="start" x="2353.5" y="-466.4" font-family="DejaVu Sans" font-weight="bold" font-size="12.00">6.</text>
<text text-anchor="start" x="2366.5" y="-466.4" font-family="DejaVu Sans" font-size="12.00"> Детермінований рушій</text>
<text text-anchor="start" x="2336" y="-454.4" font-family="DejaVu Sans" font-size="12.00">сценаріїв → Реєстр алгоритмів</text>
<text text-anchor="start" x="2318" y="-442.4" font-family="DejaVu Sans" font-size="10.00">Завантажує закріплену версію алгоритму</text>
<text text-anchor="start" x="2541" y="-442.4" font-family="DejaVu Sans" font-size="12.00"> </text>
</g>
<!-- step_05&#45;&gt;step_06 -->
<g id="edge5" class="edge">
<title>step_05&#45;&gt;step_06</title>
<path fill="none" stroke="#7b8794" stroke-width="1.2" d="M2431.5,-503.91C2431.5,-499.23 2431.5,-494.27 2431.5,-489.4"/>
<polygon fill="#7b8794" stroke="#7b8794" stroke-width="1.2" points="2433.95,-489.37 2431.5,-482.37 2429.05,-489.37 2433.95,-489.37"/>
</g>
<!-- step_07 -->
<g id="node20" class="node">
<title>step_07</title>
<path fill="#ffffff" stroke="#486581" stroke-width="1.5" d="M2614.5,-410C2614.5,-410 2248.5,-410 2248.5,-410 2242.5,-410 2236.5,-404 2236.5,-398 2236.5,-398 2236.5,-372 2236.5,-372 2236.5,-366 2242.5,-360 2248.5,-360 2248.5,-360 2614.5,-360 2614.5,-360 2620.5,-360 2626.5,-366 2626.5,-372 2626.5,-372 2626.5,-398 2626.5,-398 2626.5,-404 2620.5,-410 2614.5,-410"/>
<text text-anchor="start" x="2248.5" y="-394.4" font-family="DejaVu Sans" font-size="12.00"> </text>
<text text-anchor="start" x="2252.5" y="-394.4" font-family="DejaVu Sans" font-weight="bold" font-size="12.00">7.</text>
<text text-anchor="start" x="2265.5" y="-394.4" font-family="DejaVu Sans" font-size="12.00"> Оркестратор взаємодії → Оркестратор ШІ та контроль</text>
<text text-anchor="start" x="2405.5" y="-382.4" font-family="DejaVu Sans" font-size="12.00">безпеки</text>
<text text-anchor="start" x="2294.5" y="-370.4" font-family="DejaVu Sans" font-size="10.00">Формує доступне допоміжне представлення кроку</text>
<text text-anchor="start" x="2564.5" y="-370.4" font-family="DejaVu Sans" font-size="12.00"> </text>
</g>
<!-- step_06&#45;&gt;step_07 -->
<g id="edge6" class="edge">
<title>step_06&#45;&gt;step_07</title>
<path fill="none" stroke="#7b8794" stroke-width="1.2" d="M2431.5,-431.91C2431.5,-427.23 2431.5,-422.27 2431.5,-417.4"/>
<polygon fill="#7b8794" stroke="#7b8794" stroke-width="1.2" points="2433.95,-417.37 2431.5,-410.37 2429.05,-417.37 2433.95,-417.37"/>
</g>
<!-- step_08 -->
<g id="node21" class="node">
<title>step_08</title>
<path fill="#ffffff" stroke="#486581" stroke-width="1.5" d="M2577,-338C2577,-338 2286,-338 2286,-338 2280,-338 2274,-332 2274,-326 2274,-326 2274,-300 2274,-300 2274,-294 2280,-288 2286,-288 2286,-288 2577,-288 2577,-288 2583,-288 2589,-294 2589,-300 2589,-300 2589,-326 2589,-326 2589,-332 2583,-338 2577,-338"/>
<text text-anchor="start" x="2349.5" y="-322.4" font-family="DejaVu Sans" font-size="12.00"> </text>
<text text-anchor="start" x="2353.5" y="-322.4" font-family="DejaVu Sans" font-weight="bold" font-size="12.00">8.</text>
<text text-anchor="start" x="2366.5" y="-322.4" font-family="DejaVu Sans" font-size="12.00"> Детермінований рушій</text>
<text text-anchor="start" x="2339.5" y="-310.4" font-family="DejaVu Sans" font-size="12.00">сценаріїв → Клінічне сховище</text>
<text text-anchor="start" x="2286" y="-298.4" font-family="DejaVu Sans" font-size="10.00">Зберігає типізовані відповіді та проміжний результат</text>
<text text-anchor="start" x="2573" y="-298.4" font-family="DejaVu Sans" font-size="12.00"> </text>
</g>
<!-- step_07&#45;&gt;step_08 -->
<g id="edge7" class="edge">
<title>step_07&#45;&gt;step_08</title>
<path fill="none" stroke="#7b8794" stroke-width="1.2" d="M2431.5,-359.91C2431.5,-355.23 2431.5,-350.27 2431.5,-345.4"/>
<polygon fill="#7b8794" stroke="#7b8794" stroke-width="1.2" points="2433.95,-345.37 2431.5,-338.37 2429.05,-345.37 2433.95,-345.37"/>
</g>
<!-- step_09 -->
<g id="node22" class="node">
<title>step_09</title>
<path fill="#ffffff" stroke="#486581" stroke-width="1.5" d="M2590,-266C2590,-266 2273,-266 2273,-266 2267,-266 2261,-260 2261,-254 2261,-254 2261,-216 2261,-216 2261,-210 2267,-204 2273,-204 2273,-204 2590,-204 2590,-204 2596,-204 2602,-210 2602,-216 2602,-216 2602,-254 2602,-254 2602,-260 2596,-266 2590,-266"/>
<text text-anchor="start" x="2349.5" y="-250.4" font-family="DejaVu Sans" font-size="12.00"> </text>
<text text-anchor="start" x="2353.5" y="-250.4" font-family="DejaVu Sans" font-weight="bold" font-size="12.00">9.</text>
<text text-anchor="start" x="2366.5" y="-250.4" font-family="DejaVu Sans" font-size="12.00"> Детермінований рушій</text>
<text text-anchor="start" x="2309.5" y="-238.4" font-family="DejaVu Sans" font-size="12.00">сценаріїв → Сервіс підтримки клінічних</text>
<text text-anchor="start" x="2409.5" y="-226.4" font-family="DejaVu Sans" font-size="12.00">рішень</text>
<text text-anchor="start" x="2273" y="-214.4" font-family="DejaVu Sans" font-size="10.00">Передає структурований результат для клінічної агрегації</text>
<text text-anchor="start" x="2586" y="-214.4" font-family="DejaVu Sans" font-size="12.00"> </text>
</g>
<!-- step_08&#45;&gt;step_09 -->
<g id="edge8" class="edge">
<title>step_08&#45;&gt;step_09</title>
<path fill="none" stroke="#7b8794" stroke-width="1.2" d="M2431.5,-287.95C2431.5,-283.28 2431.5,-278.28 2431.5,-273.29"/>
<polygon fill="#7b8794" stroke="#7b8794" stroke-width="1.2" points="2433.95,-273.04 2431.5,-266.04 2429.05,-273.04 2433.95,-273.04"/>
</g>
<!-- step_10 -->
<g id="node23" class="node">
<title>step_10</title>
<path fill="#ffffff" stroke="#486581" stroke-width="1.5" d="M2618,-182C2618,-182 2245,-182 2245,-182 2239,-182 2233,-176 2233,-170 2233,-170 2233,-144 2233,-144 2233,-138 2239,-132 2245,-132 2245,-132 2618,-132 2618,-132 2624,-132 2630,-138 2630,-144 2630,-144 2630,-170 2630,-170 2630,-176 2624,-182 2618,-182"/>
<text text-anchor="start" x="2245" y="-166.4" font-family="DejaVu Sans" font-size="12.00"> </text>
<text text-anchor="start" x="2249" y="-166.4" font-family="DejaVu Sans" font-weight="bold" font-size="12.00">10.</text>
<text text-anchor="start" x="2271" y="-166.4" font-family="DejaVu Sans" font-size="12.00"> Оркестратор взаємодії → Сервіс завдань, нагадувань і</text>
<text text-anchor="start" x="2399.5" y="-154.4" font-family="DejaVu Sans" font-size="12.00">ескалацій</text>
<text text-anchor="start" x="2278.5" y="-142.4" font-family="DejaVu Sans" font-size="10.00">Створює наступне завдання, контрольну точку або візит</text>
<text text-anchor="start" x="2580.5" y="-142.4" font-family="DejaVu Sans" font-size="12.00"> </text>
</g>
<!-- step_09&#45;&gt;step_10 -->
<g id="edge9" class="edge">
<title>step_09&#45;&gt;step_10</title>
<path fill="none" stroke="#7b8794" stroke-width="1.2" d="M2431.5,-203.96C2431.5,-199.28 2431.5,-194.43 2431.5,-189.71"/>
<polygon fill="#7b8794" stroke="#7b8794" stroke-width="1.2" points="2433.95,-189.45 2431.5,-182.45 2429.05,-189.45 2433.95,-189.45"/>
</g>
<!-- step_11 -->
<g id="node24" class="node">
<title>step_11</title>
<path fill="#ffffff" stroke="#486581" stroke-width="1.5" d="M2577.5,-110C2577.5,-110 2285.5,-110 2285.5,-110 2279.5,-110 2273.5,-104 2273.5,-98 2273.5,-98 2273.5,-72 2273.5,-72 2273.5,-66 2279.5,-60 2285.5,-60 2285.5,-60 2577.5,-60 2577.5,-60 2583.5,-60 2589.5,-66 2589.5,-72 2589.5,-72 2589.5,-98 2589.5,-98 2589.5,-104 2583.5,-110 2577.5,-110"/>
<text text-anchor="start" x="2326" y="-94.4" font-family="DejaVu Sans" font-size="12.00"> </text>
<text text-anchor="start" x="2330" y="-94.4" font-family="DejaVu Sans" font-weight="bold" font-size="12.00">11.</text>
<text text-anchor="start" x="2352" y="-94.4" font-family="DejaVu Sans" font-size="12.00"> Сервіс завдань, нагадувань і</text>
<text text-anchor="start" x="2327.5" y="-82.4" font-family="DejaVu Sans" font-size="12.00">ескалацій → Інтеграційний шлюз</text>
<text text-anchor="start" x="2285.5" y="-70.4" font-family="DejaVu Sans" font-size="10.00">Передає повідомлення або подію зовнішньому каналу</text>
<text text-anchor="start" x="2573.5" y="-70.4" font-family="DejaVu Sans" font-size="12.00"> </text>
</g>
<!-- step_10&#45;&gt;step_11 -->
<g id="edge10" class="edge">
<title>step_10&#45;&gt;step_11</title>
<path fill="none" stroke="#7b8794" stroke-width="1.2" d="M2431.5,-131.91C2431.5,-127.23 2431.5,-122.27 2431.5,-117.4"/>
<polygon fill="#7b8794" stroke="#7b8794" stroke-width="1.2" points="2433.95,-117.37 2431.5,-110.37 2429.05,-117.37 2433.95,-117.37"/>
</g>
<!-- step_12 -->
<g id="node25" class="node">
<title>step_12</title>
<path fill="#ffffff" stroke="#486581" stroke-width="1.5" d="M2594.5,-38C2594.5,-38 2268.5,-38 2268.5,-38 2262.5,-38 2256.5,-32 2256.5,-26 2256.5,-26 2256.5,-12 2256.5,-12 2256.5,-6 2262.5,0 2268.5,0 2268.5,0 2594.5,0 2594.5,0 2600.5,0 2606.5,-6 2606.5,-12 2606.5,-12 2606.5,-26 2606.5,-26 2606.5,-32 2600.5,-38 2594.5,-38"/>
<text text-anchor="start" x="2268.5" y="-22.4" font-family="DejaVu Sans" font-size="12.00"> </text>
<text text-anchor="start" x="2272.5" y="-22.4" font-family="DejaVu Sans" font-weight="bold" font-size="12.00">12.</text>
<text text-anchor="start" x="2294.5" y="-22.4" font-family="DejaVu Sans" font-size="12.00"> Інтеграційний шлюз → Провайдер повідомлень</text>
<text text-anchor="start" x="2333.5" y="-10.4" font-family="DejaVu Sans" font-size="10.00">Надсилає мінімізоване нагадування</text>
<text text-anchor="start" x="2525.5" y="-10.4" font-family="DejaVu Sans" font-size="12.00"> </text>
</g>
<!-- step_11&#45;&gt;step_12 -->
<g id="edge11" class="edge">
<title>step_11&#45;&gt;step_12</title>
<path fill="none" stroke="#7b8794" stroke-width="1.2" d="M2431.5,-59.8C2431.5,-55.07 2431.5,-50.08 2431.5,-45.31"/>
<polygon fill="#7b8794" stroke="#7b8794" stroke-width="1.2" points="2433.95,-45.04 2431.5,-38.04 2429.05,-45.04 2433.95,-45.04"/>
</g>
</g>
</svg>
