<?xml version="1.0" encoding="UTF-8" standalone="no"?>
<!DOCTYPE svg PUBLIC "-//W3C//DTD SVG 1.1//EN"
 "http://www.w3.org/Graphics/SVG/1.1/DTD/svg11.dtd">
<!-- Generated by graphviz version 2.42.4 (0)
 -->
<!-- Title: G Pages: 1 -->
<svg width="2163pt" height="673pt"
 viewBox="0.00 0.00 2163.40 673.40" xmlns="http://www.w3.org/2000/svg" xmlns:xlink="http://www.w3.org/1999/xlink">
<g id="graph0" class="graph" transform="scale(1 1) rotate(0) translate(25.2 648.2)">
<title>G</title>
<polygon fill="white" stroke="transparent" points="-25.2,25.2 -25.2,-648.2 2138.2,-648.2 2138.2,25.2 -25.2,25.2"/>
<text text-anchor="start" x="82.5" y="-608.8" font-family="DejaVu Sans" font-weight="bold" font-size="14.00">DYN.10 — Повторний супровід і нагадування</text>
<text text-anchor="start" x="8" y="-597.2" font-family="DejaVu Sans" font-size="11.00">Плановий супровід, повторні опитування, вимірювання й контроль прострочених дій.</text>
<!-- p_n_78e6a86e3609 -->
<g id="node1" class="node">
<title>p_n_78e6a86e3609</title>
<path fill="#2b6cb0" stroke="#486581" d="M170,-578C170,-578 12,-578 12,-578 6,-578 0,-572 0,-566 0,-566 0,-552 0,-552 0,-546 6,-540 12,-540 12,-540 170,-540 170,-540 176,-540 182,-546 182,-552 182,-552 182,-566 182,-566 182,-572 176,-578 170,-578"/>
<text text-anchor="start" x="12" y="-562.4" font-family="DejaVu Sans" font-weight="bold" font-size="12.00" fill="#ffffff">Детермінований рушій</text>
<text text-anchor="start" x="59" y="-550.4" font-family="DejaVu Sans" font-weight="bold" font-size="12.00" fill="#ffffff">сценаріїв</text>
</g>
<!-- p_n_eb4c5110ae64 -->
<g id="node2" class="node">
<title>p_n_eb4c5110ae64</title>
<path fill="#b7791f" stroke="#486581" d="M375.5,-578C375.5,-578 212.5,-578 212.5,-578 206.5,-578 200.5,-572 200.5,-566 200.5,-566 200.5,-552 200.5,-552 200.5,-546 206.5,-540 212.5,-540 212.5,-540 375.5,-540 375.5,-540 381.5,-540 387.5,-546 387.5,-552 387.5,-552 387.5,-566 387.5,-566 387.5,-572 381.5,-578 375.5,-578"/>
<text text-anchor="start" x="239.5" y="-562.4" font-family="DejaVu Sans" font-weight="bold" font-size="12.00" fill="#ffffff">Сервіс завдань,</text>
<text text-anchor="start" x="212.5" y="-550.4" font-family="DejaVu Sans" font-weight="bold" font-size="12.00" fill="#ffffff">нагадувань і ескалацій</text>
</g>
<!-- p_n_b10c10dbc143 -->
<g id="node3" class="node">
<title>p_n_b10c10dbc143</title>
<path fill="#3b5bdb" stroke="#486581" d="M560,-577C560,-577 418,-577 418,-577 412,-577 406,-571 406,-565 406,-565 406,-553 406,-553 406,-547 412,-541 418,-541 418,-541 560,-541 560,-541 566,-541 572,-547 572,-553 572,-553 572,-565 572,-565 572,-571 566,-577 560,-577"/>
<text text-anchor="start" x="418" y="-556.9" font-family="DejaVu Sans" font-weight="bold" font-size="12.00" fill="#ffffff">Інтеграційний шлюз</text>
</g>
<!-- p_n_dff60b2c2060 -->
<g id="node4" class="node">
<title>p_n_dff60b2c2060</title>
<path fill="#e9eef4" stroke="#486581" d="M772,-577C772,-577 602,-577 602,-577 596,-577 590,-571 590,-565 590,-565 590,-553 590,-553 590,-547 596,-541 602,-541 602,-541 772,-541 772,-541 778,-541 784,-547 784,-553 784,-553 784,-565 784,-565 784,-571 778,-577 772,-577"/>
<text text-anchor="start" x="602" y="-556.9" font-family="DejaVu Sans" font-weight="bold" font-size="12.00" fill="#263238">Провайдер повідомлень</text>
</g>
<!-- p_n_d41792c094aa -->
<g id="node5" class="node">
<title>p_n_d41792c094aa</title>
<path fill="#e9eef4" stroke="#486581" d="M956,-578C956,-578 814,-578 814,-578 808,-578 802,-572 802,-566 802,-566 802,-552 802,-552 802,-546 808,-540 814,-540 814,-540 956,-540 956,-540 962,-540 968,-546 968,-552 968,-552 968,-566 968,-566 968,-572 962,-578 956,-578"/>
<text text-anchor="start" x="814" y="-562.4" font-family="DejaVu Sans" font-weight="bold" font-size="12.00" fill="#263238">Календар і запис на</text>
<text text-anchor="start" x="859" y="-550.4" font-family="DejaVu Sans" font-weight="bold" font-size="12.00" fill="#263238">прийом</text>
</g>
<!-- p_n_b1b0b8de8a62 -->
<g id="node6" class="node">
<title>p_n_b1b0b8de8a62</title>
<path fill="#084c61" stroke="#486581" d="M1051.5,-577C1051.5,-577 998.5,-577 998.5,-577 992.5,-577 986.5,-571 986.5,-565 986.5,-565 986.5,-553 986.5,-553 986.5,-547 992.5,-541 998.5,-541 998.5,-541 1051.5,-541 1051.5,-541 1057.5,-541 1063.5,-547 1063.5,-553 1063.5,-553 1063.5,-565 1063.5,-565 1063.5,-571 1057.5,-577 1051.5,-577"/>
<text text-anchor="start" x="998.5" y="-556.9" font-family="DejaVu Sans" font-weight="bold" font-size="12.00" fill="#ffffff">Пацієнт</text>
</g>
<!-- p_n_8a923be70a11 -->
<g id="node7" class="node">
<title>p_n_8a923be70a11</title>
<path fill="#0b7285" stroke="#486581" d="M1236,-577C1236,-577 1094,-577 1094,-577 1088,-577 1082,-571 1082,-565 1082,-565 1082,-553 1082,-553 1082,-547 1088,-541 1094,-541 1094,-541 1236,-541 1236,-541 1242,-541 1248,-547 1248,-553 1248,-553 1248,-565 1248,-565 1248,-571 1242,-577 1236,-577"/>
<text text-anchor="start" x="1094" y="-556.9" font-family="DejaVu Sans" font-weight="bold" font-size="12.00" fill="#ffffff">Застосунок пацієнта</text>
</g>
<!-- p_n_384146de0c5d -->
<g id="node8" class="node">
<title>p_n_384146de0c5d</title>
<path fill="#f4f7fa" stroke="#486581" d="M1385.5,-577C1385.5,-577 1278.5,-577 1278.5,-577 1272.5,-577 1266.5,-571 1266.5,-565 1266.5,-565 1266.5,-553 1266.5,-553 1266.5,-547 1272.5,-541 1278.5,-541 1278.5,-541 1385.5,-541 1385.5,-541 1391.5,-541 1397.5,-547 1397.5,-553 1397.5,-553 1397.5,-565 1397.5,-565 1397.5,-571 1391.5,-577 1385.5,-577"/>
<text text-anchor="start" x="1278.5" y="-556.9" font-family="DejaVu Sans" font-weight="bold" font-size="12.00" fill="#18324a">API&#45;шлюз і BFF</text>
</g>
<!-- p_n_da26d52269a5 -->
<g id="node9" class="node">
<title>p_n_da26d52269a5</title>
<path fill="#c05621" stroke="#486581" d="M1584,-577C1584,-577 1428,-577 1428,-577 1422,-577 1416,-571 1416,-565 1416,-565 1416,-553 1416,-553 1416,-547 1422,-541 1428,-541 1428,-541 1584,-541 1584,-541 1590,-541 1596,-547 1596,-553 1596,-553 1596,-565 1596,-565 1596,-571 1590,-577 1584,-577"/>
<text text-anchor="start" x="1428" y="-556.9" font-family="DejaVu Sans" font-weight="bold" font-size="12.00" fill="#ffffff">Шина доменних подій</text>
</g>
<!-- p_n_5f5685eeff97 -->
<g id="node10" class="node">
<title>p_n_5f5685eeff97</title>
<path fill="#4a5568" stroke="#486581" d="M1757.5,-578C1757.5,-578 1626.5,-578 1626.5,-578 1620.5,-578 1614.5,-572 1614.5,-566 1614.5,-566 1614.5,-552 1614.5,-552 1614.5,-546 1620.5,-540 1626.5,-540 1626.5,-540 1757.5,-540 1757.5,-540 1763.5,-540 1769.5,-546 1769.5,-552 1769.5,-552 1769.5,-566 1769.5,-566 1769.5,-572 1763.5,-578 1757.5,-578"/>
<text text-anchor="start" x="1634" y="-562.4" font-family="DejaVu Sans" font-weight="bold" font-size="12.00" fill="#ffffff">Сервіс аудиту та</text>
<text text-anchor="start" x="1626.5" y="-550.4" font-family="DejaVu Sans" font-weight="bold" font-size="12.00" fill="#ffffff">спостережуваності</text>
</g>
<!-- step_01 -->
<g id="node11" class="node">
<title>step_01</title>
<path fill="#ffffff" stroke="#486581" stroke-width="1.5" d="M2060,-590C2060,-590 1800,-590 1800,-590 1794,-590 1788,-584 1788,-578 1788,-578 1788,-540 1788,-540 1788,-534 1794,-528 1800,-528 1800,-528 2060,-528 2060,-528 2066,-528 2072,-534 2072,-540 2072,-540 2072,-578 2072,-578 2072,-584 2066,-590 2060,-590"/>
<text text-anchor="start" x="1848" y="-574.4" font-family="DejaVu Sans" font-size="12.00"> </text>
<text text-anchor="start" x="1852" y="-574.4" font-family="DejaVu Sans" font-weight="bold" font-size="12.00">1.</text>
<text text-anchor="start" x="1865" y="-574.4" font-family="DejaVu Sans" font-size="12.00"> Детермінований рушій</text>
<text text-anchor="start" x="1802" y="-562.4" font-family="DejaVu Sans" font-size="12.00">сценаріїв → Сервіс завдань, нагадувань і</text>
<text text-anchor="start" x="1898" y="-550.4" font-family="DejaVu Sans" font-size="12.00">ескалацій</text>
<text text-anchor="start" x="1800" y="-538.4" font-family="DejaVu Sans" font-size="10.00">Створює повторне опитування або вимірювання</text>
<text text-anchor="start" x="2056" y="-538.4" font-family="DejaVu Sans" font-size="12.00"> </text>
</g>
<!-- step_02 -->
<g id="node12" class="node">
<title>step_02</title>
<path fill="#ffffff" stroke="#486581" stroke-width="1.5" d="M2047,-506C2047,-506 1813,-506 1813,-506 1807,-506 1801,-500 1801,-494 1801,-494 1801,-468 1801,-468 1801,-462 1807,-456 1813,-456 1813,-456 2047,-456 2047,-456 2053,-456 2059,-462 2059,-468 2059,-468 2059,-494 2059,-494 2059,-500 2053,-506 2047,-506"/>
<text text-anchor="start" x="1829" y="-490.4" font-family="DejaVu Sans" font-size="12.00"> </text>
<text text-anchor="start" x="1833" y="-490.4" font-family="DejaVu Sans" font-weight="bold" font-size="12.00">2.</text>
<text text-anchor="start" x="1846" y="-490.4" font-family="DejaVu Sans" font-size="12.00"> Сервіс завдань, нагадувань і</text>
<text text-anchor="start" x="1826" y="-478.4" font-family="DejaVu Sans" font-size="12.00">ескалацій → Інтеграційний шлюз</text>
<text text-anchor="start" x="1813" y="-466.4" font-family="DejaVu Sans" font-size="10.00">Передає нагадування дозволеним каналом</text>
<text text-anchor="start" x="2043" y="-466.4" font-family="DejaVu Sans" font-size="12.00"> </text>
</g>
<!-- step_01&#45;&gt;step_02 -->
<g id="edge1" class="edge">
<title>step_01&#45;&gt;step_02</title>
<path fill="none" stroke="#7b8794" stroke-width="1.2" d="M1930,-527.96C1930,-523.28 1930,-518.43 1930,-513.71"/>
<polygon fill="#7b8794" stroke="#7b8794" stroke-width="1.2" points="1932.45,-513.45 1930,-506.45 1927.55,-513.45 1932.45,-513.45"/>
</g>
<!-- step_03 -->
<g id="node13" class="node">
<title>step_03</title>
<path fill="#ffffff" stroke="#486581" stroke-width="1.5" d="M2088.5,-434C2088.5,-434 1771.5,-434 1771.5,-434 1765.5,-434 1759.5,-428 1759.5,-422 1759.5,-422 1759.5,-408 1759.5,-408 1759.5,-402 1765.5,-396 1771.5,-396 1771.5,-396 2088.5,-396 2088.5,-396 2094.5,-396 2100.5,-402 2100.5,-408 2100.5,-408 2100.5,-422 2100.5,-422 2100.5,-428 2094.5,-434 2088.5,-434"/>
<text text-anchor="start" x="1771.5" y="-418.4" font-family="DejaVu Sans" font-size="12.00"> </text>
<text text-anchor="start" x="1775.5" y="-418.4" font-family="DejaVu Sans" font-weight="bold" font-size="12.00">3.</text>
<text text-anchor="start" x="1788.5" y="-418.4" font-family="DejaVu Sans" font-size="12.00"> Інтеграційний шлюз → Провайдер повідомлень</text>
<text text-anchor="start" x="1829" y="-406.4" font-family="DejaVu Sans" font-size="10.00">Надсилає мінімізоване повідомлення</text>
<text text-anchor="start" x="2027" y="-406.4" font-family="DejaVu Sans" font-size="12.00"> </text>
</g>
<!-- step_02&#45;&gt;step_03 -->
<g id="edge2" class="edge">
<title>step_02&#45;&gt;step_03</title>
<path fill="none" stroke="#7b8794" stroke-width="1.2" d="M1930,-455.8C1930,-451.07 1930,-446.08 1930,-441.31"/>
<polygon fill="#7b8794" stroke="#7b8794" stroke-width="1.2" points="1932.45,-441.04 1930,-434.04 1927.55,-441.04 1932.45,-441.04"/>
</g>
<!-- step_04 -->
<g id="node14" class="node">
<title>step_04</title>
<path fill="#ffffff" stroke="#486581" stroke-width="1.5" d="M2101,-374C2101,-374 1759,-374 1759,-374 1753,-374 1747,-368 1747,-362 1747,-362 1747,-348 1747,-348 1747,-342 1753,-336 1759,-336 1759,-336 2101,-336 2101,-336 2107,-336 2113,-342 2113,-348 2113,-348 2113,-362 2113,-362 2113,-368 2107,-374 2101,-374"/>
<text text-anchor="start" x="1759" y="-358.4" font-family="DejaVu Sans" font-size="12.00"> </text>
<text text-anchor="start" x="1763" y="-358.4" font-family="DejaVu Sans" font-weight="bold" font-size="12.00">4.</text>
<text text-anchor="start" x="1776" y="-358.4" font-family="DejaVu Sans" font-size="12.00"> Інтеграційний шлюз → Календар і запис на прийом</text>
<text text-anchor="start" x="1854.5" y="-346.4" font-family="DejaVu Sans" font-size="10.00">Оновлює календарну подію</text>
<text text-anchor="start" x="2001.5" y="-346.4" font-family="DejaVu Sans" font-size="12.00"> </text>
</g>
<!-- step_03&#45;&gt;step_04 -->
<g id="edge3" class="edge">
<title>step_03&#45;&gt;step_04</title>
<path fill="none" stroke="#7b8794" stroke-width="1.2" d="M1930,-395.97C1930,-391.32 1930,-386.23 1930,-381.29"/>
<polygon fill="#7b8794" stroke="#7b8794" stroke-width="1.2" points="1932.45,-381.22 1930,-374.22 1927.55,-381.22 1932.45,-381.22"/>
</g>
<!-- step_05 -->
<g id="node15" class="node">
<title>step_05</title>
<path fill="#ffffff" stroke="#486581" stroke-width="1.5" d="M2043.5,-314C2043.5,-314 1816.5,-314 1816.5,-314 1810.5,-314 1804.5,-308 1804.5,-302 1804.5,-302 1804.5,-288 1804.5,-288 1804.5,-282 1810.5,-276 1816.5,-276 1816.5,-276 2043.5,-276 2043.5,-276 2049.5,-276 2055.5,-282 2055.5,-288 2055.5,-288 2055.5,-302 2055.5,-302 2055.5,-308 2049.5,-314 2043.5,-314"/>
<text text-anchor="start" x="1821" y="-298.4" font-family="DejaVu Sans" font-size="12.00"> </text>
<text text-anchor="start" x="1825" y="-298.4" font-family="DejaVu Sans" font-weight="bold" font-size="12.00">5.</text>
<text text-anchor="start" x="1838" y="-298.4" font-family="DejaVu Sans" font-size="12.00"> Пацієнт → Застосунок пацієнта</text>
<text text-anchor="start" x="1816.5" y="-286.4" font-family="DejaVu Sans" font-size="10.00">Повертається до запланованого завдання</text>
<text text-anchor="start" x="2039.5" y="-286.4" font-family="DejaVu Sans" font-size="12.00"> </text>
</g>
<!-- step_04&#45;&gt;step_05 -->
<g id="edge4" class="edge">
<title>step_04&#45;&gt;step_05</title>
<path fill="none" stroke="#7b8794" stroke-width="1.2" d="M1930,-335.97C1930,-331.32 1930,-326.23 1930,-321.29"/>
<polygon fill="#7b8794" stroke="#7b8794" stroke-width="1.2" points="1932.45,-321.22 1930,-314.22 1927.55,-321.22 1932.45,-321.22"/>
</g>
<!-- step_06 -->
<g id="node16" class="node">
<title>step_06</title>
<path fill="#ffffff" stroke="#486581" stroke-width="1.5" d="M2088.5,-254C2088.5,-254 1771.5,-254 1771.5,-254 1765.5,-254 1759.5,-248 1759.5,-242 1759.5,-242 1759.5,-228 1759.5,-228 1759.5,-222 1765.5,-216 1771.5,-216 1771.5,-216 2088.5,-216 2088.5,-216 2094.5,-216 2100.5,-222 2100.5,-228 2100.5,-228 2100.5,-242 2100.5,-242 2100.5,-248 2094.5,-254 2088.5,-254"/>
<text text-anchor="start" x="1799.5" y="-238.4" font-family="DejaVu Sans" font-size="12.00"> </text>
<text text-anchor="start" x="1803.5" y="-238.4" font-family="DejaVu Sans" font-weight="bold" font-size="12.00">6.</text>
<text text-anchor="start" x="1816.5" y="-238.4" font-family="DejaVu Sans" font-size="12.00"> Застосунок пацієнта → API&#45;шлюз і BFF</text>
<text text-anchor="start" x="1771.5" y="-226.4" font-family="DejaVu Sans" font-size="10.00">Підтверджує виконання або повідомляє причину пропуску</text>
<text text-anchor="start" x="2084.5" y="-226.4" font-family="DejaVu Sans" font-size="12.00"> </text>
</g>
<!-- step_05&#45;&gt;step_06 -->
<g id="edge5" class="edge">
<title>step_05&#45;&gt;step_06</title>
<path fill="none" stroke="#7b8794" stroke-width="1.2" d="M1930,-275.97C1930,-271.32 1930,-266.23 1930,-261.29"/>
<polygon fill="#7b8794" stroke="#7b8794" stroke-width="1.2" points="1932.45,-261.22 1930,-254.22 1927.55,-261.22 1932.45,-261.22"/>
</g>
<!-- step_07 -->
<g id="node17" class="node">
<title>step_07</title>
<path fill="#ffffff" stroke="#486581" stroke-width="1.5" d="M2085.5,-194C2085.5,-194 1774.5,-194 1774.5,-194 1768.5,-194 1762.5,-188 1762.5,-182 1762.5,-182 1762.5,-156 1762.5,-156 1762.5,-150 1768.5,-144 1774.5,-144 1774.5,-144 2085.5,-144 2085.5,-144 2091.5,-144 2097.5,-150 2097.5,-156 2097.5,-156 2097.5,-182 2097.5,-182 2097.5,-188 2091.5,-194 2085.5,-194"/>
<text text-anchor="start" x="1774.5" y="-178.4" font-family="DejaVu Sans" font-size="12.00"> </text>
<text text-anchor="start" x="1778.5" y="-178.4" font-family="DejaVu Sans" font-weight="bold" font-size="12.00">7.</text>
<text text-anchor="start" x="1791.5" y="-178.4" font-family="DejaVu Sans" font-size="12.00"> API&#45;шлюз і BFF → Сервіс завдань, нагадувань і</text>
<text text-anchor="start" x="1898" y="-166.4" font-family="DejaVu Sans" font-size="12.00">ескалацій</text>
<text text-anchor="start" x="1859.5" y="-154.4" font-family="DejaVu Sans" font-size="10.00">Оновлює статус завдання</text>
<text text-anchor="start" x="1996.5" y="-154.4" font-family="DejaVu Sans" font-size="12.00"> </text>
</g>
<!-- step_06&#45;&gt;step_07 -->
<g id="edge6" class="edge">
<title>step_06&#45;&gt;step_07</title>
<path fill="none" stroke="#7b8794" stroke-width="1.2" d="M1930,-215.83C1930,-211.36 1930,-206.45 1930,-201.55"/>
<polygon fill="#7b8794" stroke="#7b8794" stroke-width="1.2" points="1932.45,-201.43 1930,-194.43 1927.55,-201.43 1932.45,-201.43"/>
</g>
<!-- step_08 -->
<g id="node18" class="node">
<title>step_08</title>
<path fill="#ffffff" stroke="#486581" stroke-width="1.5" d="M2039.5,-122C2039.5,-122 1820.5,-122 1820.5,-122 1814.5,-122 1808.5,-116 1808.5,-110 1808.5,-110 1808.5,-84 1808.5,-84 1808.5,-78 1814.5,-72 1820.5,-72 1820.5,-72 2039.5,-72 2039.5,-72 2045.5,-72 2051.5,-78 2051.5,-84 2051.5,-84 2051.5,-110 2051.5,-110 2051.5,-116 2045.5,-122 2039.5,-122"/>
<text text-anchor="start" x="1829" y="-106.4" font-family="DejaVu Sans" font-size="12.00"> </text>
<text text-anchor="start" x="1833" y="-106.4" font-family="DejaVu Sans" font-weight="bold" font-size="12.00">8.</text>
<text text-anchor="start" x="1846" y="-106.4" font-family="DejaVu Sans" font-size="12.00"> Сервіс завдань, нагадувань і</text>
<text text-anchor="start" x="1820.5" y="-94.4" font-family="DejaVu Sans" font-size="12.00">ескалацій → Шина доменних подій</text>
<text text-anchor="start" x="1825.5" y="-82.4" font-family="DejaVu Sans" font-size="10.00">Публікує виконання або прострочення</text>
<text text-anchor="start" x="2030.5" y="-82.4" font-family="DejaVu Sans" font-size="12.00"> </text>
</g>
<!-- step_07&#45;&gt;step_08 -->
<g id="edge7" class="edge">
<title>step_07&#45;&gt;step_08</title>
<path fill="none" stroke="#7b8794" stroke-width="1.2" d="M1930,-143.91C1930,-139.23 1930,-134.27 1930,-129.4"/>
<polygon fill="#7b8794" stroke="#7b8794" stroke-width="1.2" points="1932.45,-129.37 1930,-122.37 1927.55,-129.37 1932.45,-129.37"/>
</g>
<!-- step_09 -->
<g id="node19" class="node">
<title>step_09</title>
<path fill="#ffffff" stroke="#486581" stroke-width="1.5" d="M2071,-50C2071,-50 1789,-50 1789,-50 1783,-50 1777,-44 1777,-38 1777,-38 1777,-12 1777,-12 1777,-6 1783,0 1789,0 1789,0 2071,0 2071,0 2077,0 2083,-6 2083,-12 2083,-12 2083,-38 2083,-38 2083,-44 2077,-50 2071,-50"/>
<text text-anchor="start" x="1789" y="-34.4" font-family="DejaVu Sans" font-size="12.00"> </text>
<text text-anchor="start" x="1793" y="-34.4" font-family="DejaVu Sans" font-weight="bold" font-size="12.00">9.</text>
<text text-anchor="start" x="1806" y="-34.4" font-family="DejaVu Sans" font-size="12.00"> Шина доменних подій → Сервіс аудиту та</text>
<text text-anchor="start" x="1869.5" y="-22.4" font-family="DejaVu Sans" font-size="12.00">спостережуваності</text>
<text text-anchor="start" x="1835" y="-10.4" font-family="DejaVu Sans" font-size="10.00">Фіксує подію й резервний маршрут</text>
<text text-anchor="start" x="2021" y="-10.4" font-family="DejaVu Sans" font-size="12.00"> </text>
</g>
<!-- step_08&#45;&gt;step_09 -->
<g id="edge8" class="edge">
<title>step_08&#45;&gt;step_09</title>
<path fill="none" stroke="#7b8794" stroke-width="1.2" d="M1930,-71.91C1930,-67.23 1930,-62.27 1930,-57.4"/>
<polygon fill="#7b8794" stroke="#7b8794" stroke-width="1.2" points="1932.45,-57.37 1930,-50.37 1927.55,-57.37 1932.45,-57.37"/>
</g>
</g>
</svg>
