<?xml version="1.0" encoding="UTF-8" standalone="no"?>
<!DOCTYPE svg PUBLIC "-//W3C//DTD SVG 1.1//EN"
 "http://www.w3.org/Graphics/SVG/1.1/DTD/svg11.dtd">
<!-- Generated by graphviz version 2.42.4 (0)
 -->
<!-- Title: G Pages: 1 -->
<svg width="2510pt" height="805pt"
 viewBox="0.00 0.00 2509.90 805.40" xmlns="http://www.w3.org/2000/svg" xmlns:xlink="http://www.w3.org/1999/xlink">
<g id="graph0" class="graph" transform="scale(1 1) rotate(0) translate(25.2 780.2)">
<title>G</title>
<polygon fill="white" stroke="transparent" points="-25.2,25.2 -25.2,-780.2 2484.7,-780.2 2484.7,25.2 -25.2,25.2"/>
<text text-anchor="start" x="68" y="-740.8" font-family="DejaVu Sans" font-weight="bold" font-size="14.00">DYN.05 — Червоний прапорець і кризове реагування</text>
<text text-anchor="start" x="8" y="-729.2" font-family="DejaVu Sans" font-size="11.00">Негайне виявлення, ескалація, підтвердження отримання та резервний кризовий маршрут.</text>
<!-- p_n_b1b0b8de8a62 -->
<g id="node1" class="node">
<title>p_n_b1b0b8de8a62</title>
<path fill="#084c61" stroke="#486581" d="M65,-721C65,-721 12,-721 12,-721 6,-721 0,-715 0,-709 0,-709 0,-697 0,-697 0,-691 6,-685 12,-685 12,-685 65,-685 65,-685 71,-685 77,-691 77,-697 77,-697 77,-709 77,-709 77,-715 71,-721 65,-721"/>
<text text-anchor="start" x="12" y="-700.9" font-family="DejaVu Sans" font-weight="bold" font-size="12.00" fill="#ffffff">Пацієнт</text>
</g>
<!-- p_n_8a923be70a11 -->
<g id="node2" class="node">
<title>p_n_8a923be70a11</title>
<path fill="#0b7285" stroke="#486581" d="M249.5,-721C249.5,-721 107.5,-721 107.5,-721 101.5,-721 95.5,-715 95.5,-709 95.5,-709 95.5,-697 95.5,-697 95.5,-691 101.5,-685 107.5,-685 107.5,-685 249.5,-685 249.5,-685 255.5,-685 261.5,-691 261.5,-697 261.5,-697 261.5,-709 261.5,-709 261.5,-715 255.5,-721 249.5,-721"/>
<text text-anchor="start" x="107.5" y="-700.9" font-family="DejaVu Sans" font-weight="bold" font-size="12.00" fill="#ffffff">Застосунок пацієнта</text>
</g>
<!-- p_n_384146de0c5d -->
<g id="node3" class="node">
<title>p_n_384146de0c5d</title>
<path fill="#f4f7fa" stroke="#486581" d="M399,-721C399,-721 292,-721 292,-721 286,-721 280,-715 280,-709 280,-709 280,-697 280,-697 280,-691 286,-685 292,-685 292,-685 399,-685 399,-685 405,-685 411,-691 411,-697 411,-697 411,-709 411,-709 411,-715 405,-721 399,-721"/>
<text text-anchor="start" x="292" y="-700.9" font-family="DejaVu Sans" font-weight="bold" font-size="12.00" fill="#18324a">API&#45;шлюз і BFF</text>
</g>
<!-- p_n_78e6a86e3609 -->
<g id="node4" class="node">
<title>p_n_78e6a86e3609</title>
<path fill="#2b6cb0" stroke="#486581" d="M599.5,-722C599.5,-722 441.5,-722 441.5,-722 435.5,-722 429.5,-716 429.5,-710 429.5,-710 429.5,-696 429.5,-696 429.5,-690 435.5,-684 441.5,-684 441.5,-684 599.5,-684 599.5,-684 605.5,-684 611.5,-690 611.5,-696 611.5,-696 611.5,-710 611.5,-710 611.5,-716 605.5,-722 599.5,-722"/>
<text text-anchor="start" x="441.5" y="-706.4" font-family="DejaVu Sans" font-weight="bold" font-size="12.00" fill="#ffffff">Детермінований рушій</text>
<text text-anchor="start" x="488.5" y="-694.4" font-family="DejaVu Sans" font-weight="bold" font-size="12.00" fill="#ffffff">сценаріїв</text>
</g>
<!-- p_n_eb4c5110ae64 -->
<g id="node5" class="node">
<title>p_n_eb4c5110ae64</title>
<path fill="#b7791f" stroke="#486581" d="M805,-722C805,-722 642,-722 642,-722 636,-722 630,-716 630,-710 630,-710 630,-696 630,-696 630,-690 636,-684 642,-684 642,-684 805,-684 805,-684 811,-684 817,-690 817,-696 817,-696 817,-710 817,-710 817,-716 811,-722 805,-722"/>
<text text-anchor="start" x="669" y="-706.4" font-family="DejaVu Sans" font-weight="bold" font-size="12.00" fill="#ffffff">Сервіс завдань,</text>
<text text-anchor="start" x="642" y="-694.4" font-family="DejaVu Sans" font-weight="bold" font-size="12.00" fill="#ffffff">нагадувань і ескалацій</text>
</g>
<!-- p_n_b10c10dbc143 -->
<g id="node6" class="node">
<title>p_n_b10c10dbc143</title>
<path fill="#3b5bdb" stroke="#486581" d="M989.5,-721C989.5,-721 847.5,-721 847.5,-721 841.5,-721 835.5,-715 835.5,-709 835.5,-709 835.5,-697 835.5,-697 835.5,-691 841.5,-685 847.5,-685 847.5,-685 989.5,-685 989.5,-685 995.5,-685 1001.5,-691 1001.5,-697 1001.5,-697 1001.5,-709 1001.5,-709 1001.5,-715 995.5,-721 989.5,-721"/>
<text text-anchor="start" x="847.5" y="-700.9" font-family="DejaVu Sans" font-weight="bold" font-size="12.00" fill="#ffffff">Інтеграційний шлюз</text>
</g>
<!-- p_n_3145c0474e62 -->
<g id="node7" class="node">
<title>p_n_3145c0474e62</title>
<path fill="#c92a2a" stroke="#486581" d="M1165.5,-722C1165.5,-722 1031.5,-722 1031.5,-722 1025.5,-722 1019.5,-716 1019.5,-710 1019.5,-710 1019.5,-696 1019.5,-696 1019.5,-690 1025.5,-684 1031.5,-684 1031.5,-684 1165.5,-684 1165.5,-684 1171.5,-684 1177.5,-690 1177.5,-696 1177.5,-696 1177.5,-710 1177.5,-710 1177.5,-716 1171.5,-722 1165.5,-722"/>
<text text-anchor="start" x="1031.5" y="-706.4" font-family="DejaVu Sans" font-weight="bold" font-size="12.00" fill="#ffffff">Кризова / екстрена</text>
<text text-anchor="start" x="1072.5" y="-694.4" font-family="DejaVu Sans" font-weight="bold" font-size="12.00" fill="#ffffff">служба</text>
</g>
<!-- p_n_da26d52269a5 -->
<g id="node8" class="node">
<title>p_n_da26d52269a5</title>
<path fill="#c05621" stroke="#486581" d="M1363.5,-721C1363.5,-721 1207.5,-721 1207.5,-721 1201.5,-721 1195.5,-715 1195.5,-709 1195.5,-709 1195.5,-697 1195.5,-697 1195.5,-691 1201.5,-685 1207.5,-685 1207.5,-685 1363.5,-685 1363.5,-685 1369.5,-685 1375.5,-691 1375.5,-697 1375.5,-697 1375.5,-709 1375.5,-709 1375.5,-715 1369.5,-721 1363.5,-721"/>
<text text-anchor="start" x="1207.5" y="-700.9" font-family="DejaVu Sans" font-weight="bold" font-size="12.00" fill="#ffffff">Шина доменних подій</text>
</g>
<!-- p_n_5f5685eeff97 -->
<g id="node9" class="node">
<title>p_n_5f5685eeff97</title>
<path fill="#4a5568" stroke="#486581" d="M1537,-722C1537,-722 1406,-722 1406,-722 1400,-722 1394,-716 1394,-710 1394,-710 1394,-696 1394,-696 1394,-690 1400,-684 1406,-684 1406,-684 1537,-684 1537,-684 1543,-684 1549,-690 1549,-696 1549,-696 1549,-710 1549,-710 1549,-716 1543,-722 1537,-722"/>
<text text-anchor="start" x="1413.5" y="-706.4" font-family="DejaVu Sans" font-weight="bold" font-size="12.00" fill="#ffffff">Сервіс аудиту та</text>
<text text-anchor="start" x="1406" y="-694.4" font-family="DejaVu Sans" font-weight="bold" font-size="12.00" fill="#ffffff">спостережуваності</text>
</g>
<!-- p_n_f0d38fbc8ca4 -->
<g id="node10" class="node">
<title>p_n_f0d38fbc8ca4</title>
<path fill="#6c4ab6" stroke="#486581" d="M1712,-722C1712,-722 1579,-722 1579,-722 1573,-722 1567,-716 1567,-710 1567,-710 1567,-696 1567,-696 1567,-690 1573,-684 1579,-684 1579,-684 1712,-684 1712,-684 1718,-684 1724,-690 1724,-696 1724,-696 1724,-710 1724,-710 1724,-716 1718,-722 1712,-722"/>
<text text-anchor="start" x="1579" y="-706.4" font-family="DejaVu Sans" font-weight="bold" font-size="12.00" fill="#ffffff">Черговий кризовий</text>
<text text-anchor="start" x="1613.5" y="-694.4" font-family="DejaVu Sans" font-weight="bold" font-size="12.00" fill="#ffffff">фахівець</text>
</g>
<!-- p_n_a8676803ace0 -->
<g id="node11" class="node">
<title>p_n_a8676803ace0</title>
<path fill="#6c4ab6" stroke="#486581" d="M1887,-722C1887,-722 1754,-722 1754,-722 1748,-722 1742,-716 1742,-710 1742,-710 1742,-696 1742,-696 1742,-690 1748,-684 1754,-684 1754,-684 1887,-684 1887,-684 1893,-684 1899,-690 1899,-696 1899,-696 1899,-710 1899,-710 1899,-716 1893,-722 1887,-722"/>
<text text-anchor="start" x="1754" y="-706.4" font-family="DejaVu Sans" font-weight="bold" font-size="12.00" fill="#ffffff">Кабінет медичного</text>
<text text-anchor="start" x="1781" y="-694.4" font-family="DejaVu Sans" font-weight="bold" font-size="12.00" fill="#ffffff">працівника</text>
</g>
<!-- p_n_c210e7db8afd -->
<g id="node12" class="node">
<title>p_n_c210e7db8afd</title>
<path fill="#2b6cb0" stroke="#486581" d="M2049.5,-722C2049.5,-722 1929.5,-722 1929.5,-722 1923.5,-722 1917.5,-716 1917.5,-710 1917.5,-710 1917.5,-696 1917.5,-696 1917.5,-690 1923.5,-684 1929.5,-684 1929.5,-684 2049.5,-684 2049.5,-684 2055.5,-684 2061.5,-690 2061.5,-696 2061.5,-696 2061.5,-710 2061.5,-710 2061.5,-716 2055.5,-722 2049.5,-722"/>
<text text-anchor="start" x="1929.5" y="-706.4" font-family="DejaVu Sans" font-weight="bold" font-size="12.00" fill="#ffffff">Сервіс підтримки</text>
<text text-anchor="start" x="1930" y="-694.4" font-family="DejaVu Sans" font-weight="bold" font-size="12.00" fill="#ffffff">клінічних рішень</text>
</g>
<!-- step_01 -->
<g id="node13" class="node">
<title>step_01</title>
<path fill="#ffffff" stroke="#486581" stroke-width="1.5" d="M2389.5,-722C2389.5,-722 2091.5,-722 2091.5,-722 2085.5,-722 2079.5,-716 2079.5,-710 2079.5,-710 2079.5,-696 2079.5,-696 2079.5,-690 2085.5,-684 2091.5,-684 2091.5,-684 2389.5,-684 2389.5,-684 2395.5,-684 2401.5,-690 2401.5,-696 2401.5,-696 2401.5,-710 2401.5,-710 2401.5,-716 2395.5,-722 2389.5,-722"/>
<text text-anchor="start" x="2131.5" y="-706.4" font-family="DejaVu Sans" font-size="12.00"> </text>
<text text-anchor="start" x="2135.5" y="-706.4" font-family="DejaVu Sans" font-weight="bold" font-size="12.00">1.</text>
<text text-anchor="start" x="2148.5" y="-706.4" font-family="DejaVu Sans" font-size="12.00"> Пацієнт → Застосунок пацієнта</text>
<text text-anchor="start" x="2091.5" y="-694.4" font-family="DejaVu Sans" font-size="10.00">Надає відповідь або активує кнопку кризової допомоги</text>
<text text-anchor="start" x="2385.5" y="-694.4" font-family="DejaVu Sans" font-size="12.00"> </text>
</g>
<!-- step_02 -->
<g id="node14" class="node">
<title>step_02</title>
<path fill="#ffffff" stroke="#486581" stroke-width="1.5" d="M2371,-662C2371,-662 2110,-662 2110,-662 2104,-662 2098,-656 2098,-650 2098,-650 2098,-636 2098,-636 2098,-630 2104,-624 2110,-624 2110,-624 2371,-624 2371,-624 2377,-624 2383,-630 2383,-636 2383,-636 2383,-650 2383,-650 2383,-656 2377,-662 2371,-662"/>
<text text-anchor="start" x="2110" y="-646.4" font-family="DejaVu Sans" font-size="12.00"> </text>
<text text-anchor="start" x="2114" y="-646.4" font-family="DejaVu Sans" font-weight="bold" font-size="12.00">2.</text>
<text text-anchor="start" x="2127" y="-646.4" font-family="DejaVu Sans" font-size="12.00"> Застосунок пацієнта → API&#45;шлюз і BFF</text>
<text text-anchor="start" x="2161.5" y="-634.4" font-family="DejaVu Sans" font-size="10.00">Передає пріоритетний запит</text>
<text text-anchor="start" x="2315.5" y="-634.4" font-family="DejaVu Sans" font-size="12.00"> </text>
</g>
<!-- step_01&#45;&gt;step_02 -->
<g id="edge1" class="edge">
<title>step_01&#45;&gt;step_02</title>
<path fill="none" stroke="#7b8794" stroke-width="1.2" d="M2240.5,-683.97C2240.5,-679.32 2240.5,-674.23 2240.5,-669.29"/>
<polygon fill="#7b8794" stroke="#7b8794" stroke-width="1.2" points="2242.95,-669.22 2240.5,-662.22 2238.05,-669.22 2242.95,-669.22"/>
</g>
<!-- step_03 -->
<g id="node15" class="node">
<title>step_03</title>
<path fill="#ffffff" stroke="#486581" stroke-width="1.5" d="M2377,-602C2377,-602 2104,-602 2104,-602 2098,-602 2092,-596 2092,-590 2092,-590 2092,-564 2092,-564 2092,-558 2098,-552 2104,-552 2104,-552 2377,-552 2377,-552 2383,-552 2389,-558 2389,-564 2389,-564 2389,-590 2389,-590 2389,-596 2383,-602 2377,-602"/>
<text text-anchor="start" x="2104" y="-586.4" font-family="DejaVu Sans" font-size="12.00"> </text>
<text text-anchor="start" x="2108" y="-586.4" font-family="DejaVu Sans" font-weight="bold" font-size="12.00">3.</text>
<text text-anchor="start" x="2121" y="-586.4" font-family="DejaVu Sans" font-size="12.00"> API&#45;шлюз і BFF → Детермінований рушій</text>
<text text-anchor="start" x="2211.5" y="-574.4" font-family="DejaVu Sans" font-size="12.00">сценаріїв</text>
<text text-anchor="start" x="2109" y="-562.4" font-family="DejaVu Sans" font-size="10.00">Запускає формальну перевірку кризових правил</text>
<text text-anchor="start" x="2368" y="-562.4" font-family="DejaVu Sans" font-size="12.00"> </text>
</g>
<!-- step_02&#45;&gt;step_03 -->
<g id="edge2" class="edge">
<title>step_02&#45;&gt;step_03</title>
<path fill="none" stroke="#7b8794" stroke-width="1.2" d="M2240.5,-623.83C2240.5,-619.36 2240.5,-614.45 2240.5,-609.55"/>
<polygon fill="#7b8794" stroke="#7b8794" stroke-width="1.2" points="2242.95,-609.43 2240.5,-602.43 2238.05,-609.43 2242.95,-609.43"/>
</g>
<!-- step_04 -->
<g id="node16" class="node">
<title>step_04</title>
<path fill="#ffffff" stroke="#486581" stroke-width="1.5" d="M2408,-530C2408,-530 2073,-530 2073,-530 2067,-530 2061,-524 2061,-518 2061,-518 2061,-480 2061,-480 2061,-474 2067,-468 2073,-468 2073,-468 2408,-468 2408,-468 2414,-468 2420,-474 2420,-480 2420,-480 2420,-518 2420,-518 2420,-524 2414,-530 2408,-530"/>
<text text-anchor="start" x="2158.5" y="-514.4" font-family="DejaVu Sans" font-size="12.00"> </text>
<text text-anchor="start" x="2162.5" y="-514.4" font-family="DejaVu Sans" font-weight="bold" font-size="12.00">4.</text>
<text text-anchor="start" x="2175.5" y="-514.4" font-family="DejaVu Sans" font-size="12.00"> Детермінований рушій</text>
<text text-anchor="start" x="2112.5" y="-502.4" font-family="DejaVu Sans" font-size="12.00">сценаріїв → Сервіс завдань, нагадувань і</text>
<text text-anchor="start" x="2208.5" y="-490.4" font-family="DejaVu Sans" font-size="12.00">ескалацій</text>
<text text-anchor="start" x="2073" y="-478.4" font-family="DejaVu Sans" font-size="10.00">Створює критичну ескалацію з максимальним строком реакції</text>
<text text-anchor="start" x="2404" y="-478.4" font-family="DejaVu Sans" font-size="12.00"> </text>
</g>
<!-- step_03&#45;&gt;step_04 -->
<g id="edge3" class="edge">
<title>step_03&#45;&gt;step_04</title>
<path fill="none" stroke="#7b8794" stroke-width="1.2" d="M2240.5,-551.95C2240.5,-547.28 2240.5,-542.28 2240.5,-537.29"/>
<polygon fill="#7b8794" stroke="#7b8794" stroke-width="1.2" points="2242.95,-537.04 2240.5,-530.04 2238.05,-537.04 2242.95,-537.04"/>
</g>
<!-- step_05 -->
<g id="node17" class="node">
<title>step_05</title>
<path fill="#ffffff" stroke="#486581" stroke-width="1.5" d="M2346.5,-446C2346.5,-446 2134.5,-446 2134.5,-446 2128.5,-446 2122.5,-440 2122.5,-434 2122.5,-434 2122.5,-408 2122.5,-408 2122.5,-402 2128.5,-396 2134.5,-396 2134.5,-396 2346.5,-396 2346.5,-396 2352.5,-396 2358.5,-402 2358.5,-408 2358.5,-408 2358.5,-434 2358.5,-434 2358.5,-440 2352.5,-446 2346.5,-446"/>
<text text-anchor="start" x="2139.5" y="-430.4" font-family="DejaVu Sans" font-size="12.00"> </text>
<text text-anchor="start" x="2143.5" y="-430.4" font-family="DejaVu Sans" font-weight="bold" font-size="12.00">5.</text>
<text text-anchor="start" x="2156.5" y="-430.4" font-family="DejaVu Sans" font-size="12.00"> Сервіс завдань, нагадувань і</text>
<text text-anchor="start" x="2136.5" y="-418.4" font-family="DejaVu Sans" font-size="12.00">ескалацій → Інтеграційний шлюз</text>
<text text-anchor="start" x="2134.5" y="-406.4" font-family="DejaVu Sans" font-size="10.00">Запускає основний і резервний канали</text>
<text text-anchor="start" x="2342.5" y="-406.4" font-family="DejaVu Sans" font-size="12.00"> </text>
</g>
<!-- step_04&#45;&gt;step_05 -->
<g id="edge4" class="edge">
<title>step_04&#45;&gt;step_05</title>
<path fill="none" stroke="#7b8794" stroke-width="1.2" d="M2240.5,-467.96C2240.5,-463.28 2240.5,-458.43 2240.5,-453.71"/>
<polygon fill="#7b8794" stroke="#7b8794" stroke-width="1.2" points="2242.95,-453.45 2240.5,-446.45 2238.05,-453.45 2242.95,-453.45"/>
</g>
<!-- step_06 -->
<g id="node18" class="node">
<title>step_06</title>
<path fill="#ffffff" stroke="#486581" stroke-width="1.5" d="M2409,-374C2409,-374 2072,-374 2072,-374 2066,-374 2060,-368 2060,-362 2060,-362 2060,-348 2060,-348 2060,-342 2066,-336 2072,-336 2072,-336 2409,-336 2409,-336 2415,-336 2421,-342 2421,-348 2421,-348 2421,-362 2421,-362 2421,-368 2415,-374 2409,-374"/>
<text text-anchor="start" x="2072" y="-358.4" font-family="DejaVu Sans" font-size="12.00"> </text>
<text text-anchor="start" x="2076" y="-358.4" font-family="DejaVu Sans" font-weight="bold" font-size="12.00">6.</text>
<text text-anchor="start" x="2089" y="-358.4" font-family="DejaVu Sans" font-size="12.00"> Інтеграційний шлюз → Кризова / екстрена служба</text>
<text text-anchor="start" x="2102.5" y="-346.4" font-family="DejaVu Sans" font-size="10.00">Передає мінімально необхідну кризову інформацію</text>
<text text-anchor="start" x="2374.5" y="-346.4" font-family="DejaVu Sans" font-size="12.00"> </text>
</g>
<!-- step_05&#45;&gt;step_06 -->
<g id="edge5" class="edge">
<title>step_05&#45;&gt;step_06</title>
<path fill="none" stroke="#7b8794" stroke-width="1.2" d="M2240.5,-395.8C2240.5,-391.07 2240.5,-386.08 2240.5,-381.31"/>
<polygon fill="#7b8794" stroke="#7b8794" stroke-width="1.2" points="2242.95,-381.04 2240.5,-374.04 2238.05,-381.04 2242.95,-381.04"/>
</g>
<!-- step_07 -->
<g id="node19" class="node">
<title>step_07</title>
<path fill="#ffffff" stroke="#486581" stroke-width="1.5" d="M2347.5,-314C2347.5,-314 2133.5,-314 2133.5,-314 2127.5,-314 2121.5,-308 2121.5,-302 2121.5,-302 2121.5,-276 2121.5,-276 2121.5,-270 2127.5,-264 2133.5,-264 2133.5,-264 2347.5,-264 2347.5,-264 2353.5,-264 2359.5,-270 2359.5,-276 2359.5,-276 2359.5,-302 2359.5,-302 2359.5,-308 2353.5,-314 2347.5,-314"/>
<text text-anchor="start" x="2158.5" y="-298.4" font-family="DejaVu Sans" font-size="12.00"> </text>
<text text-anchor="start" x="2162.5" y="-298.4" font-family="DejaVu Sans" font-weight="bold" font-size="12.00">7.</text>
<text text-anchor="start" x="2175.5" y="-298.4" font-family="DejaVu Sans" font-size="12.00"> Детермінований рушій</text>
<text text-anchor="start" x="2133.5" y="-286.4" font-family="DejaVu Sans" font-size="12.00">сценаріїв → Шина доменних подій</text>
<text text-anchor="start" x="2143" y="-274.4" font-family="DejaVu Sans" font-size="10.00">Публікує подію червоного прапорця</text>
<text text-anchor="start" x="2334" y="-274.4" font-family="DejaVu Sans" font-size="12.00"> </text>
</g>
<!-- step_06&#45;&gt;step_07 -->
<g id="edge6" class="edge">
<title>step_06&#45;&gt;step_07</title>
<path fill="none" stroke="#7b8794" stroke-width="1.2" d="M2240.5,-335.83C2240.5,-331.36 2240.5,-326.45 2240.5,-321.55"/>
<polygon fill="#7b8794" stroke="#7b8794" stroke-width="1.2" points="2242.95,-321.43 2240.5,-314.43 2238.05,-321.43 2242.95,-321.43"/>
</g>
<!-- step_08 -->
<g id="node20" class="node">
<title>step_08</title>
<path fill="#ffffff" stroke="#486581" stroke-width="1.5" d="M2381.5,-242C2381.5,-242 2099.5,-242 2099.5,-242 2093.5,-242 2087.5,-236 2087.5,-230 2087.5,-230 2087.5,-204 2087.5,-204 2087.5,-198 2093.5,-192 2099.5,-192 2099.5,-192 2381.5,-192 2381.5,-192 2387.5,-192 2393.5,-198 2393.5,-204 2393.5,-204 2393.5,-230 2393.5,-230 2393.5,-236 2387.5,-242 2381.5,-242"/>
<text text-anchor="start" x="2099.5" y="-226.4" font-family="DejaVu Sans" font-size="12.00"> </text>
<text text-anchor="start" x="2103.5" y="-226.4" font-family="DejaVu Sans" font-weight="bold" font-size="12.00">8.</text>
<text text-anchor="start" x="2116.5" y="-226.4" font-family="DejaVu Sans" font-size="12.00"> Шина доменних подій → Сервіс аудиту та</text>
<text text-anchor="start" x="2180" y="-214.4" font-family="DejaVu Sans" font-size="12.00">спостережуваності</text>
<text text-anchor="start" x="2145" y="-202.4" font-family="DejaVu Sans" font-size="10.00">Записує незмінний доказ ескалації</text>
<text text-anchor="start" x="2332" y="-202.4" font-family="DejaVu Sans" font-size="12.00"> </text>
</g>
<!-- step_07&#45;&gt;step_08 -->
<g id="edge7" class="edge">
<title>step_07&#45;&gt;step_08</title>
<path fill="none" stroke="#7b8794" stroke-width="1.2" d="M2240.5,-263.91C2240.5,-259.23 2240.5,-254.27 2240.5,-249.4"/>
<polygon fill="#7b8794" stroke="#7b8794" stroke-width="1.2" points="2242.95,-249.37 2240.5,-242.37 2238.05,-249.37 2242.95,-249.37"/>
</g>
<!-- step_09 -->
<g id="node21" class="node">
<title>step_09</title>
<path fill="#ffffff" stroke="#486581" stroke-width="1.5" d="M2447.5,-170C2447.5,-170 2033.5,-170 2033.5,-170 2027.5,-170 2021.5,-164 2021.5,-158 2021.5,-158 2021.5,-144 2021.5,-144 2021.5,-138 2027.5,-132 2033.5,-132 2033.5,-132 2447.5,-132 2447.5,-132 2453.5,-132 2459.5,-138 2459.5,-144 2459.5,-144 2459.5,-158 2459.5,-158 2459.5,-164 2453.5,-170 2447.5,-170"/>
<text text-anchor="start" x="2033.5" y="-154.4" font-family="DejaVu Sans" font-size="12.00"> </text>
<text text-anchor="start" x="2037.5" y="-154.4" font-family="DejaVu Sans" font-weight="bold" font-size="12.00">9.</text>
<text text-anchor="start" x="2050.5" y="-154.4" font-family="DejaVu Sans" font-size="12.00"> Черговий кризовий фахівець → Кабінет медичного працівника</text>
<text text-anchor="start" x="2134.5" y="-142.4" font-family="DejaVu Sans" font-size="10.00">Відкриває пріоритетну картку випадку</text>
<text text-anchor="start" x="2342.5" y="-142.4" font-family="DejaVu Sans" font-size="12.00"> </text>
</g>
<!-- step_08&#45;&gt;step_09 -->
<g id="edge8" class="edge">
<title>step_08&#45;&gt;step_09</title>
<path fill="none" stroke="#7b8794" stroke-width="1.2" d="M2240.5,-191.8C2240.5,-187.07 2240.5,-182.08 2240.5,-177.31"/>
<polygon fill="#7b8794" stroke="#7b8794" stroke-width="1.2" points="2242.95,-177.04 2240.5,-170.04 2238.05,-177.04 2242.95,-177.04"/>
</g>
<!-- step_10 -->
<g id="node22" class="node">
<title>step_10</title>
<path fill="#ffffff" stroke="#486581" stroke-width="1.5" d="M2407,-110C2407,-110 2074,-110 2074,-110 2068,-110 2062,-104 2062,-98 2062,-98 2062,-84 2062,-84 2062,-78 2068,-72 2074,-72 2074,-72 2407,-72 2407,-72 2413,-72 2419,-78 2419,-84 2419,-84 2419,-98 2419,-98 2419,-104 2413,-110 2407,-110"/>
<text text-anchor="start" x="2074" y="-94.4" font-family="DejaVu Sans" font-size="12.00"> </text>
<text text-anchor="start" x="2078" y="-94.4" font-family="DejaVu Sans" font-weight="bold" font-size="12.00">10.</text>
<text text-anchor="start" x="2100" y="-94.4" font-family="DejaVu Sans" font-size="12.00"> Кабінет медичного працівника → API&#45;шлюз і BFF</text>
<text text-anchor="start" x="2142" y="-82.4" font-family="DejaVu Sans" font-size="10.00">Фіксує контакт, оцінку та вжиту дію</text>
<text text-anchor="start" x="2335" y="-82.4" font-family="DejaVu Sans" font-size="12.00"> </text>
</g>
<!-- step_09&#45;&gt;step_10 -->
<g id="edge9" class="edge">
<title>step_09&#45;&gt;step_10</title>
<path fill="none" stroke="#7b8794" stroke-width="1.2" d="M2240.5,-131.97C2240.5,-127.32 2240.5,-122.23 2240.5,-117.29"/>
<polygon fill="#7b8794" stroke="#7b8794" stroke-width="1.2" points="2242.95,-117.22 2240.5,-110.22 2238.05,-117.22 2242.95,-117.22"/>
</g>
<!-- step_11 -->
<g id="node23" class="node">
<title>step_11</title>
<path fill="#ffffff" stroke="#486581" stroke-width="1.5" d="M2418,-50C2418,-50 2063,-50 2063,-50 2057,-50 2051,-44 2051,-38 2051,-38 2051,-12 2051,-12 2051,-6 2057,0 2063,0 2063,0 2418,0 2418,0 2424,0 2430,-6 2430,-12 2430,-12 2430,-38 2430,-38 2430,-44 2424,-50 2418,-50"/>
<text text-anchor="start" x="2086.5" y="-34.4" font-family="DejaVu Sans" font-size="12.00"> </text>
<text text-anchor="start" x="2090.5" y="-34.4" font-family="DejaVu Sans" font-weight="bold" font-size="12.00">11.</text>
<text text-anchor="start" x="2112.5" y="-34.4" font-family="DejaVu Sans" font-size="12.00"> API&#45;шлюз і BFF → Сервіс підтримки клінічних</text>
<text text-anchor="start" x="2218.5" y="-22.4" font-family="DejaVu Sans" font-size="12.00">рішень</text>
<text text-anchor="start" x="2063" y="-10.4" font-family="DejaVu Sans" font-size="10.00">Оновлює підтверджену траєкторію та подальші контрольні точки</text>
<text text-anchor="start" x="2414" y="-10.4" font-family="DejaVu Sans" font-size="12.00"> </text>
</g>
<!-- step_10&#45;&gt;step_11 -->
<g id="edge10" class="edge">
<title>step_10&#45;&gt;step_11</title>
<path fill="none" stroke="#7b8794" stroke-width="1.2" d="M2240.5,-71.83C2240.5,-67.36 2240.5,-62.45 2240.5,-57.55"/>
<polygon fill="#7b8794" stroke="#7b8794" stroke-width="1.2" points="2242.95,-57.43 2240.5,-50.43 2238.05,-57.43 2242.95,-57.43"/>
</g>
</g>
</svg>
