<?xml version="1.0" encoding="UTF-8" standalone="no"?>
<!DOCTYPE svg PUBLIC "-//W3C//DTD SVG 1.1//EN"
 "http://www.w3.org/Graphics/SVG/1.1/DTD/svg11.dtd">
<!-- Generated by graphviz version 2.42.4 (0)
 -->
<!-- Title: G Pages: 1 -->
<svg width="1502pt" height="612pt"
 viewBox="0.00 0.00 1502.40 612.40" xmlns="http://www.w3.org/2000/svg" xmlns:xlink="http://www.w3.org/1999/xlink">
<g id="graph0" class="graph" transform="scale(1 1) rotate(0) translate(25.2 587.2)">
<title>G</title>
<polygon fill="white" stroke="transparent" points="-25.2,25.2 -25.2,-587.2 1477.2,-587.2 1477.2,25.2 -25.2,25.2"/>
<text text-anchor="start" x="114.5" y="-547.8" font-family="DejaVu Sans" font-weight="bold" font-size="14.00">L4.02 — Агрегат виконання сценарію</text>
<text text-anchor="start" x="8" y="-535.4" font-family="DejaVu Sans" font-size="12.00">Логічна структура сесії, результатів, ризиків, клінічного підтвердження й аудиту.</text>
<!-- n_3f0c95ec6d55 -->
<g id="node1" class="node">
<title>n_3f0c95ec6d55</title>
<polygon fill="#ffe8a1" stroke="#486581" stroke-width="3" points="152,-408 0,-408 0,-404 -4,-404 -4,-400 0,-400 0,-380 -4,-380 -4,-376 0,-376 0,-372 152,-372 152,-408"/>
<polyline fill="none" stroke="#486581" stroke-width="3" points="0,-404 4,-404 4,-400 0,-400 "/>
<polyline fill="none" stroke="#486581" stroke-width="3" points="0,-380 4,-380 4,-376 0,-376 "/>
<text text-anchor="start" x="10" y="-392.4" font-family="DejaVu Sans" font-weight="bold" font-size="12.00" fill="#4a3b00">AlgorithmDefinition</text>
<text text-anchor="start" x="24" y="-382" font-family="DejaVu Sans" font-size="10.00" fill="#4a3b00">[Логічний елемент]</text>
</g>
<!-- n_512b30c3fc86 -->
<g id="node2" class="node">
<title>n_512b30c3fc86</title>
<polygon fill="#fff9db" stroke="#486581" stroke-width="1.5" points="365,-408 241,-408 241,-404 237,-404 237,-400 241,-400 241,-380 237,-380 237,-376 241,-376 241,-372 365,-372 365,-408"/>
<polyline fill="none" stroke="#486581" stroke-width="1.5" points="241,-404 245,-404 245,-400 241,-400 "/>
<polyline fill="none" stroke="#486581" stroke-width="1.5" points="241,-380 245,-380 245,-376 241,-376 "/>
<text text-anchor="start" x="254.5" y="-392.4" font-family="DejaVu Sans" font-weight="bold" font-size="12.00" fill="#4a3b00">AnswerRecord</text>
<text text-anchor="start" x="251" y="-382" font-family="DejaVu Sans" font-size="10.00" fill="#4a3b00">[Логічний елемент]</text>
</g>
<!-- n_186d9d8582fc -->
<g id="node3" class="node">
<title>n_186d9d8582fc</title>
<polygon fill="#fff9db" stroke="#486581" stroke-width="1.5" points="476,-156 352,-156 352,-152 348,-152 348,-148 352,-148 352,-128 348,-128 348,-124 352,-124 352,-120 476,-120 476,-156"/>
<polyline fill="none" stroke="#486581" stroke-width="1.5" points="352,-152 356,-152 356,-148 352,-148 "/>
<polyline fill="none" stroke="#486581" stroke-width="1.5" points="352,-128 356,-128 356,-124 352,-124 "/>
<text text-anchor="start" x="377" y="-140.4" font-family="DejaVu Sans" font-weight="bold" font-size="12.00" fill="#4a3b00">AuditEvent</text>
<text text-anchor="start" x="362" y="-130" font-family="DejaVu Sans" font-size="10.00" fill="#4a3b00">[Логічний елемент]</text>
</g>
<!-- n_5eee008fa7fc -->
<g id="node4" class="node">
<title>n_5eee008fa7fc</title>
<polygon fill="#fff9db" stroke="#486581" stroke-width="1.5" points="632,-156 508,-156 508,-152 504,-152 504,-148 508,-148 508,-128 504,-128 504,-124 508,-124 508,-120 632,-120 632,-156"/>
<polyline fill="none" stroke="#486581" stroke-width="1.5" points="508,-152 512,-152 512,-148 508,-148 "/>
<polyline fill="none" stroke="#486581" stroke-width="1.5" points="508,-128 512,-128 512,-124 508,-124 "/>
<text text-anchor="start" x="520" y="-140.4" font-family="DejaVu Sans" font-weight="bold" font-size="12.00" fill="#4a3b00">CareTrajectory</text>
<text text-anchor="start" x="518" y="-130" font-family="DejaVu Sans" font-size="10.00" fill="#4a3b00">[Логічний елемент]</text>
</g>
<!-- n_1a0e820da4a3 -->
<g id="node13" class="node">
<title>n_1a0e820da4a3</title>
<polygon fill="#fff9db" stroke="#486581" stroke-width="1.5" points="632,-36 508,-36 508,-32 504,-32 504,-28 508,-28 508,-8 504,-8 504,-4 508,-4 508,0 632,0 632,-36"/>
<polyline fill="none" stroke="#486581" stroke-width="1.5" points="508,-32 512,-32 512,-28 508,-28 "/>
<polyline fill="none" stroke="#486581" stroke-width="1.5" points="508,-8 512,-8 512,-4 508,-4 "/>
<text text-anchor="start" x="524" y="-20.4" font-family="DejaVu Sans" font-weight="bold" font-size="12.00" fill="#4a3b00">FollowUpTask</text>
<text text-anchor="start" x="518" y="-10" font-family="DejaVu Sans" font-size="10.00" fill="#4a3b00">[Логічний елемент]</text>
</g>
<!-- n_5eee008fa7fc&#45;&gt;n_1a0e820da4a3 -->
<g id="edge11" class="edge">
<title>n_5eee008fa7fc&#45;&gt;n_1a0e820da4a3</title>
<path fill="none" stroke="#486581" stroke-width="1.4" d="M570,-119.84C570,-100 570,-67.16 570,-44.37"/>
<polygon fill="#486581" stroke="#486581" stroke-width="1.4" points="572.8,-44.18 570,-36.18 567.2,-44.18 572.8,-44.18"/>
<text text-anchor="start" x="570" y="-75.2" font-family="DejaVu Sans" font-size="11.00" fill="#334e68">Породжує</text>
</g>
<!-- n_44bafc75a4dc -->
<g id="node5" class="node">
<title>n_44bafc75a4dc</title>
<polygon fill="#fff9db" stroke="#486581" stroke-width="1.5" points="605,-276 481,-276 481,-272 477,-272 477,-268 481,-268 481,-248 477,-248 477,-244 481,-244 481,-240 605,-240 605,-276"/>
<polyline fill="none" stroke="#486581" stroke-width="1.5" points="481,-272 485,-272 485,-268 481,-268 "/>
<polyline fill="none" stroke="#486581" stroke-width="1.5" points="481,-248 485,-248 485,-244 481,-244 "/>
<text text-anchor="start" x="491" y="-260.4" font-family="DejaVu Sans" font-weight="bold" font-size="12.00" fill="#4a3b00">ClinicalDecision</text>
<text text-anchor="start" x="491" y="-250" font-family="DejaVu Sans" font-size="10.00" fill="#4a3b00">[Логічний елемент]</text>
</g>
<!-- n_44bafc75a4dc&#45;&gt;n_186d9d8582fc -->
<g id="edge13" class="edge">
<title>n_44bafc75a4dc&#45;&gt;n_186d9d8582fc</title>
<path fill="none" stroke="#486581" stroke-width="1.4" d="M523.69,-239.94C506.15,-224.45 483,-204 483,-204 483,-204 458.01,-180.46 438.11,-161.71"/>
<polygon fill="#486581" stroke="#486581" stroke-width="1.4" points="439.87,-159.53 432.13,-156.08 436.03,-163.6 439.87,-159.53"/>
<text text-anchor="start" x="483" y="-195.2" font-family="DejaVu Sans" font-size="11.00" fill="#334e68">Фіксується</text>
</g>
<!-- n_44bafc75a4dc&#45;&gt;n_5eee008fa7fc -->
<g id="edge10" class="edge">
<title>n_44bafc75a4dc&#45;&gt;n_5eee008fa7fc</title>
<path fill="none" stroke="#486581" stroke-width="1.4" d="M546.93,-239.84C551.49,-219.92 559.05,-186.87 564.26,-164.07"/>
<polygon fill="#486581" stroke="#486581" stroke-width="1.4" points="567.01,-164.6 566.07,-156.18 561.56,-163.35 567.01,-164.6"/>
<text text-anchor="start" x="558" y="-195.2" font-family="DejaVu Sans" font-size="11.00" fill="#334e68">Затверджує</text>
</g>
<!-- n_93f0c6ac6663 -->
<g id="node6" class="node">
<title>n_93f0c6ac6663</title>
<polygon fill="#fff9db" stroke="#486581" stroke-width="1.5" points="622.5,-408 463.5,-408 463.5,-404 459.5,-404 459.5,-400 463.5,-400 463.5,-380 459.5,-380 459.5,-376 463.5,-376 463.5,-372 622.5,-372 622.5,-408"/>
<polyline fill="none" stroke="#486581" stroke-width="1.5" points="463.5,-404 467.5,-404 467.5,-400 463.5,-400 "/>
<polyline fill="none" stroke="#486581" stroke-width="1.5" points="463.5,-380 467.5,-380 467.5,-376 463.5,-376 "/>
<text text-anchor="start" x="473.5" y="-392.4" font-family="DejaVu Sans" font-weight="bold" font-size="12.00" fill="#4a3b00">ClinicalDecisionDraft</text>
<text text-anchor="start" x="491" y="-382" font-family="DejaVu Sans" font-size="10.00" fill="#4a3b00">[Логічний елемент]</text>
</g>
<!-- n_93f0c6ac6663&#45;&gt;n_44bafc75a4dc -->
<g id="edge9" class="edge">
<title>n_93f0c6ac6663&#45;&gt;n_44bafc75a4dc</title>
<path fill="none" stroke="#486581" stroke-width="1.4" d="M543,-371.74C543,-349.4 543,-310.29 543,-284.52"/>
<polygon fill="#486581" stroke="#486581" stroke-width="1.4" points="545.8,-284.33 543,-276.33 540.2,-284.33 545.8,-284.33"/>
<text text-anchor="start" x="543" y="-327.2" font-family="DejaVu Sans" font-size="11.00" fill="#334e68">Підтверджується або замінюється</text>
<text text-anchor="start" x="616.5" y="-315.2" font-family="DejaVu Sans" font-size="11.00" fill="#334e68">фахівцем</text>
</g>
<!-- n_20ac7bf1eeb7 -->
<g id="node7" class="node">
<title>n_20ac7bf1eeb7</title>
<polygon fill="#fff9db" stroke="#486581" stroke-width="1.5" points="811.5,-408 654.5,-408 654.5,-404 650.5,-404 650.5,-400 654.5,-400 654.5,-380 650.5,-380 650.5,-376 654.5,-376 654.5,-372 811.5,-372 811.5,-408"/>
<polyline fill="none" stroke="#486581" stroke-width="1.5" points="654.5,-404 658.5,-404 658.5,-400 654.5,-400 "/>
<polyline fill="none" stroke="#486581" stroke-width="1.5" points="654.5,-380 658.5,-380 658.5,-376 654.5,-376 "/>
<text text-anchor="start" x="664.5" y="-392.4" font-family="DejaVu Sans" font-weight="bold" font-size="12.00" fill="#4a3b00">MeasurementResult</text>
<text text-anchor="start" x="681" y="-382" font-family="DejaVu Sans" font-size="10.00" fill="#4a3b00">[Логічний елемент]</text>
</g>
<!-- n_873db629ed11 -->
<g id="node8" class="node">
<title>n_873db629ed11</title>
<polygon fill="#fff9db" stroke="#486581" stroke-width="1.5" points="968,-408 844,-408 844,-404 840,-404 840,-400 844,-400 844,-380 840,-380 840,-376 844,-376 844,-372 968,-372 968,-408"/>
<polyline fill="none" stroke="#486581" stroke-width="1.5" points="844,-404 848,-404 848,-400 844,-400 "/>
<polyline fill="none" stroke="#486581" stroke-width="1.5" points="844,-380 848,-380 848,-376 844,-376 "/>
<text text-anchor="start" x="854.5" y="-392.4" font-family="DejaVu Sans" font-weight="bold" font-size="12.00" fill="#4a3b00">PatientContext</text>
<text text-anchor="start" x="854" y="-382" font-family="DejaVu Sans" font-size="10.00" fill="#4a3b00">[Логічний елемент]</text>
</g>
<!-- n_1e633f65781d -->
<g id="node9" class="node">
<title>n_1e633f65781d</title>
<polygon fill="#fff9db" stroke="#c92a2a" stroke-width="3" points="1124,-408 1000,-408 1000,-404 996,-404 996,-400 1000,-400 1000,-380 996,-380 996,-376 1000,-376 1000,-372 1124,-372 1124,-408"/>
<polyline fill="none" stroke="#c92a2a" stroke-width="3" points="1000,-404 1004,-404 1004,-400 1000,-400 "/>
<polyline fill="none" stroke="#c92a2a" stroke-width="3" points="1000,-380 1004,-380 1004,-376 1000,-376 "/>
<text text-anchor="start" x="1033" y="-392.4" font-family="DejaVu Sans" font-weight="bold" font-size="12.00" fill="#4a3b00">RiskFlag</text>
<text text-anchor="start" x="1010" y="-382" font-family="DejaVu Sans" font-size="10.00" fill="#4a3b00">[Логічний елемент]</text>
</g>
<!-- n_8007ddd991bc -->
<g id="node10" class="node">
<title>n_8007ddd991bc</title>
<polygon fill="#ffe8a1" stroke="#486581" stroke-width="3" points="799,-528 667,-528 667,-524 663,-524 663,-520 667,-520 667,-500 663,-500 663,-496 667,-496 667,-492 799,-492 799,-528"/>
<polyline fill="none" stroke="#486581" stroke-width="3" points="667,-524 671,-524 671,-520 667,-520 "/>
<polyline fill="none" stroke="#486581" stroke-width="3" points="667,-500 671,-500 671,-496 667,-496 "/>
<text text-anchor="start" x="677" y="-512.4" font-family="DejaVu Sans" font-weight="bold" font-size="12.00" fill="#4a3b00">ScenarioSession</text>
<text text-anchor="start" x="681" y="-502" font-family="DejaVu Sans" font-size="10.00" fill="#4a3b00">[Логічний елемент]</text>
</g>
<!-- n_8007ddd991bc&#45;&gt;n_3f0c95ec6d55 -->
<g id="edge1" class="edge">
<title>n_8007ddd991bc&#45;&gt;n_3f0c95ec6d55</title>
<path fill="none" stroke="#486581" stroke-width="1.4" d="M666.73,-503.35C506.46,-489.7 111,-456 111,-456 111,-456 98.97,-433.66 89.02,-415.17"/>
<polygon fill="#486581" stroke="#486581" stroke-width="1.4" points="91.45,-413.79 85.2,-408.08 86.52,-416.45 91.45,-413.79"/>
<text text-anchor="start" x="111" y="-447.2" font-family="DejaVu Sans" font-size="11.00" fill="#334e68">Посилається на закріплену версію</text>
</g>
<!-- n_8007ddd991bc&#45;&gt;n_512b30c3fc86 -->
<g id="edge4" class="edge">
<title>n_8007ddd991bc&#45;&gt;n_512b30c3fc86</title>
<path fill="none" stroke="#486581" stroke-width="1.4" d="M666.99,-500.43C551.52,-485.43 325,-456 325,-456 325,-456 317.57,-434.05 311.35,-415.67"/>
<polygon fill="#486581" stroke="#486581" stroke-width="1.4" points="314,-414.76 308.78,-408.08 308.69,-416.55 314,-414.76"/>
<text text-anchor="start" x="325" y="-447.2" font-family="DejaVu Sans" font-size="11.00" fill="#334e68">Накопичує</text>
</g>
<!-- n_8007ddd991bc&#45;&gt;n_186d9d8582fc -->
<g id="edge12" class="edge">
<title>n_8007ddd991bc&#45;&gt;n_186d9d8582fc</title>
<path fill="none" stroke="#486581" stroke-width="1.4" d="M684.81,-491.98C603.3,-463.2 447,-408 447,-408 447,-408 425.29,-231.07 417.09,-164.19"/>
<polygon fill="#486581" stroke="#486581" stroke-width="1.4" points="419.87,-163.84 416.11,-156.24 414.31,-164.52 419.87,-163.84"/>
<text text-anchor="start" x="438" y="-321.2" font-family="DejaVu Sans" font-size="11.00" fill="#334e68">Публікує</text>
</g>
<!-- n_8007ddd991bc&#45;&gt;n_93f0c6ac6663 -->
<g id="edge8" class="edge">
<title>n_8007ddd991bc&#45;&gt;n_93f0c6ac6663</title>
<path fill="none" stroke="#486581" stroke-width="1.4" d="M701.77,-491.94C673.42,-476.45 636,-456 636,-456 636,-456 601.15,-431.64 574.11,-412.75"/>
<polygon fill="#486581" stroke="#486581" stroke-width="1.4" points="575.6,-410.37 567.43,-408.08 572.39,-414.96 575.6,-410.37"/>
<text text-anchor="start" x="636" y="-447.2" font-family="DejaVu Sans" font-size="11.00" fill="#334e68">Формує проєкт</text>
</g>
<!-- n_8007ddd991bc&#45;&gt;n_20ac7bf1eeb7 -->
<g id="edge5" class="edge">
<title>n_8007ddd991bc&#45;&gt;n_20ac7bf1eeb7</title>
<path fill="none" stroke="#486581" stroke-width="1.4" d="M733,-491.84C733,-472 733,-439.16 733,-416.37"/>
<polygon fill="#486581" stroke="#486581" stroke-width="1.4" points="735.8,-416.18 733,-408.18 730.2,-416.18 735.8,-416.18"/>
<text text-anchor="start" x="733" y="-447.2" font-family="DejaVu Sans" font-size="11.00" fill="#334e68">Накопичує</text>
</g>
<!-- n_8007ddd991bc&#45;&gt;n_873db629ed11 -->
<g id="edge2" class="edge">
<title>n_8007ddd991bc&#45;&gt;n_873db629ed11</title>
<path fill="none" stroke="#486581" stroke-width="1.4" d="M758.16,-491.84C788.78,-470.96 840.53,-435.66 873.97,-412.85"/>
<polygon fill="#486581" stroke="#486581" stroke-width="1.4" points="875.78,-415 880.81,-408.18 872.63,-410.37 875.78,-415"/>
<text text-anchor="start" x="825" y="-447.2" font-family="DejaVu Sans" font-size="11.00" fill="#334e68">Містить мінімальний контекст</text>
</g>
<!-- n_8007ddd991bc&#45;&gt;n_1e633f65781d -->
<g id="edge7" class="edge">
<title>n_8007ddd991bc&#45;&gt;n_1e633f65781d</title>
<path fill="none" stroke="#486581" stroke-width="1.4" d="M799.24,-496.51C882.31,-480.84 1014,-456 1014,-456 1014,-456 1030.79,-433.26 1044.51,-414.68"/>
<polygon fill="#486581" stroke="#486581" stroke-width="1.4" points="1046.89,-416.18 1049.39,-408.08 1042.38,-412.85 1046.89,-416.18"/>
<text text-anchor="start" x="1023" y="-447.2" font-family="DejaVu Sans" font-size="11.00" fill="#334e68">Формує</text>
</g>
<!-- n_79c359a39f47 -->
<g id="node11" class="node">
<title>n_79c359a39f47</title>
<polygon fill="#fff9db" stroke="#c92a2a" stroke-width="3" points="1280,-408 1156,-408 1156,-404 1152,-404 1152,-400 1156,-400 1156,-380 1152,-380 1152,-376 1156,-376 1156,-372 1280,-372 1280,-408"/>
<polyline fill="none" stroke="#c92a2a" stroke-width="3" points="1156,-404 1160,-404 1160,-400 1156,-400 "/>
<polyline fill="none" stroke="#c92a2a" stroke-width="3" points="1156,-380 1160,-380 1160,-376 1156,-376 "/>
<text text-anchor="start" x="1177" y="-392.4" font-family="DejaVu Sans" font-weight="bold" font-size="12.00" fill="#4a3b00">ScoreResult</text>
<text text-anchor="start" x="1166" y="-382" font-family="DejaVu Sans" font-size="10.00" fill="#4a3b00">[Логічний елемент]</text>
</g>
<!-- n_8007ddd991bc&#45;&gt;n_79c359a39f47 -->
<g id="edge6" class="edge">
<title>n_8007ddd991bc&#45;&gt;n_79c359a39f47</title>
<path fill="none" stroke="#486581" stroke-width="1.4" d="M799.13,-498.78C898.81,-483.38 1076,-456 1076,-456 1076,-456 1131.73,-430.49 1173.36,-411.43"/>
<polygon fill="#486581" stroke="#486581" stroke-width="1.4" points="1174.58,-413.95 1180.69,-408.08 1172.25,-408.86 1174.58,-413.95"/>
<text text-anchor="start" x="1100" y="-447.2" font-family="DejaVu Sans" font-size="11.00" fill="#334e68">Обчислює</text>
</g>
<!-- n_947df799f6a3 -->
<g id="node12" class="node">
<title>n_947df799f6a3</title>
<polygon fill="#fff9db" stroke="#486581" stroke-width="1.5" points="1452,-408 1312,-408 1312,-404 1308,-404 1308,-400 1312,-400 1312,-380 1308,-380 1308,-376 1312,-376 1312,-372 1452,-372 1452,-408"/>
<polyline fill="none" stroke="#486581" stroke-width="1.5" points="1312,-404 1316,-404 1316,-400 1312,-400 "/>
<polyline fill="none" stroke="#486581" stroke-width="1.5" points="1312,-380 1316,-380 1316,-376 1312,-376 "/>
<text text-anchor="start" x="1322" y="-392.4" font-family="DejaVu Sans" font-weight="bold" font-size="12.00" fill="#4a3b00">ConsentSnapshot</text>
<text text-anchor="start" x="1330" y="-382" font-family="DejaVu Sans" font-size="10.00" fill="#4a3b00">[Логічний елемент]</text>
</g>
<!-- n_8007ddd991bc&#45;&gt;n_947df799f6a3 -->
<g id="edge3" class="edge">
<title>n_8007ddd991bc&#45;&gt;n_947df799f6a3</title>
<path fill="none" stroke="#486581" stroke-width="1.4" d="M799.23,-500.89C920.53,-486.05 1166,-456 1166,-456 1166,-456 1253.6,-429.64 1317.22,-410.49"/>
<polygon fill="#486581" stroke="#486581" stroke-width="1.4" points="1318.39,-413.06 1325.25,-408.08 1316.78,-407.7 1318.39,-413.06"/>
<text text-anchor="start" x="1203" y="-447.2" font-family="DejaVu Sans" font-size="11.00" fill="#334e68">Фіксує</text>
</g>
</g>
</svg>
